<svg width="111" height="110" viewBox="0 0 111 110" fill="none" xmlns="http://www.w3.org/2000/svg">
<circle opacity="0.272788" cx="56" cy="55" r="46" stroke="#D7A81E" stroke-width="0.4"/>
<circle opacity="0.201102" cx="55.5" cy="54.5" r="54.5" stroke="#D7A81E" stroke-width="0.2"/>
<circle opacity="0.396101" cx="55.5" cy="54.5" r="30.5" fill="#D7A81E"/>
<path fill-rule="evenodd" clip-rule="evenodd" d="M54.2 54.2V48.0435C54.2 47.4672 54.5582 47 55 47C55.4418 47 55.8 47.4672 55.8 48.0435V54.2H61.9565C62.5328 54.2 63 54.5582 63 55C63 55.4418 62.5328 55.8 61.9565 55.8H55.8V61.9565C55.8 62.5328 55.4418 63 55 63C54.5582 63 54.2 62.5328 54.2 61.9565V55.8H48.0435C47.4672 55.8 47 55.4418 47 55C47 54.5582 47.4672 54.2 48.0435 54.2H54.2Z" fill="#D7A81E"/>
</svg>
