<svg xmlns="http://www.w3.org/2000/svg" width="140.141" height="140" viewBox="0 0 140.141 140">
  <g id="Zimvest_illustrations-05" data-name="Zimvest illustrations-05" transform="translate(-0.827)">
    <g id="Group" transform="translate(0.897 60)" opacity="0.21">
      <path id="Path" d="M42.71,0l97.057,37.342-42.71,42.6L0,42.6,42.71,0Z" transform="translate(0.142 0.002)" fill="#231f20"/>
    </g>
    <path id="Path-2" data-name="Path" d="M2,0V1.925L0,2,2,0Z" transform="translate(138.897 90)" fill="#4a3796"/>
    <path id="Path-3" data-name="Path" d="M6,1.822,0,2V0L6,1.822Z" transform="translate(0.897 95)" fill="#4a3796"/>
    <path id="Path-4" data-name="Path" d="M140,37.01l-2.059,2.032L4.682,44,0,42.218,42.781,0,140,37.01Z" transform="translate(0.897 52)" fill="#6858a3"/>
    <path id="Path-5" data-name="Path" d="M43,0,0,43V41.009L40.93.077,43,0Z" transform="translate(97.897 91)" fill="#4a3796"/>
    <path id="Path-6" data-name="Path" d="M132,0,91.663,40,0,4.934,132,0Z" transform="translate(6.897 92)" fill="#6858a3"/>
    <path id="Path-7" data-name="Path" d="M98,35.055V37L0,.173,4.72,0,98,35.055Z" transform="translate(0.897 97)" fill="#4a3796"/>
    <path id="Path-8" data-name="Path" d="M97.209,43l-.041-.017L0,5.4l.051-.132L97.175,42.834,139.9,0l.1.1L97.209,43Z" transform="translate(0.897 91)" fill="#231f20"/>
    <path id="Shape" d="M97.145,79.983,0,42.641,42.813,0l.041.017L140,37.351,97.187,80Z" transform="translate(0.897 52)" fill="#231f20"/>
    <rect id="Rectangle" width="0.141" height="2" transform="translate(97.827 132)" fill="#231f20"/>
    <rect id="Rectangle-2" data-name="Rectangle" width="0.141" height="2" transform="translate(140.827 90)" fill="#231f20"/>
    <rect id="Rectangle-3" data-name="Rectangle" width="0.141" height="2" transform="translate(0.827 95)" fill="#231f20"/>
    <path id="Path-9" data-name="Path" d="M5.5,0C8.538,0,11,1.791,11,4S8.538,8,5.5,8,0,6.209,0,4A3.077,3.077,0,0,1,.451,2.413h.01A5.81,5.81,0,0,1,5.5,0Z" transform="translate(122.897 89)" fill="#554a89"/>
    <path id="Path-10" data-name="Path" d="M.1.1H.089V.088Z" transform="translate(122.804 90.906)" fill="#fff"/>
    <path id="Path-11" data-name="Path" d="M105,27.9v.011L73.532,59.247a4.529,4.529,0,0,0-.9.753L0,32.093a2.951,2.951,0,0,0,.389-1.208L29.853,1.537A5.339,5.339,0,0,0,32.376,0Z" transform="translate(17.897 63)" fill="#554a89"/>
    <path id="Path-12" data-name="Path" d="M5.5,0C8.538,0,11,1.791,11,4S8.538,8,5.5,8,0,6.21,0,4A3.259,3.259,0,0,1,.908,1.8l.1.039.814-.812A6.756,6.756,0,0,1,5.5,0Z" transform="translate(90.897 121)" fill="#554a89"/>
    <path id="Path-13" data-name="Path" d="M1,0,.112,1,0,.953A5.26,5.26,0,0,1,1,0Z" transform="translate(90.897 122)" fill="#fff"/>
    <path id="Path-14" data-name="Path" d="M11,4a3.245,3.245,0,0,1-.846,2.133l-.723-.279L7.579,7.705A7.31,7.31,0,0,1,5.5,8C2.467,8,0,6.209,0,4S2.461,0,5.5,0,11,1.791,11,4Z" transform="translate(40.897 57)" fill="#554a89"/>
    <path id="Path-15" data-name="Path" d="M2.158,0,3,.3A6.446,6.446,0,0,1,0,2Z" transform="translate(48.897 62)" fill="#9881ee"/>
    <path id="Path-16" data-name="Path" d="M11,4a2.075,2.075,0,0,1-.017.289l-1,1,.605.233A5.79,5.79,0,0,1,5.5,8C2.462,8,0,6.209,0,4S2.462,0,5.5,0,11,1.791,11,4Z" transform="translate(8.897 89)" fill="#554a89"/>
    <path id="Path-17" data-name="Path" d="M0,1.623,1,0A7.209,7.209,0,0,1,.6,2Z" transform="translate(18.897 93)" fill="#554a89"/>
    <path id="Rectangle-4" data-name="Rectangle" d="M0,.473,41.355.527h0L0,.473Z" transform="translate(19.014 93.343) rotate(-45)" fill="#231f20"/>
    <path id="Rectangle-5" data-name="Rectangle" d="M.466,0h0L.534,77.324h0Z" transform="matrix(0.36, -0.933, 0.933, 0.36, 18.798, 95.322)" fill="#231f20"/>
    <path id="Rectangle-6" data-name="Rectangle" d="M0,.471,44.15.529h0L0,.471Z" transform="translate(91.687 121.56) rotate(-45)" fill="#231f20"/>
    <path id="Rectangle-7" data-name="Rectangle" d="M.466,0h0L.534,77.3h0Z" transform="matrix(0.36, -0.933, 0.933, 0.36, 50.976, 63.386)" fill="#231f20"/>
    <path id="Shape-2" data-name="Shape" d="M0,4A3.265,3.265,0,0,1,.914,1.792a4.526,4.526,0,0,1,.92-.771A6.759,6.759,0,0,1,5.5,0C8.533,0,11,1.8,11,4S8.533,8,5.5,8,0,6.206,0,4Z" transform="translate(90.897 121)" fill="#231f20"/>
    <path id="Shape-3" data-name="Shape" d="M0,4A3.061,3.061,0,0,1,.457,2.4V2.394A5.86,5.86,0,0,1,5.5,0C8.531,0,11,1.8,11,4S8.536,8,5.5,8,0,6.206,0,4Z" transform="translate(122.897 89)" fill="#231f20"/>
    <path id="Shape-4" data-name="Shape" d="M0,4C0,1.795,2.474,0,5.5,0S11,1.795,11,4a1.881,1.881,0,0,1-.017.293,3.057,3.057,0,0,1-.4,1.239A5.8,5.8,0,0,1,5.5,8C2.467,8,0,6.206,0,4Z" transform="translate(8.897 89)" fill="#231f20"/>
    <path id="Shape-5" data-name="Shape" d="M5.5,8C2.468,8,0,6.2,0,4S2.473,0,5.5,0,11,1.793,11,4a3.247,3.247,0,0,1-.849,2.143A5.49,5.49,0,0,1,7.577,7.707,7.381,7.381,0,0,1,5.518,8Z" transform="translate(40.897 57)" fill="#231f20"/>
    <path id="Path-18" data-name="Path" d="M6.506,1.936,9,0,0,9,6.506,1.936Z" transform="translate(84.897 17)" fill="#55dfff"/>
    <path id="Path-19" data-name="Path" d="M3.484,0,5,5,0,.828,3.484,0Z" transform="translate(86.897 15)" fill="#55dfff"/>
    <path id="Path-20" data-name="Path" d="M4,4,0,.942.289,0,4,4Z" transform="translate(89.897 13)" fill="#55dfff"/>
    <path id="Path-21" data-name="Path" d="M7,0,.739,7,0,.812,7,0Z" transform="translate(83.897 19)" fill="#52aaff"/>
    <path id="Path-22" data-name="Path" d="M4,2.9,1.415,5,0,0,4,2.9Z" transform="translate(89.897 15)" fill="#52aaff"/>
    <path id="Path-23" data-name="Path" d="M7,4.121,0,5,2.67,0,7,4.121Z" transform="translate(83.897 15)" fill="#52aaff"/>
    <path id="Path-24" data-name="Path" d="M4,0,.8,4,0,1.959,4,0Z" transform="translate(77.897 14)" fill="#52aaff"/>
    <path id="Path-25" data-name="Path" d="M6,1.078,0,4,3.428,0,6,1.078Z" transform="translate(78.897 14)" fill="#55dfff"/>
    <path id="Path-26" data-name="Path" d="M4.545.842,0,3,5,0,4.545.842Z" transform="translate(76.897 13)" fill="#55dfff"/>
    <path id="Path-27" data-name="Path" d="M5.01,0,6,6,0,3.656,5.01,0Z" transform="translate(78.897 15)" fill="#52aaff"/>
    <path id="Path-28" data-name="Path" d="M4,.356,1.058,6,0,0,4,.356Z" transform="translate(82.897 15)" fill="#55dfff"/>
    <path id="Path-29" data-name="Path" d="M9,1.294l-.268.885L5.715,3,2.084,2.683,0,1.483.347.632,3.525,0,6.65.315,9,1.294Z" transform="translate(80.897 12)" fill="#52aaff"/>
    <path id="Path-30" data-name="Path" d="M6.211,1.893,7,8,0,0,6.211,1.893Z" transform="translate(78.897 18)" fill="#55dfff"/>
    <path id="Shape-6" data-name="Shape" d="M.715,4.86,0,2.983,3.867.512,7.034,0l3.125.257,2.36.8L16,4.127,7.3,12Z" transform="translate(77.897 13)" fill="#231f20"/>
    <path id="Path-31" data-name="Path" d="M5.713,2,5.7,2l-3.593-.26L0,.742.37,0,.49.055.177.684l1.978.932L5.7,1.87l2.923-.651.251-.68L9,.583l-.276.746L5.713,2Z" transform="translate(80.897 13)" fill="#231f20"/>
    <path id="Shape-7" data-name="Shape" d="M6.46,6.853.613,4.741,3.258.468.065,2.491,0,2.351,3.716,0,.964,4.436,5.607,1.3l.944,5.274L9.162,1.62l4.195,4.051L12.06.729,16,3.8,13.571,5.938l.052.2-.15-.146-6.922.869L6.486,7Z" transform="translate(77.897 13)" fill="#231f20"/>
    <path id="Path-32" data-name="Path" d="M.745,7,0,.847.131.828l.71,5.86L6.9,0,7,.1.745,7Z" transform="translate(83.897 19)" fill="#231f20"/>
    <g id="Group-2" data-name="Group" transform="translate(83.897 2)">
      <path id="Path-33" data-name="Path" d="M.3.028.168,6.47.032,6.44.168,0,.3.028Z" transform="translate(0.268 0.312)" fill="#90c7f4"/>
      <path id="Path-34" data-name="Path" d="M.383,6.662,0,6.58.14,0,.523.08.383,6.662Z" transform="translate(0.173 0.215)" fill="#231f20"/>
      <path id="Path-35" data-name="Path" d="M.133.119.987,0,.853,6.442,0,6.561.133.119Z" transform="translate(0.437 0.221)" fill="#90c7f4"/>
      <path id="Shape-8" data-name="Shape" d="M.137.154,1.243,0,1.1,6.578,0,6.73Z" transform="translate(0.31 0.135)" fill="#231f20"/>
      <path id="Path-36" data-name="Path" d="M0,.133.853.014.987.042.133.161,0,.133Z" transform="translate(0.437 0.178)" fill="#90c7f4"/>
      <path id="Path-37" data-name="Path" d="M.527.283,0,.175,1.26,0l.527.108L.527.283Z" transform="translate(0.037 0.124)" fill="#231f20"/>
    </g>
    <g id="Group-3" data-name="Group" transform="translate(82.897 27)">
      <path id="Path-38" data-name="Path" d="M.3.029.165,6.634.032,6.605.165,0,.3.029Z" transform="translate(0.422 0.203)" fill="#90c7f4"/>
      <path id="Path-39" data-name="Path" d="M.383,6.833,0,6.751.137,0,.523.083.383,6.833Z" transform="translate(0.327 0.102)" fill="#231f20"/>
      <path id="Path-40" data-name="Path" d="M.137.122.99,0,.853,6.605,0,6.727.137.122Z" transform="translate(0.587 0.109)" fill="#90c7f4"/>
      <path id="Shape-9" data-name="Shape" d="M.14.157,1.243,0,1.1,6.746,0,6.9Z" transform="translate(0.46 0.022)" fill="#231f20"/>
      <path id="Path-41" data-name="Path" d="M0,.136.853.014.99.043.137.165,0,.136Z" transform="translate(0.587 0.066)" fill="#90c7f4"/>
      <path id="Path-42" data-name="Path" d="M.527.293,0,.179,1.26,0l.523.113L.527.293Z" transform="translate(0.19 0.009)" fill="#231f20"/>
    </g>
    <g id="Group-4" data-name="Group" transform="translate(90.897 20)">
      <path id="Path-43" data-name="Path" d="M4.85,1.534v.091L0,.092,0,0,4.85,1.534Z" transform="translate(0.279 0.232)" fill="#90c7f4"/>
      <path id="Path-44" data-name="Path" d="M5,1.794,0,.215,0,0,5,1.578l0,.215Z" transform="translate(0.205 0.148)" fill="#231f20"/>
      <path id="Path-45" data-name="Path" d="M0,.1.5,0,.5.091,0,.2V.1Z" transform="translate(5.129 1.662)" fill="#90c7f4"/>
      <path id="Path-46" data-name="Path" d="M0,.346,0,.135.645,0l0,.211L0,.346Z" transform="translate(5.055 1.586)" fill="#231f20"/>
      <path id="Path-47" data-name="Path" d="M0,.1.494,0,5.346,1.532l-.5.1L0,.1Z" transform="translate(0.281 0.129)" fill="#90c7f4"/>
      <path id="Shape-10" data-name="Shape" d="M0,.154.732,0,.753.008,5.809,1.6l-.732.154Z" transform="translate(0.048 0.068)" fill="#231f20"/>
    </g>
    <g id="Group-5" data-name="Group" transform="translate(73.897 13)">
      <path id="Path-48" data-name="Path" d="M4.85,1.532l0,.091L0,.091V0L4.85,1.532Z" transform="translate(0.304 0.277)" fill="#90c7f4"/>
      <path id="Path-49" data-name="Path" d="M4.994,1.792,0,.215,0,0,5,1.578l0,.214Z" transform="translate(0.23 0.192)" fill="#231f20"/>
      <path id="Path-50" data-name="Path" d="M0,.1.5,0,.5.091l-.5.1L0,.1Z" transform="translate(5.152 1.706)" fill="#90c7f4"/>
      <path id="Path-51" data-name="Path" d="M0,.345,0,.134.645,0l0,.211L0,.345Z" transform="translate(5.079 1.631)" fill="#231f20"/>
      <path id="Path-52" data-name="Path" d="M0,.1.5,0l4.85,1.532-.5.1L0,.1Z" transform="translate(0.304 0.174)" fill="#90c7f4"/>
      <path id="Shape-11" data-name="Shape" d="M5.054,1.751,0,.154.732,0H.753L5.807,1.6l-.732.154Z" transform="translate(0.074 0.12)" fill="#231f20"/>
    </g>
    <g id="Group-6" data-name="Group" transform="translate(89.897 10)">
      <path id="Path-53" data-name="Path" d="M1.618,0l.06.088L.06,1.415,0,1.327,1.618,0Z" transform="translate(0.362 0.315)" fill="#90c7f4"/>
      <path id="Path-54" data-name="Path" d="M.139,1.628,0,1.422,1.734,0l.139.2L.139,1.628Z" transform="translate(0.264 0.208)" fill="#231f20"/>
      <path id="Path-55" data-name="Path" d="M0,.113.546,0,.609.088.06.2,0,.113Z" transform="translate(1.98 0.202)" fill="#90c7f4"/>
      <path id="Path-56" data-name="Path" d="M.137.348,0,.145.709,0,.846.2.137.348Z" transform="translate(1.86 0.128)" fill="#231f20"/>
      <path id="Path-57" data-name="Path" d="M1.618.113,2.166,0,.549,1.327,0,1.44,1.618.113Z" transform="translate(0.422 0.29)" fill="#90c7f4"/>
      <path id="Shape-12" data-name="Shape" d="M1.828.167,2.672,0,.844,1.5,0,1.667Z" transform="translate(0.169 0.18)" fill="#231f20"/>
    </g>
    <g id="Group-7" data-name="Group" transform="translate(76.897 23)">
      <path id="Path-58" data-name="Path" d="M1.618,0l.06.1L.06,1.542,0,1.445,1.618,0Z" transform="translate(0.332 0.273)" fill="#90c7f4"/>
      <path id="Path-59" data-name="Path" d="M.139,1.775,0,1.551,1.734,0l.141.224L.139,1.775Z" transform="translate(0.234 0.156)" fill="#231f20"/>
      <path id="Path-60" data-name="Path" d="M0,.124.549,0l.06.1L.06.22,0,.124Z" transform="translate(1.95 0.149)" fill="#90c7f4"/>
      <path id="Path-61" data-name="Path" d="M.139.378,0,.16.709,0,.846.22.139.378Z" transform="translate(1.83 0.069)" fill="#231f20"/>
      <path id="Path-62" data-name="Path" d="M1.618.124,2.166,0,.549,1.447,0,1.569,1.618.124Z" transform="translate(0.392 0.245)" fill="#90c7f4"/>
      <path id="Shape-13" data-name="Shape" d="M1.828.182,2.672,0,.844,1.636,0,1.818Z" transform="translate(0.139 0.124)" fill="#231f20"/>
    </g>
    <g id="Group-8" data-name="Group" transform="translate(89.897 27)">
      <path id="Path-63" data-name="Path" d="M.045,0,1.168,2.444,1.123,2.5,0,.053.045,0Z" transform="translate(0.12 0.309)" fill="#90c7f4"/>
      <path id="Path-64" data-name="Path" d="M1.18,2.723,0,.152.129,0l1.18,2.568-.129.155Z" transform="translate(0.049 0.198)" fill="#231f20"/>
      <path id="Path-65" data-name="Path" d="M0,.12.394,0,1.517,2.446l-.394.118L0,.12Z" transform="translate(0.165 0.189)" fill="#90c7f4"/>
      <path id="Shape-14" data-name="Shape" d="M0,.156.508,0,1.687,2.566l-.509.154Z" transform="translate(0.08 0.104)" fill="#231f20"/>
      <path id="Path-66" data-name="Path" d="M.045.12.438,0,.394.055,0,.175.045.12Z" transform="translate(1.243 2.633)" fill="#90c7f4"/>
      <path id="Path-67" data-name="Path" d="M0,.42.2.184.8,0l-.2.236L0,.42Z" transform="translate(1.062 2.511)" fill="#231f20"/>
    </g>
    <g id="Group-9" data-name="Group" transform="translate(77.897 6)">
      <path id="Path-68" data-name="Path" d="M.045,0,1.169,2.448,1.125,2.5,0,.055.045,0Z" transform="translate(0.106 0.346)" fill="#90c7f4"/>
      <path id="Path-69" data-name="Path" d="M1.182,2.726,0,.155.129,0,1.311,2.571l-.129.155Z" transform="translate(0.035 0.233)" fill="#231f20"/>
      <path id="Path-70" data-name="Path" d="M0,.12.394,0,1.518,2.448l-.394.12L0,.12Z" transform="translate(0.151 0.226)" fill="#90c7f4"/>
      <path id="Shape-15" data-name="Shape" d="M0,.156.508,0l1.18,2.568-.508.154Z" transform="translate(0.066 0.148)" fill="#231f20"/>
      <path id="Path-71" data-name="Path" d="M.045.122.438,0,.394.055,0,.175.045.122Z" transform="translate(1.231 2.672)" fill="#90c7f4"/>
      <path id="Path-72" data-name="Path" d="M0,.42.2.184.8,0l-.2.236L0,.42Z" transform="translate(1.049 2.55)" fill="#231f20"/>
    </g>
    <g id="Group-10" data-name="Group" transform="translate(36.897 61)" opacity="0.36">
      <path id="Path-73" data-name="Path" d="M67.494,13.358l-33.709,34.3L0,34.2,33.537,0,67.494,13.358Z" transform="translate(0.209 0.162)" fill="#231f20"/>
      <path id="Shape-16" data-name="Shape" d="M0,34.3,33.645,0l.043.015,34.058,13.4-.076.077L33.927,47.829Z" transform="translate(0.084 0.076)" fill="#231f20"/>
    </g>
    <path id="Path-74" data-name="Path" d="M3,0V62.239c0,.42-.672.761-1.5.761S0,62.669,0,62.239V0C0,.42.672.759,1.5.759S3,.42,3,0Z" transform="translate(48.897 15)" fill="#a59cc6"/>
    <path id="Path-75" data-name="Path" d="M1.5,0C2.329,0,3,.448,3,1S2.329,2,1.5,2,0,1.554,0,1,.671,0,1.5,0Z" transform="translate(48.897 13)" fill="#a59cc6"/>
    <rect id="Rectangle-8" data-name="Rectangle" width="0.141" height="63" transform="translate(51.827 15)" fill="#231f20"/>
    <rect id="Rectangle-9" data-name="Rectangle" width="0.141" height="63" transform="translate(49.827 15)" fill="#231f20"/>
    <path id="Path-76" data-name="Path" d="M1.5,1C.661,1,0,.555,0,0H.137C.137.445.764.833,1.5.833S2.87.452,2.87,0H3C3,.561,2.346,1,1.5,1Z" transform="translate(48.897 77)" fill="#231f20"/>
    <path id="Shape-17" data-name="Shape" d="M0,1C0,.446.66,0,1.5,0S3,.446,3,1,2.34,2,1.5,2,0,1.553,0,1Z" transform="translate(48.897 13)" fill="#231f20"/>
    <path id="Path-77" data-name="Path" d="M3,0V25.24c0,.419-.671.76-1.5.76S0,25.659,0,25.24V0C0,.419.671.761,1.5.761S3,.419,3,0Z" transform="translate(31.897 68)" fill="#a59cc6"/>
    <path id="Path-78" data-name="Path" d="M1.5,0C2.329,0,3,.446,3,1S2.329,2,1.5,2,0,1.549,0,1,.671,0,1.5,0Z" transform="translate(31.897 67)" fill="#a59cc6"/>
    <rect id="Rectangle-10" data-name="Rectangle" width="0.141" height="26" transform="translate(34.827 67)" fill="#231f20"/>
    <rect id="Rectangle-11" data-name="Rectangle" width="0.141" height="26" transform="translate(31.827 67)" fill="#231f20"/>
    <path id="Path-79" data-name="Path" d="M1.5,1C.658,1,0,.554,0,0H.136C.136.446.76.833,1.5.833S2.856.451,2.856,0H3C3,.569,2.335,1,1.5,1Z" transform="translate(31.897 93)" fill="#231f20"/>
    <path id="Shape-18" data-name="Shape" d="M0,1C0,.446.66,0,1.5,0S3,.446,3,1,2.34,2,1.5,2,0,1.553,0,1Z" transform="translate(31.897 67)" fill="#231f20"/>
    <path id="Path-80" data-name="Path" d="M.037,59,0,58.863c3.537-1,6.573-4.707,9.022-11.024a93.784,93.784,0,0,0,4.736-20.033A233.981,233.981,0,0,0,15.862,0H16a234.071,234.071,0,0,1-2.106,27.825A93.986,93.986,0,0,1,9.151,47.894C6.685,54.245,3.618,57.989.037,59Z" transform="translate(34.897 18)" fill="#231f20"/>
    <path id="Shape-19" data-name="Shape" d="M0,8.741,8.689,0,40,12.253,31.318,21Z" transform="translate(48.897 60)" fill="#3dea8f"/>
    <path id="Path-81" data-name="Path" d="M2,0c1.1,0,2,.673,2,1.5S3.106,3,2,3,0,2.334,0,1.5.9,0,2,0Z" transform="translate(77.897 73)" fill="#3dea8f"/>
    <path id="Shape-20" data-name="Shape" d="M0,7.59l.366-.938a5.767,5.767,0,0,0,2.146.38c2.481,0,4.5-1.459,4.5-3.259A3.287,3.287,0,0,0,4.654.9L5.007,0,21,6.149,14.078,13Z" transform="translate(65.897 64)" fill="#12ca70"/>
    <path id="Shape-21" data-name="Shape" d="M0,8.74,8.708,0,40,12.254,31.328,21Z" transform="translate(58.897 32)" fill="#3dea8f"/>
    <path id="Path-82" data-name="Path" d="M6.643.423A3.484,3.484,0,0,1,9,3.5C9,5.437,6.985,7,4.5,7a5.431,5.431,0,0,1-2.145-.423A3.473,3.473,0,0,1,0,3.5C0,1.563,2.015,0,4.5,0A5.571,5.571,0,0,1,6.643.423Z" transform="translate(62.897 66)" fill="#3dea8f"/>
    <path id="Shape-22" data-name="Shape" d="M0,16.8V0L35,13.194V30Z" transform="translate(55.897 41)" fill="#3dea8f"/>
    <path id="Path-83" data-name="Path" d="M2.352,6.581A3.484,3.484,0,0,1,0,3.5C0,1.569,2.015,0,4.5,0A5.552,5.552,0,0,1,6.645.417,3.5,3.5,0,0,1,9,3.5C9,5.429,6.985,7,4.5,7a5.6,5.6,0,0,1-2.148-.419Z" transform="translate(73.897 38)" fill="#3dea8f"/>
    <path id="Shape-23" data-name="Shape" d="M0,10.312,10.73,0,45,12.687,34.258,23Z" transform="translate(56.897 31)" fill="#3dea8f"/>
    <path id="Path-84" data-name="Path" d="M0,1.5C0,.669.9,0,2,0S4,.673,4,1.5,3.1,3,2,3,0,2.329,0,1.5Z" transform="translate(54.897 64)" fill="#3dea8f"/>
    <path id="Path-85" data-name="Path" d="M2,3C.894,3,0,2.325,0,1.493S.9,0,2,0,4,.675,4,1.5,3.112,3,2,3Z" transform="translate(64.897 36)" fill="#3dea8f"/>
    <path id="Path-86" data-name="Path" d="M1.21,2.991C.673,3.082.139,2.489.023,1.662S.244.1.782.01s1.072.5,1.194,1.329S1.749,2.9,1.21,2.991Z" transform="translate(81.897 58)" fill="#3dea8f"/>
    <path id="Path-87" data-name="Path" d="M35,11.949,34.942,12,0,.073V0L35,11.949Z" transform="translate(55.897 59)" fill="#fff"/>
    <path id="Shape-24" data-name="Shape" d="M0,11.38V0L14,5.338l-.4,1.016a2.532,2.532,0,0,0-1.277-.144c-1.791.275-2.918,2.524-2.528,5.02a4.85,4.85,0,0,0,2.674,3.886l-.013.005L12.112,16Z" transform="translate(59.897 45)" fill="#12ca70"/>
    <path id="Shape-25" data-name="Shape" d="M0,10.31,10.517,0V.09L44,12.752,33.54,23Z" transform="translate(46.897 59)" fill="#3dea8f"/>
    <path id="Shape-26" data-name="Shape" d="M0,10.836l.347-.892a2.455,2.455,0,0,0,1.284.15C3.437,9.806,4.579,7.518,4.183,4.98A4.941,4.941,0,0,0,1.5,1.033L1.9,0,16,5.439V17Z" transform="translate(71.897 51)" fill="#12ca70"/>
    <path id="Path-88" data-name="Path" d="M.788.01c.54-.094,1.072.5,1.189,1.325s-.22,1.571-.765,1.657S.139,2.488.023,1.667.248.1.788.01Z" transform="translate(60.897 51)" fill="#3dea8f"/>
    <path id="Shape-27" data-name="Shape" d="M0,7.582l.366-.938a5.943,5.943,0,0,0,2.146.394C5,7.039,7.007,5.58,7.007,3.773A3.277,3.277,0,0,0,4.663.9l0,0L5.01,0,21,6.149,14.085,13Z" transform="translate(75.897 38)" fill="#12ca70"/>
    <path id="Path-89" data-name="Path" d="M6.918,4.007c.415,2.469-.782,4.7-2.67,4.966A2.747,2.747,0,0,1,2.9,8.827,4.83,4.83,0,0,1,.083,4.987C-.332,2.518.852.3,2.748.026A2.833,2.833,0,0,1,4.093.168,4.834,4.834,0,0,1,6.918,4.007Z" transform="translate(68.897 52)" fill="#3dea8f"/>
    <path id="Shape-28" data-name="Shape" d="M0,6.717,7.269,0,20,4.569l-.361.88a6.6,6.6,0,0,0-2.253-.384c-2.607,0-4.725,1.43-4.725,3.2a3.286,3.286,0,0,0,2.47,2.815L14.747,12Z" transform="translate(60.897 34)" fill="#12ca70"/>
    <path id="Shape-29" data-name="Shape" d="M0,6.719,7.258,0,20,4.571l-.371.884a6.6,6.6,0,0,0-2.249-.387c-2.614,0-4.722,1.431-4.722,3.2a3.27,3.27,0,0,0,2.471,2.81L14.745,12Z" transform="translate(49.897 62)" fill="#12ca70"/>
    <path id="Path-90" data-name="Path" d="M2,3C.9,3,0,2.327,0,1.5S.9,0,2,0,4,.671,4,1.5,3.1,3,2,3Z" transform="translate(88.897 45)" fill="#3dea8f"/>
    <path id="Path-91" data-name="Path" d="M.122.053v.08L.066.109.122.053Z" transform="translate(90.804 70.906)" fill="#fff"/>
    <path id="Shape-30" data-name="Shape" d="M0,13.752V0L32,12.248V26Z" transform="translate(57.897 43)" fill="#3dea8f"/>
    <path id="Path-92" data-name="Path" d="M.122.053v.08L.066.109.122.053Z" transform="translate(79.804 98.906)" fill="#fff"/>
    <path id="Path-93" data-name="Path" d="M35,11.949,34.942,12,0,.08V0L35,11.949Z" transform="translate(45.897 87)" fill="#fff"/>
    <path id="Path-94" data-name="Path" d="M1.977,1.334c.116.828-.227,1.572-.767,1.658S.139,2.488.023,1.666.243.094.782.008,1.859.5,1.977,1.334Z" transform="translate(71.897 86)" fill="#3dea8f"/>
    <path id="Shape-31" data-name="Shape" d="M0,7.586l.366-.938a5.83,5.83,0,0,0,2.146.392c2.481,0,4.5-1.46,4.5-3.266A3.3,3.3,0,0,0,4.654.9L5,0,21,6.152,14.076,13Z" transform="translate(54.897 93)" fill="#12ca70"/>
    <path id="Path-95" data-name="Path" d="M4,1.5C4,2.334,3.105,3,2,3S0,2.329,0,1.5.895,0,2,0,4,.673,4,1.5Z" transform="translate(66.897 101)" fill="#3dea8f"/>
    <path id="Path-96" data-name="Path" d="M6.918,4.012c.416,2.469-.785,4.69-2.673,4.963A2.87,2.87,0,0,1,2.9,8.832,4.821,4.821,0,0,1,.083,4.994C-.333,2.517.853.3,2.751.025A2.864,2.864,0,0,1,4.1.168,4.853,4.853,0,0,1,6.918,4.012Z" transform="translate(57.897 79)" fill="#3dea8f"/>
    <path id="Shape-32" data-name="Shape" d="M0,10.832l.352-.887a2.551,2.551,0,0,0,1.284.147c1.8-.281,2.943-2.566,2.547-5.1A4.962,4.962,0,0,0,1.5,1.033L1.9,0,16,5.438V17Z" transform="translate(61.897 78)" fill="#12ca70"/>
    <path id="Path-97" data-name="Path" d="M6.645.422A3.509,3.509,0,0,1,9,3.5C9,5.432,6.987,7,4.5,7a5.509,5.509,0,0,1-2.148-.42A3.487,3.487,0,0,1,0,3.5C0,1.57,2.013,0,4.5,0A5.46,5.46,0,0,1,6.645.422Z" transform="translate(52.897 93)" fill="#3dea8f"/>
    <path id="Path-98" data-name="Path" d="M1.977,1.337c.116.822-.22,1.561-.765,1.653S.139,2.488.023,1.663.25.1.789.009,1.861.512,1.977,1.337Z" transform="translate(49.897 78)" fill="#3dea8f"/>
    <path id="Shape-33" data-name="Shape" d="M0,11.38V0L14,5.338l-.4,1.016a2.562,2.562,0,0,0-1.277-.144c-1.79.275-2.918,2.524-2.527,5.027a4.862,4.862,0,0,0,2.666,3.884L12.118,16Z" transform="translate(48.897 73)" fill="#12ca70"/>
    <path id="Shape-34" data-name="Shape" d="M0,13.751V0L32,12.249V26Z" transform="translate(47.897 71)" fill="#3dea8f"/>
    <path id="Path-99" data-name="Path" d="M2,0C3.1,0,4,.664,4,1.5S3.1,3,2,3,0,2.327,0,1.5.9,0,2,0Z" transform="translate(43.897 91)" fill="#3dea8f"/>
    <path id="Shape-35" data-name="Shape" d="M0,16.8V0L35,13.2,35,30Z" transform="translate(45.897 69)" fill="#3dea8f"/>
    <path id="Shape-36" data-name="Shape" d="M0,8.743,8.695,0,40,12.25,31.327,21Z" transform="translate(37.897 87)" fill="#3dea8f"/>
    <path id="Shape-37" data-name="Shape" d="M0,10.31,10.517,0V.085L44,12.744,33.539,23Z" transform="translate(35.897 86)" fill="#3dea8f"/>
    <path id="Shape-38" data-name="Shape" d="M0,6.716,7.264,0,20,4.574l-.359.871a6.484,6.484,0,0,0-2.248-.386c-2.614,0-4.729,1.431-4.729,3.2a3.3,3.3,0,0,0,2.473,2.818L14.752,12Z" transform="translate(38.897 88)" fill="#12ca70"/>
    <path id="Path-100" data-name="Path" d="M34.312,24l-.043-.017L0,10.783,10.808,0h.03l0,.073.045.047L.252,10.728,34.276,23.835,44.9,13.231l.1.1L34.312,24Z" transform="translate(34.897 85)" fill="#231f20"/>
    <path id="Shape-39" data-name="Shape" d="M0,8.78,8.747,0,40,12.214,31.264,21Z" transform="translate(37.897 87)" fill="#231f20"/>
    <path id="Shape-40" data-name="Shape" d="M0,7.418,7.163,0,36,11.588,28.822,19Z" transform="translate(39.897 88)" fill="#231f20"/>
    <path id="Shape-41" data-name="Shape" d="M2.361,6.583A3.5,3.5,0,0,1,0,3.5C0,1.571,2.019,0,4.505,0A5.414,5.414,0,0,1,6.639.418,3.5,3.5,0,0,1,9,3.5C9,5.43,6.98,7,4.5,7h-.04A5.521,5.521,0,0,1,2.361,6.583Z" transform="translate(52.897 93)" fill="#231f20"/>
    <path id="Shape-42" data-name="Shape" d="M0,1.5C0,.669.9,0,2,0S4,.671,4,1.5,3.1,3,2,3,0,2.325,0,1.5Z" transform="translate(66.897 101)" fill="#231f20"/>
    <path id="Shape-43" data-name="Shape" d="M0,1.5C0,.667.9,0,2,0S4,.673,4,1.5,3.1,3,2,3,0,2.326,0,1.5Z" transform="translate(43.897 91)" fill="#231f20"/>
    <path id="Shape-44" data-name="Shape" d="M34.841,29.931,0,16.874V0L.1.037,35,13.126,35,30Z" transform="translate(45.897 69)" fill="#231f20"/>
    <path id="Shape-45" data-name="Shape" d="M31.9,25.965,0,13.794V0L.1.037,32,12.206V26Z" transform="translate(47.897 71)" fill="#231f20"/>
    <path id="Shape-46" data-name="Shape" d="M28.9,21.965,0,11.389V0L.1.036,14.513,5.309,29,10.612V22Z" transform="translate(48.897 73)" fill="#231f20"/>
    <path id="Shape-47" data-name="Shape" d="M2.878,8.825a4.811,4.811,0,0,1-2.8-3.832C-.329,2.528.866.3,2.749.027A2.821,2.821,0,0,1,4.108.171a4.837,4.837,0,0,1,2.8,3.836A5.193,5.193,0,0,1,6.442,7.3a3.015,3.015,0,0,1-2.2,1.668A2.953,2.953,0,0,1,3.85,9,2.9,2.9,0,0,1,2.878,8.825Z" transform="translate(57.897 79)" fill="#231f20"/>
    <path id="Shape-48" data-name="Shape" d="M1.092,3a.789.789,0,0,1-.5-.191A2.036,2.036,0,0,1,.25.39.806.806,0,0,1,.784.01c.534-.094,1.069.5,1.191,1.32a1.907,1.907,0,0,1-.24,1.285A.807.807,0,0,1,1.2,3a.718.718,0,0,1-.087,0Z" transform="translate(71.897 86)" fill="#231f20"/>
    <path id="Shape-49" data-name="Shape" d="M1.1,3c-.5,0-.973-.57-1.08-1.33C-.093.848.254.105.793.01S1.866.517,1.978,1.34,1.757,2.9,1.208,3a.488.488,0,0,1-.062,0Z" transform="translate(49.897 78)" fill="#231f20"/>
    <path id="Path-101" data-name="Path" d="M34.311,24l-.043-.017L0,10.787,10.8,0h.03l0,.075.045.045L.254,10.733l34.021,13.1L44.9,13.236l.1.1L34.311,24Z" transform="translate(45.897 58)" fill="#231f20"/>
    <path id="Path-102" data-name="Path" d="M.1.164.09.023H.1v.14Z" transform="translate(48.804 67.906)" fill="#231f20"/>
    <path id="Shape-50" data-name="Shape" d="M31.22,20.983,0,8.78,8.743,0l.043.017L40,12.214,31.263,21Z" transform="translate(48.897 60)" fill="#231f20"/>
    <path id="Shape-51" data-name="Shape" d="M.023,7.456.046,7.4V7.384L0,7.335,6.9,0,35,11.579,28.013,19Z" transform="translate(51.897 61)" fill="#231f20"/>
    <path id="Shape-52" data-name="Shape" d="M2.364,6.582A3.475,3.475,0,0,1,0,3.5C0,1.571,2.02,0,4.5,0A5.632,5.632,0,0,1,6.636.418,3.486,3.486,0,0,1,9,3.5C9,5.431,6.984,7,4.5,7H4.449A5.42,5.42,0,0,1,2.364,6.582Z" transform="translate(62.897 66)" fill="#231f20"/>
    <path id="Shape-53" data-name="Shape" d="M0,1.5C0,.677.9,0,2,0S4,.675,4,1.5,3.11,3,2,3,0,2.329,0,1.5Z" transform="translate(77.897 73)" fill="#231f20"/>
    <path id="Shape-54" data-name="Shape" d="M0,1.5C0,.677.9,0,2,0S4,.675,4,1.5,3.1,3,2,3,0,2.329,0,1.5Z" transform="translate(54.897 64)" fill="#231f20"/>
    <path id="Shape-55" data-name="Shape" d="M34.841,29.931,0,16.868V0L.1.037,35,13.119,35,30Z" transform="translate(55.897 41)" fill="#231f20"/>
    <path id="Shape-56" data-name="Shape" d="M31.9,25.962,0,13.794V0L.1.037,32,12.209V26Z" transform="translate(57.897 43)" fill="#231f20"/>
    <path id="Shape-57" data-name="Shape" d="M28.9,21.966,0,11.39V0L.1.036,14.513,5.319,29,10.622V22Z" transform="translate(58.897 45)" fill="#231f20"/>
    <path id="Shape-58" data-name="Shape" d="M3.857,9a2.765,2.765,0,0,1-.972-.175,4.8,4.8,0,0,1-2.8-3.832,5.21,5.21,0,0,1,.473-3.3A3,3,0,0,1,2.758.028,2.793,2.793,0,0,1,4.115.172,4.82,4.82,0,0,1,6.912,4a5.222,5.222,0,0,1-.47,3.3,3,3,0,0,1-2.2,1.67A2.523,2.523,0,0,1,3.874,9Z" transform="translate(68.897 52)" fill="#231f20"/>
    <path id="Shape-59" data-name="Shape" d="M1.093,3a.786.786,0,0,1-.5-.19A2.037,2.037,0,0,1,.249.389.813.813,0,0,1,.784.009C1.333-.079,1.857.5,1.978,1.34,2.092,2.159,1.746,2.9,1.206,3L1.149,3Z" transform="translate(81.897 58)" fill="#231f20"/>
    <path id="Shape-60" data-name="Shape" d="M1.09,3a.789.789,0,0,1-.5-.191A1.792,1.792,0,0,1,.022,1.667C-.092.846.253.1.789.008A.762.762,0,0,1,1.4.189a1.792,1.792,0,0,1,.573,1.143,1.912,1.912,0,0,1-.237,1.289.809.809,0,0,1-.534.372.57.57,0,0,1-.1.007Z" transform="translate(60.897 51)" fill="#231f20"/>
    <path id="Shape-61" data-name="Shape" d="M34.173,23.983,0,10.8,10.784,0l.043.017L45,13.2,34.216,24Z" transform="translate(56.897 30)" fill="#231f20"/>
    <path id="Path-103" data-name="Path" d="M.1.164H.091V.023L.1.164Z" transform="translate(98.804 43.906)" fill="#231f20"/>
    <path id="Shape-62" data-name="Shape" d="M0,8.779,8.756,0,8.8.017,40,12.216,31.269,21Z" transform="translate(58.897 32)" fill="#231f20"/>
    <path id="Shape-63" data-name="Shape" d="M28.8,18.983,14.425,13.207,0,7.417,7.167,0,36,11.583,28.842,19Z" transform="translate(61.897 33)" fill="#231f20"/>
    <path id="Shape-64" data-name="Shape" d="M2.358,6.583A3.493,3.493,0,0,1,0,3.5C0,1.571,2.019,0,4.5,0A5.62,5.62,0,0,1,6.637.418,3.492,3.492,0,0,1,9,3.5C9,5.43,6.981,7,4.5,7H4.485A5.638,5.638,0,0,1,2.358,6.583Z" transform="translate(73.897 39)" fill="#231f20"/>
    <path id="Shape-65" data-name="Shape" d="M0,1.5C0,.677.9,0,2,0S4,.675,4,1.5,3.1,3,2,3,0,2.329,0,1.5Z" transform="translate(88.897 45)" fill="#231f20"/>
    <path id="Shape-66" data-name="Shape" d="M0,1.5C0,.669.9,0,2,0S4,.671,4,1.5,3.11,3,2,3,0,2.325,0,1.5Z" transform="translate(64.897 36)" fill="#231f20"/>
    <path id="Path-104" data-name="Path" d="M3,0V62.239c0,.42-.672.761-1.5.761S0,62.659,0,62.239V0C0,.418.672.759,1.5.759S3,.418,3,0Z" transform="translate(93.897 32)" fill="#a59cc6"/>
    <path id="Path-105" data-name="Path" d="M1.5,0C2.328,0,3,.446,3,1S2.328,2,1.5,2,0,1.552,0,1,.672,0,1.5,0Z" transform="translate(93.897 31)" fill="#a59cc6"/>
    <rect id="Rectangle-12" data-name="Rectangle" width="0.141" height="63" transform="translate(96.827 32)" fill="#231f20"/>
    <rect id="Rectangle-13" data-name="Rectangle" width="0.141" height="63" transform="translate(93.827 32)" fill="#231f20"/>
    <path id="Path-106" data-name="Path" d="M1.5,1C.658,1,0,.554,0,0H.137C.137.446.76.833,1.5.833S2.863.451,2.863,0H3C3,.56,2.342,1,1.5,1Z" transform="translate(93.897 94)" fill="#231f20"/>
    <path id="Shape-67" data-name="Shape" d="M0,1C0,.451.659,0,1.5,0S3,.446,3,1,2.342,2,1.5,2,0,1.553,0,1Z" transform="translate(93.897 31)" fill="#231f20"/>
    <path id="Path-107" data-name="Path" d="M3,0V25.238c0,.421-.673.762-1.5.762S0,25.659,0,25.238V0C0,.421.671.762,1.5.762S3,.411,3,0Z" transform="translate(75.897 85)" fill="#a59cc6"/>
    <path id="Path-108" data-name="Path" d="M1.5,0C2.327,0,3,.448,3,1S2.327,2,1.5,2,0,1.552,0,1,.671,0,1.5,0Z" transform="translate(75.897 84)" fill="#a59cc6"/>
    <rect id="Rectangle-14" data-name="Rectangle" width="0.141" height="26" transform="translate(78.827 85)" fill="#231f20"/>
    <rect id="Rectangle-15" data-name="Rectangle" width="0.141" height="26" transform="translate(76.827 85)" fill="#231f20"/>
    <path id="Path-109" data-name="Path" d="M1.5,1C.657,1,0,.555,0,0H.14C.14.445.763.833,1.5.833S2.863.452,2.863,0H3C3,.561,2.337,1,1.5,1Z" transform="translate(75.897 109)" fill="#231f20"/>
    <path id="Shape-68" data-name="Shape" d="M0,1C0,.442.658,0,1.5,0S3,.446,3,1,2.34,2,1.5,2,0,1.553,0,1Z" transform="translate(75.897 84)" fill="#231f20"/>
    <path id="Path-110" data-name="Path" d="M.037,59,0,58.865c3.537-1,6.573-4.707,9.022-11.024a93.829,93.829,0,0,0,4.734-20.034A234.225,234.225,0,0,0,15.862,0H16a234.582,234.582,0,0,1-2.106,27.828A93.848,93.848,0,0,1,9.149,47.9C6.685,54.259,3.618,58,.037,59Z" transform="translate(78.897 35)" fill="#231f20"/>
    <rect id="Rectangle-16" data-name="Rectangle" width="140" height="140" transform="translate(0.897)" fill="#9881ee" style="mix-blend-mode: color;isolation: isolate"/>
  </g>
</svg>
