<svg xmlns="http://www.w3.org/2000/svg" width="147" height="144" viewBox="0 0 147 144">
    <g fill="none" fill-rule="evenodd">
        <g fill-rule="nonzero">
            <g>
                <g>
                    <g fill="#231F20" opacity=".21">
                        <path d="M44.383 0.002L144.907 38.278 100.671 81.941 0.148 43.663z" transform="translate(-198 -383) translate(20 184) translate(178.603 199) translate(.397 62)"/>
                    </g>
                    <path fill="#4A3796" d="M144.397 93L144.397 94.925 142.397 95zM6.397 99.822L.397 100 .397 98z" transform="translate(-198 -383) translate(20 184) translate(178.603 199)"/>
                    <path fill="#6858A3" d="M145.397 91.851L143.265 93.93 5.247 99 0.397 97.177 44.707 54z" transform="translate(-198 -383) translate(20 184) translate(178.603 199)"/>
                    <path fill="#4A3796" d="M145.397 94L100.397 138 100.397 135.963 143.231 94.079z" transform="translate(-198 -383) translate(20 184) translate(178.603 199)"/>
                    <path fill="#6858A3" d="M143.397 95L101.532 136 6.397 100.058z" transform="translate(-198 -383) translate(20 184) translate(178.603 199)"/>
                    <path fill="#4A3796" d="M101.397 136.003L101.397 138 0.397 100.178 5.261 100z" transform="translate(-198 -383) translate(20 184) translate(178.603 199)"/>
                    <path fill="#231F20" d="M101.078 138L101.036 137.983 0.397 99.528 0.45 99.393 101.043 137.831 145.294 94 145.397 94.102z" transform="translate(-198 -383) translate(20 184) translate(178.603 199)"/>
                    <path fill="#231F20" d="M101.055 136l-.043-.017L.397 97.707 44.74 54l.042.017 100.615 38.268L101.055 136zM.658 97.662l100.362 38.17 44.117-43.495L44.775 54.168.658 97.662zM100.325 136H101.325V138H100.325z" transform="translate(-198 -383) translate(20 184) translate(178.603 199)"/>
                    <path fill="#231F20" d="M144.325 93H145.325V95H144.325zM.325 98H1.325V100H.325z" transform="translate(-198 -383) translate(20 184) translate(178.603 199)"/>
                    <path fill="#554A89" d="M131.896 92c3.04 0 5.501 1.79 5.501 4.001 0 2.21-2.462 3.999-5.5 3.999-3.04 0-5.5-1.79-5.5-3.999.003-.56.16-1.11.452-1.588h.01c.844-1.425 2.783-2.413 5.037-2.413z" transform="translate(-198 -383) translate(20 184) translate(178.603 199)"/>
                    <path fill="#FFF" d="M126.402 94.006L126.393 94.006 126.393 93.994z" transform="translate(-198 -383) translate(20 184) translate(178.603 199)"/>
                    <path fill="#554A89" d="M126.397 93.828v.011l-32.666 32.383c-.343.219-.656.48-.931.778L17.397 98.163c.224-.382.362-.808.404-1.248l30.586-30.327c1.007-.274 1.915-.824 2.62-1.588l75.39 28.828zM98.898 125c3.037 0 5.5 1.791 5.5 4.001 0 2.21-2.463 3.999-5.5 3.999-3.036 0-5.5-1.79-5.5-3.999.014-.821.338-1.607.908-2.2l.102.038.813-.812c1.102-.688 2.378-1.045 3.677-1.026z" transform="translate(-198 -383) translate(20 184) translate(178.603 199)"/>
                    <path fill="#FFF" d="M94.397 126l-.888 1-.112-.047c.296-.365.632-.686 1-.953z" transform="translate(-198 -383) translate(20 184) translate(178.603 199)"/>
                    <path fill="#554A89" d="M52.397 62.999c-.012.79-.313 1.549-.846 2.133l-.722-.279-1.852 1.852c-.675.198-1.375.297-2.078.295-3.035 0-5.502-1.79-5.502-4.001 0-2.21 2.461-3.999 5.497-3.999 3.035 0 5.503 1.79 5.503 3.999z" transform="translate(-198 -383) translate(20 184) translate(178.603 199)"/>
                    <path fill="#9881EE" d="M51.555 64l.842.301c-.807.817-1.847 1.406-3 1.699l2.158-2z" transform="translate(-198 -383) translate(20 184) translate(178.603 199)"/>
                    <path fill="#554A89" d="M19.397 95.999c.001.097-.005.193-.017.289l-1.003 1.003.606.233c-.824 1.454-2.79 2.476-5.085 2.476-3.038 0-5.5-1.79-5.5-4.001 0-2.21 2.462-3.999 5.5-3.999 3.04 0 5.5 1.79 5.5 3.999z" transform="translate(-198 -383) translate(20 184) translate(178.603 199)"/>
                    <path fill="#554A89" d="M18.397 97.623l1-1.623c-.04.705-.176 1.388-.396 2l-.604-.377z" transform="translate(-198 -383) translate(20 184) translate(178.603 199)"/>
                    <path fill="#231F20" d="M12.855 81.235L55.534 81.433 55.534 81.433 12.855 81.235z" transform="translate(-198 -383) translate(20 184) translate(178.603 199) rotate(-45 34.194 81.334)"/>
                    <path fill="#231F20" d="M55.876 71.883L55.876 71.883 56.124 151.88 56.124 151.88z" transform="translate(-198 -383) translate(20 184) translate(178.603 199) rotate(-68.9 56 111.882)"/>
                    <path fill="#231F20" d="M87.685 109.236L133.249 109.447 133.249 109.447 87.685 109.236z" transform="translate(-198 -383) translate(20 184) translate(178.603 199) rotate(-45 110.467 109.342)"/>
                    <path fill="#231F20" d="M89.185 39.041L89.185 39.041 89.433 119.019 89.433 119.019z" transform="translate(-198 -383) translate(20 184) translate(178.603 199) rotate(-68.9 89.31 79.03)"/>
                    <path fill="#231F20" d="M98.898 133c-3.034 0-5.5-1.793-5.5-3.999.013-.824.34-1.613.913-2.21.27-.296.58-.555.92-.77 1.098-.684 2.372-1.038 3.667-1.02 3.033 0 5.5 1.795 5.5 4 0 2.206-2.467 3.999-5.5 3.999zm0-7.858c-1.267-.017-2.514.329-3.59.995-.328.213-.627.467-.888.757-.55.57-.864 1.325-.878 2.115 0 2.128 2.404 3.857 5.358 3.857 2.954 0 5.357-1.73 5.357-3.857 0-2.128-2.404-3.867-5.359-3.867zM131.9 100c-3.033 0-5.503-1.794-5.503-4 .003-.563.16-1.115.457-1.595v-.011c.878-1.454 2.856-2.394 5.04-2.394 3.034 0 5.503 1.796 5.503 4 0 2.206-2.463 4-5.498 4zm-4.916-5.536c-.286.46-.44.991-.442 1.533 0 2.127 2.405 3.857 5.36 3.857 2.954 0 5.36-1.73 5.36-3.857 0-2.127-2.406-3.859-5.36-3.859-2.137.004-4.062.915-4.918 2.326zM13.898 100c-3.034 0-5.5-1.795-5.5-4s2.474-4 5.5-4c3.027 0 5.5 1.795 5.5 4 0 .098-.005.196-.018.293-.042.437-.179.86-.4 1.239-.854 1.494-2.85 2.468-5.082 2.468zm0-7.858c-2.954 0-5.358 1.73-5.358 3.858s2.404 3.858 5.358 3.858c2.183 0 4.129-.945 4.949-2.394.212-.363.342-.767.38-1.184.016-.093.025-.186.027-.28 0-2.128-2.402-3.858-5.356-3.858zM46.896 67c-3.03 0-5.499-1.797-5.499-4.002S43.871 59 46.897 59c3.025 0 5.5 1.793 5.5 3.998-.01.793-.313 1.555-.848 2.143-.694.75-1.586 1.293-2.575 1.566-.674.196-1.374.295-2.078.293zm0-7.858c-2.953 0-5.356 1.728-5.356 3.856s2.403 3.858 5.356 3.858c.688.003 1.372-.093 2.03-.285.964-.265 1.834-.793 2.51-1.525.515-.56.806-1.289.819-2.048 0-2.122-2.405-3.856-5.359-3.856z" transform="translate(-198 -383) translate(20 184) translate(178.603 199)"/>
                    <path fill="#55DFFF" d="M93.903 19.936L96.397 18 87.397 27z" transform="translate(-198 -383) translate(20 184) translate(178.603 199)"/>
                    <path fill="#55DFFF" d="M92.881 16L94.397 21 89.397 16.828zM96.397 17L92.397 13.942 92.686 13z" transform="translate(-198 -383) translate(20 184) translate(178.603 199)"/>
                    <path fill="#52AAFF" d="M93.397 20L87.137 27 86.397 20.812zM96.397 18.898L93.812 21 92.397 16z" transform="translate(-198 -383) translate(20 184) translate(178.603 199)"/>
                    <path fill="#52AAFF" d="M93.397 20.121L86.397 21 89.067 16zM83.397 14L80.198 18 79.397 15.959z" transform="translate(-198 -383) translate(20 184) translate(178.603 199)"/>
                    <path fill="#55DFFF" d="M86.397 15.078L80.397 18 83.825 14zM82.943 13.842L78.397 16 83.397 13z" transform="translate(-198 -383) translate(20 184) translate(178.603 199)"/>
                    <path fill="#52AAFF" d="M85.407 16L86.397 22 80.397 19.656z" transform="translate(-198 -383) translate(20 184) translate(178.603 199)"/>
                    <path fill="#55DFFF" d="M89.397 16.356L86.456 22 85.397 16z" transform="translate(-198 -383) translate(20 184) translate(178.603 199)"/>
                    <path fill="#52AAFF" d="M92.397 13.294L92.129 14.179 89.112 15 85.481 14.683 83.397 13.483 83.745 12.632 86.922 12 90.048 12.315z" transform="translate(-198 -383) translate(20 184) translate(178.603 199)"/>
                    <path fill="#55DFFF" d="M86.608 20.893L87.397 27 80.397 19z" transform="translate(-198 -383) translate(20 184) translate(178.603 199)"/>
                    <path fill="#231F20" d="M87.153 26l-6.995-7.14-.76-1.877 4.108-2.47L86.872 14l3.32.256 2.507.797 3.698 3.073L87.153 26zm-6.866-7.196l6.874 7.01 9.044-7.683-3.574-2.96-2.46-.778-3.284-.251-3.328.502-3.975 2.39.703 1.77z" transform="translate(-198 -383) translate(20 184) translate(178.603 199)"/>
                    <path fill="#231F20" d="M89.11 15L89.1 14.998 85.506 14.738 83.397 13.742 83.767 13 83.888 13.055 83.574 13.684 85.552 14.616 89.1 14.87 92.022 14.219 92.274 13.538 92.397 13.583 92.121 14.328z" transform="translate(-198 -383) translate(20 184) translate(178.603 199)"/>
                    <path fill="#231F20" d="M86.29 20l-.029-.147-6.213-2.112 2.81-4.273-3.392 2.023-.069-.14L83.346 13l-2.925 4.436 4.934-3.137 1.003 5.274 2.774-4.953 4.457 4.05-1.378-4.941 4.186 3.072-2.58 2.137.055.199-.16-.146-7.354.87-.068.139zm2.873-5.128l-2.702 4.825 7.086-.855-4.384-3.97zm-8.816 2.799l5.88 2-.97-5.128-4.91 3.128zm12.117-3.562l1.3 4.66 2.375-1.96-3.675-2.7zM87.143 27L86.397 20.847 86.528 20.828 87.238 26.688 93.302 20 93.397 20.099z" transform="translate(-198 -383) translate(20 184) translate(178.603 199)"/>
                    <g>
                        <path fill="#90C7F4" d="M0.57 0.34L0.437 6.781 0.3 6.752 0.437 0.311z" transform="translate(-198 -383) translate(20 184) translate(178.603 199) translate(86.397 2)"/>
                        <path fill="#231F20" d="M0.557 6.878L0.173 6.795 0.313 0.215 0.697 0.296z" transform="translate(-198 -383) translate(20 184) translate(178.603 199) translate(86.397 2)"/>
                        <path fill="#90C7F4" d="M0.57 0.34L1.423 0.221 1.29 6.662 0.437 6.781z" transform="translate(-198 -383) translate(20 184) translate(178.603 199) translate(86.397 2)"/>
                        <path fill="#231F20" d="M.31 6.865L.447.29 1.553.135l-.14 6.578-1.103.152zM.697.39l-.134 6.3.604-.084.13-6.3-.6.084z" transform="translate(-198 -383) translate(20 184) translate(178.603 199) translate(86.397 2)"/>
                        <path fill="#90C7F4" d="M0.437 0.311L1.29 0.193 1.423 0.221 0.57 0.34z" transform="translate(-198 -383) translate(20 184) translate(178.603 199) translate(86.397 2)"/>
                        <path fill="#231F20" d="M0.563 0.408L0.037 0.299 1.297 0.124 1.823 0.233z" transform="translate(-198 -383) translate(20 184) translate(178.603 199) translate(86.397 2)"/>
                    </g>
                    <g>
                        <path fill="#90C7F4" d="M0.723 0.232L0.587 6.837 0.453 6.808 0.587 0.203z" transform="translate(-198 -383) translate(20 184) translate(178.603 199) translate(84.397 28)"/>
                        <path fill="#231F20" d="M0.71 6.935L0.327 6.853 0.463 0.102 0.85 0.185z" transform="translate(-198 -383) translate(20 184) translate(178.603 199) translate(84.397 28)"/>
                        <path fill="#90C7F4" d="M0.723 0.232L1.577 0.109 1.44 6.715 0.587 6.837z" transform="translate(-198 -383) translate(20 184) translate(178.603 199) translate(84.397 28)"/>
                        <path fill="#231F20" d="M.46 6.925L.6.179 1.703.022l-.14 6.745-1.103.158zM.847.284L.713 6.745l.604-.084L1.45.199.847.284z" transform="translate(-198 -383) translate(20 184) translate(178.603 199) translate(84.397 28)"/>
                        <path fill="#90C7F4" d="M0.587 0.203L1.44 0.081 1.577 0.109 0.723 0.232z" transform="translate(-198 -383) translate(20 184) translate(178.603 199) translate(84.397 28)"/>
                        <path fill="#231F20" d="M0.717 0.302L0.19 0.188 1.45 0.009 1.973 0.122z" transform="translate(-198 -383) translate(20 184) translate(178.603 199) translate(84.397 28)"/>
                    </g>
                    <g>
                        <path fill="#90C7F4" d="M5.129 1.766L5.129 1.857 0.279 0.325 0.281 0.232z" transform="translate(-198 -383) translate(20 184) translate(178.603 199) translate(93.397 21)"/>
                        <path fill="#231F20" d="M5.201 1.942L0.205 0.363 0.209 0.148 5.203 1.726z" transform="translate(-198 -383) translate(20 184) translate(178.603 199) translate(93.397 21)"/>
                        <path fill="#90C7F4" d="M5.129 1.766L5.626 1.662 5.625 1.752 5.129 1.857z" transform="translate(-198 -383) translate(20 184) translate(178.603 199) translate(93.397 21)"/>
                        <path fill="#231F20" d="M5.055 1.932L5.057 1.722 5.7 1.586 5.696 1.797z" transform="translate(-198 -383) translate(20 184) translate(178.603 199) translate(93.397 21)"/>
                        <path fill="#90C7F4" d="M0.281 0.232L0.774 0.129 5.626 1.662 5.129 1.766z" transform="translate(-198 -383) translate(20 184) translate(178.603 199) translate(93.397 21)"/>
                        <path fill="#231F20" d="M5.125 1.826L.048.222.78.068l.021.007 5.056 1.597-.732.154zM.511.245l4.624 1.46.26-.054L.774.189.51.245z" transform="translate(-198 -383) translate(20 184) translate(178.603 199) translate(93.397 21)"/>
                    </g>
                    <g>
                        <path fill="#90C7F4" d="M5.154 1.809L5.152 1.9 0.304 0.368 0.304 0.277z" transform="translate(-198 -383) translate(20 184) translate(178.603 199) translate(75.397 13)"/>
                        <path fill="#231F20" d="M5.224 1.985L0.23 0.408 0.232 0.192 5.226 1.771z" transform="translate(-198 -383) translate(20 184) translate(178.603 199) translate(75.397 13)"/>
                        <path fill="#90C7F4" d="M5.154 1.809L5.65 1.706 5.648 1.797 5.152 1.9z" transform="translate(-198 -383) translate(20 184) translate(178.603 199) translate(75.397 13)"/>
                        <path fill="#231F20" d="M5.079 1.975L5.081 1.765 5.723 1.631 5.719 1.842z" transform="translate(-198 -383) translate(20 184) translate(178.603 199) translate(75.397 13)"/>
                        <path fill="#90C7F4" d="M0.304 0.277L0.799 0.174 5.65 1.706 5.154 1.809z" transform="translate(-198 -383) translate(20 184) translate(178.603 199) translate(75.397 13)"/>
                        <path fill="#231F20" d="M5.148 1.87h-.02L.073.275.805.12h.021L5.88 1.717l-.732.154zM.536.29l4.622 1.46.261-.058L.797.232.537.29z" transform="translate(-198 -383) translate(20 184) translate(178.603 199) translate(75.397 13)"/>
                    </g>
                    <g>
                        <path fill="#90C7F4" d="M1.98 0.315L2.04 0.403 0.422 1.73 0.362 1.642z" transform="translate(-198 -383) translate(20 184) translate(178.603 199) translate(92.397 10)"/>
                        <path fill="#231F20" d="M0.403 1.837L0.264 1.63 1.997 0.208 2.136 0.413z" transform="translate(-198 -383) translate(20 184) translate(178.603 199) translate(92.397 10)"/>
                        <path fill="#90C7F4" d="M1.98 0.315L2.526 0.202 2.589 0.29 2.04 0.403z" transform="translate(-198 -383) translate(20 184) translate(178.603 199) translate(92.397 10)"/>
                        <path fill="#231F20" d="M1.997 0.477L1.86 0.273 2.569 0.128 2.706 0.33z" transform="translate(-198 -383) translate(20 184) translate(178.603 199) translate(92.397 10)"/>
                        <path fill="#90C7F4" d="M2.04 0.403L2.589 0.29 0.971 1.617 0.422 1.73z" transform="translate(-198 -383) translate(20 184) translate(178.603 199) translate(92.397 10)"/>
                        <path fill="#231F20" d="M.17 1.847l1.827-1.5.844-.167-1.827 1.5-.845.167zM2.08.46L.676 1.613l.253-.051L2.336.407 2.08.46z" transform="translate(-198 -383) translate(20 184) translate(178.603 199) translate(92.397 10)"/>
                    </g>
                    <g>
                        <path fill="#90C7F4" d="M1.95 0.273L2.01 0.369 0.392 1.815 0.332 1.718z" transform="translate(-198 -383) translate(20 184) translate(178.603 199) translate(78.397 24)"/>
                        <path fill="#231F20" d="M0.373 1.931L0.234 1.707 1.967 0.156 2.109 0.38z" transform="translate(-198 -383) translate(20 184) translate(178.603 199) translate(78.397 24)"/>
                        <path fill="#90C7F4" d="M1.95 0.273L2.499 0.149 2.559 0.245 2.01 0.369z" transform="translate(-198 -383) translate(20 184) translate(178.603 199) translate(78.397 24)"/>
                        <path fill="#231F20" d="M1.969 0.447L1.83 0.229 2.539 0.069 2.676 0.289z" transform="translate(-198 -383) translate(20 184) translate(178.603 199) translate(78.397 24)"/>
                        <path fill="#90C7F4" d="M2.01 0.369L2.559 0.245 0.941 1.693 0.392 1.815z" transform="translate(-198 -383) translate(20 184) translate(178.603 199) translate(78.397 24)"/>
                        <path fill="#231F20" d="M.14 1.942L1.966.305l.844-.181L.984 1.76l-.845.182zM2.052.429L.643 1.687l.253-.056L2.304.373l-.251.056z" transform="translate(-198 -383) translate(20 184) translate(178.603 199) translate(78.397 24)"/>
                    </g>
                    <g>
                        <path fill="#90C7F4" d="M0.165 0.309L1.288 2.753 1.243 2.808 0.12 0.362z" transform="translate(-198 -383) translate(20 184) translate(178.603 199) translate(92.397 28)"/>
                        <path fill="#231F20" d="M1.229 2.921L0.049 0.349 0.178 0.198 1.358 2.765z" transform="translate(-198 -383) translate(20 184) translate(178.603 199) translate(92.397 28)"/>
                        <path fill="#90C7F4" d="M0.165 0.309L0.558 0.189 1.682 2.635 1.288 2.753z" transform="translate(-198 -383) translate(20 184) translate(178.603 199) translate(92.397 28)"/>
                        <path fill="#231F20" d="M1.258 2.824L.08.259.588.104 1.766 2.67l-.508.154zM.25.353l1.068 2.324.28-.085L.529.268.25.353z" transform="translate(-198 -383) translate(20 184) translate(178.603 199) translate(92.397 28)"/>
                        <path fill="#90C7F4" d="M1.288 2.753L1.682 2.635 1.637 2.688 1.243 2.808z" transform="translate(-198 -383) translate(20 184) translate(178.603 199) translate(92.397 28)"/>
                        <path fill="#231F20" d="M1.062 2.931L1.257 2.695 1.863 2.511 1.668 2.748z" transform="translate(-198 -383) translate(20 184) translate(178.603 199) translate(92.397 28)"/>
                    </g>
                    <g>
                        <path fill="#90C7F4" d="M0.151 0.346L1.275 2.794 1.231 2.846 0.106 0.401z" transform="translate(-198 -383) translate(20 184) translate(178.603 199) translate(79.397 6)"/>
                        <path fill="#231F20" d="M1.217 2.959L0.035 0.388 0.165 0.233 1.346 2.804z" transform="translate(-198 -383) translate(20 184) translate(178.603 199) translate(79.397 6)"/>
                        <path fill="#90C7F4" d="M0.151 0.346L0.545 0.226 1.669 2.674 1.275 2.794z" transform="translate(-198 -383) translate(20 184) translate(178.603 199) translate(79.397 6)"/>
                        <path fill="#231F20" d="M1.246 2.87L.066.303.574.148l1.18 2.568-.508.153zM.236.387l1.076 2.328.28-.085L.523.304.235.388z" transform="translate(-198 -383) translate(20 184) translate(178.603 199) translate(79.397 6)"/>
                        <path fill="#90C7F4" d="M1.275 2.794L1.669 2.674 1.625 2.726 1.231 2.846z" transform="translate(-198 -383) translate(20 184) translate(178.603 199) translate(79.397 6)"/>
                        <path fill="#231F20" d="M1.049 2.97L1.245 2.734 1.851 2.55 1.655 2.786z" transform="translate(-198 -383) translate(20 184) translate(178.603 199) translate(79.397 6)"/>
                    </g>
                    <g fill="#231F20" opacity=".36">
                        <path d="M69.694 13.802L34.994 48.817 0.215 35.074 34.738 0.165z" transform="translate(-198 -383) translate(20 184) translate(178.603 199) translate(37.397 63)"/>
                        <path d="M35.012 48.903L.087 35.097 34.72.077l.044.016 35.06 13.678-.079.08-34.734 35.052zM.344 35.047l34.633 13.687L69.565 13.83 34.758.25.344 35.047z" transform="translate(-198 -383) translate(20 184) translate(178.603 199) translate(37.397 63)"/>
                    </g>
                    <path fill="#A59CC6" d="M52.397 15v64.215c0 .434-.672.785-1.503.785-.832 0-1.497-.342-1.497-.785V15c0 .434.673.783 1.504.783.832 0 1.496-.35 1.496-.783zM50.897 13c.83 0 1.5.448 1.5 1.001 0 .553-.67.999-1.5.999-.829 0-1.5-.446-1.5-.999 0-.553.671-1.001 1.5-1.001z" transform="translate(-198 -383) translate(20 184) translate(178.603 199)"/>
                    <path fill="#231F20" d="M52.325 15H53.325V80H52.325zM50.325 15H51.325V80H50.325z" transform="translate(-198 -383) translate(20 184) translate(178.603 199)"/>
                    <path fill="#231F20" d="M50.901 80c-.842 0-1.504-.445-1.504-1h.137c0 .445.627.833 1.367.833s1.367-.38 1.367-.833h.13c0 .561-.655 1-1.497 1zM50.897 15c-.84 0-1.5-.446-1.5-1s.66-1 1.5-1 1.5.446 1.5 1-.66 1-1.5 1zm0-1.833c-.738 0-1.363.382-1.363.833 0 .45.625.833 1.363.833.739 0 1.364-.382 1.364-.833 0-.45-.625-.833-1.364-.833z" transform="translate(-198 -383) translate(20 184) translate(178.603 199)"/>
                    <path fill="#A59CC6" d="M35.397 70v26.211c0 .435-.67.789-1.5.789-.829 0-1.5-.354-1.5-.789V70c0 .435.671.79 1.5.79.83 0 1.5-.355 1.5-.79z" transform="translate(-198 -383) translate(20 184) translate(178.603 199)"/>
                    <path fill="#A59CC6" d="M33.897 69c.83 0 1.5.446 1.5.999 0 .553-.67 1.001-1.5 1.001-.829 0-1.5-.45-1.5-1.001 0-.55.671-.999 1.5-.999z" transform="translate(-198 -383) translate(20 184) translate(178.603 199)"/>
                    <path fill="#231F20" d="M35.325 69H36.325V96H35.325zM32.325 69H33.325V96H32.325zM33.894 97c-.838 0-1.497-.446-1.497-1h.137c0 .446.623.833 1.36.833.736 0 1.36-.382 1.36-.833h.143c0 .57-.665 1-1.503 1z" transform="translate(-198 -383) translate(20 184) translate(178.603 199)"/>
                    <path fill="#231F20" d="M33.897 71c-.84 0-1.5-.446-1.5-1s.66-1 1.5-1 1.5.446 1.5 1-.66 1-1.5 1zm0-1.833c-.738 0-1.363.382-1.363.833 0 .45.625.833 1.363.833.739 0 1.364-.382 1.364-.833 0-.45-.625-.833-1.364-.833zM35.437 79l-.04-.141c3.758-1.032 6.984-4.867 9.586-11.398 2.088-5.238 3.782-12.206 5.032-20.712C52.145 32.26 52.25 18.141 52.25 18h.146c0 .141-.105 14.268-2.238 28.769-1.252 8.517-2.948 15.5-5.039 20.748C42.5 74.083 39.242 77.955 35.437 79z" transform="translate(-198 -383) translate(20 184) translate(178.603 199)"/>
                    <path fill="#3DEA8F" d="M81.499 84L49.397 71.157 58.304 62l32.093 12.837L81.5 84zm-15.46-7.314l14.87 5.953 7.31-7.528-16.889-6.757-12.81-5.122-7.296 7.529 14.815 5.925z" transform="translate(-198 -383) translate(20 184) translate(178.603 199)"/>
                    <path fill="#3DEA8F" d="M81.4 75c1.103 0 1.997.673 1.997 1.502 0 .83-.894 1.498-1.997 1.498-1.102 0-2.003-.666-2.003-1.498 0-.831.905-1.502 2.003-1.502z" transform="translate(-198 -383) translate(20 184) translate(178.603 199)"/>
                    <path fill="#12CA70" d="M84.923 74.343c0-.73-.845-1.311-1.888-1.311s-1.894.587-1.894 1.31c0 .725.85 1.308 1.894 1.308 1.043 0 1.888-.582 1.888-1.307zM70.03 73.032c2.599 0 4.71-1.46 4.71-3.26 0-1.245-1-2.322-2.468-2.871l.37-.901 16.755 6.149L82.145 79l-14.748-5.41.384-.938c.717.262 1.48.39 2.249.38z" transform="translate(-198 -383) translate(20 184) translate(178.603 199)"/>
                    <path fill="#3DEA8F" d="M62.231 41.752l14.826 5.925 14.878 5.954 7.304-7.529-16.913-6.757-12.807-5.123-7.288 7.53zM69.322 33l32.075 12.838L92.51 55 60.397 42.156 69.322 33zM71.04 68.423c1.403.586 2.357 1.745 2.357 3.08 0 1.934-2.014 3.497-4.5 3.497-.733.006-1.461-.137-2.144-.423-1.409-.587-2.356-1.745-2.356-3.073 0-1.94 2.015-3.504 4.5-3.504.733-.002 1.46.14 2.143.423zM93.397 55.634V73l-36-13.64V42l36 13.634zM58.7 58.433l33.47 12.677V56.877L58.7 44.2v14.233z" transform="translate(-198 -383) translate(20 184) translate(178.603 199)"/>
                    <path fill="#3DEA8F" d="M77.75 45.581c-1.404-.586-2.353-1.75-2.353-3.08 0-1.932 2.015-3.5 4.5-3.5.733-.006 1.46.135 2.145.416 1.409.596 2.355 1.76 2.355 3.08 0 1.932-2.014 3.503-4.5 3.503-.734.004-1.462-.138-2.148-.419z" transform="translate(-198 -383) translate(20 184) translate(178.603 199)"/>
                    <path fill="#3DEA8F" d="M101.778 45.74L69.106 33.646l-9.083 8.626L92.718 54.37l9.06-8.631zM68.604 32l35.793 13.24L93.18 56 57.397 42.76 68.604 32zM56.397 67.504c0-.835.896-1.504 2.001-1.504 1.106 0 2 .673 2 1.504 0 .832-.896 1.496-2 1.496-1.103 0-2-.67-2-1.496z" transform="translate(-198 -383) translate(20 184) translate(178.603 199)"/>
                    <path fill="#3DEA8F" d="M68.4 40c-1.108 0-2.003-.675-2.003-1.507 0-.833.9-1.493 2.003-1.493 1.103 0 1.997.675 1.997 1.503 0 .828-.888 1.497-1.997 1.497zM84.607 62.99c-.537.092-1.07-.501-1.187-1.328-.116-.827.222-1.559.759-1.652.537-.094 1.072.502 1.194 1.329.122.827-.227 1.558-.766 1.652z" transform="translate(-198 -383) translate(20 184) translate(178.603 199)"/>
                    <path fill="#FFF" d="M93.397 72.949L93.338 73 57.397 61.073 57.397 61z" transform="translate(-198 -383) translate(20 184) translate(178.603 199)"/>
                    <path fill="#12CA70" d="M73.854 62.122L73.51 63l-12.113-4.62V47l14 5.338-.399 1.016c-.406-.157-.846-.207-1.277-.144-1.79.276-2.918 2.524-2.528 5.02.296 1.902 1.385 3.396 2.674 3.887l-.013.005zm-8.999-8.23c-.114-.741-.64-1.28-1.172-1.196-.533.085-.87.747-.755 1.495.115.748.64 1.278 1.172 1.195.533-.083.87-.748.755-1.495z" transform="translate(-198 -383) translate(20 184) translate(178.603 199)"/>
                    <path fill="#3DEA8F" d="M82.02 83.366l8.883-8.63-32.036-12.092-8.89 8.625L82.02 83.366zM58.393 61.094l35.004 13.212L82.462 85 47.397 71.758 58.393 61v.094z" transform="translate(-198 -383) translate(20 184) translate(178.603 199)"/>
                    <path fill="#12CA70" d="M85.719 64.089c.569-.087.931-.766.808-1.519-.122-.752-.691-1.3-1.26-1.221-.57.079-.93.765-.801 1.518.128.753.686 1.306 1.253 1.222zm-7.877-6.11c-.315-1.924-1.479-3.443-2.854-3.946L75.414 53l14.983 5.439V70l-17-6.164.369-.892c.432.164.903.216 1.364.15 1.92-.287 3.133-2.576 2.712-5.115z" transform="translate(-198 -383) translate(20 184) translate(178.603 199)"/>
                    <path fill="#3DEA8F" d="M63.186 53.01c.54-.094 1.072.503 1.188 1.325.117.821-.22 1.57-.765 1.657-.545.086-1.072-.504-1.189-1.325-.116-.822.226-1.565.766-1.657z" transform="translate(-198 -383) translate(20 184) translate(178.603 199)"/>
                    <path fill="#12CA70" d="M94.927 47.35c0-.73-.846-1.311-1.888-1.311-1.043 0-1.886.585-1.886 1.311s.845 1.307 1.886 1.307c1.04 0 1.888-.587 1.888-1.307zM82.278 39.9l.368-.9 16.751 6.149L92.154 52l-14.757-5.418.384-.937c.717.263 1.48.396 2.248.394 2.606 0 4.708-1.459 4.708-3.266.014-1.235-.981-2.316-2.455-2.876l-.004.004z" transform="translate(-198 -383) translate(20 184) translate(178.603 199)"/>
                    <path fill="#3DEA8F" d="M77.315 58.007c.415 2.469-.782 4.695-2.67 4.966-.455.064-.92.014-1.346-.146-1.36-.485-2.5-1.96-2.819-3.84-.415-2.47.77-4.689 2.665-4.961.454-.062.918-.013 1.346.142 1.365.49 2.513 1.97 2.824 3.839z" transform="translate(-198 -383) translate(20 184) translate(178.603 199)"/>
                    <path fill="#12CA70" d="M83.018 40.45c-.754-.258-1.556-.388-2.365-.385-2.738 0-4.96 1.43-4.96 3.2 0 1.216 1.045 2.27 2.592 2.816L77.88 47l-15.484-5.283L70.03 35l13.367 4.57-.38.88zm-13.351-2.146c-1.105 0-1.995.576-1.995 1.282 0 .706.89 1.285 1.995 1.285 1.104 0 1.989-.575 1.989-1.285s-.885-1.282-1.99-1.282zM57.663 67.296c-1.098 0-1.988.576-1.988 1.288 0 .711.89 1.28 1.988 1.28 1.098 0 1.986-.574 1.986-1.28 0-.707-.89-1.288-1.986-1.288zm-7.266 3.423L58.018 64l13.38 4.571-.39.884c-.753-.258-1.554-.389-2.361-.387-2.745 0-4.96 1.431-4.96 3.203 0 1.215 1.044 2.271 2.596 2.81L65.88 76l-15.483-5.281z" transform="translate(-198 -383) translate(20 184) translate(178.603 199)"/>
                    <path fill="#3DEA8F" d="M93.396 49c-1.103 0-1.999-.673-1.999-1.498s.896-1.502 2-1.502c1.103 0 2 .67 2 1.502s-.895 1.498-2 1.498z" transform="translate(-198 -383) translate(20 184) translate(178.603 199)"/>
                    <path fill="#FFF" d="M93.427 72.959L93.427 73.041 93.368 73.016z" transform="translate(-198 -383) translate(20 184) translate(178.603 199)"/>
                    <path fill="#3DEA8F" d="M60.893 45.624v12.319l12.968 5.001 17.035 6.569V57.198l-15.014-5.796-14.989-5.778zM59.397 44l33 12.72V71l-33-12.72V44z" transform="translate(-198 -383) translate(20 184) translate(178.603 199)"/>
                    <path fill="#FFF" d="M81.427 101.959L81.427 102.041 81.368 102.016zM82.397 101.949L82.338 102 46.397 90.08 46.397 90z" transform="translate(-198 -383) translate(20 184) translate(178.603 199)"/>
                    <path fill="#3DEA8F" d="M75.375 90.334c.116.828-.227 1.572-.767 1.658-.54.086-1.071-.504-1.188-1.326-.116-.822.22-1.572.76-1.658.539-.086 1.077.494 1.195 1.326z" transform="translate(-198 -383) translate(20 184) translate(178.603 199)"/>
                    <path fill="#12CA70" d="M58.03 103.041c2.599 0 4.71-1.46 4.71-3.266 0-1.24-1-2.317-2.468-2.874l.369-.901 16.756 6.152L70.143 109l-14.746-5.413.384-.938c.717.264 1.48.397 2.249.392zm13.005 2.62c1.04 0 1.886-.586 1.886-1.312 0-.726-.845-1.308-1.886-1.308s-1.894.587-1.894 1.308c0 .72.845 1.312 1.894 1.312z" transform="translate(-198 -383) translate(20 184) translate(178.603 199)"/>
                    <path fill="#3DEA8F" d="M72.397 105.498c0 .836-.894 1.502-1.996 1.502-1.1 0-2.004-.67-2.004-1.502S69.292 104 70.401 104c1.11 0 1.996.673 1.996 1.498zM66.315 85.012c.416 2.469-.785 4.69-2.673 4.963-.455.06-.92.011-1.348-.143-1.358-.49-2.502-1.96-2.814-3.838-.415-2.477.77-4.696 2.668-4.969.455-.06.92-.011 1.347.143 1.36.49 2.5 1.966 2.82 3.844z" transform="translate(-198 -383) translate(20 184) translate(178.603 199)"/>
                    <path fill="#12CA70" d="M62.772 89.946c.433.158.903.209 1.364.146 1.911-.28 3.127-2.565 2.706-5.105-.323-1.93-1.479-3.45-2.854-3.954L64.414 80l14.983 5.438V97l-17-6.167.375-.887zm11.953 1.149c.569-.08.931-.76.808-1.52-.122-.758-.692-1.3-1.26-1.214-.57.086-.93.758-.801 1.519.128.76.691 1.293 1.253 1.209v.006z" transform="translate(-198 -383) translate(20 184) translate(178.603 199)"/>
                    <path fill="#3DEA8F" d="M61.042 96.422c1.402.597 2.355 1.76 2.355 3.079 0 1.931-2.013 3.499-4.496 3.499-.734.005-1.463-.137-2.148-.42-1.402-.587-2.356-1.75-2.356-3.079 0-1.931 2.013-3.5 4.504-3.5.732-.006 1.459.137 2.141.421zM52.374 81.337c.117.822-.22 1.562-.764 1.654-.545.091-1.074-.503-1.19-1.328-.116-.826.227-1.562.767-1.654.54-.091 1.071.503 1.187 1.328z" transform="translate(-198 -383) translate(20 184) translate(178.603 199)"/>
                    <path fill="#12CA70" d="M49.397 86.38V75l14 5.338-.399 1.016c-.406-.156-.846-.206-1.276-.144-1.791.276-2.918 2.524-2.528 5.027.295 1.895 1.379 3.39 2.666 3.885l-.345.878-12.118-4.62zm2.287-5.684c-.532.083-.871.754-.757 1.495.115.74.642 1.28 1.175 1.2.532-.08.87-.752.755-1.494-.115-.743-.64-1.278-1.173-1.2z" transform="translate(-198 -383) translate(20 184) translate(178.603 199)"/>
                    <path fill="#3DEA8F" d="M48.397 73l33 12.72V100l-33-12.72V73zm1.494 13.942l12.97 5.001 17.035 6.568V86.193L64.882 80.4l-14.99-5.778v12.319zM46.396 94c1.106 0 2.001.664 2.001 1.496 0 .831-.895 1.504-2 1.504-1.106 0-2-.673-2-1.504 0-.832.896-1.496 2-1.496z" transform="translate(-198 -383) translate(20 184) translate(178.603 199)"/>
                    <path fill="#3DEA8F" d="M47.7 73.2v14.233l33.47 12.678V85.888L47.7 73.2zM82.398 102l-36-13.64V71l35.998 13.64.002 17.36zM47.511 90.228l-7.305 7.526 14.828 5.926 14.865 5.944 7.313-7.519L60.32 95.35 47.51 90.228zm31.886 11.605L70.507 111l-32.11-12.841L47.31 89l32.087 12.833z" transform="translate(-198 -383) translate(20 184) translate(178.603 199)"/>
                    <path fill="#3DEA8F" d="M82.397 101.299L71.461 112 36.397 98.758 47.392 88v.089l35.005 13.21zm-11.38 9.074l8.873-8.637-32.023-12.09-8.896 8.629 32.046 12.098z" transform="translate(-198 -383) translate(20 184) translate(178.603 199)"/>
                    <path fill="#12CA70" d="M46.67 94.299c-1.096 0-1.986.569-1.986 1.28 0 .713.89 1.289 1.985 1.289 1.096 0 1.988-.576 1.988-1.288 0-.712-.89-1.281-1.988-1.281zM47.023 91l13.373 4.574-.377.871c-.752-.26-1.553-.39-2.36-.386-2.745 0-4.966 1.431-4.966 3.204 0 1.216 1.051 2.272 2.597 2.818l-.404.919-15.49-5.284L47.024 91z" transform="translate(-198 -383) translate(20 184) translate(178.603 199)"/>
                    <path fill="#231F20" d="M71.234 112L71.189 111.982 35.397 98.232 46.686 87 46.718 87 46.721 87.076 46.769 87.125 35.66 98.175 71.197 111.828 82.293 100.782 82.397 100.885z" transform="translate(-198 -383) translate(20 184) translate(178.603 199)"/>
                    <path fill="#231F20" d="M70.443 111L38.397 98.199 47.363 89l32.034 12.795L70.443 111zm-31.79-12.855l31.75 12.684 8.731-8.982L47.4 89.167l-8.747 8.978z" transform="translate(-198 -383) translate(20 184) translate(178.603 199)"/>
                    <path fill="#231F20" d="M70.02 110L40.397 97.808 47.76 90l29.637 12.198L70.02 110zM40.656 97.76l14.614 6.012 14.713 6.058 7.146-7.575-29.335-12.07-7.138 7.574z" transform="translate(-198 -383) translate(20 184) translate(178.603 199)"/>
                    <path fill="#231F20" d="M58.9 103c-.733.005-1.46-.136-2.142-.418-1.456-.616-2.36-1.797-2.36-3.082 0-1.93 2.018-3.5 4.505-3.5.73-.007 1.454.135 2.134.418 1.456.616 2.36 1.797 2.36 3.082-.003 1.93-2.02 3.5-4.498 3.5zm0-6.856c-2.408 0-4.367 1.505-4.367 3.356 0 1.225.872 2.355 2.276 2.948.666.276 1.375.414 2.09.408 2.404 0 4.36-1.506 4.36-3.356 0-1.225-.873-2.355-2.276-2.948-.664-.277-1.371-.415-2.084-.408zM70.401 107c-1.105 0-2.004-.675-2.004-1.503 0-.828.899-1.497 2.004-1.497 1.106 0 1.996.671 1.996 1.497 0 .826-.896 1.503-1.996 1.503zm0-2.851c-1.023 0-1.857.596-1.857 1.348 0 .753.834 1.354 1.857 1.354 1.024 0 1.85-.607 1.85-1.354 0-.747-.83-1.348-1.85-1.348zM46.396 97c-1.1 0-1.999-.673-1.999-1.503 0-.83.898-1.497 2-1.497 1.1 0 2 .673 2 1.497 0 .824-.897 1.503-2 1.503zm0-2.851c-1.02 0-1.852.596-1.852 1.348 0 .753.831 1.354 1.852 1.354 1.021 0 1.855-.607 1.855-1.354 0-.747-.832-1.348-1.855-1.348zM82.397 102l-.163-.071-35.837-13.492V71l.101.039 35.897 13.524.002 17.437zM46.545 88.338l35.7 13.442V84.663l-35.7-13.451v17.126z" transform="translate(-198 -383) translate(20 184) translate(178.603 199)"/>
                    <path fill="#231F20" d="M81.397 100l-.099-.037-32.9-12.638V73l.099.039 32.9 12.636V100zm-32.86-12.776l32.709 12.563V85.778L48.553 73.215l-.016 14.009z" transform="translate(-198 -383) translate(20 184) translate(178.603 199)"/>
                    <path fill="#231F20" d="M79.397 98l-.099-.037-29.9-11.057V75l.099.037 14.914 5.514 14.986 5.543V98zM62.4 91.565l16.852 6.24V86.188l-14.893-5.515-14.816-5.477v11.621l12.859 4.754-.002-.007z" transform="translate(-198 -383) translate(20 184) translate(178.603 199)"/>
                    <path fill="#231F20" d="M63.247 90c-.332-.003-.662-.062-.971-.175-1.399-.507-2.497-2.012-2.798-3.833-.41-2.464.785-4.693 2.668-4.965.459-.064.928-.014 1.36.144 1.394.507 2.496 2.012 2.803 3.836.21 1.117.046 2.266-.47 3.294-.504.941-1.287 1.534-2.204 1.667-.128.02-.258.03-.388.032zm-.71-8.864c-.126 0-.251.009-.376.026-1.804.262-2.948 2.422-2.55 4.816.295 1.775 1.358 3.238 2.71 3.73.409.148.852.195 1.286.136.872-.126 1.617-.693 2.1-1.596.503-1 .664-2.121.462-3.21-.3-1.778-1.365-3.244-2.715-3.734-.291-.108-.602-.165-.917-.168zM74.489 92c-.18-.004-.354-.07-.496-.19-.635-.607-.781-1.629-.346-2.42.124-.202.317-.339.534-.38.534-.094 1.07.5 1.19 1.32.074.447-.012.907-.24 1.285-.122.201-.314.338-.53.38-.037.005-.075.006-.112.004zm-.192-2.852c-.031 0-.063.004-.093.01-.183.033-.345.148-.448.317-.398.727-.265 1.663.315 2.222.143.13.33.187.513.156.183-.03.346-.146.447-.317.208-.348.285-.77.216-1.179-.102-.697-.516-1.212-.95-1.212v.003zM51.5 82.998c-.504 0-.974-.57-1.08-1.33-.115-.82.23-1.563.77-1.658.54-.095 1.073.507 1.186 1.33.112.824-.222 1.563-.771 1.656-.035.005-.07.005-.106.002zm-.201-2.851c-.03-.002-.06-.002-.09 0-.467.081-.764.76-.662 1.494.102.734.57 1.285 1.037 1.207.467-.078.766-.751.662-1.494-.095-.696-.51-1.217-.947-1.217v.01zM82.233 85L82.188 84.982 46.397 71.236 57.682 60 57.713 60 57.717 60.078 57.764 60.125 46.662 71.18 82.196 84.83 93.293 73.787 93.397 73.891z" transform="translate(-198 -383) translate(20 184) translate(178.603 199)"/>
                    <path fill="#231F20" d="M49.401 70.072L49.394 69.928 49.401 69.928zM81.442 84l-.044-.018-32-12.783L58.357 62l.045.018 31.994 12.777L81.442 84zM49.66 71.143l31.751 12.684 8.731-8.976-31.747-12.676-8.735 8.968z" transform="translate(-198 -383) translate(20 184) translate(178.603 199)"/>
                    <path fill="#231F20" d="M81.21 83L52.422 70.848l.022-.064v-.012l-.047-.051 7.1-7.721 28.9 12.189L81.21 83zM52.58 70.754l14.252 6.014 14.35 6.054 6.972-7.57-28.614-12.07-6.96 7.572z" transform="translate(-198 -383) translate(20 184) translate(178.603 199)"/>
                    <path fill="#231F20" d="M68.9 75c-.731.007-1.457-.135-2.138-.418-1.459-.608-2.365-1.786-2.365-3.078 0-1.932 2.02-3.504 4.503-3.504.73-.001 1.452.14 2.133.418 1.458.61 2.364 1.792 2.364 3.086C73.401 73.432 71.382 75 68.9 75zm0-6.856c-2.407 0-4.367 1.506-4.367 3.36 0 1.23.873 2.36 2.28 2.944.664.277 1.373.415 2.087.408 2.408 0 4.366-1.505 4.366-3.352 0-1.233-.874-2.365-2.278-2.952-.666-.272-1.374-.41-2.088-.408zM81.401 78c-1.105 0-2.004-.671-2.004-1.497 0-.826.899-1.503 2.004-1.503 1.106 0 1.996.675 1.996 1.503 0 .828-.89 1.497-1.996 1.497zm0-2.851c-1.023 0-1.857.607-1.857 1.354 0 .747.834 1.348 1.857 1.348 1.024 0 1.85-.596 1.85-1.348 0-.753-.826-1.354-1.85-1.354zM58.398 69c-1.103 0-2-.671-2-1.497 0-.826.897-1.503 2-1.503 1.104 0 2 .675 2 1.503 0 .828-.898 1.497-2 1.497zm0-2.851c-1.023 0-1.854.607-1.854 1.354 0 .747.831 1.348 1.854 1.348 1.023 0 1.853-.596 1.853-1.348 0-.753-.83-1.354-1.853-1.354zM93.397 73l-.163-.071-35.837-13.5V42l.101.039 35.897 13.518L93.397 73zM57.545 59.326l35.7 13.449V55.657l-35.7-13.443v17.112z" transform="translate(-198 -383) translate(20 184) translate(178.603 199)"/>
                    <path fill="#231F20" d="M92.397 71l-.099-.039-32.9-12.636V44l.099.039 32.9 12.64V71zm-32.86-12.776l32.709 12.563V56.778L59.537 44.215v14.009z" transform="translate(-198 -383) translate(20 184) translate(178.603 199)"/>
                    <path fill="#231F20" d="M90.397 69l-.099-.035-29.9-11.058V46l.099.037 14.913 5.524 14.987 5.543V69zm-16.996-6.434l16.85 6.231V57.19l-14.893-5.508-14.815-5.477V57.81l12.858 4.756z" transform="translate(-198 -383) translate(20 184) translate(178.603 199)"/>
                    <path fill="#231F20" d="M74.254 63c-.332 0-.662-.06-.971-.176-1.398-.501-2.497-2.005-2.798-3.832-.208-1.118-.043-2.27.473-3.297.502-.943 1.282-1.534 2.197-1.667.458-.065.926-.016 1.357.144 1.398.509 2.495 2.012 2.798 3.832.208 1.118.044 2.269-.47 3.297-.504.946-1.285 1.54-2.2 1.67-.128.02-.257.03-.386.029zm-.716-8.869c-.125 0-.251.009-.375.027-.87.126-1.613.693-2.094 1.596-.5 1.004-.658 2.127-.453 3.217.294 1.78 1.357 3.243 2.71 3.729.405.153.846.202 1.278.142.87-.126 1.614-.693 2.097-1.599.501-1.003.661-2.127.458-3.218-.293-1.774-1.356-3.24-2.71-3.73-.29-.107-.599-.162-.91-.164zM84.49 62.998c-.18-.003-.354-.07-.497-.19-.635-.607-.781-1.628-.346-2.419.124-.201.317-.338.535-.38.548-.088 1.073.494 1.194 1.33.114.82-.232 1.564-.772 1.659-.038.003-.076.003-.114 0zm-.2-2.852c-.029-.002-.058-.002-.088 0-.184.037-.347.155-.451.327-.393.728-.26 1.66.318 2.22.147.127.334.184.52.157.47-.084.768-.761.664-1.497-.108-.688-.525-1.217-.962-1.217v.01zM63.487 56c-.179-.004-.352-.07-.495-.19-.318-.285-.523-.695-.573-1.143-.114-.82.231-1.565.768-1.659.217-.033.438.033.61.181.319.285.524.694.574 1.143.075.447-.01.909-.237 1.289-.125.198-.317.332-.533.371-.037.006-.076.009-.114.008zm-.186-2.856c-.031-.003-.062-.003-.093 0-.468.081-.765.761-.661 1.496.043.41.229.785.518 1.047.146.127.333.184.517.157.182-.035.344-.15.449-.317.206-.348.282-.771.212-1.18-.043-.41-.229-.785-.518-1.047-.122-.102-.27-.158-.424-.158v.002zM93.134 56l-.045-.018-35.692-13.736L68.661 31l.045.018 35.691 13.736L93.134 56zM57.66 42.19l35.43 13.64 11.045-11.014-35.43-13.64L57.66 42.189z" transform="translate(-198 -383) translate(20 184) translate(178.603 199)"/>
                    <path fill="#231F20" d="M101.4 45.072L101.395 45.072 101.395 44.928zM92.448 55l-32.05-12.804L69.371 33l.044.018 31.981 12.78L92.447 55zm-31.79-12.853l31.755 12.686 8.723-8.984-31.728-12.68-8.75 8.978z" transform="translate(-198 -383) translate(20 184) translate(178.603 199)"/>
                    <path fill="#231F20" d="M93.041 54l-.044-.018-14.774-6.08-14.826-6.095L70.763 34l29.634 12.193L93.041 54zM63.664 41.748l14.619 6.01 14.722 6.062 7.141-7.572-29.34-12.06-7.142 7.56z" transform="translate(-198 -383) translate(20 184) translate(178.603 199)"/>
                    <path fill="#231F20" d="M79.897 47c-.732.002-1.458-.14-2.142-.417-1.454-.615-2.358-1.796-2.358-3.083 0-1.93 2.02-3.5 4.5-3.5.73-.002 1.455.14 2.137.417 1.458.615 2.363 1.796 2.363 3.083 0 1.93-2.018 3.5-4.5 3.5zm0-6.856c-2.407 0-4.364 1.506-4.364 3.356 0 1.227.87 2.357 2.27 2.949.669.272 1.378.41 2.094.407 2.406 0 4.365-1.505 4.365-3.356 0-1.227-.873-2.357-2.278-2.949-.666-.272-1.374-.41-2.087-.407zM93.396 49c-1.1 0-1.999-.671-1.999-1.497 0-.826.898-1.503 2-1.503 1.1 0 2 .675 2 1.503 0 .828-.897 1.497-2 1.497zm0-2.851c-1.02 0-1.852.607-1.852 1.354 0 .747.831 1.348 1.852 1.348 1.021 0 1.855-.596 1.855-1.348 0-.753-.832-1.354-1.855-1.354zM68.4 40c-1.104 0-2.003-.675-2.003-1.503 0-.828.899-1.497 2.002-1.497 1.104 0 1.998.671 1.998 1.497 0 .826-.89 1.503-1.998 1.503zm0-2.851c-1.024 0-1.856.596-1.856 1.348 0 .753.832 1.354 1.855 1.354 1.024 0 1.852-.607 1.852-1.354 0-.747-.824-1.348-1.852-1.348z" transform="translate(-198 -383) translate(20 184) translate(178.603 199)"/>
                    <path fill="#A59CC6" d="M99.397 33v64.215c0 .434-.672.785-1.5.785-.83 0-1.5-.351-1.5-.785V33c0 .432.673.783 1.5.783.826 0 1.5-.351 1.5-.783z" transform="translate(-198 -383) translate(20 184) translate(178.603 199)"/>
                    <path fill="#A59CC6" d="M97.896 32c.83 0 1.501.446 1.501 1.001 0 .556-.672.999-1.5.999-.83 0-1.5-.448-1.5-.999 0-.55.673-1.001 1.5-1.001z" transform="translate(-198 -383) translate(20 184) translate(178.603 199)"/>
                    <path fill="#231F20" d="M99.325 33H100.325V98H99.325zM96.325 33H97.325V98H96.325z" transform="translate(-198 -383) translate(20 184) translate(178.603 199)"/>
                    <path fill="#231F20" d="M97.897 98c-.841 0-1.5-.446-1.5-1h.137c0 .446.624.833 1.363.833.738 0 1.364-.382 1.364-.833h.136c0 .56-.658 1-1.5 1zM97.897 34c-.841 0-1.5-.446-1.5-.998 0-.551.659-1.002 1.5-1.002.84 0 1.5.446 1.5 1.002s-.658.998-1.5.998zm0-1.833c-.73 0-1.363.382-1.363.835 0 .453.624.83 1.363.83.738 0 1.364-.379 1.364-.83 0-.45-.624-.835-1.364-.835z" transform="translate(-198 -383) translate(20 184) translate(178.603 199)"/>
                    <path fill="#A59CC6" d="M80.397 87v26.21c0 .436-.672.79-1.5.79-.827 0-1.5-.354-1.5-.79V87c0 .437.671.79 1.5.79.83 0 1.5-.363 1.5-.79z" transform="translate(-198 -383) translate(20 184) translate(178.603 199)"/>
                    <path fill="#A59CC6" d="M78.897 86c.828 0 1.5.448 1.5.999 0 .55-.672 1.001-1.5 1.001-.827 0-1.5-.448-1.5-1.001 0-.553.671-.999 1.5-.999z" transform="translate(-198 -383) translate(20 184) translate(178.603 199)"/>
                    <path fill="#231F20" d="M80.325 87H81.325V114H80.325zM78.325 87H79.325V114H78.325z" transform="translate(-198 -383) translate(20 184) translate(178.603 199)"/>
                    <path fill="#231F20" d="M78.896 113c-.841 0-1.499-.445-1.499-1h.14c0 .445.623.833 1.362.833.74 0 1.362-.38 1.362-.833h.136c-.003.561-.662 1-1.501 1zM78.897 88c-.842 0-1.5-.446-1.5-1.002s.658-.998 1.5-.998 1.5.446 1.5.998c0 .551-.66 1.002-1.5 1.002zm0-1.833c-.74 0-1.363.38-1.363.83 0 .452.623.836 1.363.836s1.364-.382 1.364-.835c0-.453-.625-.83-1.364-.83zM80.437 97l-.04-.14c3.758-1.031 6.984-4.866 9.586-11.397 2.088-5.238 3.78-12.21 5.03-20.713C97.143 50.26 97.25 36.141 97.25 36h.146c0 .141-.107 14.269-2.238 28.771-1.252 8.518-2.948 15.5-5.04 20.748C87.5 92.099 84.241 95.962 80.436 97z" transform="translate(-198 -383) translate(20 184) translate(178.603 199)"/>
                    <path fill="#9881EE" style="mix-blend-mode:color" d="M0.397 0H145.397V144H0.397z" transform="translate(-198 -383) translate(20 184) translate(178.603 199)"/>
                </g>
            </g>
        </g>
    </g>
</svg>
