<svg width="25" height="25" viewBox="0 0 25 25" fill="none" xmlns="http://www.w3.org/2000/svg">
<circle cx="12.5" cy="12.5" r="12.5" fill="white"/>
<path d="M11.8722 5.03828L5.08696 10.0297C4.93377 10.1424 5.01347 10.3853 5.20367 10.3853H18.7742C18.9644 10.3853 19.0441 10.1424 18.8909 10.0297L12.1056 5.03828C12.0362 4.98724 11.9416 4.98724 11.8722 5.03828Z" fill="#D7A81E"/>
<rect opacity="0.399995" x="6.61108" y="11.1208" width="1.48955" height="6.25532" fill="#D7A81E"/>
<path d="M8.41011 10.3853H6.29296C6.20313 10.5283 6.20313 10.9777 6.29296 11.1208H8.41011C8.51116 10.9907 8.51116 10.5153 8.41011 10.3853Z" fill="#D7A81E"/>
<path d="M8.41011 17.3764H6.29296C6.20313 17.5195 6.20313 17.9689 6.29296 18.1119H8.41011C8.51116 17.9819 8.51116 17.5065 8.41011 17.3764Z" fill="#D7A81E"/>
<rect opacity="0.399995" x="9.69946" y="11.1208" width="1.48955" height="6.25532" fill="#D7A81E"/>
<path d="M11.499 10.3853H9.38183C9.292 10.5283 9.292 10.9777 9.38183 11.1208H11.499C11.6 10.9907 11.6 10.5153 11.499 10.3853Z" fill="#D7A81E"/>
<path d="M11.499 17.3764H9.38183C9.292 17.5195 9.292 17.9689 9.38183 18.1119H11.499C11.6 17.9819 11.6 17.5065 11.499 17.3764Z" fill="#D7A81E"/>
<rect opacity="0.399995" x="12.7891" y="11.1208" width="1.48955" height="6.25532" fill="#D7A81E"/>
<path d="M14.5876 10.3853H12.4704C12.3806 10.5283 12.3806 10.9777 12.4704 11.1208H14.5876C14.6887 10.9907 14.6887 10.5153 14.5876 10.3853Z" fill="#D7A81E"/>
<path d="M14.5876 17.3764H12.4704C12.3806 17.5195 12.3806 17.9689 12.4704 18.1119H14.5876C14.6887 17.9819 14.6887 17.5065 14.5876 17.3764Z" fill="#D7A81E"/>
<rect opacity="0.399995" x="15.8772" y="11.1208" width="1.48955" height="6.25532" fill="#D7A81E"/>
<path d="M17.6765 10.3853H15.5593C15.4695 10.5283 15.4695 10.9777 15.5593 11.1208H17.6765C17.7775 10.9907 17.7775 10.5153 17.6765 10.3853Z" fill="#D7A81E"/>
<path d="M17.6765 17.3764H15.5593C15.4695 17.5195 15.4695 17.9689 15.5593 18.1119H17.6765C17.7775 17.9819 17.7775 17.5065 17.6765 17.3764Z" fill="#D7A81E"/>
<path d="M18.9715 19.6015H5.00635V19.0599C5.00635 18.8449 5.18068 18.6705 5.39573 18.6705H18.5822C18.7973 18.6705 18.9716 18.8449 18.9716 19.0599V19.6015H18.9715Z" fill="#D7A81E"/>
<path opacity="0.399995" d="M18.5061 18.6705H5.47192V18.5013C5.47192 18.2862 5.64625 18.1119 5.8613 18.1119H18.1168C18.3318 18.1119 18.5061 18.2862 18.5061 18.5013V18.6705H18.5061Z" fill="#D7A81E"/>
</svg>
