<svg xmlns="http://www.w3.org/2000/svg" width="28" height="25.2" viewBox="0 0 28 25.2">
  <g id="Group_1" data-name="Group 1" transform="translate(-23 -24)">
    <path id="Path" d="M21.616,4.531l-.14-.308c-.378-.8-.812-1.72-1.078-2.251A3.419,3.419,0,0,0,17.29,0H10.7A3.4,3.4,0,0,0,7.6,1.972c-.28.559-.756,1.566-1.148,2.391l-.084.168A.275.275,0,0,1,6.1,4.7,6.106,6.106,0,0,0,0,10.8V19.1a6.106,6.106,0,0,0,6.1,6.1H21.9A6.115,6.115,0,0,0,28,19.1V10.8a6.115,6.115,0,0,0-6.1-6.1A.318.318,0,0,1,21.616,4.531Z" transform="translate(23 24)" fill="#d7a81e" opacity="0.397"/>
    <path id="Combined_Shape" data-name="Combined Shape" d="M1.61,9.719A5.5,5.5,0,0,1,0,5.832,5.42,5.42,0,0,1,1.6,1.958,5.5,5.5,0,1,1,1.61,9.719ZM3.081,3.441A3.263,3.263,0,0,0,2.1,5.818v.014a3.391,3.391,0,0,0,3.4,3.4,3.423,3.423,0,0,0,3.4-3.4A3.406,3.406,0,0,0,3.081,3.441ZM12.1,1.273a1.267,1.267,0,1,1,1.26,1.258A1.266,1.266,0,0,1,12.1,1.273Z" transform="translate(31.498 32.628)" fill="#d7a81e"/>
  </g>
</svg>
