<svg id="Confetti" xmlns="http://www.w3.org/2000/svg" width="138" height="138" viewBox="0 0 138 138">
  <circle id="Oval" cx="69" cy="69" r="69" fill="#030c42" opacity="0.797"/>
  <g id="confetti-3" transform="translate(36 37)">
    <path id="Path" d="M1.833,7a1.833,1.833,0,0,1-1.3-3.13L3.87.537A1.833,1.833,0,0,1,6.463,3.13L3.13,6.463A1.828,1.828,0,0,1,1.833,7Z" transform="translate(0 58)" fill="#00429d"/>
    <path id="Path-2" data-name="Path" d="M0,6.448a1.993,1.993,0,0,0,2.787-.032L6.416,2.787A1.994,1.994,0,0,0,6.448,0Z" transform="translate(1 58)" fill="#00347b"/>
    <path id="Path-3" data-name="Path" d="M.039,15.736A5.776,5.776,0,0,1,1.3,13.848l1.372-1.377,2.607-.085.131-2.663L8.119,7l2.046-.28.656-2.432L13.6,1.5S16.9-.591,17.657.165l11.181,11.22c.753.756-1.363,4.1-1.363,4.1l-2.735,2.745-2.414.278-.31,2.456-2.708,2.717-2.166.028-.583,2.731L15.2,27.805a5.756,5.756,0,0,1-1.712,1.187C12.737,29.333-.823,17.839.039,15.736Z" transform="translate(0 36)" fill="#7dd5f4"/>
    <path id="Path-4" data-name="Path" d="M17.278,0,0,16.442c3.421,2.987,7.1,5.715,7.486,5.551A5.773,5.773,0,0,0,9.2,20.867l1.356-1.291.583-2.59L13.3,16.96l2.709-2.578.31-2.33,2.415-.264,2.736-2.6s2.117-3.177,1.364-3.894Z" transform="translate(6 42)" fill="#4793ff"/>
    <path id="Path-5" data-name="Path" d="M0,0,3.839.038l.194,19.577L.194,19.577Z" transform="translate(8.4 42.779) rotate(-45)" fill="#4793ff"/>
    <path id="Path-6" data-name="Path" d="M3.874.535a1.826,1.826,0,0,0-2.583,0L0,1.826,13.174,15l1.291-1.291a1.826,1.826,0,0,0,0-2.583Z" transform="translate(14 36)" fill="#4793ff"/>
    <path id="Path-7" data-name="Path" d="M.572,0A5.787,5.787,0,0,0,1.34,6.213l6.446,6.446A5.784,5.784,0,0,0,14,13.427Z" transform="translate(0 51)" fill="#4793ff"/>
    <path id="Path-8" data-name="Path" d="M0,0,3.839.038l.194,19.577L.194,19.577Z" transform="translate(2.917 48.154) rotate(-45)" fill="#4793ff"/>
    <path id="Path-9" data-name="Path" d="M34.054,10A2.035,2.035,0,0,1,32.7,9.495,23.826,23.826,0,0,0,16.781,3.568,24.381,24.381,0,0,0,3.111,7.735,2.064,2.064,0,0,1,.387,7.375a1.689,1.689,0,0,1,.393-2.5A28.537,28.537,0,0,1,16.781,0a27.888,27.888,0,0,1,18.63,6.937,1.681,1.681,0,0,1,.038,2.523A2.031,2.031,0,0,1,34.054,10Z" transform="translate(31 34)" fill="#ca75f5"/>
    <path id="Path-10" data-name="Path" d="M9.13,25a2.082,2.082,0,0,1-1.184-.365,1.8,1.8,0,0,1-.425-2.619A11.356,11.356,0,0,0,10,14.943a12.011,12.011,0,0,0-8.642-11.3A1.848,1.848,0,0,1,.107,1.272,2.034,2.034,0,0,1,2.643.1,15.784,15.784,0,0,1,14,14.944a14.924,14.924,0,0,1-3.258,9.294A2.045,2.045,0,0,1,9.13,25Z" transform="translate(14 8)" fill="#fdbf00"/>
    <path id="Path-11" data-name="Path" d="M1.959,23a2,2,0,0,1-1.385-.549,1.816,1.816,0,0,1,0-2.649c1.867-1.785,4.439-2.229,6.708-2.621,1.869-.323,3.634-.627,4.634-1.583s1.319-2.643,1.656-4.43c.41-2.169.874-4.628,2.742-6.413,2.3-2.2,5.338-2.909,8.278-3.6A31.67,31.67,0,0,0,28.332.127,1.988,1.988,0,0,1,30.867,1.2,1.848,1.848,0,0,1,29.748,3.62,35.107,35.107,0,0,1,25.522,4.8c-2.527.591-4.914,1.149-6.438,2.606-1,.956-1.319,2.644-1.656,4.43-.41,2.169-.874,4.628-2.741,6.413s-4.439,2.229-6.708,2.621c-1.869.323-3.634.627-4.634,1.583A2,2,0,0,1,1.959,23Z" transform="translate(35)" fill="#ff8856"/>
    <g id="Group" transform="translate(3 2)">
      <path id="Path-12" data-name="Path" d="M1.933,3.827A1.927,1.927,0,0,0,3.867,1.914,1.933,1.933,0,0,0,0,1.914,1.927,1.927,0,0,0,1.933,3.827Z" transform="translate(38.797 0.511)" fill="#bee75e"/>
      <path id="Path-13" data-name="Path" d="M1.933,3.827A1.927,1.927,0,0,0,3.867,1.914,1.933,1.933,0,0,0,0,1.914,1.927,1.927,0,0,0,1.933,3.827Z" transform="translate(1.996 20.659)" fill="#d98ff8"/>
      <path id="Path-14" data-name="Path" d="M1.933,3.827A1.927,1.927,0,0,0,3.867,1.914,1.933,1.933,0,0,0,0,1.914,1.927,1.927,0,0,0,1.933,3.827Z" transform="translate(0.001 0.001)" fill="#7dd5f4"/>
      <path id="Path-15" data-name="Path" d="M1.933,3.827A1.927,1.927,0,0,0,3.867,1.914,1.933,1.933,0,0,0,0,1.914,1.927,1.927,0,0,0,1.933,3.827Z" transform="translate(42.792 40.568)" fill="#ff8856"/>
      <path id="Path-16" data-name="Path" d="M1.933,3.827A1.927,1.927,0,0,0,3.867,1.914,1.933,1.933,0,0,0,0,1.914,1.927,1.927,0,0,0,1.933,3.827Z" transform="translate(54.006 58.046)" fill="#4793ff"/>
      <path id="Path-17" data-name="Path" d="M1.933,3.827A1.927,1.927,0,0,0,3.867,1.914,1.933,1.933,0,0,0,0,1.914,1.927,1.927,0,0,0,1.933,3.827Z" transform="translate(27.841 56.005)" fill="#ff435b"/>
    </g>
    <path id="Path-18" data-name="Path" d="M4.026,13c-.053,0-.107,0-.161-.007A1.98,1.98,0,0,1,2.1,10.834,13.2,13.2,0,0,0,.291,3.058,2.045,2.045,0,0,1,.91.3,1.889,1.889,0,0,1,3.567.944a17.348,17.348,0,0,1,2.38,10.22A1.959,1.959,0,0,1,4.026,13Z" transform="translate(29)" fill="#d98ff8"/>
    <path id="Path-19" data-name="Path" d="M1.863,5A1.865,1.865,0,0,1,.1,3.711,1.891,1.891,0,0,1,1.274,1.326a25.386,25.386,0,0,1,12.16-1,1.882,1.882,0,0,1,1.542,2.161A1.864,1.864,0,0,1,12.841,4.05,21.681,21.681,0,0,0,2.452,4.9a1.837,1.837,0,0,1-.589.1Z" transform="translate(47 22)" fill="#ff435b"/>
    <path id="Path-20" data-name="Path" d="M2,4A2,2,0,1,0,0,2,2,2,0,0,0,2,4Z" transform="translate(32 30)" fill="#7dd5f4"/>
    <path id="Path-21" data-name="Path" d="M2,4A2,2,0,1,0,0,2,2,2,0,0,0,2,4Z" transform="translate(60 10)" fill="#00cb75"/>
    <g id="Group-2" data-name="Group" transform="translate(45 1)">
      <path id="Path-22" data-name="Path" d="M0,7.217A9.642,9.642,0,0,0,4.984,4.894,9.324,9.324,0,0,0,7.349,0Z" transform="translate(0.091 12.76)" fill="#ff435b"/>
      <path id="Path-23" data-name="Path" d="M4.1,0,0,4.03A28.627,28.627,0,0,0,3.416,3.023,1.846,1.846,0,0,0,4.1,0Z" transform="translate(16.247 0.082)" fill="#ff435b"/>
    </g>
    <path id="Path-24" data-name="Path" d="M2.476,0,0,2.476A1.751,1.751,0,1,0,2.476,0Z" transform="translate(33 31)" fill="#4793ff"/>
    <path id="Path-25" data-name="Path" d="M2.773,0,0,2.826,7.039,10,8.426,8.587a2.026,2.026,0,0,0,0-2.826Z" transform="translate(21 41)" fill="#525cdd"/>
    <path id="Path-26" data-name="Path" d="M0,0,3.839.038l.1,9.744L.1,9.744Z" transform="translate(15.421 49.664) rotate(-45)" fill="#525cdd"/>
    <path id="Path-27" data-name="Path" d="M0,0,3.839.038l.1,9.744L.1,9.744Z" transform="translate(9.938 55.038) rotate(-45)" fill="#525cdd"/>
    <path id="Path-28" data-name="Path" d="M0,2.627,3.054,5.706A5.485,5.485,0,0,0,6.6,7,5.5,5.5,0,0,0,9,6.447L2.605,0Z" transform="translate(5 58)" fill="#525cdd"/>
  </g>
</svg>
