<svg id="Group" xmlns="http://www.w3.org/2000/svg" width="25" height="25" viewBox="0 0 25 25">
  <circle id="Oval_Copy_10" data-name="Oval Copy 10" cx="12.5" cy="12.5" r="12.5" fill="#d7a81e" opacity="0.204"/>
  <g id="Delete" transform="translate(7 6)">
    <path id="Fill_1" data-name="Fill 1" d="M9.344.484c0,.042-.326,4.161-.512,5.895A1.783,1.783,0,0,1,7,8.106c-.79.018-1.564.024-2.326.024-.808,0-1.6-.006-2.366-.024A1.783,1.783,0,0,1,.518,6.379C.326,4.639.007.526,0,.484A.485.485,0,0,1,.117.143.434.434,0,0,1,.437,0H8.913a.446.446,0,0,1,.32.143.457.457,0,0,1,.111.341" transform="translate(0.827 4.092)" fill="#d7a81e" opacity="0.4"/>
    <path id="Fill_4" data-name="Fill 4" d="M11,2.43a.441.441,0,0,0-.436-.448H8.783a.783.783,0,0,1-.758-.621l-.1-.445A1.213,1.213,0,0,0,6.762,0H4.239A1.215,1.215,0,0,0,3.07.945l-.093.417a.784.784,0,0,1-.758.621H.436A.441.441,0,0,0,0,2.43v.232a.445.445,0,0,0,.436.448H10.564A.445.445,0,0,0,11,2.663Z" transform="translate(0 0)" fill="#d7a81e"/>
  </g>
</svg>
