<svg id="Earn" xmlns="http://www.w3.org/2000/svg" width="25" height="25" viewBox="0 0 25 25">
  <circle id="Oval_Copy_10" data-name="Oval Copy 10" cx="12.5" cy="12.5" r="12.5" fill="#d7a81e" opacity="0.2"/>
  <path id="Fill_1" data-name="Fill 1" d="M7.5,15a2.253,2.253,0,0,1-1.593-.656L5.359,13.8a1.128,1.128,0,0,0-.8-.329h-.77a2.261,2.261,0,0,1-2.258-2.258v-.771a1.132,1.132,0,0,0-.33-.8L.664,9.1A2.261,2.261,0,0,1,.656,5.907L1.2,5.359a1.128,1.128,0,0,0,.329-.8v-.77A2.261,2.261,0,0,1,3.791,1.533h.771a1.121,1.121,0,0,0,.8-.331L5.9.664A2.26,2.26,0,0,1,9.092.656l.548.547a1.123,1.123,0,0,0,.8.329h.771a2.261,2.261,0,0,1,2.258,2.259v.77a1.132,1.132,0,0,0,.33.8l.538.539a2.257,2.257,0,0,1,.015,3.185c-.008.007-.014.016-.022.023l-.533.533a1.128,1.128,0,0,0-.329.8v.77a2.261,2.261,0,0,1-2.258,2.258h-.771a1.128,1.128,0,0,0-.8.33l-.539.538A2.249,2.249,0,0,1,7.5,15" transform="translate(5 5)" fill="#d7a81e" opacity="0.4"/>
  <path id="Combined_Shape" data-name="Combined Shape" d="M4.05,4.979a.693.693,0,0,1-.142-.212.748.748,0,0,1,0-.511.883.883,0,0,1,.135-.2.662.662,0,0,1,.723-.145.593.593,0,0,1,.217.139.674.674,0,0,1,0,.928.684.684,0,0,1-.464.193A.672.672,0,0,1,4.05,4.979ZM.2,4.975a.658.658,0,0,1,0-.929L4.051.192a.656.656,0,1,1,.928.929L1.124,4.975a.657.657,0,0,1-.928,0Zm0-3.853A.659.659,0,0,1,0,.657.689.689,0,0,1,.191.2.591.591,0,0,1,.416.05.643.643,0,0,1,1.122.2.674.674,0,0,1,1.266.4.611.611,0,0,1,1.32.657a.63.63,0,0,1-.2.465.638.638,0,0,1-.462.191A.677.677,0,0,1,.2,1.122Z" transform="translate(9.914 9.916)" fill="#d7a81e"/>
</svg>
