<svg id="Emergency" xmlns="http://www.w3.org/2000/svg" width="17" height="15.442" viewBox="0 0 17 15.442">
  <path id="Fill_5" data-name="Fill 5" d="M2.315,15.442H2.281a2.4,2.4,0,0,1-2.1-3.307L6.4,1.232a2.405,2.405,0,0,1,4.2.008l6.182,10.819a2.441,2.441,0,0,1,.211.856,2.4,2.4,0,0,1-2.279,2.526H2.315Z" transform="translate(0 0)" fill="#d7a81e" opacity="0.4"/>
  <path id="Combined_Shape" data-name="Combined Shape" d="M0,6.055A.744.744,0,1,1,.743,6.8.747.747,0,0,1,0,6.055ZM0,3.147V.743a.744.744,0,0,1,1.488,0v2.4A.744.744,0,1,1,0,3.147Z" transform="translate(7.756 5.223)" fill="#d7a81e"/>
</svg>
