<svg xmlns="http://www.w3.org/2000/svg" width="130" height="146" viewBox="0 0 130 146"><path d="M44,0V6.79C44,12.981,34.143,18,22,18S0,12.981,0,6.79V0C0,6.193,9.857,11.212,22,11.212S44,6.193,44,0Z" transform="translate(86 97)" fill="#aa6324"/><path d="M38,9.193a4.329,4.329,0,0,1-.067.768C37.933,4.885,29.49.817,19,.817S.085,4.927.074,10A4.368,4.368,0,0,1,0,9.193C0,4.116,8.506,0,19,0S38,4.116,38,9.193Z" transform="translate(89 88)" fill="#ffc65a"/><path d="M37,9.369h0C36.21,14.2,28.228,18,18.5,18S.824,14.223,0,9.407C0,4.211,8.247,0,18.5,0S37,4.169,37,9.369Z" transform="translate(89 87)" fill="#ffc65a"/><path d="M0,11.5C0,5.146,9.851,0,22,0S44,5.148,44,11.5,34.143,23,22,23,0,17.851,0,11.5Z" transform="translate(86 85)" fill="#ffc65a"/><path d="M0,11.5C0,5.16,9.87,0,22,0S44,5.16,44,11.5,34.132,23,22,23,0,17.841,0,11.5Z" transform="translate(86 85)" fill="#231f20"/><path d="M22,19C9.88,19,0,13.679,0,7.137V0H.157V7.137c0,6.45,9.8,11.7,21.844,11.7s21.842-5.251,21.842-11.7V0H44V7.137C44,13.686,34.132,19,22,19Z" transform="translate(86 96)" fill="#231f20"/><path d="M19,19A31.6,31.6,0,0,1,6.149,16.5C2.636,14.888.486,12.7.076,10.339A4.692,4.692,0,0,1,0,9.5C0,4.267,8.526,0,19,0S38,4.263,38,9.5a4.635,4.635,0,0,1-.067.8l-.16-.027a4.534,4.534,0,0,0,.065-.773c0-5.153-8.453-9.344-18.845-9.344S.149,4.344.149,9.5a4.57,4.57,0,0,0,.073.812c.4,2.3,2.528,4.462,5.985,6.049a31.442,31.442,0,0,0,12.786,2.483c9.731,0,17.979-3.769,18.784-8.567l.16.025c-.4,2.374-2.548,4.57-6.058,6.189A31.535,31.535,0,0,1,19,19Z" transform="translate(89 86)" fill="#231f20"/><path d="M37.909,9V8.927l-.056.051-.026-.022V8.925c0-4.84-8.445-8.777-18.839-8.777S.173,4.1.162,8.962L0,8.972v-.01C0,4.02,8.529,0,18.988,0A32.581,32.581,0,0,1,32.413,2.59c3.575,1.671,5.554,3.909,5.571,6.3L38,8.905,37.961,9Z" transform="translate(89 88)" fill="#231f20"/><path d="M44,0V6.79C44,12.981,34.143,18,22,18S0,12.981,0,6.79V0C0,6.193,9.857,11.212,22,11.212S44,6.193,44,0Z" transform="translate(86 89)" fill="#aa6324"/><path d="M38,9.193a4.329,4.329,0,0,1-.067.768C37.933,4.885,29.49.817,19,.817S.085,4.927.074,10A4.368,4.368,0,0,1,0,9.193C0,4.116,8.506,0,19,0S38,4.116,38,9.193Z" transform="translate(89 80)" fill="#ffc65a"/><path d="M37,9.369h0C36.21,14.2,28.228,18,18.5,18S.824,14.223,0,9.407C0,4.211,8.247,0,18.5,0S37,4.169,37,9.369Z" transform="translate(89 80)" fill="#ffc65a"/><path d="M0,11.5C0,5.146,9.851,0,22,0S44,5.148,44,11.5,34.143,23,22,23,0,17.851,0,11.5Z" transform="translate(86 76)" fill="#ffc65a"/><path d="M0,11.5C0,5.16,9.87,0,22,0S44,5.16,44,11.5,34.132,23,22,23,0,17.841,0,11.5Z" transform="translate(86 76)" fill="#231f20"/><path d="M22,19C9.88,19,0,13.679,0,7.137V0H.157V7.137c0,6.45,9.8,11.7,21.844,11.7s21.842-5.251,21.842-11.7V0H44V7.137C44,13.686,34.132,19,22,19Z" transform="translate(86 89)" fill="#231f20"/><path d="M19,19A31.6,31.6,0,0,1,6.149,16.5C2.636,14.888.486,12.7.076,10.339A4.692,4.692,0,0,1,0,9.5C0,4.267,8.526,0,19,0S38,4.263,38,9.5a4.635,4.635,0,0,1-.067.8l-.16-.027a4.534,4.534,0,0,0,.065-.773c0-5.153-8.453-9.344-18.845-9.344S.149,4.344.149,9.5a4.57,4.57,0,0,0,.073.812c.4,2.313,2.528,4.462,5.985,6.049a31.442,31.442,0,0,0,12.786,2.483c9.731,0,17.979-3.769,18.784-8.567l.16.025c-.4,2.374-2.548,4.57-6.058,6.189A31.535,31.535,0,0,1,19,19Z" transform="translate(89 79)" fill="#231f20"/><path d="M37.909,9V8.927l-.056.051-.026-.022V8.925c0-4.84-8.445-8.777-18.839-8.777S.173,4.1.162,8.962L0,8.972v-.01C0,4.02,8.529,0,18.988,0A32.581,32.581,0,0,1,32.413,2.59c3.575,1.671,5.554,3.909,5.571,6.3L38,8.905,37.961,9Z" transform="translate(89 80)" fill="#231f20"/><path d="M44,0V6.79C44,12.981,34.143,18,22,18S0,12.981,0,6.79V0C0,6.193,9.857,11.212,22,11.212S44,6.193,44,0Z" transform="translate(86 81)" fill="#aa6324"/><path d="M38,9.193a4.329,4.329,0,0,1-.067.768C37.933,4.885,29.49.817,19,.817S.085,4.927.074,10A4.368,4.368,0,0,1,0,9.193C0,4.116,8.506,0,19,0S38,4.116,38,9.193Z" transform="translate(89 71)" fill="#ffc65a"/><path d="M37,9.369h0C36.21,14.2,28.228,18,18.5,18S.824,14.223,0,9.407C0,4.211,8.247,0,18.5,0S37,4.169,37,9.369Z" transform="translate(89 72)" fill="#ffc65a"/><path d="M0,11.5C0,5.146,9.851,0,22,0S44,5.148,44,11.5,34.143,23,22,23,0,17.851,0,11.5Z" transform="translate(86 70)" fill="#ffc65a"/><path d="M0,11.5C0,5.16,9.87,0,22,0S44,5.16,44,11.5,34.132,23,22,23,0,17.841,0,11.5Z" transform="translate(86 70)" fill="#231f20"/><path d="M22,19C9.88,19,0,13.679,0,7.137V0H.157V7.137c0,6.45,9.8,11.7,21.844,11.7s21.842-5.251,21.842-11.7V0H44V7.137C44,13.686,34.132,19,22,19Z" transform="translate(86 81)" fill="#231f20"/><path d="M19,19A31.6,31.6,0,0,1,6.149,16.5C2.636,14.888.486,12.7.076,10.339A4.692,4.692,0,0,1,0,9.5C0,4.267,8.526,0,19,0S38,4.263,38,9.5a4.635,4.635,0,0,1-.067.8l-.16-.027a4.534,4.534,0,0,0,.065-.773c0-5.153-8.453-9.344-18.845-9.344S.149,4.344.149,9.5a4.57,4.57,0,0,0,.073.812c.4,2.313,2.528,4.462,5.985,6.049a31.442,31.442,0,0,0,12.786,2.483c9.731,0,17.979-3.769,18.784-8.567l.16.025c-.4,2.374-2.548,4.57-6.058,6.189A31.535,31.535,0,0,1,19,19Z" transform="translate(89 71)" fill="#231f20"/><path d="M37.909,9V8.927l-.056.051-.026-.022V8.925c0-4.84-8.445-8.777-18.839-8.777S.173,4.1.162,8.962L0,8.972v-.01C0,4.02,8.529,0,18.988,0A32.581,32.581,0,0,1,32.413,2.59c3.575,1.671,5.554,3.909,5.571,6.3L38,8.905,37.961,9Z" transform="translate(89 72)" fill="#231f20"/><path d="M44,0V6.79C44,12.981,34.143,18,22,18S0,12.981,0,6.79V0C0,6.193,9.857,11.212,22,11.212S44,6.193,44,0Z" transform="translate(86 74)" fill="#aa6324"/><path d="M38,9.193a4.329,4.329,0,0,1-.067.768C37.933,4.885,29.49.817,19,.817S.085,4.927.074,10A4.368,4.368,0,0,1,0,9.193C0,4.116,8.506,0,19,0S38,4.116,38,9.193Z" transform="translate(89 65)" fill="#ffc65a"/><path d="M37,9.369h0C36.21,14.2,28.228,18,18.5,18S.824,14.233,0,9.407C0,4.211,8.247,0,18.5,0S37,4.169,37,9.369Z" transform="translate(89 64)" fill="#ffc65a"/><path d="M0,11.5C0,5.146,9.851,0,22,0S44,5.148,44,11.5,34.143,23,22,23,0,17.851,0,11.5Z" transform="translate(86 62)" fill="#ffc65a"/><path d="M0,11.5C0,5.16,9.87,0,22,0S44,5.16,44,11.5,34.132,23,22,23,0,17.841,0,11.5Z" transform="translate(86 62)" fill="#231f20"/><path d="M22,19C9.88,19,0,13.679,0,7.137V0H.157V7.137c0,6.45,9.8,11.7,21.844,11.7s21.842-5.251,21.842-11.7V0H44V7.137C44,13.686,34.132,19,22,19Z" transform="translate(86 73)" fill="#231f20"/><path d="M19,19A31.6,31.6,0,0,1,6.149,16.5C2.636,14.888.486,12.7.076,10.339A4.692,4.692,0,0,1,0,9.5C0,4.267,8.526,0,19,0S38,4.263,38,9.5a4.635,4.635,0,0,1-.067.8l-.16-.027a4.534,4.534,0,0,0,.065-.773c0-5.153-8.453-9.344-18.845-9.344S.149,4.344.149,9.5a4.57,4.57,0,0,0,.073.812c.4,2.313,2.528,4.462,5.985,6.049a31.442,31.442,0,0,0,12.786,2.483c9.731,0,17.979-3.769,18.784-8.567l.16.025c-.4,2.374-2.548,4.57-6.058,6.189A31.535,31.535,0,0,1,19,19Z" transform="translate(89 64)" fill="#231f20"/><path d="M37.909,9V8.927l-.056.051-.026-.022V8.925c0-4.84-8.445-8.777-18.839-8.777S.173,4.1.162,8.962L0,8.972v-.01C0,4.02,8.529,0,18.988,0A32.581,32.581,0,0,1,32.413,2.59c3.575,1.671,5.554,3.909,5.571,6.3L38,8.905,37.961,9Z" transform="translate(89 65)" fill="#231f20"/><path d="M44,0V6.79C44,12.981,34.143,18,22,18S0,12.981,0,6.79V0C0,6.193,9.857,11.212,22,11.212S44,6.193,44,0Z" transform="translate(86 66)" fill="#aa6324"/><path d="M38,9.193a4.329,4.329,0,0,1-.067.768C37.933,4.885,29.49.817,19,.817S.085,4.927.074,10A4.368,4.368,0,0,1,0,9.193C0,4.116,8.506,0,19,0S38,4.116,38,9.193Z" transform="translate(89 56)" fill="#ffc65a"/><path d="M37,9.369h0C36.21,14.2,28.228,18,18.5,18S.824,14.233,0,9.407C0,4.211,8.247,0,18.5,0S37,4.169,37,9.369Z" transform="translate(89 57)" fill="#ffc65a"/><path d="M0,11.5C0,5.146,9.851,0,22,0S44,5.148,44,11.5,34.143,23,22,23,0,17.851,0,11.5Z" transform="translate(86 54)" fill="#ffc65a"/><path d="M0,11.5C0,5.16,9.87,0,22,0S44,5.16,44,11.5,34.132,23,22,23,0,17.841,0,11.5Z" transform="translate(86 54)" fill="#231f20"/><path d="M22,19C9.88,19,0,13.679,0,7.137V0H.157V7.137c0,6.45,9.8,11.7,21.844,11.7s21.842-5.251,21.842-11.7V0H44V7.137C44,13.686,34.132,19,22,19Z" transform="translate(86 66)" fill="#231f20"/><path d="M19,19A31.6,31.6,0,0,1,6.149,16.5C2.636,14.888.486,12.7.076,10.339A4.692,4.692,0,0,1,0,9.5C0,4.267,8.526,0,19,0S38,4.263,38,9.5a4.635,4.635,0,0,1-.067.8l-.16-.027a4.534,4.534,0,0,0,.065-.773c0-5.153-8.453-9.344-18.845-9.344S.149,4.344.149,9.5a4.57,4.57,0,0,0,.073.812c.4,2.313,2.528,4.462,5.985,6.049a31.442,31.442,0,0,0,12.786,2.483c9.731,0,17.979-3.769,18.784-8.567l.16.025c-.4,2.374-2.548,4.57-6.058,6.189A31.535,31.535,0,0,1,19,19Z" transform="translate(89 56)" fill="#231f20"/><path d="M37.909,9V8.927l-.056.051-.026-.022V8.925c0-4.84-8.445-8.777-18.839-8.777S.173,4.1.162,8.962L0,8.972v-.01C0,4.02,8.529,0,18.988,0A32.581,32.581,0,0,1,32.413,2.59c3.575,1.671,5.554,3.909,5.571,6.3L38,8.905,37.961,9Z" transform="translate(89 57)" fill="#231f20"/><path d="M44,0V6.79C44,12.981,34.143,18,22,18S0,12.981,0,6.79V0C0,6.193,9.857,11.212,22,11.212S44,6.193,44,0Z" transform="translate(86 58)" fill="#aa6324"/><path d="M38,9.193a4.329,4.329,0,0,1-.067.768C37.933,4.885,29.49.817,19,.817S.085,4.927.074,10A4.368,4.368,0,0,1,0,9.193C0,4.116,8.506,0,19,0S38,4.116,38,9.193Z" transform="translate(89 48)" fill="#e2a84d"/><path d="M37,9.369h0C36.21,14.2,28.228,18,18.5,18S.824,14.233,0,9.407C0,4.211,8.247,0,18.5,0S37,4.169,37,9.369Z" transform="translate(89 49)" fill="#d49453"/><path d="M0,11.5C0,5.146,9.851,0,22,0S44,5.148,44,11.5,34.143,23,22,23,0,17.851,0,11.5Z" transform="translate(86 47)" fill="#d49453"/><path d="M0,11.5C0,5.16,9.87,0,22,0S44,5.16,44,11.5,34.132,23,22,23,0,17.841,0,11.5Z" transform="translate(86 47)" fill="#231f20"/><path d="M22,19C9.88,19,0,13.679,0,7.137V0H.157V7.137c0,6.45,9.8,11.7,21.844,11.7s21.842-5.251,21.842-11.7V0H44V7.137C44,13.686,34.132,19,22,19Z" transform="translate(86 58)" fill="#231f20"/><path d="M19,19A31.6,31.6,0,0,1,6.149,16.5C2.636,14.888.486,12.7.076,10.339A4.692,4.692,0,0,1,0,9.5C0,4.267,8.526,0,19,0S38,4.263,38,9.5a4.635,4.635,0,0,1-.067.8l-.16-.027a4.534,4.534,0,0,0,.065-.773c0-5.153-8.453-9.344-18.845-9.344S.149,4.344.149,9.5a4.57,4.57,0,0,0,.073.812c.4,2.313,2.528,4.462,5.985,6.049a31.442,31.442,0,0,0,12.786,2.483c9.731,0,17.979-3.769,18.784-8.567l.16.025c-.4,2.374-2.548,4.57-6.058,6.189A31.535,31.535,0,0,1,19,19Z" transform="translate(89 48)" fill="#231f20"/><path d="M37.909,9V8.927l-.056.051-.026-.022V8.925c0-4.84-8.445-8.777-18.839-8.777S.173,4.1.162,8.962L0,8.972v-.01C0,4.02,8.529,0,18.988,0A32.581,32.581,0,0,1,32.413,2.59c3.575,1.671,5.554,3.909,5.571,6.3L38,8.905,37.961,9Z" transform="translate(89 49)" fill="#231f20"/><path d="M44,0V6.79C44,12.981,34.143,18,22,18S0,12.981,0,6.79V0C0,6.193,9.857,11.212,22,11.212S44,6.193,44,0Z" transform="translate(45 110)" fill="#aa6324"/><path d="M37,9.193a4.443,4.443,0,0,1-.065.768C36.935,4.885,28.714.817,18.5.817S.082,4.927.072,10A4.483,4.483,0,0,1,0,9.193C0,4.116,8.282,0,18.5,0S37,4.116,37,9.193Z" transform="translate(49 100)" fill="#ffc65a"/><path d="M37,9.369h0C36.21,14.2,28.228,18,18.5,18S.824,14.223,0,9.407C.011,4.211,8.247,0,18.5,0S37,4.169,37,9.369Z" transform="translate(49 102)" fill="#ffc65a"/><path d="M0,11.5C0,5.146,9.851,0,22,0S44,5.148,44,11.5,34.143,23,22,23,0,17.851,0,11.5Z" transform="translate(45 98)" fill="#ffc65a"/><path d="M0,11.5C0,5.16,9.87,0,22,0S44,5.16,44,11.5,34.132,23,22,23,0,17.841,0,11.5Z" transform="translate(45 98)" fill="#231f20"/><path d="M22,19C9.88,19,0,13.679,0,7.137V0H.157V7.137c0,6.45,9.8,11.7,21.844,11.7s21.842-5.251,21.842-11.7V0H44V7.137C44,13.686,34.132,19,22,19Z" transform="translate(45 110)" fill="#231f20"/><path d="M18.5,19A30.065,30.065,0,0,1,5.987,16.5C2.567,14.888.473,12.7.074,10.339A4.815,4.815,0,0,1,0,9.5C0,4.267,8.3,0,18.5,0S37,4.263,37,9.5a4.757,4.757,0,0,1-.065.8l-.156-.027a4.655,4.655,0,0,0,.063-.773c0-5.153-8.23-9.344-18.349-9.344S.145,4.344.145,9.5a4.69,4.69,0,0,0,.071.812c.393,2.3,2.462,4.462,5.827,6.049a29.918,29.918,0,0,0,12.45,2.483c9.475,0,17.506-3.769,18.29-8.567l.156.025c-.385,2.374-2.481,4.57-5.9,6.189A30.007,30.007,0,0,1,18.5,19Z" transform="translate(49 100)" fill="#231f20"/><path d="M36.911,9V8.927l-.055.051-.025-.022V8.925c0-4.84-8.223-8.777-18.343-8.777S.169,4.1.158,8.962L0,8.972v-.01C0,4.02,8.3,0,18.488,0A31,31,0,0,1,31.56,2.59c3.481,1.671,5.408,3.909,5.425,6.3L37,8.905,36.962,9Z" transform="translate(49 101)" fill="#231f20"/><path d="M44,0V6.79C44,12.981,34.143,18,22,18S0,12.981,0,6.79V0C0,6.193,9.857,11.212,22,11.212S44,6.193,44,0Z" transform="translate(45 103)" fill="#aa6324"/><path d="M37,9.193a4.443,4.443,0,0,1-.065.768C36.935,4.885,28.714.817,18.5.817S.082,4.927.072,10A4.483,4.483,0,0,1,0,9.193C0,4.116,8.282,0,18.5,0S37,4.116,37,9.193Z" transform="translate(49 93)" fill="#ffc65a"/><path d="M37,9.369h0C36.21,14.2,28.228,18,18.5,18S.824,14.223,0,9.407C.011,4.211,8.247,0,18.5,0S37,4.169,37,9.369Z" transform="translate(49 94)" fill="#ffc65a"/><path d="M0,11.5C0,5.146,9.851,0,22,0S44,5.148,44,11.5,34.143,23,22,23,0,17.851,0,11.5Z" transform="translate(45 91)" fill="#ffc65a"/><path d="M0,11.5C0,5.16,9.87,0,22,0S44,5.16,44,11.5,34.132,23,22,23,0,17.841,0,11.5Z" transform="translate(45 91)" fill="#231f20"/><path d="M22,19C9.88,19,0,13.679,0,7.137V0H.157V7.137c0,6.45,9.8,11.7,21.844,11.7s21.842-5.251,21.842-11.7V0H44V7.137C44,13.686,34.132,19,22,19Z" transform="translate(45 102)" fill="#231f20"/><path d="M18.5,19A30.065,30.065,0,0,1,5.987,16.5C2.567,14.888.473,12.7.074,10.339A4.815,4.815,0,0,1,0,9.5C0,4.267,8.3,0,18.5,0S37,4.263,37,9.5a4.757,4.757,0,0,1-.065.8l-.156-.027a4.655,4.655,0,0,0,.063-.773c0-5.153-8.23-9.344-18.349-9.344S.145,4.344.145,9.5a4.69,4.69,0,0,0,.071.812c.393,2.3,2.462,4.462,5.827,6.049a29.918,29.918,0,0,0,12.45,2.483c9.475,0,17.506-3.769,18.29-8.567l.156.025c-.385,2.374-2.481,4.57-5.9,6.189A30.007,30.007,0,0,1,18.5,19Z" transform="translate(49 92)" fill="#231f20"/><path d="M36.911,9V8.927l-.055.051-.025-.022V8.925c0-4.84-8.223-8.777-18.343-8.777S.169,4.1.158,8.962L0,8.972v-.01C0,4.02,8.3,0,18.488,0A31,31,0,0,1,31.56,2.59c3.481,1.671,5.408,3.909,5.425,6.3L37,8.905,36.962,9Z" transform="translate(49 94)" fill="#231f20"/><path d="M44,0V6.79C44,12.981,34.143,18,22,18S0,12.981,0,6.79V0C0,6.193,9.857,11.212,22,11.212S44,6.193,44,0Z" transform="translate(45 95)" fill="#aa6324"/><path d="M37,9.193a4.443,4.443,0,0,1-.065.768C36.935,4.885,28.714.817,18.5.817S.082,4.927.072,10A4.483,4.483,0,0,1,0,9.193C0,4.116,8.282,0,18.5,0S37,4.116,37,9.193Z" transform="translate(49 85)" fill="#ffc65a"/><path d="M37,9.369h0C36.21,14.2,28.228,18,18.5,18S.824,14.223,0,9.407C.011,4.211,8.247,0,18.5,0S37,4.169,37,9.369Z" transform="translate(49 86)" fill="#ffc65a"/><path d="M0,11.5C0,5.146,9.851,0,22,0S44,5.148,44,11.5,34.143,23,22,23,0,17.851,0,11.5Z" transform="translate(45 83)" fill="#ffc65a"/><path d="M0,11.5C0,5.16,9.87,0,22,0S44,5.16,44,11.5,34.132,23,22,23,0,17.841,0,11.5Z" transform="translate(45 83)" fill="#231f20"/><path d="M22,19C9.88,19,0,13.679,0,7.137V0H.157V7.137c0,6.45,9.8,11.7,21.844,11.7s21.842-5.251,21.842-11.7V0H44V7.137C44,13.686,34.132,19,22,19Z" transform="translate(45 95)" fill="#231f20"/><path d="M18.5,19A30.065,30.065,0,0,1,5.987,16.5C2.567,14.888.473,12.7.074,10.339A4.815,4.815,0,0,1,0,9.5C0,4.267,8.3,0,18.5,0S37,4.263,37,9.5a4.757,4.757,0,0,1-.065.8l-.156-.027a4.655,4.655,0,0,0,.063-.773c0-5.153-8.23-9.344-18.349-9.344S.145,4.344.145,9.5a4.69,4.69,0,0,0,.071.812c.393,2.3,2.462,4.462,5.827,6.049a29.918,29.918,0,0,0,12.45,2.483c9.475,0,17.506-3.769,18.29-8.567l.156.025c-.385,2.374-2.481,4.57-5.9,6.189A30.007,30.007,0,0,1,18.5,19Z" transform="translate(49 85)" fill="#231f20"/><path d="M36.911,9V8.927l-.055.051-.025-.022V8.925c0-4.84-8.223-8.777-18.343-8.777S.169,4.1.158,8.962L0,8.972v-.01C0,4.02,8.3,0,18.488,0A31,31,0,0,1,31.56,2.59c3.481,1.671,5.408,3.909,5.425,6.3L37,8.905,36.962,9Z" transform="translate(49 86)" fill="#231f20"/><path d="M44,0V6.79C44,12.981,34.143,18,22,18S0,12.981,0,6.79V0C0,6.193,9.857,11.212,22,11.212S44,6.193,44,0Z" transform="translate(45 86)" fill="#aa6324"/><path d="M37,9.193a4.443,4.443,0,0,1-.065.768C36.935,4.885,28.714.817,18.5.817S.082,4.927.072,10A4.483,4.483,0,0,1,0,9.193C0,4.116,8.282,0,18.5,0S37,4.116,37,9.193Z" transform="translate(49 77)" fill="#e2a84d"/><path d="M37,9.369h0C36.21,14.2,28.228,18,18.5,18S.824,14.223,0,9.407C.011,4.211,8.247,0,18.5,0S37,4.169,37,9.369Z" transform="translate(49 79)" fill="#d49453"/><path d="M0,11.5C0,5.146,9.851,0,22,0S44,5.148,44,11.5,34.143,23,22,23,0,17.851,0,11.5Z" transform="translate(45 76)" fill="#d49453"/><path d="M0,11.5C0,5.16,9.87,0,22,0S44,5.16,44,11.5,34.132,23,22,23,0,17.841,0,11.5Z" transform="translate(45 76)" fill="#231f20"/><path d="M22,19C9.88,19,0,13.679,0,7.137V0H.157V7.137c0,6.45,9.8,11.7,21.844,11.7s21.842-5.251,21.842-11.7V0H44V7.137C44,13.686,34.132,19,22,19Z" transform="translate(45 86)" fill="#231f20"/><path d="M18.5,19A30.065,30.065,0,0,1,5.987,16.5C2.567,14.888.473,12.7.074,10.339A4.815,4.815,0,0,1,0,9.5C0,4.267,8.3,0,18.5,0S37,4.263,37,9.5a4.757,4.757,0,0,1-.065.8l-.156-.027a4.655,4.655,0,0,0,.063-.773c0-5.153-8.23-9.344-18.349-9.344S.145,4.344.145,9.5a4.69,4.69,0,0,0,.071.812c.393,2.313,2.462,4.462,5.827,6.049a29.918,29.918,0,0,0,12.45,2.483c9.475,0,17.506-3.769,18.29-8.567l.156.025c-.385,2.374-2.481,4.57-5.9,6.189A30.007,30.007,0,0,1,18.5,19Z" transform="translate(49 77)" fill="#231f20"/><path d="M36.911,9V8.927l-.055.051-.025-.022V8.925c0-4.84-8.223-8.777-18.343-8.777S.169,4.1.158,8.962L0,8.972v-.01C0,4.02,8.3,0,18.488,0A31,31,0,0,1,31.56,2.59c3.481,1.671,5.408,3.909,5.425,6.3L37,8.905,36.962,9Z" transform="translate(49 79)" fill="#231f20"/><path d="M44,0V6.79C44,12.981,34.143,18,22,18S0,12.981,0,6.79V0C0,6.193,9.857,11.212,22,11.212S44,6.193,44,0Z" transform="translate(3 125)" fill="#aa6324"/><path d="M38,9.193a4.329,4.329,0,0,1-.067.768C37.933,4.885,29.49.817,19,.817S.085,4.927.074,10A4.368,4.368,0,0,1,0,9.193C0,4.116,8.506,0,19,0S38,4.116,38,9.193Z" transform="translate(6 116)" fill="#ffc65a"/><path d="M37,9.369h0C36.21,14.2,28.228,18,18.5,18S.824,14.223,0,9.407C.011,4.211,8.247,0,18.5,0S37,4.169,37,9.369Z" transform="translate(7 116)" fill="#ffc65a"/><path d="M0,11.5C0,5.146,9.851,0,22,0S44,5.148,44,11.5,34.143,23,22,23,0,17.851,0,11.5Z" transform="translate(3 114)" fill="#ffc65a"/><path d="M0,11.5C0,5.16,9.87,0,22,0S44,5.16,44,11.5,34.13,23,22,23,0,17.841,0,11.5Z" transform="translate(3 114)" fill="#231f20"/><path d="M22,19C9.87,19,0,13.679,0,7.137V0H.157V7.137c0,6.45,9.8,11.7,21.844,11.7s21.842-5.251,21.842-11.7V0H44V7.137C44,13.686,34.13,19,22,19Z" transform="translate(3 125)" fill="#231f20"/><path d="M19,19A31.589,31.589,0,0,1,6.147,16.5C2.636,14.888.484,12.7.076,10.339A4.673,4.673,0,0,1,0,9.5C0,4.267,8.526,0,19,0S38,4.263,38,9.5a4.876,4.876,0,0,1-.067.8l-.16-.027a4.535,4.535,0,0,0,.065-.773c0-5.153-8.455-9.344-18.845-9.344S.149,4.344.149,9.5a4.57,4.57,0,0,0,.071.812c.4,2.3,2.53,4.462,5.987,6.049a31.442,31.442,0,0,0,12.786,2.483c9.729,0,17.979-3.769,18.784-8.567l.16.025c-.4,2.374-2.548,4.57-6.058,6.189A31.545,31.545,0,0,1,19,19Z" transform="translate(6 115)" fill="#231f20"/><path d="M37.9,9V8.927l-.058.049-.024-.022v-.03c0-4.84-8.443-8.777-18.835-8.777S.173,4.1.162,8.962L0,8.972v-.01C.011,4.02,8.528,0,18.985,0A32.578,32.578,0,0,1,32.408,2.59c3.574,1.671,5.56,3.921,5.577,6.3L38,8.907,37.959,9Z" transform="translate(6 116)" fill="#231f20"/><path d="M44,0V6.79C44,12.981,34.143,18,22,18S0,12.981,0,6.79V0C0,6.193,9.857,11.212,22,11.212S44,6.193,44,0Z" transform="translate(3 118)" fill="#aa6324"/><path d="M38,9.193a4.329,4.329,0,0,1-.067.768C37.933,4.885,29.49.817,19,.817S.085,4.927.074,10A4.368,4.368,0,0,1,0,9.193C0,4.116,8.506,0,19,0S38,4.116,38,9.193Z" transform="translate(6 108)" fill="#aa6324"/><path d="M37,9.369h0C36.21,14.2,28.228,18,18.5,18S.824,14.223,0,9.407C.011,4.211,8.247,0,18.5,0S37,4.169,37,9.369Z" transform="translate(7 109)" fill="#d49453"/><path d="M0,11.5C0,5.146,9.851,0,22,0S44,5.148,44,11.5,34.143,23,22,23,0,17.851,0,11.5Z" transform="translate(3 105)" fill="#d49453"/><path d="M0,11.5C0,5.16,9.87,0,22,0S44,5.16,44,11.5,34.13,23,22,23,0,17.841,0,11.5Z" transform="translate(3 105)" fill="#231f20"/><path d="M22,19C9.87,19,0,13.679,0,7.137V0H.157V7.137c0,6.45,9.8,11.7,21.844,11.7s21.842-5.251,21.842-11.7V0H44V7.137C44,13.686,34.13,19,22,19Z" transform="translate(3 117)" fill="#231f20"/><path d="M19,19A31.589,31.589,0,0,1,6.147,16.5C2.636,14.888.484,12.7.076,10.339A4.673,4.673,0,0,1,0,9.5C0,4.267,8.526,0,19,0S38,4.263,38,9.5a4.876,4.876,0,0,1-.067.8l-.16-.027a4.535,4.535,0,0,0,.065-.773c0-5.153-8.455-9.344-18.845-9.344S.149,4.344.149,9.5a4.57,4.57,0,0,0,.071.812c.4,2.3,2.53,4.462,5.987,6.049a31.442,31.442,0,0,0,12.786,2.483c9.729,0,17.979-3.769,18.784-8.567l.16.025c-.4,2.374-2.548,4.57-6.058,6.189A31.545,31.545,0,0,1,19,19Z" transform="translate(6 108)" fill="#231f20"/><path d="M37.9,9V8.927l-.058.049-.024-.022v-.03c0-4.84-8.443-8.777-18.835-8.777S.173,4.1.162,8.962L0,8.972v-.01C.011,4.02,8.528,0,18.985,0A32.578,32.578,0,0,1,32.408,2.59c3.574,1.671,5.56,3.921,5.577,6.3L38,8.907,37.959,9Z" transform="translate(6 109)" fill="#231f20"/><path d="M2,0V31.613C2,31.822,1.555,32,1,32s-1-.174-1-.387V0C0,.209.448.387,1,.387S2,.214,2,0Z" transform="translate(24 87)" fill="#836a15"/><path d="M1,0A1,1,0,1,1,0,1,1,1,0,0,1,1,0Z" transform="translate(24 86)" fill="#836a15"/><rect width="0.16" height="32" transform="translate(25.92 88)" fill="#231f20"/><rect width="0.16" height="32" transform="translate(23.92 88)" fill="#231f20"/><path d="M1,1A1,1,0,0,1,0,0H.192A.761.761,0,0,0,1,.662.761.761,0,0,0,1.808,0H2A.989.989,0,0,1,1,1Z" transform="translate(24 119)" fill="#231f20"/><path d="M0,1A1,1,0,1,1,1,2,1,1,0,0,1,0,1Z" transform="translate(24 86)" fill="#231f20"/><path d="M0,2,3,0" transform="translate(25 94)" fill="#fff"/><path d="M0,.5,3.152.5h0L0,.5Z" transform="matrix(0.719, -0.695, 0.695, 0.719, 24.56, 95.91)" fill="#231f20"/><path d="M6.992,7.615C7.149,8.843,5.025,19,5.025,19L4.259,6.429,0,.552,1.56,0S6.835,6.387,6.992,7.615Z" transform="translate(30 90)" fill="#a6d513"/><path d="M4.238,5.734,5,18,0,0,4.238,5.734Z" transform="translate(30 91)" fill="#a6d513"/><path d="M2.885,0,8,18,4.473,6.494,1.592,2.941,0,.979,2.885,0Z" transform="translate(27 91)" fill="#a6d513"/><path d="M1.1,0,3,1.865,2.789,2,0,1.824,1.1,0Z" transform="translate(26 92)" fill="#231f20"/><path d="M3,.15,0,2,1.011,0,3,.15Z" transform="translate(25 95)" fill="#8daa13"/><path d="M4.44,7.182,0,1.575,4.534,0l.035.041C4.778.3,9.84,6.322,9.992,7.532S8.115,18.293,8.033,18.7l-.06.3Z" transform="translate(27 90)" fill="#231f20"/><path d="M1.012,0,3,.153,0,2Z" transform="translate(25 95)" fill="#231f20"/><path d="M0,.5,2.113.5h0L0,.5Z" transform="matrix(0.431, -0.902, 0.902, 0.431, 25.207, 93.67)" fill="#231f20"/><path d="M5.818,18,4.93,5.793,0,.1.146,0,5.108,5.736l0,.023L6,17.989,5.818,18Z" transform="translate(29 91)" fill="#231f20"/><path d="M.008,6.811C-.147,7.909,1.98,17,1.98,17L2.746,5.754,7,.493,5.443,0S.166,5.711.008,6.811Z" transform="translate(13 96)" fill="#a6d513"/><path d="M.764,5.416,0,17,5,0,.764,5.416Z" transform="translate(15 97)" fill="#a6d513"/><path d="M5.115,0,0,17,3.528,6.132,6.409,2.776,8,.926,5.115,0Z" transform="translate(15 97)" fill="#a6d513"/><path d="M0,1.862.213,2,3,1.824,1.9,0,0,1.862Z" transform="translate(21 97)" fill="#231f20"/><path d="M0,.149,3,2,1.989,0,0,.149Z" transform="translate(22 100)" fill="#8daa13"/><path d="M1.774,17.7C1.7,17.32-.125,8.278.007,7.132S4.693.284,4.885.041L4.918,0,9,1.493,5.007,6.8,1.834,18Z" transform="translate(13 96)" fill="#231f20"/><path d="M0,.149,1.992,0,3,2Z" transform="translate(22 100)" fill="#231f20"/><path d="M.5,0h0l0,2.023h0Z" transform="translate(22.143 97.922) rotate(-25.59)" fill="#231f20"/><path d="M.157,17,0,16.99.742,5.417,4.873,0,5,.094.9,5.476.157,17Z" transform="translate(15 97)" fill="#231f20"/><path d="M2,0V31.613C2,31.822,1.552,32,1,32s-1-.174-1-.387V0C0,.209.448.387,1,.387S2,.214,2,0Z" transform="translate(67 57)" fill="#836a15"/><path d="M1,0A.992.992,0,0,1,2,1,1,1,0,1,1,1,0Z" transform="translate(67 55)" fill="#fff"/><rect width="0.16" height="32" transform="translate(67.92 57)" fill="#231f20"/><rect width="0.16" height="32" transform="translate(66.92 57)" fill="#231f20"/><path d="M1,1A1,1,0,0,1,0,0H.192A.761.761,0,0,0,1,.662.761.761,0,0,0,1.808,0H2A.987.987,0,0,1,1,1Z" transform="translate(67 89)" fill="#231f20"/><path d="M0,1A1,1,0,1,1,1,2,1,1,0,0,1,0,1Z" transform="translate(67 55)" fill="#231f20"/><path d="M0,2,2,0" transform="translate(67 63)" fill="#fff"/><path d="M0,.5,3.152.5h0L0,.5Z" transform="matrix(0.719, -0.695, 0.695, 0.719, 66.916, 65.651)" fill="#231f20"/><path d="M6.992,7.615C7.149,8.843,5.025,19,5.025,19L4.259,6.429,0,.552,1.56,0S6.843,6.387,6.992,7.615Z" transform="translate(72 60)" fill="#a6d513"/><path d="M4.238,5.734,5,18,0,0,4.238,5.734Z" transform="translate(73 61)" fill="#a6d513"/><path d="M2.885,0,8,18,4.473,6.494,1.592,2.941,0,.979,2.885,0Z" transform="translate(69 61)" fill="#a6d513"/><path d="M1.1,0,3,1.865,2.789,2,0,1.824,1.1,0Z" transform="translate(68 62)" fill="#231f20"/><path d="M3,.15,0,2,1.011,0,3,.15Z" transform="translate(68 64)" fill="#8daa13"/><path d="M4.439,7.182,0,1.575,4.535,0l.033.041C4.777.3,9.84,6.322,9.992,7.532S8.114,18.293,8.031,18.7l-.046.3Z" transform="translate(69 60)" fill="#231f20"/><path d="M1.012,0,3,.153,0,2Z" transform="translate(68 64)" fill="#231f20"/><path d="M0,.5,2.113.5h0L0,.5Z" transform="matrix(0.431, -0.902, 0.902, 0.431, 67.533, 63.548)" fill="#231f20"/><path d="M5.818,18,4.93,5.793,0,.1.146,0,5.107,5.736l0,.023L6,17.989,5.818,18Z" transform="translate(72 61)" fill="#231f20"/><path d="M.008,6.811C-.15,7.909,1.972,17,1.972,17L2.74,5.754,7,.493,5.44,0S.164,5.711.008,6.811Z" transform="translate(56 67)" fill="#a6d513"/><path d="M.764,5.416,0,17,5,0,.764,5.416Z" transform="translate(57 67)" fill="#a6d513"/><path d="M5.115,0,0,17,3.528,6.132,6.409,2.776,8,.926,5.115,0Z" transform="translate(57 67)" fill="#a6d513"/><path d="M0,1.862.213,2,3,1.824,1.9,0,0,1.862Z" transform="translate(64 67)" fill="#231f20"/><path d="M0,.149,3,2,1.989,0,0,.149Z" transform="translate(64 69)" fill="#8daa13"/><path d="M1.774,17.7C1.7,17.32-.127,8.278.007,7.132S4.691.284,4.885.041L4.917,0,9,1.493,5.007,6.8,1.832,18Z" transform="translate(56 66)" fill="#231f20"/><path d="M0,.149,1.989,0,3,2Z" transform="translate(64 69)" fill="#231f20"/><path d="M.5,0h0l0,2.023h0Z" transform="translate(64.5 67.665) rotate(-25.59)" fill="#231f20"/><path d="M.159,17,0,16.99.742,5.417,4.873,0,5,.094.9,5.476.159,17Z" transform="translate(57 67)" fill="#231f20"/><path d="M2,0V31.613C2,31.822,1.552,32,1,32s-1-.174-1-.387V0C0,.209.448.387,1,.387S2,.214,2,0Z" transform="translate(107 28)" fill="#836a15"/><path d="M1,0A.992.992,0,0,1,2,1,1,1,0,1,1,1,0Z" transform="translate(107 27)" fill="#fff"/><rect width="0.16" height="32" transform="translate(108.92 28)" fill="#231f20"/><rect width="0.16" height="32" transform="translate(106.92 28)" fill="#231f20"/><path d="M1,1A1,1,0,0,1,0,0H.192A.761.761,0,0,0,1,.662.761.761,0,0,0,1.808,0H2A.987.987,0,0,1,1,1Z" transform="translate(107 59)" fill="#231f20"/><path d="M0,1A1,1,0,1,1,1,2,1,1,0,0,1,0,1Z" transform="translate(107 27)" fill="#231f20"/><path d="M0,2,3,0" transform="translate(108 35)" fill="#fff"/><path d="M0,.5,3.152.5h0L0,.5Z" transform="matrix(0.719, -0.695, 0.695, 0.719, 107.356, 36.661)" fill="#231f20"/><path d="M6.992,7.615C7.149,8.843,5.025,19,5.025,19L4.259,6.429,0,.552,1.56,0S6.843,6.387,6.992,7.615Z" transform="translate(113 31)" fill="#a6d513"/><path d="M4.238,5.734,5,18,0,0,4.238,5.734Z" transform="translate(113 32)" fill="#a6d513"/><path d="M2.885,0,8,18,4.473,6.494,1.592,2.941,0,.979,2.885,0Z" transform="translate(109 32)" fill="#a6d513"/><path d="M1.1,0,3,1.865,2.789,2,0,1.824,1.1,0Z" transform="translate(108 33)" fill="#231f20"/><path d="M3,.15,0,2,1.011,0,3,.15Z" transform="translate(109 35)" fill="#8daa13"/><path d="M4.439,7.182,0,1.575,4.535,0l.033.041C4.777.3,9.84,6.322,9.992,7.532S8.114,18.293,8.031,18.7l-.046.3Z" transform="translate(110 31)" fill="#231f20"/><path d="M1.012,0,3,.153,0,2Z" transform="translate(108 35)" fill="#231f20"/><path d="M0,.5,2.113.5h0L0,.5Z" transform="matrix(0.431, -0.902, 0.902, 0.431, 107.942, 34.694)" fill="#231f20"/><path d="M5.818,18,4.93,5.793,0,.1.146,0,5.107,5.736l0,.023L6,17.989,5.818,18Z" transform="translate(112 32)" fill="#231f20"/><path d="M.008,6.811C-.149,7.909,1.98,17,1.98,17L2.746,5.754,7,.493,5.443,0S.164,5.711.008,6.811Z" transform="translate(97 38)" fill="#a6d513"/><path d="M.764,5.416,0,17,5,0,.764,5.416Z" transform="translate(98 38)" fill="#a6d513"/><path d="M5.113,0,0,17,3.527,6.132l2.88-3.355L8,.926,5.113,0Z" transform="translate(97 38)" fill="#a6d513"/><path d="M0,1.862.213,2,3,1.824,1.9,0,0,1.862Z" transform="translate(103 39)" fill="#231f20"/><path d="M0,.149,3,2,1.989,0,0,.149Z" transform="translate(104 41)" fill="#8daa13"/><path d="M1.774,17.7C1.7,17.32-.127,8.278.007,7.132S4.691.284,4.885.041L4.917,0,9,1.493,5.007,6.8,1.832,18Z" transform="translate(96 37)" fill="#231f20"/><path d="M0,.149,1.989,0,3,2Z" transform="translate(105 41)" fill="#231f20"/><path d="M.5,0h0l0,2.023h0Z" transform="translate(104.939 38.675) rotate(-25.59)" fill="#231f20"/><path d="M.159,17,0,16.99.742,5.417,4.875,0,5,.094.9,5.476.159,17Z" transform="translate(98 37)" fill="#231f20"/><path d="M.155.113.057.1.149.111Z" transform="translate(70.894 27.894)" fill="#fff"/><path d="M.051.1A.324.324,0,0,1,.162.112.985.985,0,0,0,.051.1Z" transform="translate(70.894 27.894)" fill="#fff"/><path d="M.107.141V.071C.1.094.107.117.107.141Z" transform="translate(69.894 44.894)" fill="#fff"/><path d="M3,1,0,.22A2.562,2.562,0,0,1,1.622.068a2.054,2.054,0,0,1,.327.113L2,.2a2.458,2.458,0,0,1,.308.172l.055.035A2.761,2.761,0,0,1,2.67.641L2.71.68A3.483,3.483,0,0,1,3,1Z" transform="translate(69 33)" fill="#fff"/><path d="M.081.109H.092L.177.1H.14L.049.113H.036Z" transform="translate(70.894 27.894)" fill="#fff"/><path d="M.106.092v0Z" transform="translate(69.894 43.894)" fill="#fff"/><path d="M.115.139h0A.1.1,0,0,0,.1.073.482.482,0,0,1,.115.139Z" transform="translate(69.894 43.894)" fill="#fff"/><path d="M.106.111v0Z" transform="translate(69.894 43.894)" fill="#fff"/><path d="M.175.084.038.128.113.1Z" transform="translate(69.894 27.894)" fill="#fff"/><path d="M.118.106h0Z" transform="translate(68.894 43.894)" fill="#fff"/><path d="M.148.085.065.127.137.089Z" transform="translate(67.894 28.894)" fill="#fff"/><path d="M.036,4.374,0,3.061V.084A4.048,4.048,0,0,1,1.18.016a1.446,1.446,0,0,1,.178.036h.036l.065.024A.386.386,0,0,1,1.514.1L1.543.11l.023.011a.84.84,0,0,1,.1.058h0l.042.03a.944.944,0,0,1,.1.094V.318h0V.329c.029.039.058.081.087.127h0A.314.314,0,0,0,1.921.5c0,.019.019.041.026.06s.019.045.026.066V.657a.143.143,0,0,0,0,.036V.73c0,.011.019.071.026.109V1.6A.053.053,0,0,1,2,1.62a.239.239,0,0,1-.016.105l-.029.165a.756.756,0,0,1-.029.167.036.036,0,0,0,0,.017.032.032,0,0,0,0,.017.584.584,0,0,1-.045.139c-.013.045-.036.124-.055.187s-.023.086-.039.131a.134.134,0,0,1,0,.034v.043c-.032.081-.071.163-.107.244a.326.326,0,0,1-.052.124c-.019.041-.042.09-.065.133L1.5,3.237c-.058.105-.113.214-.178.317a.042.042,0,0,1-.023.034c-.087.139-.188.277-.291.414a.868.868,0,0,1-.061.079c-.091.118-.194.232-.3.347-.023.024-.042.049-.061.073s-.049.049-.071.073c-.129.131-.262.26-.4.386L.074,5V4.957Z" transform="translate(69 44)" fill="#e2a84d"/><path d="M.111.11l-.1.053L.087.11.2.049Z" transform="translate(67.894 28.894)" fill="#fff"/><path d="M.343,1.774,0,2V0L3,1.037H2.942L2.787,1h-.83l-.118.029-.069.025-.153.049-.075.029-.213.084-.049.025L1.2,1.278,1.153,1.3c-.107.049-.21.1-.317.162L.778,1.5l-.233.138L.438,1.7Z" transform="translate(69 36)" fill="#e2a84d"/><path d="M2.308.8H2.2L2.093.818l-.1.017H1.924L1.806.87,1.658.921,1.6.942,1.519.973,1.445,1l-.09.045-.11.055-.1.051L1.056,1.2l-.133.079-.041.027H.858L.771,1.37l-.151.1L.469,1.61l-.092.072-.095.075C.187,1.836.095,1.914,0,2V0L3,.812,2.89.791A.308.308,0,0,1,2.757.771H2.329Z" transform="translate(68 27)" fill="#e2a84d"/><path d="M.05.12.163.092Z" transform="translate(67.894 38.894)" fill="#fff"/><path d="M.131.1.1.112H.082Z" transform="translate(67.894 50.894)" fill="#fff"/><path d="M.868,4a1.576,1.576,0,0,1-.225-.046,1.01,1.01,0,0,1-.249-.1A.788.788,0,0,1,.25,3.746.9.9,0,0,1,0,3.089,3.77,3.77,0,0,1,1.9,0l.074,2.491h0v.528L2,3.945l-.178.025-.1.011h-.1L1.416,4H1.389c-.072,0-.143,0-.215,0H1.14c-.053,0-.105,0-.158,0H.862Z" transform="translate(66 35)" fill="#e2a84d"/><path d="M.069.11a.8.8,0,0,0,.1,0H.139A.7.7,0,0,1,.044.1Z" transform="translate(66.894 38.894)" fill="#fff"/><path d="M.58.389,1,0C.655.327.328.66,0,1,.227.8.387.586.58.389Z" transform="translate(67 31)" fill="#fff"/><path d="M.107.106h0Z" transform="translate(66.894 50.894)" fill="#fff"/><path d="M.185,0C.132.328.081.664.028,1,.068.742.106.469.149.219.16.141.175.07.185,0Z" transform="translate(65.894 31)" fill="#fff"/><path d="M0,.844A4.3,4.3,0,0,0,2.943,0L3,3,.024,2.471Z" transform="translate(64 55)" fill="#e2a84d"/><path d="M.487.38H.509L.6.405.659.418h0A4.188,4.188,0,0,0,2.911,0l.024,1.381V1.93l.022,1.313.011.607v.041L3,5.712l-.15.073L2.8,5.806l-.028.013-.035.015L2.7,5.849l-.113.045-.05.017h-.07c-.043.013-.085.028-.128.039l-.089.019-.1.019H2.039L1.933,6h-.15a.238.238,0,0,1-.039,0h-.3a2.067,2.067,0,0,1-.457-.133A2.184,2.184,0,0,1,.667,5.7a2.324,2.324,0,0,1-.293-.214A2.89,2.89,0,0,1,.1,5.218L.026,5.137l.048-.026L0,.294.08.182.1.193.154.23h0L.215.264.259.285.315.313.357.33.443.362H.459Z" transform="translate(64 45)" fill="#e2a84d"/><path d="M3.953,29.74a3.283,3.283,0,0,1-2.592.917.421.421,0,0,1-.114-.026l-.074-.019c-.051-.014-.1-.031-.146-.05l-.06-.023a1.834,1.834,0,0,1-.194-.093l-.023-.014c-.057-.031-.111-.066-.166-.1a.663.663,0,0,1-.06-.042L.4,30.191l-.062-.055c-.041-.033-.08-.072-.119-.11l-.055-.052c-.056-.057-.111-.116-.163-.179l1.093-4.737.01-.04.022-.1.034-.145.045-.2.013-.061.067.08a2.709,2.709,0,0,0,.293.223l-.01.006a2.172,2.172,0,0,0,.263.211,1.821,1.821,0,0,0,.287.165,1.743,1.743,0,0,0,.409.13h.436l.1-.011h.1l.093-.019.08-.019a.406.406,0,0,0,.114-.038h.078l.029-.013.1-.044.034-.015.032-.014.025-.013.043-.022.134-.071-.03-1.789v-.041l-.01-.6-.019-1.29V20.8l-.022-1.358a3.452,3.452,0,0,1-2.014.411l-.052-.013-.082-.025H1.634l-.078-.031-.037-.017-.05-.027-.039-.022-.055-.033-.052-.036-.013-.011-.053-.04-.021-.019-.05-.045-.043-.04-.047-.05L1.054,19.4l-.023-.026-.067-.086-.032-.044L.92,19.224c-.023-.033-.045-.069-.067-.105-.009-.014-.019-.028-.027-.042l-.01-.019L.781,18.99c-.017-.03-.032-.058-.049-.09a.4.4,0,0,1-.019-.045C.7,18.828.688,18.8.677,18.771L.65,18.71l-.03-.078v-.019l-.035-.094a.046.046,0,0,0-.01-.028L.546,18.4a.261.261,0,0,0-.02-.066l-.017-.055V18.24c0-.014-.017-.066-.025-.1s-.027-.1-.039-.153l-.012-.053a.08.08,0,0,1,0-.021.088.088,0,0,0-.01-.049C.412,17.812.4,17.755.391,17.7s-.012-.07-.019-.1l-.018-.121a.179.179,0,0,0-.014-.084.937.937,0,0,1-.022-.157.049.049,0,0,0,0-.016A.491.491,0,0,0,.3,17.07v-.025l-.017-.167V16.8c0-.053-.01-.105-.014-.158v-.113a1.2,1.2,0,0,0-.012-.192.7.7,0,0,1,0-.15v-.042q0-.211-.011-.448V15c0-.13.005-.258.017-.386a1.516,1.516,0,0,1,.014-.247c.014-.082,0-.11.014-.164,0-.091.013-.18.022-.27s.017-.182.027-.272a.4.4,0,0,1,.01-.108c.025-.211.052-.421.084-.632a.972.972,0,0,1,.027-.167c.025-.167.052-.331.084-.5.012-.066.023-.13.037-.2l.047-.234c.02-.093.039-.188.06-.281.012-.054.022-.109.035-.166v-.033c.031-.129.062-.255.1-.386s.049-.2.076-.3q.084-.316.181-.632l.049-.152V9.862c.045-.141.09-.275.134-.4s.1-.272.144-.407a.247.247,0,0,0,.013-.036c.035-.095.07-.187.107-.283q.078-.2.161-.4c.054-.131.086-.211.13-.306.058-.132.118-.264.178-.391.047-.1.092-.194.139-.289.066-.133.134-.262.2-.39.049-.091.095-.182.143-.27s.088-.15.132-.226c.068-.116.139-.231.208-.344.049-.077.1-.151.15-.227.076-.116.151-.23.231-.342l.091-.126c.117-.158.236-.317.358-.466L3.624,3.17v-.8l-.058-.85L5.111,0l.035,2.219V3.451c.072-.053.142-.1.214-.15l.072-.046L5.52,3.2,5.6,3.149l.114-.064.076-.041h.018l.031-.017.1-.049.069-.032.075-.031.083-.034L6.3,2.837l.058-.019L6.4,2.805l.113-.031L6.6,2.752h.012L6.7,2.738h.033l.081-.013h.407a.771.771,0,0,1,.1.013l.089.014H7.43A2.17,2.17,0,0,1,8.539,3.4L7.3,8.51a2.036,2.036,0,0,0-.194-.168L7.08,8.321a1.715,1.715,0,0,0-.194-.127l-.035-.019a1.674,1.674,0,0,0-.194-.093l-.031-.011a1.5,1.5,0,0,0-.206-.061A1.87,1.87,0,0,0,5.4,8.094c-.067.023-.132.049-.194.077l.064,4.142v.858l.231-.1.05-.019.072-.028.158-.059.039-.015c.072-.025.142-.049.214-.069l.035-.011.05-.014.033-.011.144-.036.05-.013.1-.021.047-.011.08-.013h.56l.1.014.062.013C8.238,12.977,8.951,14.014,9,17A17.627,17.627,0,0,1,5.5,28.224l.05,3.259L4,33Z" transform="translate(63 26)" fill="#ffc65a"/><path d="M.105.1h0v0l0,0Z" transform="translate(62.894 43.894)" fill="#fff"/><path d="M3.389,19.052a.077.077,0,0,0,.012.05.073.073,0,0,0,0,.022l.014.055c.014.055.03.107.047.159s.019.07.03.1,0,.026,0,.037a1.09,1.09,0,0,0,.044.124l.035.1a.029.029,0,0,0,.012.028l.042.1v.02l.035.081c.014.026.026.05.037.076a.764.764,0,0,0,.04.074h0a.424.424,0,0,0,.023.046c.019.033.037.063.058.094l.042.07.012.02a.531.531,0,0,0,.033.044c.026.037.051.074.079.109l.014.02.04.046.079.089.028.026.049.046.056.052.051.041.061.046h0l.026.02.063.041L4.366,21,1.94,20.54a1.655,1.655,0,0,1-.18-.044l-.054-.017c-.044-.013-.086-.031-.129-.046l-.054-.024c-.049-.022-.1-.048-.147-.074l-.023-.013a1.816,1.816,0,0,1-.159-.107.353.353,0,0,1-.044-.037c-.037-.031-.077-.061-.112-.1l-.049-.048c-.037-.039-.077-.081-.115-.127l-.03-.035q-.068-.085-.133-.183l-.03-.052c-.033-.052-.065-.107-.1-.164-.012-.024-.026-.048-.037-.074s-.058-.12-.086-.185l-.028-.065c-.035-.085-.068-.177-.1-.275a.238.238,0,0,0-.019-.063c-.023-.079-.049-.161-.07-.246a.617.617,0,0,0-.026-.1c-.021-.081-.04-.166-.056-.253l-.021-.1v-.044c-.021-.111-.04-.218-.056-.342a.075.075,0,0,1,0-.024c-.016-.107-.028-.218-.04-.334v-.175c-.012-.118-.019-.242-.028-.369V16.67c0-.153-.014-.305-.016-.469v-.678a.3.3,0,0,0,0-.046v-.011c0-.17.019-.345.03-.517v-.127l.014-.17c0-.07.016-.142.023-.218A2.979,2.979,0,0,1,.1,14.083l.014-.111v-.046c.023-.17.049-.345.077-.517a.2.2,0,0,1,.016-.1.942.942,0,0,0,.03-.175c.009-.057.035-.177.051-.266l.049-.246c.016-.07.03-.137.044-.218l.028-.113c.033-.14.065-.279.1-.419.016-.057.028-.113.044-.17v-.037c.035-.133.075-.266.115-.4s.058-.205.089-.305V10.94c.065-.218.136-.421.21-.63l.063-.172c.03-.083.063-.166.1-.249s.042-.113.065-.17c.056-.142.115-.281.173-.421s.093-.218.143-.329.129-.275.2-.412.1-.218.154-.316.143-.27.217-.406c.054-.1.11-.2.166-.3.079-.137.161-.27.234-.4l.138-.218c0-.02.023-.041.037-.061.051-.079.105-.155.159-.231.082-.122.164-.242.25-.358.058-.081.119-.157.178-.236l.168-.218c.037-.046.072-.094.11-.137l.11-.131c.14-.166.285-.327.432-.482L4,1.568,5.857,0,9,.6,7.2,2.19l.016.8v.833l.033,1.85c-.147.155-.29.318-.43.482l-.11.131-.117.137c-.054.07-.108.144-.161.218s-.122.155-.18.236c-.084.116-.168.236-.25.356-.054.079-.108.155-.159.233,0,.02-.028.039-.04.061-.047.07-.089.146-.133.218-.084.133-.166.266-.245.4-.056.1-.11.2-.166.3-.072.133-.145.268-.215.406-.054.1-.105.218-.157.316s-.131.273-.194.412c-.044.1-.086.194-.129.292a.256.256,0,0,1-.016.037c-.058.14-.117.279-.173.421s-.108.277-.161.419a.051.051,0,0,1,0,.015l-.058.157q-.116.327-.217.654c-.033.1-.061.205-.091.308s-.079.266-.115.4v.035c-.016.059-.028.116-.042.172-.026.1-.049.194-.072.29-.012.041-.023.085-.033.127s-.016.079-.023.116-.03.137-.044.205-.037.166-.054.249-.033.177-.047.266a1.118,1.118,0,0,1-.033.172c-.037.218-.07.436-.1.654a.361.361,0,0,1-.012.111,2.307,2.307,0,0,1-.033.281v.068c0,.072-.012.142-.016.218a.719.719,0,0,1-.016.17.327.327,0,0,0,0,.127v.129q-.014.2-.021.4V16.8q0,.24.014.465v.2a1.01,1.01,0,0,0,.014.2.323.323,0,0,1,0,.118h0v.24l.021.172a.265.265,0,0,0,.012.1c.012.031,0,.015,0,.024a.511.511,0,0,1,0,.059.051.051,0,0,1,0,.017,1.288,1.288,0,0,0,.026.161c.007.055.012.057.016.087l.021.124a.584.584,0,0,0,.023.107C3.337,18.9,3.375,19,3.389,19.052Z" transform="translate(60 24)" fill="#e2a84d"/><path d="M.159,0C.122.339.088.667.054,1,.086.667.125.333.159,0Z" transform="translate(62.894 36)" fill="#fff"/><path d="M.071.033.1.094c.013.028.026.057.04.085C.129.156.118.13.105.107A.18.18,0,0,1,.071.033Z" transform="translate(62.894 43.894)" fill="#fff"/><path d="M.1.123A.516.516,0,0,1,.132,0L.081.235C.087.2.094.161.1.123Z" transform="translate(62.894 36.883)" fill="#fff"/><path d="M.105.1A.2.2,0,0,0,.127.166C.112.126.1.088.086.045Z" transform="translate(62.894 43.894)" fill="#fff"/><path d="M.1.483C.118.322.135.161.152,0,.118.335.088.665.061,1,.067.826.082.653.1.483Z" transform="translate(62.894 36)" fill="#fff"/><path d="M.1.044A1.127,1.127,0,0,0,.115.193a.528.528,0,0,0,0-.057V.112A.365.365,0,0,0,.1.019.024.024,0,0,0,.1.044Z" transform="translate(62.894 41.894)" fill="#fff"/><path d="M.118,0C.118.336.1.664.095,1c0-.25,0-.5.015-.781A1.687,1.687,0,0,0,.118,0Z" transform="translate(62.894 39)" fill="#fff"/><path d="M3.78,1.166,2.667,6.109c.053.066.109.128.166.187l.055.055c.04.04.079.079.121.114l.063.057.127.1a.646.646,0,0,0,.061.044c.055.04.111.075.168.108l.024.015a2.115,2.115,0,0,0,.2.1l.061.024c.05.02.1.037.149.053l.075.02L4,7,1.333,6.4A2.452,2.452,0,0,1,0,5.509L1.242,0,3.909.6h0L3.895.664,3.849.871l-.036.152-.022.1Z" transform="translate(60 49)" fill="#e2a84d"/><path d="M.1.026C.1.079.11.132.114.185V.13A.869.869,0,0,1,.1.026Z" transform="translate(62.894 41.894)" fill="#fff"/><path d="M.114,0C.114.333.1.667.1,1V.5C.107.333.112.171.114,0Z" transform="translate(62.894 39)" fill="#fff"/><path d="M.071.184h0L.112.028l.03.015Z" transform="translate(69.894 43.894)" fill="#231f20"/><path d="M.027.144V.068h.16a.57.57,0,0,0,0,.061Z" transform="translate(69.894 44.894)" fill="#231f20"/><path d="M2.968,2,.032,1.515,0,0,.16,0,.19,1.407,3,1.871,2.968,2Z" transform="translate(64 57)" fill="#231f20"/><path d="M.5,0h0l0,2.113h0Z" transform="translate(68.704 33.76) rotate(-78.5)" fill="#231f20"/><path d="M2.944,1H2.9L0,.26.039,0,2.933.74,3,.758Z" transform="translate(68 37)" fill="#231f20"/><path d="M.113.187.074.181.094.024.083.1.1.024.138.031.113.187Z" transform="translate(70.894 36.894)" fill="#231f20"/><path d="M4.473,25l-.06-.094H4.391V24.86h0l-.085-4.6-2.323-.429a1.713,1.713,0,0,1-.187-.044H1.77a.245.245,0,0,1-.037-.013l-.09-.029-.094-.04c-.048-.021-.1-.046-.15-.073l-.025-.015a1.363,1.363,0,0,1-.166-.107.366.366,0,0,1-.048-.04l-.016-.013a1.142,1.142,0,0,1-.1-.082L1,19.327.878,19.2.85,19.17C.8,19.11.758,19.051.712,18.986L.678,18.93c-.03-.048-.062-.1-.094-.157l-.014-.027c0-.017-.016-.031-.025-.05-.028-.052-.055-.113-.085-.178l-.028-.065c-.035-.082-.069-.172-.1-.268a.3.3,0,0,0-.012-.036L.3,18.087c-.021-.065-.041-.134-.06-.209a.713.713,0,0,0-.025-.1c-.021-.075-.039-.159-.055-.245L.131,17.4c-.021-.113-.039-.222-.055-.337a.065.065,0,0,1,0-.033c-.014-.092-.025-.209-.037-.312v-.172c0-.077-.014-.159-.021-.245v-.192l.085-.04H.016v-.029c0-.144-.012-.291-.016-.45v-.653a.165.165,0,0,0,0-.042,2.472,2.472,0,0,1,.023-.418v-.215l.046-.471a1.986,1.986,0,0,1,.025-.232l.021-.153c.023-.163.048-.33.076-.5a.4.4,0,0,0,0-.044v-.05l.129-.659c.016-.069.03-.132.044-.2l.028-.113c.032-.132.065-.266.1-.4a.361.361,0,0,1,.023-.082c.007-.027.014-.054.023-.084l.092-.015-.083-.019c.035-.128.074-.257.113-.385.014-.048.03-.1.044-.146s.028-.1.044-.146v-.023c.065-.209.134-.406.207-.609l.062-.165.1-.241c.021-.056.041-.111.065-.163.055-.136.113-.27.171-.406s.092-.209.141-.318l.2-.4c.048-.1.1-.209.152-.3.069-.134.141-.261.217-.391.053-.1.108-.192.164-.289.076-.13.157-.255.23-.381l.076-.115.067-.1A.656.656,0,0,1,2.63,6.6c.046-.071.1-.142.15-.209.088-.123.168-.241.254-.351l.1-.134.071-.092L3.376,5.6l.041-.05q.035-.044.069-.082L3.6,5.346c.129-.151.267-.3.406-.443L3.939,1.556,5.833,0,9,.569,8.968.724,5.909.161,4.139,1.613,4.2,4.959l-.023.023c-.145.149-.288.3-.424.458l-.108.126-.062.077L3.54,5.7c-.055.065-.111.134-.166.209L3.3,6c-.035.042-.069.086-.1.13-.085.111-.166.224-.244.341-.058.079-.108.149-.157.222a.267.267,0,0,0-.025.04l-.012.017-.067.1-.069.107c-.083.132-.161.257-.23.385-.055.092-.111.188-.161.284-.076.13-.145.255-.214.387s-.1.209-.152.3-.131.264-.194.4-.092.209-.138.314-.115.266-.171.4c-.023.052-.041.1-.062.157-.035.086-.067.163-.094.243s-.039.1-.058.149c-.078.209-.148.418-.212.628v.021c-.016.05-.032.1-.046.149s-.028.1-.044.146c-.039.128-.078.253-.113.381v.019l-.025.1a.3.3,0,0,1-.023.086c-.032.13-.065.264-.1.4l-.028.111c-.014.063-.028.13-.044.2l-.129.653v.1c-.028.161-.053.328-.076.492L.3,13.594c0,.077-.016.153-.023.228l-.048.473v.211c-.012.134-.021.27-.023.4a.423.423,0,0,1,0,.063v.64a4.017,4.017,0,0,0,.016.446V16.3c0,.084.012.165.018.243v.169a2.112,2.112,0,0,0,.039.316v.023c.016.115.035.22.055.324l.028.138c.016.084.035.163.053.238a.329.329,0,0,0,.025.1c.018.071.039.136.058.209l.03.092c.032.094.062.18.1.261l.028.061c.025.061.053.117.083.174a.421.421,0,0,0,.023.044l.014.027c.028.052.06.1.09.151l.035.054c.037.054.081.111.122.165l.023.025c.041.048.078.088.115.123l.044.042c.03.029.06.052.088.075l.021.015a.2.2,0,0,0,.037.029c.053.04.1.071.154.1h.018l.138.067.083.033.085.029.03.01h.028a1.317,1.317,0,0,0,.164.038l2.436.448.09,4.83Z" transform="translate(60 25)" fill="#231f20"/><path d="M.344,1,0,.792.128.633.389.309.539.145.667,0,1,.222.861.372.722.527c-.083.1-.167.2-.25.309Z" transform="translate(67 31)" fill="#231f20"/><path d="M.468,1,0,.77.144.552C.23.418.317.285.41.158l.072-.1L.525,0,1,.218.935.3a.646.646,0,0,0-.05.079C.777.521.7.648.612.776Z" transform="translate(65 31)" fill="#231f20"/><path d="M.6,1,0,.91C.074.726.157.547.24.363S.347.119.4,0L1,.09C.95.214.893.338.835.463S.669.806.6,1Z" transform="translate(62 36)" fill="#231f20"/><path d="M.162,1H.081L0,.909.023.5C.023.339.045.165.055,0L.209.165C.2.314.189.471.181.628Q.169.812.162,1Z" transform="translate(62.894 36)" fill="#231f20"/><path d="M.632,1,0,.96C.051.791.111.627.171.466S.3.157.368,0L1,.064C.932.213.863.365.8.518S.684.855.632,1Z" transform="translate(62 36)" fill="#231f20"/><path d="M.178,1,.02.964C.02.736.02.507.035.25q0-.125,0-.25L.193.1V.286C.186.55.182.771.178,1Z" transform="translate(62.894 39)" fill="#231f20"/><path d="M.179,1,.019.967.036,0,.194.033.179,1Z" transform="translate(62.894 39)" fill="#231f20"/><path d="M.028.195V.038L.185.017V.178Z" transform="translate(62.894 41.894)" fill="#231f20"/><path d="M.024.2a.389.389,0,0,0,0-.049L.1.133H.022V.112a.263.263,0,0,1,0-.04V.03L.179.008.19.1a.231.231,0,0,1,0,.034.154.154,0,0,1,0,.049Z" transform="translate(62.894 41.894)" fill="#231f20"/><path d="M.053.192C.038.149.023.111.011.067L.164.02C.177.06.187.1.2.136Z" transform="translate(62.894 43.894)" fill="#231f20"/><path d="M.072.22.053.18.036.148A.65.65,0,0,0,0,.072L.145,0,.181.08.2.112.213.144Z" transform="translate(62.894 43.89)" fill="#231f20"/><path d="M.186,1,.046.415.1.211h0L.163,0,.105.211.186.2V1Z" transform="translate(62.894 44)" fill="#231f20"/><path d="M.11.188.054.04.1.023.159.171.11.188Z" transform="translate(67.894 50.894)" fill="#231f20"/><path d="M.083.185V.026H.1L.13.183Z" transform="translate(66.894 50.894)" fill="#231f20"/><path d="M.164.183H.1a.2.2,0,0,1-.049,0L.07.027H.106a.514.514,0,0,0,.057,0Z" transform="translate(66.894 50.894)" fill="#231f20"/><path d="M.5,0h0l0,2.543h0Z" transform="matrix(0.198, -0.98, 0.98, 0.198, 68.387, 27.89)" fill="#231f20"/><path d="M.5.5h0Z" transform="translate(70.427 28.292) rotate(-77.29)" fill="#231f20"/><path d="M.09.183l-.009,0L.131.029.09.183Z" transform="translate(70.894 27.894)" fill="#231f20"/><path d="M.2.19.109.178H0L.017.021H.134L.221.034Z" transform="translate(70.889 27.894)" fill="#231f20"/><path d="M.113.182.062.032a.143.143,0,0,1,.047,0,.113.113,0,0,1,.043,0Z" transform="translate(70.894 27.894)" fill="#231f20"/><path d="M.055.192.03.035H.047L.162.02.183.177Z" transform="translate(70.894 27.894)" fill="#231f20"/><path d="M.064.2.013.048.057.033.121.012H.149L.2.164H.162L.115.179Z" transform="translate(69.894 27.894)" fill="#231f20"/><path d="M.106.2.03.061.121.013l.03,0V.089L.183.161h0v0L.106.2Z" transform="translate(67.894 28.894)" fill="#231f20"/><path d="M.3.243,0,.108.432.04.712,0,1,.14.728.18Z" transform="translate(68 28.878)" fill="#231f20"/><path d="M.067.2.033.041.146.014.18.17.067.2Z" transform="translate(67.894 38.894)" fill="#231f20"/><path d="M.169.186a.8.8,0,0,1-.1,0L.044.025a.184.184,0,0,1,.045,0H.169Z" transform="translate(66.894 38.894)" fill="#231f20"/><path d="M7.269,29.744a3.885,3.885,0,0,1-2.8.836H4.4l-2.877-.566a2.814,2.814,0,0,1-1.493-.871L0,29.113l1.376-5.349,3.037.6V24.4l.054.058a2.693,2.693,0,0,0,.264.253,2.038,2.038,0,0,0,.28.209,1.952,1.952,0,0,0,.305.157,1.888,1.888,0,0,0,.43.126l.114.016.155.013h.192l.093-.01.095-.013.073-.013.125-.027a.544.544,0,0,0,.075-.022l.045-.014h.029l.03-.01.054-.017L7.085,25l.1-.047-.1-5.432a4.123,4.123,0,0,1-2.166.37l-.095-.025-.067-.019H4.739L4.612,19.8v-.082l-.031.074-.028-.013-.03-.013L4.5,19.75l-.043-.021-.032-.017a.139.139,0,0,0-.032-.017L4.3,19.634,4.248,19.6l-.131-.1-.2-.209-.034-.042-.013-.019c-.03-.04-.053-.075-.079-.111l-.034-.048L3.7,18.986c-.019-.031-.039-.06-.056-.094a.264.264,0,0,1-.017-.036v-.019c-.013-.022-.023-.046-.034-.068l-.164-.4-.017-.056-.02-.057a.186.186,0,0,1-.011-.031c-.014-.044-.023-.077-.032-.113s-.031-.1-.043-.155l-.015-.054a.118.118,0,0,1,0-.025v-.042c-.014-.054-.027-.111-.039-.169a.372.372,0,0,0-.019-.1l-.022-.125a.769.769,0,0,0-.015-.079.665.665,0,0,0-.022-.14L3.1,16.5a.5.5,0,0,0-.011-.125v-.259c0-.139,0-.288-.013-.445v-.7c0-.131.013-.259.022-.387a1.316,1.316,0,0,1,.015-.246c.014-.082,0-.112.014-.166L3.2,13.53q.042-.313.093-.626a.9.9,0,0,1,.03-.167c.028-.166.059-.328.093-.493.013-.065.026-.131.041-.2l.062-.272c.017-.081.036-.16.058-.24l.013-.056c.006-.037.015-.073.025-.109v-.033c.035-.13.069-.255.106-.384l.025-.1.059-.209c.064-.209.13-.418.2-.627l.054-.15.155-.418c.049-.134.1-.264.155-.4a.183.183,0,0,0,.017-.041L4.5,8.726l.181-.394c.047-.1.095-.21.144-.305s.13-.264.2-.391l.062-.12.091-.169c.073-.131.148-.261.228-.389l.062-.106.1-.161c.034-.057.071-.111.107-.165l.039-.061c.077-.114.155-.231.232-.342l.13-.178.039-.049c.084-.115.167-.23.256-.341.031-.041.066-.084.1-.125.118-.144.245-.3.376-.443L6.79,1.643,8.659,0l.06,3.442.116-.073.082-.046.1-.055.067-.038.155-.079a.411.411,0,0,0,.077-.038l.048-.021.073-.033.054-.023L9.571,3l.085-.032.095-.035.161-.05.05-.014H10l.095-.023.174-.033a.451.451,0,0,1,.077-.014l.257-.027h.045a1.226,1.226,0,0,1,.215,0h.073a1.138,1.138,0,0,1,.136.013l.1.014.042.011a2.552,2.552,0,0,1,1.258.658L12.5,3.5,11.085,8.741l-.1-.09a2.065,2.065,0,0,0-.2-.161l-.019-.014a1.909,1.909,0,0,0-.215-.125l-.034-.017a2.13,2.13,0,0,0-.215-.09l-.037-.01a1.484,1.484,0,0,0-.215-.057,2.207,2.207,0,0,0-1.093.079l-.164.054.085,4.79.148-.055.058-.021L9.165,13l.157-.052.052-.019.247-.071a.286.286,0,0,1,.048-.013.256.256,0,0,1,.051-.014h.035l.163-.038h.039l.125-.023h.034l.144-.019a.53.53,0,0,1,.076,0l.157-.013h.179a.833.833,0,0,1,.116,0h.075l.131.016.069.013c1.262.234,1.9,1.626,1.935,4.251a16.336,16.336,0,0,1-3.871,11.16l.056,3.235L7.326,33Z" transform="translate(60 26)" fill="#231f20"/><path d="M1.156,5H1.085a.588.588,0,0,1-.157-.013H.893a.093.093,0,0,1-.039,0,1.086,1.086,0,0,1-.225-.058A.888.888,0,0,1,.378,4.79a.9.9,0,0,1-.142-.138A1.326,1.326,0,0,1,0,3.841,4.827,4.827,0,0,1,1.7.171L1.891,0,2,4.905l-.083.018-.13.024L1.6,4.976H1.58L1.4,5H1.349c-.04,0-.081,0-.121,0Z" transform="translate(66 34)" fill="#231f20"/><path d="M.122,5.68,0,.116.085.1A2.984,2.984,0,0,1,1.2.021a1,1,0,0,1,.163.041A.176.176,0,0,1,1.408.08l.029.014.058.027L1.53.14l.038.024L1.63.205l.052.053L1.7.273a1.107,1.107,0,0,1,.1.115l.032.027V.434l.073.13V.592c0,.02,0,.029.017.039l.03.085a.542.542,0,0,0,.023.076V.824a.077.077,0,0,0,0,.029V.924A.681.681,0,0,1,2,1.035V1.1a.472.472,0,0,1,0,.1A.581.581,0,0,1,2,1.28v.58a.147.147,0,0,1,0,.049.126.126,0,0,1,0,.026A.289.289,0,0,1,2,1.99v.052l-.035.24a.909.909,0,0,1-.017.13v.033a.329.329,0,0,1-.021.086c-.005.027,0,.053-.02.077-.015.069-.032.139-.05.211V2.86a.4.4,0,0,1-.029.111.236.236,0,0,1,0,.05V3.04c-.026.082-.047.144-.07.207l-.032.086a.426.426,0,0,1-.047.142l-.026.067-.035.085-.1.229c-.038.084-.076.17-.117.255l-.02.039c-.086.163-.178.322-.266.481a.878.878,0,0,1-.061.094c-.07.113-.152.229-.237.344l-.032.046c0,.019-.027.039-.039.058v.022a.651.651,0,0,0-.049.062l-.017.024c-.138.174-.255.311-.371.437L.14,6Z" transform="translate(68 43)" fill="#231f20"/><path d="M3,.81c-.038.063-.079.123-.117.19L0,.19.117,0Z" transform="translate(106 5)" fill="#e2a84d"/><path d="M0,.848,1,0V1Z" transform="translate(102 21)" fill="#e2a84d"/><path d="M1.992.781c-.04.4-.08.807-.125,1.219L.037,1.391,0,0,2,.667C2,.7,1.993.743,1.992.781Z" transform="translate(110 19)" fill="#e2a84d"/><path d="M2.967.61l-.085.409-.074.372-.09.405L2.669,2,0,1.387,1.057,0,3,.446A1.457,1.457,0,0,0,2.967.61Z" transform="translate(108 20)" fill="#e2a84d"/><path d="M7.933,0h.3c.974.132,1.693,1.108,2.209,2.353L8.618,6.3l-.055-.138a.424.424,0,0,0-.02-.044A.825.825,0,0,0,8.5,6.027c0-.017-.016-.031-.022-.048s-.026-.052-.039-.077l-.026-.048c-.012-.023-.024-.048-.039-.071l-.026-.046-.043-.069-.026-.042-.047-.069a.349.349,0,0,1-.024-.033c-.022-.031-.047-.061-.071-.09s-.051-.061-.077-.088l-.024-.027-.055-.054-.03-.029L7.9,5.191l-.035-.027-.051-.04L7.785,5.1,7.73,5.065,7.7,5.042l-.057-.029L7.608,5l-.081-.036h-.01l-.091-.029h-.03l-.063-.017A1.517,1.517,0,0,0,6,5.465L5.9,5.578A8.035,8.035,0,0,0,4.51,7.753,16.776,16.776,0,0,0,3.291,12L7.134,8.186l.128,2.681L5.5,12.613,3.028,15.058c-.014.4,0,.745.02,1.117.016.341.033.68.063.968l4.244-4.206.059,1.244v.13l.016.333.028.558.018.418-.213.209-.787.78-1.016,1L3.616,19.45a4.508,4.508,0,0,0,.276.627L3.9,20.1c.055.1.114.194.173.282a2.13,2.13,0,0,0,.177.222,1.572,1.572,0,0,0,.177.176,1.944,1.944,0,0,0,.185.138,1.222,1.222,0,0,0,.2.1,1.033,1.033,0,0,0,.25.069.68.68,0,0,0,.091.01h0a.363.363,0,0,0,.067,0H5.26a.585.585,0,0,0,.146-.013h.047a1.19,1.19,0,0,0,.167-.038h.018a1.6,1.6,0,0,0,.181-.069l.028-.01.055-.027.126-.067h.014l.02-.013.077-.048.063-.044.043-.027.039-.029a1.935,1.935,0,0,0,.187-.148h0l.022-.019a2.573,2.573,0,0,0,.2-.194.336.336,0,0,0,.037-.042c.051-.05.1-.1.148-.159l.03-.036.041-.052c.045-.054.089-.109.134-.167v-.013c.039-.052.075-.109.112-.165l.037-.05.089-.14.093-.148.085-.153.055-.1.043-.077c.014-.029.028-.059.045-.088q.065-.125.128-.257l.024-.048c.049-.1.1-.209.142-.318l.037-.086c.037-.086.073-.171.106-.261.012-.031.024-.061.039-.092q.065-.169.128-.345l.012-.036c.037-.1.073-.209.11-.324.012-.033.022-.069.035-.1s.02-.073.033-.109l.037-.115.067-.228.055-.209.063-.23a.469.469,0,0,1,.024-.1l.018-.069c.045-.186.089-.374.128-.563h0c.035-.165.065-.328.1-.489a.314.314,0,0,1,0-.046c.018-.109.039-.209.055-.322L11,14.7c-.61,3.555-1.817,7.631-4.118,9.915-1.1,1.092-2.136,1.529-3.037,1.347a.613.613,0,0,1-.136-.031L3.626,25.9l-.132-.048-.079-.031-.138-.071-.063-.033c-.067-.04-.132-.079-.2-.125A.027.027,0,0,0,3,25.584c-.061-.046-.12-.092-.177-.142a.551.551,0,0,1-.061-.059,1.628,1.628,0,0,1-.124-.117l-.069-.075q-.055-.059-.11-.125l-.067-.084c-.037-.046-.073-.094-.106-.142s-.043-.059-.063-.09-.075-.113-.11-.171c-.018-.027-.035-.054-.051-.084-.053-.086-.1-.178-.154-.274v-.013c-.049-.092-.093-.188-.14-.289-.014-.033-.03-.069-.045-.1-.033-.071-.063-.142-.093-.209l-.049-.132c-.028-.069-.053-.144-.079-.209a1.223,1.223,0,0,1-.049-.142c-.014-.048-.051-.155-.075-.234-.014-.048-.028-.1-.045-.144q-.037-.132-.073-.27a.551.551,0,0,0-.035-.132c-.035-.136-.067-.276-.1-.418l-.813.8L.185,20.041l.583-.579c0-.077-.016-.159-.022-.245a.024.024,0,0,0,0-.013v-.052c0-.086-.012-.171-.016-.259V18.8a2.194,2.194,0,0,0-.014-.307c-.014-.1,0-.188-.014-.282v-.818l-.437.433-.144.146L0,15.267l.813-.811a.614.614,0,0,1,.016-.171c.022-.249.047-.5.075-.745a.282.282,0,0,0,0-.056.112.112,0,0,0,0-.023c.03-.264.065-.525.1-.784a.176.176,0,0,1,.012-.079l.01-.061q.057-.4.128-.8v-.061a.131.131,0,0,1,0-.027.228.228,0,0,1,0-.04c.049-.289.106-.575.165-.86.014-.061.024-.121.039-.182l.069-.318.051-.209c.024-.107.051-.209.075-.318.014-.063.033-.123.047-.186.057-.224.116-.448.177-.667q.018-.065.037-.125c.059-.209.12-.418.185-.627a.062.062,0,0,1,.014-.046V8.056c.055-.169.108-.337.165-.5l.043-.125c.043-.125.083-.247.128-.368l.063-.171c.039-.107.077-.209.118-.316.022-.061.045-.119.069-.178.041-.1.081-.209.124-.312.022-.052.045-.107.065-.161.051-.121.1-.241.154-.358l.043-.1c.067-.151.134-.3.2-.443l.055-.115L3.4,4.591c.024-.05.051-.1.075-.151l.144-.27a.184.184,0,0,1,.02-.04c.024-.044.047-.088.071-.13s.059-.109.091-.163.071-.123.108-.186L4,3.495l.11-.182c.033-.048.063-.1.1-.151l.112-.174.1-.144.037-.054c.014-.023.03-.042.045-.065.073-.1.146-.209.22-.305l.069-.1c.093-.123.189-.245.285-.362.022-.027.045-.052.067-.082l.189-.224.1-.1.173-.188.055-.056c.035-.038.071-.071.106-.107s.126-.123.187-.18L5.957,1,6.016.952l.11-.1h.01l.02-.017L6.222.782,6.321.7,6.362.671l.053-.04.1-.069L6.559.529,6.6.5,6.746.418l.065-.04L6.837.362,6.927.314A.345.345,0,0,1,6.974.287H6.99L7.016.272,7.051.255,7.1.234,7.157.2,7.187.19,7.246.167A.1.1,0,0,1,7.278.155h0L7.356.125,7.419.1,7.474.086h.039L7.575.069l.1-.021h.01L7.734.036h.2Z" transform="translate(102 4)" fill="#ffc65a"/><path d="M.243,0,2,.558H2c-.049.43-.1.859-.161,1.284L1.816,2,0,1.427.268.95Z" transform="translate(109 20)" fill="#e2a84d"/><path d="M0,0,2,.463C1.98.641,1.954.812,1.931,1L.02.547Z" transform="translate(110 19)" fill="#e2a84d"/><path d="M1.329.813.005.258,0,0,.848.1,3,1,1.329.813Z" transform="translate(110 19)" fill="#e2a84d"/><path d="M4,.282.082,4C.054,3.745.039,3.446.024,3.145.007,2.817-.008,2.516.005,2.16L2.281,0Z" transform="translate(105 17)" fill="#e2a84d"/><path d="M3,2,.134,1.36C.092,1.221.049,1.085,0,.961L.117.8C.63.15,1.129-.083,1.58.026l.069.024h.034l.1.041h.011l.09.05.034.024.063.041.038.032.06.047.036.035.056.056.038.038.056.062L2.3.519,2.359.6l.027.038c.029.038.056.08.085.124s.054.083.078.127a.506.506,0,0,0,.027.047l.052.1.029.059.047.1.029.065c.016.032.029.068.043.1l.029.068c.013.035.029.071.043.109s.018.044.025.068q.024.06.043.124.013.03.022.062Z" transform="translate(109 9)" fill="#e2a84d"/><path d="M3,.425,0,4A18.124,18.124,0,0,1,.954.02L.97,0Z" transform="translate(106 13)" fill="#e2a84d"/><path d="M.328,0,3,.973H2.785L2.73,1H2.674L0,.076H.042L.144.04a.271.271,0,0,0,.063,0H.3Z" transform="translate(108 4)" fill="#4599dd"/><path d="M2.236,2,0,1.636l.035-.064L.073,1.5q.056-.1.11-.207c0-.012.014-.025.019-.039C.247,1.174.287,1.09.327,1,.338.981.346.957.359.934L.416.8,1.291,0,3,.277c-.01.029-.019.059-.028.087s-.019.057-.03.084c-.031.087-.063.168-.094.26l-.01.029-.11.277c-.012.025-.023.049-.033.074-.028.072-.059.141-.091.21l-.031.069c-.04.086-.08.168-.122.255l-.021.039q-.054.106-.11.207c-.014.024-.026.047-.038.071Z" transform="translate(109 22)" fill="#e2a84d"/><path d="M.326,0,3,.868H2.956L2.891.9h-.04L2.795.936,2.73.976,2.69,1h0L0,.184C.054.148.109.112.161.084H.2L.322.028Z" transform="translate(108 4)" fill="#4599dd"/><path d="M.582,0,3,.7A.191.191,0,0,0,3,.721c-.089.18-.178.367-.265.557L2.67,1.43c-.068.151-.136.322-.2.47-.013.035-.028.064-.042.1L0,1.3c.015-.032.028-.068.042-.1C.108,1.04.176.879.244.728L.311.583C.4.39.485.2.574.023Z" transform="translate(105 6)" fill="#e2a84d"/><path d="M2.635,2,0,1.135a.3.3,0,0,1,.033-.1L.124.769C.155.672.186.579.217.479S.276.29.305.189L.363,0,3,.873l-.056.189-.087.294-.095.286-.091.27Z" transform="translate(108 23)" fill="#e2a84d"/><path d="M.285.482A5.152,5.152,0,0,1,0,0L2,.788c-.047.036-.088.088-.135.117H1.837L1.658,1Z" transform="translate(107 25)" fill="#e2a84d"/><path d="M2.925.785l-.06.038L2.84.865,2.778.913,2.732.948,2.7.976,2.67,1H2.653L0,.247H.015L.12.16.183.111.307.028.347,0h0L3,.753,2.965.781h0a.066.066,0,0,0-.039,0Z" transform="translate(107 4)" fill="#e2a84d"/><path d="M.262,0,3,1.136c-.039.141-.077.283-.118.414v.031c-.047.147-.094.283-.142.419L0,.869C.047.733.094.586.139.445c0-.01,0-.021,0-.031C.18.272.221.131.262,0Z" transform="translate(107 24)" fill="#e2a84d"/><path d="M.311.438A3.582,3.582,0,0,1,0,0L3,.74,2.9.818l-.1.068-.05.026A1.271,1.271,0,0,1,2.592,1Z" transform="translate(106 25)" fill="#e2a84d"/><path d="M.232,0,3,.647,2.957.722,2.924.772c-.052.081-.1.156-.158.228L0,.35C.05.281.1.2.154.123L.184.075Z" transform="translate(107 25)" fill="#e2a84d"/><path d="M2.784.943c-.029.06-.056.117-.085.172l-.1.208c-.027.06-.056.119-.081.179s-.065.141-.1.212-.054.122-.081.186L2.3,2,0,1.484l.043-.1C.068,1.32.1,1.258.122,1.2s.065-.141.1-.212S.272.864.3.8.365.666.4.6L.481.425c.034-.067.067-.134.1-.2S.637.115.666.062L.7,0,3,.518,2.968.58,2.883.745Z" transform="translate(104 7)" fill="#e2a84d"/><path d="M2.8.907,2.774.931h-.02L2.653,1,.249.427A4.162,4.162,0,0,1,0,0L3,.714,2.911.8Z" transform="translate(106 25)" fill="#e2a84d"/><path d="M2.626,1,0,.333.035.3C.07.262.107.228.142.2A.852.852,0,0,1,.214.133,1.13,1.13,0,0,1,.323.04L.374,0,3,.67a.348.348,0,0,0-.047.04l-.09.071L2.836.806,2.78.861,2.692.948,2.653.985Z" transform="translate(106 4)" fill="#e2a84d"/><path d="M.2.433C.133.3.064.154,0,0L3,.686a2.491,2.491,0,0,1-.218.228L2.737.958,2.687,1Z" transform="translate(106 25)" fill="#e2a84d"/><path d="M.266,0,3,.642A.458.458,0,0,1,2.961.7c-.073.1-.148.188-.214.273L2.724,1h0L0,.372V.349H0A3.2,3.2,0,0,0,.229.056Z" transform="translate(106 25)" fill="#e2a84d"/><path d="M.408,0,3,1.177l-.03.065-.1.18-.053.1-.041.082-.1.207-.065.142L2.594,2,0,.817.043.725.183.431.252.294C.292.207.333.131.373.054Z" transform="translate(106 4)" fill="#e2a84d"/><path d="M1.552,0,4,.407c0,.013-.013.025-.019.038a.163.163,0,0,0-.019.036L3.826.724C3.8.771,3.778.815,3.755.86l-.148.285-.052.1c-.065.132-.128.264-.192.4l-.04.089c-.048.106-.1.213-.146.322-.019.049-.04.1-.061.145-.04.092-.079.189-.117.281-.023.053-.044.106-.065.16-.038.092-.075.189-.111.285l-.059.155c-.042.109-.08.219-.121.332L2.6,3.53c-.054.151-.1.3-.155.455a.024.024,0,0,1,0,.015L0,3.591V3.574q.075-.226.155-.453c.011-.038.027-.075.038-.113.04-.111.08-.223.123-.332.019-.051.04-.1.059-.157.036-.094.073-.189.111-.285L.55,2.076c.038-.094.079-.189.117-.279.021-.051.042-.1.063-.147.048-.109.1-.217.146-.324C.889,1.3.9,1.267.914,1.239c.063-.136.126-.268.192-.4.017-.034.036-.068.052-.1L1.3.453C1.33.407,1.352.36,1.377.317c.044-.083.09-.164.134-.245C1.525.049,1.536.023,1.552,0Z" transform="translate(102 9)" fill="#e2a84d"/><path d="M.384,0,3,1.141H2.99l-.11.245-.059.13L2.8,1.552c-.061.141-.125.292-.188.448L0,.87C.063.708.127.563.188.422L.249.281.372.01Z" transform="translate(106 5)" fill="#e2a84d"/><path d="M2.956.937l-.164.344L2.7,1.472l-.179.409c-.017.042-.037.08-.054.119L0,1.174l.052-.119C.112.914.174.776.233.642L.322.451.488.107Q.512.056.532,0L3,.83Z" transform="translate(105 5)" fill="#e2a84d"/><path d="M.106.1V.114h0A.027.027,0,0,0,.106.1Z" transform="translate(103.894 12.894)" fill="#4599dd"/><path d="M.114.083A.056.056,0,0,1,.1.129.166.166,0,0,0,.112.083Z" transform="translate(103.894 12.894)" fill="#4599dd"/><path d="M3,.506c-.065.212-.125.424-.183.636q-.018.059-.036.127c-.06.212-.119.449-.175.676A.079.079,0,0,1,2.587,2L0,1.54a.4.4,0,0,1,.014-.053C.069,1.258.129,1.032.19.809.2.767.214.722.224.682.284.47.347.258.407.047A.313.313,0,0,0,.423,0L3,.46A.176.176,0,0,1,3,.506Z" transform="translate(102 13)" fill="#e2a84d"/><path d="M2.966.75c-.026.134-.053.269-.079.409l-.053.269-.073.409A1.043,1.043,0,0,1,2.731,2L0,1.417a.916.916,0,0,1,.028-.164C.051,1.118.075.984.1.844.118.755.135.661.152.575.179.441.205.306.233.169A.952.952,0,0,1,.267,0L3,.583Z" transform="translate(102 14)" fill="#e2a84d"/><path d="M.191,0,3,.633a.189.189,0,0,1-.011.076c-.064.4-.125.8-.178,1.2a.41.41,0,0,0,0,.055.236.236,0,0,0,0,.038L0,1.367l.013-.093c.055-.4.116-.8.18-1.2Q.191.038.191,0Z" transform="translate(102 15)" fill="#e2a84d"/><path d="M2.749,0c.038.107.076.211.117.31.014.034.029.065.041.1q.043.1.086.2c.019.036.036.071.052.107.029.059.06.116.088.174A1.156,1.156,0,0,0,3.19.993c.021.036.06.11.093.155l.057.1a1.642,1.642,0,0,0,.11.155c.017.026.036.053.052.077.055.074.107.146.164.214V1.7c.06.071.119.139.181.2.019.022.038.042.06.062.041.043.083.087.129.127s.048.045.074.067.081.071.124.105l.079.062q.064.05.129.093l.081.056q.069.046.145.087a.614.614,0,0,0,.072.043c.067.037.136.071.207.105a.031.031,0,0,1,.014.008c.076.034.153.064.238.093l.074.025.162.053.093.023.155.036.1.019c.052.008.1.017.16.023L6,3,2.946,2.685A3.728,3.728,0,0,1,0,.4L1.8.6Z" transform="translate(101 28)" fill="#e2a84d"/><path d="M2.866,1.912,2.855,2,0,1.335V1.25Q.067.665.14.088.149.045.154,0L3,.662V.75Q2.922,1.335,2.866,1.912Z" transform="translate(101 16)" fill="#e2a84d"/><path d="M3,.717,2.282,2,0,1.286.72,0,3,.717Z" transform="translate(99 19)" fill="#e2a84d"/><path d="M.548,0,3,.876,2.45,2,0,1.12.548,0Z" transform="translate(100 24)" fill="#e2a84d"/><path d="M2.861.29,3,2,1.306,1.828.139,1.71,0,0,2.861.29Z" transform="translate(100 25)" fill="#e2a84d"/><path d="M2.859.288,3,2,.8,1.776.141,1.709,0,0,2.859.288Z" transform="translate(99 20)" fill="#e2a84d"/><path d="M.126,0,3,.679A.365.365,0,0,1,2.987.8c-.04.386-.079.776-.112,1.168a.224.224,0,0,1,0,.034L0,1.321V1.287C.034.9.072.508.112.121.117.081.124.04.126,0Z" transform="translate(101 16)" fill="#e2a84d"/><path d="M2.914,2,0,1.318v-.11C.025.833.052.459.084.088c0-.029,0-.059,0-.088L3,.686A.568.568,0,0,1,3,.77c-.032.374-.059.745-.084,1.119Z" transform="translate(101 17)" fill="#e2a84d"/><path d="M3,1,.028.365C.028.253.007.135,0,.015V0L2.97.638a.041.041,0,0,1,0,.018C2.981.776,2.988.891,3,1Z" transform="translate(101 24)" fill="#e2a84d"/><path d="M0,.178V0L3,.822V1Z" transform="translate(101 19)" fill="#e2a84d"/><path d="M.016.531C.016.407,0,.291,0,.174V0L2.275.444,2.439.259l.51.1V.745c0,.119.012.238.016.357s0,.264.016.388v.116A1.934,1.934,0,0,0,3,1.934V2L.046,1.427a.5.5,0,0,0,0-.063,2,2,0,0,0-.018-.33V.917C.025.79.021.661.016.531Z" transform="translate(101 22)" fill="#e2a84d"/><path d="M2.98,1,.835.309,0,.239.005,0,.848.07,3,.764,2.98,1Z" transform="translate(110 19)" fill="#231f20"/><path d="M.152.185H.061L.082.026h.06Z" transform="translate(107.894 25.894)" fill="#231f20"/><path d="M.154.19A.877.877,0,0,1,.05.178L.076.021.163.032Z" transform="translate(107.894 25.894)" fill="#231f20"/><path d="M.086.185V.026h0l.04.152Z" transform="translate(107.894 25.894)" fill="#231f20"/><path d="M.787.241,0,.157.04,0,.807.083c.052,0,.1,0,.156,0L1,.241c-.071,0-.142,0-.213,0Z" transform="translate(107 25.878)" fill="#231f20"/><path d="M.094.189.066.033.119.022.147.177.094.189Z" transform="translate(107.894 25.894)" fill="#231f20"/><path d="M.082.2.037.045.082.029.125.014.176.162.142.177Z" transform="translate(108.894 25.894)" fill="#231f20"/><path d="M1.741,1,0,.5.047,0l1.69.483L1.925.416,2,.9a1.119,1.119,0,0,1-.236.087Z" transform="translate(107 25)" fill="#231f20"/><path d="M.121.192.04.056A.655.655,0,0,1,.106.02L.172.164Z" transform="translate(108.894 25.894)" fill="#231f20"/><path d="M1.82,1,0,.4.034,0,1.82.565A.515.515,0,0,0,1.918.5L2,.875c-.045.038-.093.065-.138.1Z" transform="translate(107 25)" fill="#231f20"/><path d="M.131.187.029.065.046.054.093.024.184.151Z" transform="translate(108.894 24.894)" fill="#231f20"/><path d="M2.8,1,0,.343.043,0,2.806.648,2.877.6,3,.9,2.9.968,2.87,1Z" transform="translate(106 25)" fill="#231f20"/><path d="M.5,0h0l0,2.26h0Z" transform="matrix(0.167, -0.986, 0.986, 0.167, 106.46, 25.791)" fill="#231f20"/><path d="M.5,0h0l0,2.728h0Z" transform="translate(106.272 25.503) rotate(-80.35)" fill="#231f20"/><path d="M.293,1,0,.688A7.268,7.268,0,0,0,.6.11L.707,0,1,.306.89.422A4.965,4.965,0,0,1,.293,1Z" transform="translate(106 25)" fill="#231f20"/><path d="M2.971,2,0,.838.112.581C.163.465.216.338.264.207L.3.111.344,0,.471.242.423.369.39.449.339.586,3,1.626Z" transform="translate(106 24)" fill="#231f20"/><path d="M2.965,2,0,.968.093.741C.142.623.188.5.235.377L.25.336C.288.236.327.118.369,0L.5.2C.462.318.42.441.374.559S.332.677.31.732L3,1.664Z" transform="translate(107 24)" fill="#231f20"/><path d="M2.973,2,0,1.181l.067-.174A.278.278,0,0,1,.105.913L.329.38C.356.308.383.236.407.163L.447,0,.593.138.53.3C.506.38.477.457.45.529L.268.993,3,1.743Z" transform="translate(107 23)" fill="#231f20"/><path d="M2.971,2,0,1.408l.148-.325c.047-.1.1-.212.141-.319L.315.7C.369.576.42.442.469.309L.483.277A.225.225,0,0,1,.512.2L.586,0,.74.076l-.074.2C.666.306.644.33.635.356L.624.387C.572.524.519.649.465.791L.438.851C.393.961.344,1.068.3,1.175l-.04.086L3,1.817Z" transform="translate(108 22)" fill="#231f20"/><path d="M.5,0h0l0,2.118h0Z" transform="translate(109.551 21.469) rotate(-80.256)" fill="#231f20"/><path d="M.5,0h0V1.536h0Z" transform="translate(109.8 21.192) rotate(-80.4)" fill="#231f20"/><path d="M.5,0h0V1.485h0Z" transform="matrix(0.167, -0.986, 0.986, 0.167, 110.003, 20.558)" fill="#231f20"/><path d="M.5,0h0l0,1.7h0Z" transform="matrix(0.167, -0.986, 0.986, 0.167, 109.967, 19.659)" fill="#231f20"/><path d="M.5,0h0l0,1.624h0Z" transform="matrix(0.167, -0.986, 0.986, 0.167, 109.961, 19.985)" fill="#231f20"/><path d="M2.972,2,.142.916.126.818C.087.581.044.365,0,.163L.146,0C.185.182.224.379.261.586L3,1.635Z" transform="translate(109 10)" fill="#231f20"/><path d="M.221,1,0,.758.4.379.523.26.783.031.821,0,1,.273.911.137,1,.273.736.507.613.621C.481.74.353.868.221,1Z" transform="translate(105 5)" fill="#231f20"/><path d="M2.963,2,0,.933.173.613C.227.515.28.432.33.353A1.1,1.1,0,0,1,.407.232C.437.176.474.125.512.07L.538.032.56,0,.673.255.649.292.606.357C.571.408.536.455.5.51L.431.626.376.715,3,1.643Z" transform="translate(106 5)" fill="#231f20"/><path d="M.145.181.04.06l.04-.03L.172.16Z" transform="translate(108.894 5.894)" fill="#231f20"/><path d="M2.913,2,0,.813.212.5C.252.43.29.368.326.317L.4.2C.443.148.479.1.517.051L.542.046.581,0,.646.348.6.409l-.1.143L.445.619l2.5,1.023V1.8L3,1.985H2.977Z" transform="translate(106 4)" fill="#231f20"/><path d="M.5,0h0l0,2.76h0Z" transform="translate(106.754 5.006) rotate(-80.4)" fill="#231f20"/><path d="M.118.183.061.035.088.109.073.029H.1l.055.15Z" transform="translate(108.894 4.894)" fill="#231f20"/><path d="M2.923,1,0,.253.03,0,2.916.74h.02V.771L3,.966H2.973A.074.074,0,0,1,2.923,1Z" transform="translate(108 4)" fill="#231f20"/><path d="M.251,1,0,.665.061.626.524.408.735.318,1.019.212c.134-.05.273-.095.407-.134h.117L1.85,0h.033L2,.4H1.967l-.3.073L1.526.508l-.4.134L.886.737.691.816Z" transform="translate(107 3)" fill="#231f20"/><path d="M.1.19.071.034.142.021V.18L.1.19Z" transform="translate(109.894 4.894)" fill="#231f20"/><path d="M2.944.987,0,.128.495.03H.522L.627,0H.806V.148l2.15.625h0L3,1Z" transform="translate(107 4)" fill="#231f20"/><path d="M.125.185.088.033.125.026V.185Z" transform="translate(110.894 4.894)" fill="#231f20"/><path d="M3,1H2.974L0,.254.03,0,2.988.746,3,.742V1Z" transform="translate(108 4)" fill="#231f20"/><path d="M.115.185l-.03,0L.113.026.1.1.121.026l.006.08L.115.185Z" transform="translate(110.894 4.894)" fill="#231f20"/><path d="M.151.185H.045V.026H.168Z" transform="translate(110.894 4.894)" fill="#231f20"/><path d="M2.983,1,.275.257H0V0H.194A.513.513,0,0,1,.3,0H.36L3,.732Z" transform="translate(108 4)" fill="#231f20"/><path d="M.118.187l-.026,0L.1.024l.021,0,0,.161Z" transform="translate(110.894 4.894)" fill="#231f20"/><path d="M.5,0h0l0,1.979h0Z" transform="translate(108.519 17.427) rotate(-80.256)" fill="#231f20"/><path d="M2.97,1,.068.262.075.2,0,.075.054,0,3,.748,2.97,1Z" transform="translate(107 12)" fill="#231f20"/><path d="M5.958,3l-3-.374A3.827,3.827,0,0,1,0,.04L.166,0A3.679,3.679,0,0,0,2.993,2.5l2.948.367H6Z" transform="translate(101 28)" fill="#231f20"/><path d="M.038,1C.038.7.021.391.015.063L.1,0H.175V.039c0,.3.013.6.023.891Z" transform="translate(100.894 24)" fill="#231f20"/><path d="M2.973,2,.065,1.443.031.883C.031.763.018.632.013.517L0,.178V.018L.167,0V.166L.18.507A2.474,2.474,0,0,0,.2.873l.02.407L3,1.814Z" transform="translate(100 22)" fill="#231f20"/><path d="M.5.263h0V.737h0Z" transform="translate(102.226 23.137) rotate(-80.55)" fill="#231f20"/><path d="M2.972,3,.139,2.565,0,.008.162,0,.294,2.442,3,2.856,2.972,3Z" transform="translate(99 25)" fill="#231f20"/><path d="M2.457,2,0,1.2.643,0,3,.771l-.022.259L.688.284l-.4.743,2.19.715L2.457,2Z" transform="translate(99 24)" fill="#231f20"/><path d="M.183.16.025.145h0V.052h.16A.45.45,0,0,1,.183.16Z" transform="translate(102.894 18.894)" fill="#231f20"/><path d="M.182.162.022.147.033.05.19.065l-.009.1Z" transform="translate(100.894 18.894)" fill="#231f20"/><path d="M2.969,2,0,1.328v-.1a.958.958,0,0,1,0-.111C.024.771.052.422.083.076V0L.246.015a.578.578,0,0,1,0,.091C.215.449.188.795.164,1.144h0l2.759.63h0L3,1.789Z" transform="translate(101 17)" fill="#231f20"/><path d="M2.971,2,0,1.344l.016-.111C.054.84.092.474.133.108L.147,0,.314.026A.347.347,0,0,1,.3.143C.262.48.226.823.194,1.163L3,1.783Z" transform="translate(101 16)" fill="#231f20"/><path d="M2.966,2,0,1.361l.023-.185C.068.81.115.448.167.086L.18,0,.345.046.331.131C.282.476.237.83.194,1.187L3,1.789Z" transform="translate(101 16)" fill="#231f20"/><path d="M2.984,2,0,1.391l.011-.1V1.21C.07.822.134.445.2.074L.213,0,.379.049.365.12C.3.481.241.85.184,1.213L3,1.79Z" transform="translate(101 15)" fill="#231f20"/><path d="M.18.145.026.107V.067l.16.019A.163.163,0,0,1,.18.145Z" transform="translate(102.894 15.894)" fill="#231f20"/><path d="M2.952,2,0,1.424l.046-.25C.07,1.046.1.924.122.793L.293,0,.45.045.282.836c-.026.125-.052.25-.076.378v.058l2.62.5.013-.063L3,1.747Z" transform="translate(102 14)" fill="#231f20"/><path d="M.5.5Z" transform="translate(103.365 14.813) rotate(-76.45)" fill="#231f20"/><path d="M2.954,2,0,1.54.035,1.41C.1,1.193.162.978.228.765L.265.645c.066-.2.134-.4.2-.6L.482,0,.639.042a.475.475,0,0,1-.02.05l-.2.6L.385.815c-.064.2-.125.4-.184.612l2.713.422v.02L3,1.89a.376.376,0,0,1-.018.058Z" transform="translate(102 13)" fill="#231f20"/><path d="M.177.156.023.111A.544.544,0,0,1,.04.056L.189.115A.173.173,0,0,0,.177.156Z" transform="translate(103.894 12.894)" fill="#231f20"/><path d="M2.9,4,0,3.589.026,3.5c.059-.152.116-.3.177-.448L.28,2.867.39,2.616c.013-.029.026-.059.042-.09l.026-.059c.042-.1.083-.184.127-.279l.02-.04c.018-.039.035-.079.055-.117.042-.088.088-.184.131-.268l.072-.147c.055-.106.112-.211.169-.318l.031-.055.013-.028c.072-.134.147-.263.219-.391L1.4.641c.039-.066.079-.132.12-.2L1.607.31c.05-.081.1-.16.153-.239L1.809,0l.142.07L1.905.14c-.05.077-.1.156-.153.237l-.081.13L1.55.7,1.443.887c-.074.127-.147.255-.219.387L1.209,1.3a.412.412,0,0,1-.033.061c-.053.1-.109.206-.164.312l-.066.14-.134.272c-.02.039-.037.077-.055.114l-.018.04c-.044.094-.085.184-.127.277l-.026.059c-.015.031-.028.061-.042.09-.037.084-.072.167-.107.25L.361,3.1c-.053.127-.1.253-.153.382l2.709.384v.061L3,3.932l-.015.051Z" transform="translate(102 9)" fill="#231f20"/><path d="M.175.144.023.091.036.068.189.116A.175.175,0,0,1,.175.144Z" transform="translate(105.894 7.894)" fill="#231f20"/><path d="M2.927,2,0,1.489l.056-.1c.019-.04.037-.069.052-.1l.026-.044L.2,1.117C.235,1.065.265,1.01.3.959L.319.919C.352.861.384.806.418.75S.5.624.537.559L.636.4.757.209.783.171.858.055.9,0l.134.093L.992.149C.966.189.942.226.917.262L.891.3.779.475.673.648C.632.71.593.775.556.839S.49.948.459,1l-.024.04c-.03.053-.063.1-.091.158S.3,1.285.274,1.327l-.022.038,2.588.444h0l.022-.036L3,1.858l-.019.036-.032.055Z" transform="translate(104 7)" fill="#231f20"/><path d="M2.971,2,0,1.337l.078-.143c.016-.029.031-.055.044-.085C.2.958.284.818.364.674L.393.625C.411.6.426.566.444.54c.1-.175.2-.347.311-.511L.771,0,.89.155h0C.779.33.668.5.577.674A.885.885,0,0,0,.528.756L.5.806.291,1.18,3,1.784Z" transform="translate(104 6)" fill="#231f20"/><path d="M.18.152.033.085.05.059.18.152Z" transform="translate(107.894 6.894)" fill="#231f20"/><path d="M2.913,2,0,1.217.151.942C.217.817.286.692.352.573L.452.4.635.095.676.034.7,0,.808.18.789.21.746.278C.691.369.629.471.569.576.537.627.507.681.478.732.418.837.36.939.307,1.041l2.544.678.028-.051L3,1.834Z" transform="translate(105 5)" fill="#231f20"/><path d="M2.86,1,0,.335.112.188.184.09.25,0,3,.639,2.975.853,2.886.829Z" transform="translate(106 5)" fill="#231f20"/><path d="M2.972,3,.139,2.567,0,.008.162,0,.294,2.442,3,2.856,2.972,3Z" transform="translate(99 20)" fill="#231f20"/><path d="M2.294,2,0,1.332.8,0,3,.647,2.98.864.84.237l-.57.949,2.046.6L2.294,2Z" transform="translate(99 19)" fill="#231f20"/><path d="M4.658,26a2.442,2.442,0,0,1-.437-.04l-.151-.033H4.049l-.07-.019c-.048-.015-.1-.031-.146-.05l-.085-.031L3.6,25.756c-.037-.019-.059-.027-.079-.04-.072-.037-.144-.081-.218-.127s-.146-.1-.218-.156l-.07-.062c-.041-.033-.087-.075-.133-.119l-.116-.119-.079-.083-.052-.06-.022-.025c-.041-.048-.081-.1-.118-.146l-.068-.09c-.041-.056-.081-.117-.12-.175l-.022-.033a.442.442,0,0,1-.035-.052c-.055-.085-.111-.179-.166-.275v-.025c-.046-.079-.1-.177-.146-.279l-.05-.106-.1-.208-.055-.131c-.022-.05-.041-.1-.063-.158l-.024-.06-.052-.146c-.026-.075-.055-.154-.079-.231L1.465,22.7c-.028-.09-.055-.179-.081-.273L1.347,22.3c-.026-.094-.05-.19-.076-.287l-.889.818L.236,19.957l.622-.575c0-.067-.013-.137-.02-.208a.377.377,0,0,0,0-.062l-.022-.352c0-.1-.011-.208-.015-.3l-.015-.283v-.09l-.017-.454v-.094l-.62.571L0,15.227l.887-.814A.454.454,0,0,1,.9,14.271c.024-.246.05-.5.081-.741v-.073c.035-.271.072-.531.111-.791l.024-.14q.061-.4.138-.793v-.054a.373.373,0,0,1,0-.046.187.187,0,0,1,0-.033c.055-.283.116-.571.177-.854l.041-.181c.024-.1.05-.208.076-.319l.183-.712c.061-.225.127-.446.192-.666l.039-.127c.063-.208.129-.417.2-.625l.013-.037V8.059c.059-.177.118-.344.179-.51.013-.042.031-.085.046-.127q.066-.183.138-.369c.015-.037.033-.081.048-.123l.02-.048c.044-.112.085-.208.127-.314.024-.06.048-.119.074-.177.044-.1.087-.208.133-.31.024-.054.048-.106.07-.16.057-.123.111-.242.168-.36l.044-.1c.074-.152.146-.3.218-.444L3.5,4.9l.166-.314.109-.2c.041-.075.085-.15.129-.225a.453.453,0,0,1,.024-.044c.024-.04.05-.083.074-.127s.066-.108.1-.162l.07-.115.044-.071.1-.156.122-.183.1-.15.151-.2.063-.087.039-.054a.544.544,0,0,1,.041-.056.286.286,0,0,1,.033-.044L4.881,2.7l.238-.306.074-.1c.1-.127.205-.248.308-.364l.072-.081c.074-.081.14-.154.218-.225l.066-.071.035-.035.19-.187.173-.165q.1-.1.2-.181L6.482.968,6.536.923,6.755.746,6.831.689,6.91.631,6.971.589l.1-.069h0L7.128.485,7.172.458,7.263.4,7.338.362A.187.187,0,0,1,7.368.344L7.462.3l.05-.029h.02l.05.065L7.56.254,7.748.171,7.8.15A.344.344,0,0,1,7.857.131h0L7.934.1h.022L8.008.087,8.069.067,8.124.054,8.191.037,8.3.017,8.412,0h.515c.965.121,1.786.925,2.441,2.391l.015.033L9.325,6.543l-.07-.165c-.02-.048-.037-.092-.057-.133a.407.407,0,0,0-.02-.042c-.015-.033-.028-.06-.044-.09l-.092-.169L9,5.877l-.177-.252c-.022-.029-.044-.056-.068-.083l-.013-.017C8.72,5.5,8.7,5.473,8.674,5.452a.24.24,0,0,0-.031-.031l-.05-.048-.048-.042L8.51,5.3a.332.332,0,0,0-.035-.027l-.057-.042a.282.282,0,0,1-.039-.027l-.041-.023L8.294,5.16l-.052-.025-.022-.01L8.139,5.09h0l-.026-.012L8.03,5.054H8L7.936,5.04a1.622,1.622,0,0,0-1.352.527.889.889,0,0,0-.079.077l-.035.033A7.86,7.86,0,0,0,4.988,7.826,15.526,15.526,0,0,0,3.721,11.8L7.8,8.055l.146,2.878-4.54,4.177c-.013.387,0,.721.022,1.072.015.273.028.552.052.8l4.551-4.234.146,2.876L4.036,19.436A4.043,4.043,0,0,0,4.309,20l.013.019a2.992,2.992,0,0,0,.181.275,2.013,2.013,0,0,0,.181.208,1.688,1.688,0,0,0,.183.169,1.507,1.507,0,0,0,.19.131,1.2,1.2,0,0,0,.2.092,1.148,1.148,0,0,0,.251.065l-.026.154a1.361,1.361,0,0,1-.286-.073,1.651,1.651,0,0,1-.218-.1,2.015,2.015,0,0,1-.218-.144,1.775,1.775,0,0,1-.2-.183,2.35,2.35,0,0,1-.194-.227c-.072-.1-.133-.192-.192-.289l-.013-.021a4.439,4.439,0,0,1-.3-.625L3.839,19.4,8,15.569l-.127-2.462L3.326,17.289l-.017-.158c-.031-.292-.05-.635-.068-.968-.017-.369-.037-.712-.022-1.118v-.033l4.534-4.165L7.645,8.378l-4.18,3.846.041-.233a15.9,15.9,0,0,1,1.31-4.252A8.02,8.02,0,0,1,6.331,5.546l.033-.031.085-.081a1.78,1.78,0,0,1,1.494-.566l.076.017h.033l.1.029h.015l.092.035.022.012L8.36,5l.024.012-.022.079L8.4,5.025a.5.5,0,0,1,.057.033l.035.023.063.046.037.027.037.031.055.048a.63.63,0,0,1,.057.052l.033.033A1.113,1.113,0,0,1,8.86,5.4l.013.017a1.081,1.081,0,0,1,.07.085l.183.264a.824.824,0,0,1,.044.073l.044.075.028.054.024.05c.015.029.031.058.044.09a.078.078,0,0,1,0,.019l1.867-3.748C10.55.991,9.777.231,8.884.119H8.838a1.129,1.129,0,0,0-.118,0H8.408l-.12.019L8.2.154,8.139.171,8.082.183l-.028.01H8.032L7.984.208H7.962L7.888.235H7.851l-.218.1L7.58.269,7.6.344,7.576.358l-.05.027-.1.05A.066.066,0,0,0,7.405.45l-.166.1A.163.163,0,0,0,7.2.569.363.363,0,0,0,7.152.6L7.128.619,7.043.677a.59.59,0,0,0-.055.037L6.91.771,6.835.825,6.8.852,6.77.875,6.7.833l.057.056L6.619,1l-.059.05L6.488,1l.057.056c-.068.06-.135.119-.2.181l-.17.162L6,1.576l-.046.046-.063.069c-.068.071-.133.142-.2.208l-.079.085c-.1.117-.2.235-.3.358l-.074.1L5,2.743l-.015.021c0,.012-.02.027-.031.042l-.039.054-.039.054L4.813,3c-.044.06-.083.117-.122.175l-.1.15c-.039.058-.081.119-.118.177s-.068.1-.1.156l-.046.071c-.022.037-.046.075-.07.112s-.066.108-.1.162-.052.085-.076.129l-.022.037L3.933,4.4l-.1.192c-.057.1-.111.208-.166.314L3.6,5.021c-.072.142-.144.287-.218.435l-.044.1c-.057.119-.114.237-.168.358l-.07.16c-.044.1-.09.208-.131.308-.026.058-.05.117-.074.175-.041.1-.083.208-.122.3l-.024.058c-.015.04-.033.081-.046.121-.05.123-.094.244-.138.367q-.026.062-.046.125-.092.25-.177.5v.012a.555.555,0,0,1-.017.056c-.068.208-.133.406-.2.625l-.039.125c-.066.208-.129.441-.19.662l-.183.712c-.026.1-.05.208-.074.314l-.041.181c-.063.281-.124.566-.179.852V11.6l-.087.019.081.012A.521.521,0,0,1,1.4,11.7c-.048.258-.094.521-.135.787l-.024.14c-.039.256-.076.516-.109.777v.029a.258.258,0,0,1,0,.054c-.028.244-.057.489-.081.737,0,.056-.013.112-.017.169v.029l-.874.806.127,2.462.635-.583v.5l.017.454v.085l.013.281a1.728,1.728,0,0,0,.017.3l.022.35a.294.294,0,0,1,0,.044v.027a2.148,2.148,0,0,0,.024.235v.037L.389,20l.127,2.462.836-.771.033.135c.035.142.07.281.107.417l.039.127c.024.094.05.183.076.269l.048.144c.026.077.052.154.081.231s.033.094.05.142l.022.058c.022.052.041.1.063.154l.052.131q.05.108.1.208l.048.106c.048.1.1.192.148.283v.023c.048.081.1.173.157.258a.34.34,0,0,0,.031.046l.024.037c.037.054.076.112.116.167l.066.085c.037.05.074.1.111.142l.022.025.048.054.079.083.109.112c.041.04.085.079.129.115a.746.746,0,0,0,.066.056q.089.073.186.137l.02.017c.059.037.129.077.2.115a.3.3,0,0,0,.052.025l.02.01.14.067.083.029a1.235,1.235,0,0,0,.133.046l.066.019h.022c.046.012.092.023.14.031a3.885,3.885,0,0,0,3.191-1.32c2.553-2.347,3.791-6.574,4.385-9.742l-2-.087a.829.829,0,0,1-.026.144l-.02.108v.04c-.033.171-.068.333-.1.5v.025c-.039.181-.085.36-.133.539l-.024.083-.026.1-.068.233-.059.208-.111.344a.279.279,0,0,1-.031.087l-.044.127c-.037.108-.079.208-.118.323l-.013.035-.138.346-.041.092c-.035.085-.072.169-.109.252-.02.04-.033.067-.044.094-.052.11-.1.219-.157.321l-.024.048c-.046.09-.094.175-.14.26l-.048.085-.028.048-.076.131-.094.152L8.1,19.4c-.026.04-.05.079-.079.117s-.066.1-.1.142l-.039.052c-.041.058-.081.115-.124.167s-.107.127-.155.181l-.031.035-.048.054c-.055.058-.107.11-.162.162l-.044.044c-.074.069-.151.133-.218.2l-.076-.042.055.058-.026.021q-.1.075-.19.137l-.041.029-.044.027c-.026.017-.05.033-.074.046a.62.62,0,0,1-.068.04.3.3,0,0,1-.05.027h-.02a1.052,1.052,0,0,1-.124.065l-.081.035c-.076.029-.14.054-.2.073H6.139c-.068.017-.12.029-.173.037H5.914a.149.149,0,0,1-.039,0,.788.788,0,0,0-.153.01H5.693v-.156h.022a.713.713,0,0,0,.148-.01h.055a1.208,1.208,0,0,0,.168-.035h0l.028-.01c.059-.017.118-.04.179-.062l.039-.015a.319.319,0,0,1,.048-.023c.041-.019.085-.042.127-.065l.052-.027c.02-.012.041-.023.061-.037l.068-.042.033-.021a.405.405,0,0,0,.048-.031c.074-.05.138-.1.2-.148L7,20.4a2.533,2.533,0,0,0,.218-.187l.022-.021.017-.019c.052-.05.1-.1.155-.156l.033-.033a.534.534,0,0,1,.046-.054l.14-.165.015-.019c.033-.042.072-.1.109-.15l.044-.054c.026-.04.057-.081.085-.125s.059-.087.085-.127l.022-.033.092-.148.076-.131.026-.042.048-.085c.046-.083.092-.169.135-.254l.024-.048c.055-.1.1-.208.155-.314.013-.029.026-.058.041-.087l.111-.256c.013-.031.026-.062.041-.094l.135-.339.013-.035c.039-.1.079-.208.118-.321L9.047,17l.037-.106.109-.339.059-.2.066-.229a.4.4,0,0,1,.028-.1l.02-.069c.046-.183.094-.369.135-.556v-.025c.035-.165.066-.314.1-.462a.246.246,0,0,1,0-.048l.02-.106a1.127,1.127,0,0,1,.037-.208l.011-.071,2.334.1-.015.087c-.59,3.2-1.841,7.516-4.448,9.915A4.36,4.36,0,0,1,4.658,26Z" transform="translate(102 4)" fill="#231f20"/><path d="M.107.185h0V.026l0,.159Z" transform="translate(107.894 25.894)" fill="#231f20"/><g transform="translate(17 64)"><path d="M12.366,4.985,12.5,7.622l-1.166,1.1.419,8.341L9.331,19.343l-3.4-5.528L3.437,13.4l1.424-1.343L2.927,8.93.278,8.491,0,2.915,2.577.484,4.65,3.81,3,5.362,5.671,5.8l.208,4.183,2.916.484L8.576,6.1,6.083,5.687l2.36-2.223L8.3.66l2.651.439L12.117,0l.132,2.637-1.166,1.1.052,1.042L9.453,4.5,8.287,5.6l2.914.484,1.166-1.1Z" transform="translate(4.267 7.742)" fill="#ffc65a"/><path d="M1.231.206.065,1.3,0,0,1.231.206Z" transform="translate(15.402 12.522)" fill="#e2a84d"/><path d="M1.229.2.065,1.3,0,0,1.229.2Z" transform="translate(15.155 7.539)" fill="#e2a84d"/><path d="M2.848.278l.065,1.3L0,1.1,1.166,0,2.848.278Z" transform="translate(12.554 12.244)" fill="#ffc65a"/><path d="M2.6.28l.065,1.3L.013,1.143,0,.863.914,0,2.6.28Z" transform="translate(12.556 7.259)" fill="#ffc65a"/><path d="M2.51,0l.343,6.822-1.685-.28-.914.863L0,2.363,2.51,0Z" transform="translate(12.302 0.717)" fill="#ffc65a"/><path d="M5.423.484,2.914,2.847,0,2.365,2.51,0,5.423.484Z" transform="translate(9.388 0.233)" fill="#e2a84d"/><path d="M1.654,0l3.4,5.528L2.143,5.044,0,1.561,1.654,0Z" transform="translate(8.539 21.558)" fill="#e2a84d"/><path d="M1.574,0l.219,4.37L0,1.483,1.574,0Z" transform="translate(11.268 13.843)" fill="#e2a84d"/><path d="M1.331,1.9,3.124,4.783.208,4.3,0,.117.248.159.412,0,2.9.414,1.331,1.9Z" transform="translate(9.938 13.429)" fill="#ffc65a"/><path d="M3.181,5.8l.141,2.8L.406,8.126,0,0,2.914.482l.254,5.042-.252.238.265.042Z" transform="translate(9.388 2.598)" fill="#e2a84d"/><path d="M3.793.482,1.433,2.7l-.3-.049L0,.827.877,0,3.793.482Z" transform="translate(8.917 10.725)" fill="#e2a84d"/><path d="M.252,0,.265.28,0,.238.252,0Z" transform="translate(12.304 8.122)" fill="#e2a84d"/><path d="M.3.051.13.21,0,0,.3.051Z" transform="translate(10.055 13.378)" fill="#fff"/><path d="M2.731.412,1.077,1.973,0,.225.241,0l2.49.412Z" transform="translate(7.463 21.146)" fill="#ffc65a"/><path d="M.126.019l.13.208L.009.185,0,0,.126.019Z" transform="translate(9.929 13.362)" fill="#fff"/><path d="M1.648,0,2.785,1.828,2.66,1.809l.009.185L0,1.553,1.648,0Z" transform="translate(7.269 11.552)" fill="#ffc65a"/><path d="M0,0,1.934,3.131l-1.791-.3L0,0Z" transform="translate(7.193 16.673)" fill="#e2a84d"/><path d="M1.791.3.367,1.64.078,1.591,0,0,1.791.3Z" transform="translate(7.337 19.507)" fill="#e2a84d"/><path d="M0,0,.289.049.048.274.011.214,0,0Z" transform="translate(7.415 21.098)" fill="#fff"/><path d="M3.923,4.749l.033-.032L5.032,6.465l-.977.921.417,8.341L1.965,18.092,1.548,9.751l-1.231-.2L.25,8.211l1.166-1.1L1.3,4.766l-1.231-.2L0,3.228l1.166-1.1L1.059,0,2.705,2.666l-1.7,1.6,2.914.484Z" transform="translate(3.507 16.654)" fill="#ffc65a"/><path d="M.09.06.127.12.094.152.09.06Z" transform="translate(7.336 21.251)" fill="#fff"/><path d="M.17.021.181.235.036,0,.17.021Z" transform="translate(7.244 21.076)" fill="#fff"/><path d="M2.914,2.083,0,1.6,1.7,0,2.82.187,2.9,1.778l-.135-.021.145.235,0,.091Z" transform="translate(4.516 19.32)" fill="#ffc65a"/><path d="M2.649.439l.143,2.834L1.667,3.086.022.42,0,0,2.649.439Z" transform="translate(4.545 16.234)" fill="#ffc65a"/><path d="M5.493.484,2.916,2.915,0,2.433,2.579,0,5.493.484Z" transform="translate(1.351 7.742)" fill="#e2a84d"/><path d="M2.851,0l.417,8.341L.354,7.859,0,.819,1.685,1.1,2.851,0Z" transform="translate(2.204 26.405)" fill="#e2a84d"/><path d="M1.231.2.065,1.3,0,0,1.231.2Z" transform="translate(3.824 26.201)" fill="#ffc65a"/><path d="M2.848,0l.117,2.346L.05,1.865,0,.821,1.683,1.1,2.848,0Z" transform="translate(1.957 21.42)" fill="#e2a84d"/><path d="M4.079.482,2.914,1.58,0,1.1,1.164,0,4.079.482Z" transform="translate(0.843 23.285)" fill="#e2a84d"/><path d="M1.231.2.065,1.3,0,0,1.231.2Z" transform="translate(3.574 21.216)" fill="#ffc65a"/><path d="M3.215,6.478l.106,2.13L.406,8.124,0,0,2.916.482l.278,5.577-.265-.045.287.465Z" transform="translate(1.351 10.175)" fill="#e2a84d"/><path d="M4.079.484l-1.166,1.1L0,1.1,1.164,0,4.079.484Z" transform="translate(0.593 18.3)" fill="#e2a84d"/><path d="M.287.465,0,0,.265.045l.022.42Z" transform="translate(4.28 16.189)" fill="#e2a84d"/><path d="M1.685.28l.065,1.3L.065,1.3,0,0,1.685.28Z" transform="translate(2.139 25.921)" fill="#e2a84d"/><path d="M2.914.482l.067,1.336L1.3,1.538l.065,1.3-1.229-.2L0,0,2.914.482Z" transform="translate(0.843 24.383)" fill="#e2a84d"/><path d="M1.685.28l.065,1.3L.067,1.3,0,0,1.685.28Z" transform="translate(1.889 20.936)" fill="#e2a84d"/><path d="M2.914.484l.067,1.334L1.3,1.538l.067,1.3L.132,2.637,0,0,2.914.484Z" transform="translate(0.593 19.398)" fill="#e2a84d"/><path d="M.5,0h0l0,1.248h0Z" transform="matrix(0.168, -0.986, 0.986, 0.168, 15.317, 13.01)" fill="#231f20"/><path d="M.5,0h0l0,1.248h0Z" transform="matrix(0.167, -0.986, 0.986, 0.167, 15.068, 8.026)" fill="#231f20"/><path d="M5.115,4.085,2.162,3.6,0,.083.139,0,2.264,3.451l2.877.477-.026.157Z" transform="translate(8.47 23.079)" fill="#231f20"/><path d="M.113,2.507,0,2.395,2.538,0,5.493.49,5.465.649,2.592.172.113,2.507Z" transform="translate(9.332 0.146)" fill="#231f20"/><path d="M.412,8.224,0,0,3.016.5,2.987.655.174.189l.4,8.029-.163.006Z" transform="translate(9.301 2.503)" fill="#231f20"/><path d="M.113.972,0,.857.908,0,3.864.49,3.836.647.962.172l-.849.8Z" transform="translate(8.861 10.638)" fill="#231f20"/><path d="M.5,0h0L.5,1.816h0Z" transform="translate(7.255 20.001) rotate(-80.4)" fill="#231f20"/><path d="M3.335,7.6.356,7.112,0,.008.163,0l.35,6.977,2.848.471L3.335,7.6Z" transform="translate(2.124 27.219)" fill="#231f20"/><path d="M.053,1.052,0,.006.164,0,.216,1.044l-.163.008Z" transform="translate(1.873 22.237)" fill="#231f20"/><path d="M.113,1.241,0,1.126,1.194,0,4.149.488,4.123.645,1.248.17.113,1.241Z" transform="translate(0.787 23.2)" fill="#231f20"/><path d="M3.12,3.292.141,2.8,0,0,3.013.5,2.987.655.174.191.3,2.664l2.851.471-.028.157Z" transform="translate(0.756 24.288)" fill="#231f20"/><path d="M0,.491,1.6.509h0L0,.491Z" transform="matrix(0.719, -0.695, 0.695, 0.719, 0.254, 19.04)" fill="#231f20"/><path d="M3.12,3.292.141,2.8,0,0,3.016.5,2.987.655.172.189.3,2.662l2.848.473-.026.157Z" transform="translate(0.507 19.305)" fill="#231f20"/><path d="M3.389,8.691.408,8.2,0,.008.161,0l.4,8.061,2.851.473-.026.157Z" transform="translate(1.271 10.171)" fill="#231f20"/><path d="M3.393,13.177,0,7.732l.139-.083,3.287,5.275,2.427-2.287L5.445,2.512,8.109,0l.417,8.3-.163.008-.4-7.95L5.612,2.577,6.02,10.7,3.393,13.177Z" transform="translate(6.774 0.537)" fill="#231f20"/><path d="M1.973,24.269l-.417-8.341-1.164,1.1L.25,14.178l1.164-1.1-.106-2.134-1.164,1.1L0,9.2,1.166,8.1.76.006.923,0l.408,8.16L.167,9.259l.119,2.427,1.166-1.1.128,2.556-1.166,1.1.124,2.425,1.164-1.1.417,8.341,2.353-2.219-.417-8.341,2.731-2.575,3.4,5.526,2.319-2.187-.417-8.343,1.166-1.1-.13-2.6.163-.006.135,2.673-1.168,1.1.419,8.341-2.521,2.376-3.4-5.526L4.223,13.417l.417,8.341L1.973,24.269Z" transform="translate(3.424 10.655)" fill="#231f20"/><path d="M.119,6.09,0,3.708l1.166-1.1-.13-2.6L1.2,0l.135,2.673L.167,3.774l.115,2.31L.119,6.09Z" transform="translate(15.267 7.738)" fill="#231f20"/><path d="M0,0,2.134,3.455.26,5.223Z" transform="translate(7.096 16.361)" fill="#231f20"/><path d="M0,1.648,1.748,0l.243,4.857Z" transform="translate(11.166 13.665)" fill="#231f20"/><path d="M0,2.571,2.727,0,5.836.517,3.116,3.084Z" transform="translate(1.177 7.658)" fill="#231f20"/></g><rect width="130" height="146" fill="#52aaff" style="mix-blend-mode:color;isolation:isolate"/></svg>