<svg xmlns="http://www.w3.org/2000/svg"
    width="142" height="153"
    viewBox="0 0 142 153"><g transform="translate(0 91)"
    opacity="0.21">
    <path d="M40.711,0,94.835,20.962l-40.7,40.853-.006.017L0,40.868,40.711,0Z" transform="translate(0.079 0.041)" fill="#231f20"/></g><g transform="translate(47 46)" opacity="0.21"><path d="M40.619,0l54,20.962L54.015,61.815l-.006.017L0,40.868,40.619,0Z" transform="translate(0.193 0.093)" fill="#231f20"/></g><path d="M1,0V29.076L.05,30,0,29.949V.97L1,0Z" transform="translate(78 88)" fill="#fff"/><path d="M50,19.055,49.059,20,9.781,4.748,0,.947.938,0l9.783,3.8L50,19.055Z" transform="translate(29 70)" fill="#ffc65a"/><path d="M49,18.941V47L9.769,31.837,0,28.059V0L9.769,3.778,49,18.941Z" transform="translate(29 71)" fill="#b28242"/><path d="M48.892,46.958,0,28.092V0L.109.042,49,18.911V47Z" transform="translate(29 71)" fill="#231f20"/><path d="M.106,30,0,29.883l.851-.945V0H1V29.007L.106,30Z" transform="translate(78 88)" fill="#231f20"/><path d="M48.978,20l-.113-.113.849-.852L1.014.186l-.9.9L0,.976.973,0l9.793,3.789L50,18.972,48.978,20Z" transform="translate(29 70)" fill="#231f20"/><path d="M27,0V28.48L0,56V27.518L27,0Z" transform="translate(4 69)" fill="#b28242"/><path d="M28,.245.955,28l-.047-.03L0,27.616,26.91,0,28,.245Z" transform="translate(4 69)" fill="#ffc65a"/><path d="M.116,28,0,27.884,27.828,0,29,.256l-.037.16L27.88.18.116,28Z" transform="translate(3 69)" fill="#231f20"/><path d="M0,27.98l.024-.024L28,0V29.021l-.024.023L0,57Z" transform="translate(4 69)" fill="#231f20"/><path d="M.5.009h0L.5.991h0Z" transform="translate(3.044 97.045) rotate(-69.1)" fill="#231f20"/><path d="M0,13.447,12.891,0,54,16.554,41.118,30Z" transform="translate(23 76)" fill="#12ca70"/><path d="M0,10.4,10.651,0,49,14.587,38.362,25Z" transform="translate(26 78)" fill="#12ca70"/><path d="M0,9.34.452,8.186a7.275,7.275,0,0,0,2.659.486c3.073,0,5.567-1.8,5.567-4.02A4.052,4.052,0,0,0,5.764,1.116L6.19,0,26,7.57,17.434,16Z" transform="translate(46 85)" fill="#12ca70"/><path d="M2.507,0A2.288,2.288,0,0,1,5,1.993,2.3,2.3,0,0,1,2.507,4,2.3,2.3,0,0,1,0,1.993,2.287,2.287,0,0,1,2.507,0Z" transform="translate(62 94)" fill="#12ca70"/><path d="M8.861.473c1.87.675,3.139,2,3.139,3.521C12,6.2,9.313,8,6,8a8.378,8.378,0,0,1-2.863-.484C1.271,6.835,0,5.515,0,3.995,0,1.779,2.687,0,6,0A8.341,8.341,0,0,1,8.861.473Z" transform="translate(43 86)" fill="#12ca70"/><path d="M0,8.392,8.712,0,24,5.722l-.434,1.11a7.5,7.5,0,0,0-2.7-.481c-3.137,0-5.676,1.784-5.676,3.986,0,1.517,1.2,2.835,2.969,3.514L17.7,15Z" transform="translate(28 81)" fill="#12ca70"/><path d="M2.5,0A2.291,2.291,0,0,1,5,2,2.285,2.285,0,0,1,2.5,4,2.3,2.3,0,0,1,0,2,2.3,2.3,0,0,1,2.5,0Z" transform="translate(33 83)" fill="#12ca70"/><path d="M41.773,29.983,0,13.488,13.184,0l.05.02L55,16.514l-.088.088L41.822,30Z" transform="translate(22 76)" fill="#231f20"/><path d="M38.255,24.981,0,10.446,10.713,0l.048.019L49,14.539,38.3,25Z" transform="translate(26 78)" fill="#231f20"/><path d="M35.194,22.98,0,8.973,8.747,0,8.8.02l15.14,6.023L44,14.027,35.244,23Z" transform="translate(28 79)" fill="#231f20"/><path d="M3.146,7.522C1.205,6.818,0,5.462,0,4,0,1.795,2.69,0,6,0A8.309,8.309,0,0,1,8.853.478C10.793,1.174,12,2.525,12,4c-.009,2.2-2.694,4-6,4H5.951A8.429,8.429,0,0,1,3.146,7.522Z" transform="translate(43 86)" fill="#231f20"/><path d="M0,2A2.3,2.3,0,0,1,2.506,0,2.287,2.287,0,0,1,5,2,2.291,2.291,0,0,1,2.506,4,2.3,2.3,0,0,1,0,2Z" transform="translate(62 94)" fill="#231f20"/><path d="M0,2A2.294,2.294,0,0,1,2.5,0,2.3,2.3,0,0,1,5,2,2.3,2.3,0,0,1,2.5,4,2.291,2.291,0,0,1,0,2Z" transform="translate(33 83)" fill="#231f20"/><path d="M0,13.447,12.891,0,54,16.554,41.118,30Z" transform="translate(23 75)" fill="#12ca70"/><path d="M0,10.4,10.651,0,49,14.584,38.362,25Z" transform="translate(26 77)" fill="#12ca70"/><path d="M0,9.338.452,8.186a7.235,7.235,0,0,0,2.659.483c3.073,0,5.567-1.8,5.567-4.019A4.051,4.051,0,0,0,5.764,1.116L6.19,0,26,7.56,17.434,16Z" transform="translate(46 83)" fill="#12ca70"/><path d="M2.507,0A2.288,2.288,0,0,1,5,2,2.294,2.294,0,0,1,2.507,4,2.294,2.294,0,0,1,0,2,2.282,2.282,0,0,1,2.507,0Z" transform="translate(62 93)" fill="#12ca70"/><path d="M8.861.473c1.87.675,3.139,2,3.139,3.521C12,6.2,9.313,8,6,8a8.379,8.379,0,0,1-2.863-.481C1.271,6.835,0,5.515,0,3.995,0,1.779,2.687,0,6,0A8.341,8.341,0,0,1,8.861.473Z" transform="translate(43 85)" fill="#12ca70"/><path d="M0,8.392,8.709,0,24,5.722l-.434,1.11a7.485,7.485,0,0,0-2.708-.481c-3.135,0-5.674,1.784-5.674,3.986,0,1.517,1.2,2.835,2.968,3.517L17.693,15Z" transform="translate(28 79)" fill="#12ca70"/><path d="M2.5,0A2.291,2.291,0,0,1,5,2,2.285,2.285,0,0,1,2.5,4,2.3,2.3,0,0,1,0,2,2.3,2.3,0,0,1,2.5,0Z" transform="translate(33 82)" fill="#12ca70"/><path d="M41.773,29.98,0,13.487,13.184,0l.05.02L55,16.511l-.088.091L41.822,30Z" transform="translate(22 75)" fill="#231f20"/><path d="M38.255,24.983,0,10.446,10.713,0l.048.017L49,14.539,38.3,25Z" transform="translate(26 77)" fill="#231f20"/><path d="M35.2,22.982,0,8.974,8.745,0l.049.018L23.94,6.038,44,14.027,35.246,23Z" transform="translate(28 79)" fill="#231f20"/><path d="M3.146,7.524C1.205,6.819,0,5.464,0,4c0-2.2,2.69-4,6-4A8.288,8.288,0,0,1,8.853.486C10.793,1.183,12,2.532,12,4.007,11.991,6.206,9.306,8,6,8H5.951A8.453,8.453,0,0,1,3.146,7.524Z" transform="translate(43 85)" fill="#231f20"/><path d="M0,2A2.3,2.3,0,0,1,2.506,0,2.287,2.287,0,0,1,5,2,2.291,2.291,0,0,1,2.506,4,2.3,2.3,0,0,1,0,2Z" transform="translate(62 93)" fill="#231f20"/><path d="M0,2A2.3,2.3,0,0,1,2.5,0,2.3,2.3,0,0,1,5,2,2.3,2.3,0,0,1,2.5,4,2.293,2.293,0,0,1,0,2Z" transform="translate(33 82)" fill="#231f20"/><path d="M0,13.445,12.891,0,54,16.555,41.118,30Z" transform="translate(23 73)" fill="#12ca70"/><path d="M0,10.4,10.651,0,49,14.583,38.362,25Z" transform="translate(26 75)" fill="#12ca70"/><path d="M0,9.34.452,8.186a7.268,7.268,0,0,0,2.659.475c3.073,0,5.567-1.8,5.567-4.009A4.05,4.05,0,0,0,5.764,1.116L6.19,0,26,7.559,17.434,16Z" transform="translate(46 83)" fill="#12ca70"/><path d="M2.507,0A2.288,2.288,0,0,1,5,2,2.294,2.294,0,0,1,2.507,4,2.3,2.3,0,0,1,0,2,2.291,2.291,0,0,1,2.507,0Z" transform="translate(62 92)" fill="#12ca70"/><path d="M8.861.482C10.731,1.157,12,2.475,12,4c0,2.21-2.687,4-6,4a8.377,8.377,0,0,1-2.863-.482C1.271,6.835,0,5.516,0,4,0,1.777,2.687,0,6,0A8.337,8.337,0,0,1,8.861.482Z" transform="translate(43 84)" fill="#12ca70"/><path d="M0,8.387,8.712,0,24,5.719l-.434,1.111a7.5,7.5,0,0,0-2.7-.482c-3.137,0-5.676,1.784-5.676,3.989,0,1.517,1.2,2.834,2.969,3.516L17.7,15Z" transform="translate(28 77)" fill="#12ca70"/><path d="M2.5,0A2.293,2.293,0,0,1,5,2.007,2.283,2.283,0,0,1,2.5,4,2.3,2.3,0,0,1,0,2.009,2.309,2.309,0,0,1,2.5,0Z" transform="translate(33 80)" fill="#12ca70"/><path d="M41.773,29.98,0,13.488,13.184,0l.05.02L55,16.511l-.088.091L41.822,30Z" transform="translate(22 73)" fill="#231f20"/><path d="M38.255,24.981,0,10.45,10.713,0l.048.019L49,14.54,38.3,25Z" transform="translate(26 75)" fill="#231f20"/><path d="M35.2,22.98,0,8.973,8.745,0l.049.02L23.94,6.04,44,14.025,35.246,23Z" transform="translate(28 77)" fill="#231f20"/><path d="M3.146,7.522C1.205,6.818,0,5.462,0,4,0,1.795,2.69,0,6,0A8.309,8.309,0,0,1,8.853.478C10.793,1.174,12,2.524,12,4c-.009,2.2-2.694,4-6,4H5.951A8.429,8.429,0,0,1,3.146,7.522Z" transform="translate(43 84)" fill="#231f20"/><path d="M0,2A2.3,2.3,0,0,1,2.506,0,2.285,2.285,0,0,1,5,2,2.289,2.289,0,0,1,2.506,4,2.3,2.3,0,0,1,0,2Z" transform="translate(62 92)" fill="#231f20"/><path d="M0,2A2.3,2.3,0,0,1,2.5,0,2.3,2.3,0,0,1,5,2,2.3,2.3,0,0,1,2.5,4,2.293,2.293,0,0,1,0,2Z" transform="translate(33 80)" fill="#231f20"/><path d="M0,13.447,12.891,0,54,16.554,41.118,30Z" transform="translate(23 72)" fill="#12ca70"/><path d="M0,10.4,10.65,0,49,14.583,38.362,25Z" transform="translate(26 74)" fill="#12ca70"/><path d="M0,9.337.452,8.182a7.272,7.272,0,0,0,2.659.483c3.073,0,5.567-1.8,5.567-4.011A4.053,4.053,0,0,0,5.764,1.117L6.19,0,26,7.565,17.434,16Z" transform="translate(46 83)" fill="#12ca70"/><path d="M2.507,0A2.29,2.29,0,0,1,5,2,2.3,2.3,0,0,1,2.507,4,2.3,2.3,0,0,1,0,2,2.291,2.291,0,0,1,2.507,0Z" transform="translate(62 91)" fill="#12ca70"/><path d="M8.861.482C10.731,1.157,12,2.477,12,4c0,2.21-2.687,4-6,4a8.377,8.377,0,0,1-2.863-.482C1.271,6.837,0,5.516,0,4,0,1.779,2.687,0,6,0A8.337,8.337,0,0,1,8.861.482Z" transform="translate(43 82)" fill="#12ca70"/><path d="M0,8.392,8.712,0,24,5.722l-.434,1.11a7.5,7.5,0,0,0-2.7-.481c-3.137,0-5.676,1.784-5.676,3.986,0,1.517,1.2,2.835,2.969,3.514L17.7,15Z" transform="translate(28 76)" fill="#12ca70"/><path d="M2.5,0A2.291,2.291,0,0,1,5,2,2.285,2.285,0,0,1,2.5,4,2.3,2.3,0,0,1,0,2,2.3,2.3,0,0,1,2.5,0Z" transform="translate(33 80)" fill="#12ca70"/><path d="M41.773,29.983,0,13.488,13.184,0l.05.02L55,16.514l-.088.088L41.822,30Z" transform="translate(22 72)" fill="#231f20"/><path d="M38.255,24.981,0,10.448,10.713,0l.048.019L49,14.538,38.3,25Z" transform="translate(26 74)" fill="#231f20"/><path d="M35.2,22.98,0,8.975,8.745,0l.049.02L23.94,6.04,44,14.025,35.246,23Z" transform="translate(28 76)" fill="#231f20"/><path d="M3.146,7.529C1.205,6.825,0,5.468,0,4,0,1.8,2.69,0,6,0a8.263,8.263,0,0,1,2.855.47C10.793,1.167,12,2.52,12,4,11.991,6.2,9.306,8,6,8H5.928A8.4,8.4,0,0,1,3.146,7.529Z" transform="translate(43 82)" fill="#231f20"/><path d="M0,2A2.3,2.3,0,0,1,2.506,0,2.287,2.287,0,0,1,5,2,2.291,2.291,0,0,1,2.506,4,2.3,2.3,0,0,1,0,2Z" transform="translate(62 91)" fill="#231f20"/><path d="M0,2A2.294,2.294,0,0,1,2.5,0,2.3,2.3,0,0,1,5,2,2.3,2.3,0,0,1,2.5,4,2.291,2.291,0,0,1,0,2Z" transform="translate(33 80)" fill="#231f20"/><path d="M0,13.444,12.891,0,54,16.551,41.118,30Z" transform="translate(23 71)" fill="#12ca70"/><path d="M0,10.408,10.652,0,49,14.588,38.362,25Z" transform="translate(26 74)" fill="#12ca70"/><path d="M0,9.343.452,8.19a7.253,7.253,0,0,0,2.659.483c3.073,0,5.567-1.8,5.567-4.021A4.051,4.051,0,0,0,5.764,1.117L6.19,0,26,7.567,17.434,16Z" transform="translate(46 82)" fill="#12ca70"/><path d="M2.507,0A2.288,2.288,0,0,1,5,2,2.294,2.294,0,0,1,2.507,4,2.3,2.3,0,0,1,0,2,2.291,2.291,0,0,1,2.507,0Z" transform="translate(62 89)" fill="#12ca70"/><path d="M8.861.473c1.87.675,3.139,2,3.139,3.521C12,6.2,9.313,8,6,8a8.379,8.379,0,0,1-2.863-.481C1.271,6.835,0,5.515,0,3.995,0,1.779,2.687,0,6,0A8.341,8.341,0,0,1,8.861.473Z" transform="translate(43 82)" fill="#12ca70"/><path d="M0,8.392,8.709,0,24,5.71l-.434,1.11a7.5,7.5,0,0,0-2.7-.481c-3.136,0-5.674,1.784-5.674,3.986,0,1.517,1.2,2.835,2.967,3.517L17.693,15Z" transform="translate(28 75)" fill="#12ca70"/><path d="M2.5,0A2.291,2.291,0,0,1,5,2,2.285,2.285,0,0,1,2.5,4,2.3,2.3,0,0,1,0,2,2.3,2.3,0,0,1,2.5,0Z" transform="translate(33 79)" fill="#12ca70"/><path d="M41.773,29.98,0,13.487,13.184,0l.05.018L55,16.511l-.088.091L41.822,30Z" transform="translate(22 71)" fill="#231f20"/><path d="M38.255,24.981,0,10.446,10.713,0l.048.017L49,14.53,38.3,25Z" transform="translate(26 74)" fill="#231f20"/><path d="M35.2,22.98,0,8.975,8.745,0l.049.02L23.94,6.035,44,14.023,35.246,23Z" transform="translate(28 75)" fill="#231f20"/><path d="M3.146,7.522C1.205,6.818,0,5.462,0,4,0,1.8,2.69,0,6,0A8.309,8.309,0,0,1,8.853.478C10.793,1.176,12,2.525,12,4c-.009,2.2-2.694,4-6,4H5.951A8.429,8.429,0,0,1,3.146,7.522Z" transform="translate(43 82)" fill="#231f20"/><path d="M0,2A2.3,2.3,0,0,1,2.506,0,2.287,2.287,0,0,1,5,2,2.291,2.291,0,0,1,2.506,4,2.3,2.3,0,0,1,0,2Z" transform="translate(62 89)" fill="#231f20"/><path d="M0,2A2.3,2.3,0,0,1,2.5,0,2.3,2.3,0,0,1,5,2,2.3,2.3,0,0,1,2.5,4,2.293,2.293,0,0,1,0,2Z" transform="translate(33 79)" fill="#231f20"/><path d="M0,13.445,12.891,0,54,16.553,41.118,30Z" transform="translate(23 71)" fill="#12ca70"/><path d="M0,10.394,10.651,0,49,14.578,38.362,25Z" transform="translate(26 73)" fill="#12ca70"/><path d="M0,9.335.452,8.182a7.272,7.272,0,0,0,2.659.483c3.073,0,5.567-1.8,5.567-4.011A4.049,4.049,0,0,0,5.764,1.117L6.19,0,26,7.555,17.434,16Z" transform="translate(46 81)" fill="#12ca70"/><path d="M2.507,0A2.287,2.287,0,0,1,5,1.993,2.3,2.3,0,0,1,2.507,4,2.306,2.306,0,0,1,0,1.993,2.29,2.29,0,0,1,2.507,0Z" transform="translate(62 89)" fill="#12ca70"/><path d="M8.861.492C10.731,1.164,12,2.483,12,4.009,12,6.217,9.313,8,6,8a8.387,8.387,0,0,1-2.863-.481C1.271,6.836,0,5.519,0,4,0,1.785,2.687,0,6,0A8.294,8.294,0,0,1,8.861.492Z" transform="translate(43 82)" fill="#12ca70"/><path d="M0,8.392,8.712,0,24,5.716l-.434,1.11a7.463,7.463,0,0,0-2.7-.482c-3.137,0-5.676,1.783-5.676,4,0,1.517,1.2,2.832,2.969,3.514L17.7,15Z" transform="translate(28 74)" fill="#12ca70"/><path d="M2.5,0A2.291,2.291,0,0,1,5,2.007,2.281,2.281,0,0,1,2.5,4,2.291,2.291,0,0,1,0,2.017,2.313,2.313,0,0,1,2.5,0Z" transform="translate(33 79)" fill="#12ca70"/><path d="M41.773,29.98,0,13.488,13.184,0l.05.02L55,16.511l-.088.091L41.822,30Z" transform="translate(22 71)" fill="#231f20"/><path d="M38.255,24.981,0,10.445,10.713,0l.048.019L49,14.538,38.3,25Z" transform="translate(26 73)" fill="#231f20"/><path d="M35.2,22.98,0,8.973,8.754,0,8.8.018,23.94,6.04,44,14.025,35.246,23Z" transform="translate(28 73)" fill="#231f20"/><path d="M3.146,7.522C1.205,6.818,0,5.462,0,4,0,1.795,2.69,0,6,0A8.309,8.309,0,0,1,8.853.478C10.793,1.174,12,2.524,12,4c-.009,2.206-2.694,4-6,4h-.04A8.478,8.478,0,0,1,3.146,7.522Z" transform="translate(43 82)" fill="#231f20"/><path d="M0,2A2.3,2.3,0,0,1,2.506,0,2.285,2.285,0,0,1,5,2,2.289,2.289,0,0,1,2.506,4,2.3,2.3,0,0,1,0,2Z" transform="translate(62 89)" fill="#231f20"/><path d="M0,2A2.3,2.3,0,0,1,2.5,0,2.3,2.3,0,0,1,5,2,2.3,2.3,0,0,1,2.5,4,2.293,2.293,0,0,1,0,2Z" transform="translate(33 79)" fill="#231f20"/><path d="M0,13.448,12.891,0,54,16.555,41.118,30Z" transform="translate(23 70)" fill="#12ca70"/><path d="M0,10.4,10.65,0,49,14.583,38.362,25Z" transform="translate(26 72)" fill="#12ca70"/><path d="M0,9.337.452,8.182a7.272,7.272,0,0,0,2.659.483c3.073,0,5.567-1.8,5.567-4.011A4.051,4.051,0,0,0,5.764,1.117L6.19,0,26,7.555,17.434,16Z" transform="translate(46 79)" fill="#12ca70"/><path d="M2.507,0A2.288,2.288,0,0,1,5,2,2.294,2.294,0,0,1,2.507,4,2.3,2.3,0,0,1,0,2,2.291,2.291,0,0,1,2.507,0Z" transform="translate(62 88)" fill="#12ca70"/><path d="M8.861.482C10.738,1.151,12,2.475,12,4c0,2.21-2.687,4-6,4a8.377,8.377,0,0,1-2.863-.482C1.271,6.837,0,5.516,0,4,0,1.779,2.687,0,6,0A8.337,8.337,0,0,1,8.861.482Z" transform="translate(43 80)" fill="#12ca70"/><path d="M0,8.392,8.712,0,24,5.723l-.434,1.11a7.519,7.519,0,0,0-2.7-.481c-3.137,0-5.676,1.784-5.676,3.986,0,1.516,1.2,2.834,2.969,3.514L17.7,15Z" transform="translate(28 74)" fill="#12ca70"/><path d="M2.5,0A2.291,2.291,0,0,1,5,2,2.285,2.285,0,0,1,2.5,4,2.307,2.307,0,0,1,0,1.991,2.293,2.293,0,0,1,2.5,0Z" transform="translate(33 78)" fill="#12ca70"/><path d="M41.773,29.98,0,13.488,13.184,0l.05.02L55,16.511l-.088.091L41.822,30Z" transform="translate(22 70)" fill="#231f20"/><path d="M38.255,24.981,0,10.448,10.713,0l.048.019L49,14.538,38.3,25Z" transform="translate(26 72)" fill="#231f20"/><path d="M35.2,22.98,0,8.975,8.745,0l.049.02L23.94,6.04,44,14.025,35.246,23Z" transform="translate(28 72)" fill="#231f20"/><path d="M3.146,7.522C1.205,6.818,0,5.462,0,4,0,1.795,2.69,0,6,0A8.286,8.286,0,0,1,8.853.476C10.793,1.173,12,2.521,12,4,11.991,6.2,9.306,8,6,8H5.951A8.429,8.429,0,0,1,3.146,7.522Z" transform="translate(43 80)" fill="#231f20"/><path d="M0,2A2.3,2.3,0,0,1,2.506,0,2.285,2.285,0,0,1,5,2,2.289,2.289,0,0,1,2.506,4,2.3,2.3,0,0,1,0,2Z" transform="translate(62 88)" fill="#231f20"/><path d="M0,2A2.294,2.294,0,0,1,2.5,0,2.3,2.3,0,0,1,5,2,2.3,2.3,0,0,1,2.5,4,2.291,2.291,0,0,1,0,2Z" transform="translate(33 78)" fill="#231f20"/><path d="M0,13.447,12.891,0,54,16.554,41.118,30Z" transform="translate(23 68)" fill="#12ca70"/><path d="M0,10.4,10.65,0,49,14.585,38.362,25Z" transform="translate(26 71)" fill="#12ca70"/><path d="M0,9.336.452,8.18a7.2,7.2,0,0,0,2.659.486c3.073,0,5.567-1.8,5.567-4.012A4.054,4.054,0,0,0,5.764,1.117L6.19,0,26,7.564,17.434,16Z" transform="translate(46 78)" fill="#12ca70"/><path d="M2.507,0A2.288,2.288,0,0,1,5,1.993,2.3,2.3,0,0,1,2.507,4,2.3,2.3,0,0,1,0,1.993,2.287,2.287,0,0,1,2.507,0Z" transform="translate(62 87)" fill="#12ca70"/><path d="M8.861.484c1.87.675,3.139,2,3.139,3.522C12,6.215,9.313,8,6,8a8.328,8.328,0,0,1-2.863-.484C1.271,6.835,0,5.515,0,3.995,0,1.779,2.687,0,6,0A8.338,8.338,0,0,1,8.861.484Z" transform="translate(43 79)" fill="#12ca70"/><path d="M0,8.4,8.709,0,24,5.717l-.434,1.111a7.479,7.479,0,0,0-2.7-.481c-3.136,0-5.674,1.784-5.674,3.989,0,1.517,1.2,2.836,2.967,3.516L17.7,15Z" transform="translate(28 72)" fill="#12ca70"/><path d="M2.5,0A2.291,2.291,0,0,1,5,2,2.285,2.285,0,0,1,2.5,4,2.3,2.3,0,0,1,0,2,2.3,2.3,0,0,1,2.5,0Z" transform="translate(33 76)" fill="#12ca70"/><path d="M41.773,29.983,0,13.488,13.184,0l.05.02L55,16.522l-.088.091L41.822,30Z" transform="translate(22 68)" fill="#231f20"/><path d="M38.255,24.981,0,10.447,10.713,0l.048.019L49,14.539,38.3,25Z" transform="translate(26 71)" fill="#231f20"/><path d="M35.2,22.98,0,8.975,8.745,0l.049.02L23.94,6.04,44,14.027,35.246,23Z" transform="translate(28 71)" fill="#231f20"/><path d="M3.146,7.522C1.205,6.818,0,5.462,0,4,0,1.795,2.69,0,6,0A8.309,8.309,0,0,1,8.853.478C10.793,1.176,12,2.525,12,4c-.009,2.2-2.694,4-6,4H5.951A8.429,8.429,0,0,1,3.146,7.522Z" transform="translate(43 79)" fill="#231f20"/><path d="M0,2A2.3,2.3,0,0,1,2.506,0,2.287,2.287,0,0,1,5,2,2.291,2.291,0,0,1,2.506,4,2.3,2.3,0,0,1,0,2Z" transform="translate(62 87)" fill="#231f20"/><path d="M0,2A2.294,2.294,0,0,1,2.5,0,2.3,2.3,0,0,1,5,2,2.3,2.3,0,0,1,2.5,4,2.291,2.291,0,0,1,0,2Z" transform="translate(33 76)" fill="#231f20"/><path d="M0,13.445,12.891,0,54,16.553,41.118,30Z" transform="translate(23 68)" fill="#12ca70"/><path d="M0,10.4,10.651,0,49,14.584,38.362,25Z" transform="translate(26 70)" fill="#12ca70"/><path d="M0,9.336.452,8.183a7.272,7.272,0,0,0,2.659.483c3.073,0,5.567-1.8,5.567-4.011A4.053,4.053,0,0,0,5.764,1.117L6.19,0,26,7.556,17.434,16Z" transform="translate(46 77)" fill="#12ca70"/><path d="M2.507,0A2.288,2.288,0,0,1,5,2,2.294,2.294,0,0,1,2.507,4,2.3,2.3,0,0,1,0,1.986,2.277,2.277,0,0,1,2.507,0Z" transform="translate(62 86)" fill="#12ca70"/><path d="M8.861.489C10.731,1.164,12,2.483,12,4.009,12,6.215,9.313,8,6,8a8.387,8.387,0,0,1-2.863-.481C1.271,6.836,0,5.519,0,4,0,1.785,2.687,0,6,0A8.344,8.344,0,0,1,8.861.489Z" transform="translate(43 77)" fill="#12ca70"/><path d="M0,8.392,8.709,0,24,5.713l-.434,1.11a7.5,7.5,0,0,0-2.7-.48c-3.136,0-5.674,1.783-5.674,4,0,1.517,1.2,2.832,2.967,3.514L17.7,15Z" transform="translate(28 71)" fill="#12ca70"/><path d="M2.5,0A2.292,2.292,0,0,1,5,2.007,2.282,2.282,0,0,1,2.5,4,2.3,2.3,0,0,1,0,2.007,2.3,2.3,0,0,1,2.5,0Z" transform="translate(33 75)" fill="#12ca70"/><path d="M41.773,29.98,0,13.482,13.184,0l.05.02L55,16.518l-.088.09L41.822,30Z" transform="translate(22 68)" fill="#231f20"/><path d="M38.255,24.983,0,10.446,10.713,0l.048.017L49,14.539,38.3,25Z" transform="translate(26 70)" fill="#231f20"/><path d="M35.2,22.982,0,8.974,8.745,0l.049.018L23.94,6.043,44,14.031,35.246,23Z" transform="translate(28 70)" fill="#231f20"/><path d="M3.146,7.524C1.205,6.819,0,5.464,0,4,0,1.795,2.69,0,6,0A8.309,8.309,0,0,1,8.853.478C10.793,1.174,12,2.524,12,4c-.009,2.2-2.694,4-6,4H5.951A8.453,8.453,0,0,1,3.146,7.524Z" transform="translate(43 77)" fill="#231f20"/><path d="M0,2A2.3,2.3,0,0,1,2.506,0,2.287,2.287,0,0,1,5,2,2.291,2.291,0,0,1,2.506,4,2.3,2.3,0,0,1,0,2Z" transform="translate(62 86)" fill="#231f20"/><path d="M0,2A2.3,2.3,0,0,1,2.5,0,2.3,2.3,0,0,1,5,2,2.3,2.3,0,0,1,2.5,4,2.293,2.293,0,0,1,0,2Z" transform="translate(33 75)" fill="#231f20"/><path d="M0,13.447,12.892,0,54,16.554,41.121,30Z" transform="translate(9 90)" fill="#12ca70"/><path d="M0,10.4,10.651,0,49,14.58,38.362,25Z" transform="translate(11 93)" fill="#12ca70"/><path d="M0,9.334.45,8.183a7.262,7.262,0,0,0,2.661.482c3.074,0,5.569-1.8,5.569-4.018A4.052,4.052,0,0,0,5.765,1.116L6.191,0,26,7.565,17.433,16Z" transform="translate(31 101)" fill="#12ca70"/><path d="M2.5,0A2.29,2.29,0,0,1,5,2,2.3,2.3,0,0,1,2.5,4,2.3,2.3,0,0,1,0,2,2.287,2.287,0,0,1,2.5,0Z" transform="translate(47 108)" fill="#12ca70"/><path d="M8.861.473c1.868.675,3.139,2,3.139,3.521C12,6.2,9.313,8,6,8a8.391,8.391,0,0,1-2.866-.481C1.271,6.835,0,5.515,0,3.995,0,1.779,2.687,0,6,0A8.351,8.351,0,0,1,8.861.473Z" transform="translate(29 101)" fill="#12ca70"/><path d="M0,8.392,8.716,0,24,5.713l-.435,1.11a7.523,7.523,0,0,0-2.7-.48c-3.137,0-5.678,1.783-5.678,3.986,0,1.517,1.2,2.835,2.968,3.516L17.708,15Z" transform="translate(14 94)" fill="#12ca70"/><path d="M2.5,0A2.292,2.292,0,0,1,5,2,2.287,2.287,0,0,1,2.5,4,2.3,2.3,0,0,1,0,2,2.3,2.3,0,0,1,2.5,0Z" transform="translate(19 98)" fill="#12ca70"/><path d="M41.774,29.98,0,13.487,13.185,0l.049.018L55,16.511l-.086.091L41.824,30Z" transform="translate(8 90)" fill="#231f20"/><path d="M38.255,24.983,0,10.446,10.711,0l.049.017L49,14.547,38.3,25Z" transform="translate(11 93)" fill="#231f20"/><path d="M35.2,22.98,0,8.977,8.754,0,8.8.02,23.941,6.039,44,14.026,35.248,23Z" transform="translate(14 95)" fill="#231f20"/><path d="M3.148,7.522C1.208,6.818,0,5.462,0,4c0-2.2,2.694-4,6-4A8.352,8.352,0,0,1,8.852.476C10.792,1.174,12,2.524,12,4,12,6.206,9.309,8,6,8H5.958A8.455,8.455,0,0,1,3.148,7.522Z" transform="translate(29 101)" fill="#231f20"/><path d="M0,2A2.3,2.3,0,0,1,2.5,0,2.29,2.29,0,0,1,5,2,2.292,2.292,0,0,1,2.5,4,2.3,2.3,0,0,1,0,2Z" transform="translate(47 108)" fill="#231f20"/><path d="M0,2A2.294,2.294,0,0,1,2.5,0,2.3,2.3,0,0,1,5,2,2.3,2.3,0,0,1,2.5,4,2.293,2.293,0,0,1,0,2Z" transform="translate(19 98)" fill="#231f20"/><path d="M0,13.445,12.892,0,54,16.553,41.121,30Z" transform="translate(9 90)" fill="#12ca70"/><path d="M0,10.4,10.651,0,49,14.583,38.362,25Z" transform="translate(11 93)" fill="#12ca70"/><path d="M0,9.329.45,8.177a7.282,7.282,0,0,0,2.661.483c3.074,0,5.569-1.8,5.569-4.009A4.051,4.051,0,0,0,5.765,1.116L6.191,0,26,7.559,17.433,16Z" transform="translate(31 100)" fill="#12ca70"/><path d="M2.5,0A2.29,2.29,0,0,1,5,2,2.3,2.3,0,0,1,2.5,4,2.3,2.3,0,0,1,0,2,2.287,2.287,0,0,1,2.5,0Z" transform="translate(47 108)" fill="#12ca70"/><path d="M8.861.492C10.729,1.164,12,2.483,12,4.009,12,6.217,9.313,8,6,8a8.4,8.4,0,0,1-2.866-.481C1.271,6.836,0,5.519,0,4,0,1.785,2.687,0,6,0A8.3,8.3,0,0,1,8.861.492Z" transform="translate(29 101)" fill="#12ca70"/><path d="M0,8.388,8.716,0,24,5.709l-.435,1.111a7.464,7.464,0,0,0-2.7-.482c-3.137,0-5.678,1.785-5.678,4,0,1.518,1.2,2.835,2.968,3.517L17.708,15Z" transform="translate(14 93)" fill="#12ca70"/><path d="M2.5,0A2.292,2.292,0,0,1,5,2.007,2.283,2.283,0,0,1,2.5,4,2.3,2.3,0,0,1,0,2.007,2.3,2.3,0,0,1,2.5,0Z" transform="translate(19 98)" fill="#12ca70"/><path d="M41.774,29.98,0,13.488,13.185,0l.049.02L55,16.511l-.086.091L41.824,30Z" transform="translate(8 90)" fill="#231f20"/><path d="M38.255,24.981,0,10.445,10.711,0l.049.019L49,14.538,38.3,25Z" transform="translate(11 93)" fill="#231f20"/><path d="M35.205,22.98,0,8.973,8.748,0l.047.02L23.937,6.04,44,14.025,35.255,23Z" transform="translate(14 93)" fill="#231f20"/><path d="M3.148,7.522C1.208,6.818,0,5.462,0,4,0,1.795,2.694,0,6,0A8.307,8.307,0,0,1,8.852.478C10.792,1.174,12,2.524,12,4,12,6.206,9.309,8,6,8h-.04A8.5,8.5,0,0,1,3.148,7.522Z" transform="translate(29 101)" fill="#231f20"/><path d="M0,2A2.3,2.3,0,0,1,2.5,0,2.288,2.288,0,0,1,5,2,2.29,2.29,0,0,1,2.5,4,2.3,2.3,0,0,1,0,2Z" transform="translate(47 108)" fill="#231f20"/><path d="M0,2A2.294,2.294,0,0,1,2.5,0,2.3,2.3,0,0,1,5,2,2.3,2.3,0,0,1,2.5,4,2.293,2.293,0,0,1,0,2Z" transform="translate(19 98)" fill="#231f20"/><path d="M0,13.447,12.892,0,54,16.554,41.115,30Z" transform="translate(9 90)" fill="#12ca70"/><path d="M0,10.4,10.65,0,49,14.583,38.362,25Z" transform="translate(11 92)" fill="#12ca70"/><path d="M0,9.331.45,8.177a7.282,7.282,0,0,0,2.661.483c3.074,0,5.569-1.8,5.569-4.009A4.053,4.053,0,0,0,5.765,1.116L6.191,0,26,7.559,17.433,16Z" transform="translate(31 99)" fill="#12ca70"/><path d="M2.5,0A2.29,2.29,0,0,1,5,2,2.3,2.3,0,0,1,2.5,4,2.3,2.3,0,0,1,0,2,2.287,2.287,0,0,1,2.5,0Z" transform="translate(47 107)" fill="#12ca70"/><path d="M8.861.482C10.729,1.157,12,2.475,12,4c0,2.21-2.687,4-6,4a8.389,8.389,0,0,1-2.866-.482C1.271,6.837,0,5.516,0,4,0,1.779,2.687,0,6,0A8.347,8.347,0,0,1,8.861.482Z" transform="translate(29 99)" fill="#12ca70"/><path d="M0,8.392,8.716,0,24,5.715l-.435,1.11a7.524,7.524,0,0,0-2.7-.481c-3.137,0-5.678,1.783-5.678,3.986,0,1.517,1.2,2.834,2.968,3.514L17.708,15Z" transform="translate(14 93)" fill="#12ca70"/><path d="M2.5,0A2.292,2.292,0,0,1,5,2,2.287,2.287,0,0,1,2.5,4,2.3,2.3,0,0,1,0,2,2.3,2.3,0,0,1,2.5,0Z" transform="translate(19 97)" fill="#12ca70"/><path d="M41.774,29.98,0,13.488,13.185,0l.049.02L55,16.519l-.086.09L41.824,30Z" transform="translate(8 90)" fill="#231f20"/><path d="M38.255,24.981,0,10.449,10.711,0l.049.019L49,14.539,38.3,25Z" transform="translate(11 92)" fill="#231f20"/><path d="M35.2,22.98,17.633,15.993,0,8.975,8.748,0l.047.02L23.937,6.04,44,14.025,35.246,23Z" transform="translate(14 92)" fill="#231f20"/><path d="M3.148,7.522C1.208,6.818,0,5.462,0,4,0,1.795,2.694,0,6,0A8.307,8.307,0,0,1,8.852.478C10.792,1.174,12,2.525,12,4,12,6.206,9.309,8,6,8H5.958A8.455,8.455,0,0,1,3.148,7.522Z" transform="translate(29 99)" fill="#231f20"/><path d="M0,2A2.3,2.3,0,0,1,2.5,0,2.288,2.288,0,0,1,5,2,2.29,2.29,0,0,1,2.5,4,2.3,2.3,0,0,1,0,2Z" transform="translate(47 107)" fill="#231f20"/><path d="M0,2A2.292,2.292,0,0,1,2.5,0,2.3,2.3,0,0,1,5,2,2.3,2.3,0,0,1,2.5,4,2.291,2.291,0,0,1,0,2Z" transform="translate(19 97)" fill="#231f20"/><path d="M0,13.447,12.892,0,54,16.554,41.115,30Z" transform="translate(9 88)" fill="#12ca70"/><path d="M0,10.4,10.65,0,49,14.585,38.362,25Z" transform="translate(11 91)" fill="#12ca70"/><path d="M0,9.34.45,8.186a7.247,7.247,0,0,0,2.661.486c3.074,0,5.569-1.8,5.569-4.02A4.056,4.056,0,0,0,5.765,1.116L6.191,0,26,7.57,17.433,16Z" transform="translate(31 98)" fill="#12ca70"/><path d="M2.5,0A2.29,2.29,0,0,1,5,1.993,2.3,2.3,0,0,1,2.5,4,2.3,2.3,0,0,1,0,1.993,2.283,2.283,0,0,1,2.5,0Z" transform="translate(47 107)" fill="#12ca70"/><path d="M8.861.473c1.868.675,3.139,2,3.139,3.521C12,6.2,9.313,8,6,8a8.341,8.341,0,0,1-2.866-.484C1.271,6.835,0,5.515,0,3.995,0,1.779,2.687,0,6,0A8.351,8.351,0,0,1,8.861.473Z" transform="translate(29 98)" fill="#12ca70"/><path d="M0,8.392,8.716,0,24,5.713l-.435,1.11a7.523,7.523,0,0,0-2.7-.48c-3.137,0-5.678,1.783-5.678,3.986,0,1.517,1.2,2.835,2.968,3.515L17.708,15Z" transform="translate(14 93)" fill="#12ca70"/><path d="M2.5,0A2.294,2.294,0,0,1,5,2.009,2.281,2.281,0,0,1,2.5,4,2.3,2.3,0,0,1,0,2,2.293,2.293,0,0,1,2.5,0Z" transform="translate(19 95)" fill="#12ca70"/><path d="M41.774,29.98,0,13.487,13.185,0l.049.018L55,16.511l-.086.091L41.824,30Z" transform="translate(8 88)" fill="#231f20"/><path d="M38.255,24.981,0,10.448,10.711,0l.049.019L49,14.54,38.3,25Z" transform="translate(11 91)" fill="#231f20"/><path d="M35.2,22.98,0,8.975,8.746,0l.047.02L23.941,6.04,44,14.027,35.248,23Z" transform="translate(14 91)" fill="#231f20"/><path d="M3.148,7.522C1.208,6.818,0,5.462,0,4,0,1.795,2.694,0,6,0A8.307,8.307,0,0,1,8.852.478C10.792,1.176,12,2.525,12,4,12,6.206,9.309,8,6,8H5.958A8.455,8.455,0,0,1,3.148,7.522Z" transform="translate(29 98)" fill="#231f20"/><path d="M0,2A2.3,2.3,0,0,1,2.5,0,2.29,2.29,0,0,1,5,2,2.292,2.292,0,0,1,2.5,4,2.3,2.3,0,0,1,0,2Z" transform="translate(47 107)" fill="#231f20"/><path d="M0,2A2.292,2.292,0,0,1,2.5,0,2.3,2.3,0,0,1,5,2,2.3,2.3,0,0,1,2.5,4,2.291,2.291,0,0,1,0,2Z" transform="translate(19 95)" fill="#231f20"/><path d="M0,13.445,12.892,0,54,16.553,41.115,30Z" transform="translate(9 87)" fill="#12ca70"/><path d="M0,10.4,10.651,0,49,14.584,38.362,25Z" transform="translate(11 90)" fill="#12ca70"/><path d="M0,9.33.45,8.178a7.282,7.282,0,0,0,2.661.483c3.074,0,5.569-1.8,5.569-4.01A4.055,4.055,0,0,0,5.765,1.116L6.191,0,26,7.56,17.433,16Z" transform="translate(31 96)" fill="#12ca70"/><path d="M2.5,0A2.29,2.29,0,0,1,5,2,2.3,2.3,0,0,1,2.5,4,2.3,2.3,0,0,1,0,2,2.287,2.287,0,0,1,2.5,0Z" transform="translate(47 105)" fill="#12ca70"/><path d="M8.861.48C10.729,1.155,12,2.475,12,4c0,2.21-2.687,4-6,4a8.389,8.389,0,0,1-2.866-.482C1.271,6.835,0,5.516,0,4,0,1.777,2.687,0,6,0A8.347,8.347,0,0,1,8.861.48Z" transform="translate(29 97)" fill="#12ca70"/><path d="M0,8.391,8.712,0,24,5.716l-.434,1.11a7.523,7.523,0,0,0-2.7-.481c-3.137,0-5.676,1.783-5.676,3.986,0,1.516,1.2,2.831,2.967,3.513L17.71,15Z" transform="translate(14 92)" fill="#12ca70"/><path d="M2.5,0A2.292,2.292,0,0,1,5,2,2.287,2.287,0,0,1,2.5,4,2.3,2.3,0,0,1,0,2,2.3,2.3,0,0,1,2.5,0Z" transform="translate(19 94)" fill="#12ca70"/><path d="M41.774,29.98,0,13.488,13.185,0l.049.02L55,16.5l-.086.09L41.824,30Z" transform="translate(8 87)" fill="#231f20"/><path d="M38.255,24.983,0,10.446,10.711,0l.049.019L49,14.539,38.3,25Z" transform="translate(11 90)" fill="#231f20"/><path d="M35.2,22.982,0,8.974,8.746,0l.047.018,15.14,6.02L44,14.031,35.248,23Z" transform="translate(14 89)" fill="#231f20"/><path d="M3.148,7.524C1.208,6.819,0,5.464,0,4,0,1.795,2.694,0,6,0A8.307,8.307,0,0,1,8.852.478C10.792,1.174,12,2.524,12,4,12,6.206,9.309,8,6,8H5.957A8.475,8.475,0,0,1,3.148,7.524Z" transform="translate(29 97)" fill="#231f20"/><path d="M0,2A2.3,2.3,0,0,1,2.5,0,2.29,2.29,0,0,1,5,2,2.292,2.292,0,0,1,2.5,4,2.3,2.3,0,0,1,0,2Z" transform="translate(47 105)" fill="#231f20"/><path d="M0,2A2.294,2.294,0,0,1,2.5,0,2.3,2.3,0,0,1,5,2,2.3,2.3,0,0,1,2.5,4,2.293,2.293,0,0,1,0,2Z" transform="translate(19 94)" fill="#231f20"/><path d="M0,13.448,12.892,0,54,16.555,41.115,30Z" transform="translate(9 85)" fill="#12ca70"/><path d="M0,10.4,10.651,0,49,14.583,38.362,25Z" transform="translate(11 88)" fill="#12ca70"/><path d="M0,9.334.45,8.179a7.244,7.244,0,0,0,2.661.483c3.074,0,5.569-1.8,5.569-4.01A4.053,4.053,0,0,0,5.765,1.117L6.191,0,26,7.556,17.433,16Z" transform="translate(31 94)" fill="#12ca70"/><path d="M2.5,0A2.29,2.29,0,0,1,5,2,2.3,2.3,0,0,1,2.5,4,2.3,2.3,0,0,1,0,2,2.287,2.287,0,0,1,2.5,0Z" transform="translate(47 104)" fill="#12ca70"/><path d="M8.861.474C10.729,1.15,12,2.47,12,4c0,2.212-2.687,4-6,4a8.387,8.387,0,0,1-2.866-.463C1.271,6.854,0,5.532,0,4.01,0,1.79,2.687,0,6,0A8.341,8.341,0,0,1,8.861.474Z" transform="translate(29 96)" fill="#12ca70"/><path d="M0,8.384,8.7,0,24,5.7l-.435,1.111a7.484,7.484,0,0,0-2.7-.483c-3.137,0-5.678,1.785-5.678,4,0,1.519,1.2,2.838,2.968,3.518L17.708,15Z" transform="translate(14 90)" fill="#12ca70"/><path d="M2.5,0A2.294,2.294,0,0,1,5,2.005,2.286,2.286,0,0,1,2.5,4,2.3,2.3,0,0,1,0,2.005,2.3,2.3,0,0,1,2.5,0Z" transform="translate(19 94)" fill="#12ca70"/><path d="M41.774,29.98,0,13.491,13.185,0l.049.02L55,16.509l-.086.09L41.824,30Z" transform="translate(8 85)" fill="#231f20"/><path d="M38.255,24.981,0,10.453,10.711,0l.049.019L49,14.532,38.3,25Z" transform="translate(11 88)" fill="#231f20"/><path d="M35.205,22.98,0,8.975,8.748,0l.047.02L23.937,6.04,44,14.025,35.255,23Z" transform="translate(14 89)" fill="#231f20"/><path d="M3.148,7.522C1.208,6.818,0,5.462,0,4,0,1.795,2.694,0,6,0A8.307,8.307,0,0,1,8.852.478C10.792,1.174,12,2.524,12,4,12,6.206,9.309,8,6,8H5.958A8.455,8.455,0,0,1,3.148,7.522Z" transform="translate(29 96)" fill="#231f20"/><path d="M0,2A2.3,2.3,0,0,1,2.5,0,2.288,2.288,0,0,1,5,2,2.29,2.29,0,0,1,2.5,4,2.3,2.3,0,0,1,0,2Z" transform="translate(47 104)" fill="#231f20"/><path d="M0,2A2.294,2.294,0,0,1,2.5,0,2.3,2.3,0,0,1,5,2,2.3,2.3,0,0,1,2.5,4,2.293,2.293,0,0,1,0,2Z" transform="translate(19 94)" fill="#231f20"/><path d="M0,13.447,12.892,0,54,16.554,41.115,30Z" transform="translate(9 84)" fill="#12ca70"/><path d="M0,10.4,10.651,0,49,14.583,38.362,25Z" transform="translate(11 86)" fill="#12ca70"/><path d="M0,9.329.45,8.176a7.265,7.265,0,0,0,2.661.485c3.074,0,5.569-1.8,5.569-4.009A4.056,4.056,0,0,0,5.765,1.116L6.191,0,26,7.559,17.433,16Z" transform="translate(31 93)" fill="#12ca70"/><path d="M2.5,0A2.29,2.29,0,0,1,5,1.993,2.3,2.3,0,0,1,2.5,4,2.3,2.3,0,0,1,0,1.993,2.285,2.285,0,0,1,2.5,0Z" transform="translate(47 103)" fill="#12ca70"/><path d="M8.861.484c1.868.675,3.139,2,3.139,3.522C12,6.215,9.313,8,6,8a8.391,8.391,0,0,1-2.866-.484C1.271,6.835,0,5.515,0,3.995,0,1.779,2.687,0,6,0A8.348,8.348,0,0,1,8.861.484Z" transform="translate(29 95)" fill="#12ca70"/><path d="M0,8.392,8.716,0,24,5.713l-.435,1.11a7.523,7.523,0,0,0-2.7-.48c-3.137,0-5.678,1.783-5.678,3.986,0,1.517,1.2,2.835,2.968,3.515L17.708,15Z" transform="translate(14 88)" fill="#12ca70"/><path d="M2.5,0A2.292,2.292,0,0,1,5,2,2.287,2.287,0,0,1,2.5,4,2.3,2.3,0,0,1,0,2,2.3,2.3,0,0,1,2.5,0Z" transform="translate(19 92)" fill="#12ca70"/><path d="M41.774,29.983,0,13.488,13.185,0l.049.02L55,16.514l-.086.09L41.824,30Z" transform="translate(8 84)" fill="#231f20"/><path d="M38.255,24.981,0,10.448,10.711,0l.049.019L49,14.538,38.3,25Z" transform="translate(11 86)" fill="#231f20"/><path d="M35.2,22.98,0,8.977,8.748,0l.047.02L23.937,6.041,44,14.029,35.246,23Z" transform="translate(14 88)" fill="#231f20"/><path d="M3.148,7.522C1.208,6.818,0,5.462,0,4,0,1.795,2.694,0,6,0A8.307,8.307,0,0,1,8.852.478C10.792,1.174,12,2.525,12,4,12,6.206,9.309,8,6,8H5.958A8.455,8.455,0,0,1,3.148,7.522Z" transform="translate(29 95)" fill="#231f20"/><path d="M0,2A2.3,2.3,0,0,1,2.5,0,2.29,2.29,0,0,1,5,2,2.292,2.292,0,0,1,2.5,4,2.3,2.3,0,0,1,0,2Z" transform="translate(47 103)" fill="#231f20"/><path d="M0,2A2.292,2.292,0,0,1,2.5,0,2.3,2.3,0,0,1,5,2,2.3,2.3,0,0,1,2.5,4,2.291,2.291,0,0,1,0,2Z" transform="translate(19 92)" fill="#231f20"/><path d="M0,13.451,12.892,0,54,16.557,41.115,30Z" transform="translate(9 83)" fill="#12ca70"/><path d="M0,10.4,10.651,0,49,14.584,38.362,25Z" transform="translate(11 85)" fill="#12ca70"/><path d="M0,9.329.45,8.177a7.282,7.282,0,0,0,2.661.483c3.074,0,5.569-1.8,5.569-4.009A4.056,4.056,0,0,0,5.765,1.116L6.191,0,26,7.559,17.433,16Z" transform="translate(31 93)" fill="#12ca70"/><path d="M2.5,0A2.29,2.29,0,0,1,5,2,2.3,2.3,0,0,1,2.5,4,2.3,2.3,0,0,1,0,2,2.287,2.287,0,0,1,2.5,0Z" transform="translate(47 101)" fill="#12ca70"/><path d="M8.861.484c1.868.675,3.139,2,3.139,3.522C12,6.215,9.313,8,6,8a8.391,8.391,0,0,1-2.866-.481C1.271,6.835,0,5.515,0,3.995,0,1.779,2.687,0,6,0A8.348,8.348,0,0,1,8.861.484Z" transform="translate(29 93)" fill="#12ca70"/><path d="M0,8.392,8.716,0,24,5.722l-.435,1.11a7.524,7.524,0,0,0-2.7-.481c-3.137,0-5.678,1.784-5.678,3.986,0,1.517,1.2,2.835,2.968,3.517L17.708,15Z" transform="translate(14 87)" fill="#12ca70"/><path d="M2.5,0A2.292,2.292,0,0,1,5,2,2.287,2.287,0,0,1,2.5,4,2.3,2.3,0,0,1,0,2,2.288,2.288,0,0,1,2.5,0Z" transform="translate(19 91)" fill="#12ca70"/><path d="M41.774,29.98,0,13.487,13.185,0l.049.018L55,16.511l-.086.091L41.824,30Z" transform="translate(8 83)" fill="#231f20"/><path d="M38.255,24.983,0,10.444,10.711,0l.049.017L49,14.536,38.3,25Z" transform="translate(11 85)" fill="#231f20"/><path d="M35.205,22.982,0,8.975,8.748,0l.047.02L23.937,6.04,44,14.027,35.255,23Z" transform="translate(14 87)" fill="#231f20"/><path d="M3.148,7.522C1.208,6.818,0,5.462,0,4c0-2.2,2.694-4,6-4A8.352,8.352,0,0,1,8.852.476C10.792,1.174,12,2.524,12,4,12,6.206,9.309,8,6,8H5.958A8.455,8.455,0,0,1,3.148,7.522Z" transform="translate(29 93)" fill="#231f20"/><path d="M0,2A2.3,2.3,0,0,1,2.5,0,2.29,2.29,0,0,1,5,2,2.292,2.292,0,0,1,2.5,4,2.3,2.3,0,0,1,0,2Z" transform="translate(47 101)" fill="#231f20"/><path d="M0,2A2.294,2.294,0,0,1,2.5,0,2.3,2.3,0,0,1,5,2,2.3,2.3,0,0,1,2.5,4,2.293,2.293,0,0,1,0,2Z" transform="translate(19 91)" fill="#231f20"/><path d="M0,13.439,12.892,0,54,16.55,41.115,30Z" transform="translate(9 81)" fill="#12ca70"/><path d="M0,10.4,10.651,0,49,14.582,38.362,25Z" transform="translate(11 84)" fill="#12ca70"/><path d="M0,9.328.45,8.172A7.269,7.269,0,0,0,3.1,8.666c3.074,0,5.569-1.8,5.569-4.012A4.054,4.054,0,0,0,5.754,1.117L6.18,0,26,7.554,17.433,16Z" transform="translate(31 92)" fill="#12ca70"/><path d="M2.5,0A2.29,2.29,0,0,1,5,2,2.3,2.3,0,0,1,2.5,4,2.3,2.3,0,0,1,0,2,2.287,2.287,0,0,1,2.5,0Z" transform="translate(47 100)" fill="#12ca70"/><path d="M8.861.482C10.729,1.157,12,2.475,12,4c0,2.21-2.687,4-6,4a8.389,8.389,0,0,1-2.866-.482C1.271,6.835,0,5.516,0,4,0,1.777,2.687,0,6,0A8.3,8.3,0,0,1,8.861.482Z" transform="translate(29 92)" fill="#12ca70"/><path d="M0,8.387,8.716,0,24,5.708l-.435,1.111a7.464,7.464,0,0,0-2.7-.482c-3.137,0-5.678,1.785-5.678,3.989,0,1.517,1.2,2.834,2.968,3.516L17.708,15Z" transform="translate(14 86)" fill="#12ca70"/><path d="M2.5,0A2.292,2.292,0,0,1,5,2.007,2.283,2.283,0,0,1,2.5,4,2.3,2.3,0,0,1,0,2.007,2.3,2.3,0,0,1,2.5,0Z" transform="translate(19 89)" fill="#12ca70"/><path d="M41.774,29.98,0,13.488,13.185,0l.049.02L55,16.511l-.086.091L41.824,30Z" transform="translate(8 81)" fill="#231f20"/><path d="M38.255,24.981,0,10.445,10.711,0l.049.019L49,14.538,38.3,25Z" transform="translate(11 84)" fill="#231f20"/><path d="M35.205,22.98,0,8.973,8.748,0l.047.02L23.937,6.04,44,14.025,35.255,23Z" transform="translate(14 86)" fill="#231f20"/><path d="M3.148,7.52C1.208,6.816,0,5.461,0,4,0,1.794,2.694,0,6,0A8.307,8.307,0,0,1,8.852.478C10.792,1.174,12,2.523,12,4,12,6.206,9.309,8,6,8H5.973A8.5,8.5,0,0,1,3.148,7.52Z" transform="translate(29 92)" fill="#231f20"/><path d="M0,2A2.3,2.3,0,0,1,2.5,0,2.288,2.288,0,0,1,5,2,2.29,2.29,0,0,1,2.5,4,2.3,2.3,0,0,1,0,2Z" transform="translate(47 100)" fill="#231f20"/><path d="M0,2A2.294,2.294,0,0,1,2.5,0,2.3,2.3,0,0,1,5,2,2.3,2.3,0,0,1,2.5,4,2.293,2.293,0,0,1,0,2Z" transform="translate(19 89)" fill="#231f20"/><path d="M1,0V29.079L.05,30,0,29.952V.972L1,0Z" transform="translate(52 115)" fill="#ffc65a"/><path d="M50,19.053,49.06,20,9.783,4.746,0,.947.94,0l9.783,3.8L50,19.053Z" transform="translate(3 97)" fill="#ffc65a"/><path d="M49,18.941V47L9.771,31.836,0,28.059V0L9.771,3.777,49,18.941Z" transform="translate(3 98)" fill="#e2a84d"/><path d="M48.892,46.958,0,28.081V0L.108.042,49,18.908V47Z" transform="translate(3 98)" fill="#231f20"/><path d="M.1,30,0,29.884l.852-.944V0H1V29.008L.1,30Z" transform="translate(52 116)" fill="#231f20"/><path d="M48.977,20l-.112-.115.852-.852L1.011.187l-.9.9L0,.976.972,0l9.793,3.79L50,18.973,48.977,20Z" transform="translate(3 97)" fill="#231f20"/><path d="M27,0V28.481L0,56V27.519L27,0Z" transform="translate(52 89)" fill="#ffc65a"/><path d="M28,.244.955,28l-.047-.03L0,27.615,26.907,0,28,.244Z" transform="translate(51 88)" fill="#ffc65a"/><path d="M.112,27,0,26.888,26.868,0,28,.246,27.966.4,26.919.174.112,27Z" transform="translate(51 88)" fill="#231f20"/><path d="M0,27.977l.024-.024L28,0V29.022l-.024.024L0,57Z" transform="translate(52 88)" fill="#231f20"/><path d="M.5.011h0L.5.989h0Z" transform="translate(51.728 115.568) rotate(-69.09)" fill="#231f20"/><path d="M0,23.065l.034-.036L22.949,0,23,.019V13L.121,36Z" transform="translate(58 97)" fill="#f9f8f7"/><path d="M25,.649,1.677,24,.352,23.488,0,23.353,23.321,0l.318.125L25,.649Z" transform="translate(56 97)" fill="#898684"/><path d="M20,0V9.368L0,30V20.63L20,0Z" transform="translate(59 100)" fill="#231f20"/><path d="M2.792.689,3,13.941,2.964,14,.6,13.457,0,13.32V0L.6.137,2.85.654,2.792.689Z" transform="translate(55 120)" fill="#898684"/><path d="M2.908,1,2.763.959,0,.181.1,0,3,.819,2.908,1Z" transform="translate(55 119)" fill="#231f20"/><path d="M2.9,1,0,.183.092,0l.58.165L3,.822,2.9,1Z" transform="translate(78 96)" fill="#231f20"/><path d="M1.776,37l-.021-.011L0,36.306V23.17l.023-.023L22.889,0,23,.113.158,23.236V36.2l1.679.657L1.776,37Z" transform="translate(56 96)" fill="#231f20"/><path d="M0,21.211l.024-.024L21,0V9.791l-.023.024L0,31Z" transform="translate(58 99)" fill="#231f20"/><path d="M0,23.634l.057-.056L24,0V13.487l-.024.024L.124,37Z" transform="translate(58 96)" fill="#231f20"/><path d="M36,0V17.9L0,54V36.1L36,0Z" transform="translate(88 26)" fill="#ffc65a"/><path d="M38,.472V.491L1.435,36.75V37H1.39L0,36.464,36.771,0,38,.472Z" transform="translate(86 25)" fill="#ffc65a"/><path d="M49,18.744,12.433,55.529h0V71l-2.287-.887V59.821A10.386,10.386,0,0,1,13.163,52.5l3.5-3.519L32.423,33.126,46.51,18.957,0,.921.787,0l48.05,18.688Z" transform="translate(73 7)" fill="#231f20"/><path d="M50,18.482,36.04,33l-.032-.031L0,18.521l1.906-1.983V2.082L3.908,0,50,18.482Z" transform="translate(69 7)" fill="#898684"/><path d="M53,14.607,36.975,31l-.033-.033L0,16.391,16.027,0l36.94,14.576.033.031Z" transform="translate(54 25)" fill="#898684"/><path d="M53,13.843,49.5,17.29a10.071,10.071,0,0,0-3.015,7.168V35h0L0,17.332v-.919L16.647,0,52.962,13.812Z" transform="translate(37 43)" fill="#898684"/><path d="M0,15.955V0H0L1.937.557H2V19H1.937L0,18.445v-2.49Z" transform="translate(85 62)" fill="#ffc65a"/><path d="M38,.474l0,.017L1.437,36.75V37H1.392L0,36.467,36.765,0,38,.474Z" transform="translate(34 5)" fill="#ffc65a"/><path d="M12,0V13.191L10.083,15,0,11.327,12,0Z" transform="translate(59 10)" fill="#898684"/><path d="M24.069,15.94,8.468,31.589,4.985,35.084A10.246,10.246,0,0,0,2,42.306v9.689L0,54V36.112L36,0V3.974Z" transform="translate(36 6)" fill="#e2a84d"/><path d="M15.225,0,25,3.971,9.773,20,0,16.029,15.225,0Z" transform="translate(44 23)" fill="#898684"/><path d="M6.672,0,17,3.988,0,21V11.033A10.527,10.527,0,0,1,3.079,3.6Z" transform="translate(37 37)" fill="#898684"/><path d="M2,.555V19H1.937L0,18.445V0L1.937.555Z" transform="translate(33 42)" fill="#ffc65a"/><path d="M.5,0h0L.5,2.451h0Z" transform="matrix(0.36, -0.933, 0.933, 0.36, 83.373, 77.557)" fill="#231f20"/><path d="M0,55V36.671l.023-.024L36,0V4.213h-.158V.389L.158,36.738V54.611l1.858-1.893.112.114L0,55Z" transform="translate(36 6)" fill="#231f20"/><path d="M1.408,55,0,54.446V36.585l.023-.024L35.889,0,36,.113.157,36.651V54.337l1.307.513L1.408,55Z" transform="translate(34 6)" fill="#231f20"/><path d="M.5,0h0l0,1.483h0Z" transform="matrix(0.36, -0.933, 0.933, 0.36, 33.449, 42.675)" fill="#231f20"/><path d="M1.917,1,0,.218.08,0,2,.782,1.917,1Z" transform="translate(70 5)" fill="#231f20"/><path d="M46.616,71h-.16V60.046a10.835,10.835,0,0,1,3.035-7.514L82.711,18.481,36.421.186,3.148,34.292a10.535,10.535,0,0,0-2.992,7.4V52.646H0V41.692a10.693,10.693,0,0,1,3.037-7.516L36.378,0l.049.02L83,18.422l-.088.088L49.6,52.652a10.668,10.668,0,0,0-2.992,7.4Z" transform="translate(37 7)" fill="#231f20"/><path d="M45.945,19,0,.157.057,0,.108.02,46,18.843,45.945,19Z" transform="translate(43 37)" fill="#231f20"/><path d="M45.943,19,0,.157.059,0,.11.02,46,18.843,45.943,19Z" transform="translate(59 22)" fill="#231f20"/><path d="M45.951,19,0,.157.057,0,46,18.84l-.049.16Z" transform="translate(38 59)" fill="#231f20"/><path d="M0,36.676l.023-.023L36,0V18.33l-.023.023L0,55Z" transform="translate(88 26)" fill="#231f20"/><path d="M0,.581,51.85.419h0L0,.581Z" transform="translate(85.435 62.105) rotate(-45)" fill="#231f20"/><path d="M1.923,19,0,18.427V0H.215V18.315L2,18.845,1.923,19Z" transform="translate(85 62)" fill="#231f20"/><path d="M1.92,1,0,.223.039.118.036,0,.08.006,2,.783,1.92,1Z" transform="translate(85 62)" fill="#231f20"/><path d="M52.941,20l-1.4-.526L2.838,1.215,0,.149.05,0,2.9,1.068,51.76,19.388l1.24.465L52.941,20Z" transform="translate(72 6)" fill="#231f20"/><path d="M.135,1,0,.9.87,0,1,.105.135,1Z" transform="translate(74 6)" fill="#231f20"/><path d="M0,13.443,12.892,0,54,16.55,41.114,30Z" transform="translate(47 23)" fill="#12ca70"/><path d="M0,10.409,10.651,0,49,14.591,38.362,25Z" transform="translate(50 26)" fill="#12ca70"/><path d="M0,9.334.452,8.173A7.188,7.188,0,0,0,3.1,8.656c3.082,0,5.576-1.794,5.576-4.01A4.069,4.069,0,0,0,5.764,1.111L6.19,0,26,7.556,17.434,16Z" transform="translate(69 34)" fill="#12ca70"/><path d="M2.5,0A2.294,2.294,0,0,1,5,2.01,2.279,2.279,0,0,1,2.5,4,2.287,2.287,0,0,1,0,2,2.3,2.3,0,0,1,2.5,0Z" transform="translate(86 41)" fill="#12ca70"/><path d="M8.861.482C10.729,1.163,12,2.484,12,4c0,2.217-2.687,4-6,4a8.324,8.324,0,0,1-2.854-.482C1.271,6.843,0,5.523,0,4c0-2.21,2.687-4,6-4A8.419,8.419,0,0,1,8.861.482Z" transform="translate(66 34)" fill="#12ca70"/><path d="M0,8.392,8.717,0,24,5.722l-.434,1.1a7.566,7.566,0,0,0-2.708-.481c-3.127,0-5.665,1.79-5.665,3.986,0,1.524,1.2,2.841,2.968,3.514L17.7,15Z" transform="translate(53 28)" fill="#12ca70"/><path d="M2.5,0A2.292,2.292,0,0,1,5,2,2.287,2.287,0,0,1,2.5,4,2.3,2.3,0,0,1,0,2,2.3,2.3,0,0,1,2.5,0Z" transform="translate(58 31)" fill="#12ca70"/><path d="M41.773,29.98,0,13.487,13.184,0l.05.02L55,16.511l-.088.091L41.822,30Z" transform="translate(47 23)" fill="#231f20"/><path d="M38.261,24.981,0,10.449,10.713,0l.048.017L49,14.536,38.309,25Z" transform="translate(50 26)" fill="#231f20"/><path d="M35.2,22.982,0,8.974,8.754,0,8.8.018,44,14.027,35.246,23Z" transform="translate(53 28)" fill="#231f20"/><path d="M3.149,7.522C1.206,6.826,0,5.475,0,4,0,1.794,2.69,0,6,0A8.4,8.4,0,0,1,8.851.478C10.792,1.183,12,2.538,12,4c0,2.206-2.7,4-6,4H5.934A8.3,8.3,0,0,1,3.149,7.522Z" transform="translate(66 34)" fill="#231f20"/><path d="M0,2A2.293,2.293,0,0,1,2.5,0,2.3,2.3,0,0,1,5,2,2.3,2.3,0,0,1,2.5,4,2.29,2.29,0,0,1,0,2Z" transform="translate(86 41)" fill="#231f20"/><path d="M0,2A2.3,2.3,0,0,1,2.5,0,2.3,2.3,0,0,1,5,2,2.3,2.3,0,0,1,2.5,4,2.293,2.293,0,0,1,0,2Z" transform="translate(58 31)" fill="#231f20"/><path d="M0,13.445,12.891,0,54,16.553,41.12,30Z" transform="translate(63 8)" fill="#12ca70"/><path d="M0,10.408,10.651,0,49,14.584,38.362,25Z" transform="translate(65 10)" fill="#12ca70"/><path d="M0,9.328.45,8.168A7.237,7.237,0,0,0,3.1,8.654c3.082,0,5.576-1.795,5.576-4.01A4.07,4.07,0,0,0,5.764,1.108L6.19,0,26,7.558,17.434,16Z" transform="translate(85 17)" fill="#12ca70"/><path d="M2.5,0A2.293,2.293,0,0,1,5,2,2.287,2.287,0,0,1,2.5,4,2.287,2.287,0,0,1,0,2,2.3,2.3,0,0,1,2.5,0Z" transform="translate(101 26)" fill="#fff"/><path d="M8.861.484c1.868.681,3.139,2,3.139,3.522C12,6.223,9.313,8,6,8a8.348,8.348,0,0,1-2.857-.484C1.271,6.841,0,5.523,0,3.995,0,1.785,2.687,0,6,0A8.42,8.42,0,0,1,8.861.484Z" transform="translate(83 19)" fill="#12ca70"/><path d="M0,8.388,8.716,0,24,5.72l-.434,1.1a7.578,7.578,0,0,0-2.71-.483c-3.127,0-5.665,1.791-5.665,3.99,0,1.526,1.2,2.843,2.966,3.517L17.7,15Z" transform="translate(68 12)" fill="#12ca70"/><path d="M2.5,0A2.292,2.292,0,0,1,5,2.007,2.283,2.283,0,0,1,2.5,4,2.3,2.3,0,0,1,0,2.007,2.3,2.3,0,0,1,2.5,0Z" transform="translate(74 16)" fill="#fff"/><path d="M41.764,29.98,0,13.488,13.185,0l.049.02L55,16.511l-.086.091L41.813,30Z" transform="translate(63 8)" fill="#231f20"/><path d="M38.255,24.981,0,10.449,10.713,0l.05.019L49,14.542,38.3,25Z" transform="translate(65 10)" fill="#231f20"/><path d="M35.192,22.98,0,8.984,8.762,0l.047.02L44,14.025,35.24,23Z" transform="translate(67 12)" fill="#231f20"/><path d="M3.149,7.522C1.208,6.826,0,5.477,0,4,0,1.794,2.692,0,6,0A8.383,8.383,0,0,1,8.852.488C10.795,1.192,12,2.548,12,4.01,12,6.206,9.308,8,6,8H5.935A8.312,8.312,0,0,1,3.149,7.522Z" transform="translate(83 19)" fill="#231f20"/><path d="M0,2A2.29,2.29,0,0,1,2.5,0,2.3,2.3,0,0,1,5,2,2.3,2.3,0,0,1,2.5,4,2.288,2.288,0,0,1,0,2Z" transform="translate(101 26)" fill="#231f20"/><path d="M0,2A2.3,2.3,0,0,1,2.5,0,2.3,2.3,0,0,1,5,2,2.3,2.3,0,0,1,2.5,4,2.293,2.293,0,0,1,0,2Z" transform="translate(74 16)" fill="#231f20"/><path d="M9,.006V1.1L0,10V8.888L8.984,0,9,.006Z" transform="translate(114 24)" fill="#ffc65a"/><path d="M63,21.31l-9.379,9.665V31L0,9.683,9.4,0,63,21.31Z" transform="translate(60 4)" fill="#ffc65a"/><path d="M54,20.8v1.157L53.985,22,0,1.2V0L54,20.8Z" transform="translate(60 13)" fill="#ffc65a"/><path d="M.56,0h0L.44,57.313h0Z" transform="matrix(0.36, -0.933, 0.933, 0.36, 60.047, 13.1)" fill="#231f20"/><path d="M53.933,21,0,.151.058,0,53.983,20.844l.017.009L53.933,21Z" transform="translate(69 4)" fill="#231f20"/><path d="M53.957,33l-.015,0L0,11.245V9.9l.024-.025L9.47,0l.114.12L.162,9.967V11.13L54,32.838,53.957,33Z" transform="translate(60 3)" fill="#231f20"/><path d="M0,9.593.02,9.57,9,0V1.409l-.023.023L0,11Z" transform="translate(114 23)" fill="#231f20"/><path d="M30.771,31.716l.013-.034L37.756,16,2.6,2.785,0,0,40,15.042v.21L31.664,34l-.12-.13.12.046-2.681-2.871,1.788.671Z" transform="translate(44 45)" fill="#12ca70"/><path d="M27.183,27.973l5.71-13.4,0,0L2.364,2.636,0,0,35,13.708,28.059,29.965,28.046,30l-1.78-.7-2.332-2.6,3.249,1.27Z" transform="translate(46 45)" fill="#12ca70"/><path d="M21.9,23.747l-7.453-8.08a5.8,5.8,0,0,0,.2-8.08,5.992,5.992,0,0,0-8.173-.569L0,0,31,11.777l0,0L25.2,25Z" transform="translate(48 48)" fill="#12ca70"/><path d="M.157.058,4,4l-.173-.063L0,0,.157.058Z" transform="translate(73 75)" fill="#12ca70"/><path d="M9.054,2.074,2.069,17.845,37.322,31.122,40,34,0,18.948V18.82L8.362,0l2.6,2.791L9.074,2.082l-.019-.008Z" transform="translate(36 45)" fill="#12ca70"/><path d="M3.009.342A2.868,2.868,0,0,1,3.73,3.754,1.8,1.8,0,0,1,1,4.667a2.863,2.863,0,0,1-.74-3.406A2.131,2.131,0,0,1,1.483.085,1.657,1.657,0,0,1,3.009.342Z" transform="translate(71 64)" fill="#12ca70"/><path d="M3,3l-.135-.049L0,0,.124.047,3,3Z" transform="translate(70 72)" fill="#12ca70"/><path d="M2.112,15.447,32.676,27.4,35,30,0,16.288,6.935,0l.019.009L8.827.741l2.354,2.633L7.818,2.061,2.112,15.447Z" transform="translate(38 45)" fill="#12ca70"/><path d="M7,7l-.1-.035L0,.02.022,0Z" transform="translate(64 64)" fill="#12ca70"/><path d="M0,13.2,5.787,0,9.2,1.287,15.67,8.321a5.8,5.8,0,0,0,.184,9.1,5.986,5.986,0,0,0,7.778-.446v.015L31,25Z" transform="translate(39 47)" fill="#12ca70"/><path d="M6.255.781a5.876,5.876,0,0,1,2.7,4.314A6.086,6.086,0,0,1,7.377,10L0,1.358A5.218,5.218,0,0,1,6.255.781Z" transform="translate(56 54)" fill="#12ca70"/><path d="M.013,0,7,7.978,6.979,8,0,.012A.037.037,0,0,1,.013,0Z" transform="translate(56 56)" fill="#12ca70"/><path d="M2.1,0,10,8.382a6.053,6.053,0,0,1-7.719.431,5.529,5.529,0,0,1-1.5-7.306A5.652,5.652,0,0,1,2.1,0Z" transform="translate(54 56)" fill="#12ca70"/><path d="M.015.005,5,5.989A.033.033,0,0,0,4.988,6L0,0Z" transform="translate(49 49)" fill="#12ca70"/><path d="M3,3l-.024-.007L0,0,.011,0,3,3Z" transform="translate(46 45)" fill="#12ca70"/><path d="M3.009.337A2.873,2.873,0,0,1,3.73,3.753,1.8,1.8,0,0,1,1,4.666a2.868,2.868,0,0,1-.74-3.409A1.809,1.809,0,0,1,3.009.337Z" transform="translate(43 53)" fill="#12ca70"/><path d="M0,0,3,4l-.01-.006L0,0Z" transform="translate(44 42)" fill="#12ca70"/><path d="M31.678,34l-.146-.063,8.307-18.676v-.138L0,.146.056,0,40,15.015l-.009.295L31.678,34Z" transform="translate(44 45)" fill="#231f20"/><path d="M39.94,34l-.12-.046L0,18.95l.009-.214L8.322,0l.146.063L.161,18.785v.057L40,33.853,39.94,34Z" transform="translate(36 45)" fill="#231f20"/><path d="M.541,0h0L.459,39.5h0Z" transform="matrix(0.36, -0.933, 0.933, 0.36, 44.306, 45.923)" fill="#231f20"/><path d="M36.94,14l-.075-.029-1.886-.706L0,.145.06,0,.113.021l35.035,13.14L37,13.855,36.94,14Z" transform="translate(38 61)" fill="#231f20"/><path d="M33.944,14,.013.152,0,.141.06.075.088,0,3.466,1.378,34,13.841,33.944,14Z" transform="translate(45 47)" fill="#231f20"/><path d="M33.94,14l-.032-.014-3.35-1.366L0,.165.015.079.047,0,30.616,12.462l.1.043L34,13.841,33.94,14Z" transform="translate(40 60)" fill="#231f20"/><path d="M0,.52,17.516.48h0L0,.52Z" transform="translate(73.903 75.576) rotate(-66.51)" fill="#231f20"/><path d="M.123,16,0,15.934l.016-.04L5.877,0,6,.063,5.984.106.123,16Z" transform="translate(38 45)" fill="#231f20"/><path d="M.127,14,0,13.937.013,13.9,4.877,0,5,.067,4.967.159.127,14Z" transform="translate(40 47)" fill="#231f20"/><path d="M.123,14,0,13.933,4.873,0,5,.065,4.971.15.123,14Z" transform="translate(74 60)" fill="#231f20"/><path d="M5.995,12A5.993,5.993,0,0,1,.8,3.006a5.909,5.909,0,0,1,1.33-1.589L2.158,1.4a6,6,0,0,1,8.063,8.869.192.192,0,0,1-.031.03A5.976,5.976,0,0,1,6.012,12Z" transform="translate(54 54)" fill="#231f20"/><path d="M1.991,5A2.137,2.137,0,0,1,.067,3.138,2.787,2.787,0,0,1,1,.332a1.711,1.711,0,0,1,2.412.4,2.982,2.982,0,0,1,.315,3.016A1.976,1.976,0,0,1,1.995,5Z" transform="translate(71 64)" fill="#231f20"/><path d="M0,2.66A2.417,2.417,0,0,1,1.741.022,2.1,2.1,0,0,1,3.962,2.014a2.581,2.581,0,0,1-1.445,2.9A1.683,1.683,0,0,1,2,5,2.256,2.256,0,0,1,0,2.66Z" transform="translate(43 53)" fill="#231f20"/><rect width="142" height="153" transform="translate(0)" fill="#9881ee" style="mix-blend-mode:color;isolation:isolate"/></svg>