<svg width="138" height="138" viewBox="0 0 138 138" fill="none" xmlns="http://www.w3.org/2000/svg">
<circle opacity="0.797138" cx="69" cy="69" r="69" fill="#030C42"/>
<circle opacity="0.348324" cx="69.5" cy="68.5" r="43.5" fill="#F53232"/>
<path fill-rule="evenodd" clip-rule="evenodd" d="M69.5 66.3929L77.4566 58.4364C78.0384 57.8545 78.9818 57.8545 79.5636 58.4364C80.1455 59.0182 80.1455 59.9616 79.5636 60.5434L71.6071 68.5L79.5636 76.4566C80.1455 77.0384 80.1455 77.9818 79.5636 78.5636C78.9818 79.1455 78.0384 79.1455 77.4566 78.5636L69.5 70.6071L61.5434 78.5636C60.9616 79.1455 60.0182 79.1455 59.4364 78.5636C58.8545 77.9818 58.8545 77.0384 59.4364 76.4566L67.3929 68.5L59.4364 60.5434C58.8545 59.9616 58.8545 59.0182 59.4364 58.4364C60.0182 57.8545 60.9616 57.8545 61.5434 58.4364L69.5 66.3929Z" fill="#F53232"/>
</svg>
