<svg id="Face_ID" data-name="Face ID" xmlns="http://www.w3.org/2000/svg" width="63" height="61" viewBox="0 0 63 61">
  <rect id="Rectangle" width="63" height="61" rx="13" fill="#d7a81e" opacity="0.2"/>
  <g id="iconfinder_face_ID_2639811" transform="translate(17 16)">
    <path id="Path_262" d="M0,0A5.951,5.951,0,0,0,7.457,0" transform="translate(10.231 21.005)" fill="none" stroke="#d7a81e" stroke-linecap="round" stroke-linejoin="round" stroke-miterlimit="10" stroke-width="2"/>
    <path id="Line_5" d="M.606,0V2.506" transform="translate(19.411 10.682)" fill="none" stroke="#d7a81e" stroke-linecap="round" stroke-linejoin="round" stroke-miterlimit="10" stroke-width="2"/>
    <path id="Line_6" d="M.606,0V2.506" transform="translate(7.297 10.682)" fill="none" stroke="#d7a81e" stroke-linecap="round" stroke-linejoin="round" stroke-miterlimit="10" stroke-width="2"/>
    <path id="Path_263" d="M1.27,0V5.251A1.292,1.292,0,0,1,0,6.564" transform="translate(12.69 10.503)" fill="none" stroke="#d7a81e" stroke-linecap="round" stroke-linejoin="round" stroke-miterlimit="10" stroke-width="2"/>
    <g id="Group_1951">
      <path id="Path_264" d="M6.345,6.564V2.632A2.589,2.589,0,0,0,3.8,0H0" transform="translate(21.574 0)" fill="none" stroke="#d7a81e" stroke-linecap="round" stroke-linejoin="round" stroke-miterlimit="10" stroke-width="2"/>
      <path id="Path_265" d="M6.345,0h-3.8A2.589,2.589,0,0,0,0,2.632V6.564" transform="translate(0)" fill="none" stroke="#d7a81e" stroke-linecap="round" stroke-linejoin="round" stroke-miterlimit="10" stroke-width="2"/>
      <path id="Path_266" d="M0,6.564H3.807A2.589,2.589,0,0,0,6.351,3.932V0" transform="translate(21.574 22.318)" fill="none" stroke="#d7a81e" stroke-linecap="round" stroke-linejoin="round" stroke-miterlimit="10" stroke-width="2"/>
      <path id="Path_267" d="M0,0V3.939A2.589,2.589,0,0,0,2.544,6.57h3.8" transform="translate(0 22.318)" fill="none" stroke="#d7a81e" stroke-linecap="round" stroke-linejoin="round" stroke-miterlimit="10" stroke-width="2"/>
    </g>
  </g>
</svg>
