<svg xmlns="http://www.w3.org/2000/svg" width="375" height="351" viewBox="0 0 375 351">
    <g fill="none" fill-rule="evenodd">
        <g fill-rule="nonzero">
            <g>
                <g opacity=".21">
                    <path fill="#FFF" d="M0.946 3.687L234.784 93.156" transform="translate(0 -118) translate(0 118) translate(52 228)"/>
                    <path fill="#231F20" d="M115.057 -76.751L119.976 -76.737 120.673 173.631 115.754 173.617z" transform="translate(0 -118) translate(0 118) translate(52 228) rotate(-68.9 117.865 48.44)"/>
                </g>
                <g fill="#231F20" opacity=".21" transform="translate(0 -118) translate(0 118) translate(207 183)">
                    <ellipse cx="60.552" cy="45.489" rx="67.043" ry="8.908" transform="rotate(-34.24 60.552 45.489)"/>
                </g>
                <path fill="#BD8682" d="M287.459 24.357s1.715-5.631 2.655-6.457c.94-.826 1.63-.274 1.63-.274l-4.994 17.31s5.67 31.265 5.225 34.098c-.445 2.833-16.437 39.19-16.437 39.19s-.222 21.769 0 24.18l2.002 8.356s3.995 7.633 2.96 12.02c-.568 2.42-5.41 10.157-9.641 16.614-3.45 5.254-6.496 9.663-6.496 9.663s.032.898.04 2.375c.023 4.791-.222 15.779-2.723 22.936-2.52 7.252-4.403 17.48-5.12 21.75-.223 1.249-.332 1.994-.332 1.994-5.764 4.248-7.585 0-7.585 0s.205-28.66 1.412-42.481l-10.785 3.515s-1.603-2.052-4.707-5.276c-3.105-3.224 11.407-41.543 11.407-41.543v-5.379l-1.634-13.982c-2.138-2.82-3.922-10.274-5.062-16.223 0 0-20.122-37.484-20.272-41.597-.136-3.943 6.55-30.47 7.068-32.55l-4.948-17.12s.685-.549 1.634.273c.949.822 2.66 6.457 2.66 6.457l.985-.23 2.229-.497 1.303-.297 2.45-.552.863-.198c0-.242-.063-5.635.046-6.82.109-1.186 1.389-.283 1.389-.283l1.266 11.109.045.094c.504-.216.99-.47 1.453-.759.985-.66 2.683-2.748 2.683-2.748s1.666-.988 2.106 0c.44.988-4.222 6.152-4.789 8.244-.567 2.092-2.832 3.992-2.832 3.992h-.082l-1.816 26.649c-.168 1.221-1.144 2.568-2.02 3.534 3.11 3.592 6.355 16.613 8.58 17.206 2.224.593 3.354 4.75 3.422 5.007.277 4.265.962 8.693 2.574 10.525 1.362 1.544 3.559.844 5.737-.584l.055-.04 8.407-5.362c.354 1.536.726 2.856 1.007 3.08 2.484-1.906 5.297-3.35 8.303-4.26l3.63-2.327s4.04-11.279 7.89-14.952c0 0-.558-7.759-.699-11.567-.14-3.807-1.339-24.776-1.339-24.776s-2.27-1.909-2.842-3.992c-.571-2.084-5.233-7.252-4.793-8.244.44-.993 2.11 0 2.11 0s1.694 2.083 2.683 2.748c.464.29.95.543 1.453.759l.045-.095 1.262-11.104s1.28-.934 1.39.274c.108 1.208.05 6.56.05 6.825l.857.193 2.456.557 1.303.296 2.224.499.999.247z" transform="translate(0 -118) translate(0 118)"/>
                <path fill="#231F20" d="M280.953 164.193c1.548-.28 7.462-.995 7.024 4.44-.439 5.435-1.064 6.914-1.064 6.914l-2.485-1.224-.252-6.747-1.064 10.673 2.622 4.834c-.467 2.141-.99 4.01-1.572 4.453-1.525 1.145-7.155 0-6.856-1.58.298-1.578-1.306-10.41-1.306-10.41l4.906-2.193s.63-5.878-3.567-5.777c0 0 2.066-3.071 3.614-3.383z" transform="translate(0 -118) translate(0 118)"/>
                <path fill="#BD8682" d="M277.465 168c4.088-.085 3.506 6 3.506 6l-4.778 2.268L264.04 182c0-1.501-.041-2.399-.041-2.399s3.016-4.48 6.482-9.786c.037 0 .514-.15 5.574-1.601.458-.133.932-.205 1.409-.213z" transform="translate(0 -118) translate(0 118)"/>
                <path fill="#231F20" d="M260 90.04L252 95c3.244-2.077 6.423-5.816 6.423-5.816l.58-4.184s.47 2.775.997 5.04zM255.402 226c3.094.544 2.563 9.603 2.563 9.603s-2.54 2.175-5.59 4.607l1.065-6.065 2.024-4.218-6.394 6.003-2.073 8.407c-1.767 1.273-3.327 2.265-4.198 2.528-3.141.992-6.774-3.805-6.774-3.805-.654-1.975 11.67-15.035 11.67-15.035s1.768 4.285 7.385 0c0-.014.106-.766.322-2.025zM255.62 68.976c5.324 3.017 4.604 9.68 3.88 12.907h-1.237c.233-1.224-.039-3.138-.78-3.564-.914-.542-2.039.713-2.039.713L253.797 82s-.638-3.017-1.267-3.82c-.63-.802.526-2.376-.569-3.376s-7.961 0-7.961 0 4.448-9.881 11.62-5.828z" transform="translate(0 -118) translate(0 118)"/>
                <path fill="#BD8682" d="M256.728 82.642H258c-.134.63-.306 1.25-.514 1.857l-.576 4.593s-3.261 4.106-6.59 6.387l-.052.041c-2.127 1.45-4.268 2.162-5.601.593-1.574-1.861-2.243-6.36-2.513-10.693-.306-5.11-.062-9.972-.062-9.972s7.05-1.008 8.184 0c1.135 1.008-.07 2.628.585 3.435.656.808 1.303 3.887 1.303 3.887l1.693-3.02s1.156-1.277 2.096-.725c.735.437 1.015 2.372.775 3.617z" transform="translate(0 -118) translate(0 118)"/>
                <path fill="#FFF" d="M256 230l-1.912 4.11-1.007 5.894c-1.67 1.36-3.47 2.808-5.081 3.996l1.958-8.168L256 230z" transform="translate(0 -118) translate(0 118)"/>
                <path fill="#231F20" d="M250.664 95l-.188-.28c3.13-2.12 6.26-5.84 6.581-6.25l.59-4.51c.209-.606.384-1.224.523-1.85 1.91-8.208-1.645-11.54-3.934-12.799-1.63-.986-3.6-1.22-5.414-.645-3.84 1.277-6.192 5.985-6.397 6.405 0 .45-.229 5.042.067 9.804h-.336c-.185-3.289-.205-6.585-.062-9.877v-.063c.098-.212 2.472-5.236 6.612-6.607 1.9-.607 3.967-.364 5.678.668 5.731 3.157 4.779 10.26 4.104 13.173-.14.628-.317 1.247-.528 1.854l-.599 4.55-.027.036c-.022.077-3.33 4.132-6.67 6.391zM246.388 97c-.75.016-1.465-.34-1.949-.968-1.27-1.629-2.117-5.332-2.439-11.009l.313-.023c.326 5.583 1.123 9.231 2.364 10.804 1.037 1.302 2.77 1.088 5.145-.638l.178.289c-1.415 1.028-2.617 1.544-3.612 1.544z" transform="translate(0 -118) translate(0 118)"/>
                <path fill="#231F20" d="M260.209 92l-.108-.084c-.189-.15-.48-.647-1.06-3.136-.538-2.387-1.032-5.354-1.041-5.385l.337-.054c0 .031.493 2.985 1.032 5.364.449 1.918.714 2.609.862 2.848 2.444-1.838 5.195-3.238 8.13-4.137l3.519-2.25c.34-.934 4.093-11.139 7.774-14.704-.058-.815-.56-7.826-.69-11.343-.145-3.605-1.24-23.03-1.316-24.359-.36-.314-2.28-2.046-2.806-3.986-.26-.948-1.41-2.569-2.522-4.137-1.536-2.174-2.465-3.543-2.209-4.105.096-.233.294-.41.539-.483.709-.222 1.741.38 1.795.407l.045.036s1.674 2.046 2.617 2.657c.451.278.922.524 1.41.735 1.14.523 2.433 1.028 2.446 1.037l-.126.305s-1.315-.513-2.46-1.04c-.505-.218-.992-.472-1.458-.762-.943-.63-2.474-2.476-2.671-2.72-.283-.164-1.033-.505-1.49-.363-.15.046-.272.157-.328.301-.193.443 1.122 2.29 2.177 3.783 1.127 1.59 2.294 3.237 2.567 4.238.544 1.984 2.734 3.836 2.757 3.853l.053.045v.075c0 .204 1.172 20.719 1.32 24.435.148 3.715.687 11.329.696 11.409v.075l-.058.053c-3.735 3.543-7.721 14.576-7.762 14.687v.053l-3.68 2.343c-2.948.9-5.708 2.316-8.148 4.18l-.143.129z" transform="translate(0 -118) translate(0 118)"/>
                <path fill="#231F20" d="M252.185 96L252 95.712 252.05 95.674 259.87 90 259.916 90 259.92 90.184 260 90.326zM243.697 86l-.033-.03v-.045c0-.044-1.287-4.252-3.496-4.789-1.307-.321-2.776-3.812-4.48-7.853-1.538-3.64-3.122-7.403-4.688-9.067l.274-.216c1.604 1.708 3.203 5.498 4.75 9.164 1.546 3.667 3.106 7.373 4.235 7.65 2.305.564 3.587 4.49 3.741 4.98v.083h-.178l-.125.123zM239.179 189l-.072-.094s-1.624-2.087-4.665-5.271c-3.04-3.185 10.56-39.816 11.277-41.759v-5.333l-1.615-13.942c-2.16-2.91-3.928-10.452-5.034-16.28-.875-4.534-1.353-8.24-1.38-8.276l.334-.045c0 .036.505 3.733 1.38 8.257 1.105 5.82 2.865 13.348 4.998 16.19l.027.037 1.629 14.05v5.423c-4.962 13.24-13.758 38.939-11.372 41.435 2.706 2.815 4.267 4.767 4.614 5.203l10.592-3.463.108.32L239.179 189z" transform="translate(0 -118) translate(0 118)"/>
                <path fill="#231F20" d="M239.69 107c-.838-1.528-20.535-37.386-20.688-41.456-.125-3.573 5.462-25.607 7.18-32.272l.037-.151c.016-.04.029-.08.037-.121l.343.058c-.011.055-.027.109-.047.16l-.037.135c-1.713 6.65-7.29 28.636-7.166 32.183.148 3.988 20.443 40.932 20.651 41.303l-.31.161zM276.33 27l-.33-.037 1.247-11.527.058-.046c.076-.056.744-.556 1.226-.333.257.148.414.434.405.74.062.714.08 2.983.049 6.739v.296h-.334v-.324c.031-3.747 0-6.02-.05-6.706 0-.25-.088-.403-.209-.463-.227-.106-.637.12-.828.25L276.33 27z" transform="translate(0 -118) translate(0 118)"/>
                <path fill="#231F20" d="M287.928 24L278 22.253 278.077 22 288 23.747z" transform="translate(0 -118) translate(0 118)"/>
                <path fill="#231F20" d="M283.461 23l-.294-.025c.195-2.778.569-8.134.553-8.537 0-.046-.02-.085-.096-.11-.277-.053-.563.013-.795.182-.08.23-.962 4.902-1.539 7.985l-.29-.063c.342-1.84 1.467-7.862 1.567-8.057.28-.294.677-.427 1.065-.357.202.029.356.207.366.425.04.504-.513 8.226-.537 8.557zM286.904 24l-.375-.067s0-.08.066-.228c.684-2.645 1.98-7.778 2.026-8.185 0-.044 0-.089-.096-.13-.337-.086-.7-.058-1.013.081-.112.197-1.612 4.08-3.04 7.837l-.112.294-.36-.111s.046-.108.111-.29c1.095-2.882 2.955-7.743 3.092-7.922.403-.267.926-.348 1.408-.219.25.053.416.262.385.487-.05.527-1.829 7.452-2.027 8.239-.05.143-.065.214-.065.214zM234.294 33l-.222-.257s2.234-1.902 2.784-3.917c.272-1.019 1.453-2.705 2.593-4.31 1.072-1.523 2.407-3.416 2.207-3.853-.056-.15-.178-.264-.331-.311-.454-.14-1.222.207-1.508.37-.2.247-1.753 2.127-2.725 2.767-.471.295-.965.554-1.476.775-1.163.537-2.475 1.055-2.489 1.064l-.127-.315s1.322-.523 2.47-1.055c.495-.214.974-.464 1.431-.748.954-.645 2.63-2.705 2.648-2.705l.045-.04c.041-.028 1.09-.64 1.817-.415.247.074.446.255.545.491.264.586-.681 1.97-2.239 4.188-1.126 1.59-2.27 3.24-2.548 4.2-.563 2.101-2.78 3.994-2.875 4.071zM225.612 32l-.066-.177L220 15.267l.1-.065s.898-.6 2.058.267c1.079.816 2.93 6.04 3.025 6.277l-.363.095c-.504-1.493-2.067-5.504-2.899-6.13-.706-.53-1.25-.401-1.467-.31L226 31.908l-.388.091z" transform="translate(0 -118) translate(0 118)"/>
                <path fill="#231F20" d="M235.666 25l-1.231-11.378c-.192-.13-.602-.356-.83-.245-.12.05-.187.204-.209.463-.062.713-.08 2.978-.05 6.728v.292h-.333v-.296c-.032-3.765 0-6.02.049-6.766-.01-.306.147-.593.405-.74.477-.223 1.15.268 1.227.328l.057.042L236 24.963l-.334.037z" transform="translate(0 -118) translate(0 118)"/>
                <path fill="#231F20" d="M224.339 21.079L234.478 21.079 234.478 21.079 224.339 21.079z" transform="translate(0 -118) translate(0 118) rotate(-12.86 229.409 21.079)"/>
                <path fill="#231F20" d="M230.553 21c-.023-.326-.572-8.045-.552-8.557 0-.224.163-.41.373-.424.387-.072.783.062 1.059.36.095.208 1.225 6.216 1.567 8.045l-.29.064c-.577-3.079-1.464-7.745-1.548-7.986-.226-.154-.498-.216-.764-.174-.087.03-.095.077-.1.119 0 .398.355 5.746.554 8.52l-.299.033zM227.09 22s0-.08-.06-.21c-.204-.794-1.983-7.719-2.029-8.241-.017-.229.153-.435.406-.491.477-.126.993-.043 1.389.223.07.09.507 1.076 3.001 7.688l.086.227.117.295-.36.112s-.046-.112-.117-.3l-.086-.227c-2.306-6.063-2.884-7.487-2.96-7.616-.317-.133-.678-.158-1.014-.072-.092.036-.107.08-.102.134.036.406 1.339 5.536 2.028 8.188.025.073.045.148.06.223l-.359.067zM229.241 65l-.241-.255c.522-.418 1.015-.866 1.477-1.34.718-.729 1.968-2.145 2.146-3.428L234.63 33H235l-.034.47-1.97 26.516c-.191 1.314-1.323 2.681-2.234 3.62-.475.492-.983.958-1.52 1.394zM271.28 170l-.28-.184c5.71-8.896 8.961-14.608 9.405-16.528.985-4.282-2.84-11.815-2.88-11.89l-1.973-8.381c-.218-2.413 0-23.317 0-24.186v-.068c.155-.363 15.642-36.32 16.063-39.108.422-2.79-5.048-33.688-5.106-34.002v-.036l4.88-17.2c-.19-.094-.67-.229-1.295.323-.723.65-2.08 4.816-2.542 6.367l-.32-.094c.071-.233 1.7-5.677 2.662-6.524 1.016-.897 1.801-.287 1.81-.278l.084.067-.03.108-4.88 17.25c.306 1.739 5.527 31.266 5.097 34.077-.43 2.811-15.261 37.284-16.073 39.162 0 .982-.208 21.765 0 24.097l1.957 8.318c.146.273 3.903 7.685 2.892 12.106-.599 2.44-5.479 10.38-9.472 16.604zM251.151 230c-.325.002-.649-.04-.963-.126-.96-.276-1.757-.956-2.188-1.866v-.067c0-.283.217-28.793 1.385-42.447.28-3.324.599-5.548.954-6.607.031-.238.865-6.643 1.74-8.406.874-1.763 8.028-20.293 8.104-20.481l.31.121c-.31.776-7.265 18.763-8.13 20.513-.866 1.749-1.705 8.262-1.713 8.33-.355 1.067-.67 3.26-.95 6.557-1.145 13.416-1.372 41.191-1.38 42.389.401.797 1.111 1.391 1.961 1.641 1.39.377 3.107-.192 5.135-1.7.031-.21.138-.897.315-1.924.67-4.077 2.503-14.354 5.015-21.755 2.446-7.177 2.663-18.39 2.637-22.876 0-1.463-.04-2.36-.04-2.369v-.053l.03-.045c.032-.045 3.014-4.463 6.347-9.653l.28.184c-3.151 4.907-5.996 9.132-6.32 9.612 0 .22.031 1.059.036 2.324.022 4.485-.196 15.722-2.663 22.966-2.503 7.365-4.332 17.633-5.002 21.7-.218 1.248-.324 1.988-.324 1.988v.067l-.058.045c-1.695 1.296-3.209 1.938-4.518 1.938z" transform="translate(0 -118) translate(0 118)"/>
                <path fill="#231F20" d="M264.144 182l-.144-.302 16.637-7.749c.036-.545.144-3.353-1.184-4.768-.548-.57-1.323-.873-2.118-.825-.448.013-.891.086-1.32.217l-3.1.888-2.396.683h-.058v-.187l-.058-.142 2.423-.692 3.1-.887c.457-.138.931-.216 1.41-.23.89-.055 1.759.287 2.368.931 1.575 1.677 1.279 4.977 1.265 5.119v.093L264.144 182zM243.248 247c-3.025 0-6.05-3.77-6.19-3.949l-.028-.049c-.688-1.987 10.765-13.67 12.073-14.992l.246.232c-5.048 5.114-12.378 13.197-12.005 14.626.296.362 3.809 4.57 6.784 3.671.797-.24 2.237-1.071 4.278-2.47 1.558-1.067 3.421-2.429 5.54-4.05 2.851-2.175 5.302-4.162 5.703-4.466.041-.844.338-8.74-2.51-9.223V226c3.326.558 2.848 9.272 2.825 9.642v.072l-.06.049c-.022 0-2.656 2.17-5.767 4.546-2.123 1.621-3.991 2.988-5.554 4.055-2.068 1.42-3.54 2.265-4.373 2.52-.314.082-.637.121-.962.115z" transform="translate(0 -118) translate(0 118)"/>
                <path fill="#231F20" d="M248.317 244L248 243.915 250.049 235.562 257 229 254.647 233.955 253.601 239.927 253.284 239.864 254.347 233.83 255.954 230.446 250.344 235.741zM282.107 187.993c-1.367.005-2.714-.32-3.926-.946-.859-.51-.968-1.014-.909-1.352.296-1.563-1.254-10.541-1.272-10.631l.336-.059c.068.374 1.577 9.127 1.273 10.753-.073.415.363.77.745.996 1.495.901 4.626 1.28 5.657.45.318-.256.836-1.238 1.472-4.477.677-3.47 1.132-7.659 1.136-7.722v-.045s.59-1.577 1.027-7.05c.127-1.572-.245-2.762-1.109-3.523-1.649-1.464-4.653-1.023-5.534-.856-1.418.28-3.408 3.352-3.426 3.379l-.287-.18c.082-.131 2.086-3.221 3.636-3.528.908-.18 4.057-.635 5.825.933.945.838 1.363 2.117 1.222 3.802-.418 5.257-.963 6.91-1.04 7.122-.037.33-.482 4.38-1.136 7.735-.536 2.703-1.059 4.244-1.595 4.672-.625.39-1.358.574-2.095.527z" transform="translate(0 -118) translate(0 118)"/>
                <path fill="#231F20" d="M284.963 184L283 178.983 283 178.933 283.785 168 284.044 168.009 284.226 174.842 286 176.047 285.879 176.348 283.975 175.054 283.858 170.643 283.262 178.915 285.191 183.847zM254.573 85l-.04-.317.974-.118c.203-.6.484-1.175.837-1.71.115-.195.198-.406.245-.625.231-1.131-.054-2.825-.726-3.183-.823-.448-1.891.629-1.9.637l-1.896 3.125-.094-.423c0-.025-.654-2.812-1.272-3.53-.334-.38-.259-.912-.183-1.422.09-.621.183-1.267-.387-1.74-.89-.722-6.137-.215-8.086.038L242 75.42c.734-.098 7.187-.917 8.349.038.703.586.596 1.346.498 2.018-.07.485-.129.903.112 1.178.525.612 1.037 2.457 1.246 3.272l1.49-2.449c.072-.08 1.287-1.296 2.333-.726.89.477 1.117 2.407.89 3.521-.053.257-.149.504-.285.73-.359.538-.639 1.119-.832 1.728l-.031.101-1.197.169z" transform="translate(0 -118) translate(0 118)"/>
                <path fill="#FFF" d="M275.812 132.5l1.188 4.931c-15.796 6.786-31.055 1.81-31.055 1.81l-1.651-16.227L242 118.13c1.794-5.605 1.794-25.021 1.794-25.021.683 3.14 2.688 3.705 2.688 3.705s.175 9.047 5.414 14.969c5.239 5.921 10.552-19.973 10.552-19.973L265.806 90s-1.73 11.472-1.266 16.665c.463 5.194 7.083 17.145 11.18 12.052l.092 13.783z" transform="translate(0 -118) translate(0 118)"/>
                <path fill="#231F20" d="M259.08 140.998c-4.416.037-8.815-.549-13.063-1.74l-.104-.035-1.644-16.163-2.269-4.873v-.063c1.748-5.47 1.766-24.555 1.766-24.748v-1.57l.336 1.543c.649 2.964 2.523 3.542 2.541 3.546l.123.036v.126c0 .09.236 8.967 5.32 14.723.599.682 1.198.933 1.815.762 4.299-1.125 8.27-20.282 8.306-20.475v-.076l3.69-1.991-.05.332c0 .112-1.701 11.414-1.252 16.48.354 3.982 4.39 11.86 7.893 12.9 1.09.322 2.052-.032 2.869-1.05l.3-.372.081 14.159 1.262 4.976-.127.058c-5.625 2.364-11.68 3.56-17.793 3.515zm-12.85-2.026c1.362.412 15.7 4.483 30.366-1.744l-1.144-4.748-.081-13.275c-.716.836-1.874 1.161-2.928.82-3.69-1.094-7.766-9.03-8.138-13.194-.409-4.61.93-14.302 1.207-16.226l-2.955 1.596c-.313 1.525-4.13 19.503-8.533 20.66-.763.197-1.494-.094-2.179-.866-4.843-5.474-5.351-13.746-5.397-14.826-.386-.153-1.602-.758-2.328-2.64-.037 4.218-.264 18.83-1.757 23.636l2.242 4.833 1.625 15.974z" transform="translate(0 -118) translate(0 118)"/>
                <path fill="#9881EE" d="M264.777 177.642c-2.712-4.274-13.019-5.191-13.019-5.191l5.753-26.45-9.373 30.343-.092.094c-4.094-3.915-9.665-3.517-12.391-3.012-.56.094-1.113.226-1.655.394l11.55-30.808v-3.222c17.674 4.864 29.954-1.79 29.954-1.79 4.54 5.696 5.496 16.105 5.496 16.105L266.158 182l-.885-3.213c-.102-.406-.27-.793-.496-1.145z" transform="translate(0 -118) translate(0 118)"/>
                <path fill="#231F20" d="M265.35 178.229l.65 3.446-1.97 1.325-.03-3.864.976-2.136c.17.377.295.792.374 1.229zM258 146L252.486 172.151 249 176z" transform="translate(0 -118) translate(0 118)"/>
                <path fill="#231F20" d="M251 172l-1.052 7c-.51-1.162-1.167-2.217-1.948-3.124l.075-.092L251 172zM235 173l-.495 3-.505-2.65c.328-.15.662-.267 1-.35z" transform="translate(0 -118) translate(0 118)"/>
                <path fill="#231F20" d="M267.454 182l-1.01-3.645c-.11-.394-.283-.769-.511-1.11-2.545-3.908-11.837-5.004-13.157-5.14l-1.407 7.553-.233-.415c-.645-1.182-1.476-2.256-2.462-3.18-4.112-3.849-9.695-3.529-12.65-2.992-.57.092-1.131.223-1.681.393l-.343.113 12.038-31.37v-3.434l.219.059c17.963 4.827 30.667-1.701 30.795-1.769l.123-.063.092.108c4.678 5.694 5.724 16.202 5.733 16.306v.05l-.027.044L267.453 182zm-14.957-10.26h.156c.456.036 10.749.984 13.567 5.31.25.368.436.774.553 1.2l.786 2.83 15.076-27.702c-.083-.79-1.188-10.535-5.57-15.967-1.37.667-13.677 6.289-30.703 1.804v3.086l-11.791 30.761c.292-.08.772-.198 1.37-.307 3.02-.545 8.717-.87 12.947 3.077.894.843 1.663 1.806 2.284 2.86l1.325-6.952z" transform="translate(0 -118) translate(0 118)"/>
                <path fill="#231F20" d="M235.022 177L234 172.592 234.323 172.477 235 175.388 235.673 172 236 172.099zM264.045 183L264 179.075 265.408 177 265.695 177.175 265.668 177.211 264.341 179.174 264.372 182.479 266.861 181.347 267 181.653zM248.329 176L248 175.903 257.671 146 258 146.088 252.078 172.151 251.744 172.08 256.822 149.739z" transform="translate(0 -118) translate(0 118)"/>
                <path fill="#3DEA8F" d="M247 150.36V234L77 168.65V85l170 65.36zm-5.806 74.172v-68.237L83.12 95.54v68.237l158.073 60.754z" transform="translate(0 -118) translate(0 118)"/>
                <path fill="#3DEA8F" d="M241 155.782V224L83 163.218V95l158 60.782zm-7.163 61.095V158.03L90.159 102.782v58.843l143.678 55.252z" transform="translate(0 -118) translate(0 118)"/>
                <path fill="#12CA70" d="M233 158.202V217L90 161.794V103l143 55.202zm-22.347 28.749c2.72-.417 4.44-3.875 3.845-7.718-.596-3.843-3.28-6.614-5.996-6.193-2.716.422-4.44 3.88-3.845 7.722.596 3.843 3.28 6.61 5.996 6.189zm-50.538-5.099c9.137-1.417 14.927-13.036 12.928-25.95-1.998-12.915-11.005-22.238-20.165-20.812-9.159 1.426-14.926 13.036-12.927 25.95 1.998 12.915 11.027 22.225 20.164 20.812zm-56.295-35.516c2.715-.421 4.436-3.874 3.844-7.717-.591-3.843-3.28-6.615-6-6.193-2.72.422-4.44 3.879-3.845 7.717.596 3.84 3.276 6.606 6 6.193z" transform="translate(0 -118) translate(0 118)"/>
                <path fill="#3DEA8F" d="M215.883 178.238c.591 3.844-1.115 7.303-3.813 7.72-2.698.418-5.333-2.35-5.946-6.19-.614-3.84 1.115-7.304 3.813-7.726 2.697-.421 5.36 2.356 5.946 6.196zM173.616 154.938c1.946 12.9-3.693 24.504-12.592 25.92-8.899 1.415-17.693-7.897-19.64-20.796-1.946-12.9 3.688-24.504 12.592-25.92 8.903-1.415 17.689 7.897 19.64 20.796zM107.885 138.237c.586 3.845-1.12 7.299-3.815 7.72-2.694.422-5.362-2.35-5.953-6.194-.591-3.845 1.12-7.299 3.814-7.72 2.695-.422 5.362 2.354 5.954 6.194z" transform="translate(0 -118) translate(0 118)"/>
                <path fill="#231F20" d="M247 233l-.23-.09L77 167.284V83l.225.09L247 148.712V233zM77.333 167.05l169.33 65.445v-83.55l-169.33-65.45v83.555z" transform="translate(0 -118) translate(0 118)"/>
                <path fill="#231F20" d="M241 224l-.23-.09L83 163.33V95l.23.09L241 155.684V224zM83.319 163.096l157.344 60.425v-67.604L83.319 95.492v67.604z" transform="translate(0 -118) translate(0 118)"/>
                <path fill="#231F20" d="M233 217l-.224-.09L90 161.903V103l.228.09L233 158.092V217zM90.335 161.67l142.339 54.839v-58.183l-142.339-54.83v58.174z" transform="translate(0 -118) translate(0 118)"/>
                <path fill="#231F20" d="M158.327 181c-8.75 0-17.006-8.921-18.923-20.93-2.058-12.897 3.943-24.509 13.367-25.927 9.424-1.42 18.766 7.907 20.825 20.787 2.058 12.897-3.943 24.509-13.367 25.928-.63.093-1.265.14-1.902.142zm-3.667-46.666c-.614 0-1.227.047-1.834.138-9.241 1.387-15.127 12.848-13.082 25.545 2.044 12.698 11.189 21.895 20.43 20.512 9.241-1.384 15.127-12.849 13.082-25.546-1.893-11.861-9.997-20.68-18.578-20.68l-.018.03zM211.516 185.998c-2.495 0-4.843-2.654-5.39-6.224-.298-1.737-.066-3.527.668-5.125.722-1.471 1.84-2.4 3.156-2.606 1.316-.206 2.658.329 3.785 1.511 1.168 1.298 1.919 2.93 2.15 4.674.345 2.247-.098 4.485-1.182 5.992-.612.922-1.565 1.554-2.64 1.752-.182.023-.365.032-.547.026zm-1.01-13.67c-.17 0-.337.013-.504.04-1.209.192-2.245 1.055-2.92 2.43-.702 1.536-.924 3.255-.637 4.923.56 3.658 3.058 6.308 5.57 5.91.99-.18 1.869-.76 2.434-1.608 1.032-1.433 1.454-3.583 1.123-5.743-.224-1.679-.946-3.248-2.07-4.498-.761-.881-1.844-1.407-2.997-1.454zM103.516 146c-2.493 0-4.844-2.654-5.39-6.228-.297-1.736-.065-3.523.666-5.12.722-1.472 1.844-2.4 3.155-2.607 2.69-.438 5.356 2.352 5.94 6.185.58 3.837-1.135 7.301-3.821 7.726-.182.03-.366.045-.55.044zm-1.019-13.67c-.167 0-.334.013-.499.04-1.207.192-2.243 1.05-2.918 2.43-.698 1.536-.92 3.252-.636 4.919.559 3.657 3.056 6.312 5.588 5.913 2.531-.399 4.109-3.697 3.554-7.35-.537-3.412-2.75-5.952-5.089-5.952z" transform="translate(0 -118) translate(0 118)"/>
                <path fill="#18A058" d="M60 28v205.489c0 1.385-2.014 2.511-4.5 2.511s-4.5-1.126-4.5-2.511V28c0 1.386 2.014 2.507 4.5 2.507S60 29.386 60 28z" transform="translate(0 -118) translate(0 118)"/>
                <path fill="#3DEA8F" d="M55.5 24c2.486 0 4.5 1.117 4.5 2.502C60 27.887 57.986 29 55.5 29S51 27.883 51 26.502C51 25.122 53.014 24 55.5 24z" transform="translate(0 -118) translate(0 118)"/>
                <path fill="#231F20" d="M60.831 27H61.831V233H60.831zM50.831 27H51.831V233H50.831zM56.007 236C53.2 236 51 235.127 51 234h.33c0 .96 2.097 1.74 4.668 1.74 2.57 0 4.663-.78 4.663-1.74H61c.009 1.127-2.187 2-4.993 2z" transform="translate(0 -118) translate(0 118)"/>
                <path fill="#231F20" d="M56.002 30C53.2 30 51 28.69 51 27s2.199-3 5.002-3C58.806 24 61 25.31 61 27s-2.194 3-4.998 3zm0-5.59c-2.569 0-4.663 1.17-4.663 2.61s2.094 2.61 4.663 2.61c2.57 0 4.66-1.17 4.66-2.61s-2.109-2.61-4.66-2.61z" transform="translate(0 -118) translate(0 118)"/>
                <path fill="#18A058" d="M287 114v205.489c0 1.385-2.014 2.511-4.5 2.511s-4.5-1.126-4.5-2.511V114c0 1.386 2.014 2.507 4.5 2.507s4.5-1.121 4.5-2.507z" transform="translate(0 -118) translate(0 118)"/>
                <path fill="#3DEA8F" d="M282.5 112c2.486 0 4.5 1.114 4.5 2.496 0 1.381-1.977 2.504-4.5 2.504-2.523 0-4.5-1.114-4.5-2.491s2.031-2.509 4.5-2.509z" transform="translate(0 -118) translate(0 118)"/>
                <path fill="#231F20" d="M286.831 114H287.831V320H286.831zM277.831 114H278.831V320H277.831zM281.998 323c-2.804 0-4.998-.873-4.998-2h.339c0 .96 2.09 1.74 4.659 1.74s4.663-.78 4.663-1.74H287c.018 1.127-2.18 2-5.002 2z" transform="translate(0 -118) translate(0 118)"/>
                <path fill="#231F20" d="M281.998 118c-2.804 0-4.998-1.31-4.998-3s2.194-3 4.998-3c2.803 0 5.002 1.315 5.002 3s-2.18 3-5.002 3zm0-5.595c-2.57 0-4.66 1.175-4.66 2.615 0 1.44 2.09 2.605 4.66 2.605 2.569 0 4.663-1.17 4.663-2.605s-2.072-2.615-4.663-2.615z" transform="translate(0 -118) translate(0 118)"/>
                <path fill="#231F20" d="M67.059 31.191L67.059 31.191 67.059 85.998 67.059 85.998z" transform="translate(0 -118) translate(0 118) rotate(-21.02 67.06 58.595)"/>
                <path fill="#231F20" d="M33.446 198.916L99.021 198.916 99.021 198.916 33.446 198.916z" transform="translate(0 -118) translate(0 118) rotate(-71.07 66.233 198.916)"/>
                <path fill="#231F20" d="M262.037 230.423L262.037 230.423 262.037 315.906 262.037 315.906z" transform="translate(0 -118) translate(0 118) rotate(-21.33 262.037 273.165)"/>
                <path fill="#231F20" d="M282.956 135.648h-41.823 41.823z" transform="translate(0 -118) translate(0 118) rotate(-41.99 262.045 135.648)"/>
                <path fill="#12CA70" style="mix-blend-mode:color" d="M0 0H375V351H0z" transform="translate(0 -118) translate(0 118)"/>
            </g>
        </g>
    </g>
</svg>
