<svg xmlns="http://www.w3.org/2000/svg" width="375" height="490" viewBox="0 0 375 490"><rect width="375" height="490" fill="#12ca70"/><g transform="translate(52 346)" opacity="0.21"><path d="M0,0,233.838,89.469" transform="translate(0.946 3.687)" fill="#fff"/><path d="M0,0,4.919.014l.7,250.368L.7,250.368Z" transform="matrix(0.36, -0.933, 0.933, 0.36, 0.057, 5.991)" fill="#231f20"/></g><g transform="translate(207 301)" opacity="0.21"><path d="M67.006,17.812c37.027-.154,67.06-4.265,67.08-9.182S104.107-.149,67.08,0,.02,4.269,0,9.187,29.979,17.966,67.006,17.812Z" transform="translate(0.116 75.847) rotate(-34.24)" fill="#231f20"/></g><path d="M68.459,11.357S70.174,5.726,71.114,4.9s1.63-.274,1.63-.274L67.75,21.936s5.67,31.265,5.225,34.1-16.437,39.19-16.437,39.19-.222,21.768,0,24.18l2,8.356s3.995,7.633,2.96,12.02c-.567,2.42-5.411,10.157-9.641,16.614h0c-3.45,5.254-6.5,9.663-6.5,9.663s.032.9.041,2.375c.023,4.791-.222,15.779-2.724,22.936-2.519,7.252-4.4,17.48-5.12,21.75-.222,1.248-.331,1.994-.331,1.994-5.765,4.248-7.585,0-7.585,0s.2-28.661,1.412-42.482L20.27,176.146s-1.6-2.052-4.707-5.276S26.97,129.327,26.97,129.327v-5.379l-1.634-13.982c-2.138-2.82-3.922-10.274-5.061-16.223h0S.152,56.259,0,52.146C-.134,48.2,6.552,21.675,7.07,19.6L2.122,2.475s.685-.548,1.634.274,2.66,6.457,2.66,6.457L7.4,8.977l2.229-.5,1.3-.3,2.451-.552.862-.2c0-.242-.064-5.635.045-6.821S15.681.329,15.681.329l1.266,11.109.045.094a10.772,10.772,0,0,0,1.453-.759,19.183,19.183,0,0,0,2.683-2.748s1.666-.988,2.106,0-4.222,6.152-4.789,8.244a9.807,9.807,0,0,1-2.832,3.992h-.082L13.715,46.91a7.58,7.58,0,0,1-2.02,3.534C14.8,54.036,18.05,67.057,20.274,67.65S23.629,72.4,23.7,72.657h0c.277,4.266.962,8.693,2.574,10.525,1.362,1.545,3.559.844,5.738-.584l.054-.04L40.47,77.2a9.523,9.523,0,0,0,1.008,3.08,26.039,26.039,0,0,1,8.3-4.261l3.631-2.326S57.451,62.41,61.3,58.737c0,0-.558-7.759-.7-11.567s-1.339-24.777-1.339-24.777A9.91,9.91,0,0,1,56.42,18.4c-.572-2.083-5.234-7.252-4.793-8.244s2.111,0,2.111,0a19.163,19.163,0,0,0,2.683,2.748,10.772,10.772,0,0,0,1.453.759l.045-.094,1.262-11.1s1.28-.934,1.389.274.05,6.56.05,6.825l.858.193,2.456.557,1.3.3,2.224.5Z" transform="translate(219 131)" fill="#bd8682"/><path d="M4.953.193c1.548-.281,7.462-1,7.024,4.44s-1.063,6.914-1.063,6.914L8.428,10.323,8.176,3.576,7.112,14.249l2.621,4.834c-.466,2.141-.989,4.01-1.572,4.453-1.525,1.145-7.154,0-6.856-1.579S0,11.547,0,11.547L4.906,9.353s.63-5.878-3.568-5.778C1.339,3.576,3.4.5,4.953.193Z" transform="translate(276 282)" fill="#231f20"/><path d="M13.465,0c4.088-.086,3.507,6,3.507,6L12.193,8.268.041,14C.041,12.5,0,11.6,0,11.6s3.016-4.48,6.482-9.786h0c.036,0,.513-.15,5.574-1.6A5.383,5.383,0,0,1,13.465,0Z" transform="translate(264 286)" fill="#bd8682"/><path d="M8,5.039,0,10A35.157,35.157,0,0,0,6.423,4.184L7,0S7.473,2.775,8,5.039Z" transform="translate(252 203)" fill="#231f20"/><path d="M19.4,0c3.093.544,2.563,9.6,2.563,9.6s-2.541,2.174-5.59,4.607L17.44,8.145l2.024-4.217-6.394,6L11,18.337a19.185,19.185,0,0,1-4.2,2.528C3.658,21.857.025,17.06.025,17.06-.629,15.085,11.7,2.025,11.7,2.025s1.768,4.285,7.384,0C19.08,2.011,19.186,1.259,19.4,0Z" transform="translate(236 344)" fill="#231f20"/><path d="M11.621.976c5.323,3.017,4.6,9.68,3.879,12.908H14.263c.233-1.224-.039-3.138-.78-3.564-.914-.542-2.039.713-2.039.713L9.8,14A15.235,15.235,0,0,0,8.53,10.18C7.9,9.378,9.056,7.8,7.961,6.8S0,6.8,0,6.8,4.448-3.077,11.621.976Z" transform="translate(244 186)" fill="#231f20"/><path d="M14.728,7.642H16A16.159,16.159,0,0,1,15.486,9.5l-.576,4.594a37.167,37.167,0,0,1-6.589,6.387l-.053.041c-2.127,1.451-4.267,2.162-5.6.593C1.093,19.252.424,14.754.154,10.42h0C-.152,5.311.092.448.092.448s7.05-1.008,8.184,0-.071,2.628.585,3.435,1.3,3.887,1.3,3.887l1.693-3.02s1.157-1.277,2.1-.725C14.688,4.462,14.968,6.4,14.728,7.642Z" transform="translate(242 193)" fill="#bd8682"/><path d="M8,0,6.088,4.111,5.081,10c-1.67,1.36-3.47,2.808-5.081,4L1.958,5.831Z" transform="translate(248 348)" fill="#fff"/><path d="M8.664,27l-.188-.28a36.916,36.916,0,0,0,6.581-6.251l.59-4.51a17.1,17.1,0,0,0,.523-1.849C18.079,5.9,14.525,2.57,12.236,1.311A6.593,6.593,0,0,0,6.822.666C2.982,1.943.63,6.651.425,7.071c0,.451-.228,5.042.067,9.8H.156Q-.121,11.941.094,7V6.935C.192,6.723,2.566,1.7,6.706.328A6.912,6.912,0,0,1,12.384,1c5.731,3.157,4.779,10.26,4.1,13.174a16.94,16.94,0,0,1-.528,1.854l-.6,4.551-.027.036A35.761,35.761,0,0,1,8.664,27Z" transform="translate(242 186)" fill="#231f20"/><path d="M4.388,12a2.393,2.393,0,0,1-1.948-.968C1.169,9.4.322,5.7,0,.023L.313,0C.639,5.583,1.436,9.231,2.677,10.8c1.038,1.3,2.77,1.089,5.146-.637L8,10.455A6.6,6.6,0,0,1,4.388,12Z" transform="translate(242 203)" fill="#231f20"/><path d="M2.209,70,2.1,69.916c-.189-.151-.48-.647-1.059-3.136C.5,64.393.009,61.426,0,61.395l.337-.053c0,.031.494,2.985,1.032,5.363a12.219,12.219,0,0,0,.862,2.848,26.408,26.408,0,0,1,8.129-4.137l3.519-2.25c.341-.935,4.094-11.139,7.775-14.7-.058-.815-.561-7.826-.691-11.343-.144-3.605-1.239-23.031-1.315-24.359a9.592,9.592,0,0,1-2.806-3.986A18.948,18.948,0,0,0,14.32,4.637C12.784,2.463,11.855,1.094,12.111.532A.84.84,0,0,1,12.65.049a2.836,2.836,0,0,1,1.8.407l.045.035a18.219,18.219,0,0,0,2.617,2.657,11.063,11.063,0,0,0,1.41.735c1.14.523,2.433,1.028,2.446,1.036l-.126.306s-1.315-.514-2.46-1.041a10.919,10.919,0,0,1-1.459-.762A18.107,18.107,0,0,1,14.248.7a2.376,2.376,0,0,0-1.49-.363.509.509,0,0,0-.328.3c-.193.443,1.122,2.29,2.177,3.782a18.982,18.982,0,0,1,2.568,4.239,9.6,9.6,0,0,0,2.756,3.853l.054.044v.075c0,.2,1.172,20.719,1.32,24.435S21.991,48.4,22,48.48v.075l-.058.053c-3.735,3.543-7.721,14.576-7.761,14.686v.053L10.5,65.691a25.85,25.85,0,0,0-8.147,4.181Z" transform="translate(258 140)" fill="#231f20"/><path d="M.185,6,0,5.712l.05-.038L7.87,0h.046l0,.184L8,.326.185,6Z" transform="translate(252 208)" fill="#231f20"/><path d="M12.7,22l-.034-.031v-.044c0-.044-1.287-4.252-3.5-4.789-1.306-.321-2.776-3.812-4.481-7.853C3.15,5.643,1.566,1.88,0,.216L.274,0c1.6,1.708,3.2,5.5,4.75,9.164s3.107,7.373,4.236,7.65c2.305.563,3.587,4.49,3.741,4.978h0v.084h-.178Z" transform="translate(231 182)" fill="#231f20"/><path d="M5.179,91l-.072-.094S3.483,88.819.442,85.635,11,45.819,11.719,43.876V38.543L10.1,24.6C7.944,21.691,6.176,14.149,5.07,8.32,4.2,3.787,3.717.081,3.69.045L4.024,0c0,.036.505,3.733,1.38,8.257,1.105,5.82,2.864,13.348,5,16.191l.027.036,1.628,14.05v5.424C7.1,57.2-1.7,82.9.686,85.392c2.706,2.815,4.267,4.767,4.615,5.2l10.591-3.463.108.319Z" transform="translate(234 216)" fill="#231f20"/><path d="M20.69,74C19.852,72.472.155,36.614,0,32.544-.123,28.971,5.464,6.937,7.182.272L7.219.121A.631.631,0,0,0,7.256,0L7.6.058a1,1,0,0,1-.046.161L7.515.353C5.8,7,.224,28.989.349,32.536.5,36.524,20.792,73.468,21,73.839Z" transform="translate(219 151)" fill="#231f20"/><path d="M.33,12,0,11.963,1.247.436,1.305.39c.076-.056.744-.556,1.225-.333A.826.826,0,0,1,2.936.8c.062.713.08,2.982.049,6.738v.3H2.651V7.508c.031-3.746,0-6.02-.049-6.706A.481.481,0,0,0,2.392.339c-.227-.107-.637.12-.829.25Z" transform="translate(276 133)" fill="#231f20"/><path d="M9.928,2,0,.253.077,0,10,1.747,9.928,2Z" transform="translate(278 140)" fill="#231f20"/><path d="M2.461,9l-.294-.025C2.362,6.2,2.736.841,2.72.438c0-.047-.02-.085-.1-.11a1.02,1.02,0,0,0-.8.182C1.749.739.867,5.412.29,8.5L0,8.432C.342,6.591,1.467.57,1.567.375A1.18,1.18,0,0,1,2.632.018.439.439,0,0,1,3,.443C3.038.947,2.485,8.669,2.461,9Z" transform="translate(281 132)" fill="#231f20"/><path d="M2.9,9l-.375-.067a.632.632,0,0,1,.066-.228C3.279,6.06,4.576.927,4.621.52c0-.045,0-.089-.1-.13a1.559,1.559,0,0,0-1.013.08C3.4.668,1.9,4.55.471,8.308L.36,8.6,0,8.491s.046-.107.111-.29C1.206,5.319,3.066.458,3.2.279A1.755,1.755,0,0,1,4.611.06.454.454,0,0,1,5,.547C4.946,1.074,3.167,8,2.969,8.786A1.933,1.933,0,0,0,2.9,9Z" transform="translate(284 133)" fill="#231f20"/><path d="M1.294,13l-.223-.257A9.862,9.862,0,0,0,3.856,8.826,18.818,18.818,0,0,1,6.449,4.517C7.521,2.993,8.856,1.1,8.656.663A.516.516,0,0,0,8.325.352a2.468,2.468,0,0,0-1.508.37A17.878,17.878,0,0,1,4.092,3.489a11.024,11.024,0,0,1-1.476.775C1.453,4.8.141,5.319.127,5.328L0,5.013S1.322,4.49,2.471,3.958A10.983,10.983,0,0,0,3.9,3.21,20.918,20.918,0,0,0,6.549.5L6.594.464A2.811,2.811,0,0,1,8.411.05a.861.861,0,0,1,.545.491c.263.586-.681,1.97-2.239,4.188a19.8,19.8,0,0,0-2.548,4.2A9.829,9.829,0,0,1,1.294,13Z" transform="translate(233 138)" fill="#231f20"/><path d="M5.612,17l-.066-.177L0,.267.1.2A1.8,1.8,0,0,1,2.158.469c1.079.815,2.929,6.039,3.025,6.277l-.363.095c-.5-1.493-2.067-5.5-2.9-6.13A1.457,1.457,0,0,0,.454.4L6,16.909Z" transform="translate(220 133)" fill="#231f20"/><path d="M2.666,12,1.435.622C1.243.493.833.266.606.377.485.428.418.581.4.84.334,1.553.316,3.818.347,7.568V7.86H.013v-.3C-.019,3.8.013,1.544.062.8A.821.821,0,0,1,.467.057c.477-.222,1.15.269,1.226.329l.058.042L3,11.963Z" transform="translate(233 131)" fill="#231f20"/><path d="M0,.5H0Z" transform="translate(224.355 139.72) rotate(-12.86)" fill="#231f20"/><path d="M.553,9C.53,8.674-.019.955,0,.443A.413.413,0,0,1,.374.019a1.149,1.149,0,0,1,1.058.36C1.528.587,2.658,6.6,3,8.424l-.29.064C2.133,5.409,1.246.743,1.162.5A1.056,1.056,0,0,0,.4.328.12.12,0,0,0,.3.447c0,.4.354,5.746.553,8.519Z" transform="translate(230 130)" fill="#231f20"/><path d="M2.09,9a.55.55,0,0,0-.061-.21C1.826,8,.047,1.071,0,.549A.484.484,0,0,1,.407.058,1.722,1.722,0,0,1,1.8.281c.071.089.507,1.076,3,7.688l.086.228L5,8.491,4.64,8.6s-.046-.112-.117-.3l-.086-.228C2.131,2.013,1.553.589,1.477.46A1.608,1.608,0,0,0,.463.388C.371.424.356.469.361.522.4.928,1.7,6.058,2.389,8.71a1.824,1.824,0,0,1,.061.223Z" transform="translate(225 131)" fill="#231f20"/><path d="M.241,32,0,31.745A16.18,16.18,0,0,0,1.477,30.4a7.373,7.373,0,0,0,2.146-3.427L5.631,0H6L5.966.469,4,26.986a7.61,7.61,0,0,1-2.235,3.62A17.063,17.063,0,0,1,.241,32Z" transform="translate(229 151)" fill="#231f20"/><path d="M.279,152,0,151.816c5.71-8.9,8.961-14.609,9.4-16.528.985-4.282-2.839-11.815-2.879-11.891l-1.974-8.38c-.217-2.412,0-23.316,0-24.186v-.067c.155-.363,15.642-36.32,16.064-39.109s-5.049-33.688-5.106-34v-.036l4.88-17.2a1.138,1.138,0,0,0-1.3.323c-.723.65-2.081,4.816-2.542,6.367l-.319-.094c.071-.233,1.7-5.677,2.662-6.524A1.387,1.387,0,0,1,20.7.211l.084.067-.031.108-4.88,17.25c.306,1.74,5.528,31.266,5.1,34.078S5.714,89,4.9,90.875c0,.982-.209,21.765,0,24.1l1.956,8.318c.146.274,3.9,7.685,2.892,12.107C9.152,137.835,4.272,145.776.279,152Z" transform="translate(271 136)" fill="#231f20"/><path d="M3.151,80a3.59,3.59,0,0,1-.963-.126A3.494,3.494,0,0,1,0,78.008v-.067c0-.283.217-28.793,1.385-42.447a35.025,35.025,0,0,1,.954-6.607c.031-.238.865-6.643,1.74-8.406S12.107.188,12.183,0l.311.121C12.183.9,5.228,18.884,4.363,20.634s-1.7,8.262-1.713,8.33a34.919,34.919,0,0,0-.95,6.558C.555,48.937.328,76.712.32,77.91a3.217,3.217,0,0,0,1.962,1.642c1.389.377,3.107-.193,5.135-1.7.031-.211.138-.9.315-1.924.67-4.077,2.5-14.354,5.015-21.755C15.192,47,15.409,35.781,15.383,31.3c0-1.462-.04-2.359-.04-2.368v-.054l.031-.045c.031-.045,3.014-4.463,6.347-9.653l.28.184c-3.151,4.907-6,9.133-6.32,9.613,0,.22.031,1.059.036,2.324.022,4.486-.2,15.722-2.663,22.966-2.5,7.365-4.332,17.633-5,21.7-.217,1.247-.324,1.987-.324,1.987v.067l-.058.045A7.819,7.819,0,0,1,3.151,80Z" transform="translate(248 268)" fill="#231f20"/><path d="M.144,14,0,13.7,16.637,5.949c.036-.546.144-3.353-1.185-4.768A2.709,2.709,0,0,0,13.335.356a4.96,4.96,0,0,0-1.319.217l-3.1.887-2.4.683H6.461V1.957L6.4,1.815l2.423-.692,3.1-.887A5.441,5.441,0,0,1,13.335.006,3.006,3.006,0,0,1,15.7.937c1.575,1.677,1.279,4.977,1.265,5.119v.093Z" transform="translate(264 286)" fill="#231f20"/><path d="M6.248,21C3.223,21,.2,17.23.057,17.051L.03,17C-.658,15.015,10.8,3.332,12.1,2.01l.246.232C7.3,7.356-.029,15.439.344,16.868c.3.362,3.809,4.569,6.784,3.671a20.137,20.137,0,0,0,4.278-2.47c1.558-1.067,3.421-2.43,5.54-4.051,2.852-2.175,5.3-4.162,5.7-4.466.041-.844.337-8.74-2.51-9.222V0c3.326.558,2.847,9.272,2.825,9.642v.071l-.059.049c-.023,0-2.656,2.171-5.768,4.546-2.123,1.621-3.991,2.988-5.554,4.055A20.339,20.339,0,0,1,7.21,20.883,3.505,3.505,0,0,1,6.248,21Z" transform="translate(237 344)" fill="#231f20"/><path d="M.317,15,0,14.915,2.049,6.562,9,0,6.647,4.955,5.6,10.927l-.317-.063L6.347,4.83,7.954,1.446l-5.609,5.3L.317,15Z" transform="translate(248 347)" fill="#231f20"/><path d="M6.107,24.993a8.483,8.483,0,0,1-3.926-.946c-.859-.509-.968-1.014-.909-1.351C1.568,21.132.018,12.154,0,12.064l.336-.059c.068.374,1.577,9.127,1.272,10.753-.073.414.364.77.745,1,1.495.9,4.626,1.279,5.657.45.318-.257.836-1.239,1.472-4.478.677-3.469,1.131-7.658,1.136-7.721V11.96s.591-1.577,1.027-7.05a4.017,4.017,0,0,0-1.109-3.523C8.888-.077,5.884.364,5,.531,3.585.81,1.595,3.883,1.577,3.91L1.29,3.73C1.372,3.6,3.376.509,4.926.2c.909-.18,4.058-.635,5.825.933a4.325,4.325,0,0,1,1.222,3.8c-.418,5.257-.963,6.911-1.041,7.122-.036.329-.482,4.379-1.136,7.735-.536,2.7-1.059,4.244-1.595,4.672a3.541,3.541,0,0,1-2.095.527Z" transform="translate(276 281)" fill="#231f20"/><path d="M1.963,16,0,10.983v-.049L.785,0l.258.009.183,6.833L3,8.047l-.121.3L.975,7.054.858,2.643l-.6,8.272,1.929,4.932L1.963,16Z" transform="translate(283 286)" fill="#231f20"/><path d="M12.573,10l-.04-.317.975-.118a7.426,7.426,0,0,1,.837-1.71,2.069,2.069,0,0,0,.245-.625c.231-1.132-.053-2.825-.725-3.184-.823-.448-1.891.629-1.9.638l-1.9,3.125-.093-.422A13.192,13.192,0,0,0,8.7,3.857a1.7,1.7,0,0,1-.182-1.423c.089-.621.182-1.267-.387-1.74C7.241-.028,1.994.479.045.732L0,.42C.734.322,7.187-.5,8.349.458a1.953,1.953,0,0,1,.5,2.018c-.071.486-.129.9.111,1.178A11.189,11.189,0,0,1,10.2,6.926L11.7,4.477c.071-.08,1.286-1.3,2.332-.726.89.477,1.117,2.407.89,3.521a2.335,2.335,0,0,1-.285.73A6.84,6.84,0,0,0,13.8,9.73l-.031.1Z" transform="translate(242 193)" fill="#231f20"/><path d="M33.812,42.5,35,47.431C19.2,54.217,3.945,49.241,3.945,49.241L2.294,33.014,0,28.129c1.794-5.6,1.794-25.021,1.794-25.021.684,3.139,2.688,3.7,2.688,3.7S4.657,15.86,9.9,21.782,20.448,1.809,20.448,1.809L23.806,0s-1.73,11.472-1.266,16.665S29.623,33.81,33.72,28.717Z" transform="translate(242 208)" fill="#fff"/><path d="M4.017,49.259l-.1-.036L2.27,33.061,0,28.187v-.063C1.748,22.655,1.766,3.569,1.766,3.376V1.807L2.1,3.349C2.75,6.313,4.625,6.891,4.643,6.9l.122.035v.126c0,.09.237,8.967,5.32,14.723a1.762,1.762,0,0,0,1.816.762c4.3-1.125,8.269-20.282,8.306-20.476V1.991L23.9,0l-.05.332c0,.112-1.7,11.415-1.252,16.481.354,3.981,4.388,11.858,7.893,12.9a2.549,2.549,0,0,0,2.868-1.049l.3-.373.082,14.159L35,47.426l-.127.058A45.086,45.086,0,0,1,17.08,51l-.393,0A46.956,46.956,0,0,1,4.017,49.259Z" transform="translate(242 208)" fill="#231f20"/><path d="M30.777,39.642c-2.713-4.273-13.019-5.191-13.019-5.191L23.511,8,14.138,38.344l-.093.094c-4.093-3.915-9.665-3.517-12.391-3.011A12.639,12.639,0,0,0,0,35.82L11.55,5.012V1.79C29.224,6.654,41.5,0,41.5,0,46.044,5.7,47,16.1,47,16.1L32.158,44l-.885-3.213a3.866,3.866,0,0,0-.5-1.146Z" transform="translate(234 256)" fill="#9881ee"/><path d="M1.35,1.229,2,4.675.029,6,0,2.136.976,0A5.258,5.258,0,0,1,1.35,1.229Z" transform="translate(264 295)" fill="#231f20"/><path d="M9,0,3.486,26.151,0,30,9,0Z" transform="translate(249 264)" fill="#231f20"/><path d="M3,0,1.948,7A12.4,12.4,0,0,0,0,3.876l.075-.092Z" transform="translate(248 290)" fill="#231f20"/><path d="M1,0,.505,3,0,.349A5.7,5.7,0,0,1,1,0Z" transform="translate(234 291)" fill="#231f20"/><path d="M32.444,41.354a3.92,3.92,0,0,0-.511-1.11c-2.545-3.907-11.837-5-13.157-5.139l-1.407,7.553-.233-.415a12.665,12.665,0,0,0-2.462-3.181c-4.111-3.848-9.694-3.528-12.65-2.992a12.452,12.452,0,0,0-1.681.392L0,36.577,12.038,5.207V1.773l.22.059C30.219,6.659,42.924.131,43.052.063L43.176,0l.091.108C47.945,5.8,48.991,16.31,49,16.413v.05l-.027.045L33.454,45Z" transform="translate(234 255)" fill="#231f20"/><path d="M1.022,5,0,.592.323.477,1,3.388,1.673,0,2,.1,1.022,5Z" transform="translate(234 290)" fill="#231f20"/><path d="M.045,6,0,2.075,1.408,0,1.7.175,1.668.211.341,2.174.372,5.479,2.861,4.347,3,4.653.045,6Z" transform="translate(264 295)" fill="#231f20"/><path d="M.329,30,0,29.9,9.671,0,10,.088,4.078,26.151l-.333-.071L8.822,3.739.329,30Z" transform="translate(248 264)" fill="#231f20"/><path d="M0,83.65V0L170,65.36V149Z" transform="translate(77 203)" fill="#3dea8f"/><path d="M0,68.218V0L158,60.782V129Z" transform="translate(83 213)" fill="#3dea8f"/><path d="M0,58.793V0L143,55.2V114Z" transform="translate(90 221)" fill="#12ca70"/><path d="M9.883,6.238c.591,3.845-1.115,7.3-3.813,7.721S.737,11.608.124,7.767,1.239.464,3.937.042,9.3,2.4,9.883,6.238Z" transform="translate(206 290)" fill="#3dea8f"/><path d="M32.616,20.938c1.947,12.9-3.692,24.5-12.591,25.92s-17.693-7.9-19.64-20.8S4.072,1.558,12.976.142,30.665,8.039,32.616,20.938Z" transform="translate(141 252)" fill="#3dea8f"/><path d="M9.885,6.237c.587,3.844-1.12,7.3-3.815,7.72S.708,11.607.117,7.763,1.237.464,3.931.042,9.293,2.4,9.885,6.237Z" transform="translate(98 250)" fill="#3dea8f"/><path d="M169.771,149.91,0,84.284V0L.225.09,170,65.712V150Z" transform="translate(77 201)" fill="#231f20"/><path d="M157.771,128.911,0,68.329V0L.23.089,158,60.684V129Z" transform="translate(83 213)" fill="#231f20"/><path d="M142.777,113.91,0,58.9V0L.228.089,143,55.094V114Z" transform="translate(90 221)" fill="#231f20"/><path d="M.4,26.07C-1.653,13.173,4.347,1.562,13.771.142S32.538,8.05,34.6,20.93c2.058,12.9-3.942,24.51-13.366,25.928a13.067,13.067,0,0,1-1.9.142C10.576,47,2.32,38.079.4,26.07Z" transform="translate(139 252)" fill="#231f20"/><path d="M5.516,14C3.021,14,.673,11.344.127,7.774A8.74,8.74,0,0,1,.794,2.65,4.364,4.364,0,0,1,3.95.043,4.312,4.312,0,0,1,7.736,1.554a8.706,8.706,0,0,1,2.15,4.674A8.323,8.323,0,0,1,8.7,12.22a4.05,4.05,0,0,1-2.641,1.751A3.215,3.215,0,0,1,5.634,14Z" transform="translate(206 290)" fill="#231f20"/><path d="M.126,7.772a8.763,8.763,0,0,1,.666-5.12A4.371,4.371,0,0,1,3.947.045C6.638-.392,9.3,2.4,9.887,6.23s-1.135,7.3-3.821,7.727a3.416,3.416,0,0,1-.55.044C3.023,14,.671,11.345.126,7.772Z" transform="translate(98 250)" fill="#231f20"/><path d="M9,0V205.489C9,206.874,6.986,208,4.5,208S0,206.874,0,205.489V0C0,1.386,2.014,2.507,4.5,2.507S9,1.386,9,0Z" transform="translate(51 146)" fill="#18a058"/><path d="M4.5,0C6.986,0,9,1.117,9,2.5S6.986,5,4.5,5,0,3.883,0,2.5,2.014,0,4.5,0Z" transform="translate(51 142)" fill="#3dea8f"/><rect width="0.337" height="206" transform="translate(60.831 145)" fill="#231f20"/><rect width="0.337" height="206" transform="translate(50.831 145)" fill="#231f20"/><path d="M5.007,2C2.2,2,0,1.127,0,0H.33C.33.96,2.427,1.74,5,1.74S9.661.96,9.661,0H10C10.009,1.127,7.813,2,5.007,2Z" transform="translate(51 352)" fill="#231f20"/><path d="M0,3C0,1.31,2.2,0,5,0s5,1.31,5,3S7.806,6,5,6,0,4.69,0,3Z" transform="translate(51 142)" fill="#231f20"/><path d="M9,0V205.489C9,206.874,6.986,208,4.5,208S0,206.874,0,205.489V0C0,1.386,2.014,2.507,4.5,2.507S9,1.386,9,0Z" transform="translate(278 232)" fill="#18a058"/><path d="M4.5,0C6.986,0,9,1.114,9,2.5S7.023,5,4.5,5,0,3.886,0,2.509,2.031,0,4.5,0Z" transform="translate(278 230)" fill="#3dea8f"/><rect width="0.337" height="206" transform="translate(286.831 232)" fill="#231f20"/><rect width="0.337" height="206" transform="translate(277.831 232)" fill="#231f20"/><path d="M5,2c-2.8,0-5-.873-5-2H.339C.339.96,2.429,1.74,5,1.74S9.661.96,9.661,0H10C10.018,1.127,7.819,2,5,2Z" transform="translate(277 439)" fill="#231f20"/><path d="M0,3C0,1.31,2.194,0,5,0s5,1.315,5,3S7.819,6,5,6C2.194,6,0,4.69,0,3Z" transform="translate(277 230)" fill="#231f20"/><path d="M.5,0h0V54.806h0Z" transform="translate(56.763 151.194) rotate(-21.02)" fill="#231f20"/><path d="M0,.5H0Z" transform="translate(55.124 347.768) rotate(-71.07)" fill="#231f20"/><path d="M.5,0h0V85.483h0Z" transform="matrix(0.932, -0.364, 0.364, 0.932, 246.024, 351.533)" fill="#231f20"/><path d="M0,.5H0Z" transform="translate(246.167 267.266) rotate(-41.99)" fill="#231f20"/><rect width="375" height="351" transform="translate(0 118)" fill="#12ca70" style="mix-blend-mode:color;isolation:isolate"/></svg>