<svg xmlns="http://www.w3.org/2000/svg" width="139.349" height="101" viewBox="0 0 139.349 101">
  <g id="Zimvest_illustrations-06" data-name="Zimvest illustrations-06" transform="translate(-0.43)">
    <g id="Group" transform="translate(0.5 20)" opacity="0.21">
      <path id="Path" d="M42.405,0l96.364,37.809L96.364,80.939,0,43.129,42.405,0Z" transform="translate(0.141 0.002)" fill="#231f20"/>
    </g>
    <path id="Path-2" data-name="Path" d="M2,0V1.925L0,2,2,0Z" transform="translate(137.5 51)" fill="#18a058"/>
    <path id="Path-3" data-name="Path" d="M5,1.822,0,2V0L5,1.822Z" transform="translate(0.5 55)" fill="#18a058"/>
    <path id="Path-4" data-name="Path" d="M139,37.851l-2.045,2.078L4.648,45,0,43.177,42.476,0,139,37.851Z" transform="translate(0.5 13)" fill="#18a058"/>
    <path id="Path-5" data-name="Path" d="M43,0,0,43V41.009L40.93.077,43,0Z" transform="translate(96.5 53)" fill="#18a058"/>
    <path id="Path-6" data-name="Path" d="M132,0,91.663,41,0,5.058,132,0Z" transform="translate(4.5 53)" fill="#18a058"/>
    <path id="Path-7" data-name="Path" d="M96,35.055V37L0,.173,4.623,0,96,35.055Z" transform="translate(0.5 58)" fill="#18a058"/>
    <path id="Path-8" data-name="Path" d="M96.515,43l-.041-.017L0,5.4l.05-.132L96.481,42.834,138.9,0l.1.1L96.515,43Z" transform="translate(0.5 53)" fill="#231f20"/>
    <path id="Shape" d="M96.451,80.983,0,43.175,42.508,0l.041.017L139,37.818,96.493,81Z" transform="translate(0.5 13)" fill="#231f20"/>
    <rect id="Rectangle" width="0.14" height="2" transform="translate(96.43 94)" fill="#231f20"/>
    <rect id="Rectangle-2" data-name="Rectangle" width="0.14" height="2" transform="translate(139.43 51)" fill="#231f20"/>
    <rect id="Rectangle-3" data-name="Rectangle" width="0.14" height="2" transform="translate(0.43 55)" fill="#231f20"/>
    <path id="Path-9" data-name="Path" d="M5.5,0C8.538,0,11,1.791,11,4S8.538,8,5.5,8,0,6.209,0,4A3.077,3.077,0,0,1,.451,2.413h.01A5.81,5.81,0,0,1,5.5,0Z" transform="translate(121.5 49)" fill="#18894b"/>
    <path id="Path-10" data-name="Path" d="M.525.53H.475V.47Z" transform="translate(121.5 52)" fill="#fff"/>
    <path id="Path-11" data-name="Path" d="M105,27.9v.011L73.532,59.247a4.529,4.529,0,0,0-.9.753L0,32.093a2.951,2.951,0,0,0,.389-1.208L29.853,1.537A5.339,5.339,0,0,0,32.376,0Z" transform="translate(17.5 24)" fill="#18894b"/>
    <path id="Path-12" data-name="Path" d="M5.5,0C8.538,0,11,1.791,11,4S8.538,8,5.5,8,0,6.21,0,4A3.259,3.259,0,0,1,.908,1.8l.1.039.814-.812A6.756,6.756,0,0,1,5.5,0Z" transform="translate(88.5 82)" fill="#18894b"/>
    <path id="Path-13" data-name="Path" d="M2,0,.223,1,0,.953A10.825,10.825,0,0,1,2,0Z" transform="translate(89.5 83)" fill="#fff"/>
    <path id="Path-14" data-name="Path" d="M11,4a3.245,3.245,0,0,1-.846,2.133l-.723-.279L7.579,7.705A7.31,7.31,0,0,1,5.5,8C2.467,8,0,6.209,0,4S2.461,0,5.5,0,11,1.791,11,4Z" transform="translate(40.5 17)" fill="#fff"/>
    <path id="Path-15" data-name="Path" d="M2.158,0,3,.3A6.446,6.446,0,0,1,0,2Z" transform="translate(47.5 24)" fill="#fff"/>
    <path id="Path-16" data-name="Path" d="M11,4a2.075,2.075,0,0,1-.017.289l-1,1,.605.233A5.79,5.79,0,0,1,5.5,8C2.462,8,0,6.209,0,4S2.462,0,5.5,0,11,1.791,11,4Z" transform="translate(7.5 50)" fill="#18894b"/>
    <path id="Path-17" data-name="Path" d="M0,1.623,2,0a4.282,4.282,0,0,1-.792,2Z" transform="translate(17.5 54)" fill="#18894b"/>
    <path id="Rectangle-4" data-name="Rectangle" d="M0,.54,41.328.459h0L0,.541Z" transform="translate(18.365 54.175) rotate(-45)" fill="#231f20"/>
    <path id="Rectangle-5" data-name="Rectangle" d="M.55,0h0L.45,77.086h0Z" transform="matrix(0.36, -0.933, 0.933, 0.36, 18.167, 56.284)" fill="#231f20"/>
    <path id="Rectangle-6" data-name="Rectangle" d="M0,.543,44.12.456h0L0,.544Z" transform="translate(90.75 82.462) rotate(-45)" fill="#231f20"/>
    <path id="Rectangle-7" data-name="Rectangle" d="M.55,0h0L.45,77.067h0Z" transform="matrix(0.36, -0.933, 0.933, 0.36, 50.219, 24.266)" fill="#231f20"/>
    <path id="Shape-2" data-name="Shape" d="M0,4A3.265,3.265,0,0,1,.914,1.792a4.526,4.526,0,0,1,.92-.771A6.759,6.759,0,0,1,5.5,0C8.533,0,11,1.8,11,4S8.533,8,5.5,8,0,6.206,0,4Z" transform="translate(88.5 82)" fill="#231f20"/>
    <path id="Shape-3" data-name="Shape" d="M0,4A3.061,3.061,0,0,1,.457,2.4V2.394A5.86,5.86,0,0,1,5.5,0C8.531,0,11,1.8,11,4S8.536,8,5.5,8,0,6.206,0,4Z" transform="translate(121.5 49)" fill="#231f20"/>
    <path id="Shape-4" data-name="Shape" d="M0,4C0,1.795,2.474,0,5.5,0S11,1.795,11,4a1.881,1.881,0,0,1-.017.293,3.057,3.057,0,0,1-.4,1.239A5.8,5.8,0,0,1,5.5,8C2.467,8,0,6.206,0,4Z" transform="translate(7.5 50)" fill="#231f20"/>
    <path id="Shape-5" data-name="Shape" d="M5.5,8C2.468,8,0,6.2,0,4S2.473,0,5.5,0,11,1.793,11,4a3.247,3.247,0,0,1-.849,2.143A5.49,5.49,0,0,1,7.577,7.707,7.381,7.381,0,0,1,5.518,8Z" transform="translate(40.5 17)" fill="#231f20"/>
    <path id="Path-18" data-name="Path" d="M0,0,96,36" transform="translate(43.5 15)" fill="#fff"/>
    <path id="Rectangle-8" data-name="Rectangle" d="M.568,0h0L.432,103.8h0Z" transform="matrix(0.36, -0.933, 0.933, 0.36, 42.73, 13.718)" fill="#231f20"/>
    <g id="Group-2" data-name="Group" transform="translate(13.5 25)" opacity="0.15">
      <path id="Path-19" data-name="Path" d="M21.368,0l90.5,34.917L90.5,56.289,0,21.37,21.368,0Z" transform="translate(0.004 0.09)" fill="#231f20"/>
    </g>
    <path id="Path-20" data-name="Path" d="M5.589,11.451,0,0,48,18.215,41.086,25,5.613,11.5l-.024-.051Z" transform="translate(29.5 8)" fill="#c66d6d"/>
    <path id="Path-21" data-name="Path" d="M19,0V4.665l-5.323,5.348V7.218l-5.15,5.174v2.795L1.745,22l-.32-.322L0,19.087,19,0Z" transform="translate(99.5 50)" fill="#b6d8da"/>
    <path id="Path-22" data-name="Path" d="M19,.189.4,19,0,18.274,16.033,2.058,18.067,0,19,.189Z" transform="translate(99.5 50)" fill="#92c6cf"/>
    <path id="Path-23" data-name="Path" d="M13.447,1.9,15.25,0h.032L17,2.661,1.52,19,0,16.1,4.635,11.2v0l8.812-9.3Z" transform="translate(98.5 49)" fill="#231f20"/>
    <path id="Path-24" data-name="Path" d="M2,0V1.925H1.965L0,4V2.112L2,0Z" transform="translate(112.5 48)" fill="#f49493"/>
    <path id="Path-25" data-name="Path" d="M2,0V4.933L0,7V2.067L2,0Z" transform="translate(112.5 43)" fill="#ffc65a"/>
    <path id="Shape-6" data-name="Shape" d="M7.292,23.526,0,20.667v-.051L20.239.025,20.264,0l7.23,2.831L32,8.795l-1.909,1.942-9.165,9.331L16.074,25Z" transform="translate(82.5 35)" fill="#e08282"/>
    <path id="Path-26" data-name="Path" d="M5,0V1.736L0,7V5.266L5,0Z" transform="translate(108.5 60)" fill="#fff"/>
    <path id="Path-27" data-name="Path" d="M5,0V2.806L0,8V5.194L5,0Z" transform="translate(108.5 57)" fill="#fff"/>
    <path id="Path-28" data-name="Path" d="M9,4.429V6.089L0,15V8.913L9,0V4.429Z" transform="translate(102.5 46)" fill="#231f20"/>
    <path id="Path-29" data-name="Path" d="M5,0V.566l-.12.1L.047,5,0,4.958V4.326L5,0Z" transform="translate(102.5 47)" fill="#231f20"/>
    <path id="Path-30" data-name="Path" d="M15,3.513,9.846,8,0,4.573,5.071,0l.068.081L15,3.513Z" transform="translate(92.5 44)" fill="#c66d6d"/>
    <path id="Path-31" data-name="Path" d="M21,3.781V5.407L16.162,10l-.032-.054-6.7-.607L0,5.885V0L7.317,2.681,16.73,7.836,21,3.781Z" transform="translate(82.5 56)" fill="#f49493"/>
    <path id="Path-32" data-name="Path" d="M5,0V4.136L.616,8,0,4.4,5,0Z" transform="translate(98.5 55)" fill="#ffc65a"/>
    <path id="Path-33" data-name="Path" d="M10,4.2V5L0,.8V0L10,4.2Z" transform="translate(92.5 48)" fill="#c66d6d"/>
    <path id="Path-34" data-name="Path" d="M20.376,1.8l.027.011,4.551,1.808L25,3.669,5.343,23.962V24l-.093-.038-5.243-7.6-.007,0L15.844,0l4.531,1.8Z" transform="translate(77.5 31)" fill="#231f20"/>
    <path id="Path-35" data-name="Path" d="M.857.007,6,7,1.535,5.337l-.027-.01L0,.826l.825-.8L.837,0l.02.007Z" transform="translate(96.5 27)" fill="#c66d6d"/>
    <path id="Path-36" data-name="Path" d="M2,.718.115,3H0V0L1.685.336,2,.718Z" transform="translate(99.5 71)" fill="#b6d8da"/>
    <path id="Path-37" data-name="Path" d="M.332,0,2,3,0,2.672V.33L.332,0Z" transform="translate(99.5 69)" fill="#b6d8da"/>
    <path id="Path-38" data-name="Path" d="M.007,1.4,0,1.4,1.272,0,2,1.442,1.493,2,.007,1.4Z" transform="translate(98.5 68)" fill="#92c6cf"/>
    <path id="Path-39" data-name="Path" d="M1,.084V3L0,0,1,.084Z" transform="translate(98.5 71)" fill="#92c6cf"/>
    <path id="Path-40" data-name="Path" d="M1,.392V3L.465,2.906,0,0,1,.392Z" transform="translate(98.5 69)" fill="#92c6cf"/>
    <path id="Path-41" data-name="Path" d="M.465.073,1,3,0,2.655V0L.465.073Z" transform="translate(98.5 71)" fill="#92c6cf"/>
    <path id="Path-42" data-name="Path" d="M6.475.65,8,3.333l-.676.657,0,0V6L1.265,5.029,0,0,6.444.6,6.475.65Z" transform="translate(91.5 65)" fill="#c66d6d"/>
    <path id="Path-43" data-name="Path" d="M0,0,1,3,0,2.913V0Z" transform="translate(98.5 69)" fill="#92c6cf"/>
    <path id="Path-44" data-name="Path" d="M8.427,1.34,9,5,0,0,8.427,1.338v0Z" transform="translate(89.5 58)" fill="#ffc65a"/>
    <path id="Shape-7" data-name="Shape" d="M0,24.843V19.322l8.227-7.777L15.3,4.86l.977-.923L20.449,0,34,5.153l-.014.029-.878.829L30,8.956,13.548,24.535l-1.35-.5L.43,19.735V25Z" transform="translate(62.5 22)" fill="#e08282"/>
    <path id="Path-45" data-name="Path" d="M1.372,4.771,0,4.311V0L9.653,3.226,11,8,1.368,4.781l0-.01Z" transform="translate(82.5 61)" fill="#c66d6d"/>
    <path id="Path-46" data-name="Path" d="M17,3.273,7.5,14,0,10.737l0-.008L9.466.049,9.482,0,17,3.273Z" transform="translate(72.5 27)" fill="#231f20"/>
    <path id="Path-47" data-name="Path" d="M19,7.82V13L0,5.182V0L19,7.82Z" transform="translate(63.5 54)" fill="#c66d6d"/>
    <path id="Path-48" data-name="Path" d="M14.176,5.658,16.912,6.75l1.992.8.1.039V14L0,6.4V0L.428.171,14.176,5.658Z" transform="translate(63.5 47)" fill="#f49493"/>
    <path id="Path-49" data-name="Path" d="M1.4.512l.008,0L7,8,4.94,7.244,2.111,6.207,0,0,1.4.512Z" transform="translate(75.5 47)" fill="#f49493"/>
    <path id="Path-50" data-name="Path" d="M51,19.06l-.972.94L1.242,1.737,0,0,51,19.06Z" transform="translate(28.5 6)" fill="#f49493"/>
    <path id="Path-51" data-name="Path" d="M11.922,4.591,14,11,0,5.616.006,5.6V0L11.922,4.591Z" transform="translate(62.5 42)" fill="#231f20"/>
    <path id="Path-52" data-name="Path" d="M47,13.573l-8.066,7.912V26L0,11.231.011,11.2,11.4,0l.031.044L47,13.573Z" transform="translate(24.5 20)" fill="#aa5e5e"/>
    <path id="Path-53" data-name="Path" d="M5,1.8V7L.282,5.3v0L0,0,5,1.8Z" transform="translate(58.5 52)" fill="#c66d6d"/>
    <path id="Path-54" data-name="Path" d="M5,1.8V8L.333,6.311,0,.028.012,0,5,1.8Z" transform="translate(58.5 47)" fill="#c66d6d"/>
    <path id="Path-55" data-name="Path" d="M55,19.878V21l-4.651-1.776L0,0H3.024l.457.174L15.642,4.826,55,19.878Z" transform="translate(7.5 26)" fill="#f49493"/>
    <path id="Path-56" data-name="Path" d="M2.756,6.144,3,11l-.95-.361L0,3.142,2.447,0l.309,6.144Z" transform="translate(56.5 46)" fill="#231f20"/>
    <path id="Path-57" data-name="Path" d="M51,18.867l-.011.027L48.5,22,0,3.556V0L51,18.867Z" transform="translate(7.5 26)" fill="#f49493"/>
    <path id="Path-58" data-name="Path" d="M50,26,6.935,9.766,0,0,47.939,18.547,50,26Z" transform="translate(7.5 31)" fill="#e08282"/>
    <path id="Path-59" data-name="Path" d="M7,11.992,6.992,12,0,1.9V1.259L1.256,0,7,11.992Z" transform="translate(28.5 8)" fill="#c66d6d"/>
    <path id="Path-60" data-name="Path" d="M17.012,0,24,10.177,12.334,21.967,12.322,22,0,17.2v0L17.012,0Z" transform="translate(11.5 10)" fill="#c66d6d"/>
    <path id="Path-61" data-name="Path" d="M20.733,2.984,3.093,20H0L20.733,0,22,1.762,20.733,2.984Z" transform="translate(7.5 6)" fill="#f49493"/>
    <path id="Path-62" data-name="Path" d="M17,0V.615L.45,17v0L0,16.828,17,0Z" transform="translate(11.5 9)" fill="#c66d6d"/>
    <path id="Rectangle-9" data-name="Rectangle" d="M.534,0h0L.466,51.461h0Z" transform="matrix(0.368, -0.93, 0.93, 0.368, 7.903, 30.674)" fill="#231f20"/>
    <path id="Path-63" data-name="Path" d="M2.867,11,2.348.376.146,3.29l1.947,7.334-.13.036L0,3.261,2.464,0,3,10.993,2.867,11Z" transform="translate(55.5 46)" fill="#231f20"/>
    <path id="Path-64" data-name="Path" d="M.1,20,0,19.9,19.9,0l.1.1L.1,20Z" transform="translate(76.5 27)" fill="#231f20"/>
    <path id="Rectangle-10" data-name="Rectangle" d="M0,.515,15.61.484h0L0,.516Z" transform="translate(102.466 60.383) rotate(-45)" fill="#231f20"/>
    <path id="Rectangle-11" data-name="Rectangle" d="M0,.506,6.862.493h0L0,.507Z" transform="translate(97.629 65.252) rotate(-45)" fill="#231f20"/>
    <path id="Rectangle-12" data-name="Rectangle" d="M0,.513,13.793.486h0L0,.514Z" transform="translate(71.932 37.456) rotate(-45)" fill="#231f20"/>
    <path id="Path-65" data-name="Path" d="M.1,20,0,19.9,19.9,0l.1.1-.024.024L.1,20Z" transform="translate(81.5 35)" fill="#231f20"/>
    <path id="Path-66" data-name="Path" d="M83.949,43,50.507,30.282,7.023,13.745l-.013-.019L0,3.766V0L72.7,27.605l-.051.13L.142.205V3.721l6.974,9.908L50.558,30.152,55.671,32.1l19.135,7.276,1.348.515L84,42.87l-.051.13Z" transform="translate(6.5 26)" fill="#231f20"/>
    <path id="Path-67" data-name="Path" d="M18.883,14,13.366,5.7.144.226V6.148H0V0L.1.041,13.451,5.564l.021.023L19,13.91l-.117.09Z" transform="translate(63.5 42)" fill="#231f20"/>
    <path id="Path-68" data-name="Path" d="M51.853,39,0,18.745,18.513,0l.043.017L67,18.94l-.05.132L18.548.166.252,18.692l.354.138L51.9,38.868l-.05.132Z" transform="translate(10.5 8)" fill="#231f20"/>
    <path id="Shape-8" data-name="Shape" d="M0,.928V0L10,4.073V5Z" transform="translate(92.5 48)" fill="#231f20"/>
    <path id="Path-69" data-name="Path" d="M.1,25,0,24.9,15.813,8.811,11.377,2.95,4.2.133,4.247,0l7.218,2.833L16,8.822.1,25Z" transform="translate(98.5 35)" fill="#231f20"/>
    <path id="Path-70" data-name="Path" d="M18.86,9l-.595-3.869-8.8-1.422L0,.13.051,0,9.5,3.576l8.9,1.437v.059L19,8.978,18.86,9Z" transform="translate(79.5 55)" fill="#231f20"/>
    <path id="Path-71" data-name="Path" d="M40.877,16l-1.591-2.838-6.647-.626L0,.129.05,0,32.68,12.4l6.692.628.05.087L41,15.934,40.877,16Z" transform="translate(58.5 53)" fill="#231f20"/>
    <path id="Path-72" data-name="Path" d="M14.979,5,8.972,3.918,0,.137.048,0l8.96,3.777L15,4.855,14.979,5Z" transform="translate(84.5 66)" fill="#231f20"/>
    <path id="Path-73" data-name="Path" d="M7.932,14l-.044-.018L0,10.743.051,10.6l.034.014L7.9,13.822,17.743,3.34,9.969.148,10.005,0,18,3.283,7.932,14Z" transform="translate(71.5 27)" fill="#231f20"/>
    <path id="Path-74" data-name="Path" d="M.138,36H0V19.668l.02-.02L19.9,0l.1.1L.138,19.726V36Z" transform="translate(62.5 22)" fill="#231f20"/>
    <path id="Path-75" data-name="Path" d="M2.818,6l-.023-.048L0,.021H.1L.187,0,3,5.958,2.818,6Z" transform="translate(74.5 48)" fill="#231f20"/>
    <path id="Path-76" data-name="Path" d="M42.949,25,6.956,10.851l-.043-.063L0,.666V0L.14,0V.62L7.046,10.733,43,24.867,42.949,25Z" transform="translate(28.5 9)" fill="#231f20"/>
    <path id="Rectangle-13" data-name="Rectangle" d="M.535,0h0L.465,54.465h0Z" transform="translate(28.149 6.685) rotate(-68.94)" fill="#231f20"/>
    <path id="Path-77" data-name="Path" d="M19,14,9.443,10.079l.05-.139,9.124,3.742-5.23-7.821-.045-.022L0,.139.052,0,13.483,5.74l.007.016L19,14Z" transform="translate(83.5 22)" fill="#231f20"/>
    <path id="Path-78" data-name="Path" d="M1.846,5l-.017-.047L0,.043.154,0,2,4.957,1.846,5Z" transform="translate(95.5 28)" fill="#231f20"/>
    <path id="Path-79" data-name="Path" d="M1.879,8,0,5.641V0H.147V5.6L2,7.93,1.879,8Z" transform="translate(113.5 44)" fill="#231f20"/>
    <path id="Path-80" data-name="Path" d="M9.606,8,0,3.112.073,3,9.581,7.842l4.276-3.774V0H14V4.12L9.606,8Z" transform="translate(89.5 55)" fill="#231f20"/>
    <rect id="Rectangle-14" data-name="Rectangle" width="0.14" height="11" transform="translate(82.43 55)" fill="#231f20"/>
    <path id="Path-81" data-name="Path" d="M0,5V0H.139V4.639L1.9,2.747l.1.105L0,5Z" transform="translate(111.5 45)" fill="#231f20"/>
    <path id="Path-82" data-name="Path" d="M.125,2V0h.75V2L.125,2Z" transform="translate(102.5 58)" fill="#231f20"/>
    <rect id="Rectangle-15" data-name="Rectangle" width="0.14" height="2" transform="translate(111.43 50)" fill="#231f20"/>
    <path id="Path-83" data-name="Path" d="M9.827,8l-.1-.09,5.015-4.34L5.084.226,5.053.19.1,4.633,0,4.543,5.067,0l.1.123L15,3.524,9.827,8Z" transform="translate(92.5 44)" fill="#231f20"/>
    <path id="Path-84" data-name="Path" d="M.094,6,0,5.9l.083-.092L4.868.633V0H5V.694l-.138.14L.094,6Z" transform="translate(102.5 47)" fill="#231f20"/>
    <path id="Path-85" data-name="Path" d="M1.893,5,0,4.671V0H.308V4.57L2,4.864,1.893,5Z" transform="translate(98.5 70)" fill="#231f20"/>
    <path id="Path-86" data-name="Path" d="M.865,20l-.78-.309L0,19.646l.057-.076L18.07,0,19,.2l-.027.144L18.115.159.225,19.592l.687.272L.865,20Z" transform="translate(99.5 50)" fill="#231f20"/>
    <path id="Path-87" data-name="Path" d="M.093,10,0,9.9,4.869,4.6V0H5V4.663L.093,10Z" transform="translate(113.5 50)" fill="#231f20"/>
    <path id="Path-88" data-name="Path" d="M.194,8H0V3.826H.128V7.87H.142L7.91,0,8,.09.194,8Z" transform="translate(99.5 66)" fill="#231f20"/>
    <path id="Rectangle-16" data-name="Rectangle" d="M0,.526,26.808.473h0L0,.527Z" transform="translate(99.347 69.078) rotate(-45)" fill="#231f20"/>
    <path id="Shape-9" data-name="Shape" d="M0,5.307,5,0V4.691L0,10Z" transform="translate(108.5 57)" fill="#231f20"/>
    <path id="Rectangle-17" data-name="Rectangle" d="M.5,0h0l0,5.531h0Z" transform="translate(90.828 65.016) rotate(-13.73)" fill="#231f20"/>
    <path id="Path-89" data-name="Path" d="M3.143,20H0L20.127,0l1.267,1.814L27,13.414l-.125.059-.024-.051L21.277,1.882,20.109.212.333,19.863H3.143V20Z" transform="translate(7.5 6)" fill="#231f20"/>
    <path id="Rectangle-18" data-name="Rectangle" d="M0,.523,23.761.476h0L0,.524Z" transform="translate(11.205 26.317) rotate(-45)" fill="#231f20"/>
    <path id="Path-90" data-name="Path" d="M.1,12,0,11.9,11.9,0l.1.1-.025.027L.1,12Z" transform="translate(23.5 19)" fill="#231f20"/>
    <path id="Path-91" data-name="Path" d="M2.859.579,3,4,.8,3.554.141,3.421,0,0,2.859.579Z" transform="translate(40.5 22)" fill="#4599dd"/>
    <path id="Path-92" data-name="Path" d="M3,2,.051,1.428V1.366c0-.109-.012-.219-.019-.332V.918C.032.79.02.661.015.53S.005.289,0,.171V0L2.267.442,2.436.248l.507.1V.38a2.4,2.4,0,0,0,.008.246V.737l.015.357c0,.13.012.26.017.388V1.6c0,.111.01.221.017.328Z" transform="translate(41.5 25)" fill="#4599dd"/>
    <path id="Path-93" data-name="Path" d="M.114.118C.114.08.122.039.125,0L3,.683A.421.421,0,0,1,2.988.8c-.041.385-.081.774-.115,1.164V2L0,1.317V1.282C.033.893.069.506.114.118Z" transform="translate(41.5 19)" fill="#4599dd"/>
    <path id="Path-94" data-name="Path" d="M.01,0,3,.826,2.99,1,0,.174Z" transform="translate(41.5 21)" fill="#4599dd"/>
    <path id="Path-95" data-name="Path" d="M2.909,1.89A.493.493,0,0,1,2.9,2L0,1.311A.493.493,0,0,1,.008,1.2C.033.829.062.457.093.087A.311.311,0,0,1,.1,0L3,.689V.776C2.962,1.146,2.933,1.515,2.909,1.89Z" transform="translate(41.5 20)" fill="#4599dd"/>
    <path id="Path-96" data-name="Path" d="M2.974,1.316c.009.235.015.466.026.684L.026.722C.015.5.009.274,0,.034V0L2.974,1.261Z" transform="translate(41.5 27)" fill="#4599dd"/>
    <path id="Path-97" data-name="Path" d="M4,.877,3.267,2,0,1.12.733,0,4,.877Z" transform="translate(40.5 27)" fill="#4599dd"/>
    <path id="Path-98" data-name="Path" d="M5,.717,3.8,2,0,1.283,1.2,0,5,.717Z" transform="translate(40.5 21)" fill="#4599dd"/>
    <path id="Path-99" data-name="Path" d="M2.861.58,3,4,1.309,3.657.139,3.42,0,0,2.861.58Z" transform="translate(40.5 28)" fill="#4599dd"/>
    <path id="Path-100" data-name="Path" d="M4.114,3.608c.042.06.082.119.124.173s.052.072.08.105.086.1.129.154l.079.09c.049.051.1.1.145.145s.047.049.072.07c.068.062.138.121.208.175l.016.011a2.488,2.488,0,0,0,.229.156l.075.041c.054.03.108.06.164.085s.061.028.091.04.1.041.156.06l.1.03q.077.023.157.04L6,5,2.948,4.435C1.7,4.207.674,2.928,0,.65l1.8.33L2.749,0c.037.177.075.348.115.516l.042.16c.028.113.056.222.086.331l.052.177c.028.1.058.188.087.288.017.058.037.117.056.175l.094.267.058.16c.035.092.072.188.108.267l.052.13c.054.122.108.241.164.354V2.84c.059.119.119.232.175.339.019.036.04.068.059.1.042.072.086.143.129.209Z" transform="translate(41.5 32)" fill="#4599dd"/>
    <path id="Path-101" data-name="Path" d="M2.839,2,0,1.332l.01-.087C.054.857.1.472.15.089A.56.56,0,0,1,.163,0L3,.668c0,.03-.006.06-.011.089q-.073.575-.14,1.156Z" transform="translate(41.5 18)" fill="#4599dd"/>
    <path id="Path-102" data-name="Path" d="M3.98.769c-.083.311-.166.627-.244.948l-.047.191c-.081.332-.16.672-.234,1.011L3.436,3,0,2.3l.018-.084Q.13,1.71.252,1.208L.3,1.018Q.418.537.546.07L.564,0,4,.7A.594.594,0,0,1,3.98.769Z" transform="translate(41.5 13)" fill="#4599dd"/>
    <path id="Path-103" data-name="Path" d="M3.954.754l-.107.405-.069.27c-.033.135-.065.272-.1.407-.013.055-.027.108-.04.163L0,1.412.038,1.25C.071,1.115.1.979.136.844L.2.572l.107-.4C.326.112.343.055.357,0L4,.588C3.985.643,3.971.7,3.954.754Z" transform="translate(41.5 15)" fill="#4599dd"/>
    <path id="Path-104" data-name="Path" d="M3.286,2,0,1.175c.023-.042.047-.079.07-.121C.149.915.23.772.313.642.35.577.39.513.43.451Q.539.273.65.1L.722,0,4,.825,3.932.932l-.22.344-.119.192c-.081.135-.16.282-.241.414Z" transform="translate(46.5 5)" fill="#4599dd"/>
    <path id="Path-105" data-name="Path" d="M4,.639,3.987.711c-.086.4-.165.792-.24,1.195a.106.106,0,0,1-.011.055.245.245,0,0,1,0,.038L0,1.361a.479.479,0,0,1,.017-.094Q.129.667.255.075A.468.468,0,0,1,.272,0Z" transform="translate(41.5 17)" fill="#4599dd"/>
    <path id="Path-106" data-name="Path" d="M4.942.611c-.056.1-.112.2-.175.3l-.091.173c-.061.117-.123.236-.175.356l-.067.129c-.081.164-.16.33-.239.5l-.049.11c-.061.133-.121.268-.175.4l-.079.181c-.049.116-.1.231-.146.345-.028.066-.054.131-.081.2-.047.117-.093.236-.139.356l-.074.193c-.051.136-.1.274-.151.412-.018.048-.035.095-.051.143-.067.186-.13.376-.191.566V5L0,4.482a.1.1,0,0,1,0-.021c.061-.19.125-.378.191-.566l.049-.14c.051-.14.1-.278.153-.416l.074-.193c.046-.119.091-.238.139-.356.026-.066.053-.133.081-.2.047-.117.1-.235.146-.345l.079-.181c.06-.136.119-.271.175-.406.018-.036.033-.072.049-.107.079-.173.158-.335.239-.5L1.439.927,1.623.57,1.714.4c.054-.1.111-.205.175-.305C1.907.06,1.925.031,1.941,0L5,.518Z" transform="translate(42.5 8)" fill="#4599dd"/>
    <path id="Path-107" data-name="Path" d="M3.453,2,0,.817.055.726.244.43.335.3.5.067.549,0,4,1.164l-.079.11c-.034.043-.065.095-.1.142l-.069.1c-.061.091-.125.189-.186.288l-.087.138Z" transform="translate(46.5 4)" fill="#4599dd"/>
    <path id="Path-108" data-name="Path" d="M.334.291.5.023.514,0,4,1.134c-.054.079-.106.17-.162.261l-.078.129-.022.034-.084.151C3.6,1.8,3.544,1.9,3.488,2L0,.885Q.13.65.252.442Z" transform="translate(46.5 4)" fill="#4599dd"/>
    <path id="Path-109" data-name="Path" d="M.283.264C.332.2.382.139.43.081L.5,0,4,1.342l-.032.04-.09.107-.06.076-.036.049-.1.139c-.034.045-.07.094-.1.148l-.05.072L3.5,2,0,.68.044.609l.143-.2Z" transform="translate(47.5 4)" fill="#4599dd"/>
    <path id="Path-110" data-name="Path" d="M1.162,0,5,.528,4.947.589C4.9.644,4.852.7,4.806.755l-.167.2L4.5,1.131l-.159.19L4.205,1.5l-.159.215c-.046.062-.09.123-.134.185L3.84,2,0,1.472l.073-.1c.044-.062.088-.125.134-.186L.365.971C.41.909.456.85.5.8S.61.656.665.588L.8.412l.167-.2L1.112.046Z" transform="translate(43.5 7)" fill="#4599dd"/>
    <path id="Path-111" data-name="Path" d="M3.985.727c-.118.179-.235.365-.351.555l-.087.148c-.091.153-.185.311-.27.471-.018.033-.039.064-.057.1L0,1.294l.055-.1C.144,1.035.24.878.325.725.355.678.382.628.412.579.528.388.645.2.763.024L.778,0,4,.694Z" transform="translate(46.5 5)" fill="#4599dd"/>
    <path id="Path-112" data-name="Path" d="M.267.054C.321.034.374.014.427,0H.441L4,.845H3.988l-.059.02L3.845.9H3.828l-.051.02L3.7.949,3.614.986,3.586,1H3.561L0,.155H0C.074.121.145.087.216.059Z" transform="translate(49.5 4)" fill="#4599dd"/>
    <path id="Path-113" data-name="Path" d="M3.535,1,0,.252.02.239.162.155.245.107.412.025.462,0,4,.748,3.907.793l-.079.04L3.783.855,3.7.9,3.631.945,3.584.973Z" transform="translate(48.5 4)" fill="#4599dd"/>
    <path id="Path-114" data-name="Path" d="M.276.032.4.016H.44L4,.949H3.89L3.714.978,3.64,1H3.566L0,.051.057.035.2,0Z" transform="translate(49.5 4)" fill="#4599dd"/>
    <path id="Path-115" data-name="Path" d="M.365,0,4,1.288c-.017.034-.033.077-.052.112-.1.2-.2.378-.294.545L3.624,2h0L.017.738,0,.682H0C.1.506.209.322.3.12Z" transform="translate(47.5 28)" fill="#4599dd"/>
    <path id="Path-116" data-name="Path" d="M.2.431A4.634,4.634,0,0,1,0,0L3,.687c-.037.042-.073.08-.11.118S2.819.88,2.782.913A1.056,1.056,0,0,1,2.689,1Z" transform="translate(47.5 29)" fill="#4599dd"/>
    <path id="Path-117" data-name="Path" d="M0,0,3,.712,2.9.806,2.8.891,2.769.915,2.7.965,2.651,1,.246.429A3.994,3.994,0,0,1,0,0Z" transform="translate(48.5 29)" fill="#4599dd"/>
    <path id="Path-118" data-name="Path" d="M.313,0,4,1.313l-.059.149-.042.1A4.129,4.129,0,0,1,3.687,2L0,.687C.07.543.138.389.212.249.226.219.239.184.254.149Z" transform="translate(48.5 27)" fill="#4599dd"/>
    <path id="Path-119" data-name="Path" d="M0,0,2,.74,1.953.8,1.871.882,1.838.912,1.783.958,1.728,1,.208.439A4.845,4.845,0,0,1,0,0Z" transform="translate(48.5 29)" fill="#4599dd"/>
    <path id="Path-120" data-name="Path" d="M.29.48C.329.386.369.289.407.187L.484,0,4,.863l-.075.19-.117.292-.125.292c-.042.1-.081.181-.121.266L3.516,2,0,1.137l.044-.1L.165.772Z" transform="translate(49.5 27)" fill="#4599dd"/>
    <path id="Path-121" data-name="Path" d="M3.729,3,0,2.455.058,2.36l.064-.1c.064-.1.124-.205.184-.311L.34,1.887Q.447,1.7.554,1.5c.019-.035.036-.068.053-.1l.1-.194L2.15,0,5,.418,4.953.547C4.936.59,4.921.632,4.9.675c-.051.131-.1.262-.158.39l-.017.043c-.06.14-.122.279-.184.416l-.053.111c-.049.107-.1.211-.152.314-.017.033-.034.068-.053.1-.066.129-.135.259-.214.383l-.034.059c-.06.105-.12.209-.184.311-.019.033-.041.068-.064.1S3.748,2.969,3.729,3Z" transform="translate(49.5 24)" fill="#4599dd"/>
    <path id="Path-122" data-name="Path" d="M3.639,2,0,.857C.061.724.123.583.184.438a.175.175,0,0,0,.01-.03C.251.274.3.141.359,0L4,1.124c-.054.137-.107.278-.161.411l-.013.027C3.764,1.707,3.7,1.844,3.639,2Z" transform="translate(48.5 27)" fill="#4599dd"/>
    <path id="Path-123" data-name="Path" d="M.285.478A4.867,4.867,0,0,1,0,0L2,.79A1.24,1.24,0,0,1,1.867.9H1.841l-.1.059L1.662,1Z" transform="translate(48.5 30)" fill="#4599dd"/>
    <path id="Path-124" data-name="Path" d="M0,0,2,.465C1.979.642,1.957.821,1.933,1L.021.555Z" transform="translate(52.5 22)" fill="#4599dd"/>
    <path id="Path-125" data-name="Path" d="M1.412.1,5,1,2.214.816.008.258,0,0,1.412.1Z" transform="translate(52.5 22)" fill="#4599dd"/>
    <path id="Path-126" data-name="Path" d="M2,.562c-.049.429-.1.852-.161,1.277L1.815,2,0,1.428.268.942.243,0,2,.555S2,.562,2,.562Z" transform="translate(52.5 23)" fill="#4599dd"/>
    <path id="Path-127" data-name="Path" d="M2,.665a.427.427,0,0,1-.01.111c-.039.409-.08.815-.125,1.224L.035,1.392,0,0Z" transform="translate(52.5 22)" fill="#4599dd"/>
    <path id="Path-128" data-name="Path" d="M1.058,0,3,.447c-.012.06-.024.12-.034.18-.028.136-.054.272-.082.409s-.05.237-.076.354-.06.272-.09.4L2.669,2,0,1.384Z" transform="translate(51.5 24)" fill="#4599dd"/>
    <path id="Path-129" data-name="Path" d="M5,.365.1,5C.066,4.681.047,4.309.028,3.934.008,3.523-.01,3.15.006,2.7L2.854,0Z" transform="translate(47.5 20)" fill="#4599dd"/>
    <path id="Path-130" data-name="Path" d="M5,.53,0,5A18.261,18.261,0,0,1,1.586.023L1.613,0Z" transform="translate(46.5 14)" fill="#4599dd"/>
    <path id="Path-131" data-name="Path" d="M2.735,1.278c.015.032.03.065.043.1l.03.069.041.108.026.069.044.123.02.063c.021.063.041.127.061.192L.132,1.353C.09,1.213.046,1.079,0,.952.038.9.076.846.115.8.627.15,1.127-.081,1.577.025L1.65.046h.031a.886.886,0,0,1,.1.043h.01l.09.05L1.916.16,1.98.206l.038.03.059.047.038.035.056.056a.352.352,0,0,1,.036.039l.058.063A.351.351,0,0,1,2.3.516a.82.82,0,0,1,.061.078l.026.037c.03.039.058.08.086.123h0c.025.041.051.082.076.127a.4.4,0,0,1,.026.047c.018.032.036.063.053.1l.03.058c.015.032.031.063.046.1Z" transform="translate(50.5 10)" fill="#4599dd"/>
    <path id="Path-132" data-name="Path" d="M3.839,19.284c.021.406.042.809.08,1.155l5.4-5.022L9.39,16.9v.154l.021.4.034.666.025.494L9.2,18.87l-1,.93L6.914,21l-2.359,2.2a5.788,5.788,0,0,0,.351.743l.015.024a3.283,3.283,0,0,0,.222.335,2.462,2.462,0,0,0,.222.267,2.391,2.391,0,0,0,.226.211,2.352,2.352,0,0,0,.235.163,1.927,1.927,0,0,0,.249.119,1.615,1.615,0,0,0,.321.082c.038,0,.076.011.114.013H6.64a1.582,1.582,0,0,0,.19-.013.849.849,0,0,0,.095-.015.4.4,0,0,0,.1-.02l.085-.02H7.13a1.571,1.571,0,0,0,.171-.059L7.36,25l.036-.015.089-.04.1-.049.061-.031.028-.015.091-.053c.03-.018.059-.037.089-.059a1.1,1.1,0,0,0,.1-.068c.04-.026.078-.053.118-.084s.085-.062.127-.1l.027-.024c.089-.071.178-.148.268-.233.017-.015.032-.033.047-.048.065-.06.125-.123.19-.183l.038-.042.053-.062c.057-.066.114-.132.171-.2L9,23.685c.049-.064.1-.132.146-.2l.044-.06c.038-.053.076-.11.114-.167s.078-.117.118-.183l.11-.183.07-.119c.017-.031.036-.06.053-.093s.04-.068.057-.1c.057-.1.11-.2.163-.308l.03-.059c.063-.123.123-.251.19-.379.017-.035.032-.07.047-.1.046-.1.091-.205.135-.311l.047-.11c.055-.135.11-.273.163-.412l.015-.042c.047-.126.095-.256.14-.386.015-.042.028-.084.044-.126l.042-.128.046-.139c.028-.09.059-.183.085-.271l.072-.238c.025-.081.051-.183.078-.275.009-.04.021-.081.032-.121l.023-.084c.057-.223.114-.445.163-.67h0c.044-.2.084-.39.121-.586a.105.105,0,0,1,.009-.053c.025-.128.047-.256.068-.383l2.57.11c-.772,4.24-2.312,9.108-5.24,11.835-1.4,1.3-2.721,1.831-3.868,1.607q-.087-.016-.171-.038l-.106-.029c-.057-.018-.114-.037-.169-.059s-.066-.024-.1-.038-.12-.053-.178-.082l-.082-.04a2.733,2.733,0,0,1-.249-.152L3.822,30.5c-.076-.053-.152-.11-.226-.17-.027-.02-.051-.044-.078-.068s-.1-.092-.158-.141l-.085-.088c-.047-.049-.095-.1-.14-.15s-.059-.068-.087-.1-.089-.11-.135-.168l-.08-.108c-.047-.064-.095-.134-.14-.2-.021-.033-.044-.064-.065-.1-.066-.1-.131-.214-.19-.33v-.013c-.061-.11-.12-.225-.178-.344L2.2,28.389c-.04-.084-.08-.17-.118-.26l-.063-.156-.1-.26c-.021-.057-.042-.114-.061-.17-.032-.092-.065-.183-.095-.28l-.057-.172c-.032-.106-.063-.212-.093-.322l-.046-.156c-.044-.163-.085-.33-.125-.5l-1.025.952-.161-3.2L1,23.173c-.011-.093-.019-.192-.028-.293V22.8c0-.1-.013-.205-.019-.309v-.11c0-.121-.013-.244-.019-.366l-.017-.337v-.1a1.906,1.906,0,0,0-.009-.233V20.7l-.554.516-.19.183L0,18.2l1.044-.97.011-.115a.278.278,0,0,1,.009-.088c.028-.3.061-.593.1-.888v-.1c.04-.313.085-.626.133-.936a.768.768,0,0,1,.013-.1l.011-.071q.078-.478.163-.95a.542.542,0,0,0,.013-.073.2.2,0,0,0,0-.033.083.083,0,0,1,.009-.048c.066-.346.137-.687.213-1.027.015-.071.032-.143.047-.214.03-.126.059-.254.089-.381l.063-.253.1-.379c.015-.051.028-.1.042-.157l.017-.064c.072-.267.148-.535.226-.8l.046-.15c.076-.253.156-.5.235-.747A.21.21,0,0,1,2.6,9.614V9.592c.066-.2.135-.4.207-.6.017-.051.036-.1.055-.152.053-.146.108-.293.163-.438L3.1,8.2c.049-.126.1-.253.15-.377.028-.071.057-.141.087-.211.051-.126.1-.249.158-.366l.085-.192c.065-.145.129-.287.19-.428L3.826,6.5c.085-.183.171-.353.258-.527l.072-.137c.065-.126.131-.253.19-.377l.1-.183c.059-.108.12-.216.19-.322l.055-.1.063-.108c.038-.064.076-.128.116-.192L5,4.337c.038-.062.078-.124.118-.183l.14-.216.12-.183.144-.209c.04-.059.082-.115.121-.172s.068-.1.1-.141c.091-.124.19-.247.277-.366l.089-.115c.12-.148.239-.293.361-.432l.085-.1c.082-.092.161-.183.243-.269l.12-.124.222-.223.2-.2c.053-.049.106-.1.158-.141s.066-.06.1-.09l.074-.062c.053-.044.1-.088.154-.126l.025-.02L7.948.9c.059-.046.12-.092.178-.134L8.193.725,8.288.659,8.364.608,8.383.6,8.43.568l.1-.06.1-.057L8.66.43,8.717.4,8.772.372,8.8.355l.03-.016L8.885.313,8.912.282,8.971.256,9.089.205,9.163.176,9.25.143h.027L9.3.134,9.385.11l.07-.022L9.517.073,9.6.053,9.717.029H9.73L9.8.016,9.962,0h.279l.144.009h.057l.082.011c1.2.2,2.088,1.346,2.731,2.8L10.929,7.525c-.023-.055-.046-.11-.07-.163l-.023-.053-.051-.1-.03-.059-.047-.092L10.673,7c-.015-.029-.032-.057-.049-.084l-.034-.055c-.017-.029-.036-.055-.053-.082L10.5,6.725c-.019-.029-.04-.055-.061-.082a.325.325,0,0,0-.03-.04c-.028-.038-.059-.073-.087-.108h0c-.032-.037-.065-.071-.1-.1l-.03-.031a.779.779,0,0,0-.07-.066.337.337,0,0,0-.038-.035L10.02,6.2a.362.362,0,0,0-.042-.033l-.065-.048L9.87,6.095,9.8,6.055l-.044-.026L9.684,5.99l-.038-.018-.1-.042H9.531q-.058-.021-.118-.037H9.377l-.084-.018a1.991,1.991,0,0,0-1.687.655c-.046.042-.089.088-.133.132A9.507,9.507,0,0,0,5.686,9.231,19.173,19.173,0,0,0,4.128,14.3L9.022,9.747l.163,3.2L6.946,15.029,3.809,17.959C3.8,18.435,3.816,18.839,3.839,19.284Z" transform="translate(42.5 5)" fill="#52aaff"/>
    <path id="Path-133" data-name="Path" d="M4.975,1,1.4.262,0,.188.008,0,1.415.078,5,.815,4.975,1Z" transform="translate(52.5 22)" fill="#231f20"/>
    <path id="Path-134" data-name="Path" d="M.8.9A1.878,1.878,0,0,1,.18.835L.27.095h0a5.17,5.17,0,0,0,.55.07Z" transform="translate(49.5 30)" fill="#231f20"/>
    <path id="Path-135" data-name="Path" d="M.52.865.38.125H.62v.75Z" transform="translate(49.5 30)" fill="#231f20"/>
    <path id="Path-136" data-name="Path" d="M.8.962H.778L0,.561.03,0,.807.4H.98L1,.962A.356.356,0,0,0,.8,1Z" transform="translate(49.5 30)" fill="#231f20"/>
    <path id="Path-137" data-name="Path" d="M.525.853l-.2-.72a1.06,1.06,0,0,1,.23,0l.12.74Z" transform="translate(49.5 30)" fill="#231f20"/>
    <path id="Path-138" data-name="Path" d="M.295.96.095.24A2.6,2.6,0,0,0,.455.11L.645.04.9.74.735.81a2.86,2.86,0,0,1-.44.15Z" transform="translate(50.5 30)" fill="#231f20"/>
    <path id="Path-139" data-name="Path" d="M1.872,1,0,.425.037,0,1.869.575,1.956.54,2,.966,1.906,1Z" transform="translate(48.5 30)" fill="#231f20"/>
    <path id="Rectangle-19" data-name="Rectangle" d="M.5.5Z" transform="translate(49.91 29.625) rotate(-29.13)" fill="#231f20"/>
    <path id="Path-140" data-name="Path" d="M1.907,1,0,.333.026,0,1.9.658,1.944.622,2,.937,1.926.991Z" transform="translate(48.5 29)" fill="#231f20"/>
    <path id="Path-141" data-name="Path" d="M.475.97.055.35.525.03l.42.62L.475.97Z" transform="translate(50.5 29)" fill="#231f20"/>
    <path id="Path-142" data-name="Path" d="M2.912,1,0,.274.03,0,2.882.711,2.914.689,3,.937,2.912,1Z" transform="translate(47.5 29)" fill="#231f20"/>
    <path id="Rectangle-20" data-name="Rectangle" d="M.5,0h0l0,2.707h0Z" transform="matrix(0.167, -0.986, 0.986, 0.167, 48.177, 29.653)" fill="#231f20"/>
    <path id="Path-143" data-name="Path" d="M.247,1,0,.6.271.381.353.31C.476.213.594.11.718,0L1,.361C.876.484.747.587.624.7L.541.768C.441.845.347.929.247,1Z" transform="translate(50.5 29)" fill="#231f20"/>
    <path id="Path-144" data-name="Path" d="M2.978,1,2.955.976,0,.2.021,0,2.976.779,2.969.853,3,.963,2.978,1Z" transform="translate(47.5 29)" fill="#231f20"/>
    <path id="Path-145" data-name="Path" d="M.171,1H.127V.853L0,.716H.022a7.8,7.8,0,0,0,.627-.6A1.433,1.433,0,0,0,.763,0L1,.248.873.372C.667.583.434.784.241.972Z" transform="translate(47.5 28)" fill="#231f20"/>
    <path id="Path-146" data-name="Path" d="M2.974,2,0,.806.084.6C.138.481.189.349.248.217A.361.361,0,0,0,.267.163L.28.128C.3.085.313.047.328,0l.1.186L.372.322.362.349.338.419.259.62,3,1.721Z" transform="translate(48.5 27)" fill="#231f20"/>
    <path id="Path-147" data-name="Path" d="M2.988,2,0,.941.068.769C.116.648.165.524.212.393V.366C.256.248.3.128.341,0l.1.152C.4.276.359.393.316.5L.306.528.223.748,3,1.731Z" transform="translate(48.5 27)" fill="#231f20"/>
    <path id="Path-148" data-name="Path" d="M2.982,2,0,1.18l.05-.131.038-.1C.119.88.151.8.181.719S.235.579.26.516L.3.4C.33.328.358.254.383.178L.447,0,.553.1.49.279C.465.355.437.432.411.505L.366.626.29.82l-.083.21L3,1.809Z" transform="translate(49.5 27)" fill="#231f20"/>
    <path id="Path-149" data-name="Path" d="M2.98,2,0,1.411l.136-.3C.186,1,.232.894.277.784A.677.677,0,0,0,.3.721C.359.589.412.454.47.316.485.277.5.244.51.206L.586,0,.7.059l-.075.2C.611.293.6.33.583.367.531.507.478.642.417.776L.388.841c-.046.11-.093.22-.143.33l-.055.12L3,1.853Z" transform="translate(49.5 25)" fill="#231f20"/>
    <path id="Rectangle-21" data-name="Rectangle" d="M.5,0h0l0,2.526h0Z" transform="matrix(0.167, -0.986, 0.986, 0.167, 51.179, 25.045)" fill="#231f20"/>
    <path id="Rectangle-22" data-name="Rectangle" d="M.5,0h0V1.838h0Z" transform="translate(52.174 24.099) rotate(-80.39)" fill="#231f20"/>
    <path id="Rectangle-23" data-name="Rectangle" d="M.5,0h0V1.778h0Z" transform="matrix(0.167, -0.986, 0.986, 0.167, 52.412, 23.325)" fill="#231f20"/>
    <path id="Rectangle-24" data-name="Rectangle" d="M.5,0h0V2.032h0Z" transform="matrix(0.167, -0.986, 0.986, 0.167, 52.359, 22.241)" fill="#231f20"/>
    <path id="Rectangle-25" data-name="Rectangle" d="M.5,0h0V1.944h0Z" transform="matrix(0.167, -0.986, 0.986, 0.167, 52.383, 22.649)" fill="#231f20"/>
    <path id="Path-150" data-name="Path" d="M3.974,2,.187.879.17.8C.12.579.062.348,0,.12L.146,0C.2.209.255.422.3.632L4,1.72Z" transform="translate(50.5 10)" fill="#231f20"/>
    <path id="Path-151" data-name="Path" d="M.172,1,0,.807C.142.661.284.518.419.386.459.346.5.307.541.271L.828,0,1,.2.716.457.584.582Z" transform="translate(46.5 5)" fill="#231f20"/>
    <path id="Path-152" data-name="Path" d="M.515,1,0,.491.427.113.553,0,1,.566.67.368.922.632Z" transform="translate(50.5 5)" fill="#231f20"/>
    <path id="Path-153" data-name="Path" d="M2.971,2,0,.912.107.731.15.655.313.388.336.354.388.274C.42.218.453.173.485.125L.536.049A.359.359,0,0,1,.572,0L.63.229.606.263.555.336.461.478.406.565.386.6.293.752,3,1.73Z" transform="translate(47.5 4)" fill="#231f20"/>
    <path id="Path-154" data-name="Path" d="M.48.99.04.37.23.24.56.01l.4.63L.68.84Z" transform="translate(50.5 4)" fill="#231f20"/>
    <path id="Path-155" data-name="Path" d="M2.98,2,0,.8.155.527.273.35.355.232C.386.185.421.141.456.094L.527,0,.586.259.512.354C.48.4.447.44.416.487L.335.6.317.629,3,1.725Z" transform="translate(47.5 4)" fill="#231f20"/>
    <path id="Path-156" data-name="Path" d="M.46.955.1.295.38.155.56.045.9.725.77.8Z" transform="translate(51.5 4)" fill="#231f20"/>
    <path id="Path-157" data-name="Path" d="M.475.98.035.36C.215.24.405.12.585.02l.38.64C.845.76.635.86.475.98Z" transform="translate(50.5 4)" fill="#231f20"/>
    <path id="Path-158" data-name="Path" d="M3.973,2,0,.631l.3-.2L.462.269.52.213.548.188C.611.132.667.085.726.043L.779,0,.833.3.781.341.613.478.588.5h0L4,1.68Z" transform="translate(48.5 4)" fill="#231f20"/>
    <path id="Path-159" data-name="Path" d="M.355.98.035.3l.4-.19L.665.02l.3.68L.725.8Z" transform="translate(51.5 4)" fill="#231f20"/>
    <path id="Path-160" data-name="Path" d="M2.96,1,.037.307V.215L0,.159.025.136.05.125.205.058.251.042C.291.028.332.012.374,0H.388L.434.159.413.171.314.2,2.948.82h.015l.022.122L3,.965H2.992V.977Z" transform="translate(49.5 4)" fill="#231f20"/>
    <path id="Path-161" data-name="Path" d="M.43.87.29.13H.71V.87H.43Z" transform="translate(52.5 4)" fill="#231f20"/>
    <path id="Path-162" data-name="Path" d="M.62.865.27.185.44.135H.65l.08.73Z" transform="translate(52.5 4)" fill="#231f20"/>
    <path id="Path-163" data-name="Path" d="M3.929.977,0,.144.379.038H.456A.99.99,0,0,0,.58.013H.663L.788,0H.831V.154l3.1.658h.045L4,1Z" transform="translate(49.5 4)" fill="#231f20"/>
    <path id="Path-164" data-name="Path" d="M.425.88V.51L.465.13.575.12V.87L.425.88Z" transform="translate(52.5 4)" fill="#231f20"/>
    <path id="Path-165" data-name="Path" d="M3,1H2.976L0,.2.021,0,3,.8,3,1Z" transform="translate(50.5 4)" fill="#231f20"/>
    <path id="Path-166" data-name="Path" d="M.53.875.35.855.41.485.53.125l.12.01L.53.875Z" transform="translate(52.5 4)" fill="#231f20"/>
    <path id="Path-167" data-name="Path" d="M3.976,1,.38.215A.959.959,0,0,0,.256.2H.024L0,.006a.746.746,0,0,1,.187,0,.27.27,0,0,1,.079,0L.4.022.486.035,4,.8Z" transform="translate(50.5 4)" fill="#231f20"/>
    <path id="Path-168" data-name="Path" d="M.575.89.325.85l.1-.74.25.04-.1.74Z" transform="translate(52.5 4)" fill="#231f20"/>
    <path id="Rectangle-26" data-name="Rectangle" d="M.5,0h0l0,2.363h0Z" transform="matrix(0.168, -0.986, 0.986, 0.168, 49.951, 20.162)" fill="#231f20"/>
    <path id="Path-169" data-name="Path" d="M2.98,1,.087.215h0L.057.207l0-.035L0,.07.047,0,3,.8,2.98,1Z" transform="translate(48.5 14)" fill="#231f20"/>
    <path id="Path-170" data-name="Path" d="M6.978,5h0L3.46,4.364C1.965,4.1.769,2.606,0,.047L.145,0C.9,2.5,2.05,3.953,3.484,4.207l3.448.615H7Z" transform="translate(40.5 32)" fill="#231f20"/>
    <path id="Path-171" data-name="Path" d="M.225,1C.175.78.145.561.115.329V0h.66V.295a3.69,3.69,0,0,0,.11.659Z" transform="translate(40.5 27)" fill="#231f20"/>
    <path id="Path-172" data-name="Path" d="M2.98,2,.069,1.439.02.52,0,.011.122,0,.184,1.32,3,1.862,2.98,2Z" transform="translate(41.5 25)" fill="#231f20"/>
    <path id="Rectangle-27" data-name="Rectangle" d="M.5.217h0V.783h0Z" transform="matrix(0.168, -0.986, 0.986, 0.168, 43.198, 26.464)" fill="#231f20"/>
    <path id="Path-173" data-name="Path" d="M3.974,4,.184,3.422,0,.008.16,0,.338,3.3,4,3.858,3.974,4Z" transform="translate(40.5 28)" fill="#231f20"/>
    <path id="Path-174" data-name="Path" d="M4.092,2,0,1.179,1.032,0,5,.795l-.027.2L1.086.213l-.73.832L4.119,1.8,4.092,2Z" transform="translate(40.5 27)" fill="#231f20"/>
    <path id="Rectangle-28" data-name="Rectangle" d="M.5.5h0Z" transform="translate(40.373 21.741) rotate(-84.55)" fill="#231f20"/>
    <path id="Path-175" data-name="Path" d="M2.982,2,0,1.339V1.267a.507.507,0,0,1,.008-.112C.034.8.062.443.094.088L.1,0,.227.026.218.11C.186.46.158.817.133,1.172V1.2L3,1.841Z" transform="translate(41.5 20)" fill="#231f20"/>
    <path id="Path-176" data-name="Path" d="M2.98,2,0,1.344V1.249C.037.856.077.484.119.112L.131,0,.255.018.244.131C.2.49.165.847.131,1.206L3,1.84Z" transform="translate(41.5 19)" fill="#231f20"/>
    <path id="Path-177" data-name="Path" d="M2.978,2,0,1.359.015,1.2C.069.771.114.408.159.088L.172,0,.3.034V.073A.376.376,0,0,1,.288.12C.244.436.2.788.145,1.224h0L3,1.844Z" transform="translate(41.5 18)" fill="#231f20"/>
    <path id="Path-178" data-name="Path" d="M2.978,2,0,1.385l.008-.074a.19.19,0,0,1,.012-.08C.08.822.144.443.208.068A.276.276,0,0,1,.221,0L.345.025A.477.477,0,0,1,.333.092Q.233.664.146,1.246v.012L3,1.852Z" transform="translate(41.5 17)" fill="#231f20"/>
    <path id="Path-179" data-name="Path" d="M.84.74.1.6.16.26.9.4.84.74Z" transform="translate(44.5 17)" fill="#231f20"/>
    <path id="Path-180" data-name="Path" d="M2.964,2,0,1.422.163.561.25.161.269.067.285,0,.4.034.388.1A.5.5,0,0,1,.367.195L.139,1.317l2.723.529.018-.09L3,1.787Z" transform="translate(41.5 15)" fill="#231f20"/>
    <path id="Path-181" data-name="Path" d="M2.987,3,0,2.324l.032-.169c.064-.331.131-.658.2-.982L.271.986Q.372.52.48.068L.5,0,.616.05.6.117c-.072.3-.142.608-.209.917l-.04.185c-.069.322-.134.644-.2.971L3,2.838Z" transform="translate(41.5 13)" fill="#231f20"/>
    <path id="Path-182" data-name="Path" d="M2.975,5,0,4.49l.017-.066a.141.141,0,0,1,.01-.034c.055-.178.115-.363.18-.549L.288,3.6q.053-.156.11-.311l.07-.19c.047-.126.088-.239.132-.352l.017-.041.06-.156c.045-.114.092-.229.138-.34l.077-.18c.057-.134.113-.267.167-.4l.032-.071.015-.034c.075-.17.15-.331.227-.493.023-.044.042-.085.062-.126.058-.121.118-.238.177-.353C1.6.5,1.628.447,1.658.389c.052-.1.105-.2.158-.3L1.831.063c.012-.02.022-.041.032-.063l.113.058C1.964.08,1.953.1,1.939.124L1.926.149c-.053.1-.107.2-.158.3l-.087.17c-.058.115-.117.233-.167.352-.02.042-.042.083-.063.126q-.113.239-.225.489l-.015.032c-.01.024-.02.049-.032.073-.058.131-.115.263-.167.4l-.075.178L.8,2.605c-.022.051-.042.1-.062.155L.724,2.8c-.043.11-.085.224-.127.34l-.075.2c-.038.1-.073.206-.11.309l-.08.236c-.058.17-.113.34-.167.51L3,4.888Z" transform="translate(42.5 8)" fill="#231f20"/>
    <path id="Path-183" data-name="Path" d="M2.99,3,0,2.238l.126-.332c.025-.065.05-.13.076-.195s.076-.2.116-.295.071-.182.106-.265S.507.954.548.857L.88.087.9.04.922,0l.1.1L1,.152.751.712l-.1.25c-.042.1-.083.195-.123.292s-.07.167-.1.25l-.121.3L.229,2l-.038.1L3,2.815Z" transform="translate(43.5 7)" fill="#231f20"/>
    <path id="Path-184" data-name="Path" d="M.7.88.08.46.32.12l.6.44Z" transform="translate(48.5 7)" fill="#231f20"/>
    <path id="Path-185" data-name="Path" d="M3.906,2,0,1.312l.137-.2L.451.666.513.579.552.526C.689.346.824.169.96,0l.145.078L1.093.1C.948.275.813.448.68.628L.644.679.578.766l-.3.428,3.553.615.011-.016.026-.036.133.1-.03.04c-.013.016-.024.033-.036.051Z" transform="translate(45.5 5)" fill="#231f20"/>
    <path id="Path-186" data-name="Path" d="M.74.755.44.525.18.245l.34.17.3.22L.74.755Z" transform="translate(49.5 6)" fill="#231f20"/>
    <path id="Path-187" data-name="Path" d="M3.894,2,0,1.206l.085-.125.04-.059L.164.971C.256.84.347.714.443.589.483.533.528.474.575.415L.824.1.867.051.909,0l.106.143L.98.187.935.238.69.548C.647.6.6.661.56.72.471.835.383.955.3,1.073l3.531.72.049-.067L4,1.849Z" transform="translate(46.5 5)" fill="#231f20"/>
    <path id="Path-188" data-name="Path" d="M.59.955.05.435.22.255.41.045l.54.53L.77.765Z" transform="translate(50.5 5)" fill="#231f20"/>
    <path id="Shape-10" data-name="Shape" d="M0,.607.16.252C.189.185.217.117.246.059L.274,0,4,1.393,3.716,2Z" transform="translate(46.5 4)" fill="#231f20"/>
    <path id="Path-189" data-name="Path" d="M3.974,4,.186,3.422,0,.008.158,0,.34,3.3,4,3.858,3.974,4Z" transform="translate(40.5 22)" fill="#231f20"/>
    <path id="Path-190" data-name="Path" d="M3.819,2,0,1.316,1.3,0,5,.662,4.975.826,1.347.177.334,1.207l3.51.629L3.819,2Z" transform="translate(40.5 21)" fill="#231f20"/>
    <path id="Shape-11" data-name="Shape" d="M4.9,30.953c-.06-.011-.119-.026-.175-.041L4.665,30.9l-.041-.013c-.061-.02-.12-.039-.174-.06l-.1-.04a1.914,1.914,0,0,1-.176-.082l-.085-.041a2.691,2.691,0,0,1-.253-.157l-.014-.01c-.079-.054-.154-.112-.23-.173a.473.473,0,0,1-.059-.053l-.021-.018c-.05-.043-.1-.091-.156-.14l-.086-.089c-.049-.051-.1-.1-.14-.153a1.082,1.082,0,0,1-.088-.1,1.7,1.7,0,0,1-.12-.149l-.1-.129c-.047-.064-.094-.133-.14-.2l-.024-.041a.465.465,0,0,1-.04-.06,3.434,3.434,0,0,1-.187-.329l.059-.041-.066.024c-.059-.108-.119-.222-.176-.343-.013-.027-.024-.057-.038-.084l-.019-.044c-.039-.084-.08-.169-.118-.26l-.163-.416c-.021-.059-.043-.115-.062-.172-.031-.091-.064-.182-.094-.28L1.7,27.063c-.031-.107-.061-.213-.092-.322l-.045-.155c-.033-.126-.066-.254-.1-.385l-1.033.968L.263,23.8l.731-.687a1.594,1.594,0,0,0-.017-.171l-.013-.152c0-.116-.014-.22-.019-.324v-.1l-.04-.81c0-.078-.009-.157-.009-.233v-.487l-.725.684L0,18.153l1.035-.97L1.054,17c.026-.29.059-.587.1-.882a.252.252,0,0,1,0-.037v-.031a.228.228,0,0,1,0-.035c.036-.275.077-.571.131-.928v-.052l.017-.115q.074-.475.161-.946a.593.593,0,0,0,.013-.068v-.062a.154.154,0,0,1,0-.029c.066-.352.135-.688.209-1.021l.2-.846.1-.377c.014-.053.028-.1.04-.157l.017-.064c.071-.268.147-.534.223-.795l.045-.151c.075-.252.154-.5.232-.743a.148.148,0,0,1,.019-.053V9.594c.067-.21.137-.41.209-.608.013-.04.028-.08.042-.122l.012-.031c.052-.146.107-.292.161-.436l.1-.2c.053-.134.1-.257.148-.377.028-.071.057-.14.086-.212.049-.12.1-.24.152-.365l.09-.2c.063-.144.127-.286.187-.428L3.789,6.5c.085-.182.169-.354.256-.526l.073-.139c.062-.126.13-.252.187-.375l.1-.183c.058-.107.119-.215.178-.32l.055-.1L4.7,4.751c.037-.064.075-.128.114-.192l.135-.222.116-.182L5.2,3.94l.12-.183.143-.208.075-.109.045-.062.105-.144c.09-.122.187-.244.274-.365l.088-.112c.12-.15.238-.3.358-.434l.085-.1c.085-.095.162-.182.24-.267l.118-.124.221-.224.066-.064c.045-.046.092-.091.139-.135s.107-.1.157-.142l.094-.086.081-.067.047-.041L7.766.987l.026-.02L7.873.905C7.931.86,7.991.813,8.05.77L8.135.727C8.166.7,8.2.681,8.229.662A.785.785,0,0,0,8.3.612L8.319.6,8.36.575,8.388.559c.027-.018.057-.036.083-.05L8.563.454,8.6.428,8.687.384,8.746.353h.012L8.8.331,8.87.3,8.934.271,9.049.222,9.125.191,9.21.158l.052.054L9.236.149,9.27.138,9.315.125l.1-.032L9.482.078,9.563.056,9.684.032,9.767.018,9.933,0h.122a.733.733,0,0,1,.109,0h.045l.149.009.14.018c1.084.182,2.01,1.128,2.754,2.825l.012.029L10.875,7.726l-.06-.144c-.023-.055-.043-.108-.068-.16l-.073-.155a.523.523,0,0,0-.028-.055l-.031-.06-.05-.089c-.015-.03-.032-.055-.047-.082l-.012-.019c0-.011-.013-.023-.02-.032l-.032-.049L10.4,6.8c-.015-.023-.031-.041-.045-.062l-.014-.018-.026-.036L10.25,6.6l-.023-.029c-.031-.036-.065-.071-.1-.1a.239.239,0,0,0-.029-.032.848.848,0,0,0-.065-.062c-.017-.018-.029-.027-.038-.036l-.023-.016-.04-.033L9.9,6.26,9.83,6.209a.119.119,0,0,1-.023-.014l-.016-.011-.062-.039-.043-.023-.075-.04-.019-.009-.1-.041-.026-.012c-.03-.013-.068-.022-.1-.032H9.339l-.09-.018A1.912,1.912,0,0,0,7.644,6.6q-.05.047-.1.1l-.031.032A9.348,9.348,0,0,0,5.771,9.306a19,19,0,0,0-1.5,4.828l4.792-4.5L9.234,13,3.92,17.986c-.015.45,0,.823.024,1.294.019.341.036.693.066,1.006l5.338-5,.169,3.364L6.969,21.038l-2.3,2.155A5.731,5.731,0,0,0,5,23.881l.017.028a3.309,3.309,0,0,0,.211.322,2.443,2.443,0,0,0,.214.259,2.117,2.117,0,0,0,.217.2,2.181,2.181,0,0,0,.225.157,1.757,1.757,0,0,0,.235.112,1.58,1.58,0,0,0,.3.078l.107.014a1.647,1.647,0,0,0,.3,0,.666.666,0,0,0,.085-.015l.1-.018L7.089,25h.026a1.414,1.414,0,0,0,.161-.055l.043-.016h.04l.1-.044a.867.867,0,0,0,.092-.045l.062-.033.017-.009a1.052,1.052,0,0,0,.1-.057c.028-.016.054-.034.083-.054s.068-.043.1-.068.076-.053.114-.083l.126-.094a.175.175,0,0,1,.028-.023c.088-.073.176-.149.258-.228l.027-.026.018-.022c.064-.059.124-.121.188-.182l.088-.1c.059-.069.114-.133.167-.2l.017-.02c.023-.027.049-.066.076-.1l.062-.084L9.1,23.42l.019-.025c.035-.049.069-.1.1-.155s.083-.126.122-.183l.032-.051.077-.125.023-.041c.014-.025.03-.053.047-.078l.021-.039a.568.568,0,0,0,.03-.05c.021-.037.04-.069.054-.1.059-.1.111-.2.162-.3.013-.022.021-.038.03-.057.062-.123.122-.251.187-.377l.032-.071.014-.031c.043-.1.088-.2.131-.308l.047-.11c.055-.133.109-.27.161-.409l.015-.041c.047-.126.094-.254.137-.382l.156-.471c.021-.062.04-.124.059-.182s.028-.092.04-.137l.107-.365a.469.469,0,0,1,.032-.119l.028-.109c.054-.213.107-.425.154-.64l.014-.055c.04-.182.074-.356.107-.53l.01-.053c.024-.128.047-.254.068-.379v-.06L14,17.5l-.014.076c-.694,3.747-2.155,8.9-5.2,11.767A5.183,5.183,0,0,1,5.416,31,2.8,2.8,0,0,1,4.9,30.953Z" transform="translate(42.5 5)" fill="#231f20"/>
    <g id="Group-3" data-name="Group" transform="translate(52.5 7)">
      <path id="Path-191" data-name="Path" d="M12.513,4.641l.133,2.72-1.18,1.134.423,8.6L9.442,19.451,6,13.751l-2.522-.425L4.918,11.94,2.961,8.711.281,8.258,0,2.507,2.609,0,4.7,3.43l-1.665,1.6,2.7.455L5.949,9.8l2.949.5L8.676,5.792l.077-.455,2.581.436,1.18-1.132Z" transform="translate(4.127 8.457)" fill="#ffc65a"/>
      <path id="Path-192" data-name="Path" d="M1.247.211.067,1.343,0,0,1.247.211Z" transform="translate(15.393 12.887)" fill="#e2a84d"/>
      <path id="Path-193" data-name="Path" d="M1.245.211.066,1.345,0,0,1.245.211Z" transform="translate(15.142 7.747)" fill="#e2a84d"/>
      <path id="Path-194" data-name="Path" d="M2.882.287,2.949,1.63.369,1.194,0,1.132,1.18,0l1.7.287Z" transform="translate(12.511 12.6)" fill="#ffc65a"/>
      <path id="Path-195" data-name="Path" d="M2.627.287l.066,1.345L.013,1.179,0,.89.925,0l1.7.287Z" transform="translate(12.515 7.459)" fill="#ffc65a"/>
      <path id="Path-196" data-name="Path" d="M2.537,0l.346,7.038-1.7-.287-.925.89L0,2.44,2.537,0Z" transform="translate(12.258 0.709)" fill="#ffc65a"/>
      <path id="Path-197" data-name="Path" d="M5.485.5,2.948,2.938,0,2.44,2.537,0,5.485.5Z" transform="translate(9.311 0.211)" fill="#e2a84d"/>
      <path id="Path-198" data-name="Path" d="M1.676,0,5.12,5.7,2.17,5.2,0,1.61,1.676,0Z" transform="translate(8.449 22.208)" fill="#e2a84d"/>
      <path id="Path-199" data-name="Path" d="M1.59,0l.223,4.507L0,1.53,1.59,0Z" transform="translate(11.213 14.249)" fill="#e2a84d"/>
      <path id="Path-200" data-name="Path" d="M1.348,1.955,3.161,4.932l-2.949-.5L0,.119.249.162.418,0,2.938.425l-1.59,1.53Z" transform="translate(9.865 13.824)" fill="#ffc65a"/>
      <path id="Path-201" data-name="Path" d="M2.521,6.292,0,5.866,2.388,3.572,2.245.681l2.68.453L6.1,0l.133,2.72L5.058,3.854,5.11,4.93l-1.7-.287L2.228,5.775l.369.062-.077.455Z" transform="translate(10.283 7.957)" fill="#ffc65a"/>
      <path id="Path-202" data-name="Path" d="M3.217,5.988,3.36,8.879.41,8.381,0,0,2.948.5,3.2,5.7l-.255.244.268.045Z" transform="translate(9.311 2.651)" fill="#e2a84d"/>
      <path id="Path-203" data-name="Path" d="M3.839.5,1.451,2.792l-.3-.05L0,.856.89,0,3.839.5Z" transform="translate(8.831 11.031)" fill="#e2a84d"/>
      <path id="Path-204" data-name="Path" d="M.255,0,.268.289,0,.244.255,0Z" transform="translate(12.26 8.349)" fill="#e2a84d"/>
      <path id="Path-205" data-name="Path" d="M.3.05.131.213,0,0,.3.05Z" transform="translate(9.983 13.773)" fill="#fff"/>
      <path id="Path-206" data-name="Path" d="M2.764.425,1.088,2.035,0,.233.242,0,2.764.425Z" transform="translate(7.361 21.783)" fill="#ffc65a"/>
      <path id="Path-207" data-name="Path" d="M.127.022.258.235.009.192,0,0,.127.022Z" transform="translate(9.856 13.751)" fill="#fff"/>
      <path id="Path-208" data-name="Path" d="M1.665,0,2.816,1.886l-.127-.022.009.192L0,1.6,1.665,0Z" transform="translate(7.167 11.887)" fill="#ffc65a"/>
      <path id="Path-209" data-name="Path" d="M0,0,1.957,3.229.144,2.923,0,0Z" transform="translate(7.088 17.168)" fill="#e2a84d"/>
      <path id="Path-210" data-name="Path" d="M1.813.306.371,1.692.082,1.643,0,0,1.813.306Z" transform="translate(7.232 20.091)" fill="#e2a84d"/>
      <path id="Path-211" data-name="Path" d="M.288.048.047.282.011.222,0,0,.288.048Z" transform="translate(7.315 21.734)" fill="#fff"/>
      <path id="Path-212" data-name="Path" d="M3.717.436l.032-.03,1.088,1.8-.987.949.423,8.6L1.734,14.2,1.313,5.6.067,5.385,0,4.008,1.178,2.876,1.06.455,1.137,0,3.717.436Z" transform="translate(3.612 21.609)" fill="#ffc65a"/>
      <path id="Path-213" data-name="Path" d="M.111.108.08.138l0-.09.036.06Z" transform="translate(7.25 21.908)" fill="#fff"/>
      <path id="Path-214" data-name="Path" d="M.157.024.169.246.019,0,.157.024Z" transform="translate(7.157 21.71)" fill="#fff"/>
      <path id="Path-215" data-name="Path" d="M2.8,1.811l.15.246,0,.09L.369,1.71,0,1.649,1.715,0,2.852.192l.082,1.643L2.8,1.811Z" transform="translate(4.38 19.899)" fill="#ffc65a"/>
      <path id="Path-216" data-name="Path" d="M2.68.453l.144,2.923L1.687,3.184.022.433,0,0,2.68.453Z" transform="translate(4.408 16.715)" fill="#ffc65a"/>
      <path id="Path-217" data-name="Path" d="M5.558.5,2.949,3,0,2.507,2.609,0,5.558.5Z" transform="translate(1.178 7.959)" fill="#e2a84d"/>
      <path id="Path-218" data-name="Path" d="M2.884,0l.421,8.6-2.948-.5L0,.847l1.7.287L2.884,0Z" transform="translate(2.041 27.205)" fill="#e2a84d"/>
      <path id="Path-219" data-name="Path" d="M1.245.211.066,1.345,0,0,1.245.211Z" transform="translate(3.68 26.994)" fill="#ffc65a"/>
      <path id="Path-220" data-name="Path" d="M2.882,0,3,2.421l-2.948-.5L0,.847l1.7.287L2.882,0Z" transform="translate(1.79 22.064)" fill="#e2a84d"/>
      <path id="Path-221" data-name="Path" d="M4.127.5,2.949,1.63,0,1.132,1.18,0,4.127.5Z" transform="translate(0.663 23.988)" fill="#e2a84d"/>
      <path id="Path-222" data-name="Path" d="M1.021,4.4l.369.062-.077.455L.067,4.706,0,3.331,1.178,2.2,1.071,0,2.736,2.751,1.021,4.4Z" transform="translate(3.36 17.148)" fill="#ffc65a"/>
      <path id="Path-223" data-name="Path" d="M1.245.211.066,1.345,0,0,1.245.211Z" transform="translate(3.427 21.854)" fill="#ffc65a"/>
      <path id="Path-224" data-name="Path" d="M3.253,6.681l.107,2.2-2.948-.5L0,0,2.949.5,3.23,6.249,2.963,6.2l.29.478Z" transform="translate(1.178 10.466)" fill="#e2a84d"/>
      <path id="Path-225" data-name="Path" d="M4.127.5,2.949,1.632,0,1.134,1.18,0,4.127.5Z" transform="translate(0.41 18.847)" fill="#e2a84d"/>
      <path id="Path-226" data-name="Path" d="M.268.045.29.478,0,0,.268.045Z" transform="translate(4.14 16.67)" fill="#e2a84d"/>
      <path id="Path-227" data-name="Path" d="M1.7.287,1.77,1.632l-1.7-.287L0,0,1.7.287Z" transform="translate(1.976 26.707)" fill="#e2a84d"/>
      <path id="Path-228" data-name="Path" d="M2.949.5l.067,1.377-1.7-.287.066,1.345L.135,2.721,0,0,2.949.5Z" transform="translate(0.663 25.12)" fill="#e2a84d"/>
      <path id="Path-229" data-name="Path" d="M1.7.287,1.77,1.632l-1.7-.287L0,0,1.7.287Z" transform="translate(1.723 21.566)" fill="#e2a84d"/>
      <path id="Path-230" data-name="Path" d="M2.949.5l.067,1.375-1.7-.287L1.38,2.93.135,2.72,0,0,2.949.5Z" transform="translate(0.41 19.981)" fill="#e2a84d"/>
      <path id="Rectangle-29" data-name="Rectangle" d="M.5,0h0V1.266h0Z" transform="matrix(0.167, -0.986, 0.986, 0.167, 15.307, 13.375)" fill="#231f20"/>
      <path id="Rectangle-30" data-name="Rectangle" d="M.5,0h0V1.264h0Z" transform="translate(15.062 8.243) rotate(-80.35)" fill="#231f20"/>
      <path id="Path-231" data-name="Path" d="M5.169,4.2l-2.981-.5L0,.071.12,0,2.273,3.565l2.918.492L5.169,4.2Z" transform="translate(8.39 23.782)" fill="#231f20"/>
      <path id="Path-232" data-name="Path" d="M.1,2.565l-.1-.1L2.564,0,5.545.5,5.522.642,2.609.149.1,2.565Z" transform="translate(9.262 0.136)" fill="#231f20"/>
      <path id="Path-233" data-name="Path" d="M.414,8.468,0,0,3.034.513,3.011.651.15.168l.4,8.293-.14.007Z" transform="translate(9.236 2.567)" fill="#231f20"/>
      <path id="Path-234" data-name="Path" d="M.1.981,0,.88.916,0,3.9.5,3.876.642.961.149.1.981Z" transform="translate(8.783 10.957)" fill="#231f20"/>
      <path id="Rectangle-31" data-name="Rectangle" d="M.5,0h0V1.839h0Z" transform="matrix(0.167, -0.986, 0.986, 0.167, 7.153, 20.588)" fill="#231f20"/>
      <path id="Path-235" data-name="Path" d="M3.363,7.83l-3-.507L0,.007.14,0,.494,7.2l2.891.489-.022.138Z" transform="translate(1.972 28.048)" fill="#231f20"/>
      <path id="Rectangle-32" data-name="Rectangle" d="M.5,0h0V1.078h0Z" transform="translate(1.288 22.938) rotate(-2.78)" fill="#231f20"/>
      <path id="Path-236" data-name="Path" d="M.1,1.257l-.1-.1L1.206,0,4.187.5,4.165.642,1.251.149.1,1.257Z" transform="translate(0.614 23.913)" fill="#231f20"/>
      <path id="Path-237" data-name="Path" d="M3.146,3.372l-3-.507L0,0,3.036.513,3.013.651.15.168.277,2.746l2.891.489-.022.138Z" transform="translate(0.588 25.036)" fill="#231f20"/>
      <path id="Rectangle-33" data-name="Rectangle" d="M0,.5,1.637.5h0L0,.5Z" transform="translate(0.064 19.633) rotate(-43.94)" fill="#231f20"/>
      <path id="Path-238" data-name="Path" d="M3.146,3.371l-3-.507L0,0,3.036.513,3.013.651.15.168.277,2.744l2.891.489-.022.138Z" transform="translate(0.335 19.897)" fill="#231f20"/>
      <path id="Path-239" data-name="Path" d="M3.419,8.952l-3-.507L0,.007.14,0l.41,8.325,2.891.489-.022.138Z" transform="translate(1.107 10.462)" fill="#231f20"/>
      <path id="Path-240" data-name="Path" d="M2,35.414l-.421-8.6L.4,27.944.253,25.038l1.178-1.132-.11-2.236L.142,22.8,0,19.9l1.178-1.134-.41-8.349.14-.007.412,8.412L.142,19.955.266,22.49l1.18-1.134.127,2.606L.4,25.094.521,27.63,1.7,26.5l.421,8.6L4.526,32.79l-.423-8.6,2.749-2.643,3.444,5.7,2.361-2.27-.423-8.6,1.18-1.134L13.29,12.7l-1.18,1.132-.129-2.6,1.18-1.134-.124-2.535L11.858,8.7,11.446.313l-2.4,2.311.412,8.381L6.811,13.544,5.483,11.373l-2.1-3.43.12-.075,3.333,5.456,2.47-2.375L8.9,2.568,11.569,0l.412,8.383,1.18-1.134.142,2.9-1.18,1.134.11,2.235,1.18-1.132.142,2.9-1.18,1.134.423,8.6-2.534,2.438-3.444-5.7L4.245,24.243l.423,8.6L2,35.414Z" transform="translate(3.288 0.552)" fill="#231f20"/>
      <path id="Shape-12" data-name="Shape" d="M.241,4.85,0,0,2.135,3.525.262,5.315Z" transform="translate(7 16.883)" fill="#231f20"/>
      <path id="Shape-13" data-name="Shape" d="M0,1.679,1.742,0l.246,4.939Z" transform="translate(11.124 14.087)" fill="#231f20"/>
      <path id="Shape-14" data-name="Shape" d="M0,2.628,2.736,0,5.86.526,3.122,3.155Z" transform="translate(1.028 7.885)" fill="#231f20"/>
    </g>
    <path id="Path-241" data-name="Path" d="M3,0V3L0,1.986,3,0Z" transform="translate(38.5 34)" fill="#8071db"/>
    <path id="Shape-15" data-name="Shape" d="M1.752,17.543,0,14.558V1.672L2.3,0,22.686,7.252,25,10.564v12.82L22.691,25Z" transform="translate(16.5 10)" fill="#9881ee"/>
    <path id="Path-242" data-name="Path" d="M3,.744V3L0,0,3,.744Z" transform="translate(38.5 16)" fill="#8071db"/>
    <path id="Shape-16" data-name="Shape" d="M.077,3.812C-.262,1.886.546.185,1.884.014s2.7,1.251,3.039,3.175-.469,3.624-1.806,3.8A1.736,1.736,0,0,1,2.9,7C1.632,7,.4,5.631.077,3.812Z" transform="translate(25.5 16)" fill="#fff"/>
    <path id="Path-243" data-name="Path" d="M1,.357V2L0,1.643V0L1,.357Z" transform="translate(28.5 20)" fill="#fff"/>
    <path id="Path-244" data-name="Path" d="M1,.358V2L0,1.642V0L1,.358Z" transform="translate(28.5 18)" fill="#fff"/>
    <path id="Path-245" data-name="Path" d="M3,.986,0,3V0L3,.986Z" transform="translate(16.5 8)" fill="#8071db"/>
    <path id="Path-246" data-name="Path" d="M0,0,2,3,0,2.375V0Z" transform="translate(17.5 24)" fill="#8071db"/>
    <path id="Path-247" data-name="Path" d="M25,28l-2.4-.9L0,18.664V0L2.388.89,22.657,8.459,22.6,8.59.145.2V18.569l24.71,9.225V9.431l-2.248-.84.052-.131L25,9.334V28Z" transform="translate(16.5 8)" fill="#231f20"/>
    <path id="Rectangle-34" data-name="Rectangle" d="M.512,0h0L.488,18.243h0Z" transform="matrix(0.36, -0.933, 0.933, 0.36, 20.811, 25.77)" fill="#231f20"/>
    <path id="Rectangle-35" data-name="Rectangle" d="M.512,0h0L.488,18.243h0Z" transform="translate(20.81 24.025) rotate(-68.91)" fill="#231f20"/>
    <path id="Rectangle-36" data-name="Rectangle" d="M.512,0h0L.488,18.243h0Z" transform="matrix(0.36, -0.933, 0.933, 0.36, 20.811, 22.06)" fill="#231f20"/>
    <path id="Rectangle-37" data-name="Rectangle" d="M.512,0h0L.488,18.243h0Z" transform="matrix(0.36, -0.933, 0.933, 0.36, 20.812, 12.188)" fill="#231f20"/>
    <path id="Rectangle-38" data-name="Rectangle" d="M0,.5,2.783.5h0L0,.5Z" transform="matrix(0.797, -0.603, 0.603, 0.797, 38.977, 35.099)" fill="#231f20"/>
    <path id="Path-248" data-name="Path" d="M2,4,.051,3.282.109,3.14l1.731.637V2.389L0,1.712V0L1.949.718,1.891.86.16.224V1.609L2,2.286V4Z" transform="translate(27.5 18)" fill="#231f20"/>
    <path id="Path-249" data-name="Path" d="M1.863,3,0,.074.129,0,.137.011,2,2.938,1.863,3Z" transform="translate(17.5 25)" fill="#231f20"/>
    <path id="Path-250" data-name="Path" d="M2.849,4,0,.1.137,0h0L3,3.913,2.849,4Z" transform="translate(38.5 16)" fill="#231f20"/>
    <path id="Rectangle-39" data-name="Rectangle" d="M0,.5,2.817.5h0L0,.5Z" transform="matrix(0.786, -0.618, 0.618, 0.786, 17.194, 10.744)" fill="#231f20"/>
    <path id="Shape-17" data-name="Shape" d="M1.189,6.176a4.756,4.756,0,0,1-.848-4.9A2.02,2.02,0,0,1,1.887.014c1.336-.174,2.7,1.249,3.03,3.17a4.321,4.321,0,0,1-.269,2.543A2.023,2.023,0,0,1,3.1,6.986,2.076,2.076,0,0,1,2.865,7,2.352,2.352,0,0,1,1.189,6.176Z" transform="translate(25.5 17)" fill="#231f20"/>
    <rect id="Rectangle-40" data-name="Rectangle" width="0.14" height="5" transform="translate(29.43 17)" fill="#231f20"/>
    <path id="Path-251" data-name="Path" d="M2.355,0,4,8,1.788,5.184l-.6,1.6L0,1.3a1.783,1.783,0,0,0,.706.038A2.264,2.264,0,0,0,2.355,0Z" transform="translate(34.5 32)" fill="#ffc65a"/>
    <path id="Shape-18" data-name="Shape" d="M2.5,7.949A3.182,3.182,0,0,1,.638,6.159a6.269,6.269,0,0,1-.561-1.8C-.262,2.155.547.213,1.884.016s2.7,1.428,3.039,3.626a5.373,5.373,0,0,1-.376,3.141,2.006,2.006,0,0,1-1.43,1.2A1.536,1.536,0,0,1,2.5,7.949Z" transform="translate(31.5 26)" fill="#ffc65a"/>
    <path id="Path-252" data-name="Path" d="M2.954,2.277c.2,1.376-.282,2.59-1.083,2.713S.252,4.1.047,2.721.329.133,1.132.01,2.749.9,2.954,2.277Z" transform="translate(32.5 27)" fill="#ffc65a"/>
    <path id="Path-253" data-name="Path" d="M4,2.059,2.554,7,1.514,4.447,0,6.045,1.836,0A3.7,3.7,0,0,0,4,2.059Z" transform="translate(30.5 31)" fill="#ffc65a"/>
    <path id="Path-254" data-name="Path" d="M4,8,1.788,5.15,1.179,6.8,0,1.283l.14-.028L1.215,6.289l.527-1.43,2,2.57L2.229.026,2.371,0,4,8Z" transform="translate(34.5 32)" fill="#231f20"/>
    <path id="Path-255" data-name="Path" d="M2.578,7,1.56,4.445,0,6.132,1.826,0l.139.04L.316,5.58l1.295-1.4.945,2.376L3.861,1.99,4,2.029,2.578,7Z" transform="translate(30.5 31)" fill="#231f20"/>
    <path id="Shape-19" data-name="Shape" d="M2.887,8a1.546,1.546,0,0,1-.4-.053A3.165,3.165,0,0,1,.63,6.155a6.3,6.3,0,0,1-.552-1.8C-.265,2.165.556.216,1.893.016A2.13,2.13,0,0,1,3.8.94a5.626,5.626,0,0,1,1.129,2.7,5.453,5.453,0,0,1-.367,3.115L4.538,6.8A2.007,2.007,0,0,1,3.111,7.987,1.551,1.551,0,0,1,2.906,8Z" transform="translate(31.5 26)" fill="#231f20"/>
    <path id="Shape-20" data-name="Shape" d="M1.718,5C.964,5,.229,4.023.047,2.726A3.664,3.664,0,0,1,.213.913a1.29,1.29,0,0,1,.928-.9c.8-.127,1.612.89,1.813,2.264a3.649,3.649,0,0,1-.167,1.813,1.284,1.284,0,0,1-.928.9A.829.829,0,0,1,1.732,5Z" transform="translate(32.5 27)" fill="#231f20"/>
    <rect id="Rectangle-41" data-name="Rectangle" width="139" height="101" transform="translate(0.5)" fill="#12ca70" style="mix-blend-mode: color;isolation: isolate"/>
  </g>
</svg>
