<svg width="155" height="111" viewBox="0 0 155 111" fill="none" xmlns="http://www.w3.org/2000/svg">
<g opacity="0.21">
<path d="M47.832 22.0021L153.902 63.5451L107.226 110.936L1.15576 69.3904L47.832 22.0021Z" fill="#231F20"/>
</g>
<path d="M154 56V57.9253L152 58L154 56Z" fill="#18A058"/>
<path d="M6 61.822L1 62V60L6 61.822Z" fill="#18A058"/>
<path d="M154 55.0572L151.749 57.3666L6.11669 63L1 60.9748L47.7539 13L154 55.0572Z" fill="#18A058"/>
<path d="M154 58L106 106V103.778L151.689 58.0864L154 58Z" fill="#18A058"/>
<path d="M151 58L106.384 104L5 63.6745L151 58Z" fill="#18A058"/>
<path d="M106 102.898V105L1 65.1873L6.05667 65L106 102.898Z" fill="#18A058"/>
<path d="M107.236 106L107.191 105.981L1 64.0307L1.05536 63.8837L107.199 105.815L153.891 58L154 58.1113L107.236 106Z" fill="#231F20"/>
<path fill-rule="evenodd" clip-rule="evenodd" d="M107.166 103.981L107.211 104L154 56.5531L47.8339 15.0187L47.7888 15L1 62.4386L107.166 103.981ZM107.174 103.817L1.27442 62.3887L47.8257 15.1828L153.726 56.6092L107.174 103.817Z" fill="#231F20"/>
<rect x="105.923" y="104" width="0.154206" height="2" fill="#231F20"/>
<rect x="153.923" y="56" width="0.154206" height="2" fill="#231F20"/>
<rect x="0.922852" y="60" width="0.154206" height="2" fill="#231F20"/>
<path d="M139.499 54C142.538 54 145 55.7906 145 58.001C145 60.2113 142.538 62 139.499 62C136.46 62 134 60.2094 134 58.001C134.003 57.4403 134.159 56.8911 134.451 56.4125H134.461C135.305 54.9877 137.245 54 139.499 54Z" fill="#18894B"/>
<path d="M134.525 57.53H134.475V57.47L134.525 57.53Z" fill="white"/>
<path d="M135 57.2225V57.2347L99.9362 91.1848C99.5679 91.4134 99.2319 91.6875 98.9365 92L18 61.7673C18.2405 61.3667 18.3884 60.9203 18.4335 60.4589L51.2644 28.6651C52.3449 28.3777 53.3196 27.8005 54.0761 27L135 57.2225Z" fill="#18894B"/>
<path d="M103.501 90.0007C106.538 90.0007 109 91.7911 109 94.0013C109 96.2115 106.538 98 103.501 98C100.464 98 98 96.2095 98 94.0013C98.0143 93.1798 98.3386 92.3939 98.9082 91.8008L99.0103 91.8393L99.824 91.0268C100.925 90.3385 102.202 89.9822 103.501 90.0007Z" fill="#18894B"/>
<path d="M101 91L99.2232 92L99 91.9526C99.5904 91.5876 100.263 91.2673 101 91V91Z" fill="white"/>
<path d="M57 22.999C56.9874 23.7893 56.6865 24.5479 56.154 25.1323L55.4313 24.8532L53.5794 26.7054C52.9047 26.903 52.205 27.0022 51.5019 27C48.4667 27 46 25.2094 46 22.999C46 20.7887 48.4609 19 51.4961 19C54.5314 19 57 20.7906 57 22.999Z" fill="white"/>
<path d="M55.1579 26L56 26.3015C55.1929 27.1181 54.1529 27.7069 53 28L55.1579 26Z" fill="white"/>
<path d="M20.9999 58.999C21.0008 59.0956 20.995 59.1921 20.9825 59.2878L19.9799 60.291L20.5854 60.5239C19.7621 61.9776 17.7954 63 15.5009 63C12.4622 63 10 61.2094 10 58.999C10 56.7887 12.4622 55 15.5009 55C18.5396 55 20.9999 56.7906 20.9999 58.999Z" fill="#18894B"/>
<path d="M20 60.6231L22 59C21.9175 59.7052 21.6472 60.3876 21.2077 61L20 60.6231Z" fill="#18894B"/>
<path d="M21.1212 59.9589L53.2036 27.7795L53.2042 27.7801L21.1218 59.9596L21.1212 59.9589Z" fill="#231F20"/>
<path d="M20.7022 61.2926L20.7025 61.2918L99.7716 91.8943L99.7713 91.8952L20.7022 61.2926Z" fill="#231F20"/>
<path d="M100.747 91.0489L134.997 56.6952L134.998 56.6958L100.747 91.0495L100.747 91.0489Z" fill="#231F20"/>
<path d="M55.9585 26.1038L55.9588 26.103L135.009 56.6981L135.008 56.6989L55.9585 26.1038Z" fill="#231F20"/>
<path fill-rule="evenodd" clip-rule="evenodd" d="M98 94.0013C98 96.2068 100.467 98 103.501 98C106.533 98 109 96.2068 109 94.0013C109 91.7957 106.533 90.0006 103.501 90.0006C102.205 89.983 100.932 90.337 99.833 91.0202C99.4935 91.2358 99.1844 91.4954 98.9137 91.7919C98.34 92.3878 98.0137 93.1768 98 94.0013ZM99.9111 91.1375C100.987 90.4708 102.233 90.1255 103.501 90.1425C106.455 90.1425 108.859 91.8808 108.859 94.0088C108.859 96.1368 106.457 97.8657 103.503 97.8657C100.549 97.8657 98.1447 96.1368 98.1447 94.0088C98.1582 93.2191 98.4717 92.4638 99.0221 91.8941C99.284 91.6044 99.5828 91.3501 99.9111 91.1375Z" fill="#231F20"/>
<path fill-rule="evenodd" clip-rule="evenodd" d="M134 58.0009C134 60.2056 136.469 62 139.502 62C142.537 62 145 60.2056 145 58.0009C145 55.7963 142.531 54 139.496 54C137.313 54 135.335 54.9397 134.457 56.3938V56.4051C134.16 56.8855 134.002 57.4375 134 58.0009ZM134.145 57.9972C134.147 57.4554 134.3 56.9249 134.586 56.4637C135.443 55.0532 137.368 54.1418 139.504 54.138C142.458 54.138 144.865 55.87 144.865 57.9972C144.865 60.1243 142.458 61.8544 139.504 61.8544C136.549 61.8544 134.145 60.1243 134.145 57.9972Z" fill="#231F20"/>
<path fill-rule="evenodd" clip-rule="evenodd" d="M10 59C10 61.2052 12.4668 63 15.5008 63C17.7335 63 19.7282 62.026 20.5828 60.5319C20.8039 60.1522 20.9402 59.7298 20.9825 59.2931C20.9958 59.196 21.0015 59.098 20.9997 59C20.9997 56.7948 18.5272 55 15.5008 55C12.4744 55 10 56.7948 10 59ZM10.1428 59C10.1428 56.8723 12.5467 55.1418 15.5008 55.1418C18.4548 55.1418 20.8569 56.8723 20.8569 59C20.8546 59.0938 20.8456 59.1873 20.8303 59.2799C20.7918 59.6974 20.6619 60.1015 20.4496 60.4638C19.6292 61.9125 17.684 62.8582 15.5008 62.8582C12.5467 62.8582 10.1428 61.1277 10.1428 59Z" fill="#231F20"/>
<path fill-rule="evenodd" clip-rule="evenodd" d="M46 22.9981C46 25.2033 48.4679 26.9999 51.499 26.9999C52.2022 27.0021 52.9021 26.9033 53.5769 26.7068C54.5655 26.4344 55.4575 25.8919 56.1514 25.1408C56.687 24.553 56.9888 23.7912 57 22.9981C57 20.7929 54.5245 19 51.499 19C48.4736 19 46 20.7929 46 22.9981ZM46.1427 22.9981C46.1427 20.8704 48.5459 19.1418 51.499 19.1418C54.4522 19.1418 56.8573 20.8761 56.8573 22.9981C56.8444 23.757 56.5535 24.4853 56.0391 25.0463C55.3623 25.7775 54.4928 26.3056 53.5293 26.5706C52.8701 26.7632 52.1862 26.8594 51.499 26.8562C48.5459 26.8562 46.1427 25.1257 46.1427 22.9981Z" fill="#231F20"/>
<path d="M49 17L154 56L49 17Z" fill="white"/>
<path d="M47.7276 14.4938L47.7279 14.493L154.203 55.7025L154.202 55.7033L47.7276 14.4938Z" fill="#231F20"/>
<g opacity="0.15">
<path d="M37.6614 28.0978L137.861 66.0772L114.201 89.324L14.0039 51.3426L37.6614 28.0978Z" fill="#231F20"/>
</g>
<path d="M38.1709 20.3672L32 8L85 27.6718L77.3654 35L38.1974 20.4222L38.1709 20.3672Z" fill="#C66D6D"/>
<path d="M131 55V60.0886L125.117 65.9226V62.874L119.425 68.518V71.5666L111.929 79L111.575 78.6492L110 75.822L131 55Z" fill="#B6D8DA"/>
<path d="M131 55.2085L110.441 76L110 75.1973L127.72 57.2747L129.969 55L131 55.2085Z" fill="#92C6CF"/>
<path d="M124.029 56.1029L126.044 54H126.08L128 56.9412L110.699 75L109 71.7899L114.181 66.3845V66.3824L124.029 56.1029Z" fill="#231F20"/>
<path d="M127 53V54.9254H126.965L125 57V55.1119L127 53Z" fill="#F49493"/>
<path d="M127 48V52.9331L125 55V54.8174V50.0669L127 48Z" fill="#FFC65A"/>
<path fill-rule="evenodd" clip-rule="evenodd" d="M126 47.4983L121.212 41.0577L113.53 38L113.504 38.0268L92 60.2642V60.3198L99.7473 63.4084L109.079 65L114.235 59.6733L123.972 49.5964L126 47.4983ZM118.866 51.8778L113.582 57.3445L113.536 57.2869L103.093 53.1174V52.3205L108.466 46.7612L108.537 46.86L118.997 51.0357V51.7502L118.866 51.8778Z" fill="#E08282"/>
<path d="M126 67V68.7359L121 74V72.2661L126 67Z" fill="white"/>
<path d="M126 62V64.8057L121 70V67.1943L126 62Z" fill="white"/>
<path d="M124 56.0199V57.9003L115 68V66.1217V61.1017L124 51V55.8341V56.0199Z" fill="#231F20"/>
<path d="M117 52V52.5663L116.88 52.6674L112.047 57L112 56.9576V56.326L117 52Z" fill="#231F20"/>
<path d="M119 52.5134L113.159 57L102 53.5729L107.747 49L107.824 49.0812L119 52.5134Z" fill="#C66D6D"/>
<path d="M113 64.7808V66.4052V66.407L107.701 71L107.666 70.9464L100.326 70.3395L90 66.8854V61L98.0139 63.6812L108.323 68.8365L113 64.7808Z" fill="#F49493"/>
<path d="M113 60V64.1361L108.616 68L108 64.4048L113 60Z" fill="#FFC65A"/>
<path d="M112 57.1978V58L102 53.8022V53L112 57.1978Z" fill="#C66D6D"/>
<path d="M107.006 35.9531L107.035 35.9653L111.951 37.9244L112 37.9753L90.7701 59.9593V60L90.6699 59.9593L85.0079 51.7239L85 51.7199L102.112 34L107.006 35.9531Z" fill="#231F20"/>
<path d="M106.857 30.0069L112 37L107.535 35.3368L107.508 35.3264L106 30.8256L106.825 30.0276L106.837 30L106.857 30.0069Z" fill="#C66D6D"/>
<path d="M111 78.7182L109.115 81H109V78L110.685 78.3364L111 78.7182Z" fill="#B6D8DA"/>
<path d="M109.332 76L111 79L109 78.6721V76.3301L109.332 76Z" fill="#B6D8DA"/>
<path d="M108.007 76.4045L108 76.4007L109.272 75L110 76.4419L109.493 77L108.007 76.4045Z" fill="#92C6CF"/>
<path d="M109 78.0839V81L108 78L109 78.0839Z" fill="#92C6CF"/>
<path d="M109 76.3923V79L108.465 78.9062L108 76L109 76.3923Z" fill="#92C6CF"/>
<path d="M108.465 78.0733L109 81L108 80.6552V78L108.465 78.0733Z" fill="#92C6CF"/>
<path d="M107.475 72.6497L109 75.3327L108.324 75.9895L108.328 75.9912V78L102.265 77.029L101 72L107.444 72.597L107.475 72.6497Z" fill="#C66D6D"/>
<path d="M108 76L109 79L108 78.9134V76Z" fill="#92C6CF"/>
<path d="M107.427 64.34L108 68L99 63L107.427 64.3383V64.34Z" fill="#FFC65A"/>
<path fill-rule="evenodd" clip-rule="evenodd" d="M70.4558 46.3144L82.915 50.9622L84.3444 51.4975L101.766 34.6725L105.056 31.4915L105.986 30.5967L106 30.5658L91.6516 25L87.2333 29.2517L86.1977 30.2489L78.7106 37.469L70 45.8679V51.8299L70.4558 52V51.9865V46.3144ZM88.1429 44.6833L79.8982 41.6085V41.5931L90.3101 31.5302L90.3281 31.4838L98.5989 34.5759L88.1429 44.6833Z" fill="#E08282"/>
<path d="M93.3721 72.771L92 72.3109V68L101.653 71.2257L103 76L93.3683 72.781L93.3721 72.771Z" fill="#C66D6D"/>
<path d="M99 33.741L88.3779 46L80 42.2707L80.002 42.2614L90.5795 30.0563L90.5978 30L99 33.741Z" fill="#231F20"/>
<path d="M92 68.0231V74L71 64.9792V59L92 68.0231Z" fill="#C66D6D"/>
<path d="M86.6685 58.4667L89.6923 59.7142L91.8942 60.6238L92 60.6682V68L71 59.3184V52L71.4732 52.1957L86.6685 58.4667Z" fill="#F49493"/>
<path d="M84.3961 52.5121L84.4039 52.5158L90 60L87.9398 59.2438L85.1107 58.2066L83 52L84.3961 52.5121Z" fill="#F49493"/>
<path d="M87 26.9664L85.9327 28L32.364 7.91095L31 6L87 26.9664Z" fill="#F49493"/>
<path d="M81.6247 51.5913L84 58L68 52.6165L68.0066 52.6031V47L81.6247 51.5913Z" fill="#231F20"/>
<path d="M79 37.1396L70.0759 45.9643V51L27 34.5263L27.0123 34.4918L39.6129 22L39.6477 22.0487L79 37.1396Z" fill="#AA5E5E"/>
<path d="M71 58.8022V64L66.2817 62.3002V62.2982L66 57L71 58.8022Z" fill="#C66D6D"/>
<path d="M71 53.8023V60L66.3332 58.3107L66 52.0282L66.012 52L71 53.8023Z" fill="#C66D6D"/>
<path d="M68 50.7707V52L62.9267 50.0554L8 29H11.2992L11.7973 29.191L25.0635 34.2852L68 50.7707Z" fill="#F49493"/>
<path d="M64.7559 57.1436L65 62L64.0497 61.639L62 54.1418L64.4466 51L64.7559 57.1436Z" fill="#231F20"/>
<path d="M64 49.5816L63.9875 49.6114L61.2545 53L8 32.8792V29L64 49.5816Z" fill="#F49493"/>
<path d="M63 62L15.6281 43.8926L8 33L60.7328 53.6866L63 62Z" fill="#E08282"/>
<path d="M38 21.9924L37.9924 22L31 11.9001V11.2592L32.2562 10L38 21.9924Z" fill="#C66D6D"/>
<path d="M32.4297 10L40 21.102L27.3616 33.9645L27.3492 34L14 28.7584V28.7563L32.4297 10Z" fill="#C66D6D"/>
<path d="M30.6176 9.28243L11.3746 28H8L30.6176 6L32 7.93777L30.6176 9.28243Z" fill="#F49493"/>
<path d="M31 9V9.68783L12.5031 27.998V28L12 27.8081L31 9Z" fill="#C66D6D"/>
<path d="M9.40953 33.1648L9.40985 33.164L62.0138 54.0544L62.0135 54.0552L9.40953 33.1648Z" fill="#231F20"/>
<path d="M63.8668 62L63.3481 51.3764L61.1456 54.2897L63.0924 61.6236L62.9627 61.6598L61 54.2607L63.4636 51L64 61.9928L63.8668 62Z" fill="#231F20"/>
<path d="M84.1113 52L84 51.8948L105.893 30L106 30.1093L84.1113 52Z" fill="#231F20"/>
<path d="M113.613 66.7615L125.731 54.6069L125.732 54.6075L113.614 66.7622L113.613 66.7615Z" fill="#231F20"/>
<path d="M108.286 72.1064L113.613 66.7633L113.614 66.7639L108.287 72.107L108.286 72.1064Z" fill="#231F20"/>
<path d="M80.0244 41.5638L90.7321 30.8237L90.7328 30.8243L80.025 41.5644L80.0244 41.5638Z" fill="#231F20"/>
<path d="M89.1072 60L89 59.8928L110.893 38L111 38.1093L110.974 38.1356L89.1072 60Z" fill="#231F20"/>
<path d="M99.9435 76L62.9181 61.8035L14.7756 43.3431L14.761 43.3223L7 32.2036V28L87.4928 58.8152L87.4363 58.9609L7.15702 28.2289V32.1536L14.8782 43.2141L62.9746 61.6579L68.6357 63.8283L89.8209 71.9504L91.3136 72.5248L100 75.8543L99.9435 76Z" fill="#231F20"/>
<path d="M91.8707 61L85.7731 51.509L71.159 45.2585V52.026H71V45L71.1081 45.047L85.8664 51.3586L85.8898 51.3845L92 60.8966L91.8707 61Z" fill="#231F20"/>
<path d="M68.2699 52L11 29.1485L31.4469 8L31.4943 8.01916L85 29.3678L84.9444 29.5168L31.486 8.18732L11.2778 29.0889L11.6689 29.2443L68.3255 51.851L68.2699 52Z" fill="#231F20"/>
<path fill-rule="evenodd" clip-rule="evenodd" d="M102 53.9278L112 58V57.0722L102 53V53.9278ZM111.855 57.7898L102.137 53.8247V53.2201L111.855 57.1852V57.7898Z" fill="#231F20"/>
<path d="M109.111 65L109 64.8894L126.79 47.5157L121.799 41.1862L113.721 38.1434L113.777 38L121.897 41.0592L127 47.528L109.111 65Z" fill="#231F20"/>
<path d="M107.846 69L107.188 65.1315L97.4593 63.7093L87 60.1296L87.0563 60L97.501 63.5759L107.336 65.013V65.0722L108 68.9778L107.846 69Z" fill="#231F20"/>
<path d="M109.862 76L108.077 72.807L100.619 72.1025L64 58.145L64.0566 58L100.665 71.9533L108.173 72.6598L108.23 72.7572L110 75.9254L109.862 76Z" fill="#231F20"/>
<path d="M108.976 78L102.169 76.9182L92 73.1369L92.0548 73L102.209 76.7774L109 77.8552L108.976 78Z" fill="#231F20"/>
<path d="M87.8132 46L87.7645 45.9792L79 42.2779L79.0571 42.1158L79.0952 42.132L87.773 45.7962L98.7144 33.817L90.0768 30.1691L90.117 30L99 33.7522L87.8132 46Z" fill="#231F20"/>
<path d="M70.1515 63H70V45.3069L70.0222 45.2853L91.893 24L92 24.1044L70.1515 45.37V63Z" fill="#231F20"/>
<path d="M84.8178 59L84.7947 58.9525L82 53.0211H82.1001L82.1873 53L85 58.9577L84.8178 59Z" fill="#231F20"/>
<path d="M78.9436 36L38.7645 20.7194L38.7165 20.6516L31 9.71923V9.00205L31.1568 9V9.66991L38.8648 20.592L79 35.8562L78.9436 36Z" fill="#231F20"/>
<path d="M31.6763 6.798L31.6766 6.79719L87.5579 28.3803L87.5576 28.3811L31.6763 6.798Z" fill="#231F20"/>
<path d="M112 41L101.437 36.5194L101.493 36.3605L111.577 40.6368L105.797 31.6983L105.748 31.6733L91 25.1589L91.0577 25L105.902 31.5598L105.91 31.578L112 41Z" fill="#231F20"/>
<path d="M106.846 36L106.829 35.9529L105 31.0433L105.154 31L107 35.9567L106.846 36Z" fill="#231F20"/>
<path d="M127.879 57L126 54.6412V49H126.147V54.6027L128 56.9297L127.879 57Z" fill="#231F20"/>
<path d="M109.978 68L99 63.1118L99.0829 63.0023L109.949 67.8417L114.836 64.0682V60H115V64.1204L109.978 68Z" fill="#231F20"/>
<rect x="91.9229" y="60" width="0.154206" height="11" fill="#231F20"/>
<path d="M124 55V50H124.139V54.6393L125.902 52.7467L126 52.8518L124 55Z" fill="#231F20"/>
<path d="M112.125 65V63H112.875V64.9978L112.125 65Z" fill="#231F20"/>
<rect x="123.923" y="55" width="0.154206" height="2" fill="#231F20"/>
<path d="M113.137 57L113.028 56.9102L118.712 52.5702L107.762 49.2261L107.726 49.1896L102.111 53.6327L102 53.5429L107.743 49L107.861 49.1231L119 52.5236L113.137 57Z" fill="#231F20"/>
<path d="M112.094 58L112 57.9006L112.083 57.8088L116.868 52.6329V52H117V52.6941L116.862 52.8337L112.094 58Z" fill="#231F20"/>
<path d="M109.893 82L108 81.6713V77H108.308V81.5702L110 81.8639L109.893 82Z" fill="#231F20"/>
<path d="M110.956 77L110.095 76.6603L110 76.6111L110.063 76.5278L129.972 55L131 55.2222L130.97 55.3803L130.022 55.1752L110.249 76.5513L111.008 76.8504L110.956 77Z" fill="#231F20"/>
<path d="M126.093 65L126 64.8973L130.869 59.6044V55H131V59.6634L126.093 65Z" fill="#231F20"/>
<path d="M109.194 81H109V76.8262H109.128V80.8703H109.142L116.91 73L117 73.0899L109.194 81Z" fill="#231F20"/>
<path d="M110.191 76.326L131.001 55.4525L131.002 55.4531L110.191 76.3266L110.191 76.326Z" fill="#231F20"/>
<path fill-rule="evenodd" clip-rule="evenodd" d="M121 67.3076V72L126 66.6905V62L121 67.3076ZM121.135 71.658V67.3668L125.865 62.3477V66.6389L121.135 71.658Z" fill="#231F20"/>
<path d="M100.948 71.3221L100.949 71.3219L102.387 77.2278L102.386 77.228L100.948 71.3221Z" fill="#231F20"/>
<path d="M11.3755 28H8L29.6179 6L30.9792 7.99524L37 20.7559L36.8655 20.8204L36.8397 20.764L30.8526 8.06974L29.5981 6.23355L8.35812 27.849H11.3755V28Z" fill="#231F20"/>
<path d="M13.2324 29.3285L31.6776 10.8276L31.6782 10.8282L13.233 29.3292L13.2324 29.3285Z" fill="#231F20"/>
<path d="M26.1193 33L26 32.8997L39.8807 21L40 21.1022L39.9707 21.1292L26.1193 33Z" fill="#231F20"/>
<path d="M48.859 24.5793L49 28L46.8 27.5538L46.141 27.4207L46 24L48.859 24.5793Z" fill="#4599DD"/>
<path d="M49.9966 30L47.0507 29.4277V29.3657C47.0507 29.257 47.0389 29.1465 47.0321 29.0339V28.9176C47.0321 28.7895 47.0203 28.6615 47.0152 28.5296C47.0101 28.3977 47.0051 28.289 47 28.1707C47 28.1339 47 28.0989 47 28.0621C47 28.0252 47 28.0213 47 28L49.2669 28.4423L49.4358 28.2483L49.9426 28.3472C49.9426 28.3589 49.9426 28.3686 49.9426 28.3802C49.9426 28.4617 49.9426 28.5451 49.951 28.6266C49.951 28.6634 49.951 28.7003 49.951 28.7371L49.9662 29.0941C49.9662 29.2241 49.978 29.354 49.9831 29.4821C49.9831 29.5209 49.9831 29.5597 49.9831 29.5984C49.9831 29.709 49.9932 29.8196 50 29.9263L49.9966 30Z" fill="#4599DD"/>
<path d="M47.1137 21.1185C47.1137 21.0797 47.122 21.0387 47.1253 21L50 21.6834C50 21.7221 50 21.7608 49.9885 21.8018C49.9473 22.1868 49.9077 22.5763 49.8731 22.9658C49.8731 22.9772 49.8731 22.9886 49.8731 23L47 22.3166C47 22.3052 47 22.2938 47 22.2825C47.033 21.8929 47.0692 21.5057 47.1137 21.1185Z" fill="#4599DD"/>
<path d="M47.0103 23L50 23.8264L49.9897 24L47 23.1736L47.0103 23Z" fill="#4599DD"/>
<path d="M49.9085 23.8898C49.9085 23.9265 49.9085 23.9633 49.9002 24L47 23.3111C47 23.2744 47 23.2377 47.0083 23.2009C47.0333 22.8289 47.0615 22.4569 47.0931 22.0873C47.0931 22.0574 47.0931 22.0299 47.1014 22L50 22.6889C50 22.7187 50 22.7463 50 22.7761C49.9618 23.1458 49.9335 23.5155 49.9085 23.8898Z" fill="#4599DD"/>
<path d="M49.9744 31.3162C49.9829 31.5513 49.9898 31.7821 50 32L47.0256 30.7222C47.0153 30.5 47.0085 30.2735 47 30.0342V30L49.9744 31.2607V31.3162Z" fill="#4599DD"/>
<path d="M50 30.8767L49.2674 32L46 31.1204L46.7326 30L50 30.8767Z" fill="#4599DD"/>
<path d="M51 23.7167L49.8012 25L46 24.2833L47.1988 23L51 23.7167Z" fill="#4599DD"/>
<path d="M48.8606 31.5795L49 35L47.3089 34.6574L46.1394 34.4205L46 31L48.8606 31.5795Z" fill="#4599DD"/>
<path d="M51.1137 38.6083C51.1557 38.6685 51.196 38.7269 51.238 38.7815C51.28 38.8362 51.2905 38.8531 51.3185 38.887C51.3465 38.9209 51.4042 38.9906 51.4479 39.0414L51.5267 39.1318C51.5757 39.1827 51.6229 39.2298 51.6719 39.2768C51.7209 39.3239 51.7192 39.3258 51.7437 39.3465C51.8119 39.4087 51.8819 39.467 51.9519 39.5217L51.9676 39.533C52.0414 39.5895 52.1179 39.6417 52.1969 39.6893L52.2721 39.7307C52.3263 39.7608 52.3806 39.791 52.4366 39.8154C52.4926 39.8399 52.4978 39.8437 52.5276 39.855C52.5573 39.8663 52.6308 39.8964 52.6833 39.9153L52.7813 39.9454C52.8326 39.9605 52.8851 39.9736 52.9388 39.9849L53 40L49.9484 39.435C48.6973 39.2072 47.6737 37.9284 47 35.6497L48.804 35.9793L49.7489 35C49.7857 35.177 49.8241 35.3484 49.8644 35.516L49.9064 35.6761C49.9344 35.7891 49.9624 35.8983 49.9921 36.0075L50.0446 36.1846C50.0726 36.2825 50.1024 36.3729 50.1321 36.4727C50.1496 36.5311 50.1689 36.5895 50.1881 36.6478L50.2826 36.9153L50.3403 37.0753C50.3753 37.1676 50.4121 37.2637 50.4488 37.3427L50.5013 37.4727C50.5556 37.5951 50.6098 37.7137 50.6658 37.8267V37.8399C50.7253 37.9586 50.7848 38.0716 50.8408 38.1789C50.86 38.2147 50.881 38.2467 50.9003 38.2806C50.9423 38.3522 50.986 38.4237 51.0297 38.4896L51.1137 38.6083Z" fill="#4599DD"/>
<path d="M49.8388 22L47 21.3318L47.0098 21.245C47.0537 20.8575 47.0993 20.4722 47.1498 20.0891C47.1498 20.0601 47.1579 20.029 47.1628 20L50 20.6682C49.9976 20.6982 49.9938 20.7279 49.9886 20.7572C49.9398 21.1403 49.8931 21.5256 49.8486 21.9131L49.8388 22Z" fill="#4599DD"/>
<path d="M50.9803 15.7692C50.8975 16.0806 50.8148 16.3966 50.736 16.7173L50.6887 16.9078C50.6079 17.2401 50.5291 17.5794 50.4542 17.9187L50.4365 18L47 17.3029L47.0177 17.2192C47.0926 16.8799 47.1714 16.543 47.2522 16.2084L47.2995 16.0178C47.3783 15.6971 47.4611 15.3811 47.5458 15.0697L47.5635 15L51 15.6971C50.9941 15.725 50.9882 15.7459 50.9803 15.7692Z" fill="#4599DD"/>
<path d="M50.954 17.7542L50.8475 18.1596L50.7786 18.43C50.7452 18.5651 50.7138 18.7023 50.6804 18.8374C50.6679 18.8923 50.6533 18.9452 50.6407 19L47 18.4123L47.0376 18.2498C47.071 18.1146 47.1023 17.9794 47.1358 17.8443L47.2047 17.572L47.3112 17.1685C47.3258 17.1117 47.3426 17.0548 47.3572 17L51 17.5877C50.9854 17.6425 50.9708 17.6993 50.954 17.7542Z" fill="#4599DD"/>
<path d="M55.2859 7L52 6.17465C52.0226 6.13239 52.0471 6.09577 52.0697 6.05352C52.1488 5.91549 52.2299 5.77183 52.3128 5.64225C52.3504 5.57746 52.39 5.51268 52.4296 5.4507C52.5024 5.33239 52.5759 5.2169 52.65 5.10423L52.7216 5L56 5.82535L55.9322 5.93239L55.7117 6.27606L55.593 6.46761C55.512 6.60282 55.4329 6.7493 55.3519 6.88169L55.2859 7Z" fill="#4599DD"/>
<path d="M51 19.639L50.9871 19.7114C50.9014 20.1076 50.8221 20.5037 50.7471 20.9063C50.7471 20.9233 50.7471 20.9425 50.7363 20.9617C50.7373 20.9744 50.7373 20.9872 50.7363 21L47 20.361C47 20.3291 47.0107 20.2993 47.0171 20.2673C47.0915 19.8669 47.1708 19.4693 47.2551 19.0745C47.2551 19.049 47.268 19.0256 47.2722 19L51 19.639Z" fill="#4599DD"/>
<path d="M52.9421 8.61098C52.886 8.71108 52.8298 8.81291 52.7667 8.91474L52.6755 9.08733C52.6141 9.20469 52.5527 9.32378 52.5001 9.44287L52.4334 9.57232C52.3527 9.73628 52.2738 9.90197 52.1948 10.0694L52.1457 10.1798C52.0843 10.3127 52.0247 10.4474 51.9703 10.5837L51.8914 10.7649C51.8422 10.8806 51.7931 10.9962 51.7458 11.1101C51.7177 11.1757 51.6914 11.2413 51.6651 11.3086C51.6177 11.426 51.5721 11.545 51.5265 11.6641L51.4528 11.8574C51.4019 11.9938 51.3511 12.1319 51.3019 12.2699C51.2844 12.3183 51.2669 12.3649 51.2511 12.4132C51.1844 12.5996 51.1213 12.7894 51.0599 12.9793V13L48.0006 12.4822C47.9998 12.4753 47.9998 12.4684 48.0006 12.4615C48.062 12.2717 48.1251 12.0835 48.1918 11.8954L48.2409 11.7556C48.2918 11.6158 48.3409 11.4777 48.3935 11.3397L48.4672 11.1464C48.5128 11.0273 48.5584 10.9082 48.6058 10.7908C48.6321 10.7252 48.6584 10.6579 48.6865 10.5923C48.7338 10.475 48.7829 10.3576 48.8321 10.2472L48.911 10.0659C48.9706 9.92958 49.0303 9.79496 49.0864 9.66034C49.1039 9.62409 49.1197 9.58785 49.1355 9.55333C49.2145 9.38074 49.2934 9.2185 49.3741 9.05454L49.439 8.92682C49.501 8.80601 49.5624 8.68692 49.6232 8.56955C49.653 8.5126 49.6828 8.45737 49.7144 8.39696C49.7688 8.29341 49.8249 8.19158 49.8898 8.09147C49.9074 8.06041 49.9249 8.03107 49.9407 8L53 8.51778L52.9421 8.61098Z" fill="#4599DD"/>
<path d="M55.4535 6L52 4.81657L52.0554 4.72584L52.2436 4.42998L52.3347 4.29586L52.497 4.06706L52.5485 4L56 5.16371L55.9208 5.27416C55.8871 5.31755 55.8554 5.36884 55.8218 5.41617L55.7525 5.51479C55.6911 5.60552 55.6277 5.70414 55.5663 5.80276L55.4792 5.94083L55.4535 6Z" fill="#4599DD"/>
<path d="M52.3338 4.29112L52.4978 4.02268L52.5137 4L56 5.13422C55.946 5.21361 55.8941 5.30435 55.8381 5.39509L55.7601 5.52363L55.7381 5.55766L55.6542 5.70888C55.6002 5.79962 55.5442 5.89792 55.4883 6L52 4.88469C52.0866 4.72842 52.1706 4.58097 52.2519 4.44234L52.3338 4.29112Z" fill="#4599DD"/>
<path d="M53.2834 4.26398C53.3317 4.19687 53.3819 4.1387 53.4302 4.08054L53.4965 4L57 5.34228L56.9678 5.38255L56.8774 5.48993L56.8171 5.566L56.7809 5.61521L56.6784 5.75391C56.6442 5.79866 56.608 5.84787 56.5739 5.90157L56.5236 5.97315L56.5035 6L53 4.68009L53.0442 4.6085L53.1869 4.40716L53.2834 4.26398Z" fill="#4599DD"/>
<path d="M50.1625 7L54 7.5277L53.9472 7.58927C53.9009 7.6438 53.8525 7.69833 53.8063 7.75462L53.6389 7.95515L53.5002 8.13105L53.3417 8.32102C53.2955 8.38083 53.2492 8.44063 53.2052 8.49692L53.0467 8.71152C53.0004 8.77309 52.9564 8.83465 52.9124 8.89622L52.8397 9L49 8.4723L49.0727 8.37027C49.1167 8.30871 49.1607 8.24538 49.207 8.18382L49.3655 7.97098C49.4095 7.90941 49.4557 7.8496 49.502 7.79507C49.5482 7.74055 49.6099 7.65611 49.6649 7.58751L49.8036 7.41161L49.9709 7.21108L50.1118 7.04573L50.1625 7Z" fill="#4599DD"/>
<path d="M55.9852 5.72706C55.867 5.90588 55.7506 6.09176 55.6342 6.28235L55.5473 6.43059C55.4568 6.58353 55.3626 6.74118 55.2776 6.90118C55.2591 6.93412 55.2388 6.96471 55.2203 7L52 6.29412L52.0554 6.19529C52.1441 6.03529 52.2402 5.87765 52.3252 5.72471C52.3547 5.67765 52.3824 5.62824 52.412 5.57882C52.5284 5.38824 52.6448 5.20235 52.763 5.02353L52.7778 5L56 5.69412L55.9852 5.72706Z" fill="#4599DD"/>
<path d="M55.2675 4.05352C55.3206 4.0338 55.3737 4.01408 55.4267 4H55.441L59 4.84507H58.9877L58.9285 4.86479L58.8448 4.89577H58.8285L58.7774 4.91549L58.7019 4.9493L58.6141 4.98592L58.5855 5H58.561L55 4.15493C55.0735 4.12113 55.145 4.08732 55.2164 4.05915L55.2675 4.05352Z" fill="#4599DD"/>
<path d="M57.5355 5L54 4.25187L54.0203 4.2394L54.1623 4.15461L54.2454 4.10723L54.4118 4.02494L54.4625 4L58 4.74813L57.9067 4.79302L57.8276 4.83292L57.783 4.85536L57.7018 4.90274L57.6308 4.94514L57.5842 4.97257L57.5355 5Z" fill="#4599DD"/>
<path d="M55.2762 4.03165L55.401 4.01582H55.4399L59 4.94937H58.9284H58.8895L58.7136 4.97785L58.6399 5H58.6256H58.5662L55 4.05063L55.0573 4.03481L55.1964 4L55.2762 4.03165Z" fill="#4599DD"/>
<path d="M53.3652 31L57 32.2876C56.9833 32.3219 56.9666 32.3648 56.9478 32.3991C56.8498 32.5966 56.7517 32.7768 56.6536 32.9442L56.6244 33L53.0167 31.7382L53 31.6824C53.0981 31.5064 53.2087 31.3219 53.3005 31.1202L53.3652 31Z" fill="#4599DD"/>
<path d="M53.2036 32.4306C53.1294 32.2927 53.0614 32.1489 53 32L56 32.6871C55.9635 32.7294 55.9269 32.7671 55.8904 32.8047C55.8538 32.8424 55.819 32.88 55.7825 32.9129C55.7524 32.9443 55.721 32.9734 55.6885 33L53.2036 32.4306Z" fill="#4599DD"/>
<path d="M54 32L57 32.7118L56.9013 32.8059L56.8004 32.8912L56.7689 32.9147L56.7017 32.9647L56.6513 33L54.2458 32.4294C54.1568 32.2945 54.0747 32.151 54 32Z" fill="#4599DD"/>
<path d="M54.3132 30L58 31.3129L57.9407 31.4617L57.8984 31.5624C57.8286 31.7243 57.7608 31.8731 57.6868 32L54 30.6871C54.0698 30.5427 54.1376 30.3895 54.2116 30.2495C54.2265 30.2188 54.2392 30.1838 54.254 30.1488L54.3132 30Z" fill="#4599DD"/>
<path d="M54 32L56 32.7405L55.9528 32.7977L55.8707 32.8817L55.8376 32.9122L55.7834 32.958L55.7275 33L54.2079 32.4389C54.1343 32.3026 54.0649 32.156 54 32H54Z" fill="#4599DD"/>
<path d="M55.2905 30.4795C55.3288 30.386 55.3691 30.2895 55.4075 30.1871L55.4841 30L59 30.8626L58.9254 31.0526L58.8084 31.345C58.766 31.4444 58.7257 31.538 58.6833 31.6374C58.6409 31.7368 58.6026 31.8187 58.5623 31.9035L58.5159 32L55 31.1374L55.0444 31.0409L55.1654 30.7719L55.2905 30.4795Z" fill="#4599DD"/>
<path d="M58.7291 30L55 29.4547L55.0578 29.3604L55.122 29.2569C55.1861 29.1553 55.246 29.0518 55.3059 28.9464L55.3402 28.8872C55.4115 28.764 55.4828 28.6365 55.5541 28.5046C55.5734 28.4695 55.5905 28.4362 55.6076 28.4011L55.7039 28.207L57.1502 27L60 27.4177L59.9529 27.5471C59.9358 27.5896 59.9208 27.6322 59.9037 27.6747C59.8524 27.8059 59.7989 27.9372 59.7454 28.0647L59.7283 28.1072C59.6684 28.2477 59.6063 28.3863 59.5443 28.5231L59.4908 28.634C59.4416 28.7412 59.3902 28.8447 59.3389 28.9482C59.3218 28.9815 59.3047 29.0166 59.2854 29.0518C59.2191 29.1811 59.1506 29.3105 59.0715 29.4344L59.0372 29.4935C58.9773 29.5989 58.9174 29.7024 58.8532 29.8041C58.834 29.8373 58.8126 29.8725 58.789 29.9057C58.7655 29.939 58.7484 29.9686 58.7291 30Z" fill="#4599DD"/>
<path d="M57.6386 32L54 30.8571C54.0606 30.7238 54.1232 30.5829 54.1838 30.4381C54.188 30.4288 54.1915 30.4186 54.1943 30.4076C54.2507 30.2743 54.305 30.141 54.3593 30L58 31.1238C57.9457 31.261 57.8935 31.4019 57.8392 31.5352L57.8266 31.5619C57.764 31.7067 57.7013 31.8438 57.6386 32Z" fill="#4599DD"/>
<path d="M54.2851 33.4785C54.1859 33.3328 54.0907 33.173 54 33L56 33.7903C55.9563 33.828 55.9103 33.8763 55.8667 33.9032H55.8414L55.7379 33.9624L55.6621 34L54.2851 33.4785Z" fill="#4599DD"/>
<path d="M58 24L60 24.4655C59.9795 24.6419 59.9571 24.821 59.9328 25L58.0205 24.555L58 24Z" fill="#4599DD"/>
<path d="M59.4115 24.0951L63 25L60.214 24.816L58.0082 24.2577L58 24L59.4115 24.0951Z" fill="#4599DD"/>
<path d="M59.9981 25.562C59.9494 25.9913 59.8933 26.4136 59.8371 26.8394L59.8146 27L58 26.4276L58.2678 25.9424L58.2434 25L60 25.555C60 25.555 60 25.562 59.9981 25.562Z" fill="#4599DD"/>
<path d="M60 24.6654C60 24.7036 60 24.738 59.9902 24.7763C59.9512 25.1855 59.9102 25.5908 59.8654 26L58.0351 25.392L58 24L60 24.6654Z" fill="#4599DD"/>
<path d="M58.0581 26L60 26.4469C59.988 26.5068 59.976 26.5668 59.9659 26.6267C59.9379 26.7629 59.9118 26.8992 59.8838 27.0354C59.8557 27.1717 59.8337 27.2725 59.8076 27.3896C59.7816 27.5068 59.7475 27.6621 59.7174 27.7929L59.6693 28L57 27.3842L58.0581 26Z" fill="#4599DD"/>
<path d="M58 22.365L53.1007 27C53.0663 26.6806 53.0473 26.3089 53.0284 25.9338C53.0077 25.5231 52.9905 25.1497 53.006 24.7036L55.8536 22L58 22.365Z" fill="#4599DD"/>
<path d="M57 16.5298L52 21C52.2846 19.2826 52.818 17.6086 53.5859 16.0233L53.613 16L57 16.5298Z" fill="#4599DD"/>
<path d="M58.7352 11.2776C58.75 11.3099 58.7648 11.3422 58.778 11.3768L58.8076 11.4458L58.8487 11.5536L58.875 11.6226L58.9194 11.7455L58.9391 11.8081C58.9605 11.8706 58.9803 11.9353 59 12L56.1316 11.353C56.0905 11.2129 56.0461 11.0791 56 10.9519C56.0378 10.9002 56.0757 10.8462 56.1151 10.7966C56.6266 10.1497 57.1266 9.91892 57.5773 10.0246L57.6497 10.0462H57.6809C57.7154 10.0583 57.7495 10.0727 57.7829 10.0893H57.7928L57.8832 10.1389L57.9161 10.1605L57.9803 10.2057L58.0181 10.2359L58.0773 10.2834L58.1151 10.3179L58.1711 10.374C58.1838 10.3857 58.1959 10.3987 58.2072 10.4128L58.2648 10.4753C58.2766 10.4878 58.2875 10.5015 58.2977 10.5163C58.3192 10.5405 58.3395 10.5664 58.3586 10.5939L58.3849 10.6306C58.4145 10.6694 58.4424 10.7104 58.4704 10.7535C58.4951 10.7945 58.5214 10.8355 58.5461 10.8807C58.5557 10.8957 58.5645 10.9115 58.5724 10.9282C58.5905 10.9605 58.6086 10.9907 58.625 11.0252L58.6546 11.0835C58.6694 11.1158 58.6859 11.146 58.7007 11.1805L58.7352 11.2776Z" fill="#4599DD"/>
<path d="M52.3877 26.1504C52.4115 26.5962 52.4354 27.0379 52.4788 27.4174L58.6471 21.9095L58.7317 23.54V23.7086L58.7556 24.1444L58.7946 24.8753L58.8228 25.4175L58.5127 25.6966L57.3675 26.7166L55.9013 28.0279L53.2054 30.4375C53.3186 30.7175 53.4526 30.9899 53.6066 31.2527L53.624 31.2788C53.7005 31.4059 53.7852 31.5287 53.8777 31.6463C53.9548 31.7494 54.0396 31.8474 54.1315 31.9395C54.212 32.0215 54.2983 32.0987 54.3896 32.1704C54.4752 32.235 54.565 32.2947 54.6585 32.3491C54.7497 32.399 54.8446 32.4426 54.9427 32.4796C55.061 32.5217 55.1839 32.5519 55.3092 32.57C55.3526 32.57 55.396 32.582 55.4393 32.584H55.589C55.6615 32.5835 55.734 32.5788 55.8059 32.57C55.8423 32.5666 55.8785 32.5612 55.9143 32.5539C55.9512 32.5539 55.9881 32.5419 56.0271 32.5318L56.1247 32.5097H56.1486C56.2149 32.4919 56.2801 32.4705 56.3438 32.4455L56.411 32.4214L56.4522 32.4053L56.5542 32.3612L56.6648 32.3069L56.7342 32.2728L56.7667 32.2567L56.8708 32.1985C56.9055 32.1784 56.9381 32.1583 56.9728 32.1342C57.0133 32.1116 57.0524 32.0868 57.0899 32.06C57.1354 32.0318 57.1788 32.0017 57.2243 31.9676C57.2699 31.9334 57.3219 31.8993 57.3697 31.8632L57.4 31.8371C57.502 31.7588 57.6039 31.6744 57.7058 31.582C57.7254 31.566 57.7427 31.5459 57.7601 31.5298C57.8338 31.4636 57.9032 31.3953 57.977 31.329L58.0203 31.2829L58.0811 31.2146C58.1461 31.1423 58.2112 31.07 58.2763 30.9917L58.2893 30.9776C58.3457 30.9074 58.3999 30.8331 58.4563 30.7608L58.5062 30.6945C58.5495 30.6363 58.5929 30.574 58.6363 30.5118C58.6797 30.4495 58.7252 30.3833 58.7708 30.311L58.8966 30.1102L58.9768 29.9797C58.9963 29.9455 59.018 29.9134 59.0375 29.8772C59.0571 29.8411 59.0831 29.8029 59.1026 29.7668C59.1677 29.6564 59.2284 29.5439 59.2891 29.4295L59.3238 29.3652C59.3954 29.2307 59.4648 29.0901 59.5407 28.9495C59.5603 28.9114 59.5776 28.8732 59.595 28.8371C59.647 28.7246 59.6991 28.6122 59.7489 28.4957L59.8032 28.3753C59.8661 28.2267 59.929 28.0761 59.9897 27.9235L60.007 27.8773C60.0613 27.7387 60.1155 27.5961 60.1675 27.4536C60.1849 27.4074 60.2001 27.3612 60.2174 27.315L60.2651 27.1745L60.3172 27.0219C60.3497 26.9235 60.3844 26.8211 60.4148 26.7247C60.4452 26.6283 60.469 26.552 60.4972 26.4636C60.5254 26.3753 60.5558 26.2628 60.5861 26.1624C60.597 26.1182 60.61 26.0741 60.623 26.0299L60.649 25.9375C60.7141 25.6925 60.7792 25.4496 60.8356 25.2026C60.8855 24.9877 60.931 24.7749 60.9744 24.56C60.9744 24.54 60.9744 24.5219 60.9852 24.5018C61.0134 24.3612 61.0394 24.2207 61.0633 24.0821L64 24.2026C63.1173 28.8532 61.3583 34.1925 58.0117 37.1824C56.411 38.6121 54.9015 39.1904 53.5914 38.9454C53.5249 38.9334 53.4599 38.9193 53.3962 38.9033L53.2748 38.8711C53.2097 38.851 53.1446 38.831 53.0817 38.8069C53.0188 38.7828 53.0058 38.7808 52.969 38.7647C52.9321 38.7486 52.8323 38.7065 52.7651 38.6743L52.6718 38.6302C52.5739 38.5794 52.4791 38.5238 52.3877 38.4635L52.3682 38.4515C52.2814 38.3932 52.1947 38.331 52.1101 38.2647C52.0797 38.2426 52.0515 38.2165 52.0211 38.1904C51.9908 38.1643 51.9019 38.09 51.8411 38.0358L51.7435 37.9394C51.6893 37.8852 51.6351 37.831 51.583 37.7747C51.531 37.7185 51.5158 37.7005 51.4833 37.6623C51.4507 37.6241 51.3813 37.5418 51.3293 37.4776L51.2382 37.3591C51.184 37.2888 51.1297 37.2125 51.0777 37.1362C51.0538 37.1001 51.0278 37.0659 51.0039 37.0278C50.928 36.9133 50.8543 36.7928 50.787 36.6663V36.6523C50.7176 36.5318 50.6504 36.4053 50.5832 36.2748L50.5181 36.1362C50.4725 36.0438 50.427 35.9495 50.3836 35.8511L50.3121 35.6804L50.1949 35.3953C50.1711 35.333 50.1472 35.2708 50.1255 35.2085C50.0887 35.1081 50.0518 35.0077 50.0171 34.9013L49.952 34.7125C49.9151 34.5961 49.8804 34.4796 49.8457 34.3591L49.7937 34.1884C49.7438 34.0097 49.6961 33.827 49.6505 33.6382L48.4793 34.6824L48.295 31.1744L49.143 30.4154C49.13 30.313 49.1213 30.2045 49.1105 30.0941V30.076V30.0098C49.1105 29.8993 49.0953 29.7849 49.0888 29.6704C49.0888 29.6303 49.0888 29.5901 49.0888 29.5499C49.0888 29.4174 49.0736 29.2829 49.0671 29.1483L49.0476 28.7789C49.0476 28.7407 49.0476 28.7026 49.0476 28.6644C49.0476 28.5801 49.0476 28.4937 49.0367 28.4094C49.0367 28.3973 49.0367 28.3873 49.0367 28.3753V28.1865C49.0367 28.1463 49.0367 28.1062 49.0367 28.066C49.0367 27.9496 49.0367 27.8311 49.0367 27.7066L48.4034 28.2728L48.1865 28.4736L48 24.9636L49.1929 23.8994L49.2059 23.7729C49.2059 23.7408 49.2059 23.7086 49.2168 23.6765C49.2493 23.3492 49.2862 23.0259 49.3274 22.7026C49.3274 22.6765 49.3274 22.6524 49.3274 22.6263C49.3274 22.6002 49.3274 22.6062 49.3274 22.5962C49.3729 22.2528 49.425 21.9095 49.4792 21.5701C49.4792 21.534 49.49 21.4998 49.4944 21.4657L49.5074 21.3874C49.5667 21.038 49.6288 20.6906 49.6939 20.3452C49.7009 20.3188 49.706 20.292 49.7091 20.2649C49.7101 20.2529 49.7101 20.2408 49.7091 20.2288C49.7091 20.2107 49.7091 20.1926 49.7199 20.1765C49.7959 19.797 49.8761 19.4235 49.9629 19.0501C49.9802 18.9717 49.9997 18.8934 50.0171 18.8151C50.0518 18.6766 50.0843 18.536 50.119 18.3974L50.1906 18.1203L50.3012 17.7047C50.3186 17.6485 50.3337 17.5902 50.3489 17.532L50.3684 17.4617C50.4509 17.1685 50.5376 16.8754 50.6265 16.5882L50.6786 16.4236C50.7654 16.1465 50.8564 15.8734 50.9475 15.6043C50.9475 15.5842 50.9627 15.5641 50.9692 15.5441V15.52C51.0451 15.2991 51.1232 15.0782 51.2056 14.8613C51.2252 14.8051 51.2468 14.7509 51.2685 14.6947C51.3293 14.534 51.3922 14.3734 51.4551 14.2148L51.5462 13.9899C51.6025 13.8513 51.6589 13.7128 51.7175 13.5762C51.75 13.4979 51.7826 13.4216 51.8173 13.3453C51.8758 13.2067 51.9366 13.0722 51.9973 12.9437L52.0949 12.7328C52.1686 12.5742 52.2424 12.4176 52.3118 12.263L52.3725 12.1345C52.4701 11.9337 52.5677 11.7469 52.6675 11.5562L52.7499 11.4056C52.8236 11.267 52.8996 11.1284 52.9668 10.9919L53.0796 10.7911C53.1468 10.6726 53.2162 10.5542 53.2965 10.4377L53.3594 10.3313L53.4309 10.2128C53.4743 10.1425 53.5177 10.0722 53.5632 10.002L53.7194 9.75698C53.7628 9.6887 53.8083 9.62043 53.8539 9.55618L54.0144 9.31923L54.151 9.11843L54.3158 8.88952C54.3614 8.82526 54.4091 8.76301 54.4547 8.70076C54.5002 8.63852 54.5327 8.59635 54.5739 8.54615C54.6781 8.4096 54.7908 8.27507 54.8906 8.14454L54.9925 8.01804C55.1292 7.85539 55.2658 7.69676 55.4046 7.54415L55.5022 7.43773C55.5955 7.33732 55.6866 7.23692 55.7799 7.14255L55.9165 7.006L56.1703 6.76103L56.4045 6.54416C56.4652 6.48994 56.526 6.43774 56.5845 6.38954C56.6431 6.34135 56.6604 6.32328 56.6995 6.29115L56.7841 6.22288C56.8448 6.17469 56.9012 6.12649 56.9597 6.08433L56.9879 6.06224L57.0834 5.99196C57.1506 5.94176 57.22 5.89156 57.2872 5.84537L57.3632 5.79517L57.4716 5.72288L57.5584 5.66666L57.58 5.65461L57.6343 5.62248L57.7471 5.55622L57.8577 5.49397L57.8967 5.47188L57.9618 5.43775L58.0247 5.40763L58.0594 5.38955L58.0941 5.37148L58.1548 5.34337L58.1852 5.30923L58.2524 5.28112L58.3869 5.2249L58.4715 5.19277L58.5712 5.15662H58.6016L58.632 5.14658L58.7252 5.12048L58.8055 5.09638L58.8771 5.08032L58.966 5.05823L59.1048 5.03213H59.12L59.198 5.01807L59.3846 5H59.4258H59.7034L59.8682 5.01004H59.9333L60.0266 5.02209C61.3951 5.23695 62.4124 6.49798 63.1476 8.09033L60.4907 13.2529C60.4647 13.1927 60.4387 13.1324 60.4105 13.0742L60.3844 13.016L60.3259 12.9015L60.2912 12.8373L60.237 12.7369L60.1979 12.6726C60.1806 12.6405 60.161 12.6104 60.1415 12.5802L60.1025 12.52C60.083 12.4879 60.0613 12.4598 60.0418 12.4296L60.0027 12.3754C59.981 12.3433 59.9572 12.3152 59.9333 12.2851C59.923 12.2695 59.9114 12.2548 59.8986 12.2409C59.8661 12.1987 59.8314 12.1606 59.7988 12.1224C59.762 12.0823 59.7251 12.0441 59.6861 12.008L59.6513 11.9738C59.6262 11.9482 59.5994 11.9241 59.5711 11.9015C59.5577 11.8878 59.5432 11.8751 59.5277 11.8634L59.4518 11.8051C59.4369 11.792 59.4209 11.7799 59.4041 11.769L59.3304 11.7168L59.2805 11.6847L59.2024 11.6405L59.1525 11.6124L59.0679 11.5702L59.0245 11.5501L58.9052 11.5039H58.8922C58.8482 11.4885 58.8033 11.4751 58.7578 11.4638H58.7166L58.6211 11.4437C58.0268 11.3453 57.3675 11.5582 56.693 12.1626C56.6409 12.2088 56.591 12.259 56.5411 12.3072C55.6987 13.1368 55.0086 14.0885 54.498 15.1244C53.6368 16.8965 53.0378 18.7681 52.7174 20.6886L58.311 15.6906L58.4975 19.2007L55.9382 21.4838L52.353 24.6966C52.34 25.2187 52.3617 25.6624 52.3877 26.1504Z" fill="#52AAFF"/>
<path d="M62.9754 25L59.3987 24.2625L58 24.1875L58.0082 24L59.4151 24.0775L63 24.815L62.9754 25Z" fill="#231F20"/>
<path d="M55.8 33.905C55.59 33.905 55.39 33.905 55.18 33.835L55.27 33.095C55.4519 33.1282 55.6355 33.1515 55.82 33.165L55.8 33.905Z" fill="#231F20"/>
<path d="M55.52 33.865L55.38 33.125H55.62V33.875L55.52 33.865Z" fill="#231F20"/>
<path d="M55.7951 33.9621H55.7778L55 33.5606L55.0296 33L55.8074 33.4015C55.8568 33.4015 55.9185 33.4015 55.9802 33.4015L56 33.9621C55.9333 33.9621 55.8691 33.9621 55.8049 34L55.7951 33.9621Z" fill="#231F20"/>
<path d="M55.525 33.8531L55.325 33.1331C55.4014 33.1248 55.4786 33.1248 55.555 33.1331L55.675 33.8731L55.525 33.8531Z" fill="#231F20"/>
<path d="M56.295 33.96L56.095 33.24C56.218 33.2056 56.3384 33.1621 56.455 33.11L56.645 33.04L56.905 33.74L56.735 33.81C56.5926 33.8719 56.4455 33.922 56.295 33.96Z" fill="#231F20"/>
<path d="M55.8721 34L54 33.4253L54.0374 33L55.869 33.5747L55.9563 33.5402L56 33.9655L55.9064 34H55.8721Z" fill="#231F20"/>
<path d="M55.9066 33L54 32.3333L54.0261 32L55.8958 32.6577L55.9435 32.6216L56 32.9369L55.9262 32.991L55.9066 33Z" fill="#231F20"/>
<path d="M56.475 32.97L56.055 32.35L56.525 32.03L56.945 32.65L56.475 32.97Z" fill="#231F20"/>
<path d="M55.9119 33L53 32.2741L53.0302 32L55.8817 32.7111L55.9144 32.6889L56 32.937L55.9119 33Z" fill="#231F20"/>
<path d="M53.587 32.047L53.5872 32.0462L56.5225 32.5452L56.5224 32.546L53.587 32.047Z" fill="#231F20"/>
<path d="M56.2471 33L56 32.6L56.2706 32.3806L56.3529 32.3097C56.4765 32.2129 56.5941 32.1097 56.7176 32L57 32.3613C56.8765 32.4839 56.7471 32.5871 56.6235 32.6968L56.5412 32.7677C56.4412 32.8452 56.3471 32.929 56.2471 33Z" fill="#231F20"/>
<path d="M55.9777 33L55.9554 32.976L53 32.1973L53.0206 32L55.976 32.7787L55.9691 32.8533L56 32.9627L55.9777 33Z" fill="#231F20"/>
<path d="M53.1711 32H53.1272V31.8532L53 31.7156H53.0219C53.2281 31.5275 53.4605 31.3349 53.6491 31.1193C53.6893 31.0818 53.7274 31.042 53.7632 31L54 31.2477L53.8728 31.3716C53.6667 31.5826 53.4342 31.7844 53.2412 31.9725L53.1711 32Z" fill="#231F20"/>
<path d="M56.9738 32L54 30.8062L54.0836 30.6047C54.1377 30.4806 54.1885 30.3488 54.2475 30.2171C54.255 30.2009 54.2616 30.1827 54.2672 30.1628L54.2803 30.1279C54.2967 30.0853 54.3131 30.0465 54.3279 30L54.423 30.186L54.3721 30.3217L54.3623 30.3488L54.3377 30.4186L54.259 30.6202L57 31.7209L56.9738 32Z" fill="#231F20"/>
<path d="M56.9884 32L54 30.9414L54.0678 30.769C54.1158 30.6483 54.1655 30.5241 54.2118 30.3931V30.3655C54.2565 30.2483 54.2995 30.1276 54.3409 30L54.4435 30.1517C54.4004 30.2759 54.3591 30.3931 54.3161 30.4966L54.3061 30.5276L54.2234 30.7483L57 31.731L56.9884 32Z" fill="#231F20"/>
<path d="M57.9818 32L55 31.1803L55.0497 31.0492L55.0878 30.9536C55.1193 30.8798 55.1507 30.8005 55.1806 30.7186C55.2104 30.6366 55.2352 30.5792 55.2601 30.5164L55.3031 30.4016C55.3297 30.3279 55.3578 30.2541 55.3827 30.1776L55.4473 30L55.5533 30.1038L55.4903 30.2787C55.4655 30.3552 55.4373 30.4317 55.4108 30.5055L55.3661 30.6257L55.2899 30.8197L55.2071 31.0301L58 31.8087L57.9818 32Z" fill="#231F20"/>
<path d="M57.9801 30L55 29.4106L55.1361 29.112C55.1859 29.0039 55.2324 28.8939 55.2773 28.7839C55.2871 28.7635 55.296 28.7426 55.3038 28.721C55.3586 28.5894 55.4117 28.4538 55.4698 28.3163C55.4848 28.277 55.4981 28.2436 55.5097 28.2063L55.5861 28L55.6989 28.0589L55.6242 28.2554C55.611 28.2927 55.5977 28.3301 55.5827 28.3674C55.5313 28.5069 55.4781 28.6424 55.4167 28.776L55.3885 28.8409C55.342 28.9509 55.2955 29.0609 55.2457 29.1709L55.1909 29.2908L58 29.8527L57.9801 30Z" fill="#231F20"/>
<path d="M56.8893 26.9829L56.8895 26.982L59.6281 27.4481L59.628 27.4489L56.8893 26.9829Z" fill="#231F20"/>
<path d="M57.9834 25.9435L57.9835 25.9427L59.9763 26.2811L59.9761 26.2819L57.9834 25.9435Z" fill="#231F20"/>
<path d="M58.2452 25.0923L58.2453 25.0915L60.1732 25.4192L60.173 25.4201L58.2452 25.0923Z" fill="#231F20"/>
<path d="M58.1873 23.9007L58.1874 23.8998L60.3908 24.2752L60.3907 24.2761L58.1873 23.9007Z" fill="#231F20"/>
<path d="M58.2131 24.3493L58.2133 24.3484L60.3214 24.7076L60.3213 24.7084L58.2131 24.3493Z" fill="#231F20"/>
<path d="M59.9742 12L56.1867 10.8785L56.1695 10.8037C56.1202 10.5794 56.0622 10.3477 56 10.1196L56.1459 10C56.2039 10.2093 56.2554 10.4224 56.3026 10.6318L60 11.7196L59.9742 12Z" fill="#231F20"/>
<path d="M52.1716 6L52 5.80714C52.1419 5.66071 52.2838 5.51786 52.4191 5.38571C52.4587 5.34643 52.4983 5.30714 52.5413 5.27143L52.8284 5L53 5.19643L52.7162 5.45714L52.5842 5.58214L52.1716 6Z" fill="#231F20"/>
<path d="M56.5146 6L56 5.49057L56.4272 5.11321L56.5534 5L57 5.56604L56.6699 5.36792L56.9223 5.63208L56.5146 6Z" fill="#231F20"/>
<path d="M55.9707 6L53 4.91161L53.1075 4.73137L53.1498 4.65511L53.3127 4.38821L53.3355 4.35355L53.3876 4.27383C53.4202 4.21837 53.4528 4.17331 53.4853 4.12478L53.5358 4.04853C53.5472 4.03035 53.5591 4.01413 53.5717 4L53.6303 4.22877L53.6059 4.26343L53.5554 4.33622L53.4609 4.47834L53.4055 4.56499L53.386 4.59619L53.2932 4.75217L56 5.72964L55.9707 6Z" fill="#231F20"/>
<path d="M56.48 4.99L56.04 4.37L56.23 4.24L56.56 4.01L56.96 4.64L56.68 4.84L56.48 4.99Z" fill="#231F20"/>
<path d="M55.9805 6L53 4.79764L53.1546 4.52652L53.2733 4.34971L53.3547 4.23183C53.3856 4.18468 53.4214 4.14145 53.4555 4.0943L53.5271 4L53.5857 4.25933L53.5125 4.35363C53.4799 4.39686 53.4474 4.44008 53.4165 4.48723L53.3351 4.60118L53.3172 4.62868L56 5.72495L55.9805 6Z" fill="#231F20"/>
<path d="M57.46 4.955L57.1 4.295L57.38 4.155L57.56 4.045L57.9 4.725L57.77 4.795L57.46 4.955Z" fill="#231F20"/>
<path d="M56.475 4.98L56.035 4.36C56.215 4.24 56.405 4.12 56.585 4.02L56.965 4.66C56.845 4.76 56.635 4.86 56.475 4.98Z" fill="#231F20"/>
<path d="M57.9727 6L54 4.63113L54.3022 4.42644L54.4617 4.26866L54.5205 4.21322L54.5477 4.18763C54.6107 4.1322 54.6674 4.08529 54.7261 4.04264L54.7786 4L54.8332 4.29851L54.7807 4.34115L54.6128 4.47761L54.5876 4.5032L58 5.68017L57.9727 6Z" fill="#231F20"/>
<path d="M57.355 4.98L57.035 4.3L57.435 4.11L57.665 4.02L57.965 4.7L57.725 4.8L57.355 4.98Z" fill="#231F20"/>
<path d="M57.9599 5L55.0367 4.30716V4.21478L55 4.15935L55.0251 4.13626L55.0501 4.12471L55.2055 4.05774L55.2506 4.04157C55.2906 4.02771 55.3324 4.01155 55.3742 4H55.3875L55.4343 4.15935L55.4126 4.1709L55.314 4.20323L57.9482 4.81986H57.9633L57.985 4.94226L58 4.96536H57.9916V4.97691L57.9599 5Z" fill="#231F20"/>
<path d="M58.43 4.87L58.29 4.13H58.41H58.58H58.71V4.87H58.6H58.43Z" fill="#231F20"/>
<path d="M58.62 4.865L58.27 4.185L58.44 4.135H58.65L58.73 4.865H58.62Z" fill="#231F20"/>
<path d="M58.9291 4.97722L55 4.1443L55.3789 4.03797H55.4113H55.4559C55.4985 4.03797 55.539 4.01772 55.5795 4.01266H55.6626L55.7882 4H55.8308V4.15443L58.9271 4.81266H58.9716L59 5L58.9291 4.97722Z" fill="#231F20"/>
<path d="M58.425 4.88V4.13V4.51L58.465 4.13L58.575 4.12V4.87L58.425 4.88Z" fill="#231F20"/>
<path d="M59 5H58.9761L56 4.20054L56.0205 4L58.9966 4.79946L59 5Z" fill="#231F20"/>
<path d="M58.53 4.875L58.35 4.855L58.41 4.485L58.53 4.125L58.65 4.135L58.53 4.875Z" fill="#231F20"/>
<path d="M59.9756 5L56.3805 4.21518C56.3393 4.20723 56.2979 4.20199 56.2564 4.19948H56.1831H56.0244L56 4.00589C56.0622 3.99804 56.1249 3.99804 56.1872 4.00589C56.2135 4.00198 56.2402 4.00198 56.2665 4.00589L56.4008 4.02159L56.4863 4.03467L60 4.80118L59.9756 5Z" fill="#231F20"/>
<path d="M58.575 4.89L58.325 4.85L58.425 4.11L58.675 4.15L58.575 4.89Z" fill="#231F20"/>
<path d="M55.539 21.6158L55.5392 21.6149L58.1012 22.0524L58.101 22.0532L55.539 21.6158Z" fill="#231F20"/>
<path d="M56.9799 17L54.0872 16.2151H54.0855L54.057 16.207L54.0603 16.172L54 16.0699L54.0469 16L57 16.8011L56.9799 17Z" fill="#231F20"/>
<path d="M52.9778 40L49.4597 39.3639C47.9648 39.0988 46.7686 37.606 46 35.0466L46.1452 35C46.8957 37.4979 48.0496 38.9525 49.4839 39.207L52.9314 39.8219H52.9677H53L52.9778 40Z" fill="#231F20"/>
<path d="M46.225 31C46.175 30.7803 46.145 30.5607 46.115 30.3295V30H46.775V30.2948C46.775 30.5202 46.845 30.7341 46.885 30.9538L46.225 31Z" fill="#231F20"/>
<path d="M49.9803 30L47.069 29.4393L47.0197 28.5196L47 28.0112L47.1215 28L47.1839 29.3196L50 29.8617L49.9803 30Z" fill="#231F20"/>
<path d="M48.3451 28.5828L48.3452 28.582L48.9593 28.6872L48.9592 28.688L48.3451 28.5828Z" fill="#231F20"/>
<path d="M49.9744 35L46.1838 34.4217L46 31.0077L46.1603 31L46.3376 34.2988L50 34.8578L49.9744 35Z" fill="#231F20"/>
<path d="M50.0923 32L46 31.1787L47.0315 30L51 30.7947L50.973 30.992L47.0856 30.2133L46.3559 31.0453L50.1194 31.8027L50.0923 32Z" fill="#231F20"/>
<path d="M45.5091 23.3989L45.5092 23.3989L45.51 23.399L45.51 23.399L45.5091 23.3989Z" fill="#231F20"/>
<path d="M49.9815 24L47 23.3392V23.2665C47 23.2291 47 23.1916 47.0084 23.1542C47.0336 22.7996 47.0621 22.4427 47.094 22.0881L47.1023 22L47.2265 22.0264L47.2181 22.1101C47.1862 22.4604 47.1577 22.8172 47.1326 23.1718C47.1326 23.1828 47.1326 23.1916 47.1326 23.2026L50 23.8414L49.9815 24Z" fill="#231F20"/>
<path d="M49.9798 23L47 22.3435V22.2495C47.037 21.8556 47.0773 21.4836 47.1193 21.1116L47.131 21L47.2553 21.0175L47.2436 21.1313C47.2032 21.4902 47.1646 21.8468 47.131 22.2057L50 22.8403L49.9798 23Z" fill="#231F20"/>
<path d="M49.9783 22L47 21.359L47.0151 21.1987C47.0686 20.7714 47.1137 20.4081 47.1589 20.0876L47.1722 20L47.296 20.0342V20.0726C47.2942 20.0886 47.2914 20.1043 47.2876 20.1197C47.2441 20.4359 47.199 20.7885 47.1455 21.2244L50 21.844L49.9783 22Z" fill="#231F20"/>
<path d="M49.9782 21L47 20.3852L47.0084 20.3115C47.0084 20.2848 47.0084 20.2582 47.0201 20.2316C47.0804 19.8217 47.144 19.4426 47.2076 19.0676C47.2076 19.0369 47.2176 19.0184 47.221 19L47.3449 19.0246C47.3449 19.0471 47.3365 19.0697 47.3331 19.0922C47.2662 19.4734 47.2037 19.8579 47.1456 20.2459V20.2582L50 20.8525L49.9782 21Z" fill="#231F20"/>
<path d="M50.84 19.74L50.1 19.6L50.16 19.26L50.9 19.4L50.84 19.74Z" fill="#231F20"/>
<path d="M49.9641 19L47 18.4219L47.1631 17.5613L47.2496 17.1609L47.2692 17.0674L47.2855 17L47.4029 17.0337L47.3883 17.1029C47.3883 17.1328 47.3736 17.1628 47.367 17.1946L47.1387 18.3171L49.8613 18.8466L49.8793 18.7568L50 18.7867L49.9641 19Z" fill="#231F20"/>
<path d="M49.9866 18L47 17.3243L47.0318 17.1554C47.0954 16.8243 47.1624 16.4977 47.231 16.1734L47.2712 15.9865C47.3382 15.6757 47.4085 15.3694 47.4805 15.0676L47.4955 15L47.6161 15.0495L47.601 15.1171C47.529 15.4189 47.4587 15.7252 47.3917 16.0338L47.3516 16.2185C47.2829 16.5405 47.2176 16.8626 47.154 17.1892L50 17.8378L49.9866 18Z" fill="#231F20"/>
<path d="M50.975 13L48 12.4905L48.0167 12.4243C48.0186 12.4125 48.0219 12.4011 48.0267 12.3903C48.0817 12.212 48.1417 12.0268 48.2068 11.8417L48.2885 11.6039C48.3241 11.4998 48.3608 11.3962 48.3986 11.2931L48.4686 11.1029C48.5153 10.9772 48.557 10.8635 48.6003 10.7514L48.617 10.7106L48.677 10.5543C48.7221 10.4406 48.7688 10.3251 48.8155 10.2147L48.8922 10.0346C48.9489 9.90048 49.0056 9.768 49.0589 9.63553L49.0906 9.5642L49.1056 9.53023C49.1807 9.36039 49.2557 9.19905 49.3324 9.0377C49.3558 8.99355 49.3741 8.95279 49.3941 8.91202C49.4525 8.79144 49.5125 8.67425 49.5709 8.55876C49.5992 8.50102 49.6276 8.44667 49.6576 8.38893C49.7093 8.28702 49.7626 8.18682 49.816 8.08832L49.831 8.06284C49.8427 8.04246 49.8527 8.02208 49.8627 8L49.9761 8.05774C49.9644 8.07982 49.9528 8.1019 49.9394 8.12398L49.9261 8.14946C49.8727 8.24796 49.8193 8.34817 49.7676 8.44837L49.6809 8.61821C49.6226 8.7337 49.5642 8.85088 49.5142 8.96977C49.4942 9.01223 49.4725 9.05299 49.4508 9.09545C49.3752 9.2551 49.3002 9.41814 49.2257 9.58458L49.2107 9.61685C49.2007 9.64062 49.1907 9.6661 49.179 9.68988C49.1206 9.82065 49.0639 9.95312 49.0122 10.0873L48.9372 10.2656C48.8922 10.3777 48.8455 10.4932 48.8004 10.6053C48.7788 10.6562 48.7588 10.7089 48.7387 10.7599L48.7237 10.8006C48.6804 10.911 48.6387 11.0248 48.597 11.1403L48.522 11.3424C48.4836 11.446 48.4486 11.5479 48.4119 11.6515L48.3319 11.8876C48.2735 12.0574 48.2185 12.2272 48.1651 12.3971L51 12.8879L50.975 13Z" fill="#231F20"/>
<path d="M51.99 10L49 9.23813L49.1262 8.90591C49.1512 8.84097 49.1761 8.77602 49.2027 8.71107C49.2292 8.64613 49.2791 8.51374 49.3189 8.41632C49.3588 8.3189 49.3904 8.23397 49.4252 8.15154C49.4601 8.06911 49.5066 7.9542 49.5482 7.85679L49.8804 7.08743L49.902 7.03997L49.9219 7L50.0249 7.10491L50.0033 7.15237L49.7508 7.71191L49.6478 7.9617C49.6063 8.05912 49.5648 8.15654 49.5249 8.25396C49.485 8.35137 49.4551 8.42132 49.4236 8.50375L49.3023 8.80599L49.2292 8.99833L49.191 9.09825L52 9.81515L51.99 10Z" fill="#231F20"/>
<path d="M54.7 7.88L54.08 7.46L54.32 7.12L54.92 7.56L54.7 7.88Z" fill="#231F20"/>
<path d="M54.9059 7L51 6.31188L51.1369 6.10988L51.4513 5.66593L51.5134 5.57936L51.5519 5.52608C51.6888 5.34628 51.8235 5.1687 51.9604 5L52.1059 5.07769L52.093 5.09545C51.9476 5.27525 51.8128 5.44839 51.6802 5.62819L51.6439 5.67925L51.5775 5.76582L51.2781 6.19423L54.831 6.8091L54.8417 6.79356L54.8674 6.75805L55 6.85572L54.9701 6.89567C54.9572 6.91121 54.9465 6.92897 54.9337 6.94673L54.9059 7Z" fill="#231F20"/>
<path d="M55.74 6.755L55.44 6.525L55.18 6.245L55.52 6.415L55.82 6.635L55.74 6.755Z" fill="#231F20"/>
<path d="M55.8935 7L52 6.20615L52.0852 6.08067L52.1257 6.02177L52.164 5.97055C52.2556 5.83995 52.3472 5.71447 52.443 5.58899C52.4835 5.53265 52.5282 5.47375 52.5751 5.41485L52.8243 5.09987L52.8669 5.05122L52.9095 5L53.016 5.14341L52.9798 5.18694L52.935 5.23816L52.6901 5.54802C52.6475 5.60179 52.6028 5.66069 52.5602 5.71959C52.4707 5.83483 52.3834 5.95519 52.3003 6.07298L55.8317 6.79257L55.8807 6.72599L56 6.84891L55.8935 7Z" fill="#231F20"/>
<path d="M56.59 5.955L56.05 5.435L56.22 5.255L56.41 5.045L56.95 5.575L56.77 5.765L56.59 5.955Z" fill="#231F20"/>
<path fill-rule="evenodd" clip-rule="evenodd" d="M52 4.60674L55.716 6L56 5.39326L52.2738 4L52.2454 4.05843C52.217 4.11685 52.1886 4.18427 52.1602 4.25169L52 4.60674ZM55.6673 5.64045L52.3144 4.38202L52.3245 4.35955L55.6775 5.61798L55.6673 5.64045Z" fill="#231F20"/>
<path d="M49.9744 28L46.1858 27.422L46 24.0077L46.158 24L46.3396 27.2991L50 27.8579L49.9744 28Z" fill="#231F20"/>
<path d="M49.8188 25L46 24.3156L47.2968 23L51 23.6622L50.9748 23.8261L47.3472 23.1772L46.3342 24.2071L49.8441 24.8361L49.8188 25Z" fill="#231F20"/>
<path fill-rule="evenodd" clip-rule="evenodd" d="M53.6033 38.948C53.7969 38.9824 53.9934 38.9998 54.1904 39C55.384 39 56.7039 38.3803 58.041 37.1809C61.523 34.0386 63.1922 28.3855 63.985 24.2756L64 24.1916L60.9359 24.0657V24.1317C60.9123 24.2696 60.8866 24.4075 60.8587 24.5475L60.848 24.6054C60.8094 24.7973 60.7709 24.9872 60.7259 25.1871L60.7087 25.2471C60.6551 25.483 60.5952 25.7149 60.533 25.9487L60.5009 26.0687C60.4968 26.0827 60.4916 26.0968 60.4864 26.1107C60.4754 26.1405 60.4644 26.17 60.4644 26.1986L60.3423 26.5984C60.3273 26.6484 60.3166 26.6844 60.2952 26.7483C60.287 26.7726 60.2789 26.7974 60.2707 26.8226C60.2572 26.8638 60.2434 26.906 60.2287 26.9482L60.0509 27.464C60.0016 27.6059 59.948 27.7458 59.8945 27.8837L59.8773 27.9297C59.8173 28.0816 59.7552 28.2316 59.693 28.3775L59.6395 28.4974C59.602 28.5856 59.5633 28.6715 59.5252 28.756C59.5132 28.7825 59.5013 28.8089 59.4895 28.8352L59.4723 28.8692L59.4359 28.9472C59.3879 29.0355 59.3425 29.1247 59.2975 29.2131C59.2722 29.2627 59.2471 29.3121 59.2216 29.361C59.2109 29.381 59.2024 29.399 59.1874 29.4229C59.1295 29.5349 59.0695 29.6468 59.0031 29.7568C58.9871 29.7885 58.9673 29.822 58.9455 29.8589L58.9409 29.8667C58.9308 29.886 58.9193 29.9047 58.9067 29.9227L58.8831 29.9647C58.8689 29.9852 58.8559 30.0069 58.8432 30.0281C58.8386 30.0357 58.8341 30.0432 58.8295 30.0506L58.8038 30.0946L58.716 30.2325L58.6795 30.2885C58.6513 30.3273 58.6198 30.3732 58.5901 30.4163C58.5724 30.442 58.5554 30.4667 58.5402 30.4884C58.5279 30.506 58.5157 30.5236 58.5036 30.5411C58.4759 30.5812 58.4486 30.6207 58.4202 30.6583L58.3988 30.6863L58.3731 30.7223L58.3024 30.8142C58.2923 30.8274 58.2825 30.8405 58.2729 30.8533C58.2519 30.8813 58.2322 30.9076 58.2145 30.9282L58.1953 30.9502C58.1353 31.0241 58.0731 31.0941 58.0046 31.17L57.9038 31.282C57.8794 31.3048 57.8554 31.3276 57.8316 31.3503C57.7845 31.3951 57.738 31.4394 57.6896 31.4819L57.6681 31.5059L57.6381 31.5339C57.5439 31.6198 57.4431 31.7038 57.3424 31.7837C57.3309 31.7914 57.3201 31.8001 57.3103 31.8097L57.1667 31.9137C57.1239 31.9456 57.0832 31.9736 57.036 32.0036C56.999 32.0303 56.9604 32.055 56.9203 32.0776C56.8882 32.0996 56.8582 32.1196 56.826 32.1375C56.7901 32.1601 56.7529 32.1808 56.7146 32.1995L56.6953 32.2095L56.6246 32.2455C56.5907 32.2641 56.5557 32.2808 56.5196 32.2955L56.4103 32.3434H56.3846H56.3653L56.3161 32.3614C56.256 32.385 56.1945 32.405 56.1318 32.4214H56.1018L56.0054 32.4434L55.8961 32.4634C55.8643 32.4706 55.8321 32.476 55.7997 32.4794C55.6863 32.4893 55.5723 32.4893 55.459 32.4794L55.3368 32.4654C55.219 32.4475 55.1035 32.4188 54.9918 32.3794C54.8992 32.3446 54.8097 32.3032 54.724 32.2555C54.6341 32.2038 54.5482 32.1464 54.4669 32.0836C54.3785 32.0144 54.2955 31.9396 54.2183 31.8597C54.13 31.7704 54.0484 31.6755 53.974 31.5758C53.8862 31.4623 53.8053 31.3442 53.7319 31.222L53.7126 31.192C53.5704 30.9482 53.4458 30.6958 53.3398 30.4364L55.9646 28.0736L58.8767 25.451L58.6838 21.7609L52.5834 27.2501C52.5539 26.9543 52.5355 26.6274 52.5173 26.3038C52.5143 26.2513 52.5114 26.1988 52.5084 26.1466C52.4805 25.6289 52.4634 25.2211 52.4805 24.7274L58.5531 19.2622L58.3581 15.5701L52.8812 20.5015C53.2032 18.6744 53.7795 16.8943 54.5954 15.2063C55.0881 14.1692 55.7614 13.2155 56.5882 12.3837L56.6246 12.3478C56.661 12.3118 56.6975 12.2758 56.736 12.2418C57.3489 11.6881 57.9831 11.4482 58.5702 11.5462L58.6731 11.5662H58.6988C58.7106 11.5696 58.7225 11.5729 58.7344 11.5762C58.7636 11.5843 58.7923 11.5922 58.8167 11.6021L58.8467 11.6141L58.9624 11.6601L58.9838 11.6701L59.0695 11.7141L59.1188 11.7401L59.1895 11.782L59.2088 11.794C59.2165 11.8005 59.2251 11.8059 59.2345 11.81L59.3116 11.866L59.3545 11.898L59.3995 11.934L59.4252 11.952C59.4284 11.955 59.4319 11.958 59.4356 11.9613C59.4443 11.9689 59.4546 11.978 59.4681 11.9919C59.4946 12.013 59.5197 12.0357 59.5431 12.0599C59.5547 12.0704 59.5654 12.0818 59.5752 12.0939C59.6151 12.13 59.653 12.1681 59.6888 12.2078L59.7145 12.2398L59.7895 12.3278L59.8195 12.3677L59.8345 12.3877C59.8388 12.3932 59.843 12.3986 59.8473 12.404C59.8602 12.4201 59.873 12.4362 59.8859 12.4557L59.948 12.5457L59.9845 12.5996C59.986 12.6014 59.9877 12.6033 59.9895 12.6052C59.9978 12.6145 60.008 12.6257 60.008 12.6356L60.0209 12.6556C60.0281 12.6683 60.0358 12.6806 60.0434 12.693C60.054 12.71 60.0646 12.7271 60.0745 12.7456L60.1323 12.8435L60.1666 12.9095C60.1786 12.9288 60.1893 12.9489 60.1987 12.9694L60.2823 13.1393C60.3037 13.1839 60.3226 13.2284 60.3418 13.2738C60.3476 13.2875 60.3535 13.3013 60.3594 13.3153L60.428 13.4732L63.1579 8.16192L63.145 8.12993C62.2944 6.26889 61.2358 5.23143 59.9973 5.03153L59.8366 5.01154L59.6673 5.00155H59.6159C59.5745 4.99948 59.533 4.99948 59.4916 5.00155H59.4423H59.3995H59.3524L59.1616 5.01954L59.0674 5.03553L58.9281 5.06152L58.8359 5.08551L58.7609 5.1015L58.6452 5.13748L58.5938 5.15147L58.5552 5.16347L58.5852 5.23343L58.5252 5.17346L58.4288 5.20944L58.341 5.24342L58.2103 5.2974L58.1374 5.32738L58.0603 5.36336L58.0088 5.38735H57.996L57.9274 5.42133L57.8331 5.46931L57.786 5.49729L57.681 5.55726C57.651 5.57325 57.6167 5.59324 57.5867 5.61323L57.5546 5.63122L57.5074 5.65921L57.486 5.6712C57.4601 5.69079 57.4329 5.70881 57.4046 5.72518C57.3722 5.74473 57.3398 5.76745 57.3089 5.78912C57.305 5.79181 57.3012 5.79449 57.2974 5.79714L57.201 5.84511C57.1366 5.88831 57.0722 5.9368 57.0095 5.98395L56.9975 5.99304L56.9053 6.061L56.8753 6.08299L56.7532 6.17894L56.6996 6.22292L56.6075 6.29688L56.5003 6.39083C56.4425 6.43881 56.3739 6.49878 56.3203 6.54675C56.2668 6.59473 56.2132 6.6447 56.1618 6.69468L56.0868 6.76464L55.8339 7.01051L55.6989 7.14644C55.6294 7.21905 55.5611 7.29285 55.4892 7.37061C55.468 7.39347 55.4466 7.41667 55.4247 7.44029L55.3261 7.54823C55.189 7.70016 55.054 7.86007 54.9168 8.02399L54.8161 8.14793C54.7601 8.22285 54.7 8.29842 54.6397 8.37427C54.5938 8.43198 54.5477 8.48985 54.5033 8.54772L54.3833 8.70564L54.3319 8.7736L54.2461 8.89354L54.0833 9.12142L53.9462 9.32132L53.7876 9.5572L53.6547 9.75709L53.5005 10.001C53.4555 10.0709 53.4126 10.1409 53.3698 10.2108L53.3698 10.2109L53.2969 10.3308L53.2348 10.4367C53.1662 10.5527 53.0976 10.6706 53.0312 10.7886C52.9926 10.8565 52.9562 10.9225 52.9198 10.9884L52.9198 10.9885C52.8799 11.07 52.8362 11.1524 52.7923 11.235C52.7631 11.29 52.7338 11.3451 52.7055 11.4002L52.6219 11.5522C52.5234 11.7421 52.4269 11.93 52.3305 12.1299L52.2705 12.2558C52.2141 12.3841 52.1548 12.5123 52.095 12.6417C52.0821 12.6696 52.0692 12.6976 52.0562 12.7256L51.9534 12.9474C51.9258 13.0122 51.8978 13.076 51.8699 13.1394C51.8393 13.2091 51.809 13.2782 51.7798 13.3472C51.7455 13.4252 51.7134 13.5012 51.6813 13.5791C51.6371 13.6838 51.5942 13.7898 51.5484 13.903C51.5365 13.9324 51.5244 13.9624 51.512 13.9929L51.4006 14.2108C51.3384 14.3687 51.2763 14.5286 51.2163 14.6885L51.2034 14.7225C51.199 14.7345 51.1945 14.7463 51.1901 14.7581C51.1775 14.7914 51.1652 14.8239 51.1541 14.8565C51.0727 15.0724 50.9934 15.2922 50.9163 15.5221V15.5401C50.9142 15.5461 50.9111 15.5519 50.9079 15.5578C50.9015 15.5696 50.8949 15.5821 50.8949 15.5981C50.8049 15.8659 50.7149 16.1378 50.6292 16.4137L50.5777 16.5796C50.4899 16.8654 50.4042 17.1573 50.3228 17.4511L50.3035 17.5211C50.2885 17.5791 50.2735 17.635 50.2563 17.693L50.147 18.1068L49.9199 19.0343C49.8363 19.4001 49.7571 19.7679 49.6821 20.1537C49.6811 20.1644 49.6811 20.1751 49.6821 20.1857V20.2137V20.2537C49.6788 20.2786 49.6738 20.3033 49.6671 20.3276C49.6014 20.6715 49.5399 21.0173 49.4828 21.3651L49.4635 21.491V21.549C49.4014 21.9408 49.3542 22.2646 49.3135 22.5665C49.3125 22.5791 49.3125 22.5918 49.3135 22.6045V22.6384C49.3126 22.6518 49.3126 22.6651 49.3135 22.6784C49.2728 23.0023 49.2342 23.3281 49.2042 23.6459L49.1828 23.8458L48 24.9093L48.195 28.6034L49.0242 27.8538V28.0536V28.1656V28.3515V28.3875C49.0242 28.4292 49.0269 28.4714 49.0295 28.5139C49.0322 28.5569 49.035 28.6001 49.035 28.6433L49.08 29.5309V29.6448C49.0822 29.6843 49.0854 29.7238 49.0887 29.7639C49.095 29.8394 49.1014 29.9171 49.1014 30.0006L49.1164 30.1666C49.1186 30.1885 49.1215 30.2102 49.1245 30.2317C49.1301 30.273 49.1357 30.3137 49.1357 30.3545L48.3 31.1081L48.4928 34.7982L49.6735 33.7367C49.7099 33.8806 49.7464 34.0206 49.7849 34.1585L49.8363 34.3284C49.8706 34.4483 49.9049 34.5643 49.9413 34.6822L50.0056 34.8701C50.0399 34.9781 50.0763 35.078 50.1127 35.1779L50.1128 35.178C50.1255 35.2148 50.1398 35.2517 50.1542 35.289C50.164 35.3144 50.1739 35.34 50.1835 35.3659L50.3699 35.8216C50.4068 35.9078 50.4469 35.9894 50.4861 36.0692C50.4924 36.082 50.4987 36.0948 50.5049 36.1075L50.5263 36.1555C50.5338 36.1705 50.5408 36.186 50.5477 36.2014C50.5547 36.2169 50.5617 36.2324 50.5692 36.2474C50.6356 36.3794 50.7042 36.5053 50.7706 36.6232L50.8456 36.5972L50.7792 36.6412C50.8434 36.7672 50.9184 36.8891 50.9934 37.003C51.0069 37.0259 51.0219 37.0479 51.0384 37.069L51.0663 37.113C51.1199 37.1909 51.1734 37.2669 51.227 37.3369L51.3363 37.4788C51.3813 37.5368 51.4263 37.5927 51.4734 37.6427C51.5046 37.6824 51.5383 37.7205 51.5741 37.7566C51.6256 37.8146 51.6791 37.8686 51.7348 37.9246L51.8334 38.0225C51.8934 38.0765 51.9534 38.1285 52.0112 38.1764L52.0348 38.1964C52.056 38.2174 52.079 38.2367 52.1034 38.2544C52.1891 38.3204 52.2748 38.3843 52.3648 38.4443L52.3819 38.4543C52.4744 38.5172 52.571 38.5746 52.6712 38.6262L52.7676 38.6722C52.7836 38.6796 52.7994 38.6871 52.8151 38.6946C52.8671 38.7194 52.9181 38.7437 52.9691 38.7621L53.0848 38.8061C53.14 38.8274 53.1986 38.8456 53.2606 38.8648C53.2684 38.8672 53.2762 38.8696 53.284 38.8721L53.3312 38.8861L53.404 38.904C53.4683 38.92 53.5348 38.936 53.6033 38.948ZM49.7913 33.5748L49.7592 33.4449L48.5957 34.4723L48.4243 31.178L49.2642 30.4204V30.3844C49.2622 30.3673 49.2599 30.35 49.2576 30.3327C49.2503 30.2772 49.2428 30.2209 49.2428 30.1646L49.2257 29.9827C49.2238 29.9587 49.2216 29.9345 49.2195 29.91C49.212 29.824 49.2042 29.7346 49.2042 29.6428V29.5269L49.1592 28.6453V28.3955V28.3595V28.1736V28.0517V27.6958V27.5199L48.3021 28.2815L48.1286 24.9872L49.3349 23.8918L49.3607 23.6419C49.3928 23.3241 49.4292 22.9983 49.4699 22.6724V22.6045C49.4707 22.5931 49.4707 22.5818 49.4699 22.5705C49.5106 22.2646 49.5578 21.9468 49.6199 21.547L49.6478 21.3691C49.7056 21.0213 49.7678 20.6755 49.8342 20.3276C49.8394 20.3066 49.8429 20.2852 49.8449 20.2637C49.8493 20.2492 49.8529 20.2345 49.8556 20.2197L49.8663 20.1657C49.9435 19.7779 50.0206 19.4121 50.1063 19.0463L50.4385 17.711C50.4532 17.6628 50.4664 17.6117 50.4793 17.5615C50.4814 17.5533 50.4835 17.5452 50.4856 17.5371L50.5049 17.4671C50.5863 17.1773 50.672 16.8854 50.7599 16.5996L50.8113 16.4356C50.897 16.1698 50.987 15.8979 51.0749 15.6361C51.0773 15.6299 51.0802 15.6238 51.0832 15.6177C51.0907 15.6022 51.0984 15.5862 51.0984 15.5661L51.0213 15.5441H51.107C51.182 15.3262 51.2591 15.1063 51.3406 14.8884C51.3435 14.8801 51.3465 14.8717 51.3495 14.8632C51.3616 14.8291 51.374 14.7941 51.3877 14.7605L51.4006 14.7245C51.4606 14.5666 51.5227 14.4067 51.5848 14.2488L51.6813 14.0109L51.6813 14.0109C51.7348 13.877 51.7884 13.743 51.8441 13.6111C51.8763 13.5351 51.9084 13.4592 51.9427 13.3832C51.9947 13.262 52.0485 13.1408 52.106 13.0114L52.1184 12.9834L52.2148 12.7735C52.2812 12.6156 52.3541 12.4597 52.4291 12.3058L52.4891 12.1798C52.5855 11.9859 52.6819 11.794 52.7784 11.6061L52.8619 11.4562C52.9284 11.3183 53.0012 11.1804 53.0762 11.0444L53.1876 10.8445L53.4019 10.4827L53.4598 10.3828L53.5283 10.2728C53.5698 10.2089 53.6126 10.1422 53.6569 10.0729L53.8112 9.82906C53.854 9.76309 53.899 9.69513 53.944 9.62916L54.1026 9.39328C54.1476 9.32132 54.1904 9.25535 54.2354 9.19339L54.3983 8.9655L54.484 8.84756L54.5397 8.7716C54.5761 8.72163 54.6126 8.67365 54.6533 8.62568C54.7497 8.48775 54.859 8.35382 54.964 8.22588L55.0647 8.09995C55.1975 7.93803 55.3325 7.78211 55.4697 7.63019C55.4726 7.62692 55.4755 7.62367 55.4784 7.62042C55.5074 7.58797 55.5355 7.55641 55.5725 7.51825C55.6604 7.4203 55.7482 7.32635 55.8382 7.2324L55.9711 7.09847C56.0546 7.01651 56.1382 6.93455 56.2218 6.85659L56.2946 6.78663L56.4511 6.6407C56.4811 6.61372 56.5164 6.58373 56.5488 6.55625C56.5812 6.52876 56.6107 6.50377 56.6289 6.48678C56.6605 6.45731 56.6905 6.43235 56.7244 6.40408C56.7296 6.39975 56.7349 6.39534 56.7403 6.39083L56.8217 6.32287L56.8796 6.27889L56.9996 6.18294L57.021 6.16495L57.1174 6.09498C57.1706 6.05364 57.2268 6.01366 57.281 5.97505C57.2923 5.96699 57.3035 5.959 57.3146 5.95106L57.3917 5.90108C57.4162 5.88252 57.4418 5.866 57.4653 5.85079C57.4748 5.84471 57.4839 5.83883 57.4924 5.83312L57.5867 5.77115L57.606 5.76116C57.6209 5.75012 57.6367 5.7401 57.6531 5.73117L57.6746 5.71918L57.7646 5.66521L57.876 5.60324L57.9103 5.58325L58.0067 5.53327L58.0646 5.50529L58.1288 5.47331L58.161 5.45931L58.2103 5.43732C58.2309 5.42642 58.2524 5.41707 58.2745 5.40934L58.4074 5.35337L58.4845 5.32338L58.5702 5.2914C58.5932 5.28641 58.6155 5.27904 58.6367 5.26941L58.6924 5.25342L58.8017 5.22144L58.8809 5.20344C58.9074 5.19468 58.9347 5.188 58.9624 5.18346L59.0824 5.15947L59.1852 5.14148C59.1945 5.14024 59.2038 5.13895 59.2132 5.13766C59.264 5.13062 59.3155 5.12349 59.3716 5.12349H59.4102H59.6652L59.8216 5.13348L59.9738 5.15347C61.1373 5.33338 62.1487 6.33286 62.9736 8.13193L60.443 13.0894C60.4386 13.0824 60.435 13.0751 60.4323 13.0674L60.3466 12.8935C60.3405 12.8797 60.3336 12.8673 60.3269 12.8551C60.3219 12.8459 60.3169 12.8369 60.3123 12.8275C60.3016 12.8055 60.2887 12.7835 60.2759 12.7615L60.2202 12.6616C60.2019 12.6287 60.1819 12.5967 60.1602 12.5656L60.1495 12.5477L60.1237 12.5077L60.0852 12.4497L60.023 12.3598L59.9652 12.2838L59.9545 12.2698C59.9437 12.2524 59.9308 12.2363 59.9159 12.2218C59.902 12.203 59.8873 12.1855 59.8728 12.1682C59.8627 12.1561 59.8527 12.1442 59.843 12.1319L59.8088 12.0919C59.7702 12.0499 59.7316 12.0099 59.6973 11.9779L59.6609 11.942C59.6369 11.917 59.6112 11.8937 59.5838 11.872C59.567 11.855 59.5491 11.839 59.5302 11.824L59.5066 11.806L59.4616 11.7721C59.4452 11.7565 59.4273 11.7425 59.4081 11.7301L59.3266 11.6721L59.3074 11.6601L59.2795 11.6421L59.2045 11.5981C59.1862 11.586 59.1668 11.5753 59.1466 11.5662L59.0631 11.5242L59.0416 11.5142L59.0117 11.5002L58.8809 11.4502C58.8359 11.4342 58.7888 11.4202 58.7438 11.4082H58.6988L58.5981 11.3863C57.9574 11.2803 57.2653 11.5342 56.6225 12.1219C56.5818 12.1579 56.5432 12.1958 56.5046 12.2338L56.4703 12.2678C55.6314 13.1113 54.9479 14.0786 54.4476 15.1303C53.5943 16.9011 53.0005 18.7709 52.6819 20.6895L52.6434 20.9133L58.2145 15.8939L58.3881 19.1902L52.3434 24.6354L52.3198 24.6574V24.6874C52.3005 25.1991 52.3177 25.6169 52.3477 26.1486C52.3691 26.5804 52.3927 27.0282 52.4377 27.414L52.4548 27.5659L58.5531 22.0627L58.7267 25.357L53.1555 30.3545L53.1748 30.4004C53.2871 30.6829 53.4211 30.9574 53.5755 31.222L53.5926 31.248C53.6699 31.3764 53.755 31.5005 53.8476 31.6198C53.9262 31.7261 54.0128 31.8269 54.1069 31.9217C54.1891 32.0056 54.2771 32.0844 54.3704 32.1575C54.4571 32.2248 54.5488 32.2862 54.6447 32.3414C54.7383 32.3943 54.8365 32.4398 54.9383 32.4774C55.06 32.5212 55.1864 32.5527 55.3154 32.5713L55.4504 32.5853C55.5736 32.5973 55.6978 32.5973 55.8211 32.5853C55.86 32.5821 55.8986 32.5767 55.9368 32.5693L56.0461 32.5473L56.1511 32.5233H56.1682H56.1939C56.2528 32.5068 56.3107 32.4874 56.3675 32.4654L56.4361 32.4414L56.4832 32.4214L56.586 32.3774L56.6975 32.3234L56.781 32.2815L56.8003 32.2715L56.9075 32.2115C56.9124 32.2085 56.9172 32.2056 56.922 32.2027C56.953 32.1841 56.9822 32.1666 57.0082 32.1475C57.0491 32.1245 57.0885 32.0992 57.126 32.0716C57.1733 32.0432 57.2184 32.0118 57.261 31.9776C57.3041 31.9496 57.3472 31.9171 57.3947 31.8813C57.4015 31.8761 57.4083 31.8709 57.4153 31.8657L57.4389 31.8457C57.546 31.7637 57.6489 31.6758 57.7431 31.5898L57.7817 31.5518L57.7988 31.5359C57.8717 31.4679 57.9403 31.3999 58.0131 31.324L58.1245 31.2C58.1867 31.1401 58.2488 31.0701 58.3067 31.0001L58.326 30.9781L58.4224 30.8542L58.4952 30.7583L58.5188 30.7263L58.5424 30.6943C58.5669 30.6618 58.5914 30.6264 58.6173 30.589C58.6344 30.5643 58.6522 30.5386 58.671 30.5124C58.7181 30.4464 58.7609 30.3824 58.8059 30.3125L58.8424 30.2565L58.9324 30.1166L58.9581 30.0706L59.0117 29.9847L59.0331 29.9407L59.0652 29.8847C59.0909 29.8467 59.1124 29.8068 59.1316 29.7708L59.1316 29.7708C59.1959 29.6588 59.2559 29.5469 59.3159 29.4349L59.3524 29.369C59.4316 29.233 59.5002 29.0931 59.5666 28.9532L59.6052 28.8732L59.6202 28.8392C59.6738 28.7253 59.7252 28.6134 59.7745 28.4974L59.828 28.3775C59.8902 28.2276 59.9523 28.0776 60.0123 27.9257L60.0295 27.8797C60.083 27.7418 60.1366 27.5979 60.188 27.456L60.3659 26.9362C60.3894 26.8743 60.4194 26.7863 60.4344 26.7363C60.4419 26.7113 60.45 26.6864 60.458 26.6614C60.4661 26.6364 60.4741 26.6114 60.4816 26.5864L60.6059 26.1706C60.6134 26.1337 60.6243 26.0968 60.6355 26.0585C60.637 26.0533 60.6386 26.048 60.6402 26.0427L60.6744 25.9207C60.7323 25.7029 60.788 25.489 60.8394 25.2711L60.8544 25.2111C60.9037 24.9972 60.9487 24.7833 60.9916 24.5694L61.0023 24.5115C61.0258 24.3935 61.0473 24.2756 61.0687 24.1577L63.8072 24.2716C63.0165 28.4215 61.358 33.9806 57.9296 37.065C56.4189 38.4343 54.919 39.036 53.6333 38.8001C53.569 38.7881 53.5069 38.7761 53.4469 38.7601L53.3762 38.7421L53.3312 38.7281C53.2691 38.7101 53.2069 38.6902 53.1405 38.6662C53.1331 38.6634 53.1255 38.6607 53.1177 38.6579C53.0915 38.6484 53.0631 38.6381 53.0333 38.6242C52.9651 38.5979 52.8985 38.5679 52.8341 38.5342L52.7484 38.4943C52.6434 38.4383 52.5555 38.3863 52.4741 38.3323L52.4569 38.3223C52.3734 38.2644 52.2877 38.2044 52.2041 38.1384L52.1441 38.0885L52.1205 38.0665L51.947 37.9166L51.8527 37.8226C51.7991 37.7686 51.7263 37.6927 51.6941 37.6587C51.677 37.6406 51.6635 37.6247 51.6478 37.6063C51.6341 37.5902 51.6187 37.5721 51.5977 37.5487C51.5568 37.5033 51.5176 37.4546 51.4771 37.404L51.4648 37.3888L51.3599 37.2509C51.3063 37.1829 51.2527 37.107 51.2034 37.033L51.1713 36.989L51.1306 36.9251C51.0556 36.8131 50.9742 36.6732 50.9056 36.5553C50.845 36.451 50.7877 36.3405 50.7293 36.2279C50.7217 36.2131 50.714 36.1983 50.7063 36.1835C50.7017 36.1734 50.6968 36.1632 50.6919 36.1527C50.683 36.134 50.6739 36.1148 50.6656 36.0955L50.642 36.0455C50.597 35.9556 50.5542 35.8616 50.5113 35.7657L50.3249 35.3159C50.3013 35.2539 50.2799 35.192 50.2585 35.13C50.2439 35.0876 50.2293 35.047 50.2148 35.0069C50.1932 34.9468 50.1719 34.8877 50.1513 34.8242C50.1299 34.7642 50.1085 34.7022 50.087 34.6383C50.0506 34.5243 50.0163 34.4084 49.9821 34.2884L49.9306 34.1205C49.8813 33.9426 49.8363 33.7607 49.7913 33.5748Z" fill="#231F20"/>
<path d="M76.598 21.1895L76.7466 24.1358L75.4281 25.3644L75.9011 34.6839L73.1656 37.2341L69.3166 31.0588L66.4973 30.598L68.1089 29.0966L65.9218 25.5988L62.9267 25.1077L62.6128 18.8778L65.5283 16.162L67.8703 19.8781L66.0097 21.6119L69.0257 22.1049L69.2622 26.7789L72.5586 27.3184L72.3095 22.4363L72.3953 21.9433L75.2795 22.4161L76.598 21.1895Z" fill="#FFC65A"/>
<path d="M76.598 21.1895L75.2794 22.4161L75.2041 20.9612L76.598 21.1895Z" fill="#E2A84D"/>
<path d="M76.3152 15.6204L74.9966 16.849L74.9233 15.3921L76.3152 15.6204Z" fill="#E2A84D"/>
<path d="M75.204 20.9612L75.2793 22.4161L72.3952 21.9433L71.9829 21.8766L73.3015 20.65L75.204 20.9612Z" fill="#FFC65A"/>
<path d="M74.9237 15.3921L74.997 16.849L72.002 16.358L71.9873 16.0448L73.0212 15.0809L74.9237 15.3921Z" fill="#FFC65A"/>
<path d="M74.5362 7.76788L74.9234 15.3921L73.0209 15.0809L71.9869 16.0448L71.7002 10.411L74.5362 7.76788Z" fill="#FFC65A"/>
<path d="M74.5366 7.76788L71.7006 10.411L68.4062 9.87145L71.2422 7.22834L74.5366 7.76788Z" fill="#E2A84D"/>
<path d="M69.3166 31.0588L73.1655 37.2341L69.8691 36.6946L67.4434 32.8026L69.3166 31.0588Z" fill="#E2A84D"/>
<path d="M72.3096 22.4363L72.5587 27.3184L70.5327 24.0933L72.3096 22.4363Z" fill="#E2A84D"/>
<path d="M70.5323 24.0933L72.5583 27.3184L69.2619 26.7789L69.0254 22.1049L69.3038 22.1514L69.4921 21.9756L72.3093 22.4363L70.5323 24.0933Z" fill="#FFC65A"/>
<path d="M72.3093 22.4363L69.4922 21.9756L72.1607 19.4901L72.0017 16.358L74.9967 16.849L76.3153 15.6204L76.4639 18.5666L75.1453 19.7952L75.2039 20.9612L73.3014 20.65L71.9828 21.8766L72.3951 21.9433L72.3093 22.4363Z" fill="#FFC65A"/>
<path d="M72.002 16.358L72.161 19.4901L68.8646 18.9506L68.4062 9.87145L71.7006 10.411L71.9873 16.0448L71.7027 16.3095L72.002 16.358Z" fill="#E2A84D"/>
<path d="M72.1607 19.4901L69.4922 21.9756L69.1573 21.921L67.8701 19.8781L68.8643 18.9506L72.1607 19.4901Z" fill="#E2A84D"/>
<path d="M71.9873 16.0448L72.0019 16.358L71.7026 16.3095L71.9873 16.0448Z" fill="#E2A84D"/>
<path d="M69.4921 21.9756L69.3037 22.1514L69.1572 21.921L69.4921 21.9756Z" fill="white"/>
<path d="M69.3163 31.0588L67.4431 32.8026L66.2271 30.8506L66.497 30.598L69.3163 31.0588Z" fill="#FFC65A"/>
<path d="M69.1575 21.921L69.304 22.1514L69.0256 22.1049L69.0151 21.8968L69.1575 21.921Z" fill="white"/>
<path d="M67.8704 19.8781L69.1576 21.921L69.0153 21.8968L69.0257 22.1049L66.0098 21.6119L67.8704 19.8781Z" fill="#FFC65A"/>
<path d="M65.9219 25.5988L68.109 29.0966L66.083 28.7652L65.9219 25.5988Z" fill="#E2A84D"/>
<path d="M68.109 29.0966L66.4974 30.598L66.1751 30.5455L66.083 28.7652L68.109 29.0966Z" fill="#E2A84D"/>
<path d="M66.4971 30.598L66.2271 30.8506L66.1874 30.786L66.1748 30.5455L66.4971 30.598Z" fill="white"/>
<path d="M66.1917 30.883L66.2272 30.8506L67.4433 32.8026L66.3403 33.8312L66.8133 43.1508L63.9752 45.7939L63.5043 36.4723L62.1125 36.2439L62.0371 34.7526L63.3536 33.5261L63.2217 30.9032L63.3075 30.4101L66.1917 30.883Z" fill="#FFC65A"/>
<path d="M66.2271 30.8506L66.1915 30.883L66.1873 30.786L66.2271 30.8506Z" fill="white"/>
<path d="M66.1748 30.5455L66.1874 30.786L66.02 30.5192L66.1748 30.5455Z" fill="white"/>
<path d="M66.0198 30.5192L66.1873 30.786L66.1915 30.883L63.3073 30.4101L62.895 30.3434L64.8122 28.5571L66.0826 28.7652L66.1747 30.5455L66.0198 30.5192Z" fill="#FFC65A"/>
<path d="M65.9218 25.5988L66.083 28.7652L64.8125 28.5571L62.9519 25.5765L62.9268 25.1077L65.9218 25.5988Z" fill="#FFC65A"/>
<path d="M65.5283 16.162L62.6128 18.8778L59.3164 18.3383L62.2319 15.6224L65.5283 16.162Z" fill="#E2A84D"/>
<path d="M63.5044 36.4723L63.9753 45.7939L60.681 45.2544L60.2812 37.3897L62.1859 37.7009L63.5044 36.4723Z" fill="#E2A84D"/>
<path d="M63.5041 36.4723L62.1856 37.7009L62.1123 36.2439L63.5041 36.4723Z" fill="#FFC65A"/>
<path d="M63.2216 30.9032L63.3534 33.5261L60.0591 32.9865L60.0005 31.8206L61.903 32.1318L63.2216 30.9032Z" fill="#E2A84D"/>
<path d="M63.3536 33.5261L62.0372 34.7526L58.7407 34.2131L60.0593 32.9865L63.3536 33.5261Z" fill="#E2A84D"/>
<path d="M62.8951 30.3434L63.3074 30.4101L63.2216 30.9032L61.8297 30.6748L61.7544 29.1855L63.0709 27.9569L62.9516 25.5765L64.8122 28.5571L62.8951 30.3434Z" fill="#FFC65A"/>
<path d="M63.2219 30.9032L61.9033 32.1318L61.8301 30.6748L63.2219 30.9032Z" fill="#FFC65A"/>
<path d="M62.9519 25.5765L63.0712 27.9569L59.7769 27.4174L59.3164 18.3383L62.6128 18.8778L62.9268 25.1077L62.6275 25.0592L62.9519 25.5765Z" fill="#E2A84D"/>
<path d="M63.0709 27.9569L61.7544 29.1855L58.458 28.646L59.7766 27.4174L63.0709 27.9569Z" fill="#E2A84D"/>
<path d="M62.9267 25.1077L62.9519 25.5765L62.6274 25.0592L62.9267 25.1077Z" fill="#E2A84D"/>
<path d="M62.1126 36.2439L62.1859 37.7009L60.2813 37.3897L60.208 35.9327L62.1126 36.2439Z" fill="#E2A84D"/>
<path d="M62.0372 34.7526L62.1125 36.2439L60.2079 35.9327L60.2812 37.3897L58.8914 37.1613L58.7407 34.2131L62.0372 34.7526Z" fill="#E2A84D"/>
<path d="M61.8299 30.6748L61.9032 32.1318L60.0006 31.8206L59.9253 30.3636L61.8299 30.6748Z" fill="#E2A84D"/>
<path d="M61.7544 29.1855L61.8298 30.6748L59.9252 30.3636L60.0005 31.8206L58.6087 31.5922L58.458 28.646L61.7544 29.1855Z" fill="#E2A84D"/>
<path d="M75.2011 20.9563L75.2012 20.9554L76.5961 21.1839L76.596 21.1848L75.2011 20.9563Z" fill="#231F20"/>
<path d="M74.9273 15.3966L74.9275 15.3958L76.3202 15.6244L76.3201 15.6252L74.9273 15.3966Z" fill="#231F20"/>
<path d="M73.1531 37.3089L69.8211 36.7633L67.3765 32.841L67.5104 32.7642L69.9173 36.6259L73.1782 37.1593L73.1531 37.3089Z" fill="#231F20"/>
<path d="M68.4604 9.92601L68.3516 9.81689L71.2168 7.14751L74.5489 7.69311L74.5237 7.84264L71.2671 7.30917L68.4604 9.92601Z" fill="#231F20"/>
<path d="M68.7848 18.9546L68.3223 9.78052L71.7129 10.3362L71.6878 10.4858L68.4897 9.96238L68.9418 18.9465L68.7848 18.9546Z" fill="#231F20"/>
<path d="M67.9248 19.9326L67.8159 19.8235L68.8394 18.8697L72.1735 19.4153L72.1484 19.5649L68.8896 19.0314L67.9248 19.9326Z" fill="#231F20"/>
<path d="M66.0874 28.7705L66.0875 28.7697L68.1139 29.1013L68.1138 29.1021L66.0874 28.7705Z" fill="#231F20"/>
<path d="M63.9626 45.8687L60.6055 45.319L60.2036 37.3937L60.3606 37.3856L60.7562 45.1897L63.9877 45.7191L63.9626 45.8687Z" fill="#231F20"/>
<path d="M59.997 31.8232L59.9979 31.8232L60.0565 32.9898L60.0557 32.9898L59.997 31.8232Z" fill="#231F20"/>
<path d="M58.7949 34.2677L58.686 34.1586L60.0339 32.9057L63.3659 33.4513L63.3408 33.6008L60.0841 33.0674L58.7949 34.2677Z" fill="#231F20"/>
<path d="M62.1729 37.7756L58.8158 37.226L58.6567 34.1222L62.0494 34.6779L62.0243 34.8274L58.8242 34.304L58.9665 37.0967L62.198 37.6261L62.1729 37.7756Z" fill="#231F20"/>
<path d="M58.4573 28.6575L59.7775 27.4292L59.7781 27.4298L58.4579 28.6581L58.4573 28.6575Z" fill="#231F20"/>
<path d="M61.8907 32.2065L58.5336 31.6569L58.3745 28.5551L61.7672 29.1108L61.7421 29.2603L58.5419 28.7369L58.6843 31.5276L61.9158 32.057L61.8907 32.2065Z" fill="#231F20"/>
<path d="M63.0586 28.0317L59.7015 27.4821L59.2368 18.3423L59.3938 18.3342L59.8522 27.3527L63.0837 27.8822L63.0586 28.0317Z" fill="#231F20"/>
<path d="M63.9059 45.9636L63.435 36.642L62.1164 37.8706L61.9574 34.7223L63.2738 33.4958L63.1503 31.0729L61.8339 32.3015L61.6748 29.1552L62.9913 27.9266L62.5329 18.8819L62.6899 18.8738L63.1503 27.9873L61.8339 29.2159L61.972 31.962L63.2906 30.7334L63.4329 33.5564L62.1164 34.783L62.2567 37.5311L63.5731 36.3025L64.044 45.6241L66.7335 43.1205L66.2605 33.8009L69.333 30.9375L73.182 37.1129L75.8212 34.6536L75.3482 25.334L76.6668 24.1054L76.5286 21.3593L75.2101 22.5859L75.0656 19.7649L76.3842 18.5363L76.2461 15.7902L74.9275 17.0188L74.467 7.93762L71.7797 10.4413L72.2401 19.5204L69.2869 22.2706L67.803 19.9185L65.461 16.2024L65.5949 16.1216L69.3204 22.0322L72.0811 19.4598L71.6206 10.3807L74.6052 7.59814L75.0656 16.6793L76.3842 15.4507L76.5433 18.5969L75.2247 19.8255L75.3482 22.2464L76.6668 21.0198L76.8258 24.1661L75.5073 25.3947L75.9803 34.7143L73.1485 37.3553L69.2995 31.18L66.4196 33.8615L66.8926 43.1811L63.9059 45.9636Z" fill="#231F20"/>
<path fill-rule="evenodd" clip-rule="evenodd" d="M66.0932 30.5435L66.1163 31.0466L68.2092 29.1088L65.8232 25.2896L66.0932 30.5435ZM66.2586 30.7072L66.0116 25.8897L68.0041 29.0784L66.2586 30.7072Z" fill="#231F20"/>
<path fill-rule="evenodd" clip-rule="evenodd" d="M70.4321 24.0792L72.6528 27.6114L72.3786 22.2605L70.4321 24.0792ZM72.4644 27.0213L70.6331 24.1034L72.2405 22.604L72.4644 27.0213Z" fill="#231F20"/>
<path fill-rule="evenodd" clip-rule="evenodd" d="M59.1489 18.3888L62.6379 18.9587L65.6978 16.1115L62.2068 15.5416L59.1489 18.3888ZM62.5877 18.797L59.4817 18.2878L62.257 15.7033L65.363 16.2125L62.5877 18.797Z" fill="#231F20"/>
<path d="M47 37V40L44 38.986L47 37Z" fill="#8071DB"/>
<path fill-rule="evenodd" clip-rule="evenodd" d="M46 35.2543V21.4091L43.5015 17.8323L21.488 10L19 11.8058V25.7228L20.8928 28.9466L43.5057 37L46 35.2543ZM33.8544 20.2026C34.1804 22.2063 33.4043 23.9675 32.1193 24.1459C30.8301 24.3244 29.5262 22.856 29.2002 20.8504C28.8742 18.8448 29.6482 17.0836 30.9353 16.9052C32.2224 16.7267 33.5284 18.1989 33.8544 20.2026Z" fill="#9881EE"/>
<path d="M47 18.7439V21L44 18L47 18.7439Z" fill="#8071DB"/>
<path fill-rule="evenodd" clip-rule="evenodd" d="M31.1163 24.9859C32.4541 24.8142 33.2619 23.1151 32.9226 21.19C32.5832 19.265 31.2214 17.8423 29.8837 18.0141C28.5459 18.1858 27.7381 19.8868 28.0774 21.8118C28.4168 23.7368 29.7786 25.1577 31.1163 24.9859ZM31.5017 23.3373L30.5558 23.0273V21.612L29.6122 21.3021V19.8719L30.5558 20.1818V21.6027L31.5017 21.9145V23.3373Z" fill="white"/>
<path d="M32 22.3574V24L31 23.6426V22L32 22.3574Z" fill="white"/>
<path d="M32 20.3578V22L31 21.6422V20L32 20.3578Z" fill="white"/>
<path d="M22 8.9863L19 11V8L22 8.9863Z" fill="#8071DB"/>
<path d="M20 27L22 30L20 29.3751V27Z" fill="#8071DB"/>
<path d="M46 39L43.4129 38.0081L19 28.6639V8L21.5787 8.98568L43.4694 17.365L43.4129 17.5102L19.1569 8.22619V28.5581L45.8431 38.7717V18.4419L43.415 17.5123L43.4715 17.367L46 18.334V39Z" fill="#231F20"/>
<path d="M23.5951 27.7968L23.5954 27.7959L42.3077 35.0382L42.3074 35.0391L23.5951 27.7968Z" fill="#231F20"/>
<path d="M23.5936 25.8787L23.5939 25.8779L42.3074 33.117L42.3071 33.1178L23.5936 25.8787Z" fill="#231F20"/>
<path d="M23.5942 23.7194L23.5945 23.7186L42.3067 30.9609L42.3064 30.9618L23.5942 23.7194Z" fill="#231F20"/>
<path d="M23.5956 12.8706L23.5959 12.8698L42.3082 20.1121L42.3079 20.1129L23.5956 12.8706Z" fill="#231F20"/>
<path d="M43.7075 39.0147L46.1457 37.1645L46.1463 37.1652L43.7081 39.0154L43.7075 39.0147Z" fill="#231F20"/>
<path d="M32 24L30.0512 23.2822L30.1089 23.1398L31.8399 23.7763V22.3894L30 21.7123V20L31.9488 20.7178L31.8911 20.8602L30.1601 20.2237V21.6085L32 22.2857V24Z" fill="#231F20"/>
<path d="M21.8629 31L20 28.0739L20.1288 28L20.1371 28.0106L22 30.9384L21.8629 31Z" fill="#231F20"/>
<path d="M46.8486 22L44 18.0994L44.137 18H44.1394L47 21.9133L46.8486 22Z" fill="#231F20"/>
<path d="M19.7545 12.2416L22.187 10.323L22.1875 10.3237L19.7551 12.2422L19.7545 12.2416Z" fill="#231F20"/>
<path fill-rule="evenodd" clip-rule="evenodd" d="M29.1886 25.176C29.6971 25.7125 30.2839 26 30.8645 26C30.9439 26 31.0232 25.9951 31.1017 25.9854C31.7564 25.8993 32.3052 25.4598 32.6484 24.7274C32.9943 23.9146 33.0871 23.0375 32.9175 22.184C32.5827 20.2632 31.2225 18.8404 29.8877 19.0144C29.231 19.1005 28.6822 19.5417 28.3411 20.2742C27.6774 21.9295 27.994 23.7607 29.1886 25.176ZM30.1017 19.1371C30.1024 19.1371 30.1031 19.1371 30.1038 19.1371H30.0933C30.0961 19.1371 30.0989 19.1371 30.1017 19.1371ZM29.9026 19.1499C29.9686 19.1421 30.0351 19.1379 30.1017 19.1371C31.281 19.1434 32.4373 20.4633 32.7522 22.2023C32.917 23.0306 32.8271 23.8818 32.4916 24.6706C32.1717 25.3518 31.6674 25.7675 31.07 25.8462C30.4725 25.9249 29.8496 25.6539 29.3115 25.0863C28.1515 23.7118 27.8414 21.9344 28.4809 20.3255C28.8009 19.6461 29.3051 19.2286 29.9026 19.1499Z" fill="#231F20"/>
<rect x="31.9229" y="19" width="0.154206" height="5" fill="#231F20"/>
<path d="M42.355 35L44 43L41.7878 40.1839L41.1845 41.7862L40 36.3042C40.2299 36.364 40.4704 36.3771 40.7059 36.3426C41.4098 36.2426 41.9769 35.7444 42.355 35Z" fill="#FFC65A"/>
<path fill-rule="evenodd" clip-rule="evenodd" d="M34.0774 33.3555C34.1715 33.9805 34.3606 34.5884 34.6385 35.1591C35.1063 36.1038 35.7817 36.7673 36.4993 36.949C36.7004 37.0023 36.9107 37.014 37.1167 36.9833C37.72 36.8907 38.216 36.4467 38.5467 35.7832C38.9512 34.9774 39.1078 33.8424 38.9231 32.6423C38.5819 30.4443 37.2205 28.819 35.8837 29.0162C34.547 29.2134 33.7379 31.1558 34.0774 33.3555ZM37.961 32.7846C38.165 34.1116 37.6778 35.2826 36.8722 35.4009C36.0649 35.5191 35.2453 34.5385 35.0395 33.2132C34.8337 31.8879 35.3244 30.7169 36.13 30.5986C36.9355 30.4803 37.7569 31.4576 37.961 32.7846Z" fill="#FFC65A"/>
<path d="M37.9538 32.2769C38.1568 33.6529 37.672 34.8673 36.8704 34.9899C36.0689 35.1126 35.2516 34.101 35.0468 32.7213C34.842 31.3417 35.3286 30.1327 36.1319 30.01C36.9352 29.8874 37.749 30.9025 37.9538 32.2769Z" fill="#FFC65A"/>
<path d="M37 36.0593L35.5538 41L34.5135 38.4466L33 40.0455L34.8358 34C35.3845 35.087 36.1678 35.8518 37 36.0593Z" fill="#FFC65A"/>
<path d="M44 43L41.7882 40.15L41.1787 41.8037L40 36.2833L40.1399 36.2556L41.2151 41.2889L41.7422 39.8593L43.7374 42.4296L42.229 35.0259L42.3709 35L44 43Z" fill="#231F20"/>
<path d="M35.5782 41L34.5604 38.4447L33 40.1317L34.8259 34L34.9644 34.0401L33.3155 39.5802L34.6104 38.1794L35.5551 40.5553L36.8615 35.9905L37 36.0286L35.5782 41Z" fill="#231F20"/>
<path fill-rule="evenodd" clip-rule="evenodd" d="M36.4859 36.9474C36.6167 36.9821 36.7515 36.9997 36.8869 36.9997C36.962 37.0012 37.0371 36.9967 37.1114 36.9862C37.689 36.8968 38.1946 36.4799 38.5374 35.8048L38.5596 35.7558C38.9675 34.9254 39.0978 33.7896 38.9264 32.6402C38.7962 31.6582 38.4068 30.7271 37.797 29.9397C37.2228 29.2477 36.5459 28.9203 35.8929 29.0165C34.5561 29.2156 33.7352 31.165 34.0779 33.3592C34.1712 33.9812 34.3572 34.5864 34.6298 35.155C35.1011 36.1136 35.7781 36.7668 36.4859 36.9474ZM35.9117 29.1431C35.9798 29.133 36.0486 29.1279 36.1174 29.1279C36.6607 29.1279 37.2143 29.4384 37.6959 30.0241C38.2899 30.7923 38.6682 31.7009 38.7927 32.6587C38.9641 33.7896 38.8339 34.9018 38.4311 35.7136L38.4123 35.7541C38.09 36.3871 37.6187 36.7786 37.0857 36.858C36.8942 36.8869 36.6986 36.8759 36.5116 36.8259C35.8398 36.6537 35.1936 36.0259 34.7395 35.0993C34.4711 34.5429 34.2885 33.9501 34.1979 33.3406C33.8791 31.214 34.6452 29.3304 35.9117 29.1431Z" fill="#231F20"/>
<path fill-rule="evenodd" clip-rule="evenodd" d="M35.0465 32.7261C35.2287 34.0232 35.9643 34.9999 36.7182 34.9999C36.7652 35.0003 36.8121 34.9969 36.8586 34.9895C37.2531 34.9289 37.5824 34.6068 37.7864 34.0873C37.9939 33.5084 38.0515 32.8832 37.9535 32.2741C37.7529 30.9008 36.9422 29.8842 36.1415 30.0106C35.7486 30.0712 35.4193 30.3934 35.2137 30.9129C35.0061 31.4918 34.9484 32.1169 35.0465 32.7261ZM36.1548 30.1388C36.194 30.1319 36.2337 30.1284 36.2735 30.1284C36.9556 30.1284 37.6359 31.0601 37.8265 32.2931C37.9239 32.8784 37.8709 33.4798 37.6727 34.0371C37.4788 34.515 37.1846 34.8077 36.8369 34.8614C36.103 34.9757 35.3558 34.0094 35.1652 32.707C35.0678 32.1212 35.1208 31.5192 35.319 30.9614C35.5129 30.4851 35.8071 30.1925 36.1548 30.1388Z" fill="#231F20"/>
<g style="mix-blend-mode:color">
<rect x="1" width="153" height="111" fill="#12CA70"/>
</g>
</svg>
