<svg xmlns="http://www.w3.org/2000/svg" width="141" height="101" viewBox="0 0 141 101">
    <g fill="none" fill-rule="evenodd">
        <g fill-rule="nonzero">
            <g>
                <g>
                    <g fill="#231F20" opacity=".21">
                        <path d="M42.547 0.002L138.911 37.811 96.505 80.941 0.141 43.131z" transform="translate(-204 -874) translate(20 276) translate(184.5 598) translate(.5 20)"/>
                    </g>
                    <path fill="#18A058" d="M139.5 51L139.5 52.925 137.5 53zM5.5 56.822L.5 57 .5 55z" transform="translate(-204 -874) translate(20 276) translate(184.5 598)"/>
                    <path fill="#18A058" d="M139.5 50.851L137.455 52.93 5.148 58 .5 56.177 42.976 13zM139.5 53L96.5 96 96.5 94.009 137.43 53.077zM136.5 53L96.163 94 4.5 58.058z" transform="translate(-204 -874) translate(20 276) translate(184.5 598)"/>
                    <path fill="#18A058" d="M96.5 93.055L96.5 95 0.5 58.173 5.123 58z" transform="translate(-204 -874) translate(20 276) translate(184.5 598)"/>
                    <path fill="#231F20" d="M97.015 96L96.974 95.983 0.5 58.403 0.55 58.271 96.981 95.834 139.401 53 139.5 53.1z" transform="translate(-204 -874) translate(20 276) translate(184.5 598)"/>
                    <path fill="#231F20" d="M96.993 94l-.041-.017L.5 56.174 43.007 13l.041.017L139.5 50.818 96.993 94zM.749 56.13l96.21 37.704 42.292-42.965-96.21-37.703L.749 56.13zM96.43 94H97.43V96H96.43zM139.43 51H140.43V53H139.43z" transform="translate(-204 -874) translate(20 276) translate(184.5 598)"/>
                    <path fill="#231F20" d="M0.43 55H1.43V57H0.43z" transform="translate(-204 -874) translate(20 276) translate(184.5 598)"/>
                    <path fill="#18894B" d="M126.999 49c3.039 0 5.501 1.79 5.501 4.001 0 2.21-2.462 3.999-5.501 3.999s-5.499-1.79-5.499-3.999c.003-.56.159-1.11.451-1.588h.01c.844-1.425 2.784-2.413 5.038-2.413z" transform="translate(-204 -874) translate(20 276) translate(184.5 598)"/>
                    <path fill="#FFF" d="M122.025 52.53L121.975 52.53 121.975 52.47z" transform="translate(-204 -874) translate(20 276) translate(184.5 598)"/>
                    <path fill="#18894B" d="M122.5 51.898v.01l-31.468 31.34c-.33.21-.632.464-.897.752L17.5 56.093c.216-.37.349-.782.39-1.208l29.463-29.348c.97-.265 1.844-.798 2.523-1.537L122.5 51.898z" transform="translate(-204 -874) translate(20 276) translate(184.5 598)"/>
                    <path fill="#18894B" d="M94.001 82c3.037 0 5.499 1.791 5.499 4.001 0 2.21-2.462 3.999-5.499 3.999-3.037 0-5.501-1.79-5.501-3.999.014-.821.339-1.607.908-2.2l.102.038.814-.812c1.101-.688 2.378-1.045 3.677-1.026z" transform="translate(-204 -874) translate(20 276) translate(184.5 598)"/>
                    <path fill="#FFF" d="M91.5 83l-1.777 1-.223-.047c.59-.365 1.263-.686 2-.953zM51.5 20.999c-.013.79-.313 1.549-.846 2.133l-.723-.279-1.852 1.852c-.674.198-1.374.297-2.077.295-3.035 0-5.502-1.79-5.502-4.001 0-2.21 2.46-3.999 5.496-3.999 3.035 0 5.504 1.79 5.504 3.999zM49.658 24l.842.301c-.807.817-1.847 1.406-3 1.699l2.158-2z" transform="translate(-204 -874) translate(20 276) translate(184.5 598)"/>
                    <path fill="#18894B" d="M18.5 53.999c0 .097-.005.193-.017.289L17.48 55.29l.605.233C17.262 56.978 15.295 58 13.001 58 9.962 58 7.5 56.21 7.5 53.999 7.5 51.789 9.962 50 13 50c3.04 0 5.5 1.79 5.5 3.999z" transform="translate(-204 -874) translate(20 276) translate(184.5 598)"/>
                    <path fill="#18894B" d="M17.5 55.623l2-1.623c-.083.705-.353 1.388-.792 2l-1.208-.377z" transform="translate(-204 -874) translate(20 276) translate(184.5 598)"/>
                    <path fill="#231F20" d="M12.666 39.957L53.994 39.876 53.994 39.877 12.666 39.958z" transform="translate(-204 -874) translate(20 276) translate(184.5 598) rotate(-45 33.33 39.917)"/>
                    <path fill="#231F20" d="M54.357 31.15L54.357 31.15 54.256 108.236 54.255 108.236z" transform="translate(-204 -874) translate(20 276) translate(184.5 598) rotate(-68.9 54.306 69.693)"/>
                    <path fill="#231F20" d="M84.642 67.26L128.762 67.174 128.762 67.174 84.642 67.261z" transform="translate(-204 -874) translate(20 276) translate(184.5 598) rotate(-45 106.702 67.217)"/>
                    <path fill="#231F20" d="M86.399 -0.862L86.4 -0.862 86.298 76.205 86.298 76.205z" transform="translate(-204 -874) translate(20 276) translate(184.5 598) rotate(-68.9 86.349 37.671)"/>
                    <path fill="#231F20" d="M94.001 90c-3.034 0-5.501-1.793-5.501-3.999.014-.824.34-1.613.914-2.21.27-.296.58-.555.919-.77 1.099-.684 2.372-1.038 3.668-1.02 3.032 0 5.499 1.795 5.499 4 0 2.206-2.467 3.999-5.499 3.999zm0-7.858c-1.268-.017-2.514.329-3.59.995-.328.213-.627.467-.889.757-.55.57-.864 1.325-.877 2.115 0 2.128 2.404 3.857 5.358 3.857 2.954 0 5.356-1.73 5.356-3.857 0-2.128-2.404-3.867-5.358-3.867zM127.002 57c-3.033 0-5.502-1.794-5.502-4 .002-.563.16-1.115.457-1.595v-.011c.878-1.454 2.856-2.394 5.04-2.394 3.034 0 5.503 1.796 5.503 4 0 2.206-2.463 4-5.498 4zm-4.916-5.536c-.286.46-.439.991-.441 1.533 0 2.127 2.404 3.857 5.359 3.857 2.954 0 5.36-1.73 5.36-3.857 0-2.127-2.406-3.859-5.36-3.859-2.136.004-4.06.915-4.918 2.326zM13 58c-3.033 0-5.5-1.795-5.5-4s2.474-4 5.5-4c3.027 0 5.5 1.795 5.5 4 .001.098-.004.196-.017.293-.043.437-.18.86-.4 1.239C17.228 57.026 15.233 58 13 58zm0-7.858c-2.953 0-5.357 1.73-5.357 3.858s2.404 3.858 5.358 3.858c2.183 0 4.128-.945 4.949-2.394.212-.363.342-.767.38-1.184.016-.093.025-.186.027-.28 0-2.128-2.402-3.858-5.356-3.858zM45.999 25c-3.031 0-5.499-1.797-5.499-4.002S42.974 17 45.999 17c3.025 0 5.501 1.793 5.501 3.998-.011.793-.313 1.555-.849 2.143-.694.75-1.585 1.293-2.574 1.566-.675.196-1.375.295-2.078.293zm0-7.858c-2.953 0-5.356 1.728-5.356 3.856s2.403 3.858 5.356 3.858c.687.003 1.371-.093 2.03-.285.964-.265 1.833-.793 2.51-1.525.515-.56.805-1.289.818-2.048 0-2.122-2.405-3.856-5.358-3.856z" transform="translate(-204 -874) translate(20 276) translate(184.5 598)"/>
                    <path fill="#FFF" d="M43.5 15L139.5 51" transform="translate(-204 -874) translate(20 276) translate(184.5 598)"/>
                    <path fill="#231F20" d="M91.4 -19.966L91.401 -19.966 91.264 83.838 91.263 83.838z" transform="translate(-204 -874) translate(20 276) translate(184.5 598) rotate(-68.9 91.332 31.936)"/>
                    <g fill="#231F20" opacity=".15">
                        <path d="M21.372 0.09L111.875 35.006 90.505 56.379 0.004 21.46z" transform="translate(-204 -874) translate(20 276) translate(184.5 598) translate(13.5 25)"/>
                    </g>
                    <path fill="#C66D6D" d="M35.089 19.451L29.5 8 77.5 26.215 70.586 33 35.113 19.502z" transform="translate(-204 -874) translate(20 276) translate(184.5 598)"/>
                    <path fill="#B6D8DA" d="M118.5 50L118.5 54.665 113.177 60.012 113.177 57.218 108.027 62.392 108.027 65.186 101.245 72 100.925 71.678 99.5 69.087z" transform="translate(-204 -874) translate(20 276) translate(184.5 598)"/>
                    <path fill="#92C6CF" d="M118.5 50.189L99.899 69 99.5 68.274 115.533 52.058 117.567 50z" transform="translate(-204 -874) translate(20 276) translate(184.5 598)"/>
                    <path fill="#231F20" d="M111.947 50.903L113.75 49 113.782 49 115.5 51.661 100.02 68 98.5 65.096 103.135 60.205 103.135 60.203z" transform="translate(-204 -874) translate(20 276) translate(184.5 598)"/>
                    <path fill="#F49493" d="M114.5 48L114.5 49.925 114.465 49.925 112.5 52 112.5 50.112z" transform="translate(-204 -874) translate(20 276) translate(184.5 598)"/>
                    <path fill="#FFC65A" d="M114.5 43L114.5 47.933 112.5 50 112.5 49.817 112.5 45.067z" transform="translate(-204 -874) translate(20 276) translate(184.5 598)"/>
                    <path fill="#E08282" d="M102.813 52.912l4.972-5.062.124-.118v-.662l-9.844-3.866-.068-.092-5.057 5.148v.738l9.83 3.86.043.054zm7.18-15.08l4.507 5.963-1.909 1.942-9.164 9.33L98.574 60l-8.782-1.474-7.292-2.86v-.051l20.24-20.59.024-.025 7.23 2.831z" transform="translate(-204 -874) translate(20 276) translate(184.5 598)"/>
                    <path fill="#FFF" d="M113.5 60L113.5 61.736 108.5 67 108.5 65.266zM113.5 57L113.5 59.806 108.5 65 108.5 62.194z" transform="translate(-204 -874) translate(20 276) translate(184.5 598)"/>
                    <path fill="#231F20" d="M111.5 50.429L111.5 52.089 102.5 61 102.5 59.343 102.5 54.913 111.5 46 111.5 50.265zM107.5 47L107.5 47.566 107.38 47.667 102.547 52 102.5 51.958 102.5 51.326z" transform="translate(-204 -874) translate(20 276) translate(184.5 598)"/>
                    <path fill="#C66D6D" d="M107.5 47.513L102.346 52 92.5 48.573 97.571 44 97.639 44.081z" transform="translate(-204 -874) translate(20 276) translate(184.5 598)"/>
                    <path fill="#F49493" d="M103.5 59.781L103.5 61.405 103.5 61.407 98.662 66 98.63 65.946 91.928 65.34 82.5 61.885 82.5 56 89.817 58.681 99.23 63.836z" transform="translate(-204 -874) translate(20 276) translate(184.5 598)"/>
                    <path fill="#FFC65A" d="M103.5 55L103.5 59.136 99.116 63 98.5 59.405z" transform="translate(-204 -874) translate(20 276) translate(184.5 598)"/>
                    <path fill="#C66D6D" d="M102.5 52.198L102.5 53 92.5 48.802 92.5 48z" transform="translate(-204 -874) translate(20 276) translate(184.5 598)"/>
                    <path fill="#231F20" d="M97.876 32.803L97.903 32.814 102.455 34.623 102.5 34.669 82.843 54.962 82.843 55 82.75 54.962 77.507 47.361 77.5 47.357 93.344 31z" transform="translate(-204 -874) translate(20 276) translate(184.5 598)"/>
                    <path fill="#C66D6D" d="M97.357 27.007L102.5 34 98.035 32.337 98.008 32.326 96.5 27.826 97.325 27.028 97.337 27z" transform="translate(-204 -874) translate(20 276) translate(184.5 598)"/>
                    <path fill="#B6D8DA" d="M101.5 71.718L99.615 74 99.5 74 99.5 71 101.185 71.336z" transform="translate(-204 -874) translate(20 276) translate(184.5 598)"/>
                    <path fill="#B6D8DA" d="M99.832 69L101.5 72 99.5 71.672 99.5 69.33z" transform="translate(-204 -874) translate(20 276) translate(184.5 598)"/>
                    <path fill="#92C6CF" d="M98.507 69.404L98.5 69.401 99.772 68 100.5 69.442 99.993 70zM99.5 71.084L99.5 74 98.5 71z" transform="translate(-204 -874) translate(20 276) translate(184.5 598)"/>
                    <path fill="#92C6CF" d="M99.5 69.392L99.5 72 98.965 71.906 98.5 69z" transform="translate(-204 -874) translate(20 276) translate(184.5 598)"/>
                    <path fill="#92C6CF" d="M98.965 71.073L99.5 74 98.5 73.655 98.5 71z" transform="translate(-204 -874) translate(20 276) translate(184.5 598)"/>
                    <path fill="#C66D6D" d="M97.975 65.65L99.5 68.333 98.824 68.989 98.828 68.991 98.828 71 92.765 70.029 91.5 65 97.944 65.597z" transform="translate(-204 -874) translate(20 276) translate(184.5 598)"/>
                    <path fill="#92C6CF" d="M98.5 69L99.5 72 98.5 71.913z" transform="translate(-204 -874) translate(20 276) translate(184.5 598)"/>
                    <path fill="#FFC65A" d="M97.927 59.34L98.5 63 89.5 58 97.927 59.338z" transform="translate(-204 -874) translate(20 276) translate(184.5 598)"/>
                    <path fill="#E08282" d="M71.848 37.378l7.787 2.847 9.875-9.358-7.811-2.863-.017.042-9.834 9.318v.014zm2.85 8.661L62.93 41.736V47l-.43-.157v-5.52l8.227-7.778 7.07-6.685.979-.923L82.949 22 96.5 27.154l-.013.028-.878.829-3.108 2.945-16.453 15.579-1.35-.496z" transform="translate(-204 -874) translate(20 276) translate(184.5 598)"/>
                    <path fill="#C66D6D" d="M83.872 65.771L82.5 65.311 82.5 61 92.153 64.226 93.5 69 83.868 65.781z" transform="translate(-204 -874) translate(20 276) translate(184.5 598)"/>
                    <path fill="#231F20" d="M89.5 30.273L79.996 41 72.5 37.737 72.502 37.729 81.966 27.049 81.982 27z" transform="translate(-204 -874) translate(20 276) translate(184.5 598)"/>
                    <path fill="#C66D6D" d="M82.5 61.82L82.5 67 63.5 59.182 63.5 54z" transform="translate(-204 -874) translate(20 276) translate(184.5 598)"/>
                    <path fill="#F49493" d="M77.676 52.658L80.412 53.75 82.404 54.546 82.5 54.585 82.5 61 63.5 53.404 63.5 47 63.928 47.171z" transform="translate(-204 -874) translate(20 276) translate(184.5 598)"/>
                    <path fill="#F49493" d="M76.896 47.512L76.904 47.516 82.5 55 80.44 54.244 77.611 53.207 75.5 47zM79.5 25.06L78.528 26 29.742 7.737 28.5 6z" transform="translate(-204 -874) translate(20 276) translate(184.5 598)"/>
                    <path fill="#231F20" d="M74.422 46.591L76.5 53 62.5 47.616 62.506 47.603 62.506 42z" transform="translate(-204 -874) translate(20 276) translate(184.5 598)"/>
                    <path fill="#AA5E5E" d="M71.5 33.573L63.434 41.485 63.434 46 24.5 31.23 24.511 31.2 35.9 20 35.932 20.044z" transform="translate(-204 -874) translate(20 276) translate(184.5 598)"/>
                    <path fill="#C66D6D" d="M63.5 53.802L63.5 59 58.782 57.3 58.782 57.298 58.5 52z" transform="translate(-204 -874) translate(20 276) translate(184.5 598)"/>
                    <path fill="#C66D6D" d="M63.5 48.802L63.5 55 58.833 53.311 58.5 47.028 58.512 47z" transform="translate(-204 -874) translate(20 276) translate(184.5 598)"/>
                    <path fill="#F49493" d="M62.5 45.878L62.5 47 57.849 45.224 7.5 26 10.524 26 10.981 26.174 23.142 30.826z" transform="translate(-204 -874) translate(20 276) translate(184.5 598)"/>
                    <path fill="#231F20" d="M59.256 52.144L59.5 57 58.55 56.639 56.5 49.142 58.947 46z" transform="translate(-204 -874) translate(20 276) translate(184.5 598)"/>
                    <path fill="#F49493" d="M58.5 44.867L58.489 44.894 56 48 7.5 29.556 7.5 26z" transform="translate(-204 -874) translate(20 276) translate(184.5 598)"/>
                    <path fill="#E08282" d="M57.5 57L14.435 40.766 7.5 31 55.439 49.547z" transform="translate(-204 -874) translate(20 276) translate(184.5 598)"/>
                    <path fill="#C66D6D" d="M35.5 19.992L35.492 20 28.5 9.9 28.5 9.259 29.756 8zM28.512 10L35.5 20.177 23.834 31.967 23.822 32 11.5 27.195 11.5 27.193z" transform="translate(-204 -874) translate(20 276) translate(184.5 598)"/>
                    <path fill="#F49493" d="M28.233 8.984L10.593 26 7.5 26 28.233 6 29.5 7.762z" transform="translate(-204 -874) translate(20 276) translate(184.5 598)"/>
                    <path fill="#C66D6D" d="M28.5 9L28.5 9.615 11.95 25.998 11.95 26 11.5 25.828z" transform="translate(-204 -874) translate(20 276) translate(184.5 598)"/>
                    <path fill="#231F20" d="M32.045 13.95L32.045 13.95 31.976 65.411 31.975 65.411z" transform="translate(-204 -874) translate(20 276) translate(184.5 598) rotate(-68.4 32.01 39.68)"/>
                    <path fill="#231F20" d="M58.367 57L57.848 46.376 55.646 49.29 57.592 56.624 57.463 56.66 55.5 49.261 57.964 46 58.5 56.993zM76.601 47L76.5 46.904 96.403 27 96.5 27.099z" transform="translate(-204 -874) translate(20 276) translate(184.5 598)"/>
                    <path fill="#231F20" d="M100.534 55.232L116.144 55.202 116.144 55.203 100.534 55.233z" transform="translate(-204 -874) translate(20 276) translate(184.5 598) rotate(-45 108.339 55.217)"/>
                    <path fill="#231F20" d="M96.978 63.186L103.84 63.173 103.84 63.173 96.978 63.187z" transform="translate(-204 -874) translate(20 276) translate(184.5 598) rotate(-45 100.409 63.18)"/>
                    <path fill="#231F20" d="M70.266 32.946L84.059 32.919 84.059 32.92 70.266 32.947z" transform="translate(-204 -874) translate(20 276) translate(184.5 598) rotate(-45 77.162 32.933)"/>
                    <path fill="#231F20" d="M81.597 55L81.5 54.903 101.403 35 101.5 35.099 101.476 35.123zM90.449 69L57.007 56.282 13.523 39.745 13.51 39.726 6.5 29.766 6.5 26 79.203 53.605 79.152 53.736 6.642 26.205 6.642 29.721 13.616 39.629 57.058 56.152 62.171 58.096 81.306 65.372 82.654 65.887 90.5 68.87z" transform="translate(-204 -874) translate(20 276) translate(184.5 598)"/>
                    <path fill="#231F20" d="M82.383 56L76.866 47.695 63.644 42.226 63.644 48.148 63.5 48.148 63.5 42 63.598 42.041 76.951 47.564 76.972 47.586 82.5 55.91z" transform="translate(-204 -874) translate(20 276) translate(184.5 598)"/>
                    <path fill="#231F20" d="M62.353 47L10.5 26.745 29.013 8 29.056 8.017 77.5 26.94 77.45 27.072 29.048 8.166 10.752 26.692 11.106 26.83 62.403 46.868zM102.5 53l-10-4.072V48l10 4.072V53zm-9.863-4.175l9.718 3.965v-.605l-9.718-3.965v.605z" transform="translate(-204 -874) translate(20 276) translate(184.5 598)"/>
                    <path fill="#231F20" d="M98.599 60L98.5 59.898 114.313 43.811 109.877 37.95 102.696 35.133 102.747 35 109.964 37.833 114.5 43.822zM98.36 64L97.766 60.131 88.963 58.709 79.5 55.13 79.551 55 89.001 58.576 97.9 60.013 97.9 60.072 98.5 63.978zM99.377 69L97.786 66.162 91.138 65.536 58.5 53.129 58.55 53 91.18 65.403 97.872 66.031 97.922 66.118 99.5 68.934zM99.479 71L93.472 69.918 84.5 66.137 84.548 66 93.508 69.777 99.5 70.855zM79.432 41L79.388 40.982 71.5 37.743 71.551 37.601 71.586 37.616 79.396 40.822 89.243 30.34 81.469 27.148 81.505 27 89.5 30.283z" transform="translate(-204 -874) translate(20 276) translate(184.5 598)"/>
                    <path fill="#231F20" d="M62.638 58L62.5 58 62.5 41.668 62.52 41.648 82.403 22 82.5 22.096 62.638 41.726zM77.318 54L77.295 53.952 74.5 48.021 74.6 48.021 74.687 48 77.5 53.958z" transform="translate(-204 -874) translate(20 276) translate(184.5 598)"/>
                    <path fill="#231F20" d="M71.449 34L35.456 19.851 35.413 19.788 28.5 9.666 28.5 9.002 28.64 9 28.64 9.62 35.546 19.733 71.5 33.867z" transform="translate(-204 -874) translate(20 276) translate(184.5 598)"/>
                    <path fill="#231F20" d="M53.778 -11.228L53.779 -11.228 53.707 43.237 53.706 43.237z" transform="translate(-204 -874) translate(20 276) translate(184.5 598) rotate(-68.94 53.743 16.005)"/>
                    <path fill="#231F20" d="M102.5 36L92.943 32.079 92.993 31.94 102.118 35.682 96.888 27.861 96.843 27.839 83.5 22.139 83.552 22 96.983 27.74 96.99 27.756z" transform="translate(-204 -874) translate(20 276) translate(184.5 598)"/>
                    <path fill="#231F20" d="M97.346 33L97.329 32.953 95.5 28.043 95.654 28 97.5 32.957zM115.379 52L113.5 49.641 113.5 44 113.647 44 113.647 49.603 115.5 51.93zM99.106 63L89.5 58.112 89.573 58.002 99.081 62.842 103.357 59.068 103.357 55 103.5 55 103.5 59.12zM82.43 55H83.43V66H82.43zM111.5 50L111.5 45 111.639 45 111.639 49.639 113.402 47.747 113.5 47.852z" transform="translate(-204 -874) translate(20 276) translate(184.5 598)"/>
                    <path fill="#231F20" d="M102.625 60L102.625 58 103.375 58 103.375 59.998zM111.43 50H112.43V52H111.43zM102.327 52L102.231 51.91 107.246 47.57 97.584 44.226 97.553 44.19 92.598 48.633 92.5 48.543 97.567 44 97.671 44.123 107.5 47.524z" transform="translate(-204 -874) translate(20 276) translate(184.5 598)"/>
                    <path fill="#231F20" d="M102.594 53L102.5 52.901 102.583 52.809 107.368 47.633 107.368 47 107.5 47 107.5 47.694 107.362 47.834zM100.393 75L98.5 74.671 98.5 70 98.808 70 98.808 74.57 100.5 74.864zM100.365 70L99.586 69.691 99.5 69.646 99.557 69.571 117.57 50 118.5 50.202 118.473 50.346 117.615 50.159 99.725 69.592 100.412 69.864z" transform="translate(-204 -874) translate(20 276) translate(184.5 598)"/>
                    <path fill="#231F20" d="M113.593 60L113.5 59.897 118.369 54.604 118.369 50 118.5 50 118.5 54.663zM99.694 74L99.5 74 99.5 69.826 99.628 69.826 99.628 73.87 99.642 73.87 107.41 66 107.5 66.09z" transform="translate(-204 -874) translate(20 276) translate(184.5 598)"/>
                    <path fill="#231F20" d="M95.775 59.979L122.582 59.927 122.582 59.928 95.775 59.98z" transform="translate(-204 -874) translate(20 276) translate(184.5 598) rotate(-45 109.179 59.954)"/>
                    <path fill="#231F20" d="M108.5 67v-4.692l5-5.308v4.69l-5 5.31zm.135-4.633v4.291l4.73-5.02v-4.29l-4.73 5.019z" transform="translate(-204 -874) translate(20 276) translate(184.5 598)"/>
                    <path fill="#231F20" d="M91.973 64.818L91.973 64.818 91.968 70.349 91.968 70.349z" transform="translate(-204 -874) translate(20 276) translate(184.5 598) rotate(-13.73 91.97 67.584)"/>
                    <path fill="#231F20" d="M10.643 26L7.5 26 27.627 6 28.894 7.814 34.5 19.414 34.375 19.473 34.351 19.422 28.777 7.882 27.609 6.212 7.833 25.863 10.643 25.863z" transform="translate(-204 -874) translate(20 276) translate(184.5 598)"/>
                    <path fill="#231F20" d="M8.079 18.292L31.84 18.246 31.84 18.247 8.079 18.293z" transform="translate(-204 -874) translate(20 276) translate(184.5 598) rotate(-45 19.96 18.27)"/>
                    <path fill="#231F20" d="M23.602 31L23.5 30.9 35.398 19 35.5 19.102 35.475 19.129z" transform="translate(-204 -874) translate(20 276) translate(184.5 598)"/>
                    <path fill="#4599DD" d="M43.359 22.579L43.5 26 41.3 25.554 40.641 25.421 40.5 22z" transform="translate(-204 -874) translate(20 276) translate(184.5 598)"/>
                    <path fill="#4599DD" d="M44.497 27l-2.946-.572v-.062c0-.109-.012-.22-.019-.332v-.116c0-.128-.012-.257-.017-.388l-.015-.36v-.108V25l2.267.442.169-.194.507.1v.032c0 .082 0 .165.008.247v.11l.015.357c0 .13.012.26.017.388v.116c0 .111.01.222.017.328l-.003.074zM41.614 19.118c0-.038.008-.08.011-.118l2.875.683c0 .04 0 .078-.012.119-.04.385-.08.774-.115 1.164V21l-2.873-.683v-.035c.033-.39.07-.776.114-1.164zM41.51 21L44.5 21.826 44.49 22 41.5 21.174z" transform="translate(-204 -874) translate(20 276) translate(184.5 598)"/>
                    <path fill="#4599DD" d="M44.409 21.89c0 .037 0 .073-.009.11l-2.9-.689c0-.037 0-.073.008-.11.025-.372.054-.744.085-1.114 0-.03 0-.057.008-.087l2.899.689v.087c-.038.37-.067.74-.091 1.114zM44.474 28.316c.009.235.016.466.026.684l-2.974-1.278c-.01-.222-.017-.448-.026-.688V27l2.974 1.26v.056z" transform="translate(-204 -874) translate(20 276) translate(184.5 598)"/>
                    <path fill="#4599DD" d="M44.5 27.877L43.767 29 40.5 28.12 41.233 27zM45.5 21.717L44.301 23 40.5 22.283 41.699 21z" transform="translate(-204 -874) translate(20 276) translate(184.5 598)"/>
                    <path fill="#4599DD" d="M43.361 28.58L43.5 32 41.809 31.657 40.639 31.42 40.5 28zM45.614 35.608c.042.06.082.119.124.174.042.054.052.071.08.105.028.034.086.104.13.154l.079.09c.049.052.096.099.145.146.049.047.047.049.072.07.068.062.138.12.208.175l.016.011c.073.056.15.109.229.156l.075.042c.054.03.109.06.165.084.056.025.06.029.09.04l.156.06.098.03c.052.015.104.029.158.04L47.5 37l-3.052-.565c-1.25-.228-2.274-1.507-2.948-3.785l1.804.33.945-.98c.037.177.075.348.115.516l.042.16c.028.113.056.222.086.332l.053.177c.028.097.057.188.087.288l.056.175.095.267.057.16c.035.093.072.189.109.268l.052.13c.055.122.109.24.165.354v.013c.06.119.119.232.175.339.019.036.04.068.06.102.041.071.085.143.129.209l.084.118zM44.339 20l-2.839-.668.01-.087c.044-.388.09-.773.14-1.156 0-.029.008-.06.013-.089l2.837.668c-.002.03-.006.06-.011.09-.05.382-.096.768-.14 1.155l-.01.087zM45.48 13.77c-.082.31-.165.627-.244.947l-.047.19c-.081.333-.16.672-.235 1.012l-.018.081-3.436-.697.018-.084c.075-.34.153-.676.234-1.01l.048-.191c.078-.32.161-.637.246-.948l.018-.07 3.436.697c-.006.028-.012.049-.02.072z" transform="translate(-204 -874) translate(20 276) translate(184.5 598)"/>
                    <path fill="#4599DD" d="M45.454 15.754l-.106.406-.07.27c-.033.135-.064.272-.098.407-.012.055-.027.108-.04.163l-3.64-.588.038-.162c.033-.135.064-.27.098-.406l.069-.272.106-.404c.015-.056.032-.113.046-.168l3.643.588-.046.166zM49.786 7L46.5 6.175c.023-.043.047-.08.07-.121.079-.139.16-.282.243-.412.037-.065.077-.13.117-.191.072-.119.146-.234.22-.347L47.222 5l3.278.825-.068.107-.22.344-.119.192c-.081.135-.16.281-.241.414L49.786 7zM45.5 17.639l-.013.072c-.086.397-.165.793-.24 1.195 0 .017 0 .036-.01.056V19l-3.737-.639c0-.032.01-.062.017-.094.074-.4.154-.798.238-1.192 0-.026.013-.05.017-.075l3.728.639zM47.442 8.611c-.056.1-.112.202-.175.304l-.092.172c-.06.118-.122.237-.175.356l-.067.13c-.08.163-.16.329-.238.496l-.05.11c-.06.134-.12.268-.175.405l-.079.18-.145.346c-.028.066-.055.131-.08.199-.048.117-.094.236-.14.355l-.073.193c-.051.137-.102.275-.151.413-.018.048-.035.095-.05.143-.068.187-.13.376-.192.566V13l-3.06-.518v-.02c.062-.19.125-.378.192-.567l.049-.14c.05-.14.1-.277.153-.415l.073-.194c.046-.119.091-.238.139-.355.026-.066.052-.133.08-.199.048-.117.097-.234.146-.345l.079-.181c.06-.136.12-.271.175-.406.018-.036.034-.072.05-.107.078-.172.157-.334.238-.498l.065-.128.184-.357.091-.173c.055-.104.11-.205.176-.306.017-.03.035-.06.05-.091l3.06.518-.058.093z" transform="translate(-204 -874) translate(20 276) translate(184.5 598)"/>
                    <path fill="#4599DD" d="M49.953 6L46.5 4.817l.055-.091.189-.296.09-.134.163-.229.052-.067L50.5 5.164l-.08.11c-.033.044-.065.095-.098.142l-.07.099c-.06.09-.124.19-.186.288l-.087.138-.026.059z" transform="translate(-204 -874) translate(20 276) translate(184.5 598)"/>
                    <path fill="#4599DD" d="M46.834 4.291l.164-.268.016-.023L50.5 5.134c-.054.08-.106.17-.162.261l-.078.129-.022.034-.084.15c-.054.092-.11.19-.166.292L46.5 4.885c.087-.157.17-.304.252-.443l.082-.15z" transform="translate(-204 -874) translate(20 276) translate(184.5 598)"/>
                    <path fill="#4599DD" d="M47.783 4.264c.049-.067.099-.125.147-.183L47.996 4 51.5 5.342l-.032.04-.09.108-.06.076-.037.05-.103.138c-.034.045-.07.094-.104.148l-.05.071-.02.027L47.5 4.68l.044-.071.143-.202.096-.143zM44.662 7l3.838.528-.053.061c-.046.055-.095.11-.14.166l-.168.2-.139.176-.158.19-.137.176-.158.215c-.047.061-.09.123-.135.184L47.34 9l-3.84-.528.073-.102c.044-.061.088-.125.134-.186l.158-.213c.045-.062.09-.121.137-.176.046-.054.108-.139.163-.207l.139-.176.167-.2.14-.166.051-.046z" transform="translate(-204 -874) translate(20 276) translate(184.5 598)"/>
                    <path fill="#4599DD" d="M50.485 5.727c-.118.179-.234.365-.35.555l-.088.149c-.09.153-.184.31-.27.47L49.72 7l-3.22-.706.055-.099c.09-.16.185-.317.27-.47.03-.047.057-.097.087-.146.116-.19.233-.377.351-.555L47.278 5l3.222.694-.015.033zM49.767 4.054c.054-.02.107-.04.16-.054h.014l3.559.845h-.012l-.06.02-.083.03h-.017l-.05.02-.076.034-.088.037-.028.014h-.025L49.5 4.155c.074-.034.145-.068.216-.096l.051-.005z" transform="translate(-204 -874) translate(20 276) translate(184.5 598)"/>
                    <path fill="#4599DD" d="M52.035 5L48.5 4.252 48.52 4.239 48.662 4.155 48.745 4.107 48.912 4.025 48.962 4 52.5 4.748 52.407 4.793 52.328 4.833 52.283 4.855 52.202 4.903 52.131 4.945 52.084 4.973z" transform="translate(-204 -874) translate(20 276) translate(184.5 598)"/>
                    <path fill="#4599DD" d="M49.776 4.032L49.901 4.016 49.94 4.016 53.5 4.949 53.428 4.949 53.39 4.949 53.214 4.978 53.14 5 53.126 5 53.066 5 49.5 4.051 49.557 4.035 49.696 4zM47.865 28l3.635 1.288c-.017.034-.033.077-.052.111-.098.198-.196.378-.294.545l-.03.056-3.607-1.262-.017-.056c.098-.176.209-.36.3-.562l.065-.12z" transform="translate(-204 -874) translate(20 276) translate(184.5 598)"/>
                    <path fill="#4599DD" d="M47.704 29.43c-.075-.137-.143-.281-.204-.43l3 .687c-.037.042-.073.08-.11.118-.036.037-.071.075-.108.108-.03.031-.061.06-.093.087l-2.485-.57z" transform="translate(-204 -874) translate(20 276) translate(184.5 598)"/>
                    <path fill="#4599DD" d="M48.5 29l3 .712-.099.094-.1.085-.032.024-.067.05-.05.035-2.406-.57c-.09-.136-.171-.279-.246-.43zM48.813 27l3.687 1.313-.06.149-.042.1c-.07.162-.137.311-.211.438L48.5 27.687c.07-.144.138-.298.212-.438.014-.03.027-.065.042-.1l.06-.149z" transform="translate(-204 -874) translate(20 276) translate(184.5 598)"/>
                    <path fill="#4599DD" d="M48.5 29l2 .74-.047.058-.082.084-.033.03-.055.046-.055.042-1.52-.561c-.074-.136-.143-.283-.208-.439zM49.79 27.48c.039-.094.08-.19.117-.293l.077-.187 3.516.863-.075.19-.117.292-.125.292c-.042.1-.08.182-.12.267l-.047.096-3.516-.863.044-.096.121-.27.125-.291zM53.23 27l-3.73-.545.058-.095.064-.103c.064-.102.124-.205.184-.31l.034-.06c.071-.123.143-.25.214-.382.02-.035.037-.069.054-.104l.096-.194L51.65 24l2.85.418-.047.13-.05.127c-.05.13-.104.262-.158.39l-.017.042c-.06.14-.122.28-.184.416l-.053.111c-.05.107-.1.21-.152.314-.017.034-.034.069-.054.104-.066.13-.134.259-.214.382l-.034.06c-.06.105-.12.208-.184.31-.019.033-.04.068-.064.102-.023.033-.04.063-.06.094z" transform="translate(-204 -874) translate(20 276) translate(184.5 598)"/>
                    <path fill="#4599DD" d="M52.139 29L48.5 27.857c.06-.133.123-.274.184-.419.004-.01.008-.02.01-.03.057-.134.111-.267.165-.408l3.641 1.124c-.054.137-.107.278-.16.411l-.013.027c-.063.145-.126.282-.188.438zM48.785 30.478c-.1-.145-.194-.305-.285-.478l2 .79c-.044.038-.09.086-.133.113h-.026l-.103.06-.076.037-1.377-.522zM52.5 22l2 .465c-.02.177-.043.356-.067.535l-1.912-.445L52.5 22z" transform="translate(-204 -874) translate(20 276) translate(184.5 598)"/>
                    <path fill="#4599DD" d="M53.912 22.095L57.5 23 54.714 22.816 52.508 22.258 52.5 22zM54.498 23.562c-.049.43-.105.852-.16 1.277l-.023.161-1.815-.572.268-.486-.025-.942 1.757.555s0 .007-.002.007z" transform="translate(-204 -874) translate(20 276) translate(184.5 598)"/>
                    <path fill="#4599DD" d="M54.5 22.665c0 .039 0 .073-.01.111-.039.41-.08.815-.125 1.224l-1.83-.608L52.5 22l2 .665zM52.558 24l1.942.447c-.012.06-.024.12-.034.18l-.082.408c-.028.137-.05.237-.076.355l-.09.403-.049.207-2.669-.616L52.558 24zM52.5 20.365L47.6 25c-.034-.32-.053-.691-.072-1.066-.02-.41-.038-.784-.022-1.23L50.354 20l2.146.365zM51.5 14.53l-5 4.47c.285-1.717.818-3.391 1.586-4.977l.027-.023 3.387.53zM53.235 11.278c.015.032.03.064.043.099l.03.069.04.108.027.069.044.123.02.062c.022.063.041.127.061.192l-2.868-.647c-.042-.14-.086-.274-.132-.401.038-.052.076-.106.115-.155.512-.647 1.012-.878 1.462-.772l.073.021h.03c.035.012.07.027.103.043h.01l.09.05.033.021.064.046.038.03.06.047.037.035.056.056c.013.012.025.025.036.039l.058.062c.012.013.023.027.033.041.021.024.042.05.06.078l.027.037c.03.038.057.08.085.123.025.04.051.081.076.127.01.015.019.03.026.047.018.033.037.063.053.097l.03.058c.014.033.03.063.046.098l.034.097z" transform="translate(-204 -874) translate(20 276) translate(184.5 598)"/>
                    <path fill="#52AAFF" d="M46.34 24.284c.02.407.041.81.079 1.155l5.397-5.022.074 1.487v.154l.021.397.034.667.025.494-.271.254-1.002.93-1.283 1.196-2.36 2.197c.1.255.217.504.352.743l.015.024c.067.116.141.228.222.335.067.094.142.183.222.267.07.075.146.146.226.211.075.059.153.113.235.163.08.045.163.085.249.119.103.038.21.066.32.082.039 0 .076.011.114.013h.131c.064 0 .127-.005.19-.013.032-.003.064-.008.095-.014.032 0 .065-.011.099-.02l.085-.02h.021c.058-.017.115-.036.17-.06l.06-.021.036-.015.089-.04.097-.05.06-.03.029-.015.091-.053c.03-.019.059-.037.09-.059.035-.02.069-.043.102-.068.04-.025.077-.053.117-.084.04-.031.086-.062.127-.095l.027-.024c.09-.071.178-.148.268-.232.017-.015.032-.033.047-.048.065-.06.125-.123.19-.183l.038-.042.053-.062c.057-.066.114-.132.17-.204l.012-.013c.05-.064.097-.131.146-.197l.044-.06.114-.167c.038-.057.078-.117.117-.183l.11-.183.07-.12c.018-.03.037-.06.054-.093s.04-.068.057-.1c.057-.101.11-.204.163-.308l.03-.059c.063-.122.124-.25.19-.379l.048-.102c.045-.103.09-.205.134-.311l.048-.11c.055-.136.11-.273.163-.412l.015-.042c.048-.127.095-.257.14-.387.016-.042.03-.084.044-.126l.042-.128.046-.14.085-.27.072-.238c.025-.08.051-.183.078-.275.01-.04.02-.08.032-.12l.023-.085c.057-.223.114-.445.163-.67.044-.196.084-.39.122-.586 0-.018 0-.035.01-.053.024-.128.047-.256.067-.383l2.57.11c-.772 4.24-2.312 9.109-5.24 11.835-1.4 1.303-2.721 1.83-3.867 1.607-.059-.01-.116-.024-.171-.038l-.107-.03c-.057-.018-.113-.036-.168-.058-.056-.022-.067-.024-.1-.039-.031-.014-.119-.053-.178-.082l-.081-.04c-.086-.046-.169-.097-.249-.152l-.017-.011c-.076-.053-.152-.11-.226-.17-.026-.02-.05-.044-.077-.068-.027-.024-.105-.092-.158-.141l-.085-.088c-.048-.05-.095-.099-.14-.15-.046-.051-.06-.068-.088-.103-.029-.034-.09-.11-.135-.168l-.08-.108c-.047-.064-.094-.134-.14-.203-.02-.033-.044-.064-.065-.1-.066-.104-.13-.213-.19-.329v-.013c-.06-.11-.119-.225-.178-.344l-.057-.126c-.04-.084-.08-.17-.117-.26l-.063-.156-.102-.26c-.021-.056-.042-.113-.061-.17-.032-.091-.065-.183-.095-.28l-.057-.172c-.032-.106-.063-.213-.093-.322l-.046-.156c-.043-.163-.085-.33-.125-.502l-1.025.952-.16-3.198.741-.692c-.011-.094-.019-.192-.028-.293v-.077c0-.1-.014-.205-.02-.31v-.11c0-.12-.013-.243-.018-.365l-.017-.337v-.105c0-.077 0-.155-.01-.232V26.14v-.11-.328l-.554.516-.19.183-.163-3.2 1.044-.97.011-.116c0-.029 0-.058.01-.087.028-.299.06-.594.096-.888v-.07-.027c.04-.313.086-.627.133-.936 0-.033.01-.064.014-.095l.011-.072c.052-.318.106-.635.163-.95.006-.024.01-.048.013-.073v-.033c0-.016 0-.033.01-.048.066-.346.137-.686.213-1.027l.047-.214c.03-.126.059-.254.09-.38l.062-.253.097-.38c.015-.05.028-.104.041-.157l.017-.064c.073-.267.148-.534.226-.796l.046-.15c.076-.253.155-.502.235-.747 0-.019.013-.037.02-.055v-.022c.065-.202.134-.403.206-.6.017-.052.036-.101.055-.153.053-.146.108-.293.163-.437l.08-.205c.05-.127.099-.253.15-.378l.087-.21c.051-.126.104-.25.158-.366l.085-.192c.065-.145.13-.288.19-.429l.053-.117c.085-.183.17-.353.258-.527l.072-.138c.065-.126.131-.252.19-.377l.099-.183c.058-.108.12-.216.19-.322l.054-.097.063-.108c.038-.064.076-.128.116-.192l.136-.224c.038-.062.078-.124.118-.183l.14-.216.12-.183.144-.209.122-.172c.04-.057.068-.095.104-.14.091-.125.19-.248.277-.367l.09-.115c.119-.149.239-.293.36-.432l.085-.097c.082-.092.162-.183.243-.27l.12-.124.222-.223.205-.198c.053-.05.106-.097.157-.141.052-.044.067-.06.101-.09l.074-.062c.053-.044.103-.088.154-.126l.024-.02.084-.065c.059-.045.12-.091.178-.133l.067-.046.095-.066.076-.051.019-.011.047-.03.099-.06.096-.057.035-.02.057-.03.055-.028.03-.017.03-.016.053-.026.027-.031.059-.026.118-.05.074-.03.087-.033h.026l.027-.01.082-.023.07-.022.062-.015.078-.02.122-.024h.013l.068-.013.164-.016H52.74l.145.01h.057l.081.01c1.198.196 2.088 1.346 2.731 2.798l-2.325 4.707c-.022-.055-.045-.11-.07-.163l-.023-.053-.05-.105-.031-.058-.048-.092-.034-.058c-.015-.03-.032-.057-.05-.085l-.033-.055c-.017-.029-.036-.054-.053-.082l-.035-.05c-.019-.029-.04-.054-.06-.082l-.03-.04-.088-.108c-.032-.037-.065-.071-.099-.104l-.03-.032c-.022-.023-.045-.045-.07-.065-.012-.013-.025-.025-.038-.035l-.067-.053c-.013-.012-.027-.023-.041-.033l-.065-.048-.044-.03-.068-.04-.044-.025-.074-.039-.038-.018-.104-.042h-.011c-.039-.014-.078-.026-.118-.037h-.036l-.084-.018c-.52-.09-1.096.105-1.687.656-.045.042-.089.087-.133.131-.737.757-1.34 1.625-1.787 2.57-.754 1.615-1.278 3.321-1.558 5.072l4.894-4.557.163 3.2-2.24 2.082-3.136 2.93c-.012.476.007.88.03 1.325z" transform="translate(-204 -874) translate(20 276) translate(184.5 598)"/>
                    <path fill="#231F20" d="M57.475 23L53.899 22.262 52.5 22.188 52.508 22 53.915 22.078 57.5 22.815zM50.3 30.905c-.21 0-.41 0-.62-.07l.09-.74c.182.033.366.057.55.07l-.02.74z" transform="translate(-204 -874) translate(20 276) translate(184.5 598)"/>
                    <path fill="#231F20" d="M50.02 30.865L49.88 30.125 50.12 30.125 50.12 30.875z" transform="translate(-204 -874) translate(20 276) translate(184.5 598)"/>
                    <path fill="#231F20" d="M50.295 30.962h-.017l-.778-.401.03-.561.777.402h.173l.02.56c-.067 0-.13 0-.195.038l-.01-.038z" transform="translate(-204 -874) translate(20 276) translate(184.5 598)"/>
                    <path fill="#231F20" d="M50.025 30.853l-.2-.72c.076-.008.154-.008.23 0l.12.74-.15-.02zM50.795 30.96l-.2-.72c.123-.034.243-.078.36-.13l.19-.07.26.7-.17.07c-.142.062-.29.112-.44.15z" transform="translate(-204 -874) translate(20 276) translate(184.5 598)"/>
                    <path fill="#231F20" d="M50.372 31L48.5 30.425 48.537 30 50.369 30.575 50.456 30.54 50.5 30.966 50.406 31z" transform="translate(-204 -874) translate(20 276) translate(184.5 598)"/>
                    <path fill="#231F20" d="M50.59 29.817L50.59 29.817 50.59 29.818 50.59 29.818z" transform="translate(-204 -874) translate(20 276) translate(184.5 598) rotate(-29.13 50.59 29.818)"/>
                    <path fill="#231F20" d="M50.407 30L48.5 29.333 48.526 29 50.396 29.658 50.444 29.622 50.5 29.937 50.426 29.991zM50.975 29.97L50.555 29.35 51.025 29.03 51.445 29.65z" transform="translate(-204 -874) translate(20 276) translate(184.5 598)"/>
                    <path fill="#231F20" d="M50.412 30L47.5 29.274 47.53 29 50.382 29.711 50.414 29.689 50.5 29.937z" transform="translate(-204 -874) translate(20 276) translate(184.5 598)"/>
                    <path fill="#231F20" d="M49.596 28.033L49.597 28.033 49.595 30.74 49.594 30.74z" transform="translate(-204 -874) translate(20 276) translate(184.5 598) rotate(-80.38 49.595 29.387)"/>
                    <path fill="#231F20" d="M50.747 30l-.247-.4.27-.22.083-.07c.123-.097.241-.2.365-.31l.282.361c-.124.123-.253.226-.376.336l-.083.07c-.1.078-.194.162-.294.233zM50.478 30L50.455 29.976 47.5 29.197 47.521 29 50.476 29.779 50.469 29.853 50.5 29.963zM47.671 29h-.044v-.147l-.127-.137h.022c.206-.188.439-.381.627-.597.04-.037.078-.077.114-.119l.237.248-.127.124c-.206.21-.439.412-.632.6l-.07.028zM51.474 29L48.5 27.806l.084-.201c.054-.124.105-.256.164-.388.007-.016.014-.034.02-.054l.012-.035c.017-.043.033-.081.048-.128l.095.186-.05.136-.01.027-.025.07-.079.201 2.741 1.1-.026.28z" transform="translate(-204 -874) translate(20 276) translate(184.5 598)"/>
                    <path fill="#231F20" d="M51.488 29L48.5 27.941l.068-.172c.048-.12.097-.245.144-.376v-.027c.044-.118.088-.238.129-.366l.102.152c-.043.124-.084.241-.127.345l-.01.03-.083.221 2.777.983-.012.269z" transform="translate(-204 -874) translate(20 276) translate(184.5 598)"/>
                    <path fill="#231F20" d="M52.482 29l-2.982-.82.05-.13.038-.096c.031-.074.063-.153.093-.235.03-.082.054-.14.08-.203l.042-.114c.027-.074.055-.148.08-.224l.064-.178.106.104-.063.175c-.025.076-.053.153-.08.226l-.044.12-.076.195-.083.21 2.793.779-.018.191zM52.48 27l-2.98-.59.136-.298c.05-.108.096-.218.141-.328.01-.02.019-.041.027-.063.055-.132.108-.267.166-.405.015-.039.028-.072.04-.11l.076-.206.113.059-.075.196c-.013.038-.026.075-.041.112-.052.14-.105.275-.166.409l-.029.065c-.046.11-.092.22-.142.33l-.055.12 2.809.562-.02.147z" transform="translate(-204 -874) translate(20 276) translate(184.5 598)"/>
                    <path fill="#231F20" d="M52.508 23.501L52.509 23.501 52.508 26.026 52.507 26.026z" transform="translate(-204 -874) translate(20 276) translate(184.5 598) rotate(-80.37 52.508 24.764)"/>
                    <path fill="#231F20" d="M53.164 22.841L53.165 22.841 53.163 24.679 53.163 24.679z" transform="translate(-204 -874) translate(20 276) translate(184.5 598) rotate(-80.39 53.164 23.76)"/>
                    <path fill="#231F20" d="M53.372 22.092L53.373 22.092 53.372 23.869 53.371 23.869z" transform="translate(-204 -874) translate(20 276) translate(184.5 598) rotate(-80.38 53.372 22.98)"/>
                    <path fill="#231F20" d="M53.445 20.902L53.446 20.902 53.444 22.934 53.444 22.934z" transform="translate(-204 -874) translate(20 276) translate(184.5 598) rotate(-80.36 53.445 21.918)"/>
                    <path fill="#231F20" d="M53.425 21.347L53.426 21.347 53.425 23.291 53.424 23.291z" transform="translate(-204 -874) translate(20 276) translate(184.5 598) rotate(-80.36 53.425 22.319)"/>
                    <path fill="#231F20" d="M54.474 12l-3.787-1.121-.017-.075c-.05-.225-.108-.456-.17-.684l.146-.12c.058.21.11.422.157.632L54.5 11.72l-.026.28zM46.672 6l-.172-.193c.142-.146.284-.29.42-.421.039-.04.078-.079.121-.115L47.328 5l.172.196-.284.261-.132.125-.412.418zM51.015 6L50.5 5.491 50.927 5.113 51.053 5 51.5 5.566 51.17 5.368 51.422 5.632zM50.47 6L47.5 4.912l.107-.18.043-.077.163-.267.023-.034.052-.08c.032-.056.065-.1.097-.15l.05-.075c.012-.019.024-.035.037-.049l.058.229-.024.034-.05.073-.095.142-.055.087-.02.031-.093.156 2.707.978-.03.27zM50.98 4.99L50.54 4.37 50.73 4.24 51.06 4.01 51.46 4.64 51.18 4.84z" transform="translate(-204 -874) translate(20 276) translate(184.5 598)"/>
                    <path fill="#231F20" d="M50.48 6L47.5 4.798l.155-.271.118-.177.082-.118c.03-.047.066-.09.1-.138L48.028 4l.059.26-.074.094c-.032.043-.065.086-.096.133l-.08.114-.019.028L50.5 5.725 50.48 6zM51.96 4.955L51.6 4.295 51.88 4.155 52.06 4.045 52.4 4.725 52.27 4.795zM50.975 4.98l-.44-.62c.18-.12.37-.24.55-.34l.38.64c-.12.1-.33.2-.49.32z" transform="translate(-204 -874) translate(20 276) translate(184.5 598)"/>
                    <path fill="#231F20" d="M52.473 6L48.5 4.631l.302-.205.16-.157.058-.056.028-.025c.063-.056.12-.103.178-.145L49.28 4l.054.299-.052.042-.168.137-.025.025L52.5 5.68l-.027.32zM51.855 4.98L51.535 4.3 51.935 4.11 52.165 4.02 52.465 4.7 52.225 4.8z" transform="translate(-204 -874) translate(20 276) translate(184.5 598)"/>
                    <path fill="#231F20" d="M52.46 5l-2.923-.693v-.092l-.037-.056.025-.023.025-.011.155-.067.046-.016c.04-.014.081-.03.123-.042h.014l.046.16-.021.01-.099.033 2.634.617h.015l.022.122.015.023h-.008v.012L52.46 5zM52.93 4.87L52.79 4.13 52.91 4.13 53.08 4.13 53.21 4.13 53.21 4.87 53.1 4.87z" transform="translate(-204 -874) translate(20 276) translate(184.5 598)"/>
                    <path fill="#231F20" d="M53.12 4.865L52.77 4.185 52.94 4.135 53.15 4.135 53.23 4.865z" transform="translate(-204 -874) translate(20 276) translate(184.5 598)"/>
                    <path fill="#231F20" d="M53.43 4.977l-3.93-.833.379-.106h.077c.042 0 .083-.02.124-.025h.083L50.288 4h.043v.154l3.096.659h.045L53.5 5l-.07-.023z" transform="translate(-204 -874) translate(20 276) translate(184.5 598)"/>
                    <path fill="#231F20" d="M52.925 4.88L52.925 4.13 52.925 4.51 52.965 4.13 53.075 4.12 53.075 4.87z" transform="translate(-204 -874) translate(20 276) translate(184.5 598)"/>
                    <path fill="#231F20" d="M53.5 5L53.476 5 50.5 4.201 50.521 4 53.497 4.799z" transform="translate(-204 -874) translate(20 276) translate(184.5 598)"/>
                    <path fill="#231F20" d="M53.03 4.875L52.85 4.855 52.91 4.485 53.03 4.125 53.15 4.135z" transform="translate(-204 -874) translate(20 276) translate(184.5 598)"/>
                    <path fill="#231F20" d="M54.476 5l-3.596-.785c-.04-.008-.082-.013-.124-.016H50.524l-.024-.193c.062-.008.125-.008.187 0 .027-.004.053-.004.08 0l.134.016.085.013L54.5 4.8 54.476 5z" transform="translate(-204 -874) translate(20 276) translate(184.5 598)"/>
                    <path fill="#231F20" d="M53.075 4.89L52.825 4.85 52.925 4.11 53.175 4.15z" transform="translate(-204 -874) translate(20 276) translate(184.5 598)"/>
                    <path fill="#231F20" d="M51.2 18.686L51.201 18.686 51.2 21.048 51.199 21.048z" transform="translate(-204 -874) translate(20 276) translate(184.5 598) rotate(-80.34 51.2 19.867)"/>
                    <path fill="#231F20" d="M51.48 15L48.587 14.215 48.587 14.215 48.585 14.215 48.557 14.207 48.56 14.172 48.5 14.07 48.547 14 51.5 14.801zM47.478 37l-3.518-.636c-1.495-.265-2.691-1.758-3.46-4.317l.145-.047c.75 2.498 1.905 3.953 3.339 4.207l3.447.615h.069l-.022.178zM40.725 28c-.05-.22-.08-.44-.11-.67V27h.66v.295c0 .225.07.44.11.659l-.66.046zM44.48 27L41.569 26.439 41.52 25.52 41.5 25.011 41.622 25 41.684 26.32 44.5 26.862z" transform="translate(-204 -874) translate(20 276) translate(184.5 598)"/>
                    <path fill="#231F20" d="M43.775 25.772L43.776 25.772 43.775 26.338 43.774 26.338z" transform="translate(-204 -874) translate(20 276) translate(184.5 598) rotate(-80.31 43.775 26.055)"/>
                    <path fill="#231F20" d="M44.474 32L40.684 31.422 40.5 28.008 40.66 28 40.838 31.299 44.5 31.858z" transform="translate(-204 -874) translate(20 276) translate(184.5 598)"/>
                    <path fill="#231F20" d="M44.592 29L40.5 28.179 41.532 27 45.5 27.795 45.473 27.992 41.586 27.213 40.856 28.045 44.619 28.803z" transform="translate(-204 -874) translate(20 276) translate(184.5 598)"/>
                    <path fill="#231F20" d="M40.918 21.291L40.918 21.291 40.918 21.291 40.918 21.291z" transform="translate(-204 -874) translate(20 276) translate(184.5 598) rotate(-84.55 40.918 21.291)"/>
                    <path fill="#231F20" d="M44.482 22l-2.982-.66v-.073c0-.038 0-.075.008-.113.026-.354.054-.711.086-1.066l.008-.088.125.026-.009.084c-.032.35-.06.707-.085 1.062v.03l2.867.64-.018.158z" transform="translate(-204 -874) translate(20 276) translate(184.5 598)"/>
                    <path fill="#231F20" d="M44.48 21l-2.98-.656v-.095c.037-.393.077-.765.12-1.137L41.63 19l.124.018-.011.113c-.04.36-.08.716-.113 1.075l2.869.634-.02.16z" transform="translate(-204 -874) translate(20 276) translate(184.5 598)"/>
                    <path fill="#231F20" d="M44.478 20l-2.978-.641.015-.16c.054-.428.099-.79.144-1.111l.013-.088.124.034v.039l-.008.047c-.044.316-.089.668-.143 1.104l2.855.62-.022.156z" transform="translate(-204 -874) translate(20 276) translate(184.5 598)"/>
                    <path fill="#231F20" d="M44.478 19l-2.978-.615.008-.074c0-.026 0-.053.012-.08.06-.41.124-.788.188-1.163 0-.031.01-.05.013-.068l.124.025c0 .022-.009.045-.012.067-.067.381-.13.766-.187 1.154v.012l2.854.594-.022.148zM45.34 17.74L44.6 17.6 44.66 17.26 45.4 17.4zM44.464 17l-2.964-.578.163-.86.087-.401.02-.094.015-.067.118.034-.015.069c0 .03-.014.06-.021.092l-.228 1.122 2.722.53.018-.09.121.03-.036.213z" transform="translate(-204 -874) translate(20 276) translate(184.5 598)"/>
                    <path fill="#231F20" d="M44.487 16l-2.987-.676.032-.169c.063-.33.13-.657.199-.982l.04-.187c.067-.31.137-.617.21-.918l.015-.068.12.05-.015.067c-.072.302-.142.608-.21.917l-.04.184c-.068.323-.133.645-.197.971l2.846.649-.013.162zM45.475 13l-2.975-.51.017-.066c.002-.011.005-.023.01-.034.055-.178.115-.363.18-.548l.081-.238.11-.31.07-.191.132-.352.017-.04.06-.157.138-.34.077-.18c.057-.134.114-.266.167-.398l.032-.072.015-.034c.075-.17.15-.331.226-.492.024-.044.042-.085.062-.126.058-.12.119-.238.177-.353.028-.058.057-.112.087-.17.051-.102.105-.202.158-.3l.015-.026c.012-.02.022-.04.032-.063l.113.058c-.012.022-.023.044-.037.066l-.013.025c-.053.099-.107.2-.158.3l-.087.17c-.058.115-.117.232-.167.35-.02.043-.042.084-.063.126-.076.16-.15.323-.225.49l-.015.032c-.01.024-.02.05-.032.073-.058.13-.115.263-.167.397l-.075.179-.137.34c-.021.05-.041.103-.061.154l-.015.04c-.044.111-.085.225-.127.34l-.075.202c-.038.104-.073.206-.11.31l-.08.236c-.059.17-.114.34-.167.51l2.835.49-.025.112z" transform="translate(-204 -874) translate(20 276) translate(184.5 598)"/>
                    <path fill="#231F20" d="M46.49 10l-2.99-.762.126-.332c.025-.065.05-.13.077-.195.026-.065.076-.197.116-.295.04-.097.071-.182.106-.264l.123-.295.332-.77.022-.047.02-.04.103.105-.022.047-.252.56-.103.25c-.042.097-.083.195-.123.292-.04.097-.07.167-.101.25l-.122.302-.073.192-.038.1 2.809.717-.01.185zM49.2 7.88L48.58 7.46 48.82 7.12 49.42 7.56zM49.406 7L45.5 6.312l.137-.202.314-.444.062-.087.039-.053c.137-.18.272-.357.408-.526l.146.078-.013.017c-.145.18-.28.353-.413.533l-.036.051-.066.087-.3.428 3.553.615.01-.015.026-.036.133.098-.03.04c-.013.015-.023.033-.036.05L49.406 7zM50.24 6.755L49.94 6.525 49.68 6.245 50.02 6.415 50.32 6.635z" transform="translate(-204 -874) translate(20 276) translate(184.5 598)"/>
                    <path fill="#231F20" d="M50.394 7L46.5 6.206l.085-.125.04-.06.039-.05c.092-.131.183-.257.279-.382.04-.056.085-.115.132-.174l.25-.315.042-.049.042-.051.107.143-.036.044-.045.051-.245.31c-.043.054-.087.113-.13.172-.09.115-.177.235-.26.353l3.532.72.049-.067.119.123-.106.151zM51.09 5.955L50.55 5.435 50.72 5.255 50.91 5.045 51.45 5.575 51.27 5.765zM50.216 6L46.5 4.607l.16-.355c.029-.068.057-.135.085-.194L46.774 4 50.5 5.393 50.216 6zm-3.402-1.618l3.353 1.258.01-.022-3.352-1.258-.01.022zM44.474 26L40.686 25.422 40.5 22.008 40.658 22 40.84 25.299 44.5 25.858z" transform="translate(-204 -874) translate(20 276) translate(184.5 598)"/>
                    <path fill="#231F20" d="M44.319 23L40.5 22.316 41.797 21 45.5 21.662 45.475 21.826 41.847 21.177 40.834 22.207 44.344 22.836z" transform="translate(-204 -874) translate(20 276) translate(184.5 598)"/>
                    <path fill="#231F20" d="M47.917 36c-.173 0-.345-.016-.514-.047-.06-.011-.118-.026-.174-.04l-.064-.017-.041-.013c-.062-.02-.12-.038-.175-.06l-.101-.04c-.058-.022-.116-.053-.176-.082l-.085-.042c-.087-.047-.172-.1-.253-.157l-.015-.009c-.079-.054-.154-.113-.229-.173-.02-.016-.041-.034-.06-.053l-.02-.018c-.05-.044-.103-.091-.156-.14l-.086-.09c-.049-.05-.096-.1-.14-.153-.032-.033-.061-.067-.089-.104-.041-.045-.08-.096-.12-.149l-.095-.13c-.047-.063-.094-.132-.141-.204l-.024-.04c-.015-.019-.028-.039-.04-.06-.065-.104-.131-.215-.187-.33l.058-.04-.066.024c-.058-.108-.118-.222-.176-.343-.013-.027-.024-.056-.037-.084l-.02-.043c-.039-.084-.08-.17-.117-.26l-.163-.416c-.021-.059-.044-.115-.062-.172-.032-.09-.064-.182-.094-.28l-.056-.172c-.032-.107-.062-.213-.092-.322l-.045-.155c-.034-.126-.066-.254-.098-.385l-1.033.968-.169-3.365.732-.687c0-.056-.012-.113-.017-.171l-.013-.151c0-.117-.013-.22-.019-.325v-.104l-.04-.809c0-.078-.009-.157-.009-.233v-.203-.101-.183l-.725.684-.171-3.368 1.035-.97.019-.182c.026-.29.06-.587.095-.882v-.067-.036c.036-.275.077-.57.132-.927v-.053l.016-.115c.05-.317.104-.632.162-.946.006-.022.01-.044.013-.067v-.092c.065-.351.135-.686.208-1.02l.199-.846.095-.377.042-.157.016-.064c.072-.267.147-.534.224-.794l.045-.151c.075-.252.153-.5.232-.744 0-.022.013-.036.019-.053v-.016c.067-.21.137-.41.208-.607.013-.04.028-.08.043-.122l.011-.031.161-.436.098-.199.148-.377.086-.211c.05-.12.102-.24.152-.365l.09-.202c.064-.144.128-.286.188-.428l.052-.115c.085-.182.169-.354.255-.527l.073-.138c.062-.126.13-.252.188-.376l.097-.182c.058-.108.118-.215.178-.321l.055-.097.064-.109c.037-.064.075-.128.114-.191l.135-.223.116-.182.139-.215.12-.182.142-.208.075-.11.045-.061.105-.144c.09-.122.188-.245.274-.365l.088-.113c.12-.15.238-.295.358-.434l.087-.098c.084-.095.16-.182.24-.268l.118-.124.22-.224.067-.064c.045-.045.091-.091.138-.135.047-.043.107-.098.158-.142l.094-.086.08-.067.047-.04.107-.088.026-.02.08-.062c.059-.045.119-.093.179-.134l.084-.044c.03-.022.062-.046.094-.066.025-.015.049-.031.071-.049l.019-.011.041-.025.028-.017c.027-.018.057-.036.083-.05l.092-.056.041-.025.082-.044.06-.03h.012l.045-.023.067-.033.064-.027.114-.05.077-.03.085-.033.052.055-.026-.064.034-.01.045-.014.1-.032.066-.015.081-.022.122-.024.082-.014.167-.017H52.71l.148.01.14.018c1.084.182 2.01 1.128 2.755 2.825l.011.029-2.388 4.843-.06-.144c-.023-.055-.044-.108-.068-.16l-.073-.156c-.008-.019-.018-.037-.028-.054l-.03-.06-.05-.09-.048-.082-.011-.018c0-.011-.013-.024-.02-.033l-.032-.05-.055-.081c-.015-.024-.03-.042-.045-.062l-.013-.018-.026-.037-.066-.08-.022-.03c-.032-.035-.065-.07-.1-.103-.008-.011-.018-.021-.028-.031-.02-.022-.042-.043-.065-.062-.017-.018-.029-.027-.038-.036l-.022-.017-.04-.033-.037-.029-.068-.05-.022-.015-.017-.011-.062-.039-.043-.023-.075-.04-.019-.01-.101-.041-.026-.011c-.03-.013-.068-.022-.104-.033h-.022l-.09-.018c-.514-.09-1.069.129-1.605.634-.034.03-.066.064-.097.096l-.032.033c-.724.759-1.313 1.628-1.744 2.574-.714 1.539-1.218 3.162-1.5 4.828l4.792-4.497.171 3.367-5.314 4.983c-.015.45 0 .822.025 1.294.019.34.035.692.065 1.006l5.338-5.005.17 3.364-2.549 2.392-2.297 2.154c.093.237.202.467.327.689l.016.027c.065.112.135.22.212.323.065.09.137.177.214.259.068.073.14.14.217.204.072.057.147.11.225.157.075.043.154.08.235.113.098.035.199.062.302.078l.107.013c.099.009.199.009.298 0 .028-.003.056-.008.084-.015l.096-.018.084-.02h.026c.055-.015.109-.033.162-.055l.043-.016h.039l.096-.044c.031-.013.062-.029.092-.046l.061-.032.017-.01c.034-.017.066-.035.098-.056.028-.016.054-.035.082-.055.035-.02.07-.043.102-.067.04-.027.076-.053.114-.082l.126-.095c.008-.009.018-.017.028-.024.088-.072.176-.149.258-.227l.027-.026.018-.022c.064-.058.124-.12.188-.182l.088-.102c.06-.07.114-.133.167-.2l.017-.02c.022-.028.048-.066.077-.105l.061-.083.023-.033.019-.026c.035-.049.07-.102.105-.155.035-.052.082-.125.122-.182l.031-.05.077-.127.023-.04c.015-.025.03-.053.047-.078l.02-.038.03-.051c.02-.037.04-.07.055-.1.058-.1.11-.203.16-.305.014-.022.022-.038.03-.057.063-.123.123-.251.188-.377l.032-.07.015-.032c.043-.1.088-.202.132-.308l.046-.11c.055-.132.11-.269.162-.407l.015-.042c.047-.126.093-.254.137-.383l.155-.47.058-.183c.019-.058.028-.09.042-.136l.106-.365c0-.038.021-.078.032-.118l.028-.11c.055-.213.107-.424.154-.64l.015-.054c.04-.182.073-.355.107-.53l.01-.053c.024-.128.046-.254.067-.38v-.06l2.681.115-.013.077c-.694 3.747-2.154 8.901-5.201 11.766C50.116 35.435 48.96 36 47.916 36zm-3.878-5.065l.028.118c.04.17.08.336.122.498l.045.153c.03.11.06.215.092.32l.056.169c.03.096.062.182.094.278l.058.17.163.41c.038.088.075.173.115.255l.02.046.036.08c.058.117.114.231.174.339.06.108.132.235.197.337l.036.058.028.04c.043.068.09.137.137.2l.092.125c.04.051.077.1.116.146.04.045.056.07.084.1l.14.15.082.085.151.137.021.02.053.045c.073.06.148.115.22.168l.016.01c.071.048.148.096.24.147l.075.036c.056.031.114.058.174.082.034.017.066.028.094.039.058.021.112.04.167.056l.04.013.061.016c.053.015.107.026.163.037 1.125.215 2.438-.334 3.76-1.582 3-2.813 4.45-7.881 5.142-11.665l-2.396-.104c-.019.108-.037.215-.058.323l-.01.053c-.037.195-.076.39-.12.585l-.013.054c-.044.2-.093.394-.144.593l-.03.111c-.011.04-.022.078-.03.117l-.109.379c-.013.045-.028.09-.04.136-.014.046-.04.126-.06.183l-.156.474c-.045.129-.092.26-.14.386l-.014.042-.161.412-.047.11c-.043.105-.088.207-.135.31l-.013.032-.034.073c-.058.127-.118.255-.188.379l-.032.06c-.052.102-.105.204-.16.306-.018.033-.036.07-.059.104l-.028.051-.019.04-.047.078-.022.042-.079.128-.032.051c-.04.064-.077.122-.118.182-.041.06-.077.117-.112.166l-.021.03-.02.028-.064.088-.085.113-.017.02c-.05.064-.105.128-.159.182l-.098.113c-.063.07-.123.131-.187.193l-.015.015-.034.035c-.082.078-.172.158-.266.233l-.02.018c-.05.038-.092.073-.136.102-.037.031-.076.06-.118.086-.033.025-.067.048-.103.07-.026.02-.056.037-.088.057l-.094.055-.017.01-.073.038-.097.049-.09.04-.041.018-.06.022c-.05.02-.1.038-.152.053h-.038l-.092.022-.095.02c-.034.007-.068.011-.102.014-.107.011-.216.011-.324 0l-.118-.012c-.113-.017-.224-.046-.33-.086-.09-.034-.175-.076-.257-.124-.084-.05-.164-.106-.24-.168-.082-.066-.159-.138-.23-.215-.083-.086-.159-.178-.227-.275-.081-.109-.156-.222-.223-.339l-.015-.024c-.136-.24-.253-.491-.351-.749l-.017-.042 4.875-4.556-.152-3.004-5.336 5.018-.015-.139c-.04-.351-.06-.76-.079-1.153-.026-.485-.041-.866-.024-1.333v-.027l.02-.02 5.29-4.965-.152-3.005-4.875 4.576.034-.204c.278-1.75.798-3.454 1.545-5.069.437-.958 1.035-1.84 1.77-2.61l.03-.03c.033-.035.067-.07.103-.103.562-.535 1.168-.767 1.728-.67l.088.02h.04c.04.01.08.024.12.038l.114.046.026.012.02.01.072.038c.018.008.035.018.05.029l.067.04.024.016.017.011.071.053c.017.012.033.024.047.039l.04.03.02.017c.016.014.032.028.047.044.024.02.046.04.067.063l.032.033c.03.03.064.066.098.104l.03.037c.02.027.043.052.063.082.013.013.025.027.034.043l.01.013.05.07.055.081.033.053.023.037.01.016c.018.028.036.058.052.088l.048.09c.012.02.023.04.032.06l.03.061.075.159.01.02 2.214-4.52c-.722-1.64-1.607-2.552-2.625-2.716l-.133-.018-.137-.01h-.257c-.058 0-.11.01-.163.017l-.09.016-.105.022c-.024.004-.048.01-.071.018l-.07.017-.095.03-.049.014c-.018.008-.038.015-.058.02l-.075.029-.068.027-.116.051c-.02.007-.038.016-.056.026l-.043.02-.028.013-.057.029-.05.025-.085.046-.03.018-.097.057-.079.049-.019.01c-.014.009-.028.018-.04.028l-.018.01-.082.056c-.026.018-.058.038-.088.062l-.068.045c-.056.042-.116.086-.172.131l-.085.064-.018.017-.105.087-.051.04-.071.062c-.036.031-.066.057-.098.088-.032.03-.103.09-.155.14l-.137.133-.064.064c-.073.07-.146.146-.22.22l-.116.122c-.078.086-.155.172-.232.261-.036.038-.062.07-.09.102-.12.139-.238.28-.354.428l-.089.115c-.091.117-.187.239-.271.365-.036.044-.068.087-.1.133l-.049.07-.074.107-.143.207c-.04.057-.077.117-.116.183l-.139.215c-.04.06-.079.122-.116.182l-.135.222-.113.183-.06.1-.05.091-.188.33-.097.182c-.066.124-.13.25-.188.376l-.073.136c-.084.172-.169.347-.253.523l-.053.115c-.065.14-.129.283-.187.427l-.084.191c-.055.128-.105.246-.154.365-.03.069-.058.138-.086.207-.05.12-.096.243-.143.365l-.084.217c-.055.144-.109.29-.162.433l-.01.033c-.016.039-.029.079-.042.117-.071.199-.139.4-.204.598h-.075l.067.02c0 .025-.013.044-.02.064-.077.238-.156.486-.231.729l-.045.15c-.077.26-.152.526-.223.79l-.017.064c-.013.053-.026.107-.041.158l-.291 1.218c-.075.333-.142.667-.21 1.02l-.01.05c-.002.013-.005.027-.009.04-.001.02-.005.039-.01.058-.057.317-.112.633-.162.95l-.025.162c-.054.364-.095.654-.13.933v.093c-.036.297-.068.594-.096.884l-.023.228-1.056.999.152 3.003.75-.694v1.026l.04.804v.105c0 .108.011.212.018.31l.015.166c0 .068.012.135.02.2v.033l-.736.691.15 3.004 1.018-.937z" transform="translate(-204 -874) translate(20 276) translate(184.5 598)"/>
                    <g>
                        <path fill="#FFC65A" d="M16.64 13.098L16.773 15.818 15.594 16.952 16.017 25.554 13.569 27.908 10.125 22.208 7.603 21.783 9.045 20.397 7.088 17.168 4.408 16.715 4.127 10.964 6.736 8.457 8.831 11.887 7.167 13.488 9.865 13.943 10.077 18.257 13.026 18.755 12.803 14.249 12.88 13.794 15.461 14.23z" transform="translate(-204 -874) translate(20 276) translate(184.5 598) translate(52.5 7)"/>
                        <path fill="#E2A84D" d="M16.64 13.098L15.461 14.23 15.393 12.887zM16.388 7.957L15.208 9.091 15.142 7.747z" transform="translate(-204 -874) translate(20 276) translate(184.5 598) translate(52.5 7)"/>
                        <path fill="#FFC65A" d="M15.393 12.887L15.461 14.23 12.88 13.794 12.511 13.732 13.691 12.6zM15.142 7.747L15.208 9.091 12.528 8.638 12.515 8.349 13.44 7.459z" transform="translate(-204 -874) translate(20 276) translate(184.5 598) translate(52.5 7)"/>
                        <path fill="#FFC65A" d="M14.796 0.709L15.142 7.747 13.44 7.459 12.515 8.349 12.258 3.149z" transform="translate(-204 -874) translate(20 276) translate(184.5 598) translate(52.5 7)"/>
                        <path fill="#E2A84D" d="M14.796.709L12.258 3.149 9.311 2.651 11.848.211zM10.125 22.208L13.569 27.908 10.62 27.41 8.449 23.818zM12.803 14.249L13.026 18.755 11.213 15.778z" transform="translate(-204 -874) translate(20 276) translate(184.5 598) translate(52.5 7)"/>
                        <path fill="#FFC65A" d="M11.213 15.778L13.026 18.755 10.077 18.257 9.865 13.943 10.114 13.986 10.283 13.824 12.803 14.249z" transform="translate(-204 -874) translate(20 276) translate(184.5 598) translate(52.5 7)"/>
                        <path fill="#FFC65A" d="M12.803 14.249L10.283 13.824 12.67 11.529 12.528 8.638 15.208 9.091 16.388 7.957 16.521 10.677 15.341 11.811 15.393 12.887 13.691 12.6 12.511 13.732 12.88 13.794z" transform="translate(-204 -874) translate(20 276) translate(184.5 598) translate(52.5 7)"/>
                        <path fill="#E2A84D" d="M12.528 8.638L12.67 11.529 9.721 11.031 9.311 2.651 12.258 3.149 12.515 8.349 12.26 8.593z" transform="translate(-204 -874) translate(20 276) translate(184.5 598) translate(52.5 7)"/>
                        <path fill="#E2A84D" d="M12.67 11.529L10.283 13.824 9.983 13.773 8.831 11.887 9.721 11.031zM12.515 8.349L12.528 8.638 12.26 8.593z" transform="translate(-204 -874) translate(20 276) translate(184.5 598) translate(52.5 7)"/>
                        <path fill="#FFF" d="M10.283 13.824L10.114 13.986 9.983 13.773z" transform="translate(-204 -874) translate(20 276) translate(184.5 598) translate(52.5 7)"/>
                        <path fill="#FFC65A" d="M10.125 22.208L8.449 23.818 7.361 22.016 7.603 21.783z" transform="translate(-204 -874) translate(20 276) translate(184.5 598) translate(52.5 7)"/>
                        <path fill="#FFF" d="M9.983 13.773L10.114 13.986 9.865 13.943 9.856 13.751z" transform="translate(-204 -874) translate(20 276) translate(184.5 598) translate(52.5 7)"/>
                        <path fill="#FFC65A" d="M8.831 11.887L9.983 13.773 9.856 13.751 9.865 13.943 7.167 13.488z" transform="translate(-204 -874) translate(20 276) translate(184.5 598) translate(52.5 7)"/>
                        <path fill="#E2A84D" d="M7.088 17.168L9.045 20.397 7.232 20.091z" transform="translate(-204 -874) translate(20 276) translate(184.5 598) translate(52.5 7)"/>
                        <path fill="#E2A84D" d="M9.045 20.397L7.603 21.783 7.315 21.734 7.232 20.091z" transform="translate(-204 -874) translate(20 276) translate(184.5 598) translate(52.5 7)"/>
                        <path fill="#FFF" d="M7.603 21.783L7.361 22.016 7.326 21.956 7.315 21.734z" transform="translate(-204 -874) translate(20 276) translate(184.5 598) translate(52.5 7)"/>
                        <path fill="#FFC65A" d="M7.33 22.046L7.361 22.016 8.449 23.818 7.463 24.767 7.886 33.37 5.346 35.81 4.925 27.205 3.68 26.994 3.612 25.618 4.79 24.486 4.672 22.064 4.749 21.609z" transform="translate(-204 -874) translate(20 276) translate(184.5 598) translate(52.5 7)"/>
                        <path fill="#FFF" d="M7.361 22.016L7.33 22.046 7.326 21.956zM7.315 21.734L7.326 21.956 7.176 21.71z" transform="translate(-204 -874) translate(20 276) translate(184.5 598) translate(52.5 7)"/>
                        <path fill="#FFC65A" d="M7.176 21.71L7.326 21.956 7.33 22.046 4.749 21.609 4.38 21.548 6.096 19.899 7.232 20.091 7.315 21.734z" transform="translate(-204 -874) translate(20 276) translate(184.5 598) translate(52.5 7)"/>
                        <path fill="#FFC65A" d="M7.088 17.168L7.232 20.091 6.096 19.899 4.431 17.148 4.408 16.715z" transform="translate(-204 -874) translate(20 276) translate(184.5 598) translate(52.5 7)"/>
                        <path fill="#E2A84D" d="M6.736 8.457L4.127 10.964 1.178 10.466 3.787 7.959zM4.925 27.205L5.346 35.81 2.399 35.312 2.041 28.052 3.745 28.339z" transform="translate(-204 -874) translate(20 276) translate(184.5 598) translate(52.5 7)"/>
                        <path fill="#FFC65A" d="M4.925 27.205L3.745 28.339 3.68 26.994z" transform="translate(-204 -874) translate(20 276) translate(184.5 598) translate(52.5 7)"/>
                        <path fill="#E2A84D" d="M4.672 22.064L4.79 24.486 1.843 23.988 1.79 22.911 3.493 23.199z" transform="translate(-204 -874) translate(20 276) translate(184.5 598) translate(52.5 7)"/>
                        <path fill="#E2A84D" d="M4.79 24.486L3.612 25.618 0.663 25.12 1.843 23.988z" transform="translate(-204 -874) translate(20 276) translate(184.5 598) translate(52.5 7)"/>
                        <path fill="#FFC65A" d="M4.38 21.548L4.749 21.609 4.672 22.064 3.427 21.854 3.36 20.479 4.537 19.345 4.431 17.148 6.096 19.899z" transform="translate(-204 -874) translate(20 276) translate(184.5 598) translate(52.5 7)"/>
                        <path fill="#FFC65A" d="M4.672 22.064L3.493 23.199 3.427 21.854z" transform="translate(-204 -874) translate(20 276) translate(184.5 598) translate(52.5 7)"/>
                        <path fill="#E2A84D" d="M4.431 17.148L4.537 19.345 1.59 18.847 1.178 10.466 4.127 10.964 4.408 16.715 4.14 16.67z" transform="translate(-204 -874) translate(20 276) translate(184.5 598) translate(52.5 7)"/>
                        <path fill="#E2A84D" d="M4.537 19.345L3.36 20.479.41 19.981 1.59 18.847zM4.408 16.715L4.431 17.148 4.14 16.67zM3.68 26.994L3.745 28.339 2.041 28.052 1.976 26.707z" transform="translate(-204 -874) translate(20 276) translate(184.5 598) translate(52.5 7)"/>
                        <path fill="#E2A84D" d="M3.612 25.618L3.68 26.994 1.976 26.707 2.041 28.052.798 27.841.663 25.12zM3.427 21.854L3.493 23.199 1.79 22.911 1.723 21.566z" transform="translate(-204 -874) translate(20 276) translate(184.5 598) translate(52.5 7)"/>
                        <path fill="#E2A84D" d="M3.36 20.479L3.427 21.854 1.723 21.566 1.79 22.911 0.545 22.701 0.41 19.981z" transform="translate(-204 -874) translate(20 276) translate(184.5 598) translate(52.5 7)"/>
                        <path fill="#231F20" d="M16.014 12.355L16.015 12.355 16.016 13.621 16.015 13.621z" transform="translate(-204 -874) translate(20 276) translate(184.5 598) translate(52.5 7) rotate(-80.37 16.015 12.988)"/>
                        <path fill="#231F20" d="M15.768 7.224L15.769 7.224 15.77 8.488 15.769 8.488z" transform="translate(-204 -874) translate(20 276) translate(184.5 598) translate(52.5 7) rotate(-80.35 15.769 7.856)"/>
                        <path fill="#231F20" d="M13.558 27.977L10.577 27.474 8.39 23.853 8.509 23.782 10.663 27.347 13.581 27.839zM9.36 2.701L9.262 2.6 11.826.136 14.807.64 14.785.778 11.871.285z" transform="translate(-204 -874) translate(20 276) translate(184.5 598) translate(52.5 7)"/>
                        <path fill="#231F20" d="M9.65 11.035L9.236 2.567 12.27 3.08 12.247 3.218 9.386 2.735 9.79 11.028z" transform="translate(-204 -874) translate(20 276) translate(184.5 598) translate(52.5 7)"/>
                        <path fill="#231F20" d="M8.88 11.938L8.783 11.837 9.699 10.957 12.682 11.46 12.659 11.598 9.743 11.106z" transform="translate(-204 -874) translate(20 276) translate(184.5 598) translate(52.5 7)"/>
                        <path fill="#231F20" d="M8.142 19.329L8.143 19.329 8.144 21.168 8.143 21.168z" transform="translate(-204 -874) translate(20 276) translate(184.5 598) translate(52.5 7) rotate(-80.38 8.143 20.249)"/>
                        <path fill="#231F20" d="M5.335 35.879L2.331 35.371 1.972 28.056 2.112 28.048 2.466 35.252 5.358 35.741z" transform="translate(-204 -874) translate(20 276) translate(184.5 598) translate(52.5 7)"/>
                        <path fill="#231F20" d="M1.813 22.913L1.814 22.913 1.814 23.991 1.813 23.991z" transform="translate(-204 -874) translate(20 276) translate(184.5 598) translate(52.5 7) rotate(-2.78 1.814 23.452)"/>
                        <path fill="#231F20" d="M0.712 25.17L0.614 25.069 1.82 23.913 4.801 24.417 4.779 24.555 1.865 24.062z" transform="translate(-204 -874) translate(20 276) translate(184.5 598) translate(52.5 7)"/>
                        <path fill="#231F20" d="M3.734 28.408L0.73 27.901 0.588 25.036 3.624 25.549 3.601 25.687 0.738 25.204 0.865 27.782 3.757 28.27z" transform="translate(-204 -874) translate(20 276) translate(184.5 598) translate(52.5 7)"/>
                        <path fill="#231F20" d="M0.182 19.423L1.819 19.426 1.819 19.427 0.182 19.424z" transform="translate(-204 -874) translate(20 276) translate(184.5 598) translate(52.5 7) rotate(-43.94 1 19.425)"/>
                        <path fill="#231F20" d="M3.481 23.268L.478 22.76.335 19.897 3.371 20.41 3.348 20.548.485 20.065.612 22.641 3.504 23.13zM4.526 19.414L1.522 18.907 1.107 10.47 1.247 10.462 1.657 18.787 4.549 19.276z" transform="translate(-204 -874) translate(20 276) translate(184.5 598) translate(52.5 7)"/>
                        <path fill="#231F20" d="M5.285 35.966L4.863 27.362 3.684 28.496 3.541 25.59 4.719 24.458 4.609 22.221 3.431 23.355 3.288 20.451 4.466 19.317 4.056 10.968 4.197 10.96 4.609 19.373 3.431 20.507 3.554 23.042 4.734 21.908 4.861 24.514 3.684 25.646 3.809 28.183 4.987 27.048 5.408 35.653 7.815 33.342 7.391 24.739 10.14 22.096 13.584 27.796 15.946 25.526 15.522 16.924 16.702 15.79 16.579 13.255 15.399 14.387 15.27 11.783 16.449 10.649 16.326 8.114 15.146 9.248 14.734 0.865 12.33 3.177 12.742 11.557 10.099 14.096 8.772 11.925 6.676 8.495 6.796 8.42 10.129 13.876 12.599 11.501 12.187 3.121 14.858 0.552 15.27 8.935 16.449 7.801 16.592 10.705 15.412 11.839 15.522 14.074 16.702 12.941 16.845 15.846 15.665 16.98 16.088 25.582 13.554 28.02 10.11 22.32 7.534 24.795 7.957 33.398z" transform="translate(-204 -874) translate(20 276) translate(184.5 598) translate(52.5 7)"/>
                        <path fill="#231F20" d="M7.262 22.197l-.02-.465L7 16.882l2.135 3.526-1.873 1.789zm-.093-4.76l.22 4.447 1.562-1.504-1.782-2.943zM13.11 19.026l-1.986-3.26 1.741-1.68.245 4.94zm-1.807-3.238l1.639 2.693-.2-4.077-1.439 1.384zM4.15 11.039l-3.122-.526 2.736-2.628 3.124.526-2.738 2.628zm-2.824-.62l2.779.47 2.483-2.385-2.779-.47-2.483 2.385z" transform="translate(-204 -874) translate(20 276) translate(184.5 598) translate(52.5 7)"/>
                    </g>
                    <path fill="#8071DB" d="M41.5 34L41.5 37 38.5 35.986z" transform="translate(-204 -874) translate(20 276) translate(184.5 598)"/>
                    <path fill="#9881EE" d="M41.5 20.564v12.82L39.19 35l-20.937-7.457-1.753-2.985V11.672L18.804 10l20.383 7.252 2.313 3.312zm-12.852 2.534c1.19-.165 1.908-1.796 1.606-3.651-.302-1.855-1.511-3.219-2.703-3.053-1.192.165-1.908 1.796-1.606 3.653.301 1.857 1.509 3.216 2.703 3.051z" transform="translate(-204 -874) translate(20 276) translate(184.5 598)"/>
                    <path fill="#8071DB" d="M41.5 16.744L41.5 19 38.5 16z" transform="translate(-204 -874) translate(20 276) translate(184.5 598)"/>
                    <path fill="#FFF" d="M28.056 21.027l.946.31v-1.423l-.946-.311v-1.421l-.944-.31v1.43l.944.31v1.415zm2.367-1.837c.339 1.925-.469 3.624-1.807 3.796-1.337.172-2.7-1.25-3.039-3.174-.339-1.925.469-3.626 1.807-3.798 1.337-.172 2.7 1.251 3.039 3.176z" transform="translate(-204 -874) translate(20 276) translate(184.5 598)"/>
                    <path fill="#FFF" d="M29.5 20.357L29.5 22 28.5 21.643 28.5 20zM29.5 18.358L29.5 20 28.5 19.642 28.5 18z" transform="translate(-204 -874) translate(20 276) translate(184.5 598)"/>
                    <path fill="#8071DB" d="M19.5 8.986L16.5 11 16.5 8zM17.5 24L19.5 27 17.5 26.375z" transform="translate(-204 -874) translate(20 276) translate(184.5 598)"/>
                    <path fill="#231F20" d="M41.5 36L39.105 35.104 16.5 26.664 16.5 8 18.888 8.89 39.157 16.459 39.105 16.59 16.645 8.204 16.645 26.569 41.355 35.794 41.355 17.431 39.107 16.592 39.159 16.461 41.5 17.334z" transform="translate(-204 -874) translate(20 276) translate(184.5 598)"/>
                    <path fill="#231F20" d="M29.513 19.466L29.514 19.466 29.49 37.709 29.489 37.709z" transform="translate(-204 -874) translate(20 276) translate(184.5 598) rotate(-68.9 29.501 28.587)"/>
                    <path fill="#231F20" d="M29.512 17.719L29.513 17.719 29.489 35.962 29.488 35.962z" transform="translate(-204 -874) translate(20 276) translate(184.5 598) rotate(-68.91 29.5 26.84)"/>
                    <path fill="#231F20" d="M29.512 15.756L29.513 15.756 29.489 33.999 29.488 33.999z" transform="translate(-204 -874) translate(20 276) translate(184.5 598) rotate(-68.9 29.5 24.877)"/>
                    <path fill="#231F20" d="M29.513 5.884L29.514 5.884 29.49 24.127 29.489 24.127z" transform="translate(-204 -874) translate(20 276) translate(184.5 598) rotate(-68.9 29.502 15.006)"/>
                    <path fill="#231F20" d="M38.996 34.661L41.78 34.655 41.78 34.656 38.996 34.661z" transform="translate(-204 -874) translate(20 276) translate(184.5 598) rotate(-37.11 40.388 34.658)"/>
                    <path fill="#231F20" d="M29.5 22L27.551 21.282 27.609 21.14 29.34 21.776 29.34 20.389 27.5 19.712 27.5 18 29.449 18.718 29.391 18.86 27.66 18.224 27.66 19.609 29.5 20.286zM19.363 28L17.5 25.074 17.629 25 17.637 25.011 19.5 27.938zM41.349 20L38.5 16.099 38.637 16 38.639 16 41.5 19.913z" transform="translate(-204 -874) translate(20 276) translate(184.5 598)"/>
                    <path fill="#231F20" d="M17.201 10.268L20.019 10.263 20.019 10.264 17.201 10.269z" transform="translate(-204 -874) translate(20 276) translate(184.5 598) rotate(-38.18 18.61 10.266)"/>
                    <path fill="#231F20" d="M28.364 24c-.58 0-1.167-.287-1.675-.824-1.195-1.415-1.512-3.247-.848-4.902.341-.732.89-1.174 1.547-1.26 1.335-.174 2.695 1.25 3.03 3.17.17.854.076 1.73-.27 2.543-.343.733-.892 1.172-1.546 1.258-.079.01-.158.015-.238.015zm-.76-6.863c-.067 0-.135.005-.201.013-.598.079-1.102.496-1.422 1.175-.64 1.61-.33 3.387.83 4.761.539.568 1.161.839 1.759.76.597-.079 1.102-.494 1.422-1.175.335-.79.425-1.64.26-2.469-.315-1.743-1.477-3.065-2.659-3.065h.01z" transform="translate(-204 -874) translate(20 276) translate(184.5 598)"/>
                    <path fill="#231F20" d="M29.43 17H30.43V22H29.43z" transform="translate(-204 -874) translate(20 276) translate(184.5 598)"/>
                    <path fill="#FFC65A" d="M36.855 32l1.645 8-2.212-2.816-.603 1.602-1.185-5.482c.23.06.47.073.706.039.704-.1 1.27-.599 1.649-1.343z" transform="translate(-204 -874) translate(20 276) translate(184.5 598)"/>
                    <path fill="#FFC65A" d="M32.138 32.16c-.277-.572-.466-1.18-.56-1.805-.34-2.2.469-4.142 1.806-4.339 1.336-.197 2.698 1.428 3.04 3.626.184 1.2.027 2.335-.377 3.141-.331.664-.827 1.108-1.43 1.2-.206.031-.417.02-.618-.034-.717-.182-1.393-.845-1.86-1.79zm2.234.24c.806-.117 1.293-1.288 1.089-2.615-.204-1.327-1.025-2.305-1.831-2.186-.806.118-1.296 1.289-1.09 2.614.205 1.325 1.025 2.306 1.832 2.188z" transform="translate(-204 -874) translate(20 276) translate(184.5 598)"/>
                    <path fill="#FFC65A" d="M35.454 29.277c.203 1.376-.282 2.59-1.084 2.713-.801.123-1.618-.889-1.823-2.269-.205-1.38.282-2.588 1.085-2.711.803-.123 1.617.893 1.822 2.267zM34.5 33.06L33.054 38l-1.04-2.553-1.514 1.598L32.336 31c.548 1.087 1.332 1.852 2.164 2.06z" transform="translate(-204 -874) translate(20 276) translate(184.5 598)"/>
                    <path fill="#231F20" d="M38.5 40L36.288 37.15 35.679 38.804 34.5 33.283 34.64 33.256 35.715 38.289 36.242 36.859 38.237 39.43 36.729 32.026 36.871 32zM33.078 38L32.06 35.445 30.5 37.132 32.326 31 32.464 31.04 30.816 36.58 32.11 35.179 33.055 37.555 34.361 32.99 34.5 33.029z" transform="translate(-204 -874) translate(20 276) translate(184.5 598)"/>
                    <path fill="#231F20" d="M34.387 34c-.136 0-.27-.018-.401-.053-.708-.18-1.385-.833-1.856-1.792-.273-.569-.459-1.174-.552-1.796-.343-2.194.478-4.143 1.815-4.343.653-.096 1.33.232 1.904.924.61.787 1 1.718 1.13 2.7.17 1.15.04 2.285-.367 3.116l-.023.049c-.342.675-.848 1.092-1.426 1.181-.074.01-.149.015-.224.014zm-.77-7.872c-.068 0-.137.005-.205.015-1.267.187-2.033 2.071-1.714 4.198.09.61.273 1.202.541 1.758.455.927 1.1 1.555 1.773 1.727.187.05.382.06.574.032.533-.08 1.004-.47 1.326-1.104l.02-.04c.402-.812.532-1.924.36-3.055-.124-.958-.502-1.867-1.096-2.635-.482-.586-1.035-.896-1.579-.896z" transform="translate(-204 -874) translate(20 276) translate(184.5 598)"/>
                    <path fill="#231F20" d="M34.218 32c-.754 0-1.49-.977-1.671-2.274-.099-.61-.04-1.234.167-1.813.205-.52.535-.842.927-.902.801-.127 1.612.89 1.813 2.263.098.61.04 1.234-.168 1.813-.204.52-.533.842-.927.903-.047.007-.094.01-.14.01zm-.444-4.872c-.04 0-.08.004-.12.01-.347.054-.641.347-.835.823-.198.558-.251 1.16-.154 1.746.19 1.302.938 2.269 1.672 2.154.348-.053.642-.346.836-.824.198-.557.25-1.159.154-1.744-.191-1.233-.871-2.165-1.553-2.165z" transform="translate(-204 -874) translate(20 276) translate(184.5 598)"/>
                    <path fill="#12CA70" style="mix-blend-mode:color" d="M0.5 0H139.5V101H0.5z" transform="translate(-204 -874) translate(20 276) translate(184.5 598)"/>
                </g>
            </g>
        </g>
    </g>
</svg>
