<svg id="Gift" xmlns="http://www.w3.org/2000/svg" width="10.962" height="12.641" viewBox="0 0 10.962 12.641">
  <path id="Path_7" d="M.67,0A.7.7,0,0,0,.012.578c-.069.364.153.676.61.857a11.3,11.3,0,0,0,2.1.623C2.345,1.551,1.808.853,1.449.444A1.1,1.1,0,0,0,.67,0Z" transform="translate(2.024 0.666)" fill="#d7a81e" opacity="0.55"/>
  <path id="Path_8" d="M2.057,0a1.1,1.1,0,0,0-.78.444C.919.853.382,1.551,0,2.057a11.3,11.3,0,0,0,2.1-.623c.457-.181.679-.493.61-.857A.7.7,0,0,0,2.057,0Z" transform="translate(6.211 0.666)" fill="#d7a81e" opacity="0.55"/>
  <rect id="Rectangle_3" width="4.644" height="4.227" transform="translate(0.317 8.414)" fill="#d7a81e" opacity="0.714"/>
  <rect id="Rectangle_4" width="4.643" height="1.728" transform="translate(6.001 5.645)" fill="#dab74e" opacity="0.714"/>
  <rect id="Rectangle_5" width="4.643" height="4.227" transform="translate(6.001 8.414)" fill="#d7a81e" opacity="0.714"/>
  <rect id="Rectangle_6" width="4.644" height="1.728" transform="translate(0.317 5.645)" fill="#d7a81e" opacity="0.714"/>
  <path id="Path_11" d="M0,2.5H4.961V0H0Z" transform="translate(6.001 3.146)" fill="#d7a81e"/>
  <path id="Path_12" d="M4.961,2.5V0H0V2.5Z" transform="translate(0 3.146)" fill="#d7a81e"/>
  <path id="Path_13" d="M4.644,12.641V8.414H0V7.373H4.644V3.146H3.326c-.366-.1-.781-.243-1.242-.425a2.2,2.2,0,0,1-.242-.114,1.514,1.514,0,0,1-.671-.671.007.007,0,0,1,0,0,1.319,1.319,0,0,1-.1-.811A1.355,1.355,0,0,1,2.377,0,1.7,1.7,0,0,1,3.658.671c.446.508,1.13,1.412,1.507,1.916.375-.5,1.06-1.408,1.507-1.916A1.7,1.7,0,0,1,7.952,0a1.309,1.309,0,0,1,.9.365,1.4,1.4,0,0,1,.41.754,1.421,1.421,0,0,1-1.019,1.6C7.783,2.9,7.367,3.04,7,3.146H5.684V7.373h4.644V8.414H5.684v4.226Z" transform="translate(0.317 0)" fill="#fff"/>
</svg>
