<svg xmlns="http://www.w3.org/2000/svg" width="115.68" height="115.67" viewBox="0 0 115.68 115.67">
  <g id="Gift" transform="translate(-0.32 -0.005)">
    <path id="Path_1" d="M1.26.211Q.628.168,0,.112.628.168,1.26.211Z" transform="translate(52.965 115.329)" fill="#2caeb7"/>
    <path id="Path_2" d="M1.649.251C1.1.2.547.139,0,.071.547.138,1.1.2,1.649.251Z" transform="translate(50.898 115.153)" fill="#2caeb7"/>
    <path id="Path_3" d="M1.7.175C1.13.175.564.164,0,.148.564.164,1.13.175,1.7.175Z" transform="translate(56.463 115.501)" fill="#2caeb7"/>
    <path id="Path_4" d="M1.227.19Q.612.167,0,.132.612.168,1.227.19Z" transform="translate(54.745 115.44)" fill="#2caeb7"/>
    <path id="Path_5" d="M27.325,66.991V50.627H25.452V35.863H41.4l-3.188-3.188a8.955,8.955,0,0,1-3.967-3.968l-.017-.017,0-.01a7.8,7.8,0,0,1-.612-4.793,8,8,0,0,1,7.751-6.615c1.864,0,4.69.688,7.567,3.963,2.635,3,6.682,8.343,8.9,11.319,2.22-2.976,6.268-8.318,8.9-11.319,2.877-3.277,5.7-3.963,7.566-3.963a7.727,7.727,0,0,1,5.324,2.161l.241-.009,35.739,35.739q.03.659.047,1.321a57.837,57.837,0,1,0-65.089,58.732L27.325,91.968Z" transform="translate(0.32 0.005)" fill="#d7a81e" opacity="0.298"/>
    <path id="Path_6" d="M88.336,37.061q-.016-.663-.047-1.321L52.55,0l-.241.009a8.263,8.263,0,0,1,2.426,4.454c.606,3.183-.658,7.34-6.023,9.461-2.723,1.077-5.178,1.892-7.341,2.513H62.9V31.2H61.029V72.544H0L23.247,95.792h.006c.548.068,1.1.129,1.649.18l.419.038q.628.056,1.26.1c.173.011.347.023.52.032q.612.036,1.227.058c.163.006.326.014.49.018.564.017,1.13.027,1.7.027A57.839,57.839,0,0,0,88.355,38.405C88.353,37.958,88.347,37.509,88.336,37.061Z" transform="translate(27.645 19.429)" fill="#d7a81e" opacity="0.302"/>
    <path id="Path_7" d="M3.956,0A4.131,4.131,0,0,0,.074,3.416c-.41,2.15.9,4,3.6,5.062a66.772,66.772,0,0,0,12.436,3.681c-2.258-3-5.428-7.118-7.547-9.533C7.057.908,5.464,0,3.956,0Z" transform="translate(37.733 21.215)" fill="#d7a81e" opacity="0.252"/>
    <path id="Path_8" d="M12.155,0c-1.507,0-3.1.908-4.608,2.625C5.428,5.04,2.258,9.162,0,12.158a66.758,66.758,0,0,0,12.435-3.68c2.7-1.067,4.012-2.912,3.6-5.062A4.131,4.131,0,0,0,12.155,0Z" transform="translate(62.474 21.215)" fill="#d7a81e" opacity="0.252"/>
    <path id="Path_9" d="M1.431.674A13.075,13.075,0,0,1,0,0L3.188,3.188H8.772C6.608,2.566,4.154,1.75,1.431.674Z" transform="translate(38.531 32.68)" fill="#d7a81e" opacity="0.252"/>
    <path id="Path_10" d="M.153.158.17.174.157.148Z" transform="translate(34.394 28.536)" fill="#0e8787"/>
    <rect id="Rectangle_3" width="27.439" height="24.978" transform="translate(27.645 66.997)" fill="#d7a81e" opacity="0.803"/>
    <rect id="Rectangle_4" width="27.439" height="10.213" transform="translate(61.235 50.632)" fill="#d7a81e" opacity="0.803"/>
    <rect id="Rectangle_5" width="27.439" height="24.978" transform="translate(61.235 66.997)" fill="#d7a81e" opacity="0.803"/>
    <rect id="Rectangle_6" width="27.439" height="10.213" transform="translate(27.645 50.632)" fill="#d7a81e" opacity="0.803"/>
    <path id="Path_11" d="M0,14.765H29.313V0H0Z" transform="translate(61.235 35.868)" fill="#d7a81e"/>
    <path id="Path_12" d="M29.313,14.765V0H0V14.765Z" transform="translate(25.772 35.868)" fill="#d7a81e"/>
    <path id="Path_13" d="M27.44,74.7V49.718H0V43.567H27.44V18.59H19.658c-2.164-.621-4.618-1.436-7.341-2.513a13.279,13.279,0,0,1-1.43-.674,8.952,8.952,0,0,1-3.967-3.967.189.189,0,0,1-.013-.027,7.808,7.808,0,0,1-.612-4.793A8,8,0,0,1,14.045,0c1.864,0,4.69.687,7.567,3.964,2.635,3,6.682,8.343,8.9,11.319,2.22-2.976,6.268-8.318,8.9-11.319C42.295.686,45.121,0,46.985,0a7.726,7.726,0,0,1,5.324,2.161,8.256,8.256,0,0,1,2.426,4.454c.606,3.183-.657,7.34-6.023,9.461-2.723,1.076-5.178,1.892-7.341,2.514h-7.78V43.566H61.03v6.152H33.592V74.7Z" transform="translate(27.645 17.279)" fill="#fff"/>
  </g>
</svg>
