<svg xmlns="http://www.w3.org/2000/svg" width="137" height="144" viewBox="0 0 137 144">
    <g fill="none" fill-rule="evenodd">
        <g fill-rule="nonzero">
            <g>
                <g transform="translate(-208 -664) translate(20 276) translate(188.5 388)">
                    <g fill="#231F20" opacity=".21">
                        <path d="M41.322 0.002L134.913 36.877 93.728 78.943 0.137 42.066z" transform="translate(.5 65)"/>
                    </g>
                    <path fill="#217BAD" d="M135.5 95L135.5 96.925 133.5 97zM5.5 101.822L.5 102 .5 100z"/>
                    <path fill="#3D98E2" d="M135.5 96.01L133.514 98.043 5.015 103 0.5 101.218 41.753 59z"/>
                    <path fill="#217BAD" d="M135.5 97L94.5 138 94.5 136.102 133.526 97.074z"/>
                    <path fill="#3D98E2" d="M134.5 97L95.079 136 5.5 101.811z"/>
                    <path fill="#217BAD" d="M93.5 137.108L93.5 139 0.5 103.169 4.979 103z"/>
                    <path fill="#231F20" d="M94.237 138L94.198 137.984 0.5 102.151 0.549 102.026 94.205 137.842 135.404 97 135.5 97.095z"/>
                    <path fill="#231F20" d="M94.216 138l-.04-.017L.5 101.108l.072-.075L41.784 59l.042.017L135.5 95.884l-2.055 2.09L94.215 138zM.742 101.064l93.441 36.774 41.075-41.904-93.441-36.772L.742 101.064z"/>
                    <path fill="#231F20" d="M93.432 136H94.432V138H93.432zM135.432 95H136.432V97H135.432zM.432 100H1.432V102H.432z"/>
                    <path fill="#2F8DCC" d="M122.5 94c2.762 0 5 1.79 5 4.001 0 2.21-2.238 3.999-5 3.999-2.763 0-5-1.79-5-3.999.003-.56.144-1.11.41-1.588h.009c.768-1.425 2.531-2.413 4.58-2.413z"/>
                    <path fill="#FFF" d="M119.505 96.005L119.495 96.005 119.495 95.995z"/>
                    <path fill="#2F8DCC" d="M119.5 96.579v.01l-30.269 30.674c-.318.207-.608.455-.863.737L18.5 100.685c.208-.362.335-.766.374-1.182L48.97 69 119.5 96.579z"/>
                    <path fill="#2F8DCC" d="M92.5 125c2.762 0 5 1.791 5 4.001 0 2.21-2.238 3.999-5 3.999-2.76 0-5-1.79-5-3.999.013-.821.308-1.607.826-2.2l.092.038.74-.812c1.001-.688 2.162-1.045 3.343-1.026z"/>
                    <path fill="#FFF" d="M88.5 127l-.888 1-.112-.047c.295-.365.631-.686 1-.953z"/>
                    <path fill="#2F8DCC" d="M18.5 99.999c0 .097-.005.193-.016.289l-.911 1.003.55.233c-.748 1.454-2.536 2.476-4.622 2.476-2.763 0-5.001-1.79-5.001-4.001 0-2.21 2.238-3.999 5-3.999 2.763 0 5 1.79 5 3.999zM18.5 98.812l1-.812c-.041.353-.176.694-.396 1l-.604-.188z"/>
                    <path fill="#231F20" d="M52.97 76.207L52.973 76.207 52.832 150.975 52.828 150.975z" transform="rotate(-68.9 52.9 113.591)"/>
                    <path fill="#231F20" d="M82.299 111.251L125.12 111.13 125.12 111.133 82.299 111.254z" transform="rotate(-45.05 103.71 111.192)"/>
                    <path fill="#231F20" d="M18.598 100L18.5 99.903 48.717 69 48.757 69.017 119.5 96.927 119.451 97.057 48.75 69.164zM92.5 133c-2.756 0-5-1.792-5-3.996.012-.826.309-1.617.832-2.213.246-.296.526-.555.834-.772.999-.682 2.157-1.036 3.335-1.018 2.755 0 4.999 1.793 4.999 3.997 0 2.204-2.244 4.002-5 4.002zm0-7.852c-1.152-.017-2.285.328-3.263.994-.299.213-.57.467-.808.756-.5.57-.786 1.324-.8 2.114 0 2.126 2.187 3.854 4.872 3.854s4.87-1.728 4.87-3.854c0-2.127-2.185-3.864-4.87-3.864z"/>
                    <path fill="#231F20" d="M122.503 102c-2.758 0-5.003-1.794-5.003-4 .002-.563.146-1.115.415-1.595v-.011c.798-1.454 2.597-2.394 4.582-2.394 2.76 0 5.003 1.796 5.003 4 0 2.206-2.238 4-4.997 4zm-4.47-5.536v.011c-.258.46-.396.987-.398 1.526 0 2.127 2.186 3.857 4.873 3.857 2.686 0 4.873-1.73 4.873-3.857 0-2.127-2.187-3.86-4.873-3.86-1.946 0-3.696.912-4.475 2.323zM13.5 104c-2.757 0-5-1.795-5-4s2.25-4 5-4c2.752 0 5 1.795 5 4 .001.098-.004.196-.016.293-.038.437-.162.86-.363 1.239-.777 1.494-2.59 2.468-4.62 2.468zm0-7.858c-2.685 0-4.87 1.73-4.87 3.858s2.185 3.858 4.87 3.858c1.985 0 3.754-.945 4.5-2.394.193-.363.31-.767.346-1.184.014-.093.022-.186.024-.28 0-2.128-2.184-3.858-4.87-3.858z"/>
                    <ellipse cx="44.5" cy="67" fill="#FFF" rx="5" ry="4"/>
                    <path fill="#231F20" d="M44.5 71c-2.756 0-5-1.795-5-4s2.25-4 5-4 5 1.795 5 4-2.242 4-5 4zm0-7.858c-2.685 0-4.87 1.73-4.87 3.858s2.185 3.858 4.87 3.858 4.87-1.73 4.87-3.858-2.185-3.858-4.87-3.858z"/>
                    <path fill="#19AF60" d="M93.5 83L93.5 96.695 74.5 116 74.5 102.421 74.504 102.422zM93.5 65L93.5 82.981 74.504 102 74.5 101.998 74.5 84.017 74.504 84.019z"/>
                    <path fill="#19AF60" d="M93.5 58L93.5 65.135 74.504 84 74.5 83.998 74.5 76.751z"/>
                    <path fill="#189350" d="M93.5 56.632L74.57 76 37.5 61.368 56.43 42z"/>
                    <path fill="#19AF60" d="M75.5 101.492L75.5 115 38.5 100.493 38.5 87z"/>
                    <path fill="#19AF60" d="M75.5 83.599L75.5 102 38.5 87.401 38.5 69z"/>
                    <path fill="#19AF60" d="M75.5 76.554L75.5 84 38.5 69.46 38.5 62z"/>
                    <path fill="#231F20" d="M93.5 96L93.366 96 93.366 57.41 56.5 43.126 56.548 43 93.5 57.316zM75.5 115l-.091-.036-36.909-14.28V62l.091.036L75.5 76.316V115zm-36.866-14.41l36.732 14.212V76.41L38.634 62.198v38.393z"/>
                    <path fill="#231F20" d="M71.383 105.97L98.409 105.894 98.409 105.897 71.383 105.973z" transform="rotate(-45.05 84.896 105.934)"/>
                    <path fill="#231F20" d="M71.386 66.855L98.412 66.779 98.412 66.782 71.386 66.858z" transform="rotate(-45.05 84.9 66.819)"/>
                    <path fill="#231F20" d="M34.069 52.377L61.094 52.301 61.094 52.304 34.069 52.38z" transform="rotate(-45.05 47.582 52.34)"/>
                    <path fill="#231F20" d="M74.564 84L74.519 83.976 37.5 69.077 37.549 68.945 74.535 83.831 93.405 64 93.5 64.098z"/>
                    <path fill="#231F20" d="M74.564 102L74.519 101.976 37.5 87.077 37.549 86.945 74.535 101.831 93.405 82 93.5 82.098z"/>
                    <path fill="#836A15" d="M57.5 23v27.663c0 .183-.224.337-.5.337-.274 0-.5-.15-.5-.337V23c0 .183.224.339.5.339.277 0 .5-.152.5-.339z"/>
                    <path fill="#FFF" d="M57 22c.276 0 .5.225.5.499 0 .273-.224.501-.5.501-.274 0-.5-.225-.5-.501 0-.277.23-.499.5-.499z"/>
                    <path fill="#231F20" d="M56.432 23H57.432V50H56.432z"/>
                    <path fill="#231F20" d="M56.432 23H57.432V50H56.432zM57 51c-.28 0-.5-.452-.5-1h.096c0 .312.166.66.405.66.238 0 .403-.348.403-.66h.096c.005.561-.215 1-.5 1zM57 23c-.28 0-.5-.226-.5-.501 0-.276.22-.499.5-.499.281 0 .5.226.5.499S57.285 23 57 23zm0-.83c-.238 0-.404.173-.404.329 0 .156.166.332.405.332.238 0 .403-.174.403-.332 0-.158-.161-.33-.403-.33z"/>
                    <path fill="#FFF" d="M56.5 29L58.5 28"/>
                    <path fill="#231F20" d="M55.948 29.797L58.647 29.79 58.647 29.793 55.948 29.801z" transform="rotate(-44.05 57.297 29.795)"/>
                    <path fill="#A6D513" d="M66.494 32.012c.112.97-1.404 8.988-1.404 8.988l-.548-9.925-3.042-4.64L62.614 26s3.766 5.042 3.88 6.012z"/>
                    <path fill="#A6D513" d="M63.892 30.778L64.5 41 60.5 26z"/>
                    <path fill="#FFF" d="M61.024 26L65.5 41 62.415 31.411 59.89 28.449 58.5 26.816z"/>
                    <path fill="#231F20" d="M58.234 27L59.5 27.931 59.361 28 57.5 27.912z"/>
                    <path fill="#FFF" d="M59.5 28.15L56.5 30 57.512 28z"/>
                    <path fill="#231F20" d="M65.682 41l-3.183-9.95-3.999-4.724L62.577 25l.032.034c.188.216 4.744 5.29 4.883 6.31.14 1.022-1.69 9.061-1.765 9.404l-.045.252zm-6.95-14.607l3.892 4.605 3.03 9.468c.315-1.405 1.83-8.214 1.705-9.103-.131-.94-4.415-5.752-4.825-6.207l-3.801 1.237z"/>
                    <path fill="#231F20" d="M56.5 31l1.012-3 1.988.23-3 2.77zm1.085-2.819l-.781 2.34 2.332-2.17-1.551-.17z"/>
                    <path fill="#231F20" d="M56.743 27.954L58.564 27.95 58.564 27.953 56.743 27.957z" transform="rotate(-64.37 57.654 27.954)"/>
                    <path fill="#231F20" d="M65.348 41L64.608 30.828 60.5 26.08 60.62 26 64.756 30.78 64.758 30.8 65.5 40.991z"/>
                    <path fill="#A6D513" d="M45.506 37.02c-.111.968 1.41 8.98 1.41 8.98l.547-9.909 3.037-4.657L49.387 31s-3.767 5.044-3.881 6.02z"/>
                    <path fill="#A6D513" d="M48.111 36.46L47.5 46 51.5 32zM51.975 32L47.5 46 50.587 37.051 53.11 34.286 54.5 32.763z"/>
                    <path fill="#231F20" d="M54.766 33L53.5 33.931 53.64 34 55.5 33.912z"/>
                    <path fill="#0E8633" d="M53.5 34.149L56.5 36 55.489 34z"/>
                    <path fill="#231F20" d="M48.129 46l-.053-.247c-.07-.32-1.69-7.858-1.57-8.81.12-.951 4.166-5.707 4.337-5.91l.03-.033 3.627 1.244-3.548 4.424L48.129 46zm2.791-14.841c-.371.437-4.16 4.933-4.278 5.814-.11.83 1.222 7.17 1.51 8.51l2.686-8.873.009-.01 3.444-4.286-3.37-1.155z"/>
                    <path fill="#231F20" d="M56.5 36l-3-1.852L55.488 34l1.012 2zm-2.62-1.754l2.312 1.425-.78-1.542-1.532.117z"/>
                    <path fill="#231F20" d="M54.736 31.89L54.739 31.89 54.735 33.629 54.732 33.629z" transform="rotate(-25.59 54.735 32.76)"/>
                    <path fill="#231F20" d="M47.627 46L47.5 45.991 48.093 36.46 48.105 36.445 51.398 32 51.5 32.078 48.217 36.509z"/>
                    <path fill="#3DEA8F" d="M46.5 0l8.798 1.583L60.5 23l-8.798-1.576L46.5 0zm8.16 2.354l-7.08-1.296 4.752 19.568 7.08 1.306L54.66 2.354z"/>
                    <path fill="#3DEA8F" d="M47.5 1l7.18 1.367L59.5 23l-7.183-1.376L47.5 1zm6.749 2.134l-5.9-1.12 2.537 10.854 1.926 8.23 5.89 1.121-2.23-9.533-2.223-9.552z"/>
                    <path fill="#19AF60" d="M48.5 2l5.805 1.036 2.195 8.796-.595.149c-.105-.428-.291-.833-.548-1.191-.861-1.223-2.284-1.708-3.181-1.081-.617.43-.82 1.271-.61 2.153l-.57.138L48.5 2zm2.575 1.34c-.36.251-.37.852-.027 1.34.345.49.919.687 1.28.437.363-.25.366-.852.022-1.343-.344-.49-.917-.686-1.275-.438v.004z"/>
                    <path fill="#3DEA8F" d="M51.64 4.454c-.194-.49-.184-1.092.015-1.344s.514-.055.705.435c.191.49.186 1.096-.012 1.346-.197.25-.516.054-.708-.437zM51.588 12.44c-.234-.877 0-1.733.677-2.165.997-.63 2.578-.14 3.534 1.088.286.36.492.767.609 1.197.24.89.011 1.732-.677 2.166-.994.627-2.576.142-3.534-1.089-.286-.36-.492-.766-.609-1.196z"/>
                    <path fill="#19AF60" d="M50.5 12.172l.593-.142c.109.439.302.852.57 1.22.896 1.252 2.372 1.748 3.305 1.109.644-.442.858-1.301.634-2.207L56.22 12l2.28 9-6.023-1.058-1.977-7.77zm3.848 5.369c-.375.257-.387.873-.028 1.374.36.501.953.702 1.327.444.374-.258.383-.87.024-1.373-.36-.503-.946-.703-1.323-.449v.004z"/>
                    <path fill="#FFF" d="M54.64 19.456c-.194-.491-.184-1.094.015-1.346.2-.253.515-.055.706.436.19.49.185 1.094-.013 1.344s-.516.058-.707-.434z"/>
                    <path fill="#231F20" d="M60.5 23l-8.828-1.59-.01-.042L46.5 0l8.822 1.596.01.043L60.5 23zm-8.722-1.707l8.548 1.54-5.104-21.12L46.676.167l5.102 21.125z"/>
                    <path fill="#231F20" d="M59.5 23l-7.217-1.393L47.5 1l7.208 1.384L59.5 23zm-7.11-1.515l6.932 1.336-4.716-20.306-6.93-1.329 4.715 20.299z"/>
                    <path fill="#231F20" d="M58.5 22l-5.733-1.116L48.5 2l5.735 1.13L58.5 22zm-5.63-1.247l5.459 1.072L54.13 3.25l-5.46-1.075 4.2 18.578z"/>
                    <path fill="#231F20" d="M54.707 16c-.87 0-1.85-.693-2.516-1.896-.283-.502-.488-1.068-.603-1.666-.24-1.29.02-2.46.686-3.05.997-.884 2.581-.206 3.533 1.508.282.502.486 1.066.602 1.664.247 1.287-.017 2.457-.686 3.051-.299.26-.654.395-1.016.389zm-1.413-6.823c-.338-.009-.67.117-.948.36-.616.547-.857 1.642-.63 2.86.112.576.309 1.12.58 1.604.908 1.632 2.404 2.289 3.336 1.462.62-.552.862-1.647.63-2.86-.112-.576-.309-1.12-.58-1.604-.632-1.155-1.566-1.822-2.388-1.822zM51.775 5c-.107 0-.214-.018-.314-.051-.567-.2-.945-.688-.96-1.24-.009-.233.11-.456.315-.596.4-.255 1.033-.064 1.41.425.378.49.364 1.098-.037 1.351-.122.076-.267.114-.414.11zm-.88-1.785c-.17.118-.266.302-.258.495 0 .245.087.483.246.68.152.203.369.359.621.445.2.073.425.055.607-.05.339-.215.34-.744 0-1.18-.342-.434-.883-.61-1.222-.395l.005.005zM55.769 20c-.106-.001-.21-.018-.31-.05-.566-.199-.945-.687-.959-1.238-.008-.233.11-.456.316-.596.215-.127.486-.151.725-.064.28.094.52.267.686.493.377.492.363 1.09-.04 1.345-.123.075-.27.113-.418.11zm-.544-1.871c-.12-.002-.236.03-.335.09-.168.118-.263.301-.257.493.016.497.356.937.866 1.12.198.074.424.055.603-.05.34-.216.343-.741.01-1.173-.151-.203-.368-.357-.62-.442-.086-.026-.176-.04-.267-.038z"/>
                    <path fill="#836A15" d="M71.5 29v27.661c0 .183-.224.339-.5.339-.274 0-.5-.152-.5-.339V29c0 .183.224.339.5.339.277 0 .5-.143.5-.339z"/>
                    <path fill="#FFF" d="M71 28c.276 0 .5.222.5.499 0 .276-.224.501-.5.501-.274 0-.5-.225-.5-.501 0-.277.224-.499.5-.499z"/>
                    <path fill="#231F20" d="M71.432 29H72.432V56H71.432zM70.432 29H71.432V56H70.432zM71 57c-.28 0-.5-.45-.5-1h.096c0 .315.166.662.404.662.238 0 .404-.347.404-.662h.096c0 .563-.22 1-.5 1zM71 29c-.28 0-.5-.225-.5-.5s.22-.5.5-.5.5.225.5.5-.22.5-.5.5zm0-.831c-.238 0-.404.176-.404.331 0 .155.166.331.404.331.238 0 .404-.173.404-.331 0-.158-.167-.331-.404-.331z"/>
                    <path fill="#FFF" d="M71.5 37L73.5 36"/>
                    <path fill="#231F20" d="M71.124 35.548L73.823 35.541 73.823 35.544 71.124 35.551z" transform="rotate(-44.05 72.474 35.546)"/>
                    <path fill="#A6D513" d="M81.494 39.012c.112.97-1.404 8.988-1.404 8.988l-.548-9.925-3.042-4.64L77.614 33s3.766 5.042 3.88 6.012z"/>
                    <path fill="#A6D513" d="M78.89 37.778L79.5 48 75.5 33z"/>
                    <path fill="#A6D513" d="M76.025 33L80.5 48 77.414 38.411 74.891 35.449 73.5 33.816z"/>
                    <path fill="#231F20" d="M73.233 34L74.5 34.931 74.359 35 72.5 34.912z"/>
                    <path fill="#FFF" d="M74.5 35.15L71.5 37 72.512 35z"/>
                    <path fill="#231F20" d="M79.68 48l-3.19-9.951-3.99-4.722L76.581 32l.03.034c.188.216 4.743 5.29 4.881 6.31.14 1.019-1.69 9.063-1.764 9.404L79.68 48zm-6.945-14.609l3.895 4.606 3.026 9.47c.318-1.405 1.829-8.214 1.705-9.105-.131-.939-4.412-5.753-4.821-6.206l-3.805 1.235z"/>
                    <path fill="#231F20" d="M71.5 38l1.012-3 1.988.23-3 2.77zm1.085-2.817l-.79 2.34 2.341-2.163-1.551-.177z"/>
                    <path fill="#231F20" d="M71.921 33.702L73.742 33.698 73.742 33.701 71.921 33.705z" transform="rotate(-64.37 72.831 33.701)"/>
                    <path fill="#231F20" d="M80.348 48L79.608 37.828 75.5 33.08 75.622 33 79.756 37.78 79.758 37.8 80.5 47.991z"/>
                    <path fill="#A6D513" d="M61.506 42.009c-.113.97 1.408 8.991 1.408 8.991l.548-9.922 3.038-4.641L65.388 36s-3.77 5.038-3.882 6.009z"/>
                    <path fill="#A6D513" d="M64.111 41.46L63.5 51 67.5 37z"/>
                    <path fill="#A6D513" d="M66.975 37L62.5 51 65.587 42.05 68.11 39.287 69.5 37.761z"/>
                    <path fill="#231F20" d="M69.766 37L68.5 37.931 68.64 38 70.5 37.911z"/>
                    <path fill="#FFF" d="M68.5 39.151L71.5 41 70.489 39z"/>
                    <path fill="#231F20" d="M63.127 51l-.052-.247c-.07-.32-1.689-7.86-1.569-8.814.12-.954 4.166-5.705 4.34-5.906l.03-.033 3.624 1.245-3.547 4.426L63.127 51zm2.79-14.847c-.37.438-4.158 4.936-4.275 5.809-.11.832 1.22 7.175 1.51 8.516l2.684-8.87.009-.011 3.434-4.289-3.363-1.155z"/>
                    <path fill="#231F20" d="M71.5 41l-3-1.85 1.99-.15 1.01 2zm-2.621-1.753l2.313 1.426-.78-1.544-1.533.118z"/>
                    <path fill="#231F20" d="M69.91 37.638L69.913 37.638 69.909 39.377 69.906 39.377z" transform="rotate(-25.59 69.91 38.508)"/>
                    <path fill="#231F20" d="M63.627 51L63.5 50.991 64.093 41.462 64.105 41.446 67.4 37 67.5 37.079 64.219 41.508z"/>
                    <path fill="#3DEA8F" d="M61.5 6l8.802 1.58L75.5 29l-8.802-1.577L61.5 6zm8.16 2.354l-7.08-1.298 4.752 19.57 7.084 1.306L69.66 8.354z"/>
                    <path fill="#3DEA8F" d="M62.5 6l7.18 1.368L74.5 28l-7.177-1.374L62.5 6zm6.749 2.134l-5.89-1.122 2.538 10.853 1.924 8.23 5.89 1.12-2.23-9.532-2.232-9.549z"/>
                    <path fill="#19AF60" d="M63.5 9l5.802 1.034 2.198 8.798-.594.149c-.106-.428-.293-.832-.55-1.191-.862-1.223-2.286-1.708-3.185-1.081-.617.428-.82 1.27-.61 2.151l-.57.14L63.5 9zm2.574 1.34c-.352.251-.37.85-.026 1.34.344.491.921.687 1.281.436.36-.252.366-.853.022-1.342-.345-.489-.915-.684-1.277-.434z"/>
                    <path fill="#3DEA8F" d="M65.64 10.456c-.194-.493-.184-1.094.015-1.346s.514-.056.705.436c.191.493.186 1.097-.012 1.346-.197.249-.516.054-.708-.436zM66.588 19.44c-.234-.879 0-1.734.677-2.165.997-.63 2.577-.14 3.533 1.088.286.36.493.767.61 1.198.239.887.01 1.73-.676 2.164-.995.629-2.577.144-3.535-1.088-.286-.36-.493-.767-.609-1.198z"/>
                    <path fill="#19AF60" d="M66.5 18.172l.592-.143c.108.438.302.853.57 1.22.896 1.253 2.372 1.749 3.307 1.108.643-.442.856-1.301.634-2.205L72.22 18l2.28 9-6.025-1.058-1.975-7.77zm3.847 5.369c-.365.257-.387.873-.028 1.374.36.501.953.702 1.328.444.374-.258.383-.872.023-1.373-.36-.5-.953-.705-1.323-.449v.004z"/>
                    <path fill="#FFF" d="M69.64 24.456c-.194-.49-.184-1.094.015-1.346.2-.253.515-.055.705.436.191.491.186 1.094-.012 1.345-.199.25-.516.056-.707-.435z"/>
                    <path fill="#231F20" d="M75.5 29l-8.832-1.59-.01-.044L61.5 6l8.832 1.594.01.043L75.5 29zm-8.726-1.707l8.552 1.54-5.107-21.12-8.545-1.545 5.1 21.125z"/>
                    <path fill="#231F20" d="M74.5 28l-7.217-1.393v-.043L62.5 6l7.208 1.384L74.5 28zm-7.108-1.515l6.93 1.338-4.714-20.306-6.932-1.34 4.716 20.308z"/>
                    <path fill="#231F20" d="M73.5 27l-5.733-1.125L63.5 7l5.735 1.129L73.5 27zm-5.63-1.248l5.459 1.073L69.132 8.25l-5.463-1.073 4.2 18.575z"/>
                    <path fill="#231F20" d="M69.707 22c-.87 0-1.85-.69-2.516-1.896-.283-.5-.488-1.065-.603-1.663-.24-1.292.02-2.459.686-3.049.487-.431 1.126-.51 1.797-.22.707.333 1.314.937 1.736 1.728.282.5.487 1.065.602 1.663.247 1.287-.017 2.454-.686 3.048-.298.26-.653.396-1.016.389zm-1.413-6.82c-.338-.009-.67.117-.948.359-.616.546-.857 1.644-.63 2.861.113.576.31 1.119.583 1.601.904 1.634 2.4 2.291 3.333 1.464.622-.55.862-1.646.63-2.861-.112-.576-.309-1.119-.58-1.601-.406-.76-.989-1.341-1.668-1.66-.232-.104-.475-.16-.72-.164zM66.774 11c-.107-.002-.213-.019-.313-.05-.567-.2-.945-.689-.96-1.238-.016-.233.104-.457.316-.591.212-.134.486-.158.723-.064.566.2.944.688.96 1.237.01.232-.107.455-.312.594-.122.075-.267.114-.414.112zm-.544-1.873c-.119-.001-.235.03-.333.092-.17.116-.265.3-.258.492.014.496.356.937.869 1.119.198.073.423.055.603-.048.168-.117.263-.3.254-.492-.015-.496-.357-.937-.868-1.119-.086-.027-.177-.042-.269-.044h.002zM70.77 25c-.407-.026-.777-.224-.998-.537-.174-.219-.27-.482-.272-.753-.007-.234.111-.457.317-.598.401-.253 1.033-.064 1.41.425s.363 1.094-.04 1.348c-.122.077-.268.117-.416.115zm-.543-1.878c-.12-.002-.237.03-.335.092-.17.117-.266.301-.26.494.004.245.09.482.249.68.333.433.882.609 1.223.391.34-.217.34-.742 0-1.176-.193-.275-.516-.452-.873-.48h-.004z"/>
                    <path fill="#836A15" d="M86.5 35v27.663c0 .183-.224.337-.5.337s-.5-.15-.5-.337V35c0 .183.224.339.5.339s.5-.152.5-.339z"/>
                    <path fill="#44320A" d="M86 35c.283 0 .5.222.5.499 0 .276-.224.501-.5.501s-.5-.225-.5-.501c0-.277.224-.499.5-.499z"/>
                    <path fill="#231F20" d="M87.432 35H88.432V62H87.432zM84.432 35H85.432V62H84.432zM86 63c-.28 0-.5-.45-.5-1h.096c0 .315.166.662.404.662.238 0 .404-.347.404-.662h.096c0 .563-.215 1-.5 1zM86 36c-.28 0-.5-.225-.5-.5s.22-.5.5-.5.5.225.5.5-.215.5-.5.5zm0-.831c-.238 0-.404.176-.404.331 0 .155.166.331.404.331.238 0 .404-.173.404-.331 0-.158-.166-.331-.404-.331z"/>
                    <path fill="#FFF" d="M86.5 41L88.5 40"/>
                    <path fill="#231F20" d="M85.266 41.191L87.965 41.183 87.965 41.186 85.266 41.194z" transform="rotate(-44.05 86.616 41.189)"/>
                    <path fill="#A6D513" d="M95.494 43.012c.112.97-1.404 8.988-1.404 8.988l-.548-9.925-3.042-4.64L91.614 37s3.766 5.042 3.88 6.012z"/>
                    <path fill="#A6D513" d="M92.89 41.778L93.5 52 89.5 37z"/>
                    <path fill="#A6D513" d="M91.025 37L95.5 52 92.414 42.411 89.891 39.449 88.5 37.816z"/>
                    <path fill="#231F20" d="M88.233 38L89.5 38.931 89.359 39 87.5 38.912z"/>
                    <path fill="#0E8633" d="M89.5 40.15L86.5 42 87.512 40z"/>
                    <path fill="#231F20" d="M94.685 52l-3.182-9.951-4.003-4.722L91.581 36l.03.034c.188.216 4.745 5.29 4.882 6.31.137 1.019-1.69 9.063-1.763 9.404l-.045.252zm-6.947-14.609l3.892 4.606 3.028 9.47c.316-1.405 1.829-8.214 1.705-9.105-.133-.939-4.414-5.753-4.823-6.206l-3.802 1.235z"/>
                    <path fill="#231F20" d="M86.5 42l1.011-3 1.989.23-3 2.77zm1.086-2.834l-.789 2.372 2.338-2.176-1.55-.196z"/>
                    <path fill="#231F20" d="M86.063 39.345L87.884 39.341 87.884 39.344 86.063 39.348z" transform="rotate(-64.37 86.973 39.344)"/>
                    <path fill="#231F20" d="M94.35 52L93.608 41.828 89.5 37.08 89.622 37 93.758 41.78 93.758 41.8 94.5 51.991z"/>
                    <path fill="#A6D513" d="M75.506 48.009c-.113.97 1.408 8.991 1.408 8.991l.546-9.922 3.04-4.641L79.386 42s-3.766 5.038-3.88 6.009z"/>
                    <path fill="#A6D513" d="M78.109 47.459L77.5 57 81.5 43zM81.975 43L77.5 57 80.585 48.052 83.108 45.287 84.5 43.761z"/>
                    <path fill="#231F20" d="M83.768 44L82.5 44.931 82.642 45 84.5 44.912z"/>
                    <path fill="#0E8633" d="M82.5 45.15L85.5 47 84.488 45z"/>
                    <path fill="#231F20" d="M78.128 57l-.052-.247c-.07-.32-1.69-7.86-1.57-8.814.12-.954 4.165-5.708 4.339-5.906l.028-.033 3.627 1.245-3.547 4.424L78.128 57zm2.79-14.847c-.37.438-4.159 4.936-4.276 5.809-.11.832 1.221 7.175 1.51 8.516l2.693-8.87v-.011l3.437-4.289-3.364-1.155z"/>
                    <path fill="#231F20" d="M85.5 47l-3-1.85 1.988-.15 1.012 2zm-2.621-1.753l2.313 1.426-.78-1.54-1.533.114z"/>
                    <path fill="#231F20" d="M84.053 43.294L84.056 43.294 84.052 45.033 84.049 45.033z" transform="rotate(-25.59 84.052 44.164)"/>
                    <path fill="#231F20" d="M77.627 57L77.5 56.991 78.095 47.462 78.105 47.446 81.398 43 81.5 43.078 78.219 47.508z"/>
                    <path fill="#3DEA8F" d="M76.5 12l8.804 1.58L90.5 35l-8.804-1.577L76.5 12zm8.163 2.354l-7.084-1.298 4.754 19.57 7.086 1.306-4.756-19.578z"/>
                    <path fill="#3DEA8F" d="M76.5 12l7.18 1.368L88.5 34l-7.177-1.367L76.5 12zm6.749 2.134l-5.89-1.122 2.538 10.853 1.924 8.23 5.89 1.12-2.23-9.532-2.232-9.549z"/>
                    <path fill="#19AF60" d="M77.5 13l5.802 1.034 2.198 8.798-.594.147c-.106-.427-.292-.83-.549-1.19-.863-1.222-2.286-1.707-3.186-1.082-.615.43-.82 1.271-.61 2.153l-.57.14L77.5 13zm2.58 1.34c-.352.251-.373.85-.027 1.34.346.491.92.687 1.28.436.36-.252.367-.853.021-1.342-.346-.489-.918-.684-1.275-.434z"/>
                    <path fill="#3DEA8F" d="M80.64 16.456c-.194-.493-.184-1.094.015-1.346.2-.252.513-.056.705.436.191.493.186 1.097-.012 1.346-.198.249-.517.054-.708-.436zM79.588 23.44c-.234-.887 0-1.734.677-2.166.997-.629 2.577-.139 3.535 1.09.285.36.491.766.609 1.195.238.889.01 1.732-.677 2.166-.995.629-2.575.144-3.535-1.087-.285-.362-.492-.768-.609-1.198z"/>
                    <path fill="#19AF60" d="M80.5 24.172l.592-.143c.11.438.302.852.57 1.22.897 1.253 2.372 1.749 3.307 1.108.643-.442.856-1.301.634-2.207l.617-.15 2.28 9-6.025-1.058-1.975-7.77zm3.847 5.369c-.365.257-.386.873-.028 1.374.358.501.953.702 1.328.444.374-.258.383-.872.025-1.373-.358-.5-.953-.705-1.325-.449v.004z"/>
                    <path fill="#3DEA8F" d="M83.64 31.456c-.194-.49-.184-1.094.015-1.346.2-.253.514-.055.706.436.191.491.184 1.094-.014 1.345-.198.25-.515.056-.707-.435z"/>
                    <path fill="#231F20" d="M89.5 35l-8.83-1.59-.01-.044L75.5 12l8.829 1.594.01.043L89.5 35zm-8.724-1.707l8.548 1.54-5.103-21.12-8.547-1.545 5.102 21.125z"/>
                    <path fill="#231F20" d="M88.5 34l-7.212-1.393L76.5 12l7.212 1.384L88.5 34zm-7.103-1.515l6.936 1.338-4.728-20.317-6.934-1.33 4.726 20.309z"/>
                    <path fill="#231F20" d="M87.5 33l-5.732-1.116L77.5 13l5.735 1.129L87.5 33zm-5.628-1.248l5.459 1.073-4.2-18.573-5.46-1.066 4.2 18.566z"/>
                    <path fill="#231F20" d="M82.705 26c-.264-.003-.526-.062-.775-.173-.71-.33-1.317-.935-1.739-1.727-.284-.5-.488-1.065-.602-1.663-.243-1.292.02-2.459.686-3.048.995-.884 2.582-.209 3.531 1.505.284.5.489 1.066.603 1.665.246 1.287-.015 2.454-.686 3.048-.299.262-.655.4-1.018.393zm-1.412-6.822c-.334-.007-.661.118-.937.357-.618.546-.858 1.644-.629 2.86.11.577.307 1.12.58 1.602.405.76.988 1.341 1.668 1.66.628.27 1.219.199 1.666-.196.622-.551.863-1.647.63-2.861-.11-.576-.308-1.12-.58-1.601-.641-1.155-1.576-1.821-2.398-1.821zM80.773 17c-.409-.025-.78-.225-1.001-.539-.377-.492-.362-1.09.043-1.345.216-.127.486-.151.725-.064.28.095.52.267.686.492.174.22.27.482.274.752.009.232-.108.454-.312.595-.122.075-.267.113-.415.109zm-.88-1.783c-.338.215-.344.742-.01 1.174.333.431.883.61 1.225.394.168-.117.263-.3.254-.493-.017-.496-.358-.937-.867-1.12-.198-.074-.422-.055-.602.049v-.004zM84.773 32c-.408-.025-.78-.224-1-.537-.379-.493-.363-1.094.044-1.35.4-.254 1.032-.065 1.41.424.377.489.363 1.094-.04 1.348-.121.076-.266.117-.414.115zm-.878-1.79c-.341.215-.345.743-.011 1.178.334.434.886.607 1.225.391.34-.215.341-.743 0-1.176-.341-.433-.884-.61-1.221-.393h.007z"/>
                    <path fill="#836A15" d="M46.5 35v27.663c0 .183-.223.337-.5.337-.276 0-.5-.15-.5-.337V35c0 .183.224.337.5.337.277 0 .5-.15.5-.337z"/>
                    <path fill="#44320A" d="M46 35c.277 0 .5.223.5.5s-.223.5-.5.5c-.276 0-.5-.223-.5-.5s.217-.5.5-.5z"/>
                    <path fill="#231F20" d="M46.432 35H47.432V62H46.432zM45.432 35H46.432V62H45.432zM46 63c-.28 0-.5-.45-.5-1h.096c0 .315.166.662.404.662.238 0 .404-.347.404-.662h.096c-.001.563-.22 1-.5 1z"/>
                    <path fill="#231F20" d="M46 36c-.28 0-.5-.225-.5-.5s.22-.5.5-.5.5.225.5.5-.22.5-.5.5zm0-.831c-.238 0-.404.176-.404.331 0 .155.166.331.404.331.238 0 .404-.176.404-.331 0-.155-.168-.331-.404-.331z"/>
                    <path fill="#FFF" d="M45.5 41L47.5 40"/>
                    <path fill="#231F20" d="M44.883 41.191L47.582 41.184 47.582 41.187 44.883 41.195z" transform="rotate(-44.05 46.233 41.19)"/>
                    <path fill="#A6D513" d="M55.494 43.012c.112.97-1.404 8.988-1.404 8.988l-.548-9.925-3.042-4.64L51.614 37s3.766 5.042 3.88 6.012z"/>
                    <path fill="#A6D513" d="M52.89 41.778L53.5 52 49.5 37z"/>
                    <path fill="#A6D513" d="M50.025 37L54.5 52 51.414 42.411 48.891 39.449 47.5 37.816z"/>
                    <path fill="#231F20" d="M47.233 38L48.5 38.931 48.359 39 46.5 38.912z"/>
                    <path fill="#0E8633" d="M48.5 40.15L45.5 42 46.512 40z"/>
                    <path fill="#231F20" d="M54.677 52l-3.187-9.951-3.99-4.722L51.587 36l.03.034c.188.216 4.737 5.29 4.875 6.31.14 1.019-1.687 9.063-1.762 9.404l-.053.252zM47.74 37.391l3.885 4.606 3.022 9.47c.317-1.405 1.829-8.214 1.705-9.105-.133-.939-4.408-5.753-4.817-6.206l-3.795 1.235z"/>
                    <path fill="#231F20" d="M45.5 42l1.012-3 1.988.23-3 2.77zm1.085-2.834l-.79 2.372 2.341-2.176-1.551-.196z"/>
                    <path fill="#231F20" d="M45.681 39.344L47.502 39.34 47.502 39.344 45.681 39.348z" transform="rotate(-64.37 46.591 39.344)"/>
                    <path fill="#231F20" d="M54.348 52L53.608 41.828 49.5 37.08 49.622 37 53.758 41.78 53.758 41.8 54.5 51.991z"/>
                    <path fill="#A6D513" d="M34.506 48.008c-.113.97 1.408 8.992 1.408 8.992l.548-9.923 3.038-4.64L38.388 42s-3.77 5.037-3.882 6.008z"/>
                    <path fill="#A6D513" d="M36.111 47.459L35.5 57 39.5 43zM40.974 43L36.5 57 39.586 48.05 42.108 45.287 43.5 43.761z"/>
                    <path fill="#231F20" d="M43.768 44L42.5 44.931 42.64 45 44.5 44.911z"/>
                    <path fill="#0E8633" d="M42.5 45.151L45.5 47 44.489 45z"/>
                    <path fill="#231F20" d="M37.13 57l-.053-.247c-.07-.32-1.691-7.856-1.57-8.81.12-.953 4.165-5.707 4.337-5.908l.028-.035 3.628 1.246-3.547 4.422L37.129 57zm2.791-14.84c-.37.437-4.162 4.934-4.279 5.806-.11.832 1.222 7.172 1.512 8.51l2.687-8.866v-.009l3.44-4.287-3.36-1.154z"/>
                    <path fill="#231F20" d="M45.5 47l-3-1.85 1.988-.15 1.012 2zm-2.621-1.754l2.311 1.427-.78-1.542-1.531.115z"/>
                    <path fill="#231F20" d="M43.668 43.289L43.671 43.289 43.668 45.028 43.664 45.028z" transform="rotate(-25.59 43.668 44.159)"/>
                    <path fill="#231F20" d="M35.627 57L35.5 56.993 36.093 47.462 36.105 47.447 39.398 43 39.5 43.078 36.219 47.509z"/>
                    <path fill="#3DEA8F" d="M34.5 12l8.798 1.58L48.5 35l-8.798-1.577L34.5 12zm8.158 2.354l-7.08-1.298 4.752 19.57 7.08 1.306-4.752-19.578z"/>
                    <path fill="#3DEA8F" d="M35.5 12l7.18 1.368L47.5 34l-7.177-1.367L35.5 12zm6.749 2.134l-5.9-1.122 2.539 10.853 1.924 8.23 5.89 1.12-2.23-9.532-2.223-9.549z"/>
                    <path fill="#19AF60" d="M36.5 13l5.805 1.034 2.195 8.798-.594.147c-.105-.427-.291-.83-.548-1.19-.862-1.222-2.283-1.707-3.182-1.082-.617.43-.82 1.271-.61 2.153l-.569.14L36.5 13zm2.577 1.34c-.362.251-.373.85-.027 1.34.346.491.919.687 1.279.436.36-.252.367-.853.02-1.342-.345-.489-.916-.684-1.272-.434z"/>
                    <path fill="#3DEA8F" d="M40.64 16.455c-.194-.492-.185-1.093.015-1.345s.514-.056.705.436c.191.492.186 1.095-.012 1.345-.197.25-.517.054-.707-.436zM40.588 23.44c-.234-.887 0-1.734.677-2.166.997-.629 2.577-.139 3.535 1.09.285.36.491.766.609 1.195.238.889.01 1.732-.677 2.166-.995.629-2.575.144-3.535-1.087-.285-.362-.492-.768-.609-1.198z"/>
                    <path fill="#19AF60" d="M38.5 24.172l.592-.143c.11.438.302.852.57 1.22.897 1.253 2.372 1.749 3.307 1.108.643-.442.856-1.301.634-2.207l.617-.15 2.28 9-6.025-1.058-1.975-7.77zm3.847 5.369c-.375.257-.386.873-.028 1.374.358.501.953.7 1.328.444.374-.256.383-.872.023-1.373-.36-.5-.95-.705-1.323-.449v.004z"/>
                    <path fill="#3DEA8F" d="M43.64 31.456c-.194-.49-.184-1.094.015-1.346.2-.252.515-.056.705.436.191.493.186 1.094-.012 1.345-.199.25-.516.056-.707-.435z"/>
                    <path fill="#231F20" d="M48.5 35l-8.82-1.59-.01-.044L34.5 12l8.828 1.594.009.043L48.5 35zm-8.722-1.707l8.546 1.54-5.104-21.12-8.544-1.545 5.102 21.125z"/>
                    <path fill="#231F20" d="M47.5 34l-7.212-1.393L35.5 12l7.212 1.384L47.5 34zm-7.112-1.515l6.934 1.338-4.717-20.317-6.936-1.33 4.72 20.309z"/>
                    <path fill="#231F20" d="M46.5 33l-5.733-1.116L36.5 13l5.744 1.129L46.5 33zm-5.628-1.248l5.459 1.073-4.2-18.573-5.462-1.066 4.203 18.566z"/>
                    <path fill="#231F20" d="M43.705 26c-.264-.003-.526-.062-.775-.173-.709-.33-1.317-.935-1.74-1.727-.282-.501-.487-1.066-.602-1.663-.24-1.292.02-2.459.686-3.048.997-.884 2.583-.209 3.532 1.505.283.501.487 1.066.603 1.665.246 1.287-.015 2.454-.686 3.048-.299.262-.654.4-1.018.393zm-1.412-6.822c-.334-.007-.662.118-.938.357-.615.546-.856 1.641-.629 2.86.112.576.31 1.12.582 1.602.404.761.988 1.342 1.668 1.66.625.27 1.218.199 1.665-.196.622-.551.863-1.647.63-2.861-.111-.577-.308-1.12-.58-1.603-.631-1.153-1.579-1.82-2.398-1.82zM41.775 17c-.41-.027-.783-.229-1.003-.544-.377-.491-.362-1.09.044-1.343.4-.254 1.034-.064 1.411.422.377.487.363 1.091-.04 1.345-.12.078-.264.12-.412.12zm-.881-1.78c-.341.215-.345.741-.01 1.172.333.431.884.61 1.225.393.341-.216.341-.74 0-1.173-.34-.432-.881-.606-1.22-.391h.005zM44.768 32c-.106-.001-.21-.018-.31-.05-.28-.094-.52-.265-.686-.49-.377-.491-.362-1.089.045-1.344.215-.128.486-.151.724-.064.28.094.52.266.687.491.376.491.362 1.089-.04 1.34-.123.079-.27.12-.42.117zm-.544-1.868c-.118-.002-.235.03-.333.092-.34.214-.346.74-.01 1.17.149.203.366.357.619.44.198.073.422.055.603-.049.336-.214.34-.74 0-1.17-.151-.201-.368-.355-.62-.44-.082-.026-.168-.04-.255-.043h-.004z"/>
                    <path fill="#836A15" d="M61.5 39v27.663c0 .183-.224.337-.5.337s-.5-.15-.5-.337V39c0 .183.224.337.5.337s.5-.152.5-.337z"/>
                    <path fill="#44320A" d="M61 38c.283 0 .5.225.5.501 0 .277-.224.499-.5.499s-.5-.225-.5-.499c0-.273.224-.501.5-.501z"/>
                    <path fill="#231F20" d="M60.432 39H61.432V66H60.432z"/>
                    <path fill="#231F20" d="M60.432 39H61.432V66H60.432zM61 68c-.28 0-.5-.45-.5-1h.096c0 .31.166.662.404.662.238 0 .404-.351.404-.662h.096c0 .559-.22 1-.5 1z"/>
                    <path fill="#231F20" d="M61 40c-.28 0-.5-.225-.5-.5s.22-.5.5-.5.5.225.5.5-.22.5-.5.5zm0-.831c-.238 0-.404.173-.404.331 0 .158.166.331.404.331.238 0 .404-.176.404-.331 0-.155-.166-.322-.404-.322v-.01z"/>
                    <path fill="#FFF" d="M60.5 48L62.5 47"/>
                    <path fill="#231F20" d="M60.057 46.939L62.756 46.931 62.756 46.935 60.057 46.942z" transform="rotate(-44.05 61.406 46.937)"/>
                    <path fill="#A6D513" d="M70.494 50.012c.112.97-1.404 8.988-1.404 8.988l-.548-9.925-3.042-4.64L66.614 44s3.766 5.037 3.88 6.012z"/>
                    <path fill="#A6D513" d="M67.89 48.778L68.5 59 64.5 44z"/>
                    <path fill="#A6D513" d="M65.025 44L69.5 59 66.414 49.411 63.891 46.449 62.5 44.816z"/>
                    <path fill="#231F20" d="M62.233 45L63.5 45.931 63.359 46 61.5 45.912z"/>
                    <path fill="#0E8633" d="M62.5 46.15L59.5 48 60.512 46z"/>
                    <path fill="#231F20" d="M69.671 59l-3.191-9.95-3.98-4.722L66.581 43l.03.034c.188.216 4.743 5.29 4.881 6.31.14 1.022-1.69 9.061-1.764 9.404L69.67 59zm-6.946-14.607l3.905 4.605 3.028 9.468c.316-1.405 1.829-8.214 1.705-9.103-.133-.939-4.414-5.752-4.823-6.207l-3.815 1.237zM59.5 49l1.011-3 1.989.23-3 2.77zm1.086-2.819l-.79 2.34 2.339-2.165-1.55-.175z"/>
                    <path fill="#231F20" d="M60.854 45.093L62.675 45.089 62.675 45.092 60.854 45.096z" transform="rotate(-64.37 61.764 45.092)"/>
                    <path fill="#231F20" d="M69.348 59L68.608 48.828 64.5 44.08 64.622 44 68.758 48.78 68.758 48.8 69.5 58.991z"/>
                    <path fill="#A6D513" d="M50.506 54.008c-.113.969 1.408 8.992 1.408 8.992l.546-9.923 3.04-4.642L54.386 48s-3.767 5.037-3.88 6.008z"/>
                    <path fill="#A6D513" d="M52.109 53.46L51.5 63 55.5 49zM55.975 49L51.5 63 54.585 54.051 57.108 51.286 58.5 49.763z"/>
                    <path fill="#231F20" d="M58.768 49L57.5 49.931 57.642 50 59.5 49.912z"/>
                    <path fill="#0E8633" d="M57.5 50.149L60.5 52 59.488 50z"/>
                    <path fill="#231F20" d="M52.129 64l-.053-.247c-.07-.32-1.69-7.856-1.57-8.81.12-.953 4.165-5.707 4.337-5.91l.028-.033 3.629 1.244-3.548 4.424L52.129 64zm2.791-14.841c-.37.438-4.16 4.933-4.278 5.814-.11.83 1.222 7.17 1.511 8.51l2.685-8.878.009-.01 3.438-4.286-3.365-1.15z"/>
                    <path fill="#231F20" d="M59.5 52l-3-1.852L58.488 50l1.012 2zm-2.621-1.754l2.311 1.425-.778-1.542-1.533.117z"/>
                    <path fill="#231F20" d="M58.845 49.032L58.848 49.032 58.844 50.771 58.841 50.771z" transform="rotate(-25.59 58.844 49.902)"/>
                    <path fill="#231F20" d="M51.627 63L51.5 62.991 52.093 53.462 52.105 53.445 55.4 49 55.5 49.078 52.219 53.509z"/>
                    <path fill="#3DEA8F" d="M50.5 17l8.796 1.583L64.5 40l-8.796-1.576L50.5 17zm8.156 2.354l-7.078-1.296 4.75 19.568 7.08 1.307-4.752-19.579z"/>
                    <path fill="#3DEA8F" d="M51.5 18l7.18 1.367L63.5 40l-7.183-1.378L51.5 18zm6.749 2.134l-5.9-1.126 2.539 10.853 1.924 8.232 5.89 1.119-2.23-9.53-2.223-9.548z"/>
                    <path fill="#19AF60" d="M51.5 20l5.805 1.036 2.195 8.798-.594.147c-.105-.428-.29-.831-.548-1.19-.862-1.222-2.283-1.708-3.182-1.082-.615.43-.82 1.271-.61 2.153l-.569.138L51.5 20zm2.58 1.341c-.362.252-.372.853-.026 1.342.346.488.918.688 1.278.436.36-.251.367-.852.021-1.343-.346-.49-.922-.683-1.273-.435z"/>
                    <path fill="#3DEA8F" d="M55.64 22.454c-.194-.49-.185-1.092.015-1.344s.514-.055.705.435c.191.49.186 1.096-.012 1.346-.197.25-.517.054-.707-.437zM55.588 29.44c-.234-.878 0-1.733.677-2.165.998-.63 2.578-.141 3.536 1.089.286.36.492.766.61 1.196.237.889 0 1.732-.678 2.166-.995.627-2.576.142-3.536-1.09-.285-.36-.492-.766-.609-1.196z"/>
                    <path fill="#19AF60" d="M54.5 30.17l.592-.141c.109.438.302.851.57 1.219.897 1.253 2.372 1.748 3.307 1.11.643-.443.856-1.302.634-2.208l.617-.15 2.28 9-6.025-1.056L54.5 30.17zm3.847 5.37c-.375.258-.386.872-.028 1.375s.953.7 1.328.442c.374-.258.383-.87.025-1.373s-.953-.702-1.325-.446v.002z"/>
                    <path fill="#3DEA8F" d="M58.64 36.458c-.194-.493-.184-1.095.015-1.348.2-.252.514-.056.706.435.191.492.184 1.097-.014 1.346-.198.249-.515.058-.707-.433z"/>
                    <path fill="#231F20" d="M64.5 40l-8.83-1.589-.01-.043L50.5 17l8.828 1.596.01.043L64.5 40zm-8.723-1.707l8.547 1.54-5.102-21.12-8.548-1.545 5.103 21.125z"/>
                    <path fill="#231F20" d="M63.5 40l-7.208-1.393-.01-.045L51.5 18l7.208 1.384L63.5 40zm-7.108-1.515l6.932 1.336-4.716-20.306-6.93-1.329 4.714 20.299z"/>
                    <path fill="#231F20" d="M62.5 39l-5.732-1.129L52.5 19l5.734 1.129L62.5 39zm-5.627-1.246l5.458 1.071-4.198-18.572-5.46-1.074 4.2 18.575z"/>
                    <path fill="#231F20" d="M58.705 34c-.264-.004-.526-.061-.775-.17-.709-.333-1.317-.937-1.74-1.728-.283-.502-.487-1.067-.601-1.666-.243-1.29.02-2.46.686-3.049.997-.882 2.582-.206 3.531 1.508.284.5.489 1.065.603 1.663.246 1.287-.015 2.457-.686 3.051-.3.26-.655.397-1.018.39zm-1.412-6.814c-.334-.007-.662.119-.937.36-.618.546-.858 1.641-.629 2.859.11.576.307 1.12.58 1.603.407.755.99 1.332 1.668 1.65.628.268 1.219.198 1.666-.2.622-.549.863-1.646.63-2.86-.11-.576-.307-1.12-.58-1.603-.641-1.15-1.576-1.81-2.398-1.81zM55.772 23c-.107-.001-.213-.018-.313-.05-.28-.094-.52-.266-.687-.49-.377-.492-.362-1.09.044-1.344.215-.127.486-.151.724-.064.28.094.52.266.687.491.378.492.362 1.091-.038 1.344-.123.076-.268.116-.417.113zm-.871-1.78c-.339.217-.344.743-.011 1.174.151.202.368.356.621.442.199.074.424.055.605-.05.337-.214.339-.74 0-1.172-.149-.203-.365-.357-.618-.441-.197-.074-.42-.056-.6.047h.003zM59.771 37c-.106 0-.21-.017-.31-.05-.568-.199-.947-.688-.96-1.24-.01-.234.109-.457.315-.597.4-.255 1.033-.064 1.41.425.378.488.364 1.092-.04 1.347-.121.076-.266.116-.415.115zm-.544-1.877c-.12-.002-.237.03-.336.09-.169.118-.265.301-.258.494 0 .244.087.482.247.68.15.202.368.357.62.442.2.073.424.055.605-.05.34-.215.342-.743 0-1.176-.193-.275-.516-.453-.875-.482l-.003.002z"/>
                    <path fill="#836A15" d="M75.5 46v27.663c0 .183-.224.337-.5.337-.277 0-.5-.15-.5-.337V46c0 .183.224.337.5.337.274 0 .5-.152.5-.337z"/>
                    <path fill="#44320A" d="M75 46c.276 0 .5.225.5.501 0 .277-.224.499-.5.499-.277 0-.5-.225-.5-.499 0-.273.224-.501.5-.501z"/>
                    <path fill="#231F20" d="M75.432 46H76.432V73H75.432zM73.432 46H74.432V73H73.432zM75 74c-.28 0-.5-.452-.5-1h.096c0 .312.167.66.404.66.237 0 .404-.348.404-.66h.096c0 .561-.22 1-.5 1z"/>
                    <path fill="#231F20" d="M75 47c-.28 0-.5-.225-.5-.5s.22-.5.5-.5.5.225.5.5-.22.5-.5.5zm0-.831c-.237 0-.404.173-.404.331 0 .158.167.331.404.331.237 0 .404-.176.404-.331 0-.155-.166-.331-.404-.331z"/>
                    <path fill="#FFF" d="M74.5 52L76.5 51"/>
                    <path fill="#231F20" d="M74.199 52.582L76.898 52.574 76.898 52.577 74.199 52.585z" transform="rotate(-44.05 75.548 52.58)"/>
                    <path fill="#A6D513" d="M83.494 55.012c.112.97-1.404 8.988-1.404 8.988l-.548-9.925-3.042-4.64L79.614 49s3.766 5.044 3.88 6.012z"/>
                    <path fill="#A6D513" d="M81.89 53.778L82.5 64 78.5 49zM78.025 49L82.5 64 79.414 54.411 76.891 51.449 75.5 49.816z"/>
                    <path fill="#231F20" d="M76.233 50L77.5 50.931 77.359 51 75.5 50.912z"/>
                    <path fill="#0E8633" d="M77.5 51.15L74.5 53 75.512 51z"/>
                    <path fill="#231F20" d="M83.674 65l-3.18-9.95-3.994-4.722L80.58 49l.032.034c.188.216 4.742 5.29 4.88 6.31.14 1.022-1.689 9.061-1.762 9.404l-.056.252zm-6.945-14.607l3.9 4.605 3.028 9.468c.315-1.405 1.828-8.214 1.704-9.103-.131-.939-4.413-5.752-4.822-6.207l-3.81 1.237z"/>
                    <path fill="#231F20" d="M74.5 53l1.012-3 1.988.23-3 2.77zm1.085-2.819l-.79 2.34 2.34-2.168-1.55-.172z"/>
                    <path fill="#231F20" d="M74.996 50.738L76.817 50.734 76.817 50.737 74.996 50.741z" transform="rotate(-64.37 75.906 50.737)"/>
                    <path fill="#231F20" d="M83.348 64L82.607 53.828 78.5 49.08 78.622 49 82.756 53.78 82.759 53.8 83.5 63.991z"/>
                    <path fill="#A6D513" d="M65.506 59.02c-.111.967 1.41 8.98 1.41 8.98l.546-9.91 3.038-4.656L69.385 53s-3.765 5.043-3.88 6.02z"/>
                    <path fill="#A6D513" d="M67.109 58.46L66.5 68 70.5 54zM70.975 54L66.5 68 69.585 59.051 72.108 56.286 73.5 54.763z"/>
                    <path fill="#231F20" d="M72.768 55L71.5 55.931 71.642 56 73.5 55.912z"/>
                    <path fill="#0E8633" d="M71.5 57.149L74.5 59 73.488 57z"/>
                    <path fill="#231F20" d="M66.128 69l-.054-.247c-.068-.32-1.688-7.86-1.568-8.813.12-.954 4.169-5.704 4.343-5.907l.028-.033 3.623 1.244-3.543 4.426L66.128 69zm2.787-14.847c-.37.437-4.154 4.936-4.271 5.817-.108.83 1.22 7.172 1.508 8.514l2.681-8.875v-.01l3.434-4.288-3.352-1.158z"/>
                    <path fill="#231F20" d="M74.5 59l-3-1.852L73.488 57l1.012 2zm-2.621-1.754l2.313 1.425-.78-1.542-1.533.117z"/>
                    <path fill="#231F20" d="M72.988 54.675L72.991 54.675 72.987 56.414 72.984 56.414z" transform="rotate(-25.59 72.988 55.545)"/>
                    <path fill="#231F20" d="M66.625 68L66.5 67.991 67.093 58.462 67.105 58.447 70.398 54 70.5 54.078 67.217 58.509z"/>
                    <path fill="#3DEA8F" d="M64.5 24l8.798 1.583L78.5 47l-8.798-1.576L64.5 24zm8.16 2.354l-7.08-1.296 4.752 19.568 7.079 1.306-4.751-19.578z"/>
                    <path fill="#3DEA8F" d="M65.5 24l7.18 1.367L77.5 46l-7.18-1.376L65.5 24zm6.749 2.134l-5.89-1.124 2.536 10.854 1.924 8.233 5.89 1.118-2.227-9.53-2.233-9.55z"/>
                    <path fill="#19AF60" d="M66.5 25l5.802 1.036 2.198 8.798-.596.147c-.105-.428-.291-.831-.549-1.19-.861-1.222-2.285-1.708-3.186-1.082-.615.43-.819 1.271-.61 2.153l-.57.138L66.5 25zm2.578 1.334c-.352.252-.373.853-.027 1.342.347.489.92.688 1.28.436.36-.251.368-.852.021-1.343-.346-.49-.923-.683-1.274-.435z"/>
                    <path fill="#3DEA8F" d="M69.64 27.454c-.194-.49-.184-1.092.015-1.344.2-.252.514-.055.705.435.19.49.187 1.096-.012 1.346-.198.25-.516.054-.707-.437zM68.587 35.44c-.232-.887 0-1.733.678-2.165.999-.63 2.58-.141 3.535 1.089.286.36.493.766.61 1.196.24.889 0 1.732-.678 2.166-.993.627-2.576.142-3.536-1.09-.285-.36-.492-.766-.609-1.196z"/>
                    <path fill="#19AF60" d="M69.5 35.17l.592-.141c.109.438.302.851.57 1.219.897 1.253 2.372 1.748 3.307 1.11.643-.443.858-1.302.634-2.208l.619-.15 2.278 9-6.025-1.056L69.5 35.17zm3.848 5.37c-.376.256-.387.872-.027 1.375s.953.7 1.327.442c.375-.258.384-.87.024-1.373s-.953-.702-1.324-.446v.002z"/>
                    <path fill="#3DEA8F" d="M74.64 41.457c-.194-.493-.185-1.096.015-1.347.2-.251.514-.057.705.435.192.491.185 1.097-.012 1.346-.198.25-.517.058-.707-.434z"/>
                    <path fill="#231F20" d="M78.5 47l-8.83-1.589-.01-.043L64.5 24l8.828 1.596.01.043L78.5 47zm-8.723-1.707l8.547 1.54-5.102-21.12-8.548-1.545 5.103 21.125z"/>
                    <path fill="#231F20" d="M77.5 46l-7.215-1.393L65.5 24l7.207 1.384L77.5 46zm-7.108-1.515l6.93 1.336-4.716-20.306-6.928-1.329 4.714 20.299z"/>
                    <path fill="#231F20" d="M76.5 45l-5.738-1.116L66.5 25l5.734 1.13L76.5 45zm-5.63-1.247l5.459 1.072-4.198-18.58-5.46-1.076 4.2 18.584z"/>
                    <path fill="#231F20" d="M71.706 39c-.868 0-1.848-.693-2.515-1.895-.283-.5-.488-1.065-.602-1.663-.243-1.292.02-2.46.686-3.05.487-.431 1.123-.51 1.794-.218.708.33 1.316.934 1.738 1.725.282.5.486 1.065.602 1.663.247 1.286-.017 2.455-.686 3.05-.299.26-.654.395-1.017.388zm-1.412-6.82c-.335-.006-.663.12-.938.36-.616.547-.856 1.642-.629 2.859.11.576.307 1.12.58 1.603.906 1.631 2.4 2.288 3.335 1.461.62-.551.86-1.646.629-2.858-.111-.577-.309-1.12-.582-1.603-.404-.76-.986-1.34-1.665-1.658-.235-.106-.481-.16-.73-.163zM69.78 28c-.107-.001-.213-.018-.313-.05-.568-.197-.949-.686-.967-1.238-.008-.234.11-.457.317-.596.215-.128.486-.151.724-.064.28.094.52.267.686.494.378.494.362 1.096-.038 1.35-.121.072-.264.108-.41.104zm-.543-1.88c-.119-.003-.235.029-.333.09-.168.118-.263.301-.257.494.016.499.357.94.867 1.124.198.073.423.055.604-.049.337-.216.34-.744 0-1.179-.15-.203-.366-.358-.619-.443-.085-.026-.174-.039-.264-.038h.002zM73.77 42c-.407-.025-.778-.224-.998-.536-.377-.493-.362-1.093.044-1.348.215-.127.486-.151.725-.064.28.094.52.267.687.493.377.493.362 1.091-.042 1.346-.123.075-.268.113-.415.109zm-.543-1.874c-.119-.002-.235.03-.333.09-.341.217-.345.745-.011 1.177.333.432.884.608 1.223.391.339-.217.343-.741 0-1.173-.15-.203-.366-.357-.618-.442-.084-.026-.172-.039-.26-.038v-.005z"/>
                    <path fill="#52AAFF" style="mix-blend-mode:color" d="M0.5 0H135.5V144H0.5z"/>
                </g>
            </g>
        </g>
    </g>
</svg>
