<svg width="147" height="154" viewBox="0 0 147 154" fill="none" xmlns="http://www.w3.org/2000/svg">
<g opacity="0.21">
<path d="M45.3836 70.002L145.907 109.211L101.672 153.939L1.14795 114.728L45.3836 70.002Z" fill="#231F20"/>
</g>
<path d="M146 102V103.925L144 104L146 102Z" fill="#217BAD"/>
<path d="M6 108.822L1 109V107L6 108.822Z" fill="#217BAD"/>
<path d="M146 102.534L143.867 104.705L5.84915 110L1 108.096L45.3092 63L146 102.534Z" fill="#3D98E2"/>
<path d="M146 104L102 148V145.963L143.882 104.079L146 104Z" fill="#217BAD"/>
<path d="M145 104L102.829 146L7 109.181L145 104Z" fill="#3D98E2"/>
<path d="M101 146.95V149L1 110.183L5.81588 110L101 146.95Z" fill="#217BAD"/>
<path d="M101.681 148L101.638 147.983L1 109.528L1.05247 109.393L101.646 147.831L145.897 104L146 104.102L101.681 148Z" fill="#231F20"/>
<path fill-rule="evenodd" clip-rule="evenodd" d="M101.615 146.982L101.658 147L143.793 104.441L146 102.219L45.387 63.0176L45.3423 63L1.07763 107.693L1 107.773L101.615 146.982ZM101.623 146.828L1.26007 107.726L45.3773 63.1725L145.74 102.272L101.623 146.828Z" fill="#231F20"/>
<rect x="100.927" y="146" width="0.145937" height="2" fill="#231F20"/>
<rect x="145.927" y="102" width="0.145937" height="2" fill="#231F20"/>
<rect x="0.927246" y="107" width="0.145937" height="2" fill="#231F20"/>
<path d="M132.499 100C135.538 100 138 102.014 138 104.501C138 106.988 135.538 109 132.499 109C129.46 109 127 106.986 127 104.501C127.003 103.87 127.159 103.253 127.451 102.714H127.461C128.305 101.111 130.245 100 132.499 100Z" fill="#2F8DCC"/>
<path d="M129.005 103.006H128.995V102.994L129.005 103.006Z" fill="white"/>
<path d="M129 103.448V103.46L96.6334 136.214C96.2935 136.434 95.9833 136.698 95.7107 137L21 107.833C21.222 107.446 21.3585 107.016 21.4002 106.571L53.5803 74L129 103.448Z" fill="#2F8DCC"/>
<path d="M99.501 133.001C102.538 133.001 105 135.015 105 137.501C105 139.988 102.538 142 99.501 142C96.4642 142 94 139.986 94 137.501C94.0143 136.577 94.3386 135.693 94.9082 135.026L95.0103 135.069L95.824 134.155C96.9252 133.381 98.2019 132.98 99.501 133.001Z" fill="#2F8DCC"/>
<path d="M95 136L94.1116 137L94 136.953C94.2952 136.588 94.6314 136.267 95 136Z" fill="white"/>
<path d="M19.9999 106.499C20.0008 106.608 19.995 106.716 19.9825 106.824L18.9799 107.952L19.5854 108.214C18.7621 109.85 16.7954 111 14.5009 111C11.4622 111 9 108.986 9 106.499C9 104.012 11.4622 102 14.5009 102C17.5396 102 19.9999 104.014 19.9999 106.499Z" fill="#2F8DCC"/>
<path d="M20 105.812L21 105C20.9587 105.353 20.8236 105.694 20.6038 106L20 105.812Z" fill="#2F8DCC"/>
<path d="M19.8757 107.018L19.8769 107.014L94.7064 135.941L94.7052 135.944L19.8757 107.018Z" fill="#231F20"/>
<path d="M95.6413 135.163L128.027 102.662L128.029 102.664L95.6438 135.165L95.6413 135.163Z" fill="#231F20"/>
<path d="M21.1052 107L21 106.897L53.3115 74L53.3544 74.0179L129 103.729L128.947 103.868L53.3466 74.1746L21.1052 107Z" fill="#231F20"/>
<path fill-rule="evenodd" clip-rule="evenodd" d="M94 137.505C94 139.984 96.4679 142 99.501 142C102.532 142 105 139.978 105 137.498C105 135.019 102.532 133.001 99.501 133.001C98.205 132.981 96.9314 133.379 95.8324 134.147C95.4943 134.39 95.186 134.682 94.9152 135.014C94.3399 135.686 94.013 136.575 94 137.505ZM95.9104 134.285C96.9868 133.536 98.233 133.148 99.501 133.167C102.454 133.167 104.857 135.121 104.857 137.513C104.857 139.905 102.454 141.849 99.501 141.849C96.5478 141.849 94.1427 139.905 94.1427 137.513C94.157 136.625 94.471 135.776 95.0218 135.136C95.2835 134.81 95.5823 134.524 95.9104 134.285Z" fill="#231F20"/>
<path fill-rule="evenodd" clip-rule="evenodd" d="M127 104.501C127 106.981 129.47 109 132.503 109C135.538 109 138 106.981 138 104.501C138 102.021 135.532 100 132.497 100C130.313 100 128.335 101.057 127.457 102.693V102.706C127.16 103.246 127.002 103.867 127 104.501ZM127.586 102.784V102.772C128.443 101.185 130.368 100.16 132.509 100.16C135.464 100.16 137.869 102.108 137.869 104.501C137.869 106.894 135.464 108.84 132.509 108.84C129.553 108.84 127.149 106.894 127.149 104.501C127.151 103.895 127.302 103.301 127.586 102.784Z" fill="#231F20"/>
<path fill-rule="evenodd" clip-rule="evenodd" d="M9 106.5C9 108.981 11.4668 111 14.5008 111C16.7335 111 18.7282 109.904 19.5828 108.223C19.8039 107.796 19.9402 107.321 19.9825 106.83C19.9958 106.721 20.0015 106.61 19.9997 106.5C19.9997 104.019 17.5272 102 14.5008 102C11.4744 102 9 104.019 9 106.5ZM9.14275 106.5C9.14275 104.106 11.5467 102.16 14.5008 102.16C17.4548 102.16 19.8569 104.106 19.8569 106.5C19.8545 106.606 19.8456 106.711 19.8303 106.815C19.7918 107.285 19.6618 107.739 19.4496 108.147C18.6292 109.777 16.684 110.84 14.5008 110.84C11.5467 110.84 9.14275 108.894 9.14275 106.5Z" fill="#231F20"/>
<ellipse cx="48.5" cy="71.5" rx="5.5" ry="4.5" fill="white"/>
<path fill-rule="evenodd" clip-rule="evenodd" d="M43 71.5C43 73.9809 45.4683 76 48.5 76C51.5336 76 54 73.9809 54 71.5C54 69.0191 51.526 67 48.5 67C45.474 67 43 69.0191 43 71.5ZM43.1427 71.5C43.1427 69.1064 45.5464 67.1596 48.5 67.1596C51.4536 67.1596 53.8573 69.1064 53.8573 71.5C53.8573 73.8936 51.4536 75.8404 48.5 75.8404C45.5464 75.8404 43.1427 73.8936 43.1427 71.5Z" fill="#231F20"/>
<path d="M101 89V103.525L81 124V109.598L81.0038 109.6L101 89Z" fill="#19AF60"/>
<path d="M101 69V88.4392L81.0038 109L81 108.998V89.5589L81.0038 89.5608L101 69Z" fill="#19AF60"/>
<path d="M101 62V69.6833L81.0038 90L81 89.9981V82.1937L101 62Z" fill="#19AF60"/>
<path d="M101 60.4924L80.7177 81L41 65.5076L61.2823 45L101 60.4924Z" fill="#189350"/>
<path d="M82 108.527V123L42 107.457V93L82 108.527Z" fill="#19AF60"/>
<path d="M82 89.484V109L42 93.516V74L82 89.484Z" fill="#19AF60"/>
<path d="M82 81.8774V90L42 74.1386V66L82 81.8774Z" fill="#19AF60"/>
<path d="M101 103H100.855V61.4976L61 46.1356L61.0523 46L101 61.3969V103Z" fill="#231F20"/>
<path fill-rule="evenodd" clip-rule="evenodd" d="M81.9013 122.961L82 123V81.3964L42.0987 66.0386L42 66V107.604L81.9013 122.961ZM81.8548 122.788L42.1452 107.503V66.2125L81.8548 81.4968V122.788Z" fill="#231F20"/>
<path d="M81.4176 123.545L101.857 103.033L101.859 103.035L81.4201 123.547L81.4176 123.545Z" fill="#231F20"/>
<path d="M81.421 81.7138L101.86 61.2017L101.863 61.2041L81.4235 81.7162L81.421 81.7138Z" fill="#231F20"/>
<path d="M41.36 66.2299L61.7991 45.7178L61.8016 45.7202L41.3624 66.2323L41.36 66.2299Z" fill="#231F20"/>
<path d="M80.711 90L80.6628 89.9744L41 74.3304L41.052 74.1923L80.6802 89.8225L100.898 69L101 69.1025L80.711 90Z" fill="#231F20"/>
<path d="M80.711 109L80.6628 108.974L41 93.3304L41.052 93.1923L80.6802 108.823L100.898 88L101 88.1025L80.711 109Z" fill="#231F20"/>
<path d="M62 25V54.6388C62 54.8351 61.7759 55 61.5007 55C61.2255 55 61 54.839 61 54.6388V25C61 25.1963 61.2241 25.3631 61.5007 25.3631C61.7773 25.3631 62 25.2002 62 25Z" fill="#836A15"/>
<path d="M61.5007 24C61.7759 24 62 24.2249 62 24.4986C62 24.7724 61.7759 25 61.5007 25C61.2255 25 61 24.7751 61 24.4986C61 24.2222 61.2298 24 61.5007 24Z" fill="white"/>
<rect x="60.9272" y="25" width="0.145937" height="29" fill="#231F20"/>
<rect x="60.9272" y="25" width="0.145937" height="29" fill="#231F20"/>
<path d="M61.5006 55C61.2202 55 61 54.5475 61 54H61.096C61.096 54.3122 61.2625 54.6606 61.5006 54.6606C61.7387 54.6606 61.9039 54.3122 61.9039 54H61.9999C62.005 54.5611 61.7848 55 61.5006 55Z" fill="#231F20"/>
<path fill-rule="evenodd" clip-rule="evenodd" d="M61 24.4989C61 24.7743 61.2202 25 61.5006 25C61.7849 25 62 24.772 62 24.4989C62 24.2257 61.781 24 61.5006 24C61.2202 24 61 24.2235 61 24.4989ZM61.096 24.4989C61.096 24.3431 61.2625 24.1693 61.5006 24.1693C61.7426 24.1693 61.904 24.3409 61.904 24.4989C61.904 24.6569 61.7388 24.8307 61.5006 24.8307C61.2625 24.8307 61.096 24.6546 61.096 24.4989Z" fill="#231F20"/>
<path d="M61 31L63 30L61 31Z" fill="white"/>
<path d="M60.9709 32.8695L63.0477 30.8568L63.0501 30.8593L60.9733 32.872L60.9709 32.8695Z" fill="#231F20"/>
<path d="M71.9941 34.4129C72.1062 35.4471 70.5896 44 70.5896 44L70.0422 33.4135L67 28.4648L68.1143 28C68.1143 28 71.8804 33.3786 71.9941 34.4129Z" fill="#A6D513"/>
<path d="M69.3917 33.0968L70 44L66 28L69.3917 33.0968Z" fill="#A6D513"/>
<path d="M65.8841 28L71 44L67.4743 33.7723L64.5881 30.6127L63 28.8703L65.8841 28Z" fill="white"/>
<path d="M62.7341 29L64 29.9312L63.8607 30L62 29.912L62.7341 29Z" fill="#231F20"/>
<path d="M64 30.1496L61 32L62.0115 30L64 30.1496Z" fill="white"/>
<path fill-rule="evenodd" clip-rule="evenodd" d="M67.4428 33.428L70.9799 44L71.03 43.7326C71.0356 43.7084 71.0498 43.648 71.0713 43.556C71.3742 42.2646 73.1358 34.7537 72.9916 33.7412C72.8471 32.7263 68.4056 27.9412 67.6639 27.1421C67.6129 27.0871 67.5794 27.051 67.5659 27.0363L67.5305 27L63 28.4093L67.4428 33.428ZM67.5826 33.3726L63.2588 28.48L67.4825 27.1661C67.9374 27.6493 72.6974 32.7615 72.8435 33.7603C72.9812 34.7056 71.2992 41.9395 70.9486 43.4328L67.5826 33.3726Z" fill="#231F20"/>
<path fill-rule="evenodd" clip-rule="evenodd" d="M62.0119 30L61 33L64 30.2295L62.0119 30ZM61.3039 32.5203L62.0846 30.1813L63.6363 30.3512L61.3039 32.5203Z" fill="#231F20"/>
<path d="M61.9709 30.7729L62.8125 29.0154L62.8157 29.0169L61.974 30.7744L61.9709 30.7729Z" fill="#231F20"/>
<path d="M70.848 44L70.1082 33.1497L66 28.0849L66.1196 28L70.2562 33.0988L70.2582 33.1195L71 43.9906L70.848 44Z" fill="#231F20"/>
<path d="M50.0058 39.4204C49.8946 40.4542 51.4153 49 51.4153 49L51.9634 38.4307L55 33.4631L53.8865 33C53.8865 33 50.1201 38.3807 50.0058 39.4204Z" fill="#A6D513"/>
<path d="M52.6108 38.7784L52 49L56 34L52.6108 38.7784Z" fill="#A6D513"/>
<path d="M56.1146 34L51 49L54.528 39.4117L57.4112 36.4495L59 34.8171L56.1146 34Z" fill="#A6D513"/>
<path d="M59.2658 35L58 35.9311L58.1404 36L60 35.9121L59.2658 35Z" fill="#231F20"/>
<path d="M58 36.1494L61 38L59.9886 36L58 36.1494Z" fill="#0E8633"/>
<path fill-rule="evenodd" clip-rule="evenodd" d="M51.7736 48.7369L51.8324 49L55.008 39.0463L59 34.3269L54.9197 33L54.8863 33.0357C54.8809 33.0418 54.8721 33.0516 54.8601 33.0651C54.4424 33.5329 50.1388 38.353 50.0072 39.3395C49.8718 40.3544 51.6951 48.3948 51.7736 48.7369ZM50.1603 39.3714C50.2918 38.4317 54.5546 33.6353 54.9727 33.1692L58.7645 34.4021L54.8902 38.973L54.8804 38.9843L51.858 48.4493C51.5341 47.019 50.0366 40.2567 50.1603 39.3714Z" fill="#231F20"/>
<path fill-rule="evenodd" clip-rule="evenodd" d="M58 36.1483L61 38L59.9882 36L58 36.1483ZM60.6919 37.6715L58.3805 36.2456L59.9125 36.1292L60.6919 37.6715Z" fill="#231F20"/>
<path d="M58.8572 34.1956L58.8603 34.1941L59.663 35.8731L59.6598 35.8746L58.8572 34.1956Z" fill="#231F20"/>
<path d="M52.1272 49L52 48.9907L52.5935 38.779L52.6053 38.7624L55.8983 34L56 34.0833L52.7173 38.8309L52.1272 49Z" fill="#231F20"/>
<path fill-rule="evenodd" clip-rule="evenodd" d="M59.4268 1.72036L50 0L55.5732 23.2875L65 25L59.4268 1.72036ZM51.1576 1.14952L58.7425 2.55904L63.8348 23.8388L56.2481 22.4195L51.1576 1.14952Z" fill="#3DEA8F"/>
<path fill-rule="evenodd" clip-rule="evenodd" d="M58.7791 2.49095L51 1L56.2189 23.4987L64 25L58.7791 2.49095ZM51.9204 2.10632L58.3112 3.32845L60.7205 13.7486L63.1357 24.148L56.7546 22.9259L54.6682 13.9471L51.9204 2.10632Z" fill="#3DEA8F"/>
<path fill-rule="evenodd" clip-rule="evenodd" d="M58.5302 3.13919L52 2L54.8077 13L55.4498 12.8482C55.2127 11.8781 55.4419 10.9521 56.1355 10.4796C57.1451 9.78991 58.7456 10.324 59.7137 11.6687C60.0032 12.0632 60.2125 12.5079 60.3302 12.9789L61 12.8156L58.5302 3.13919ZM54.867 4.94883C54.4797 4.41093 54.4915 3.75009 54.8966 3.47345V3.46961C55.2997 3.19682 55.9438 3.41198 56.3311 3.9518C56.7183 4.49162 56.7144 5.15438 56.3074 5.4291C55.9003 5.70381 55.2542 5.48673 54.867 4.94883Z" fill="#19AF60"/>
<path d="M56.1404 4.45366C55.9461 3.96366 55.9558 3.36165 56.1549 3.10965C56.354 2.85764 56.6687 3.0554 56.8601 3.5454C57.0514 4.03541 57.0456 4.64092 56.8484 4.89117C56.6512 5.14142 56.3317 4.94542 56.1404 4.45366Z" fill="#3DEA8F"/>
<path d="M56.0882 13.4409C55.8541 12.5627 56.0882 11.7074 56.7653 11.2753C57.7623 10.6448 59.3428 11.1348 60.2989 12.3625C60.5847 12.7232 60.7914 13.1298 60.9076 13.5603C61.1476 14.4491 60.9193 15.2921 60.2306 15.726C59.2374 16.353 57.655 15.8682 56.697 14.637C56.4111 14.2769 56.2045 13.8709 56.0882 13.4409Z" fill="#3DEA8F"/>
<path fill-rule="evenodd" clip-rule="evenodd" d="M55.6674 13.0338L55 13.1909L57.2238 21.8248L64 23L61.4353 13L60.7392 13.169C60.9918 14.1752 60.7515 15.1296 60.0267 15.6208C58.9774 16.3307 57.3162 15.7799 56.308 14.3879C56.0072 13.9803 55.7897 13.5206 55.6674 13.0338ZM59.2977 20.6834C58.8932 20.1267 58.9076 19.4426 59.3285 19.1563V19.1523C59.7536 18.87 60.4127 19.0927 60.8172 19.6514C61.2218 20.2102 61.2115 20.8902 60.7906 21.1766C60.3696 21.4629 59.7023 21.2402 59.2977 20.6834Z" fill="#19AF60"/>
<path d="M59.1406 20.4557C58.946 19.965 58.9557 19.3621 59.1552 19.1098C59.3547 18.8574 59.6699 19.0555 59.8607 19.5462C60.0514 20.0368 60.0455 20.6397 59.848 20.8903C59.6505 21.1409 59.3323 20.9481 59.1406 20.4557Z" fill="white"/>
<path fill-rule="evenodd" clip-rule="evenodd" d="M55.5419 23.2708L65 25L59.4637 1.78156L59.4525 1.73498L50 0L55.5307 23.2262L55.5419 23.2708ZM64.8138 24.8176L55.6555 23.1447L50.1881 0.182425L59.3445 1.86112L64.8138 24.8176Z" fill="#231F20"/>
<path fill-rule="evenodd" clip-rule="evenodd" d="M56.1821 23.4801L64 25L58.8084 2.50961L51 1L56.1821 23.4801ZM63.8076 24.8051L56.2983 23.3468L51.1904 1.20306L58.6979 2.65319L63.8076 24.8051Z" fill="#231F20"/>
<path fill-rule="evenodd" clip-rule="evenodd" d="M56.6933 21.8278L63 23L58.3086 3.18588L52 2L56.6933 21.8278ZM62.8118 22.8164L56.8069 21.691L52.1863 2.18364L58.1931 3.31287L62.8118 22.8164Z" fill="#231F20"/>
<path fill-rule="evenodd" clip-rule="evenodd" d="M56.6906 15.1036C57.3577 16.307 58.3375 16.9998 59.2073 16.9998C59.5695 17.0058 59.9242 16.8701 60.2231 16.6115C60.8921 16.017 61.1555 14.8471 60.9092 13.5598C60.7933 12.9621 60.5888 12.3975 60.3065 11.8962C59.3552 10.1822 57.7708 9.5038 56.774 10.3884C56.1088 10.9781 55.8472 12.1479 56.0879 13.4376C56.2034 14.0363 56.4079 14.6017 56.6906 15.1036ZM56.846 10.537C57.1241 10.2941 57.4557 10.1683 57.7936 10.1774C58.616 10.1774 59.5504 10.8438 60.1814 11.9993C60.4531 12.4827 60.6498 13.0269 60.7614 13.603C60.9945 14.816 60.7519 15.9115 60.1322 16.4628C59.1998 17.2899 57.7045 16.633 56.7967 15.0006C56.525 14.5172 56.3282 13.973 56.2168 13.3968C55.9894 12.1791 56.2301 11.0835 56.846 10.537Z" fill="#231F20"/>
<path fill-rule="evenodd" clip-rule="evenodd" d="M55.9607 4.9487C56.0613 4.98194 56.1676 4.99921 56.2747 4.99978C56.422 5.00329 56.5668 4.96467 56.6886 4.88939C57.0897 4.63566 57.1043 4.0277 56.7267 3.53837C56.3491 3.04903 55.7156 2.85791 55.3163 3.11329C55.1101 3.25344 54.9922 3.47605 55.0004 3.70972C55.0157 4.26075 55.3945 4.74941 55.9607 4.9487ZM55.1365 3.70972C55.1293 3.51681 55.2253 3.33263 55.3943 3.21544L55.3889 3.2105C55.7283 2.99466 56.2693 3.17096 56.6105 3.60592C56.9518 4.04088 56.95 4.56976 56.6105 4.78559C56.4291 4.89008 56.2032 4.90849 56.0042 4.83502C55.7515 4.74869 55.5346 4.59324 55.3834 4.39017C55.2236 4.19289 55.1372 3.95457 55.1365 3.70972Z" fill="#231F20"/>
<path fill-rule="evenodd" clip-rule="evenodd" d="M59.959 20.9505C60.0587 20.9822 60.1633 20.9989 60.2689 20.9998C60.4176 21.0029 60.5637 20.9645 60.6875 20.8898C61.0898 20.6352 61.1043 20.0373 60.7274 19.5445C60.5614 19.3188 60.3211 19.1464 60.0406 19.0518C59.8019 18.9646 59.5313 18.9885 59.3157 19.1158C59.1096 19.2561 58.992 19.4786 59.0004 19.7121C59.0143 20.2626 59.3926 20.7514 59.959 20.9505ZM59.39 19.2193C59.4888 19.1584 59.6059 19.1269 59.7253 19.129C59.8158 19.1277 59.9059 19.1405 59.9917 19.1667C60.2442 19.2516 60.4609 19.4061 60.6114 19.6086C60.9448 20.0406 60.9412 20.5662 60.6023 20.7814C60.4225 20.8869 60.1971 20.9059 59.9989 20.8323C59.4891 20.6493 59.1485 20.2088 59.1327 19.7121C59.1267 19.52 59.2223 19.3368 59.39 19.2193Z" fill="#231F20"/>
<path d="M77 31V60.6369C77 60.8332 76.7759 61 76.5007 61C76.2255 61 76 60.8371 76 60.6369V31C76 31.1963 76.2241 31.3631 76.5007 31.3631C76.7773 31.3631 77 31.21 77 31Z" fill="#836A15"/>
<path d="M76.5007 30C76.7759 30 77 30.2222 77 30.4986C77 30.7751 76.7759 31 76.5007 31C76.2255 31 76 30.7751 76 30.4986C76 30.2222 76.2241 30 76.5007 30Z" fill="white"/>
<rect x="76.9272" y="31" width="0.145937" height="29" fill="#231F20"/>
<rect x="75.9272" y="31" width="0.145937" height="29" fill="#231F20"/>
<path d="M76.5 61C76.2192 61 76 60.5495 76 60H76.0962C76.0962 60.3153 76.2615 60.6622 76.5 60.6622C76.7385 60.6622 76.9038 60.3153 76.9038 60H77C77 60.5631 76.7795 61 76.5 61Z" fill="#231F20"/>
<path fill-rule="evenodd" clip-rule="evenodd" d="M76 30.5C76 30.7748 76.2192 31 76.5 31C76.7795 31 77 30.7748 77 30.5C77 30.2252 76.7808 30 76.5 30C76.2192 30 76 30.2252 76 30.5ZM76.0962 30.5C76.0962 30.3446 76.2615 30.1689 76.5 30.1689C76.7372 30.1689 76.9038 30.3423 76.9038 30.5C76.9038 30.6577 76.7385 30.8311 76.5 30.8311C76.2615 30.8311 76.0962 30.6554 76.0962 30.5Z" fill="#231F20"/>
<path d="M77 40L79 39L77 40Z" fill="white"/>
<path d="M77.2634 39.0197L79.3402 37.0069L79.3426 37.0094L77.2658 39.0222L77.2634 39.0197Z" fill="#231F20"/>
<path d="M87.9941 41.4129C88.1062 42.4471 86.5896 51 86.5896 51L86.0422 40.4135L83 35.4648L84.1143 35C84.1143 35 87.8804 40.3786 87.9941 41.4129Z" fill="#A6D513"/>
<path d="M85.39 40.0968L86 51L82 35L85.39 40.0968Z" fill="#A6D513"/>
<path d="M81.8855 35L87 51L83.4731 40.7723L80.5898 37.6127L79 35.8703L81.8855 35Z" fill="#A6D513"/>
<path d="M78.7334 36L80 36.9312L79.8591 37L78 36.912L78.7334 36Z" fill="#231F20"/>
<path d="M80 38.1496L77 40L78.0115 38L80 38.1496Z" fill="white"/>
<path fill-rule="evenodd" clip-rule="evenodd" d="M82.4326 40.4268L85.9787 51L86.0309 50.7326C86.0359 50.7106 86.0482 50.6585 86.0666 50.5797C86.3528 49.3601 88.1366 41.7572 87.9916 40.74C87.8472 39.7269 83.4083 34.9421 82.6663 34.1423C82.6152 34.0872 82.5816 34.051 82.5682 34.0363L82.5348 34L78 35.4095L82.4326 40.4268ZM82.5891 40.3714L78.2607 35.4783L82.4889 34.1662C82.9437 34.6475 87.6996 39.7622 87.8456 40.7591C87.9833 41.7064 86.3041 48.9411 85.9516 50.4347L82.5891 40.3714Z" fill="#231F20"/>
<path fill-rule="evenodd" clip-rule="evenodd" d="M78.0119 38L77 41L80 38.2294L78.0119 38ZM77.2958 40.5229L78.0846 38.1835L79.6363 38.3601L77.2958 40.5229Z" fill="#231F20"/>
<path d="M78.2643 36.9196L79.106 35.162L79.1091 35.1635L78.2674 36.9211L78.2643 36.9196Z" fill="#231F20"/>
<path d="M86.848 51L86.1082 40.1497L82 35.0849L82.1216 35L86.2562 40.0988L86.2582 40.1195L87 50.9906L86.848 51Z" fill="#231F20"/>
<path d="M67.006 45.4096C66.8933 46.4449 68.4141 55 68.4141 55L68.9616 44.4167L72 39.4657L70.8876 39C70.8876 39 67.1186 44.3744 67.006 45.4096Z" fill="#A6D513"/>
<path d="M69.6108 44.779L69 55L73 40L69.6108 44.779Z" fill="#A6D513"/>
<path d="M72.1146 40L67 55L70.528 45.4105L73.4112 42.4499L75 40.8154L72.1146 40Z" fill="#A6D513"/>
<path d="M75.2658 40L74 40.9312L74.1404 41L76 40.9111L75.2658 40Z" fill="#231F20"/>
<path d="M74 42.1512L77 44L75.9886 42L74 42.1512Z" fill="white"/>
<path fill-rule="evenodd" clip-rule="evenodd" d="M67.772 54.7367L67.8308 55L71.0095 45.0491L75 40.3275L70.9232 39L70.8899 39.0357C70.6938 39.2501 66.1425 44.3177 66.0072 45.3349C65.8719 46.3522 67.6936 54.3945 67.772 54.7367ZM66.1601 45.3594C66.2915 44.4286 70.5526 39.6299 70.9683 39.1636L74.751 40.3952L70.8879 44.9701L70.8781 44.9814L67.8583 54.4434C67.5328 53.0125 66.0366 46.2469 66.1601 45.3594Z" fill="#231F20"/>
<path fill-rule="evenodd" clip-rule="evenodd" d="M74 42.1498L77 44L75.9893 42L74 42.1498ZM76.6917 43.6733L74.379 42.247L75.9118 42.1291L76.6917 43.6733Z" fill="#231F20"/>
<path d="M75.1473 40.3431L75.1504 40.3416L75.953 42.0206L75.9499 42.0221L75.1473 40.3431Z" fill="#231F20"/>
<path d="M69.1272 55L69 54.9907L69.5935 44.7803L69.6053 44.7636L72.9 40L73 40.0852L69.7189 44.8303L69.1272 55Z" fill="#231F20"/>
<path fill-rule="evenodd" clip-rule="evenodd" d="M76.4304 7.71841L67 6L72.5696 29.2855L82 31L76.4304 7.71841ZM68.1562 7.14756L75.7439 8.55904L80.8382 29.8388L73.2486 28.4195L68.1562 7.14756Z" fill="#3DEA8F"/>
<path fill-rule="evenodd" clip-rule="evenodd" d="M75.7791 7.49289L68 6L73.2248 28.5009L81 30L75.7791 7.49289ZM68.9301 7.10416L75.3112 8.32825L77.7302 18.7454L80.1453 29.144L73.7642 27.9219L71.6798 18.9439L68.9301 7.10416Z" fill="#3DEA8F"/>
<path fill-rule="evenodd" clip-rule="evenodd" d="M74.5275 10.1373L68 9L70.8029 20L71.4437 19.8463C71.2064 18.8762 71.4358 17.9502 72.1301 17.4796C73.1409 16.7899 74.7431 17.324 75.7123 18.6687C76.0019 19.0636 76.212 19.5081 76.3314 19.9789L77 19.8156L74.5275 10.1373ZM70.8662 11.9488C70.4785 11.409 70.5002 10.7501 70.8958 10.4735C71.3033 10.1987 71.9442 10.4139 72.3319 10.9518C72.7196 11.4897 72.7136 12.1505 72.3081 12.4272C71.9026 12.7038 71.2538 12.4886 70.8662 11.9488Z" fill="#19AF60"/>
<path d="M71.1404 11.4556C70.9461 10.9633 70.9558 10.3624 71.1549 10.1101C71.354 9.85781 71.6687 10.054 71.8601 10.5463C72.0514 11.0386 72.0456 11.643 71.8484 11.8918C71.6512 12.1405 71.3317 11.9461 71.1404 11.4556Z" fill="#3DEA8F"/>
<path d="M72.0882 20.4395C71.8541 19.5612 72.0882 18.7057 72.7651 18.2753C73.762 17.6447 75.3422 18.1348 76.2981 19.3627C76.5838 19.7237 76.791 20.1302 76.9088 20.5607C77.1468 21.4477 76.9185 22.2909 76.2318 22.7248C75.2369 23.3536 73.6547 22.8688 72.6969 21.6375C72.411 21.2767 72.2044 20.8701 72.0882 20.4395Z" fill="#3DEA8F"/>
<path fill-rule="evenodd" clip-rule="evenodd" d="M72.6654 19.0318L72 19.1909L74.2223 27.8248L81 29L78.4347 19L77.7405 19.169C77.9911 20.1732 77.7508 21.1277 77.0278 21.6188C75.9763 22.3307 74.3147 21.7799 73.3063 20.3879C73.0053 19.9796 72.7878 19.5193 72.6654 19.0318ZM76.2967 26.6834C75.8921 26.1267 75.9167 25.4426 76.3275 25.1563V25.1523C76.7444 24.868 77.4119 25.0947 77.8165 25.6514C78.2211 26.2082 78.2109 26.8902 77.7898 27.1766C77.3688 27.4629 76.7013 27.2402 76.2967 26.6834Z" fill="#19AF60"/>
<path d="M75.1406 26.4559C74.946 25.9651 74.9558 25.3622 75.1552 25.1098C75.3546 24.8574 75.6697 25.0555 75.8603 25.5462C76.051 26.037 76.0461 26.6399 75.8477 26.8906C75.6493 27.1412 75.3322 26.9467 75.1406 26.4559Z" fill="white"/>
<path fill-rule="evenodd" clip-rule="evenodd" d="M72.5372 29.2708L82 31L76.474 7.77961L76.4628 7.73304L67 6L72.526 29.2243L72.5372 29.2708ZM81.8137 30.8176L72.6509 29.1447L67.1863 6.18243L76.3417 7.86112L81.8137 30.8176Z" fill="#231F20"/>
<path fill-rule="evenodd" clip-rule="evenodd" d="M73.1821 28.4801L81 30L75.8084 7.50961L68 6L73.1821 28.433V28.4801ZM80.8076 29.8072L73.3002 28.3468L68.1904 6.1928L75.6998 7.65524L80.8076 29.8072Z" fill="#231F20"/>
<path fill-rule="evenodd" clip-rule="evenodd" d="M73.6933 27.8185L80 29L75.3086 9.18544L69 8L73.6933 27.8185ZM79.8118 28.8164L73.8069 27.6896L69.1863 8.18553L75.195 9.31238L79.8118 28.8164Z" fill="#231F20"/>
<path fill-rule="evenodd" clip-rule="evenodd" d="M72.6906 21.1041C73.3577 22.3095 74.3375 22.9997 75.2073 22.9997C75.5696 23.0068 75.9246 22.8711 76.2231 22.6115C76.8921 22.0171 77.1555 20.85 76.9092 19.5631C76.7937 18.9653 76.5891 18.4008 76.3065 17.8998C75.8846 17.109 75.2776 16.5048 74.5706 16.1719C73.8997 15.8819 73.261 15.961 72.774 16.3924C72.1088 16.982 71.8472 18.1491 72.0879 19.4408C72.2034 20.0386 72.408 20.6031 72.6906 21.1041ZM72.846 16.5386C73.1245 16.2969 73.4558 16.1712 73.7936 16.1791C74.039 16.1839 74.2822 16.239 74.5137 16.3421C75.1931 16.6619 75.7763 17.2427 76.1814 18.0029C76.4535 18.4851 76.6503 19.0284 76.7614 19.6038C76.9945 20.8189 76.7538 21.9141 76.1322 22.4653C75.1998 23.2921 73.7026 22.6355 72.7986 21.001C72.526 20.5189 72.3286 19.9756 72.2168 19.4001C71.9894 18.1826 72.2301 17.085 72.846 16.5386Z" fill="#231F20"/>
<path fill-rule="evenodd" clip-rule="evenodd" d="M71.9605 11.9491C72.0614 11.9811 72.1673 11.9983 72.2742 11.9999C72.4214 12.0022 72.5657 11.9632 72.6875 11.8885C72.8933 11.7486 73.0099 11.5263 72.9993 11.2938C72.9843 10.7446 72.6063 10.2571 72.0403 10.0568C71.8034 9.96256 71.5293 9.98676 71.3171 10.1206C71.1048 10.2545 70.9852 10.4787 71.0015 10.7122C71.0161 11.2615 71.3942 11.7492 71.9605 11.9491ZM71.3967 10.219C71.4947 10.1579 71.6112 10.1259 71.7303 10.1273H71.7285C71.82 10.1286 71.9106 10.1436 71.9968 10.1715C72.5084 10.3533 72.8502 10.7939 72.8652 11.2905C72.8736 11.4818 72.779 11.665 72.6114 11.782C72.4305 11.8853 72.2055 11.9031 72.0077 11.8295C71.4954 11.6484 71.1532 11.2074 71.1393 10.7105C71.1317 10.5186 71.2277 10.3354 71.3967 10.219Z" fill="#231F20"/>
<path fill-rule="evenodd" clip-rule="evenodd" d="M75.2722 26.4635C75.4929 26.7756 75.8632 26.9745 76.2707 26.9999C76.4195 27.0019 76.5652 26.9616 76.6875 26.8847C77.0898 26.6313 77.1043 26.0257 76.7274 25.537C76.3504 25.0482 75.718 24.859 75.3175 25.1124C75.111 25.2528 74.9926 25.4756 75.0004 25.7098C75.0025 25.9806 75.0976 26.244 75.2722 26.4635ZM75.3918 25.2145C75.4902 25.1527 75.6074 25.1205 75.727 25.1223H75.7307C76.0882 25.1507 76.4109 25.3282 76.6041 25.6028C76.9448 26.0373 76.9448 26.5622 76.6041 26.7794C76.2634 26.9966 75.7144 26.8206 75.3809 26.3878C75.2223 26.1902 75.1355 25.9526 75.1326 25.7081C75.1261 25.5152 75.2227 25.3313 75.3918 25.2145Z" fill="#231F20"/>
<path d="M93 37V66.6388C93 66.8351 92.7762 67 92.5 67C92.2238 67 92 66.839 92 66.6388V37C92 37.1963 92.2238 37.3631 92.5 37.3631C92.7762 37.3631 93 37.2002 93 37Z" fill="#836A15"/>
<path d="M92.5 37C92.7833 37 93 37.2222 93 37.4986C93 37.7751 92.7762 38 92.5 38C92.2238 38 92 37.7751 92 37.4986C92 37.2222 92.2238 37 92.5 37Z" fill="#44320A"/>
<rect x="93.9272" y="37" width="0.145937" height="29" fill="#231F20"/>
<rect x="90.9272" y="37" width="0.145937" height="29" fill="#231F20"/>
<path d="M92.5 67C92.2192 67 92 66.5495 92 66H92.0962C92.0962 66.3153 92.2615 66.6622 92.5 66.6622C92.7385 66.6622 92.9038 66.3153 92.9038 66H93C93 66.5631 92.7846 67 92.5 67Z" fill="#231F20"/>
<path fill-rule="evenodd" clip-rule="evenodd" d="M92 37.5C92 37.7748 92.2192 38 92.5 38C92.7846 38 93 37.7748 93 37.5C93 37.2252 92.7808 37 92.5 37C92.2192 37 92 37.2252 92 37.5ZM92.0962 37.5C92.0962 37.3446 92.2615 37.1689 92.5 37.1689C92.7385 37.1689 92.9038 37.3423 92.9038 37.5C92.9038 37.6577 92.7385 37.8311 92.5 37.8311C92.2615 37.8311 92.0962 37.6554 92.0962 37.5Z" fill="#231F20"/>
<path d="M93 44L95 43L93 44Z" fill="white"/>
<path d="M92.445 45.0541L94.5218 43.0413L94.5242 43.0438L92.4474 45.0566L92.445 45.0541Z" fill="#231F20"/>
<path d="M102.994 46.4129C103.106 47.4471 101.59 56 101.59 56L101.042 45.4135L98 40.4648L99.1143 40C99.1143 40 102.88 45.3786 102.994 46.4129Z" fill="#A6D513"/>
<path d="M100.39 45.0968L101 56L97 40L100.39 45.0968Z" fill="#A6D513"/>
<path d="M97.8855 40L103 56L99.4731 45.7723L96.5898 42.6127L95 40.8703L97.8855 40Z" fill="#A6D513"/>
<path d="M95.7334 41L97 41.9312L96.8591 42L95 41.912L95.7334 41Z" fill="#231F20"/>
<path d="M96 43.1496L93 45L94.0115 43L96 43.1496Z" fill="#0E8633"/>
<path fill-rule="evenodd" clip-rule="evenodd" d="M98.4473 45.4268L101.983 56L102.033 55.7326C102.04 55.7027 102.06 55.617 102.091 55.4843C102.435 54.0098 104.132 46.7336 103.992 45.74C103.849 44.7273 99.4124 39.9462 98.6673 39.1433C98.6157 39.0877 98.5818 39.0511 98.5683 39.0363L98.5349 39L94 40.4095L98.4473 45.4268ZM98.5892 45.3714L94.2649 40.4783L98.489 39.1662C98.9438 39.6475 103.7 44.7622 103.848 45.7591C103.986 46.7064 102.304 53.9411 101.954 55.4347L98.5892 45.3714Z" fill="#231F20"/>
<path fill-rule="evenodd" clip-rule="evenodd" d="M94.0113 42L93 45L96 42.2308L94.0113 42ZM93.2973 44.5385L94.0856 42.1662L95.6349 42.3623L93.2973 44.5385Z" fill="#231F20"/>
<path d="M93.446 42.9545L94.2876 41.197L94.2908 41.1985L93.4491 42.9561L93.446 42.9545Z" fill="#231F20"/>
<path d="M101.85 56L101.108 45.1497L97 40.0849L97.1216 40L101.258 45.0988V45.1195L102 55.9906L101.85 56Z" fill="#231F20"/>
<path d="M82.006 51.4096C81.8933 52.4449 83.4141 61 83.4141 61L83.9601 50.4167L87 45.4657L85.886 45C85.886 45 82.1202 50.3744 82.006 51.4096Z" fill="#A6D513"/>
<path d="M84.6091 50.7771L84 61L88 46L84.6091 50.7771Z" fill="#A6D513"/>
<path d="M88.1146 46L83 61L86.5258 51.4123L89.4089 48.4499L91 46.8154L88.1146 46Z" fill="#A6D513"/>
<path d="M90.2676 47L89 47.9312L89.1422 48L91 47.9122L90.2676 47Z" fill="#231F20"/>
<path d="M89 48.1495L92 50L90.988 48L89 48.1495Z" fill="#0E8633"/>
<path fill-rule="evenodd" clip-rule="evenodd" d="M83.7728 60.7367L83.8316 61L87.0097 51.0472L91 46.3275L86.9195 45L86.8881 45.0357C86.6919 45.2463 82.1425 50.3177 82.0072 51.3349C81.8718 52.3522 83.6943 60.3945 83.7728 60.7367ZM82.1602 51.3594C82.2916 50.4286 86.5546 45.6299 86.9705 45.1636L90.7548 46.3952L86.8881 50.9701V50.9814L83.8591 60.4434C83.5334 59.0125 82.0366 52.2469 82.1602 51.3594Z" fill="#231F20"/>
<path fill-rule="evenodd" clip-rule="evenodd" d="M89 48.1498L92 50L90.9882 48L89 48.1498ZM91.6919 49.6733L89.3788 48.247L90.9125 48.1323L91.6919 49.6733Z" fill="#231F20"/>
<path d="M90.3299 46.3919L90.333 46.3904L91.1356 48.0695L91.1325 48.071L90.3299 46.3919Z" fill="#231F20"/>
<path d="M84.1271 61L84 60.9907L84.5949 50.7803L84.6051 50.7636L87.8983 46L88 46.0833L84.7186 50.8303L84.1271 61Z" fill="#231F20"/>
<path fill-rule="evenodd" clip-rule="evenodd" d="M92.4328 14.7184L83 13L88.5672 36.2855L98 38L92.4328 14.7184ZM84.1565 14.1476L91.7461 15.559L96.8417 36.8388L89.2502 35.4195L84.1565 14.1476Z" fill="#3DEA8F"/>
<path fill-rule="evenodd" clip-rule="evenodd" d="M90.7791 14.4929L83 13L88.2248 35.5092L96 37L90.7791 14.4929ZM83.9301 14.1042L90.3112 15.3283L92.7302 25.7454L95.1453 36.144L88.7642 34.9219L86.6798 25.9439L83.9301 14.1042Z" fill="#3DEA8F"/>
<path fill-rule="evenodd" clip-rule="evenodd" d="M89.5275 15.1373L83 14L85.8029 25L86.4437 24.8463C86.2064 23.8762 86.4378 22.9502 87.1301 22.4776C88.1429 21.7899 89.7431 22.324 90.7143 23.6687C91.003 24.0631 91.2124 24.507 91.3314 24.9769L92 24.8156L89.5275 15.1373ZM85.8721 16.9488C85.4824 16.409 85.5062 15.7501 85.9018 15.4735C86.3033 15.1987 86.9462 15.4139 87.3358 15.9518C87.7255 16.4897 87.7176 17.1505 87.3121 17.4272C86.9066 17.7038 86.2618 17.4886 85.8721 16.9488Z" fill="#19AF60"/>
<path d="M87.1405 17.4556C86.9461 16.9633 86.9558 16.3624 87.155 16.1101C87.3543 15.8578 87.6682 16.054 87.8596 16.5463C88.0511 17.0386 88.0462 17.643 87.848 17.8918C87.6497 18.1405 87.3309 17.9461 87.1405 17.4556Z" fill="#3DEA8F"/>
<path d="M86.0882 25.4398C85.8541 24.5528 86.0882 23.7062 86.7651 23.2742C87.762 22.6454 89.3422 23.1354 90.3001 24.3631C90.5848 24.7237 90.7913 25.1296 90.9088 25.5592C91.1468 26.4479 90.9185 27.291 90.2318 27.7248C89.2369 28.3536 87.6567 27.8688 86.6969 26.6376C86.4119 26.2765 86.2054 25.87 86.0882 25.4398Z" fill="#3DEA8F"/>
<path fill-rule="evenodd" clip-rule="evenodd" d="M87.6654 25.0318L87 25.1909L89.2223 33.8248L96 35L93.4347 25L92.7405 25.167C92.9911 26.1732 92.7508 27.1277 92.0278 27.6188C90.9763 28.3307 89.3168 27.7799 88.3063 26.3879C88.0062 25.9791 87.7888 25.5189 87.6654 25.0318ZM91.2967 32.6834C90.8941 32.1267 90.9167 31.4426 91.3275 31.1563V31.1523C91.7465 30.868 92.416 31.0947 92.8186 31.6514C93.2211 32.2082 93.2109 32.8902 92.7898 33.1766C92.3688 33.4629 91.6992 33.2402 91.2967 32.6834Z" fill="#19AF60"/>
<path d="M90.1404 33.4559C89.9461 32.9651 89.9558 32.3622 90.155 32.1098C90.3542 31.8574 90.6691 32.0555 90.8606 32.5462C91.052 33.037 91.0452 33.6399 90.847 33.8906C90.6487 34.1412 90.3319 33.9467 90.1404 33.4559Z" fill="#3DEA8F"/>
<path fill-rule="evenodd" clip-rule="evenodd" d="M87.5389 36.2708L97 38L91.4704 14.7796L91.4593 14.733L82 13L87.5277 36.2243L87.5389 36.2708ZM96.8119 37.8176L87.6525 36.1447L82.1862 13.1824L91.3438 14.8611L96.8119 37.8176Z" fill="#231F20"/>
<path fill-rule="evenodd" clip-rule="evenodd" d="M88.187 35.4801L96 37L90.813 14.5096L83 13L88.187 35.4801ZM95.819 36.8072L88.3052 35.3468L83.1848 13.1928L90.6967 14.6429L95.819 36.8072Z" fill="#231F20"/>
<path fill-rule="evenodd" clip-rule="evenodd" d="M88.6951 33.8283L95 35L90.3086 15.1853L84 14L88.6951 33.8283ZM94.8137 34.8164L88.8088 33.6897L84.1882 14.1953L90.195 15.3142L94.8137 34.8164Z" fill="#231F20"/>
<path fill-rule="evenodd" clip-rule="evenodd" d="M88.4296 27.8272C88.6788 27.9383 88.9407 27.9966 89.2049 27.9998C89.5683 28.0065 89.9243 27.8691 90.2227 27.6068C90.8937 27.0125 91.1553 25.8456 90.9089 24.5589C90.7945 23.9599 90.5899 23.3945 90.3061 22.8935C89.3565 21.1802 87.77 20.5045 86.7749 21.3887C86.1096 21.9782 85.8461 23.1451 86.0887 24.4366C86.2026 25.035 86.4073 25.5998 86.6915 26.0996C87.1127 26.8923 87.7209 27.4969 88.4296 27.8272ZM86.8564 21.5349C87.1317 21.2959 87.4589 21.1712 87.7927 21.1778C88.6154 21.1778 89.5498 21.844 90.1905 22.9989C90.4634 23.4805 90.6603 24.0239 90.7705 24.5996C91.0037 25.8144 90.7629 26.9095 90.1412 27.4606C89.6939 27.856 89.1025 27.9279 88.4751 27.6571C87.7952 27.3383 87.2117 26.7574 86.8071 25.9966C86.5343 25.515 86.3373 24.9716 86.2271 24.3959C85.9977 23.1787 86.2385 22.0812 86.8564 21.5349Z" fill="#231F20"/>
<path fill-rule="evenodd" clip-rule="evenodd" d="M86.272 17.4614C86.4923 17.775 86.8641 17.9749 87.2734 17.9997C87.4207 18.0037 87.5657 17.9658 87.6881 17.8914C87.8924 17.7504 88.0085 17.5283 87.9995 17.2957C87.9958 17.0256 87.9004 16.7631 87.7261 16.5441C87.5598 16.3189 87.3198 16.1467 87.0398 16.0517C86.8013 15.9646 86.5309 15.9885 86.3155 16.1157C85.9099 16.3701 85.8954 16.9691 86.272 17.4614ZM86.3825 17.3909C86.0493 16.9593 86.0547 16.4325 86.3933 16.2175V16.2208C86.573 16.1167 86.7972 16.0984 86.9945 16.1715C87.5043 16.3551 87.8451 16.7955 87.8619 17.2924C87.8706 17.4841 87.7761 17.6677 87.6084 17.7847C87.2661 18.0014 86.7157 17.8225 86.3825 17.3909Z" fill="#231F20"/>
<path fill-rule="evenodd" clip-rule="evenodd" d="M90.2733 33.4635C90.4938 33.7762 90.8649 33.9753 91.2733 34C91.4211 34.0016 91.5657 33.9613 91.687 33.8848C92.0899 33.6313 92.1044 33.0257 91.727 32.537C91.3495 32.0482 90.7161 31.859 90.3169 32.1124C89.9104 32.3691 89.894 32.9698 90.2733 33.4635ZM90.384 33.3878C90.0501 32.9533 90.0537 32.4251 90.3949 32.2095H90.3877C90.7252 31.9939 91.2678 32.17 91.609 32.6028C91.9502 33.0356 91.9484 33.5639 91.609 33.7794C91.2696 33.995 90.7179 33.8222 90.384 33.3878Z" fill="#231F20"/>
<path d="M50 37V66.6388C50 66.8351 49.7773 67 49.5007 67C49.2241 67 49 66.839 49 66.6388V37C49 37.1963 49.2241 37.3612 49.5007 37.3612C49.7773 37.3612 50 37.2002 50 37Z" fill="#836A15"/>
<path d="M49.5007 37C49.7773 37 50 37.2228 50 37.5C50 37.7772 49.7773 38 49.5007 38C49.2241 38 49 37.7772 49 37.5C49 37.2228 49.217 37 49.5007 37Z" fill="#44320A"/>
<rect x="49.9272" y="37" width="0.145937" height="29" fill="#231F20"/>
<rect x="48.9272" y="37" width="0.145937" height="29" fill="#231F20"/>
<path d="M49.5 67C49.2192 67 49 66.5495 49 66H49.0962C49.0962 66.3153 49.2615 66.6622 49.5 66.6622C49.7385 66.6622 49.9038 66.3153 49.9038 66H50C49.9987 66.5631 49.7795 67 49.5 67Z" fill="#231F20"/>
<path fill-rule="evenodd" clip-rule="evenodd" d="M49 37.5C49 37.7748 49.2192 38 49.5 38C49.7795 38 50 37.7748 50 37.5C50 37.2252 49.7808 37 49.5 37C49.2192 37 49 37.2252 49 37.5ZM49.0962 37.5C49.0962 37.3446 49.2615 37.1689 49.5 37.1689C49.7359 37.1689 49.9038 37.3446 49.9038 37.5C49.9038 37.6554 49.7385 37.8311 49.5 37.8311C49.2615 37.8311 49.0962 37.6554 49.0962 37.5Z" fill="#231F20"/>
<path d="M49 44L51 43L49 44Z" fill="white"/>
<path d="M49.093 45.0546L51.1698 43.0419L51.1722 43.0444L49.0954 45.0571L49.093 45.0546Z" fill="#231F20"/>
<path d="M59.9941 46.4129C60.1062 47.4471 58.5896 56 58.5896 56L58.0422 45.4135L55 40.4648L56.1143 40C56.1143 40 59.8804 45.3786 59.9941 46.4129Z" fill="#A6D513"/>
<path d="M57.39 45.0968L58 56L54 40L57.39 45.0968Z" fill="#A6D513"/>
<path d="M53.8855 40L59 56L55.4731 45.7723L52.5898 42.6127L51 40.8703L53.8855 40Z" fill="#A6D513"/>
<path d="M50.7334 41L52 41.9312L51.8591 42L50 41.912L50.7334 41Z" fill="#231F20"/>
<path d="M52 43.1496L49 45L50.0115 43L52 43.1496Z" fill="#0E8633"/>
<path fill-rule="evenodd" clip-rule="evenodd" d="M55.4333 45.4268L58.975 56L59.0333 55.7326C59.0384 55.7106 59.0506 55.6584 59.0691 55.5796C59.3549 54.3599 61.1365 46.7572 60.9916 45.74C60.8474 44.7269 56.414 39.9421 55.6729 39.1423C55.6219 39.0872 55.5884 39.051 55.575 39.0363L55.5417 39L51 40.4095L55.4333 45.4268ZM55.5833 45.3714L51.2667 40.4783L55.4833 39.1662C55.9375 39.6475 60.6875 44.7622 60.8354 45.7591C60.9729 46.7064 59.2937 53.9411 58.9416 55.4347L55.5833 45.3714Z" fill="#231F20"/>
<path fill-rule="evenodd" clip-rule="evenodd" d="M50.0119 42L49 45L52 42.2308L50.0119 42ZM49.2958 44.5385L50.0846 42.1662L51.6363 42.3623L49.2958 44.5385Z" fill="#231F20"/>
<path d="M50.0949 42.9543L50.9366 41.1968L50.9397 41.1983L50.098 42.9558L50.0949 42.9543Z" fill="#231F20"/>
<path d="M58.848 56L58.1082 45.1497L54 40.0849L54.1216 40L58.2582 45.0988V45.1195L59 55.9906L58.848 56Z" fill="#231F20"/>
<path d="M38.006 51.4085C37.8933 52.4438 39.4141 61 39.4141 61L39.9616 50.4154L43 45.4657L41.8876 45C41.8876 45 38.1186 50.3731 38.006 51.4085Z" fill="#A6D513"/>
<path d="M39.6108 50.7771L39 61L43 46L39.6108 50.7771Z" fill="#A6D513"/>
<path d="M44.1132 46L39 61L42.527 51.4105L45.4094 48.4499L47 46.8154L44.1132 46Z" fill="#A6D513"/>
<path d="M47.2676 47L46 47.9312L46.1404 48L48 47.9111L47.2676 47Z" fill="#231F20"/>
<path d="M46 48.1512L49 50L47.9886 48L46 48.1512Z" fill="#0E8633"/>
<path fill-rule="evenodd" clip-rule="evenodd" d="M39.7739 60.7369L39.8328 61L43.0091 51.0463L47 46.3288L42.9188 45L42.8874 45.0376C42.693 45.2519 38.1426 50.3227 38.0072 51.3395C37.8717 52.3563 39.6954 60.3948 39.7739 60.7369ZM38.1603 51.3639C38.2918 50.4336 42.5576 45.6371 42.9737 45.171L46.7527 46.4021L42.8834 50.9749V50.9843L39.8603 60.4418C39.5345 59.0134 38.0366 52.251 38.1603 51.3639Z" fill="#231F20"/>
<path fill-rule="evenodd" clip-rule="evenodd" d="M46 48.1499L49 50L47.9882 48L46 48.1499ZM48.6902 49.673L46.3788 48.2456L47.9108 48.1308L48.6902 49.673Z" fill="#231F20"/>
<path d="M46.9759 46.3868L46.979 46.3853L47.7816 48.0643L47.7785 48.0658L46.9759 46.3868Z" fill="#231F20"/>
<path d="M39.1272 61L39 60.9926L39.5935 50.7809L39.6053 50.7642L42.8983 46L43 46.0833L39.7189 50.8309L39.1272 61Z" fill="#231F20"/>
<path fill-rule="evenodd" clip-rule="evenodd" d="M47.4268 14.7184L38 13L43.5732 36.2855L53 38L47.4268 14.7184ZM39.1557 14.1476L46.7406 15.559L51.833 36.8388L44.2462 35.4195L39.1557 14.1476Z" fill="#3DEA8F"/>
<path fill-rule="evenodd" clip-rule="evenodd" d="M46.7791 14.4929L39 13L44.2248 35.5092L52 37L46.7791 14.4929ZM39.9204 14.1042L46.3112 15.3283L48.7205 25.7454L51.1357 36.144L44.7546 34.9219L42.6701 25.9439L39.9204 14.1042Z" fill="#3DEA8F"/>
<path fill-rule="evenodd" clip-rule="evenodd" d="M45.5302 15.1373L39 14L41.8097 25L42.4498 24.8463C42.2127 23.8762 42.4419 22.9502 43.1355 22.4776C44.1471 21.7899 45.7456 22.324 46.7157 23.6687C47.0041 24.0631 47.2133 24.507 47.3322 24.9769L48 24.8156L45.5302 15.1373ZM41.8689 16.9488C41.4797 16.409 41.4915 15.7501 41.8986 15.4735C42.2997 15.1987 42.9418 15.4139 43.3311 15.9518C43.7203 16.4897 43.7124 17.1505 43.3074 17.4272C42.9023 17.7038 42.2582 17.4886 41.8689 16.9488Z" fill="#19AF60"/>
<path d="M44.1408 17.455C43.9464 16.9629 43.9552 16.3622 44.1554 16.11C44.3556 15.8579 44.6685 16.054 44.86 16.5461C45.0514 17.0382 45.0456 17.6406 44.8483 17.891C44.651 18.1415 44.3313 17.9453 44.1408 17.455Z" fill="#3DEA8F"/>
<path d="M44.0882 25.4398C43.8541 24.5528 44.0882 23.7062 44.7651 23.2742C45.762 22.6454 47.3422 23.1354 48.3001 24.3631C48.5848 24.7237 48.7913 25.1296 48.9088 25.5592C49.1468 26.4479 48.9185 27.291 48.2318 27.7248C47.2369 28.3536 45.6567 27.8688 44.6969 26.6376C44.4119 26.2765 44.2054 25.87 44.0882 25.4398Z" fill="#3DEA8F"/>
<path fill-rule="evenodd" clip-rule="evenodd" d="M42.6654 25.0318L42 25.1909L44.2223 33.8248L51 35L48.4347 25L47.7405 25.167C47.9911 26.1732 47.7508 27.1277 47.0278 27.6188C45.9763 28.3307 44.3168 27.7799 43.3063 26.3879C43.0062 25.9791 42.7888 25.5189 42.6654 25.0318ZM46.2967 32.6834C45.8941 32.1267 45.9064 31.4426 46.3275 31.1563V31.1523C46.7465 30.868 47.4119 31.0947 47.8165 31.6514C48.2211 32.2082 48.2109 32.8922 47.7898 33.1766C47.3688 33.4609 46.6992 33.2402 46.2967 32.6834Z" fill="#19AF60"/>
<path d="M47.1406 33.456C46.946 32.9653 46.9558 32.3625 47.1552 32.1101C47.3546 31.8578 47.6697 32.054 47.8603 32.5465C48.051 33.0389 48.0461 33.64 47.8477 33.8906C47.6493 34.1412 47.3322 33.9467 47.1406 33.456Z" fill="#3DEA8F"/>
<path fill-rule="evenodd" clip-rule="evenodd" d="M43.5505 36.2708L53 38L47.4681 14.7796L47.4588 14.733L38 13L43.5393 36.2243L43.5505 36.2708ZM52.8119 37.8176L43.6548 36.1447L38.1881 13.1824L47.3433 14.8611L52.8119 37.8176Z" fill="#231F20"/>
<path fill-rule="evenodd" clip-rule="evenodd" d="M44.187 35.4801L52 37L46.813 14.5096L39 13L44.187 35.4801ZM51.8075 36.8072L44.2957 35.3468L39.1829 13.1928L46.6967 14.6429L51.8075 36.8072Z" fill="#231F20"/>
<path fill-rule="evenodd" clip-rule="evenodd" d="M44.6933 33.8283L51 35L46.3179 15.1853L40 14L44.6933 33.8283ZM50.8137 34.8164L44.8088 33.6897L40.1863 14.1953L46.195 15.3142L50.8137 34.8164Z" fill="#231F20"/>
<path fill-rule="evenodd" clip-rule="evenodd" d="M46.4302 27.8273C46.6793 27.9384 46.9412 27.9967 47.2053 27.9998C47.5686 28.0062 47.9244 27.8688 48.2229 27.6068C48.8938 27.0126 49.1553 25.8456 48.9089 24.5589C48.7934 23.9604 48.5889 23.3953 48.3063 22.8935C47.3569 21.1802 45.7707 20.5045 44.7739 21.3887C44.1088 21.9782 43.8472 23.1451 44.0879 24.4367C44.2034 25.0343 44.4079 25.5987 44.6905 26.0996C45.1127 26.892 45.7213 27.4965 46.4302 27.8273ZM44.8554 21.5349C45.1314 21.2962 45.4591 21.1715 45.7935 21.1778C46.6121 21.1778 47.5596 21.844 48.1907 22.9966C48.4632 23.4792 48.66 24.0233 48.7706 24.5996C49.0037 25.8145 48.763 26.9095 48.1414 27.4606C47.6942 27.856 47.101 27.9279 46.4757 27.6571C45.7956 27.339 45.212 26.758 44.808 25.9966C44.5355 25.5146 44.338 24.9713 44.2263 24.3959C43.9988 23.1763 44.2395 22.0812 44.8554 21.5349Z" fill="#231F20"/>
<path fill-rule="evenodd" clip-rule="evenodd" d="M44.2725 17.4561C44.4921 17.771 44.8645 17.9729 45.2755 18C45.4232 18.0003 45.5673 17.9584 45.6872 17.8804C46.0899 17.6265 46.1044 17.0219 45.7271 16.5353C45.3499 16.0488 44.7168 15.8587 44.316 16.1127C43.9097 16.3666 43.8952 16.9646 44.2725 17.4561ZM44.3831 17.3922C44.0494 16.9613 44.053 16.4354 44.394 16.2208H44.3886C44.7277 16.0062 45.2682 16.1798 45.6092 16.6123C45.9502 17.0449 45.9502 17.5691 45.6092 17.7854C45.2682 18.0016 44.7168 17.8231 44.3831 17.3922Z" fill="#231F20"/>
<path fill-rule="evenodd" clip-rule="evenodd" d="M47.9581 33.9508C48.0576 33.9823 48.1622 33.9989 48.2677 33.9999C48.4178 34.0022 48.5648 33.9615 48.6878 33.8837C49.0897 33.6316 49.1042 33.0341 48.7276 32.5431C48.5617 32.3182 48.3215 32.1464 48.0413 32.052C47.803 31.9646 47.5323 31.9884 47.3171 32.1158C46.9097 32.3712 46.8952 32.9687 47.2718 33.4597C47.4378 33.6845 47.6779 33.8563 47.9581 33.9508ZM47.3913 32.2239C47.489 32.1625 47.6055 32.1304 47.7245 32.1322H47.7281C47.8151 32.1344 47.9012 32.1487 47.9834 32.1748C48.2353 32.2599 48.4518 32.4138 48.6027 32.6151C48.9431 33.0456 48.9394 33.571 48.6027 33.7855C48.4223 33.889 48.1976 33.9073 47.9997 33.8346C47.7468 33.751 47.5299 33.5968 47.3804 33.3943C47.0455 32.9637 47.0509 32.4383 47.3913 32.2239Z" fill="#231F20"/>
<path d="M66 42V71.6388C66 71.8351 65.7762 72 65.5 72C65.2238 72 65 71.839 65 71.6388V42C65 42.1963 65.2238 42.3612 65.5 42.3612C65.7762 42.3612 66 42.1982 66 42Z" fill="#836A15"/>
<path d="M65.5 41C65.7833 41 66 41.2249 66 41.5014C66 41.7778 65.7762 42 65.5 42C65.2238 42 65 41.7751 65 41.5014C65 41.2276 65.2238 41 65.5 41Z" fill="#44320A"/>
<rect x="64.9272" y="42" width="0.145937" height="29" fill="#231F20"/>
<rect x="64.9272" y="42" width="0.145937" height="29" fill="#231F20"/>
<path d="M65.5 73C65.2192 73 65 72.5495 65 72H65.0962C65.0962 72.3108 65.2615 72.6622 65.5 72.6622C65.7385 72.6622 65.9038 72.3108 65.9038 72H66C66 72.5586 65.7808 73 65.5 73Z" fill="#231F20"/>
<path fill-rule="evenodd" clip-rule="evenodd" d="M65 42.5C65 42.7748 65.2192 43 65.5 43C65.7808 43 66 42.7748 66 42.5C66 42.2252 65.7808 42 65.5 42C65.2192 42 65 42.2252 65 42.5ZM65.0962 42.5C65.0962 42.3423 65.2615 42.1689 65.5 42.1689V42.1779C65.7385 42.1779 65.9038 42.3446 65.9038 42.5C65.9038 42.6554 65.7385 42.8311 65.5 42.8311C65.2615 42.8311 65.0962 42.6577 65.0962 42.5Z" fill="#231F20"/>
<path d="M66 51L68 50L66 51Z" fill="white"/>
<path d="M65.382 51.2014L67.4588 49.1887L67.4613 49.1912L65.3844 51.2039L65.382 51.2014Z" fill="#231F20"/>
<path d="M75.9941 53.4129C76.1062 54.4471 74.5896 63 74.5896 63L74.0422 52.4135L71 47.4648L72.1143 47C72.1143 47 75.8804 52.3731 75.9941 53.4129Z" fill="#A6D513"/>
<path d="M73.39 52.0968L74 63L70 47L73.39 52.0968Z" fill="#A6D513"/>
<path d="M69.8855 47L75 63L71.4731 52.7723L68.5898 49.6127L67 47.8703L69.8855 47Z" fill="#A6D513"/>
<path d="M67.7334 48L69 48.9312L68.8591 49L67 48.912L67.7334 48Z" fill="#231F20"/>
<path d="M67 49.1496L64 51L65.0115 49L67 49.1496Z" fill="#0E8633"/>
<path fill-rule="evenodd" clip-rule="evenodd" d="M71.4222 52.428L74.9683 63L75.0309 62.7326C75.0364 62.7084 75.0506 62.648 75.0721 62.556C75.3748 61.2648 77.1357 53.7537 76.9916 52.7412C76.8472 51.7263 72.4076 46.9412 71.6661 46.1421C71.6151 46.0871 71.5816 46.051 71.5682 46.0363L71.5348 46L67 47.4113L71.4222 52.428ZM71.5891 52.3726L67.2503 47.48L71.4889 46.1661C71.9437 46.6493 76.6996 51.7634 76.8477 52.7603C76.9854 53.7056 75.3041 60.9395 74.9537 62.4328L71.5891 52.3726Z" fill="#231F20"/>
<path fill-rule="evenodd" clip-rule="evenodd" d="M65.0113 49L64 52L67 49.2295L65.0113 49ZM64.2956 51.5203L65.0856 49.1813L66.6349 49.3558L64.2956 51.5203Z" fill="#231F20"/>
<path d="M66.3839 49.1019L67.2256 47.3443L67.2288 47.3458L66.3871 49.1034L66.3839 49.1019Z" fill="#231F20"/>
<path d="M74.848 63L74.1082 52.1497L70 47.0849L70.1216 47L74.2582 52.0988V52.1195L75 62.9906L74.848 63Z" fill="#231F20"/>
<path d="M55.006 57.4085C54.8933 58.4419 56.4141 67 56.4141 67L56.9601 56.4154L60 51.4638L58.886 51C58.886 51 55.1186 56.3731 55.006 57.4085Z" fill="#A6D513"/>
<path d="M56.6091 56.7784L56 67L60 52L56.6091 56.7784Z" fill="#A6D513"/>
<path d="M61.1146 52L56 67L59.5258 57.4117L62.4089 54.4495L64 52.8171L61.1146 52Z" fill="#A6D513"/>
<path d="M63.2676 52L62 52.9311L62.1422 53L64 52.9121L63.2676 52Z" fill="#231F20"/>
<path d="M62 54.1494L65 56L63.988 54L62 54.1494Z" fill="#0E8633"/>
<path fill-rule="evenodd" clip-rule="evenodd" d="M56.7736 67.7369L56.8324 68L60.008 58.0463L64 53.3269L59.9177 52L59.8863 52.0357C59.692 52.2519 55.1426 57.3227 55.0072 58.3395C54.8718 59.3563 56.6951 67.3948 56.7736 67.7369ZM59.969 52.1733L59.9727 52.1692L63.7586 53.3965L59.8902 57.9673L59.8804 57.9786L56.8599 67.4493C56.5341 66.019 55.0366 59.2567 55.1603 58.3714C55.2914 57.4344 59.5321 52.6646 59.969 52.1733Z" fill="#231F20"/>
<path fill-rule="evenodd" clip-rule="evenodd" d="M61 54.1483L64 56L62.9882 54L61 54.1483ZM63.6902 55.6715L61.3788 54.2456L62.9125 54.1292L63.6902 55.6715Z" fill="#231F20"/>
<path d="M63.2688 52.5283L63.272 52.5268L64.0746 54.2058L64.0715 54.2073L63.2688 52.5283Z" fill="#231F20"/>
<path d="M56.1272 67L56 66.9907L56.5935 56.7809L56.6053 56.7624L59.9 52L60 52.0833L56.7189 56.8309L56.1272 67Z" fill="#231F20"/>
<path fill-rule="evenodd" clip-rule="evenodd" d="M64.4245 19.7204L55 18L60.5755 41.2875L70 43L64.4245 19.7204ZM56.1554 19.1495L63.7384 20.559L68.8295 41.8407L61.2447 40.4195L56.1554 19.1495Z" fill="#3DEA8F"/>
<path fill-rule="evenodd" clip-rule="evenodd" d="M63.7791 20.4908L56 19L61.2189 41.4968L69 43L63.7791 20.4908ZM56.9204 20.1L63.3112 21.3283L65.7205 31.7433L68.1357 42.1398L61.7546 40.9199L59.6701 31.9398L56.9204 20.1Z" fill="#3DEA8F"/>
<path fill-rule="evenodd" clip-rule="evenodd" d="M62.5302 22.1392L56 21L58.8097 32L59.4498 31.8482C59.2127 30.8781 59.4439 29.9521 60.1355 29.4796C61.1471 28.7918 62.7456 29.3259 63.7157 30.6706C64.0047 31.0647 64.2139 31.5087 64.3322 31.9789L65 31.8175L62.5302 22.1392ZM58.8729 23.9508C58.4836 23.4129 58.4955 22.752 58.9025 22.4754C59.2977 22.2026 59.9458 22.4139 60.335 22.9537C60.7243 23.4935 60.7164 24.1544 60.3113 24.431C59.9063 24.7076 59.2621 24.4886 58.8729 23.9508Z" fill="#19AF60"/>
<path d="M60.1408 24.4537C59.9464 23.9637 59.9552 23.3616 60.1554 23.1096C60.3556 22.8576 60.6685 23.0554 60.86 23.5454C61.0514 24.0354 61.0456 24.6409 60.8483 24.8912C60.651 25.1414 60.3313 24.9454 60.1408 24.4537Z" fill="#3DEA8F"/>
<path d="M60.0882 31.4405C59.854 30.5622 60.0882 29.7067 60.7654 29.2745C61.7625 28.6457 63.3432 29.134 64.3013 30.3637C64.5867 30.724 64.7934 31.13 64.9101 31.56C65.1482 32.4488 64.9101 33.292 64.233 33.7259C63.2378 34.353 61.6571 33.8682 60.6971 32.6368C60.4116 32.2764 60.205 31.8704 60.0882 31.4405Z" fill="#3DEA8F"/>
<path fill-rule="evenodd" clip-rule="evenodd" d="M59.6654 32.0318L59 32.1889L61.2223 40.8266L68 42L65.4347 32L64.7405 32.1671C64.9911 33.1734 64.7508 34.1281 64.0278 34.6193C62.9763 35.3294 61.3168 34.7784 60.3063 33.3862C60.0058 32.9782 59.7883 32.5186 59.6654 32.0318ZM63.2967 39.683C62.8941 39.1241 62.9064 38.4419 63.3275 38.1555V38.1535C63.7465 37.8691 64.416 38.0899 64.8186 38.6488C65.2211 39.2076 65.2109 39.8878 64.7898 40.1742C64.3688 40.4606 63.6992 40.2418 63.2967 39.683Z" fill="#19AF60"/>
<path d="M63.1404 39.4576C62.9461 38.9646 62.9558 38.3629 63.155 38.1103C63.3542 37.8577 63.6691 38.0541 63.8606 38.5453C64.052 39.0365 64.0452 39.6418 63.847 39.8909C63.6487 40.14 63.3319 39.9488 63.1404 39.4576Z" fill="#3DEA8F"/>
<path fill-rule="evenodd" clip-rule="evenodd" d="M60.54 41.2728L70 43L64.4693 19.7816L64.4581 19.735L55 18L60.5289 41.2262L60.54 41.2728ZM69.8119 42.8176L60.6536 41.1447L55.1862 18.1824L64.3445 19.8611L69.8119 42.8176Z" fill="#231F20"/>
<path fill-rule="evenodd" clip-rule="evenodd" d="M61.1916 41.4801L69 43L63.8084 20.5096L56 19L61.1802 41.4309L61.1916 41.4801ZM68.8096 42.8051L61.3002 41.3468L56.1924 19.2031L63.6998 20.6532L68.8096 42.8051Z" fill="#231F20"/>
<path fill-rule="evenodd" clip-rule="evenodd" d="M61.6943 40.8148L68 42L63.3075 22.1852L57 21L61.6943 40.8148ZM67.8137 41.8165L61.8098 40.6918L57.19 21.1874L63.1958 22.316L67.8137 41.8165Z" fill="#231F20"/>
<path fill-rule="evenodd" clip-rule="evenodd" d="M62.4296 35.8296C62.6791 35.9389 62.9409 35.9964 63.2049 35.9998C63.568 36.0059 63.9236 35.8694 64.2227 35.6091C64.8937 35.0148 65.1553 33.8451 64.9089 32.5581C64.7946 31.9597 64.5899 31.3949 64.3061 30.8948C63.3565 29.1811 61.7719 28.5052 60.7749 29.3872C60.1096 29.9768 59.8461 31.1464 60.0887 32.4359C60.2025 33.0348 60.4065 33.6003 60.6896 34.1016C61.113 34.8929 61.7213 35.4971 62.4296 35.8296ZM60.8564 29.5454C61.131 29.3046 61.4586 29.1788 61.7927 29.1859C62.6154 29.1859 63.5498 29.845 64.1905 30.9954C64.4637 31.4777 64.6606 32.0221 64.7705 32.5988C65.0037 33.8116 64.7629 34.9093 64.1412 35.4581C63.6939 35.856 63.1025 35.9255 62.4751 35.6571C61.7972 35.3397 61.2143 34.7634 60.8071 34.0081C60.5339 33.5259 60.337 32.9814 60.2271 32.4047C59.9977 31.1872 60.2385 30.0919 60.8564 29.5454Z" fill="#231F20"/>
<path fill-rule="evenodd" clip-rule="evenodd" d="M59.9586 24.9507C60.0594 24.9822 60.1653 24.9988 60.2719 24.9998C60.4205 25.0029 60.5664 24.9634 60.6886 24.8868C61.0889 24.6344 61.1052 24.0347 60.7266 23.5432C60.5607 23.318 60.3204 23.146 60.0401 23.0516C59.8015 22.9647 59.5311 22.9886 59.3156 23.1155C58.9098 23.3695 58.8953 23.9676 59.2721 24.4591C59.4387 24.6837 59.6787 24.8555 59.9586 24.9507ZM59.3898 24.3936C59.0566 23.9627 59.062 23.4367 59.4007 23.2204H59.3971C59.5771 23.1171 59.8014 23.0994 59.9984 23.1729C60.2508 23.2569 60.4671 23.4112 60.6161 23.6137C60.9548 24.0462 60.953 24.5722 60.6161 24.7868C60.4353 24.8913 60.2096 24.9096 60.0111 24.836C59.7585 24.7501 59.5414 24.5956 59.3898 24.3936Z" fill="#231F20"/>
<path fill-rule="evenodd" clip-rule="evenodd" d="M63.9608 39.9506C64.0605 39.9825 64.1654 39.9992 64.2712 40C64.4195 40.001 64.5646 39.9608 64.6869 39.8848C65.09 39.6298 65.1045 39.0261 64.7269 38.5375C64.3493 38.049 63.7157 37.8581 63.3163 38.1131C63.1096 38.2534 62.9917 38.4764 63.0005 38.7103C63.0143 39.2616 63.3933 39.7512 63.9608 39.9506ZM63.3908 38.2135C63.4899 38.1529 63.6071 38.1213 63.7266 38.123L63.7302 38.1213C64.0887 38.1501 64.4121 38.3282 64.6053 38.6033C64.9465 39.036 64.9447 39.564 64.6053 39.7795C64.4244 39.8836 64.1992 39.9019 64.0007 39.8289C63.7478 39.7439 63.5306 39.5891 63.3799 39.3864C63.2201 39.1894 63.1336 38.9514 63.133 38.707C63.126 38.5144 63.222 38.3306 63.3908 38.2135Z" fill="#231F20"/>
<path d="M82 49V78.6388C82 78.8351 81.7759 79 81.4993 79C81.2227 79 81 78.839 81 78.6388V49C81 49.1963 81.2241 49.3612 81.4993 49.3612C81.7745 49.3612 82 49.1982 82 49Z" fill="#836A15"/>
<path d="M81.4993 49C81.7759 49 82 49.2249 82 49.5014C82 49.7778 81.7759 50 81.4993 50C81.2227 50 81 49.7751 81 49.5014C81 49.2276 81.2241 49 81.4993 49Z" fill="#44320A"/>
<rect x="81.9272" y="49" width="0.145937" height="29" fill="#231F20"/>
<rect x="78.9272" y="49" width="0.145937" height="29" fill="#231F20"/>
<path d="M81.5 79C81.2192 79 81 78.5475 81 78H81.0962C81.0962 78.3122 81.2628 78.6606 81.5 78.6606C81.7372 78.6606 81.9038 78.3122 81.9038 78H82C82 78.5611 81.7808 79 81.5 79Z" fill="#231F20"/>
<path fill-rule="evenodd" clip-rule="evenodd" d="M81 49.5C81 49.7748 81.2192 50 81.5 50C81.7808 50 82 49.7748 82 49.5C82 49.2252 81.7808 49 81.5 49C81.2192 49 81 49.2252 81 49.5ZM81.0962 49.5C81.0962 49.3423 81.2628 49.1689 81.5 49.1689C81.7385 49.1689 81.9038 49.3446 81.9038 49.5C81.9038 49.6554 81.7372 49.8311 81.5 49.8311C81.2628 49.8311 81.0962 49.6577 81.0962 49.5Z" fill="#231F20"/>
<path d="M81 56L83 55L81 56Z" fill="white"/>
<path d="M80.5637 57.2358L82.6405 55.2231L82.6429 55.2256L80.5661 57.2383L80.5637 57.2358Z" fill="#231F20"/>
<path d="M89.9941 58.4129C90.1062 59.4471 88.5896 68 88.5896 68L88.0422 57.4135L85 52.4648L86.1143 52C86.1143 52 89.8804 57.3805 89.9941 58.4129Z" fill="#A6D513"/>
<path d="M88.39 57.0968L89 68L85 52L88.39 57.0968Z" fill="#A6D513"/>
<path d="M83.8855 52L89 68L85.4731 57.7723L82.5898 54.6127L81 52.8703L83.8855 52Z" fill="#A6D513"/>
<path d="M82.7334 54L84 54.9312L83.8591 55L82 54.912L82.7334 54Z" fill="#231F20"/>
<path d="M84 55.1496L81 57L82.0115 55L84 55.1496Z" fill="#0E8633"/>
<path fill-rule="evenodd" clip-rule="evenodd" d="M86.4379 58.428L89.9708 69L90.0333 68.7326C90.0405 68.7008 90.0625 68.6064 90.0966 68.46C90.4531 66.9315 92.1325 59.7311 91.9916 58.7412C91.8472 57.7263 87.4085 52.9412 86.6672 52.1421C86.6162 52.0871 86.5827 52.051 86.5693 52.0363L86.5339 52L82 53.4113L86.4379 58.428ZM86.5881 58.3726L82.2544 53.48L86.488 52.1661C86.9426 52.6493 91.6997 57.7634 91.8456 58.7603C91.9833 59.7056 90.3024 66.9395 89.952 68.4328L86.5881 58.3726Z" fill="#231F20"/>
<path fill-rule="evenodd" clip-rule="evenodd" d="M82.0119 54L81 57L84 54.2295L82.0119 54ZM81.2958 56.5203L82.0846 54.1813L83.6347 54.3535L81.2958 56.5203Z" fill="#231F20"/>
<path d="M81.5656 55.1388L82.4073 53.3812L82.4104 53.3827L81.5687 55.1403L81.5656 55.1388Z" fill="#231F20"/>
<path d="M89.8481 68L89.1066 57.1497L85 52.0849L85.1216 52L89.2565 57.0988L89.2585 57.1195L90 67.9906L89.8481 68Z" fill="#231F20"/>
<path d="M71.0058 63.4211C70.8946 64.4532 72.4153 73 72.4153 73L72.9618 62.4294L76 57.4632L74.885 57C74.885 57 71.1201 62.3795 71.0058 63.4211Z" fill="#A6D513"/>
<path d="M72.6091 62.7784L72 73L76 58L72.6091 62.7784Z" fill="#A6D513"/>
<path d="M77.1146 58L72 73L75.5258 63.4117L78.4089 60.4495L80 58.8171L77.1146 58Z" fill="#A6D513"/>
<path d="M78.2676 59L77 59.9311L77.1422 60L79 59.9121L78.2676 59Z" fill="#231F20"/>
<path d="M77 61.1494L80 63L78.988 61L77 61.1494Z" fill="#0E8633"/>
<path fill-rule="evenodd" clip-rule="evenodd" d="M71.7709 73.7368L71.8316 74L75.0141 64.0484L79 59.3274L74.9239 58L74.8926 58.0357C74.6966 58.2519 70.1424 63.3189 70.0072 64.3361C69.8769 65.3157 71.5627 72.8113 71.7555 73.6683C71.7628 73.7011 71.768 73.7242 71.7709 73.7368ZM70.162 64.368C70.2933 63.428 74.5516 58.6298 74.967 58.1636L78.7374 59.3988L74.8749 63.9713V63.9826L71.859 73.4491C71.5337 72.0183 70.0405 65.2536 70.162 64.368Z" fill="#231F20"/>
<path fill-rule="evenodd" clip-rule="evenodd" d="M77 61.1483L80 63L78.9882 61L77 61.1483ZM79.6919 62.6715L77.3788 61.2456L78.9125 61.1292L79.6919 62.6715Z" fill="#231F20"/>
<path d="M78.4514 58.5635L78.4546 58.562L79.2572 60.241L79.2541 60.2425L78.4514 58.5635Z" fill="#231F20"/>
<path d="M72.1255 73L72 72.9907L72.5935 62.7809L72.6053 62.7642L75.8983 58L76 58.0833L72.7173 62.8309L72.1255 73Z" fill="#231F20"/>
<path fill-rule="evenodd" clip-rule="evenodd" d="M79.4268 26.7204L70 25L75.5732 48.2875L85 50L79.4268 26.7204ZM71.1576 26.1495L78.7425 27.559L83.833 48.8388L76.2481 47.4195L71.1576 26.1495Z" fill="#3DEA8F"/>
<path fill-rule="evenodd" clip-rule="evenodd" d="M78.7791 26.491L71 25L76.2209 47.4987L84 49L78.7791 26.491ZM71.9301 26.1022L78.3112 27.3285L80.7302 37.7465L83.1434 48.1439L76.7623 46.9238L74.6778 37.943L71.9301 26.1022Z" fill="#3DEA8F"/>
<path fill-rule="evenodd" clip-rule="evenodd" d="M78.5275 28.1392L72 27L74.8009 38L75.4418 37.8482C75.2064 36.8781 75.4358 35.9521 76.1281 35.4796C77.1409 34.7918 78.7431 35.3259 79.7123 36.6706C80.0016 37.0647 80.2111 37.5087 80.3295 37.9789L81 37.8175L78.5275 28.1392ZM74.8701 29.9431C74.4804 29.4052 74.5042 28.7443 74.8998 28.4677C75.2954 28.1949 75.9442 28.4062 76.3338 28.946C76.7235 29.4859 76.7156 30.1467 76.3101 30.4233C75.9046 30.7 75.2598 30.481 74.8701 29.9431Z" fill="#19AF60"/>
<path d="M75.1405 29.4537C74.9461 28.9637 74.9558 28.3616 75.1551 28.1096C75.3544 27.8576 75.6694 28.0554 75.8599 28.5454C76.0505 29.0354 76.0466 29.6409 75.8483 29.8912C75.6499 30.1414 75.332 29.9454 75.1405 29.4537Z" fill="#3DEA8F"/>
<path d="M74.0874 37.4405C73.8552 36.5534 74.0874 35.7067 74.7645 35.2745C75.7636 34.6457 77.3443 35.134 78.3005 36.3637C78.5859 36.724 78.7925 37.13 78.9093 37.56C79.1493 38.4488 78.9093 39.292 78.2322 39.7259C77.2389 40.353 75.6563 39.8682 74.6962 38.6368C74.4108 38.2764 74.2042 37.8704 74.0874 37.4405Z" fill="#3DEA8F"/>
<path fill-rule="evenodd" clip-rule="evenodd" d="M75.6654 37.0318L75 37.1889L77.2223 45.8266L84 47L81.4368 37L80.7405 37.1671C80.9932 38.1734 80.7508 39.1281 80.0278 39.6193C78.9763 40.3294 77.3168 39.7784 76.3063 38.3862C76.0058 37.9782 75.7883 37.5186 75.6654 37.0318ZM79.2987 44.683C78.8941 44.1241 78.9064 43.4399 79.3295 43.1555V43.1535C79.7465 42.8691 80.414 43.0899 80.8186 43.6488C81.2232 44.2076 81.2129 44.8878 80.7919 45.1742C80.3708 45.4606 79.7033 45.2418 79.2987 44.683Z" fill="#19AF60"/>
<path d="M81.1409 44.4574C80.9464 43.9642 80.9552 43.3605 81.1555 43.1096C81.3558 42.8586 81.6688 43.0534 81.8604 43.5448C82.0519 44.0362 82.0451 44.6416 81.8477 44.8908C81.6504 45.1401 81.3314 44.9488 81.1409 44.4574Z" fill="#3DEA8F"/>
<path fill-rule="evenodd" clip-rule="evenodd" d="M75.54 48.2728L85 50L79.4693 26.7816L79.4581 26.735L70 25L75.5289 48.2262L75.54 48.2728ZM84.8119 49.8176L75.6536 48.1447L70.1862 25.1824L79.3445 26.8611L84.8119 49.8176Z" fill="#231F20"/>
<path fill-rule="evenodd" clip-rule="evenodd" d="M76.1832 47.4801L84 49L78.8072 26.5096L71 25L76.1832 47.4801ZM83.8077 48.8051L76.2994 47.3468L71.1923 25.2031L78.6987 26.6532L83.8077 48.8051Z" fill="#231F20"/>
<path fill-rule="evenodd" clip-rule="evenodd" d="M76.6887 46.8279L83 48L78.3075 28.1858L72 27L76.6887 46.8279ZM82.8119 47.8164L76.808 46.6912L72.1881 27.1778L78.1939 28.3069L82.8119 47.8164Z" fill="#231F20"/>
<path fill-rule="evenodd" clip-rule="evenodd" d="M74.6913 39.1046C75.3582 40.3073 76.3379 40.9997 77.2057 40.9997C77.5685 41.0068 77.9241 40.8712 78.2233 40.6116C78.8921 40.0174 79.1555 38.8482 78.9092 37.5616C78.7933 36.9641 78.5888 36.3999 78.3066 35.8988C77.8847 35.1077 77.2769 34.5043 76.5691 34.1737C75.8983 33.8814 75.2616 33.9605 74.7746 34.3918C74.1095 34.9812 73.8462 36.1504 74.0887 37.4418C74.2029 38.04 74.4075 38.6046 74.6913 39.1046ZM74.8561 34.5403C75.1315 34.2998 75.4594 34.1741 75.7941 34.1809C76.0427 34.1834 76.2893 34.2385 76.5236 34.3439C77.2025 34.662 77.7852 35.242 78.1891 36.0018C78.4621 36.4844 78.6595 37.0284 78.7709 37.6047C79.002 38.817 78.7614 39.912 78.1418 40.463C77.2076 41.2896 75.7126 40.6332 74.8068 39.0015C74.5338 38.5194 74.3369 37.9752 74.227 37.3987C73.9996 36.1815 74.2403 35.0866 74.8561 34.5403Z" fill="#231F20"/>
<path fill-rule="evenodd" clip-rule="evenodd" d="M74.9668 29.9502C75.0675 29.9821 75.1732 29.9988 75.2799 29.9996C75.4247 30.0043 75.5676 29.9681 75.6888 29.8959C76.0888 29.6423 76.1051 29.0397 75.7268 28.5458C75.5616 28.3192 75.3214 28.1462 75.041 28.0519C74.8026 27.9645 74.5324 27.9885 74.3171 28.1161C74.1104 28.2554 73.992 28.4782 74.0004 28.7121C74.0181 29.2645 74.3994 29.7529 74.9668 29.9502ZM74.7363 28.1194C74.6178 28.1171 74.5016 28.1488 74.404 28.2099C74.2365 28.3278 74.141 28.5113 74.147 28.7039C74.1633 29.2025 74.5041 29.6445 75.0138 29.8284C75.2123 29.9015 75.4373 29.8831 75.6183 29.779C75.9549 29.5633 75.9585 29.0348 75.6183 28.6001C75.468 28.3972 75.2515 28.2423 74.9994 28.1573C74.9146 28.1313 74.8257 28.1185 74.7363 28.1194Z" fill="#231F20"/>
<path fill-rule="evenodd" clip-rule="evenodd" d="M78.2723 44.4638C78.4924 44.7762 78.863 44.9751 79.2708 44.9997C79.4183 45.0037 79.5634 44.9658 79.6859 44.8912C80.09 44.6364 80.1045 44.0381 79.7275 43.545C79.5616 43.3191 79.3212 43.1465 79.0407 43.0518C78.802 42.9646 78.5314 42.9885 78.3157 43.1159C77.9098 43.3707 77.8953 43.9707 78.2723 44.4638ZM78.3937 43.2162C78.4919 43.1555 78.6084 43.1239 78.7271 43.1258V43.1307C78.8158 43.1302 78.904 43.143 78.9881 43.1685C79.2401 43.2535 79.4563 43.4082 79.6061 43.6107C79.9486 44.043 79.945 44.5674 79.6061 44.7844C79.2672 45.0014 78.7163 44.8255 78.3828 44.3932C78.0493 43.9608 78.053 43.4332 78.3937 43.2162Z" fill="#231F20"/>
<g style="mix-blend-mode:color">
<rect x="1" width="145" height="154" fill="#52AAFF"/>
</g>
</svg>
