<svg xmlns="http://www.w3.org/2000/svg" width="135.136" height="144" viewBox="0 0 135.136 144">
  <g id="Zimvest_illustrations-07" data-name="Zimvest illustrations-07" transform="translate(-0.432)">
    <g id="Group" transform="translate(0.5 65)" opacity="0.21">
      <path id="Path" d="M41.185,0l93.591,36.875L93.591,78.941,0,42.064,41.185,0Z" transform="translate(0.137 0.002)" fill="#231f20"/>
    </g>
    <path id="Path-2" data-name="Path" d="M2,0V1.925L0,2,2,0Z" transform="translate(133.5 95)" fill="#217bad"/>
    <path id="Path-3" data-name="Path" d="M5,1.822,0,2V0L5,1.822Z" transform="translate(0.5 100)" fill="#217bad"/>
    <path id="Path-4" data-name="Path" d="M135,37.01l-1.986,2.032L4.515,44,0,42.218,41.253,0,135,37.01Z" transform="translate(0.5 59)" fill="#3d98e2"/>
    <path id="Path-5" data-name="Path" d="M41,0,0,41V39.1L39.026.074,41,0Z" transform="translate(94.5 97)" fill="#217bad"/>
    <path id="Path-6" data-name="Path" d="M129,0,89.579,39,0,4.811,129,0Z" transform="translate(5.5 97)" fill="#3d98e2"/>
    <path id="Path-7" data-name="Path" d="M93,34.108V36L0,.169,4.479,0,93,34.108Z" transform="translate(0.5 103)" fill="#217bad"/>
    <path id="Path-8" data-name="Path" d="M93.737,41l-.04-.016L0,5.151l.049-.126L93.7,40.842,134.9,0l.1.1L93.737,41Z" transform="translate(0.5 97)" fill="#231f20"/>
    <path id="Shape" d="M93.676,78.983,0,42.108l.072-.076L41.284,0l.042.016L135,36.884l-2.055,2.091L93.716,79Z" transform="translate(0.5 59)" fill="#231f20"/>
    <rect id="Rectangle" width="0.136" height="2" transform="translate(93.432 136)" fill="#231f20"/>
    <rect id="Rectangle-2" data-name="Rectangle" width="0.136" height="2" transform="translate(135.432 95)" fill="#231f20"/>
    <rect id="Rectangle-3" data-name="Rectangle" width="0.136" height="2" transform="translate(0.432 100)" fill="#231f20"/>
    <path id="Path-9" data-name="Path" d="M5,0c2.762,0,5,1.791,5,4S7.762,8,5,8,0,6.209,0,4A3.31,3.31,0,0,1,.41,2.413H.419A5.137,5.137,0,0,1,5,0Z" transform="translate(117.5 94)" fill="#2f8dcc"/>
    <path id="Path-10" data-name="Path" d="M.1.1H.086V.086Z" transform="translate(119.409 95.909)" fill="#fff"/>
    <path id="Path-11" data-name="Path" d="M101,27.579v.011L70.731,58.263a4.375,4.375,0,0,0-.863.737L0,31.685A2.924,2.924,0,0,0,.374,30.5L30.469,0Z" transform="translate(18.5 69)" fill="#2f8dcc"/>
    <path id="Path-12" data-name="Path" d="M5,0c2.761,0,5,1.79,5,4S7.762,8,5,8,0,6.21,0,4A3.434,3.434,0,0,1,.826,1.8l.093.039.74-.812A5.731,5.731,0,0,1,5,0Z" transform="translate(87.5 125)" fill="#2f8dcc"/>
    <path id="Path-13" data-name="Path" d="M1,0,.112,1,0,.953A5.26,5.26,0,0,1,1,0Z" transform="translate(87.5 127)" fill="#fff"/>
    <path id="Path-14" data-name="Path" d="M10,4a2.28,2.28,0,0,1-.016.289l-.911,1,.55.233A5.129,5.129,0,0,1,5,8C2.238,8,0,6.209,0,4S2.238,0,5,0,10,1.791,10,4Z" transform="translate(8.5 96)" fill="#2f8dcc"/>
    <path id="Path-15" data-name="Path" d="M0,.812,1,0A2.141,2.141,0,0,1,.6,1Z" transform="translate(18.5 98)" fill="#2f8dcc"/>
    <path id="Rectangle-4" data-name="Rectangle" d="M.569,0h0L.431,74.768h0Z" transform="matrix(0.36, -0.933, 0.933, 0.36, 17.843, 100.6)" fill="#231f20"/>
    <path id="Rectangle-5" data-name="Rectangle" d="M0,.559,42.821.438v0L0,.562Z" transform="translate(88.229 125.991) rotate(-45.05)" fill="#231f20"/>
    <path id="Path-16" data-name="Path" d="M.1,31,0,30.9,30.217,0l.04.017L101,27.927l-.049.13L30.25.164.1,31Z" transform="translate(18.5 69)" fill="#231f20"/>
    <path id="Shape-2" data-name="Shape" d="M0,4A3.436,3.436,0,0,1,.832,1.791a4.306,4.306,0,0,1,.834-.771A5.742,5.742,0,0,1,5,0c2.755,0,5,1.794,5,4S7.756,8,5,8,0,6.208,0,4Z" transform="translate(87.5 125)" fill="#231f20"/>
    <path id="Shape-3" data-name="Shape" d="M0,4A3.285,3.285,0,0,1,.416,2.4V2.394A5.176,5.176,0,0,1,5,0c2.759,0,5,1.8,5,4S7.762,8,5,8,0,6.206,0,4Z" transform="translate(117.5 94)" fill="#231f20"/>
    <path id="Shape-4" data-name="Shape" d="M0,4C0,1.795,2.249,0,5,0s5,1.795,5,4a2,2,0,0,1-.016.293,3.259,3.259,0,0,1-.363,1.239A5.138,5.138,0,0,1,5,8C2.243,8,0,6.206,0,4Z" transform="translate(8.5 96)" fill="#231f20"/>
    <ellipse id="Oval" cx="5" cy="4" rx="5" ry="4" transform="translate(39.5 63)" fill="#fff"/>
    <path id="Shape-5" data-name="Shape" d="M0,4C0,1.795,2.249,0,5,0s5,1.795,5,4S7.758,8,5,8,0,6.206,0,4Z" transform="translate(39.5 63)" fill="#231f20"/>
    <path id="Path-17" data-name="Path" d="M19,0V13.7L0,33V19.421l0,0L19,0Z" transform="translate(74.5 83)" fill="#19af60"/>
    <path id="Path-18" data-name="Path" d="M19,0V17.981L0,37l0,0V19.017l0,0L19,0Z" transform="translate(74.5 65)" fill="#19af60"/>
    <path id="Path-19" data-name="Path" d="M19,0V7.135L0,26l0,0V18.751L19,0Z" transform="translate(74.5 58)" fill="#19af60"/>
    <path id="Path-20" data-name="Path" d="M56,14.632,37.07,34,0,19.368,18.93,0,56,14.632Z" transform="translate(37.5 42)" fill="#189350"/>
    <path id="Path-21" data-name="Path" d="M37,14.492V28L0,13.493V0L37,14.492Z" transform="translate(38.5 87)" fill="#19af60"/>
    <path id="Path-22" data-name="Path" d="M37,14.6V33L0,18.4V0L37,14.6Z" transform="translate(38.5 69)" fill="#19af60"/>
    <path id="Path-23" data-name="Path" d="M37,14.554V22L0,7.46V0L37,14.554Z" transform="translate(38.5 62)" fill="#19af60"/>
    <path id="Path-24" data-name="Path" d="M37,53h-.134V14.41L0,.126.048,0,37,14.316V53Z" transform="translate(56.5 43)" fill="#231f20"/>
    <path id="Shape-6" data-name="Shape" d="M36.909,52.964,0,38.684V0L.091.036,37,14.316V53Z" transform="translate(38.5 62)" fill="#231f20"/>
    <path id="Rectangle-6" data-name="Rectangle" d="M0,.536,27.025.46v0L0,.54Z" transform="translate(74.996 115.144) rotate(-45.05)" fill="#231f20"/>
    <path id="Rectangle-7" data-name="Rectangle" d="M0,.536,27.025.46v0L0,.54Z" transform="translate(74.999 76.029) rotate(-45.05)" fill="#231f20"/>
    <path id="Rectangle-8" data-name="Rectangle" d="M0,.536,27.025.46v0L0,.54Z" transform="translate(37.681 61.55) rotate(-45.05)" fill="#231f20"/>
    <path id="Path-25" data-name="Path" d="M37.064,20l-.045-.024L0,5.077l.049-.131L37.035,19.831,55.9,0l.1.1L37.064,20Z" transform="translate(37.5 64)" fill="#231f20"/>
    <path id="Path-26" data-name="Path" d="M37.064,20l-.045-.024L0,5.077l.049-.131L37.035,19.831,55.9,0l.1.1L37.064,20Z" transform="translate(37.5 82)" fill="#231f20"/>
    <path id="Path-27" data-name="Path" d="M1,0V27.663C1,27.846.776,28,.5,28s-.5-.15-.5-.337V0C0,.183.224.339.5.339S1,.187,1,0Z" transform="translate(56.5 23)" fill="#836a15"/>
    <path id="Path-28" data-name="Path" d="M.5,0A.5.5,0,1,1,0,.5.5.5,0,0,1,.5,0Z" transform="translate(56.5 22)" fill="#fff"/>
    <rect id="Rectangle-9" data-name="Rectangle" width="0.136" height="27" transform="translate(56.432 23)" fill="#231f20"/>
    <rect id="Rectangle-10" data-name="Rectangle" width="0.136" height="27" transform="translate(56.432 23)" fill="#231f20"/>
    <path id="Path-29" data-name="Path" d="M.5,1C.22,1,0,.548,0,0H.1C.1.312.262.661.5.661S.9.312.9,0H1C1.005.561.785,1,.5,1Z" transform="translate(56.5 50)" fill="#231f20"/>
    <path id="Shape-7" data-name="Shape" d="M0,.5A.5.5,0,0,1,.5,0,.5.5,0,0,1,1,.5a.5.5,0,1,1-1,0Z" transform="translate(56.5 22)" fill="#231f20"/>
    <path id="Path-30" data-name="Path" d="M0,1,2,0" transform="translate(56.5 28)" fill="#fff"/>
    <path id="Rectangle-11" data-name="Rectangle" d="M0,.5,2.7.495v0L0,.505Z" transform="matrix(0.719, -0.695, 0.695, 0.719, 55.98, 30.374)" fill="#231f20"/>
    <path id="Path-31" data-name="Path" d="M4.994,6.012C5.106,6.982,3.59,15,3.59,15L3.042,5.075,0,.436,1.114,0S4.88,5.042,4.994,6.012Z" transform="translate(61.5 26)" fill="#a6d513"/>
    <path id="Path-32" data-name="Path" d="M3.392,4.778,4,15,0,0,3.392,4.778Z" transform="translate(60.5 26)" fill="#a6d513"/>
    <path id="Path-33" data-name="Path" d="M2.524,0,7,15,3.915,5.411,1.39,2.449,0,.816,2.524,0Z" transform="translate(58.5 26)" fill="#fff"/>
    <path id="Path-34" data-name="Path" d="M.734,0,2,.931,1.861,1,0,.912.734,0Z" transform="translate(57.5 27)" fill="#231f20"/>
    <path id="Path-35" data-name="Path" d="M3,.15,0,2,1.012,0,3,.15Z" transform="translate(56.5 28)" fill="#fff"/>
    <path id="Shape-8" data-name="Shape" d="M4,6.05,0,1.327,4.077,0l.032.034C4.3.25,8.853,5.324,8.993,6.345s-1.69,9.06-1.766,9.4L7.182,16Z" transform="translate(58.5 25)" fill="#231f20"/>
    <path id="Shape-9" data-name="Shape" d="M1.012,0,3,.23,0,3Z" transform="translate(56.5 28)" fill="#231f20"/>
    <path id="Rectangle-12" data-name="Rectangle" d="M0,.5,1.821.5v0L0,.5Z" transform="matrix(0.433, -0.902, 0.902, 0.433, 56.809, 28.558)" fill="#231f20"/>
    <path id="Path-36" data-name="Path" d="M4.848,15,4.108,4.828,0,.08.12,0,4.256,4.78l0,.019L5,14.991,4.848,15Z" transform="translate(60.5 26)" fill="#231f20"/>
    <path id="Path-37" data-name="Path" d="M.006,6.019C-.105,6.988,1.415,15,1.415,15l.548-9.909L5,.434,3.887,0S.12,5.044.006,6.019Z" transform="translate(45.5 31)" fill="#a6d513"/>
    <path id="Path-38" data-name="Path" d="M.611,4.46,0,14,4,0,.611,4.46Z" transform="translate(47.5 32)" fill="#a6d513"/>
    <path id="Path-39" data-name="Path" d="M4.475,0,0,14,3.087,5.051,5.61,2.286,7,.763,4.475,0Z" transform="translate(47.5 32)" fill="#a6d513"/>
    <path id="Path-40" data-name="Path" d="M1.266,0,0,.931.14,1,2,.912,1.266,0Z" transform="translate(53.5 33)" fill="#231f20"/>
    <path id="Path-41" data-name="Path" d="M0,.149,3,2,1.989,0,0,.149Z" transform="translate(53.5 34)" fill="#0e8633"/>
    <path id="Shape-10" data-name="Shape" d="M1.577,14.754c-.07-.321-1.691-7.859-1.57-8.81S4.172.236,4.343.033L4.373,0,8,1.244,4.451,5.668,1.629,15Z" transform="translate(46.5 31)" fill="#231f20"/>
    <path id="Shape-11" data-name="Shape" d="M0,.149,1.988,0,3,2Z" transform="translate(53.5 34)" fill="#231f20"/>
    <path id="Rectangle-13" data-name="Rectangle" d="M.5,0h0l0,1.739h0Z" transform="translate(53.909 32.191) rotate(-25.59)" fill="#231f20"/>
    <path id="Path-42" data-name="Path" d="M.127,14,0,13.991.593,4.46l.012-.016L3.9,0,4,.078.717,4.509.127,14Z" transform="translate(47.5 32)" fill="#231f20"/>
    <path id="Shape-12" data-name="Shape" d="M5.2,21.425,0,0,8.8,1.583,14,23Z" transform="translate(46.5)" fill="#3dea8f"/>
    <path id="Shape-13" data-name="Shape" d="M4.818,20.624,0,0,7.181,1.367,12,22Z" transform="translate(47.5 1)" fill="#3dea8f"/>
    <path id="Shape-14" data-name="Shape" d="M0,0,5.805,1.036,8,9.833l-.6.148a3.446,3.446,0,0,0-.548-1.192C6,7.567,4.574,7.082,3.676,7.709a1.982,1.982,0,0,0-.609,2.154L2.5,10Z" transform="translate(48.5 2)" fill="#19af60"/>
    <path id="Path-43" data-name="Path" d="M.14,1.454A1.572,1.572,0,0,1,.155.11C.354-.142.669.055.86.545A1.6,1.6,0,0,1,.848,1.891C.651,2.141.332,1.945.14,1.454Z" transform="translate(51.5 3)" fill="#3dea8f"/>
    <path id="Path-44" data-name="Path" d="M.088,2.441A1.9,1.9,0,0,1,.765.275c1-.631,2.578-.141,3.534,1.087a3.325,3.325,0,0,1,.609,1.2,1.867,1.867,0,0,1-.677,2.166C3.237,5.353,1.655,4.868.7,3.637a3.319,3.319,0,0,1-.609-1.2Z" transform="translate(51.5 10)" fill="#3dea8f"/>
    <path id="Shape-15" data-name="Shape" d="M1.976,7.943,0,.172.593.031a3.507,3.507,0,0,0,.57,1.219C2.059,2.5,3.535,3,4.469,2.359A2,2,0,0,0,5.1.152L5.72,0,8,9Z" transform="translate(50.5 12)" fill="#19af60"/>
    <path id="Path-45" data-name="Path" d="M.141,1.456A1.573,1.573,0,0,1,.155.11C.355-.143.67.055.861.546A1.591,1.591,0,0,1,.848,1.89C.65,2.141.332,1.948.141,1.456Z" transform="translate(54.5 18)" fill="#fff"/>
    <path id="Shape-16" data-name="Shape" d="M5.172,21.409l-.01-.041L0,0,8.823,1.6l.01.042L14,23Z" transform="translate(46.5)" fill="#231f20"/>
    <path id="Shape-17" data-name="Shape" d="M4.784,20.606,0,0,7.208,1.384,12,22Z" transform="translate(47.5 1)" fill="#231f20"/>
    <path id="Shape-18" data-name="Shape" d="M4.267,18.884,0,0,5.735,1.13,10,20Z" transform="translate(48.5 2)" fill="#231f20"/>
    <path id="Shape-19" data-name="Shape" d="M3.208,7A3.213,3.213,0,0,1,.69,5.1a5.535,5.535,0,0,1-.6-1.666A3.294,3.294,0,0,1,.774.389C1.771-.5,3.355.182,4.306,1.9a5.544,5.544,0,0,1,.6,1.663,3.281,3.281,0,0,1-.687,3.052A1.519,1.519,0,0,1,3.228,7Z" transform="translate(51.5 9)" fill="#231f20"/>
    <path id="Shape-20" data-name="Shape" d="M1.274,2A1.03,1.03,0,0,1,.96,1.949,1.379,1.379,0,0,1,0,.71a.7.7,0,0,1,.316-.6A1.133,1.133,0,0,1,1.727.538a.915.915,0,0,1-.039,1.351.75.75,0,0,1-.4.111Z" transform="translate(50.5 3)" fill="#231f20"/>
    <path id="Shape-21" data-name="Shape" d="M1.269,2a1.056,1.056,0,0,1-.31-.049A1.375,1.375,0,0,1,0,.712a.7.7,0,0,1,.316-.6A.856.856,0,0,1,1.04.052a1.4,1.4,0,0,1,.687.492c.377.493.363,1.091-.04,1.346a.784.784,0,0,1-.4.11Z" transform="translate(54.5 18)" fill="#231f20"/>
    <path id="Path-46" data-name="Path" d="M1,0V27.661C1,27.844.776,28,.5,28s-.5-.152-.5-.339V0C0,.183.224.339.5.339S1,.2,1,0Z" transform="translate(70.5 29)" fill="#836a15"/>
    <path id="Path-47" data-name="Path" d="M.5,0A.5.5,0,1,1,0,.5.5.5,0,0,1,.5,0Z" transform="translate(70.5 28)" fill="#fff"/>
    <rect id="Rectangle-14" data-name="Rectangle" width="0.136" height="27" transform="translate(71.432 29)" fill="#231f20"/>
    <rect id="Rectangle-15" data-name="Rectangle" width="0.136" height="27" transform="translate(70.432 29)" fill="#231f20"/>
    <path id="Path-48" data-name="Path" d="M.5,1C.219,1,0,.55,0,0H.1C.1.315.262.662.5.662S.9.315.9,0H1C1,.563.779,1,.5,1Z" transform="translate(70.5 56)" fill="#231f20"/>
    <path id="Shape-22" data-name="Shape" d="M0,.5A.5.5,0,1,1,.5,1,.5.5,0,0,1,0,.5Z" transform="translate(70.5 28)" fill="#231f20"/>
    <path id="Path-49" data-name="Path" d="M0,1,2,0" transform="translate(71.5 36)" fill="#fff"/>
    <path id="Rectangle-16" data-name="Rectangle" d="M0,.5,2.7.495v0L0,.505Z" transform="matrix(0.719, -0.695, 0.695, 0.719, 71.156, 36.125)" fill="#231f20"/>
    <path id="Path-50" data-name="Path" d="M4.994,6.012C5.106,6.982,3.59,15,3.59,15L3.042,5.075,0,.436,1.114,0S4.88,5.042,4.994,6.012Z" transform="translate(76.5 33)" fill="#a6d513"/>
    <path id="Path-51" data-name="Path" d="M3.39,4.778,4,15,0,0,3.39,4.778Z" transform="translate(75.5 33)" fill="#a6d513"/>
    <path id="Path-52" data-name="Path" d="M2.525,0,7,15,3.914,5.411,1.391,2.449,0,.816,2.525,0Z" transform="translate(73.5 33)" fill="#a6d513"/>
    <path id="Path-53" data-name="Path" d="M.733,0,2,.931,1.859,1,0,.912.733,0Z" transform="translate(72.5 34)" fill="#231f20"/>
    <path id="Path-54" data-name="Path" d="M3,.15,0,2,1.012,0,3,.15Z" transform="translate(71.5 35)" fill="#fff"/>
    <path id="Shape-23" data-name="Shape" d="M3.99,6.049,0,1.327,4.082,0l.03.034C4.3.25,8.853,5.324,8.993,6.343S7.3,15.407,7.228,15.748L7.181,16Z" transform="translate(72.5 32)" fill="#231f20"/>
    <path id="Shape-24" data-name="Shape" d="M1.012,0,3,.23,0,3Z" transform="translate(71.5 35)" fill="#231f20"/>
    <path id="Rectangle-17" data-name="Rectangle" d="M0,.5,1.821.5v0L0,.5Z" transform="matrix(0.433, -0.902, 0.902, 0.433, 71.987, 34.306)" fill="#231f20"/>
    <path id="Path-55" data-name="Path" d="M4.848,15,4.108,4.828,0,.08.122,0,4.256,4.78l0,.019L5,14.991,4.848,15Z" transform="translate(75.5 33)" fill="#231f20"/>
    <path id="Path-56" data-name="Path" d="M.006,6.009C-.107,6.98,1.414,15,1.414,15l.548-9.922L5,.437,3.888,0S.119,5.038.006,6.009Z" transform="translate(61.5 36)" fill="#a6d513"/>
    <path id="Path-57" data-name="Path" d="M.611,4.46,0,14,4,0,.611,4.46Z" transform="translate(63.5 37)" fill="#a6d513"/>
    <path id="Path-58" data-name="Path" d="M4.475,0,0,14,3.087,5.05,5.61,2.287,7,.761,4.475,0Z" transform="translate(62.5 37)" fill="#a6d513"/>
    <path id="Path-59" data-name="Path" d="M1.266,0,0,.931.14,1,2,.911,1.266,0Z" transform="translate(68.5 37)" fill="#231f20"/>
    <path id="Path-60" data-name="Path" d="M0,.151,3,2,1.989,0,0,.151Z" transform="translate(68.5 39)" fill="#fff"/>
    <path id="Shape-25" data-name="Shape" d="M1.575,14.753c-.069-.32-1.689-7.86-1.569-8.814S4.172.235,4.347.033L4.376,0,8,1.245,4.453,5.671,1.627,15Z" transform="translate(61.5 36)" fill="#231f20"/>
    <path id="Shape-26" data-name="Shape" d="M0,.149,1.989,0,3,2Z" transform="translate(68.5 39)" fill="#231f20"/>
    <path id="Rectangle-18" data-name="Rectangle" d="M.5,0h0l0,1.739h0Z" transform="translate(69.083 37.94) rotate(-25.59)" fill="#231f20"/>
    <path id="Path-61" data-name="Path" d="M.127,14,0,13.991l.593-9.53.012-.016L3.9,0,4,.079.719,4.508.127,14Z" transform="translate(63.5 37)" fill="#231f20"/>
    <path id="Shape-27" data-name="Shape" d="M5.2,21.423,0,0,8.8,1.581,14,23Z" transform="translate(61.5 6)" fill="#3dea8f"/>
    <path id="Shape-28" data-name="Shape" d="M4.823,20.626,0,0,7.181,1.369,12,22Z" transform="translate(62.5 6)" fill="#3dea8f"/>
    <path id="Shape-29" data-name="Shape" d="M0,0,5.8,1.034,8,9.833l-.594.148a3.485,3.485,0,0,0-.551-1.192C5.994,7.567,4.569,7.082,3.671,7.709a1.977,1.977,0,0,0-.61,2.152L2.491,10Z" transform="translate(63.5 9)" fill="#19af60"/>
    <path id="Path-62" data-name="Path" d="M.14,1.456A1.575,1.575,0,0,1,.155.11C.354-.142.669.054.86.546A1.593,1.593,0,0,1,.848,1.892C.651,2.141.332,1.946.14,1.456Z" transform="translate(65.5 9)" fill="#3dea8f"/>
    <path id="Path-63" data-name="Path" d="M.088,2.439A1.893,1.893,0,0,1,.765.275c1-.631,2.577-.141,3.533,1.087a3.362,3.362,0,0,1,.611,1.2,1.871,1.871,0,0,1-.677,2.164C3.237,5.354,1.655,4.869.7,3.637A3.326,3.326,0,0,1,.088,2.439Z" transform="translate(66.5 17)" fill="#3dea8f"/>
    <path id="Shape-30" data-name="Shape" d="M1.976,7.943,0,.172.591.029a3.515,3.515,0,0,0,.57,1.22C2.057,2.5,3.534,3,4.469,2.357A2,2,0,0,0,5.1.152L5.72,0,8,9Z" transform="translate(66.5 18)" fill="#19af60"/>
    <path id="Path-64" data-name="Path" d="M.141,1.456A1.574,1.574,0,0,1,.155.11C.355-.143.67.055.86.546A1.589,1.589,0,0,1,.848,1.891C.649,2.141.332,1.947.141,1.456Z" transform="translate(69.5 23)" fill="#fff"/>
    <path id="Shape-31" data-name="Shape" d="M5.168,21.409l-.01-.043L0,0,8.832,1.595l.011.042L14,23Z" transform="translate(61.5 6)" fill="#231f20"/>
    <path id="Shape-32" data-name="Shape" d="M4.784,20.606v-.043L0,0,7.208,1.384,12,22Z" transform="translate(62.5 6)" fill="#231f20"/>
    <path id="Shape-33" data-name="Shape" d="M4.267,18.875,0,0,5.735,1.129,10,20Z" transform="translate(63.5 7)" fill="#231f20"/>
    <path id="Shape-34" data-name="Shape" d="M3.208,7A3.205,3.205,0,0,1,.69,5.1a5.51,5.51,0,0,1-.6-1.663A3.291,3.291,0,0,1,.774.392a1.616,1.616,0,0,1,1.8-.22A3.9,3.9,0,0,1,4.306,1.9a5.544,5.544,0,0,1,.6,1.663,3.274,3.274,0,0,1-.687,3.048A1.5,1.5,0,0,1,3.235,7Z" transform="translate(66.5 15)" fill="#231f20"/>
    <path id="Shape-35" data-name="Shape" d="M1.274,2a1.118,1.118,0,0,1-.314-.05A1.377,1.377,0,0,1,0,.712.649.649,0,0,1,.317.121.808.808,0,0,1,1.04.057,1.377,1.377,0,0,1,2,1.294a.681.681,0,0,1-.311.594.766.766,0,0,1-.4.112Z" transform="translate(65.5 9)" fill="#231f20"/>
    <path id="Shape-36" data-name="Shape" d="M1.271,2a1.32,1.32,0,0,1-1-.536A1.227,1.227,0,0,1,0,.71a.7.7,0,0,1,.318-.6A1.134,1.134,0,0,1,1.727.537a.911.911,0,0,1-.04,1.347A.763.763,0,0,1,1.28,2Z" transform="translate(69.5 23)" fill="#231f20"/>
    <path id="Path-65" data-name="Path" d="M1,0V27.663C1,27.846.776,28,.5,28s-.5-.15-.5-.337V0C0,.183.224.339.5.339S1,.187,1,0Z" transform="translate(85.5 35)" fill="#836a15"/>
    <path id="Path-66" data-name="Path" d="M.5,0A.494.494,0,0,1,1,.5.5.5,0,1,1,.5,0Z" transform="translate(85.5 35)" fill="#44320a"/>
    <rect id="Rectangle-19" data-name="Rectangle" width="0.136" height="27" transform="translate(87.432 35)" fill="#231f20"/>
    <rect id="Rectangle-20" data-name="Rectangle" width="0.136" height="27" transform="translate(84.432 35)" fill="#231f20"/>
    <path id="Path-67" data-name="Path" d="M.5,1C.219,1,0,.55,0,0H.1C.1.315.262.662.5.662S.9.315.9,0H1C1,.563.785,1,.5,1Z" transform="translate(85.5 62)" fill="#231f20"/>
    <path id="Shape-37" data-name="Shape" d="M0,.5a.5.5,0,1,1,1,0A.5.5,0,0,1,.5,1,.5.5,0,0,1,0,.5Z" transform="translate(85.5 35)" fill="#231f20"/>
    <path id="Path-68" data-name="Path" d="M0,1,2,0" transform="translate(86.5 40)" fill="#fff"/>
    <path id="Rectangle-21" data-name="Rectangle" d="M0,.5,2.7.495v0L0,.505Z" transform="matrix(0.719, -0.695, 0.695, 0.719, 85.298, 41.768)" fill="#231f20"/>
    <path id="Path-69" data-name="Path" d="M4.994,6.012C5.106,6.982,3.59,15,3.59,15L3.042,5.075,0,.436,1.114,0S4.88,5.042,4.994,6.012Z" transform="translate(90.5 37)" fill="#a6d513"/>
    <path id="Path-70" data-name="Path" d="M3.39,4.778,4,15,0,0,3.39,4.778Z" transform="translate(89.5 37)" fill="#a6d513"/>
    <path id="Path-71" data-name="Path" d="M2.525,0,7,15,3.914,5.411,1.391,2.449,0,.816,2.525,0Z" transform="translate(88.5 37)" fill="#a6d513"/>
    <path id="Path-72" data-name="Path" d="M.733,0,2,.931,1.859,1,0,.912.733,0Z" transform="translate(87.5 38)" fill="#231f20"/>
    <path id="Path-73" data-name="Path" d="M3,.15,0,2,1.012,0,3,.15Z" transform="translate(86.5 40)" fill="#0e8633"/>
    <path id="Shape-38" data-name="Shape" d="M4,6.049,0,1.327,4.082,0l.03.034C4.3.25,8.856,5.324,8.993,6.343S7.3,15.407,7.23,15.748L7.185,16Z" transform="translate(87.5 36)" fill="#231f20"/>
    <path id="Shape-39" data-name="Shape" d="M1.012,0,3,.23,0,3Z" transform="translate(86.5 39)" fill="#231f20"/>
    <path id="Rectangle-22" data-name="Rectangle" d="M0,.5,1.821.5v0L0,.5Z" transform="matrix(0.433, -0.902, 0.902, 0.433, 86.128, 39.949)" fill="#231f20"/>
    <path id="Path-74" data-name="Path" d="M4.85,15,4.108,4.828,0,.08.122,0,4.258,4.78V4.8L5,14.991,4.85,15Z" transform="translate(89.5 37)" fill="#231f20"/>
    <path id="Path-75" data-name="Path" d="M.006,6.009C-.107,6.98,1.414,15,1.414,15L1.96,5.078,5,.437,3.886,0S.12,5.038.006,6.009Z" transform="translate(75.5 42)" fill="#a6d513"/>
    <path id="Path-76" data-name="Path" d="M.609,4.459,0,14,4,0,.609,4.459Z" transform="translate(77.5 43)" fill="#a6d513"/>
    <path id="Path-77" data-name="Path" d="M4.475,0,0,14,3.085,5.052,5.608,2.287,7,.761,4.475,0Z" transform="translate(77.5 43)" fill="#a6d513"/>
    <path id="Path-78" data-name="Path" d="M1.268,0,0,.931.142,1,2,.912,1.268,0Z" transform="translate(82.5 44)" fill="#231f20"/>
    <path id="Path-79" data-name="Path" d="M0,.15,3,2,1.988,0,0,.15Z" transform="translate(82.5 45)" fill="#0e8633"/>
    <path id="Shape-40" data-name="Shape" d="M1.576,14.753c-.07-.32-1.69-7.86-1.57-8.814S4.171.231,4.345.033L4.373,0,8,1.245,4.453,5.669,1.628,15Z" transform="translate(76.5 42)" fill="#231f20"/>
    <path id="Shape-41" data-name="Shape" d="M0,.149,1.988,0,3,2Z" transform="translate(82.5 45)" fill="#231f20"/>
    <path id="Rectangle-23" data-name="Rectangle" d="M.5,0h0l0,1.739h0Z" transform="translate(83.226 43.596) rotate(-25.59)" fill="#231f20"/>
    <path id="Path-80" data-name="Path" d="M.127,14,0,13.991l.595-9.53.01-.016L3.9,0,4,.078.719,4.508.127,14Z" transform="translate(77.5 43)" fill="#231f20"/>
    <path id="Shape-42" data-name="Shape" d="M5.2,21.423,0,0,8.8,1.581,14,23Z" transform="translate(76.5 12)" fill="#3dea8f"/>
    <path id="Shape-43" data-name="Shape" d="M4.823,20.633,0,0,7.181,1.369,12,22Z" transform="translate(76.5 12)" fill="#3dea8f"/>
    <path id="Shape-44" data-name="Shape" d="M0,0,5.8,1.034,8,9.833l-.594.147a3.5,3.5,0,0,0-.549-1.19C5.994,7.567,4.571,7.082,3.671,7.707a1.984,1.984,0,0,0-.61,2.154L2.491,10Z" transform="translate(77.5 13)" fill="#19af60"/>
    <path id="Path-81" data-name="Path" d="M.14,1.456A1.574,1.574,0,0,1,.155.11c.2-.252.513-.056.7.436A1.589,1.589,0,0,1,.848,1.892C.65,2.141.331,1.946.14,1.456Z" transform="translate(80.5 15)" fill="#3dea8f"/>
    <path id="Path-82" data-name="Path" d="M.088,2.44A1.892,1.892,0,0,1,.765.274c1-.629,2.577-.139,3.535,1.089a3.361,3.361,0,0,1,.609,1.2,1.872,1.872,0,0,1-.677,2.166C3.237,5.354,1.657,4.869.7,3.638A3.36,3.36,0,0,1,.088,2.44Z" transform="translate(79.5 21)" fill="#3dea8f"/>
    <path id="Shape-45" data-name="Shape" d="M1.976,7.943,0,.172.591.029a3.556,3.556,0,0,0,.57,1.22C2.059,2.5,3.534,3,4.469,2.357A2,2,0,0,0,5.1.15L5.72,0,8,9Z" transform="translate(80.5 24)" fill="#19af60"/>
    <path id="Path-83" data-name="Path" d="M.14,1.456A1.576,1.576,0,0,1,.155.11c.2-.252.514-.054.706.436A1.586,1.586,0,0,1,.847,1.891C.649,2.141.332,1.947.14,1.456Z" transform="translate(83.5 30)" fill="#3dea8f"/>
    <path id="Shape-46" data-name="Shape" d="M5.17,21.409l-.011-.043L0,0,8.829,1.595l.01.042L14,23Z" transform="translate(75.5 12)" fill="#231f20"/>
    <path id="Shape-47" data-name="Shape" d="M4.788,20.606,0,0,7.212,1.384,12,22Z" transform="translate(76.5 12)" fill="#231f20"/>
    <path id="Shape-48" data-name="Shape" d="M4.269,18.884,0,0,5.735,1.129,10,20Z" transform="translate(77.5 13)" fill="#231f20"/>
    <path id="Shape-49" data-name="Shape" d="M3.2,7a1.965,1.965,0,0,1-.775-.173A3.866,3.866,0,0,1,.691,5.1a5.421,5.421,0,0,1-.6-1.663A3.285,3.285,0,0,1,.775.389c1-.885,2.581-.209,3.532,1.5a5.472,5.472,0,0,1,.6,1.665,3.269,3.269,0,0,1-.686,3.048A1.506,1.506,0,0,1,3.229,7Z" transform="translate(79.5 19)" fill="#231f20"/>
    <path id="Shape-50" data-name="Shape" d="M1.274,2a1.32,1.32,0,0,1-1-.538C-.1.969-.09.37.316.116A.857.857,0,0,1,1.039.051a1.416,1.416,0,0,1,.687.493A1.23,1.23,0,0,1,2,1.3a.7.7,0,0,1-.311.6.768.768,0,0,1-.4.108Z" transform="translate(79.5 15)" fill="#231f20"/>
    <path id="Shape-51" data-name="Shape" d="M1.274,2a1.313,1.313,0,0,1-1-.536A.909.909,0,0,1,.317.113a1.135,1.135,0,0,1,1.41.425.91.91,0,0,1-.04,1.347.756.756,0,0,1-.4.115Z" transform="translate(83.5 30)" fill="#231f20"/>
    <path id="Path-84" data-name="Path" d="M1,0V27.663C1,27.846.777,28,.5,28s-.5-.15-.5-.337V0C0,.183.224.337.5.337S1,.187,1,0Z" transform="translate(45.5 35)" fill="#836a15"/>
    <path id="Path-85" data-name="Path" d="M.5,0A.5.5,0,1,1,0,.5.5.5,0,0,1,.5,0Z" transform="translate(45.5 35)" fill="#44320a"/>
    <rect id="Rectangle-24" data-name="Rectangle" width="0.136" height="27" transform="translate(46.432 35)" fill="#231f20"/>
    <rect id="Rectangle-25" data-name="Rectangle" width="0.136" height="27" transform="translate(45.432 35)" fill="#231f20"/>
    <path id="Path-86" data-name="Path" d="M.5,1C.219,1,0,.55,0,0H.1C.1.315.262.662.5.662S.9.315.9,0H1C1,.563.779,1,.5,1Z" transform="translate(45.5 62)" fill="#231f20"/>
    <path id="Shape-52" data-name="Shape" d="M0,.5A.5.5,0,1,1,.5,1,.5.5,0,0,1,0,.5Z" transform="translate(45.5 35)" fill="#231f20"/>
    <path id="Path-87" data-name="Path" d="M0,1,2,0" transform="translate(45.5 40)" fill="#fff"/>
    <path id="Rectangle-26" data-name="Rectangle" d="M0,.5,2.7.495v0L0,.505Z" transform="matrix(0.719, -0.695, 0.695, 0.719, 44.915, 41.768)" fill="#231f20"/>
    <path id="Path-88" data-name="Path" d="M4.994,6.012C5.106,6.982,3.59,15,3.59,15L3.042,5.075,0,.436,1.114,0S4.88,5.042,4.994,6.012Z" transform="translate(50.5 37)" fill="#a6d513"/>
    <path id="Path-89" data-name="Path" d="M3.39,4.778,4,15,0,0,3.39,4.778Z" transform="translate(49.5 37)" fill="#a6d513"/>
    <path id="Path-90" data-name="Path" d="M2.525,0,7,15,3.914,5.411,1.391,2.449,0,.816,2.525,0Z" transform="translate(47.5 37)" fill="#a6d513"/>
    <path id="Path-91" data-name="Path" d="M.733,0,2,.931,1.859,1,0,.912.733,0Z" transform="translate(46.5 38)" fill="#231f20"/>
    <path id="Path-92" data-name="Path" d="M3,.15,0,2,1.012,0,3,.15Z" transform="translate(45.5 40)" fill="#0e8633"/>
    <path id="Shape-53" data-name="Shape" d="M3.99,6.049,0,1.327,4.088,0l.03.034C4.3.25,8.853,5.324,8.993,6.343S7.305,15.407,7.23,15.748L7.178,16Z" transform="translate(47.5 36)" fill="#231f20"/>
    <path id="Shape-54" data-name="Shape" d="M1.012,0,3,.23,0,3Z" transform="translate(45.5 39)" fill="#231f20"/>
    <path id="Rectangle-27" data-name="Rectangle" d="M0,.5,1.821.5v0L0,.5Z" transform="matrix(0.433, -0.902, 0.902, 0.433, 45.747, 39.949)" fill="#231f20"/>
    <path id="Path-93" data-name="Path" d="M4.848,15,4.108,4.828,0,.08.122,0,4.258,4.78V4.8L5,14.991,4.848,15Z" transform="translate(49.5 37)" fill="#231f20"/>
    <path id="Path-94" data-name="Path" d="M.006,6.008C-.107,6.979,1.414,15,1.414,15l.548-9.923L5,.437,3.888,0S.119,5.037.006,6.008Z" transform="translate(34.5 42)" fill="#a6d513"/>
    <path id="Path-95" data-name="Path" d="M.611,4.459,0,14,4,0,.611,4.459Z" transform="translate(35.5 43)" fill="#a6d513"/>
    <path id="Path-96" data-name="Path" d="M4.474,0,0,14,3.086,5.05,5.608,2.287,7,.761,4.474,0Z" transform="translate(36.5 43)" fill="#a6d513"/>
    <path id="Path-97" data-name="Path" d="M1.268,0,0,.931.14,1,2,.911,1.268,0Z" transform="translate(42.5 44)" fill="#231f20"/>
    <path id="Path-98" data-name="Path" d="M0,.151,3,2,1.989,0,0,.151Z" transform="translate(42.5 45)" fill="#0e8633"/>
    <path id="Shape-55" data-name="Shape" d="M1.577,14.754C1.507,14.432-.114,6.9.006,5.944S4.172.236,4.344.035L4.372,0,8,1.246,4.452,5.668,1.629,15Z" transform="translate(35.5 42)" fill="#231f20"/>
    <path id="Shape-56" data-name="Shape" d="M0,.15,1.988,0,3,2Z" transform="translate(42.5 45)" fill="#231f20"/>
    <path id="Rectangle-28" data-name="Rectangle" d="M.5,0h0l0,1.739h0Z" transform="translate(42.841 43.591) rotate(-25.59)" fill="#231f20"/>
    <path id="Path-99" data-name="Path" d="M.127,14,0,13.993.593,4.462l.012-.016L3.9,0,4,.078.719,4.509.127,14Z" transform="translate(35.5 43)" fill="#231f20"/>
    <path id="Shape-57" data-name="Shape" d="M5.2,21.423,0,0,8.8,1.581,14,23Z" transform="translate(34.5 12)" fill="#3dea8f"/>
    <path id="Shape-58" data-name="Shape" d="M4.823,20.633,0,0,7.181,1.369,12,22Z" transform="translate(35.5 12)" fill="#3dea8f"/>
    <path id="Shape-59" data-name="Shape" d="M0,0,5.805,1.034,8,9.833l-.594.147a3.478,3.478,0,0,0-.548-1.19C6,7.567,4.576,7.082,3.676,7.707A1.982,1.982,0,0,0,3.066,9.86L2.5,10Z" transform="translate(36.5 13)" fill="#19af60"/>
    <path id="Path-100" data-name="Path" d="M.141,1.455A1.569,1.569,0,0,1,.155.11c.2-.252.513-.056.7.436A1.591,1.591,0,0,1,.848,1.891C.651,2.141.331,1.945.141,1.455Z" transform="translate(40.5 15)" fill="#3dea8f"/>
    <path id="Path-101" data-name="Path" d="M.088,2.44A1.892,1.892,0,0,1,.765.274c1-.629,2.577-.139,3.535,1.089a3.361,3.361,0,0,1,.609,1.2,1.872,1.872,0,0,1-.677,2.166C3.237,5.354,1.657,4.869.7,3.638a3.36,3.36,0,0,1-.609-1.2Z" transform="translate(40.5 21)" fill="#3dea8f"/>
    <path id="Shape-60" data-name="Shape" d="M1.976,7.943,0,.172.591.029a3.556,3.556,0,0,0,.57,1.22C2.059,2.5,3.534,3,4.469,2.357A2,2,0,0,0,5.1.15L5.72,0,8,9Z" transform="translate(38.5 24)" fill="#19af60"/>
    <path id="Path-102" data-name="Path" d="M.141,1.456A1.574,1.574,0,0,1,.155.11C.355-.142.67.054.86.546A1.588,1.588,0,0,1,.848,1.891C.649,2.141.332,1.947.141,1.456Z" transform="translate(43.5 30)" fill="#3dea8f"/>
    <path id="Shape-61" data-name="Shape" d="M5.18,21.409l-.01-.043L0,0,8.828,1.595l.009.042L14,23Z" transform="translate(34.5 12)" fill="#231f20"/>
    <path id="Shape-62" data-name="Shape" d="M4.788,20.606,0,0,7.212,1.384,12,22Z" transform="translate(35.5 12)" fill="#231f20"/>
    <path id="Shape-63" data-name="Shape" d="M4.267,18.884,0,0,5.744,1.129,10,20Z" transform="translate(36.5 13)" fill="#231f20"/>
    <path id="Shape-64" data-name="Shape" d="M3.2,7a1.972,1.972,0,0,1-.775-.173A3.881,3.881,0,0,1,.69,5.1a5.5,5.5,0,0,1-.6-1.662A3.291,3.291,0,0,1,.774.389c1-.885,2.583-.209,3.532,1.5a5.52,5.52,0,0,1,.6,1.665,3.267,3.267,0,0,1-.686,3.048A1.506,1.506,0,0,1,3.229,7Z" transform="translate(40.5 19)" fill="#231f20"/>
    <path id="Shape-65" data-name="Shape" d="M1.275,2a1.324,1.324,0,0,1-1-.544C-.1.965-.09.366.316.113A1.137,1.137,0,0,1,1.727.535a.908.908,0,0,1-.04,1.345A.75.75,0,0,1,1.28,2Z" transform="translate(40.5 15)" fill="#231f20"/>
    <path id="Shape-66" data-name="Shape" d="M1.268,2a1.05,1.05,0,0,1-.31-.049A1.4,1.4,0,0,1,.272,1.46C-.1.968-.09.371.317.116A.856.856,0,0,1,1.041.052a1.417,1.417,0,0,1,.687.49c.376.491.362,1.089-.041,1.341A.763.763,0,0,1,1.282,2Z" transform="translate(43.5 30)" fill="#231f20"/>
    <path id="Path-103" data-name="Path" d="M1,0V27.663C1,27.846.776,28,.5,28s-.5-.15-.5-.337V0C0,.183.224.337.5.337S1,.185,1,0Z" transform="translate(60.5 39)" fill="#836a15"/>
    <path id="Path-104" data-name="Path" d="M.5,0A.5.5,0,1,1,0,.5.5.5,0,0,1,.5,0Z" transform="translate(60.5 38)" fill="#44320a"/>
    <rect id="Rectangle-29" data-name="Rectangle" width="0.136" height="27" transform="translate(60.432 39)" fill="#231f20"/>
    <rect id="Rectangle-30" data-name="Rectangle" width="0.136" height="27" transform="translate(60.432 39)" fill="#231f20"/>
    <path id="Path-105" data-name="Path" d="M.5,1C.219,1,0,.55,0,0H.1C.1.311.262.662.5.662S.9.311.9,0H1C1,.559.781,1,.5,1Z" transform="translate(60.5 67)" fill="#231f20"/>
    <path id="Shape-67" data-name="Shape" d="M0,.5A.5.5,0,1,1,.5,1,.5.5,0,0,1,0,.5Z" transform="translate(60.5 39)" fill="#231f20"/>
    <path id="Path-106" data-name="Path" d="M0,1,2,0" transform="translate(60.5 47)" fill="#fff"/>
    <path id="Rectangle-31" data-name="Rectangle" d="M0,.5,2.7.495v0L0,.505Z" transform="matrix(0.719, -0.695, 0.695, 0.719, 60.089, 47.516)" fill="#231f20"/>
    <path id="Path-107" data-name="Path" d="M4.994,6.012C5.106,6.982,3.59,15,3.59,15L3.042,5.075,0,.436,1.114,0S4.88,5.037,4.994,6.012Z" transform="translate(65.5 44)" fill="#a6d513"/>
    <path id="Path-108" data-name="Path" d="M3.39,4.778,4,15,0,0,3.39,4.778Z" transform="translate(64.5 44)" fill="#a6d513"/>
    <path id="Path-109" data-name="Path" d="M2.525,0,7,15,3.914,5.411,1.391,2.449,0,.816,2.525,0Z" transform="translate(62.5 44)" fill="#a6d513"/>
    <path id="Path-110" data-name="Path" d="M.733,0,2,.931,1.859,1,0,.912.733,0Z" transform="translate(61.5 45)" fill="#231f20"/>
    <path id="Path-111" data-name="Path" d="M3,.15,0,2,1.012,0,3,.15Z" transform="translate(59.5 46)" fill="#0e8633"/>
    <path id="Shape-68" data-name="Shape" d="M3.98,6.05,0,1.328,4.082,0l.03.034C4.3.25,8.853,5.324,8.993,6.345s-1.69,9.06-1.765,9.4L7.171,16Z" transform="translate(62.5 43)" fill="#231f20"/>
    <path id="Shape-69" data-name="Shape" d="M1.012,0,3,.23,0,3Z" transform="translate(59.5 46)" fill="#231f20"/>
    <path id="Rectangle-32" data-name="Rectangle" d="M0,.5,1.821.5v0L0,.5Z" transform="matrix(0.433, -0.902, 0.902, 0.433, 60.92, 45.697)" fill="#231f20"/>
    <path id="Path-112" data-name="Path" d="M4.848,15,4.108,4.828,0,.08.122,0,4.258,4.78V4.8L5,14.991,4.848,15Z" transform="translate(64.5 44)" fill="#231f20"/>
    <path id="Path-113" data-name="Path" d="M.006,6.008C-.107,6.977,1.414,15,1.414,15L1.96,5.077,5,.435,3.886,0S.119,5.037.006,6.008Z" transform="translate(50.5 48)" fill="#a6d513"/>
    <path id="Path-114" data-name="Path" d="M.609,4.46,0,14,4,0,.609,4.46Z" transform="translate(51.5 49)" fill="#a6d513"/>
    <path id="Path-115" data-name="Path" d="M4.475,0,0,14,3.085,5.051,5.608,2.286,7,.763,4.475,0Z" transform="translate(51.5 49)" fill="#a6d513"/>
    <path id="Path-116" data-name="Path" d="M1.268,0,0,.931.142,1,2,.912,1.268,0Z" transform="translate(57.5 49)" fill="#231f20"/>
    <path id="Path-117" data-name="Path" d="M0,.149,3,2,1.988,0,0,.149Z" transform="translate(57.5 50)" fill="#0e8633"/>
    <path id="Shape-70" data-name="Shape" d="M1.577,14.754C1.507,14.432-.114,6.9.006,5.944S4.171.236,4.343.033L4.371,0,8,1.244,4.451,5.668,1.629,15Z" transform="translate(50.5 49)" fill="#231f20"/>
    <path id="Shape-71" data-name="Shape" d="M0,.149,1.988,0,3,2Z" transform="translate(56.5 50)" fill="#231f20"/>
    <path id="Rectangle-33" data-name="Rectangle" d="M.5,0h0l0,1.739h0Z" transform="translate(58.018 49.333) rotate(-25.59)" fill="#231f20"/>
    <path id="Path-118" data-name="Path" d="M.127,14,0,13.991.593,4.462l.012-.017L3.9,0,4,.078.719,4.509.127,14Z" transform="translate(51.5 49)" fill="#231f20"/>
    <path id="Shape-72" data-name="Shape" d="M5.2,21.425,0,0,8.8,1.583,14,23Z" transform="translate(50.5 17)" fill="#3dea8f"/>
    <path id="Shape-73" data-name="Shape" d="M4.818,20.622,0,0,7.181,1.366,12,22Z" transform="translate(51.5 18)" fill="#3dea8f"/>
    <path id="Shape-74" data-name="Shape" d="M0,0,5.805,1.036,8,9.834l-.594.147a3.437,3.437,0,0,0-.548-1.19C6,7.569,4.576,7.084,3.676,7.709a1.985,1.985,0,0,0-.609,2.154L2.5,10Z" transform="translate(51.5 20)" fill="#19af60"/>
    <path id="Path-119" data-name="Path" d="M.141,1.454A1.567,1.567,0,0,1,.155.11c.2-.252.513-.054.7.436A1.594,1.594,0,0,1,.848,1.891C.651,2.141.331,1.945.141,1.454Z" transform="translate(55.5 21)" fill="#3dea8f"/>
    <path id="Path-120" data-name="Path" d="M.088,2.44A1.9,1.9,0,0,1,.765.275c1-.629,2.578-.141,3.536,1.089a3.336,3.336,0,0,1,.609,1.2,1.886,1.886,0,0,1-.677,2.166c-1,.627-2.576.142-3.536-1.089A3.336,3.336,0,0,1,.088,2.44Z" transform="translate(55.5 27)" fill="#3dea8f"/>
    <path id="Shape-75" data-name="Shape" d="M1.976,7.944,0,.17.591.029a3.523,3.523,0,0,0,.57,1.219C2.059,2.5,3.534,3,4.469,2.357A2,2,0,0,0,5.1.15L5.72,0,8,9Z" transform="translate(54.5 30)" fill="#19af60"/>
    <path id="Path-121" data-name="Path" d="M.14,1.458A1.578,1.578,0,0,1,.155.11c.2-.253.514-.056.706.435A1.588,1.588,0,0,1,.847,1.891C.649,2.14.332,1.949.14,1.458Z" transform="translate(58.5 35)" fill="#3dea8f"/>
    <path id="Shape-76" data-name="Shape" d="M5.171,21.411l-.01-.043L0,0,8.827,1.6l.011.042L14,23Z" transform="translate(50.5 17)" fill="#231f20"/>
    <path id="Shape-77" data-name="Shape" d="M4.793,20.606l-.011-.045L0,0,7.208,1.384,12,22Z" transform="translate(51.5 18)" fill="#231f20"/>
    <path id="Shape-78" data-name="Shape" d="M4.268,18.871,0,0,5.734,1.129,10,20Z" transform="translate(52.5 19)" fill="#231f20"/>
    <path id="Shape-79" data-name="Shape" d="M3.2,7a1.985,1.985,0,0,1-.775-.171A3.9,3.9,0,0,1,.689,5.1a5.47,5.47,0,0,1-.6-1.665A3.29,3.29,0,0,1,.775.387c1-.882,2.581-.206,3.532,1.507a5.462,5.462,0,0,1,.6,1.663,3.275,3.275,0,0,1-.686,3.051,1.513,1.513,0,0,1-1,.392Z" transform="translate(55.5 27)" fill="#231f20"/>
    <path id="Shape-80" data-name="Shape" d="M1.272,2A1.085,1.085,0,0,1,.959,1.95a1.413,1.413,0,0,1-.687-.491C-.1.968-.09.37.316.115A.862.862,0,0,1,1.04.051a1.4,1.4,0,0,1,.686.492c.379.491.363,1.091-.038,1.343a.753.753,0,0,1-.4.114Z" transform="translate(54.5 21)" fill="#231f20"/>
    <path id="Shape-81" data-name="Shape" d="M1.271,2a1.027,1.027,0,0,1-.31-.049A1.375,1.375,0,0,1,0,.71a.692.692,0,0,1,.315-.6A1.134,1.134,0,0,1,1.727.537a.91.91,0,0,1-.04,1.347A.776.776,0,0,1,1.276,2Z" transform="translate(58.5 35)" fill="#231f20"/>
    <path id="Path-122" data-name="Path" d="M1,0V27.663C1,27.846.776,28,.5,28s-.5-.15-.5-.337V0C0,.183.224.337.5.337S1,.185,1,0Z" transform="translate(74.5 46)" fill="#836a15"/>
    <path id="Path-123" data-name="Path" d="M.5,0A.5.5,0,1,1,0,.5.5.5,0,0,1,.5,0Z" transform="translate(74.5 46)" fill="#44320a"/>
    <rect id="Rectangle-34" data-name="Rectangle" width="0.136" height="27" transform="translate(75.432 46)" fill="#231f20"/>
    <rect id="Rectangle-35" data-name="Rectangle" width="0.136" height="27" transform="translate(73.432 46)" fill="#231f20"/>
    <path id="Path-124" data-name="Path" d="M.5,1C.219,1,0,.548,0,0H.1C.1.312.263.661.5.661S.9.312.9,0H1C1,.561.781,1,.5,1Z" transform="translate(74.5 73)" fill="#231f20"/>
    <path id="Shape-82" data-name="Shape" d="M0,.5A.5.5,0,1,1,.5,1,.5.5,0,0,1,0,.5Z" transform="translate(74.5 46)" fill="#231f20"/>
    <path id="Path-125" data-name="Path" d="M0,1,2,0" transform="translate(74.5 51)" fill="#fff"/>
    <path id="Rectangle-36" data-name="Rectangle" d="M0,.5,2.7.495v0L0,.505Z" transform="matrix(0.719, -0.695, 0.695, 0.719, 74.231, 53.158)" fill="#231f20"/>
    <path id="Path-126" data-name="Path" d="M4.994,6.012C5.106,6.982,3.59,15,3.59,15L3.042,5.075,0,.436,1.114,0S4.88,5.044,4.994,6.012Z" transform="translate(78.5 49)" fill="#a6d513"/>
    <path id="Path-127" data-name="Path" d="M3.39,4.778,4,15,0,0,3.39,4.778Z" transform="translate(78.5 49)" fill="#a6d513"/>
    <path id="Path-128" data-name="Path" d="M2.525,0,7,15,3.914,5.411,1.391,2.449,0,.816,2.525,0Z" transform="translate(75.5 49)" fill="#a6d513"/>
    <path id="Path-129" data-name="Path" d="M.733,0,2,.931,1.859,1,0,.912.733,0Z" transform="translate(75.5 50)" fill="#231f20"/>
    <path id="Path-130" data-name="Path" d="M3,.15,0,2,1.012,0,3,.15Z" transform="translate(74.5 51)" fill="#0e8633"/>
    <path id="Shape-83" data-name="Shape" d="M3.994,6.05,0,1.328,4.081,0l.031.034C4.3.25,8.853,5.324,8.993,6.345s-1.689,9.06-1.763,9.4L7.174,16Z" transform="translate(76.5 49)" fill="#231f20"/>
    <path id="Shape-84" data-name="Shape" d="M1.012,0,3,.23,0,3Z" transform="translate(74.5 50)" fill="#231f20"/>
    <path id="Rectangle-37" data-name="Rectangle" d="M0,.5,1.821.5v0L0,.5Z" transform="matrix(0.433, -0.902, 0.902, 0.433, 75.062, 51.342)" fill="#231f20"/>
    <path id="Path-131" data-name="Path" d="M4.848,15,4.107,4.828,0,.08.122,0,4.256,4.78l0,.019L5,14.991,4.848,15Z" transform="translate(78.5 49)" fill="#231f20"/>
    <path id="Path-132" data-name="Path" d="M.006,6.02C-.105,6.987,1.415,15,1.415,15l.547-9.91L5,.434,3.885,0S.12,5.043.006,6.02Z" transform="translate(65.5 53)" fill="#a6d513"/>
    <path id="Path-133" data-name="Path" d="M.609,4.46,0,14,4,0,.609,4.46Z" transform="translate(66.5 54)" fill="#a6d513"/>
    <path id="Path-134" data-name="Path" d="M4.475,0,0,14,3.085,5.051,5.608,2.286,7,.763,4.475,0Z" transform="translate(66.5 54)" fill="#a6d513"/>
    <path id="Path-135" data-name="Path" d="M1.268,0,0,.931.142,1,2,.912,1.268,0Z" transform="translate(71.5 55)" fill="#231f20"/>
    <path id="Path-136" data-name="Path" d="M0,.149,3,2,1.988,0,0,.149Z" transform="translate(71.5 57)" fill="#0e8633"/>
    <path id="Shape-85" data-name="Shape" d="M1.574,14.753C1.507,14.432-.113,6.894.006,5.94S4.175.236,4.349.033L4.377,0,8,1.245,4.457,5.67,1.628,15Z" transform="translate(64.5 54)" fill="#231f20"/>
    <path id="Shape-86" data-name="Shape" d="M0,.149,1.988,0,3,2Z" transform="translate(71.5 57)" fill="#231f20"/>
    <path id="Rectangle-38" data-name="Rectangle" d="M.5,0h0l0,1.739h0Z" transform="translate(72.161 54.977) rotate(-25.59)" fill="#231f20"/>
    <path id="Path-137" data-name="Path" d="M.125,14,0,13.991.593,4.462l.012-.016L3.9,0,4,.078.717,4.509.125,14Z" transform="translate(66.5 54)" fill="#231f20"/>
    <path id="Shape-87" data-name="Shape" d="M5.2,21.425,0,0,8.8,1.583,14,23Z" transform="translate(64.5 24)" fill="#3dea8f"/>
    <path id="Shape-88" data-name="Shape" d="M4.819,20.624,0,0,7.181,1.367,12,22Z" transform="translate(65.5 24)" fill="#3dea8f"/>
    <path id="Shape-89" data-name="Shape" d="M0,0,5.8,1.036,8,9.834l-.6.147a3.456,3.456,0,0,0-.549-1.19C5.994,7.569,4.569,7.084,3.669,7.709a1.987,1.987,0,0,0-.61,2.154L2.489,10Z" transform="translate(66.5 25)" fill="#19af60"/>
    <path id="Path-138" data-name="Path" d="M.141,1.454A1.57,1.57,0,0,1,.155.11c.2-.252.514-.054.7.436A1.593,1.593,0,0,1,.848,1.891C.65,2.141.332,1.945.141,1.454Z" transform="translate(69.5 26)" fill="#3dea8f"/>
    <path id="Path-139" data-name="Path" d="M.087,2.44A1.9,1.9,0,0,1,.765.275c1-.629,2.58-.141,3.536,1.089a3.336,3.336,0,0,1,.609,1.2,1.883,1.883,0,0,1-.677,2.166C3.239,5.353,1.656,4.868.7,3.637A3.336,3.336,0,0,1,.087,2.44Z" transform="translate(68.5 33)" fill="#3dea8f"/>
    <path id="Shape-90" data-name="Shape" d="M1.976,7.944,0,.17.591.029a3.523,3.523,0,0,0,.57,1.219C2.059,2.5,3.534,3,4.469,2.357A2,2,0,0,0,5.1.15L5.721,0,8,9Z" transform="translate(69.5 35)" fill="#19af60"/>
    <path id="Path-140" data-name="Path" d="M.141,1.457A1.574,1.574,0,0,1,.155.11c.2-.251.513-.056.7.435A1.593,1.593,0,0,1,.848,1.891C.65,2.14.331,1.949.141,1.457Z" transform="translate(74.5 40)" fill="#3dea8f"/>
    <path id="Shape-91" data-name="Shape" d="M5.171,21.411l-.01-.043L0,0,8.827,1.6l.011.042L14,23Z" transform="translate(64.5 24)" fill="#231f20"/>
    <path id="Shape-92" data-name="Shape" d="M4.784,20.606,0,0,7.206,1.384,12,22Z" transform="translate(65.5 24)" fill="#231f20"/>
    <path id="Shape-93" data-name="Shape" d="M4.262,18.884,0,0,5.734,1.13,10,20Z" transform="translate(66.5 25)" fill="#231f20"/>
    <path id="Shape-94" data-name="Shape" d="M3.206,7A3.211,3.211,0,0,1,.691,5.1a5.429,5.429,0,0,1-.6-1.663A3.29,3.29,0,0,1,.775.391,1.608,1.608,0,0,1,2.569.174,3.878,3.878,0,0,1,4.306,1.9a5.539,5.539,0,0,1,.6,1.662,3.28,3.28,0,0,1-.686,3.05A1.508,1.508,0,0,1,3.233,7Z" transform="translate(68.5 32)" fill="#231f20"/>
    <path id="Shape-95" data-name="Shape" d="M1.28,2A1.085,1.085,0,0,1,.967,1.95,1.384,1.384,0,0,1,0,.712a.694.694,0,0,1,.317-.6A.856.856,0,0,1,1.041.052a1.4,1.4,0,0,1,.686.493A.915.915,0,0,1,1.688,1.9.752.752,0,0,1,1.3,2Z" transform="translate(68.5 26)" fill="#231f20"/>
    <path id="Shape-96" data-name="Shape" d="M1.271,2a1.31,1.31,0,0,1-1-.536A.907.907,0,0,1,.316.116.856.856,0,0,1,1.04.052a1.406,1.406,0,0,1,.687.492c.377.493.363,1.092-.041,1.346A.761.761,0,0,1,1.29,2Z" transform="translate(72.5 40)" fill="#231f20"/>
    <rect id="Rectangle-39" data-name="Rectangle" width="135" height="144" transform="translate(0.5)" fill="#52aaff" style="mix-blend-mode: color;isolation: isolate"/>
  </g>
</svg>
