<svg xmlns="http://www.w3.org/2000/svg" width="20.9" height="22" viewBox="0 0 20.9 22">
  <path id="Home" d="M7.308,20.66V17.287a1.56,1.56,0,0,1,1.556-1.555h3.162a1.56,1.56,0,0,1,1.566,1.555h0v3.364A1.354,1.354,0,0,0,14.941,22H17.1a3.806,3.806,0,0,0,2.688-1.1A3.751,3.751,0,0,0,20.9,18.235V8.652a2.72,2.72,0,0,0-.985-2.093L12.587.742A3.427,3.427,0,0,0,8.234.82L1.064,6.56A2.722,2.722,0,0,0,0,8.652v9.573A3.788,3.788,0,0,0,3.8,22H5.91a1.354,1.354,0,0,0,.961-.389,1.335,1.335,0,0,0,.4-.951Z" fill="#484848"/>
</svg>
