<svg id="IPS" xmlns="http://www.w3.org/2000/svg" width="25" height="25" viewBox="0 0 25 25">
  <circle id="Oval" cx="12.5" cy="12.5" r="12.5" fill="#d7a81e" opacity="0.2"/>
  <path id="Fill_3" data-name="Fill 3" d="M11.056,5.071c-.326,0-.758-.007-1.3-.007a2.409,2.409,0,0,1-2.39-2.409V.331A.329.329,0,0,0,7.044,0H3.224A3.242,3.242,0,0,0,0,3.257v7.782a3.389,3.389,0,0,0,3.372,3.406H9.061A3.232,3.232,0,0,0,12.278,11.2V5.4a.327.327,0,0,0-.327-.331c-.305,0-.671.006-.895.006" transform="translate(6.361 5)" fill="#d7a81e" opacity="0.4"/>
  <path id="Fill_1" data-name="Fill 1" d="M.593.106A.345.345,0,0,0,0,.348v1.9A1.464,1.464,0,0,0,1.457,3.708c.5.006,1.2.007,1.8.006A.344.344,0,0,0,3.5,3.13L.593.106" transform="translate(14.857 5.303)" fill="#d7a81e" opacity="0.4"/>
  <path id="Combined_Shape" data-name="Combined Shape" d="M.537,4.683a.538.538,0,0,1,0-1.076H4.469a.538.538,0,1,1,0,1.076Zm0-3.607A.538.538,0,0,1,.537,0H2.982a.538.538,0,1,1,0,1.076Z" transform="translate(9.777 10.705)" fill="#d7a81e"/>
</svg>
