<svg id="Group_2" data-name="Group 2" xmlns="http://www.w3.org/2000/svg" width="25" height="25" viewBox="0 0 25 25">
  <circle id="Oval_Copy_10" data-name="Oval Copy 10" cx="12.5" cy="12.5" r="12.5" fill="#d7a81e" opacity="0.204"/>
  <g id="Iconly_Bulk_Folder" data-name="Iconly/Bulk/Folder" transform="translate(6 5)">
    <g id="Folder">
      <path id="Folder_2" data-name="Folder 2" d="M10.419,2.18H8.359a1.7,1.7,0,0,1-1.326-.621L6.355.621A1.657,1.657,0,0,0,5.035,0H3.579C.965,0,0,1.534,0,4.143v2.82c0,.31,14,.31,14,0v-.82C14.01,3.534,13.07,2.18,10.419,2.18Z" fill="#d7a81e" opacity="0.4"/>
      <path id="Folder-2" data-name="Folder" d="M10.056,11.831h0c-.072,0-.144,0-.215-.006H4.152c-.072,0-.144.006-.216.006a4.208,4.208,0,0,1-2.847-1.105A3.081,3.081,0,0,1,.623,10.1,4.055,4.055,0,0,1,.075,8.576,5.812,5.812,0,0,1,0,7.651V3.974A8.5,8.5,0,0,1,.05,3.055C.057,3,.067,2.949.077,2.9a1.338,1.338,0,0,0,.034-.26A3.983,3.983,0,0,1,.455,1.576C.947.523,1.965.011,3.567.011h6.846C10.506,0,10.6,0,10.694,0a3.666,3.666,0,0,1,2.258.781,1.987,1.987,0,0,1,.23.23,2.759,2.759,0,0,1,.51.888A5.955,5.955,0,0,1,14,3.974V7.651a6.51,6.51,0,0,1-.068.925,4.17,4.17,0,0,1-.56,1.528,3.118,3.118,0,0,1-.473.621A4.187,4.187,0,0,1,10.056,11.831ZM3.479,6.154a.577.577,0,1,0,0,1.155h7.085a.584.584,0,0,0,.392-.154.573.573,0,0,0,.184-.406.526.526,0,0,0-.124-.373.552.552,0,0,0-.436-.223Z" transform="translate(0 2.17)" fill="#d7a81e"/>
    </g>
  </g>
</svg>
