<svg id="Log_Out" data-name="Log Out" xmlns="http://www.w3.org/2000/svg" width="25" height="25" viewBox="0 0 25 25">
  <circle id="Oval_Copy_11" data-name="Oval Copy 11" cx="12.5" cy="12.5" r="12.5" fill="#d7a81e" opacity="0.2"/>
  <path id="Fill_1" data-name="Fill 1" d="M0,2.668A2.631,2.631,0,0,1,2.585,0H5.42A2.625,2.625,0,0,1,8,2.662v6.67A2.631,2.631,0,0,1,5.414,12H2.58A2.625,2.625,0,0,1,0,9.338V2.668Z" transform="translate(8 7)" fill="#d7a81e" opacity="0.4"/>
  <path id="Fill_3" data-name="Fill 3" d="M7.866,1.7,6.141.122a.482.482,0,0,0-.643,0,.4.4,0,0,0,0,.592l.945.866H.454A.438.438,0,0,0,0,2a.437.437,0,0,0,.454.419h5.99L5.5,3.285a.4.4,0,0,0,0,.592.482.482,0,0,0,.643,0L7.866,2.3a.4.4,0,0,0,0-.593" transform="translate(13 11)" fill="#d7a81e"/>
</svg>
