<svg xmlns="http://www.w3.org/2000/svg" width="109.2" height="109.2" viewBox="0 0 109.2 109.2">
  <g id="_Success" data-name="!Success" transform="translate(0.1 0.1)">
    <g id="_Success-2" data-name="!Success">
      <g id="Success">
        <circle id="Oval" cx="46" cy="46" r="46" transform="translate(9 9)" fill="none" stroke="red" stroke-miterlimit="10" stroke-width="0.4" opacity="0.272"/>
        <circle id="Oval-2" data-name="Oval" cx="54.5" cy="54.5" r="54.5" fill="none" stroke="red" stroke-miterlimit="10" stroke-width="0.2" opacity="0.201"/>
        <circle id="Oval-3" data-name="Oval" cx="30.5" cy="30.5" r="30.5" transform="translate(24 24)" fill="#f53232" opacity="0.348"/>
        <path id="Shape" d="M12.806,14.269,7.286,8.748,1.765,14.269A1.034,1.034,0,0,1,.3,12.806L5.823,7.286.3,1.765A1.034,1.034,0,0,1,1.765.3L7.286,5.823,12.806.3a1.034,1.034,0,0,1,1.463,1.463L8.748,7.286l5.521,5.521a1.034,1.034,0,0,1-1.463,1.463Z" transform="translate(47 47)" fill="#f53232"/>
      </g>
    </g>
  </g>
</svg>
