<svg id="Notification" xmlns="http://www.w3.org/2000/svg" width="25" height="25" viewBox="0 0 25 25">
  <circle id="Oval_Copy_12" data-name="Oval Copy 12" cx="12.5" cy="12.5" r="12.5" fill="#d7a81e" opacity="0.2"/>
  <path id="Fill_1" data-name="Fill 1" d="M9.57,5.674A2.285,2.285,0,0,1,8.945,4V3.747a3.262,3.262,0,0,0-.7-2.2A4.142,4.142,0,0,0,5.026,0H4.974A4.16,4.16,0,0,0,1.81,1.478a3.308,3.308,0,0,0-.755,2.269V4A2.234,2.234,0,0,1,.43,5.674,1.978,1.978,0,0,0,0,7.033a2.123,2.123,0,0,0,.508,1.4,2.666,2.666,0,0,0,1.706.831A24.5,24.5,0,0,0,5,9.408c.937,0,1.861-.066,2.786-.145a2.666,2.666,0,0,0,1.705-.831A2.126,2.126,0,0,0,10,7.033a1.978,1.978,0,0,0-.43-1.359" transform="translate(7 6)" fill="#d7a81e"/>
  <path id="Fill_4" data-name="Fill 4" d="M3.194.052a16.563,16.563,0,0,0-2.618,0C.3.116,0,.264,0,.59a1,1,0,0,0,.45.759h0a2.352,2.352,0,0,0,1.109.474,2.482,2.482,0,0,0,.652,0A2.353,2.353,0,0,0,3.32,1.35h0A1,1,0,0,0,3.769.59c0-.326-.3-.474-.576-.538" transform="translate(10 17)" fill="#d7a81e" opacity="0.4"/>
</svg>
