<svg id="Group" xmlns="http://www.w3.org/2000/svg" width="25" height="25" viewBox="0 0 25 25">
  <circle id="Oval_Copy_11" data-name="Oval Copy 11" cx="12.5" cy="12.5" r="12.5" fill="#d7a81e" opacity="0.204"/>
  <g id="Iconly_Bulk_Camera" data-name="Iconly/Bulk/Camera" transform="translate(5 6)">
    <g id="Camera">
      <path id="Combined_Shape" data-name="Combined Shape" d="M.862,5.207A2.951,2.951,0,0,1,0,3.124,2.9,2.9,0,0,1,.855,1.049,2.944,2.944,0,1,1,.862,5.207ZM1.65,1.843a1.753,1.753,0,0,0-.525,1.274v.007A1.818,1.818,0,0,0,2.947,4.945,1.833,1.833,0,0,0,4.77,3.124,1.818,1.818,0,0,0,2.947,1.3,1.827,1.827,0,0,0,1.65,1.843ZM6.48.681a.679.679,0,1,1,.675.675A.678.678,0,0,1,6.48.681Z" transform="translate(3.75 4.5)" fill="#d7a81e"/>
      <path id="Path" d="M11.58,2.427l-.075-.165c-.2-.427-.435-.921-.578-1.206A1.831,1.831,0,0,0,9.262,0H5.73A1.821,1.821,0,0,0,4.073,1.056c-.15.3-.405.839-.615,1.281l-.045.09a.147.147,0,0,1-.142.09A3.271,3.271,0,0,0,0,5.784v4.45A3.271,3.271,0,0,0,3.27,13.5h8.46A3.276,3.276,0,0,0,15,10.234V5.784a3.276,3.276,0,0,0-3.27-3.266A.171.171,0,0,1,11.58,2.427Z" fill="#d7a81e" opacity="0.4"/>
    </g>
  </g>
</svg>
