<svg xmlns="http://www.w3.org/2000/svg" width="10" height="12" viewBox="0 0 10 12">
    <g fill="none" fill-rule="evenodd">
        <g fill="#D7A81E" fill-rule="nonzero">
            <g>
                <g>
                    <g>
                        <path d="M22 17.221c0 .361-.114.724-.34 1.014-.044.057-.242.292-.399.444l-.085.084c-1.193 1.265-4.162 3.167-5.667 3.777 0 .014-.895.376-1.322.389h-.056c-.654 0-1.265-.36-1.577-.943-.17-.321-.327-1.251-.34-1.264-.129-.835-.214-2.112-.214-3.515 0-1.47.085-2.805.241-3.624 0-.014.157-.764.256-1.014.156-.36.44-.666.796-.86.284-.138.582-.209.895-.209.326.015.937.222 1.178.32 1.591.61 4.631 2.61 5.796 3.832.199.194.412.432.469.486.241.306.369.68.369 1.083" transform="translate(-293 -643) translate(0 191) translate(44 441) translate(216) translate(21)"/>
                    </g>
                </g>
            </g>
        </g>
    </g>
</svg>
