<svg xmlns="http://www.w3.org/2000/svg" width="22" height="22" viewBox="0 0 22 22">
  <g id="Work" transform="translate(-0.1)">
    <path id="Fill_1" data-name="Fill 1" d="M0,0C.055,2.617.209,7.094.231,7.587a5.257,5.257,0,0,0,1.094,2.875,4.031,4.031,0,0,0,3.4,1.527C6.766,12,9.018,12,11.2,12s4.326,0,6.126-.011a4.079,4.079,0,0,0,3.4-1.527A5.1,5.1,0,0,0,21.8,7.587c.022-.415.132-5.275.2-7.587Z" transform="translate(0.1 10)" fill="#484848" opacity="0.4"/>
    <path id="Fill_4" data-name="Fill 4" d="M0,.805V2.195A.919.919,0,0,0,1,3a.919.919,0,0,0,1-.805V.805A.919.919,0,0,0,1,0,.919.919,0,0,0,0,.805" transform="translate(10.1 14)" fill="#200e32"/>
    <path id="Fill_6" data-name="Fill 6" d="M13.727,14a.82.82,0,0,1-.8-.6,1.976,1.976,0,0,0-1.932-1.444A2,2,0,0,0,9.037,13.4a.817.817,0,0,1-.8.589.889.889,0,0,1-.112-.007,19.262,19.262,0,0,1-7.755-2.8A.79.79,0,0,1,0,10.518v-3.7A4.139,4.139,0,0,1,4.2,2.755H6.366A3.225,3.225,0,0,1,9.58,0h2.841a3.224,3.224,0,0,1,3.214,2.755H17.81A4.133,4.133,0,0,1,22,6.819v3.7a.8.8,0,0,1-.369.669,19.229,19.229,0,0,1-7.79,2.805A.805.805,0,0,1,13.727,14ZM9.58,1.6A1.6,1.6,0,0,0,8.035,2.755h5.928A1.6,1.6,0,0,0,12.421,1.6Z" transform="translate(0.1)" fill="#484848"/>
  </g>
</svg>
