<svg id="Rate" xmlns="http://www.w3.org/2000/svg" width="25" height="25" viewBox="0 0 25 25">
  <circle id="Oval_Copy_11" data-name="Oval Copy 11" cx="12.5" cy="12.5" r="12.5" fill="#d7a81e" opacity="0.2"/>
  <g id="Iconly_Bulk_Heart" data-name="Iconly/Bulk/Heart" transform="translate(6 6)">
    <g id="Heart">
      <path id="Path_34179" d="M6.828,13.186A25.381,25.381,0,0,1,2.4,9.716,8.868,8.868,0,0,1,.277,6.353C-.52,3.875.407,1.043,3,.2A4.4,4.4,0,0,1,6.99.91h0A4.4,4.4,0,0,1,10.984.2c2.588.841,3.521,3.673,2.725,6.151A8.869,8.869,0,0,1,11.6,9.716a25.611,25.611,0,0,1-4.43,3.47L7,13.3Z" transform="translate(0.015)" fill="#d7a81e" opacity="0.4"/>
      <path id="Path_34178" d="M7.008,13.3l-.164-.114a25.423,25.423,0,0,1-4.436-3.47A8.867,8.867,0,0,1,.273,6.352C-.517,3.874.41,1.042,3,.2A4.407,4.407,0,0,1,7.008.917Z" transform="translate(0 0)" fill="#d7a81e"/>
      <path id="Path_34180" d="M1.561,2.8h0A.5.5,0,0,1,1.2,2.605a.573.573,0,0,1-.117-.414h0a1.153,1.153,0,0,0-.7-1.113A.551.551,0,0,1,.015.415a.508.508,0,0,1,.6-.4.268.268,0,0,1,.1.037A2.238,2.238,0,0,1,2.1,2.258a.565.565,0,0,1-.16.392A.5.5,0,0,1,1.561,2.8Z" transform="translate(9.8 2.1)" fill="#d7a81e"/>
    </g>
  </g>
</svg>
