<svg xmlns="http://www.w3.org/2000/svg" width="142" height="153" viewBox="0 0 142 153">
    <g fill="none" fill-rule="evenodd">
        <g fill-rule="nonzero">
            <g>
                <g fill="#231F20" opacity=".21">
                    <path d="M40.79 0.041L94.914 21.003 54.216 61.856 54.21 61.873 0.079 40.909z" transform="translate(-117 -289) translate(117 289) translate(0 91)"/>
                </g>
                <g fill="#231F20" opacity=".21">
                    <path d="M40.811 0.093L94.814 21.054 54.208 61.907 54.201 61.925 0.193 40.961z" transform="translate(-117 -289) translate(117 289) translate(47 46)"/>
                </g>
                <path fill="#FFF" d="M79 88L79 117.076 78.05 118 78 117.949 78 88.97z" transform="translate(-117 -289) translate(117 289)"/>
                <path fill="#FFC65A" d="M79 89.055L78.059 90 38.781 74.748 29 70.947 29.938 70 39.722 73.801z" transform="translate(-117 -289) translate(117 289)"/>
                <path fill="#B28242" d="M78 89.941L78 118 38.769 102.837 29 99.059 29 71 38.769 74.778z" transform="translate(-117 -289) translate(117 289)"/>
                <path fill="#231F20" d="M78 118l-.109-.043L29 99.092V71l.109.043L78 89.91V118zM29.151 98.983l48.685 18.776v-27.74L29.15 71.235v27.748zM78.106 118L78 117.883 78.851 116.939 78.851 88 79 88 79 117.007z" transform="translate(-117 -289) translate(117 289)"/>
                <path fill="#231F20" d="M77.978 90L77.865 89.887 78.714 89.034 30.014 70.186 29.113 71.088 29 70.976 29.973 70 39.766 73.789 79 88.972z" transform="translate(-117 -289) translate(117 289)"/>
                <path fill="#B28242" d="M31 69L31 97.48 4 125 4 96.518z" transform="translate(-117 -289) translate(117 289)"/>
                <path fill="#FFC65A" d="M32 69.245L4.955 97 4.908 96.97 4 96.616 30.91 69z" transform="translate(-117 -289) translate(117 289)"/>
                <path fill="#231F20" d="M3.116 97L3 96.884 30.828 69 32 69.256 31.963 69.416 30.88 69.18z" transform="translate(-117 -289) translate(117 289)"/>
                <path fill="#231F20" d="M4 126V96.98l.024-.024L32 69v29.02l-.024.024L4 126zm.163-28.953v28.559L31.83 97.959V69.394L4.163 97.047z" transform="translate(-117 -289) translate(117 289)"/>
                <path fill="#231F20" d="M3.69 96.265L3.69 96.265 3.688 97.248 3.688 97.248z" transform="translate(-117 -289) translate(117 289) rotate(-69.1 3.69 96.756)"/>
                <path fill="#12CA70" d="M77 92.553L64.118 106 23 89.447 35.89 76 77 92.553zm-13.396 11.419l10.419-10.8-37.57-15.121L26.023 88.83l37.582 15.142z" transform="translate(-117 -289) translate(117 289)"/>
                <path fill="#12CA70" d="M75 92.587L64.362 103 26 88.4 36.65 78 75 92.587zm-11.339 8.85l8.727-8.544-20.174-7.675-15.312-5.819-8.72 8.56 17.717 6.738 17.762 6.74z" transform="translate(-117 -289) translate(117 289)"/>
                <path fill="#12CA70" d="M72 92.57L63.434 101 46 94.34l.452-1.154c.847.326 1.75.491 2.659.485 3.073 0 5.568-1.802 5.568-4.02 0-1.532-1.179-2.857-2.915-3.535L52.19 85 72 92.57zm-5.282 2.703c0-.884-1-1.606-2.231-1.606-1.232 0-2.244.722-2.244 1.606 0 .884 1 1.616 2.24 1.616 1.24 0 2.235-.721 2.235-1.616z" transform="translate(-117 -289) translate(117 289)"/>
                <path fill="#12CA70" d="M64.507 94c1.376 0 2.493.896 2.493 1.993C67 97.091 65.883 98 64.507 98S62 97.104 62 95.993C62 94.883 63.121 94 64.507 94zM51.861 86.473c1.87.675 3.139 1.996 3.139 3.522C55 92.205 52.313 94 49.005 94c-.98.006-1.951-.158-2.864-.484-1.87-.68-3.141-2.001-3.141-3.521C43 87.779 45.687 86 49.005 86c.976-.009 1.945.151 2.856.473z" transform="translate(-117 -289) translate(117 289)"/>
                <path fill="#12CA70" d="M52 86.722l-.434 1.11c-.86-.324-1.777-.488-2.7-.48-3.136 0-5.676 1.783-5.676 3.986 0 1.517 1.202 2.834 2.97 3.514L45.7 96 28 89.393 36.712 81 52 86.722zm-13.423.014c0-.887-1.017-1.605-2.27-1.605-1.254 0-2.278.728-2.278 1.605 0 .878 1.017 1.6 2.273 1.6 1.256 0 2.282-.718 2.282-1.6h-.007z" transform="translate(-117 -289) translate(117 289)"/>
                <path fill="#12CA70" d="M35.504 83c1.378 0 2.496.896 2.496 2.004S36.882 87 35.504 87C34.125 87 33 86.104 33 85.004S34.123 83 35.504 83z" transform="translate(-117 -289) translate(117 289)"/>
                <path fill="#231F20" d="M63.822 106l-.05-.018L22 89.488 35.184 76l.05.02L77 92.514l-.088.088L63.822 106zM22.289 89.427l41.492 16.381 12.926-13.23-41.482-16.384L22.29 89.427z" transform="translate(-117 -289) translate(117 289)"/>
                <path fill="#231F20" d="M64.302 103l-.047-.02L26 88.448 36.713 78l.047.02L75 92.538 64.302 103zm-38.01-14.613l37.982 14.428L74.72 92.598 36.752 78.185l-10.46 10.202z" transform="translate(-117 -289) translate(117 289)"/>
                <path fill="#231F20" d="M63.244 102l-.05-.02L28 87.973 36.747 79l.05.02 15.14 6.023L72 93.027 63.244 102zm-17.552-7.165l17.514 6.972 8.504-8.716-19.832-7.893-15.092-5.999-8.496 8.717 17.402 6.919z" transform="translate(-117 -289) translate(117 289)"/>
                <path fill="#231F20" d="M48.999 94c-.976.006-1.943-.156-2.853-.478C44.205 92.818 43 91.462 43 90c0-2.206 2.69-4 5.999-4 .976-.008 1.945.154 2.855.478C53.793 87.174 55 88.525 55 90c-.009 2.206-2.694 4-6.001 4zm0-7.845c-3.214 0-5.83 1.726-5.83 3.845 0 1.405 1.165 2.698 3.038 3.378.89.315 1.837.473 2.792.467 3.21 0 5.822-1.724 5.822-3.845 0-1.41-1.164-2.704-3.04-3.378-.886-.315-1.83-.474-2.782-.467zM64.506 98C63.126 98 62 97.1 62 96s1.123-2 2.506-2c1.383 0 2.494.897 2.494 2s-1.118 2-2.494 2zm0-3.817c-1.286 0-2.333.812-2.333 1.81 0 .997 1.047 1.82 2.333 1.82 1.286 0 2.321-.816 2.321-1.82 0-1.005-1.042-1.81-2.321-1.81zM35.5 87c-1.382 0-2.5-.895-2.5-2s1.122-2 2.5-2 2.5.9 2.5 2-1.122 2-2.5 2zm0-3.817c-1.283 0-2.327.817-2.327 1.82 0 1.002 1.044 1.81 2.327 1.81s2.327-.813 2.327-1.81c0-.998-1.044-1.82-2.327-1.82z" transform="translate(-117 -289) translate(117 289)"/>
                <path fill="#12CA70" d="M77 91.553L64.118 105 23 88.447 35.89 75 77 91.553zm-13.396 11.42l10.419-10.8-37.57-15.122-10.431 10.785 37.582 15.138z" transform="translate(-117 -289) translate(117 289)"/>
                <path fill="#12CA70" d="M75 91.584L64.362 102 26 87.402 36.65 77 75 91.584zm-11.339 8.854l8.727-8.561-20.174-7.67-15.312-5.82-8.72 8.56 17.717 6.74 17.762 6.75z" transform="translate(-117 -289) translate(117 289)"/>
                <path fill="#12CA70" d="M72 90.56L63.434 99 46 92.339l.452-1.152c.847.326 1.75.49 2.659.483 3.073 0 5.568-1.802 5.568-4.02 0-1.531-1.179-2.857-2.915-3.534L52.19 83 72 90.56zm-5.282 2.71c0-.887-1-1.609-2.231-1.609-1.232 0-2.244.722-2.244 1.608 0 .886 1 1.614 2.24 1.614 1.24 0 2.235-.71 2.235-1.614z" transform="translate(-117 -289) translate(117 289)"/>
                <path fill="#12CA70" d="M64.507 93c1.376 0 2.493.896 2.493 1.996S65.883 97 64.507 97 62 96.117 62 94.996 63.121 93 64.507 93zM51.861 85.473c1.87.675 3.139 1.996 3.139 3.522C55 91.205 52.313 93 49.005 93c-.98.007-1.951-.157-2.864-.482-1.87-.683-3.141-2.003-3.141-3.523C43 86.779 45.687 85 49.005 85c.976-.009 1.945.151 2.856.473z" transform="translate(-117 -289) translate(117 289)"/>
                <path fill="#12CA70" d="M52 84.722l-.434 1.11c-.862-.325-1.781-.489-2.707-.48-3.135 0-5.674 1.783-5.674 3.986 0 1.517 1.2 2.834 2.968 3.516L45.693 94 28 87.393 36.709 79 52 84.722zm-13.418.014c0-.887-1.017-1.605-2.27-1.605-1.253 0-2.276.72-2.276 1.608 0 .887 1.017 1.598 2.272 1.598s2.28-.717 2.28-1.598l-.006-.003z" transform="translate(-117 -289) translate(117 289)"/>
                <path fill="#12CA70" d="M35.504 82c1.378 0 2.496.896 2.496 2.004S36.882 86 35.504 86C34.125 86 33 85.104 33 84.004S34.123 82 35.504 82z" transform="translate(-117 -289) translate(117 289)"/>
                <path fill="#231F20" d="M63.822 105l-.05-.02L22 88.486 35.184 75l.05.02L77 91.512l-.088.09L63.822 105zM22.289 88.424l41.492 16.382 12.926-13.23-41.484-16.384L22.29 88.424z" transform="translate(-117 -289) translate(117 289)"/>
                <path fill="#231F20" d="M64.302 102l-.047-.017L26 87.447 36.713 77l.047.017L75 91.539 64.302 102zm-38.01-14.613l37.982 14.428L74.72 91.598 36.752 77.185l-10.46 10.202z" transform="translate(-117 -289) translate(117 289)"/>
                <path fill="#231F20" d="M63.246 102l-.05-.018L28 87.974 36.745 79l.05.018 15.145 6.02L72 93.026 63.246 102zm-17.549-7.163l17.51 6.97 8.503-8.723-19.828-7.896-15.09-6-8.494 8.72 17.399 6.93z" transform="translate(-117 -289) translate(117 289)"/>
                <path fill="#231F20" d="M48.999 93c-.975.006-1.943-.156-2.853-.476-1.941-.705-3.146-2.06-3.146-3.525C43 86.795 45.69 85 48.999 85c.977-.006 1.946.159 2.855.486 1.939.697 3.146 2.046 3.146 3.521C54.991 91.205 52.306 93 48.999 93zm0-7.845c-3.214 0-5.83 1.724-5.83 3.844 0 1.405 1.165 2.699 3.038 3.38.89.314 1.838.472 2.792.466 3.21 0 5.822-1.724 5.822-3.846 0-1.411-1.164-2.705-3.04-3.379-.886-.315-1.83-.473-2.782-.465zM64.506 97C63.126 97 62 96.1 62 95s1.123-2 2.506-2c1.383 0 2.494.897 2.494 2s-1.118 2-2.494 2zm0-3.817c-1.286 0-2.333.812-2.333 1.812s1.047 1.817 2.333 1.817c1.286 0 2.321-.814 2.321-1.817 0-1.002-1.042-1.813-2.321-1.813zM35.5 86c-1.382 0-2.5-.897-2.5-2s1.122-2 2.5-2 2.5.9 2.5 2-1.122 2-2.5 2zm0-3.817c-1.283 0-2.327.814-2.327 1.817 0 1.002 1.044 1.813 2.327 1.813S37.827 85 37.827 84s-1.044-1.817-2.327-1.817z" transform="translate(-117 -289) translate(117 289)"/>
                <path fill="#12CA70" d="M77 89.555L64.118 103 23 86.445 35.89 73 77 89.555zm-13.396 11.419l10.419-10.802-37.57-15.121-10.431 10.784 37.582 15.139z" transform="translate(-117 -289) translate(117 289)"/>
                <path fill="#12CA70" d="M75 89.583L64.362 100 26 85.4 36.65 75 75 89.583zm-11.339 8.855l8.727-8.562L52.214 82.2l-15.312-5.82-8.72 8.552 17.717 6.742 17.762 6.763z" transform="translate(-117 -289) translate(117 289)"/>
                <path fill="#12CA70" d="M72 90.559L63.434 99 46 92.34l.452-1.154c.848.323 1.75.484 2.659.475 3.073 0 5.568-1.8 5.568-4.01 0-1.534-1.179-2.857-2.915-3.535L52.19 83 72 90.559zm-5.282 2.71c0-.887-1-1.608-2.231-1.608-1.232 0-2.244.721-2.244 1.608 0 .886 1 1.614 2.24 1.614 1.24 0 2.235-.722 2.235-1.614z" transform="translate(-117 -289) translate(117 289)"/>
                <path fill="#12CA70" d="M64.507 92c1.376 0 2.493.896 2.493 1.996S65.883 96 64.507 96 62 95.104 62 93.996 63.121 92 64.507 92zM51.861 84.482c1.87.675 3.139 1.993 3.139 3.522C55 90.214 52.313 92 49.005 92c-.98.007-1.951-.157-2.864-.482-1.87-.683-3.141-2.002-3.141-3.522C43 85.777 45.687 84 49.005 84c.976-.007 1.946.157 2.856.482z" transform="translate(-117 -289) translate(117 289)"/>
                <path fill="#12CA70" d="M52 82.719l-.434 1.11c-.86-.325-1.776-.489-2.7-.483-3.136 0-5.676 1.785-5.676 3.99 0 1.517 1.202 2.833 2.97 3.516L45.7 92 28 85.387 36.712 77 52 82.719zm-13.416.016c0-.888-1.017-1.608-2.271-1.608s-2.284.718-2.284 1.608c0 .89 1.017 1.598 2.273 1.598 1.256 0 2.282-.72 2.282-1.598z" transform="translate(-117 -289) translate(117 289)"/>
                <path fill="#12CA70" d="M35.504 80c1.378 0 2.496.898 2.496 2.007C38 83.115 36.882 84 35.504 84 34.125 84 33 83.104 33 82.01c0-1.096 1.123-2.01 2.504-2.01z" transform="translate(-117 -289) translate(117 289)"/>
                <path fill="#231F20" d="M63.822 103l-.05-.02L22 86.488 35.184 73l.05.02L77 89.512l-.088.09L63.822 103zM22.289 86.424l41.492 16.384 12.926-13.23-41.484-16.384-12.934 13.23z" transform="translate(-117 -289) translate(117 289)"/>
                <path fill="#231F20" d="M64.302 100l-.047-.02L26 85.45 36.713 75l.047.02L75 89.54 64.302 100zm-38.01-14.616l37.982 14.429L74.72 89.595 36.752 75.181l-10.46 10.203z" transform="translate(-117 -289) translate(117 289)"/>
                <path fill="#231F20" d="M63.246 100l-.05-.02L28 85.973 36.745 77l.05.02 15.145 6.02L72 91.024 63.246 100zm-17.549-7.162l17.51 6.967 8.503-8.718-19.828-7.893-15.09-6.001-8.494 8.718 17.399 6.927z" transform="translate(-117 -289) translate(117 289)"/>
                <path fill="#231F20" d="M48.999 92c-.976.006-1.943-.156-2.853-.478C44.205 90.818 43 89.462 43 88c0-2.206 2.69-4 5.999-4 .976-.008 1.945.154 2.855.478C53.793 85.174 55 86.523 55 88c-.009 2.206-2.694 4-6.001 4zm0-7.845c-3.214 0-5.83 1.724-5.83 3.845 0 1.403 1.165 2.698 3.038 3.378.89.314 1.837.473 2.792.467 3.21 0 5.822-1.726 5.822-3.845 0-1.41-1.164-2.706-3.04-3.38-.886-.315-1.83-.473-2.782-.465zM64.506 96C63.126 96 62 95.1 62 94s1.123-2 2.506-2c1.383 0 2.494.895 2.494 2s-1.118 2-2.494 2zm0-3.817c-1.286 0-2.333.812-2.333 1.81 0 .997 1.047 1.82 2.333 1.82 1.286 0 2.321-.818 2.321-1.82 0-1.003-1.042-1.81-2.321-1.81zM35.5 84c-1.382 0-2.5-.897-2.5-2s1.122-2 2.5-2 2.5.9 2.5 2-1.122 2-2.5 2zm0-3.817c-1.283 0-2.327.814-2.327 1.82 0 1.004 1.044 1.81 2.327 1.81S37.827 83 37.827 82s-1.044-1.823-2.327-1.823v.005z" transform="translate(-117 -289) translate(117 289)"/>
                <path fill="#12CA70" d="M77 88.553L64.118 102 23 85.447 35.89 72 77 88.553zM63.604 99.972L74.023 89.17l-37.57-15.12-10.431 10.786 37.582 15.136z" transform="translate(-117 -289) translate(117 289)"/>
                <path fill="#12CA70" d="M75 88.583L64.363 99 26 84.402 36.65 74 75 88.583zm-11.338 8.855l8.726-8.551-20.173-7.678-15.31-5.82-8.721 8.562L45.9 90.69l17.762 6.746z" transform="translate(-117 -289) translate(117 289)"/>
                <path fill="#12CA70" d="M72 90.565L63.434 99 46 92.337l.452-1.155c.847.326 1.75.49 2.659.483 3.073 0 5.568-1.8 5.568-4.012 0-1.532-1.179-2.858-2.915-3.536L52.19 83 72 90.565zm-5.282 2.709c0-.885-1-1.609-2.231-1.609-1.232 0-2.244.724-2.244 1.609s1 1.615 2.24 1.615c1.24 0 2.235-.722 2.235-1.615z" transform="translate(-117 -289) translate(117 289)"/>
                <path fill="#12CA70" d="M64.507 91c1.376 0 2.493.898 2.493 1.996C67 94.094 65.883 95 64.507 95S62 94.104 62 92.996 63.121 91 64.507 91zM51.861 82.482c1.87.675 3.139 1.995 3.139 3.522C55 88.214 52.313 90 49.005 90c-.98.007-1.951-.157-2.864-.482-1.87-.681-3.141-2.002-3.141-3.522C43 83.779 45.687 82 49.005 82c.976-.007 1.946.157 2.856.482z" transform="translate(-117 -289) translate(117 289)"/>
                <path fill="#12CA70" d="M52 81.722l-.434 1.11c-.86-.324-1.777-.488-2.7-.48-3.136 0-5.676 1.783-5.676 3.986 0 1.517 1.202 2.834 2.97 3.514L45.7 91 28 84.393 36.712 76 52 81.722zm-13.423.014c0-.887-1.017-1.605-2.27-1.605-1.254 0-2.278.718-2.278 1.605 0 .888 1.017 1.6 2.273 1.6 1.256 0 2.282-.718 2.282-1.6h-.007z" transform="translate(-117 -289) translate(117 289)"/>
                <path fill="#12CA70" d="M35.504 80c1.378 0 2.496.896 2.496 2.004S36.882 84 35.504 84C34.125 84 33 83.104 33 82.004S34.123 80 35.504 80z" transform="translate(-117 -289) translate(117 289)"/>
                <path fill="#231F20" d="M63.822 102l-.05-.018L22 85.488 35.184 72l.05.02L77 88.514l-.088.088L63.822 102zM22.289 85.427l41.492 16.381 12.926-13.23-41.482-16.384L22.29 85.427z" transform="translate(-117 -289) translate(117 289)"/>
                <path fill="#231F20" d="M64.302 99l-.047-.02L26 84.449 36.713 74l.047.02L75 88.536 64.302 99zm-38.01-14.612l37.982 14.425L74.72 88.6 36.752 74.187l-10.46 10.201z" transform="translate(-117 -289) translate(117 289)"/>
                <path fill="#231F20" d="M63.246 99l-.05-.02L28 84.975 36.745 76l.05.02 15.145 6.02L72 90.024 63.246 99zm-17.549-7.162l17.51 6.967 8.503-8.716-19.828-7.895-15.09-6-8.494 8.717 17.399 6.927z" transform="translate(-117 -289) translate(117 289)"/>
                <path fill="#231F20" d="M48.999 90c-.975.008-1.943-.151-2.853-.47C44.205 88.825 43 87.468 43 86.004c0-2.208 2.69-4.003 5.999-4.003.976-.012 1.945.148 2.855.47C53.793 83.167 55 84.52 55 85.996 54.991 88.204 52.306 90 48.999 90zm0-7.853c-3.214 0-5.83 1.728-5.83 3.849 0 1.406 1.165 2.7 3.038 3.381.89.315 1.837.474 2.792.468 3.21 0 5.822-1.728 5.822-3.849 0-1.412-1.164-2.707-3.04-3.381-.886-.317-1.83-.476-2.782-.468zM64.506 95C63.126 95 62 94.1 62 93s1.123-2 2.506-2c1.383 0 2.494.897 2.494 2s-1.118 2-2.494 2zm0-3.817c-1.286 0-2.333.812-2.333 1.81 0 .997 1.047 1.82 2.333 1.82 1.286 0 2.321-.816 2.321-1.82 0-1.005-1.042-1.81-2.321-1.81zM35.5 84c-1.382 0-2.5-.895-2.5-2s1.122-2 2.5-2 2.5.9 2.5 2-1.122 2-2.5 2zm0-3.817c-1.283 0-2.327.817-2.327 1.82 0 1.002 1.044 1.81 2.327 1.81s2.327-.813 2.327-1.81c0-.998-1.044-1.82-2.327-1.82z" transform="translate(-117 -289) translate(117 289)"/>
                <path fill="#12CA70" d="M77 87.551L64.118 101 23 84.445 35.89 71 77 87.551zM63.604 98.967L74.023 88.17l-37.57-15.129-10.431 10.784 37.582 15.142z" transform="translate(-117 -289) translate(117 289)"/>
                <path fill="#12CA70" d="M75 88.588L64.363 99 26 84.407 36.652 74 75 88.588zm-11.338 8.85l8.726-8.548-20.173-7.675-15.31-5.818-8.721 8.559L45.9 90.689l17.762 6.749z" transform="translate(-117 -289) translate(117 289)"/>
                <path fill="#12CA70" d="M72 89.567L63.434 98 46 91.342l.452-1.152c.847.326 1.75.49 2.659.483 3.073 0 5.568-1.802 5.568-4.02 0-1.533-1.179-2.859-2.915-3.536L52.19 82 72 89.567zm-5.282 2.71c0-.886-1-1.608-2.231-1.608-1.232 0-2.244.722-2.244 1.609 0 .886 1 1.614 2.24 1.614 1.24 0 2.235-.722 2.235-1.614z" transform="translate(-117 -289) translate(117 289)"/>
                <path fill="#12CA70" d="M64.507 89c1.376 0 2.493.896 2.493 1.996S65.883 93 64.507 93 62 92.104 62 90.996 63.121 89 64.507 89zM51.861 82.473c1.87.675 3.139 1.996 3.139 3.522C55 88.205 52.313 90 49.005 90c-.98.007-1.951-.157-2.864-.482-1.87-.683-3.141-2.003-3.141-3.523C43 83.779 45.687 82 49.005 82c.976-.009 1.945.151 2.856.473z" transform="translate(-117 -289) translate(117 289)"/>
                <path fill="#12CA70" d="M52 80.71l-.434 1.11c-.86-.325-1.776-.488-2.699-.481-3.135 0-5.674 1.783-5.674 3.986 0 1.517 1.202 2.835 2.969 3.517L45.693 90 28 83.393 36.709 75 52 80.71zm-13.418.014c0-.888-1.017-1.605-2.27-1.605-1.253 0-2.276.717-2.276 1.605 0 .887 1.017 1.599 2.272 1.599s2.28-.716 2.28-1.6h-.006z" transform="translate(-117 -289) translate(117 289)"/>
                <path fill="#12CA70" d="M35.504 79c1.378 0 2.496.896 2.496 2.004S36.882 83 35.504 83C34.125 83 33 82.107 33 81.004S34.123 79 35.504 79z" transform="translate(-117 -289) translate(117 289)"/>
                <path fill="#231F20" d="M63.822 101l-.05-.02L22 84.486 35.184 71l.05.018L77 87.512l-.088.09L63.822 101zM22.289 84.424l41.492 16.382 12.926-13.23-41.482-16.384L22.29 84.424z" transform="translate(-117 -289) translate(117 289)"/>
                <path fill="#231F20" d="M64.302 99l-.047-.02L26 84.448 36.713 74l.047.017L75 88.53 64.302 99zm-38.01-14.613l37.982 14.428L74.72 88.598 36.752 74.185l-10.46 10.202z" transform="translate(-117 -289) translate(117 289)"/>
                <path fill="#231F20" d="M63.246 98l-.05-.02L28 83.975 36.745 75l.05.02 15.145 6.015L72 89.023 63.246 98zm-17.549-7.162l17.51 6.97 8.503-8.719-19.828-7.895-15.09-5.997-8.494 8.718 17.399 6.923z" transform="translate(-117 -289) translate(117 289)"/>
                <path fill="#231F20" d="M48.999 90c-.976.006-1.943-.156-2.853-.478C44.205 88.818 43 87.462 43 86c0-2.204 2.69-4 5.999-4 .976-.008 1.945.154 2.855.478C53.793 83.176 55 84.525 55 86c-.009 2.206-2.694 4-6.001 4zm0-7.845c-3.214 0-5.83 1.726-5.83 3.845 0 1.405 1.165 2.698 3.038 3.38.89.313 1.838.471 2.792.465 3.21 0 5.822-1.724 5.822-3.845 0-1.41-1.164-2.704-3.04-3.378-.886-.315-1.83-.474-2.782-.467zM64.506 93C63.126 93 62 92.1 62 91s1.123-2 2.506-2c1.383 0 2.494.897 2.494 2s-1.118 2-2.494 2zm0-3.817c-1.286 0-2.333.812-2.333 1.81 0 .997 1.047 1.82 2.333 1.82 1.286 0 2.321-.816 2.321-1.82 0-1.005-1.042-1.81-2.321-1.81zM35.5 83c-1.382 0-2.5-.897-2.5-2s1.122-2 2.5-2 2.5.903 2.5 2-1.122 2-2.5 2zm0-3.82c-1.283 0-2.327.817-2.327 1.82 0 1.002 1.044 1.813 2.327 1.813S37.827 82 37.827 81s-1.044-1.82-2.327-1.82z" transform="translate(-117 -289) translate(117 289)"/>
                <path fill="#12CA70" d="M77 87.552L64.118 101 23 84.445 35.89 71 77 87.552zM63.604 98.974l10.419-10.802-37.57-15.11-10.431 10.784 37.582 15.128z" transform="translate(-117 -289) translate(117 289)"/>
                <path fill="#12CA70" d="M75 87.578L64.362 98 26 83.394 36.65 73 75 87.578zm-11.339 8.859l8.727-8.565-20.174-7.68-15.312-5.824-8.72 8.566 17.717 6.743 17.762 6.76z" transform="translate(-117 -289) translate(117 289)"/>
                <path fill="#12CA70" d="M72 88.554L63.434 97 46 90.334l.452-1.152c.847.326 1.75.49 2.659.483 3.073 0 5.568-1.8 5.568-4.012 0-1.534-1.179-2.86-2.915-3.536L52.19 81 72 88.554zm-5.282 2.712c0-.887-1-1.61-2.231-1.61-1.232 0-2.244.723-2.244 1.61 0 .886 1 1.615 2.24 1.615 1.24 0 2.235-.722 2.235-1.615z" transform="translate(-117 -289) translate(117 289)"/>
                <path fill="#12CA70" d="M64.507 89c1.376 0 2.493.895 2.493 1.993 0 1.1-1.117 2.007-2.493 2.007S62 92.1 62 90.993C62 89.887 63.121 89 64.507 89zM51.861 82.492c1.87.672 3.139 1.99 3.139 3.517 0 2.208-2.687 3.99-5.995 3.99-.98.008-1.951-.156-2.864-.48-1.87-.683-3.141-2-3.141-3.518 0-2.216 2.687-4 6.005-4 .977-.005 1.947.161 2.856.49z" transform="translate(-117 -289) translate(117 289)"/>
                <path fill="#12CA70" d="M52 79.715l-.434 1.11c-.86-.325-1.776-.49-2.7-.482-3.136 0-5.676 1.783-5.676 3.997 0 1.517 1.202 2.832 2.97 3.514L45.7 89 28 82.393 36.712 74 52 79.715zm-13.416.015c0-.89-1.017-1.607-2.271-1.607s-2.284.718-2.284 1.607c0 .89 1.017 1.597 2.273 1.597 1.256 0 2.282-.718 2.282-1.597z" transform="translate(-117 -289) translate(117 289)"/>
                <path fill="#12CA70" d="M35.504 79c1.378 0 2.496.896 2.496 2.007C38 82.117 36.882 83 35.504 83 34.125 83 33 82.115 33 81.017S34.123 79 35.504 79z" transform="translate(-117 -289) translate(117 289)"/>
                <path fill="#231F20" d="M63.822 101l-.05-.02L22 84.488 35.184 71l.05.02L77 87.512l-.088.09L63.822 101zM22.289 84.424l41.492 16.382 12.926-13.23-41.484-16.384L22.29 84.424z" transform="translate(-117 -289) translate(117 289)"/>
                <path fill="#231F20" d="M64.302 98l-.047-.02L26 83.447 36.713 73l.047.02L75 87.536 64.302 98zm-38.01-14.614l37.982 14.427L74.72 87.597 36.752 73.185l-10.46 10.201z" transform="translate(-117 -289) translate(117 289)"/>
                <path fill="#231F20" d="M63.246 96l-.05-.02L28 81.973 36.754 73l.05.018 15.136 6.021L72 87.025 63.246 96zm-17.549-7.162l17.51 6.965 8.503-8.718-19.828-7.886-15.09-6-8.494 8.719 17.399 6.92z" transform="translate(-117 -289) translate(117 289)"/>
                <path fill="#231F20" d="M48.999 90c-.975.005-1.943-.157-2.853-.478C44.205 88.818 43 87.462 43 86c0-2.206 2.69-4 5.999-4 .976-.008 1.945.154 2.855.478C53.793 83.174 55 84.523 55 86c-.009 2.206-2.694 4-6.001 4zm0-7.845c-3.214 0-5.83 1.724-5.83 3.845 0 1.403 1.165 2.698 3.038 3.378.89.314 1.837.473 2.792.467 3.21 0 5.822-1.726 5.822-3.845 0-1.41-1.164-2.706-3.04-3.38-.886-.315-1.83-.473-2.782-.465zM64.506 93C63.126 93 62 92.097 62 91s1.123-2 2.506-2c1.383 0 2.494.895 2.494 2s-1.118 2-2.494 2zm0-3.817c-1.286 0-2.333.81-2.333 1.81s1.047 1.82 2.333 1.82c1.286 0 2.321-.818 2.321-1.82 0-1.003-1.042-1.81-2.321-1.81zM35.5 83c-1.382 0-2.5-.897-2.5-2s1.122-2 2.5-2 2.5.9 2.5 2-1.122 2-2.5 2zm0-3.817c-1.283 0-2.327.814-2.327 1.82 0 1.004 1.044 1.81 2.327 1.81s2.327-.813 2.327-1.81c0-.998-1.044-1.82-2.327-1.82z" transform="translate(-117 -289) translate(117 289)"/>
                <path fill="#12CA70" d="M77 86.555L64.118 100 23 83.448 35.89 70 77 86.555zM63.604 97.974l10.419-10.802-37.57-15.121-10.431 10.786 37.582 15.137z" transform="translate(-117 -289) translate(117 289)"/>
                <path fill="#12CA70" d="M75 86.583L64.363 97 26 82.402 36.65 72 75 86.583zm-11.338 8.855l8.726-8.562L52.215 79.2l-15.31-5.82-8.721 8.562L45.9 88.685l17.762 6.752z" transform="translate(-117 -289) translate(117 289)"/>
                <path fill="#12CA70" d="M72 86.554L63.434 95 46 88.337l.452-1.155c.847.326 1.75.49 2.659.483 3.073 0 5.568-1.8 5.568-4.012 0-1.534-1.179-2.858-2.915-3.536L52.19 79 72 86.554zm-5.282 2.712c0-.887-1-1.61-2.231-1.61-1.232 0-2.244.716-2.244 1.61 0 .893 1 1.615 2.24 1.615 1.24 0 2.235-.722 2.235-1.615z" transform="translate(-117 -289) translate(117 289)"/>
                <path fill="#12CA70" d="M64.507 88c1.376 0 2.493.896 2.493 1.996S65.883 92 64.507 92 62 91.104 62 89.996 63.121 88 64.507 88zM51.861 80.482C53.738 81.15 55 82.475 55 84.004 55 86.214 52.313 88 49.005 88c-.98.007-1.951-.157-2.864-.482-1.87-.681-3.141-2.002-3.141-3.522C43 81.779 45.687 80 49.005 80c.976-.007 1.946.157 2.856.482z" transform="translate(-117 -289) translate(117 289)"/>
                <path fill="#12CA70" d="M52 79.723l-.434 1.11c-.86-.324-1.777-.487-2.7-.48-3.136 0-5.676 1.783-5.676 3.985 0 1.517 1.202 2.835 2.97 3.514L45.7 89 28 82.392 36.712 74 52 79.723zm-13.416.015c0-.888-1.017-1.605-2.271-1.605s-2.284.717-2.284 1.605c0 .887 1.017 1.598 2.273 1.598 1.256 0 2.282-.717 2.282-1.598z" transform="translate(-117 -289) translate(117 289)"/>
                <path fill="#12CA70" d="M35.504 78c1.378 0 2.496.896 2.496 2.004S36.882 82 35.504 82C34.125 82 33 81.091 33 79.99c0-1.1 1.123-1.99 2.504-1.99z" transform="translate(-117 -289) translate(117 289)"/>
                <path fill="#231F20" d="M63.822 100l-.05-.02L22 83.488 35.184 70l.05.02L77 86.512l-.088.09L63.822 100zM22.289 83.424L63.78 99.808l12.926-13.23-41.482-16.384-12.936 13.23z" transform="translate(-117 -289) translate(117 289)"/>
                <path fill="#231F20" d="M64.302 97l-.047-.02L26 82.449 36.713 72l.047.02L75 86.536 64.302 97zm-38.01-14.614l37.982 14.427L74.72 86.597l-37.967-14.41-10.46 10.2z" transform="translate(-117 -289) translate(117 289)"/>
                <path fill="#231F20" d="M63.246 95l-.05-.02L28 80.975 36.745 72l.05.02 15.145 6.02L72 86.024 63.246 95zm-17.549-7.162l17.51 6.967 8.503-8.716-19.828-7.895-15.09-6-8.494 8.717 17.399 6.927z" transform="translate(-117 -289) translate(117 289)"/>
                <path fill="#231F20" d="M48.999 88c-.976.006-1.943-.156-2.853-.478C44.205 86.818 43 85.462 43 84c0-2.206 2.69-4 5.999-4 .976-.01 1.945.152 2.855.476 1.939.696 3.146 2.045 3.146 3.522C54.991 86.204 52.306 88 48.999 88zm0-7.845c-3.214 0-5.83 1.726-5.83 3.845 0 1.403 1.165 2.698 3.038 3.378.89.315 1.837.473 2.792.467 3.21 0 5.822-1.726 5.822-3.845 0-1.41-1.164-2.706-3.04-3.378-.886-.317-1.83-.477-2.782-.47v.003zM64.506 92C63.126 92 62 91.1 62 90s1.123-2 2.506-2c1.383 0 2.494.895 2.494 2s-1.118 2-2.494 2zm0-3.817c-1.286 0-2.333.812-2.333 1.81 0 .997 1.047 1.82 2.333 1.82 1.286 0 2.321-.818 2.321-1.82 0-1.003-1.042-1.808-2.321-1.808v-.002zM35.5 82c-1.382 0-2.5-.895-2.5-2s1.122-2 2.5-2 2.5.9 2.5 2-1.122 2-2.5 2zm0-3.817c-1.283 0-2.327.817-2.327 1.82 0 1.002 1.044 1.81 2.327 1.81s2.327-.813 2.327-1.81c0-.998-1.044-1.82-2.327-1.82z" transform="translate(-117 -289) translate(117 289)"/>
                <path fill="#12CA70" d="M77 84.553L64.118 98 23 81.447 35.89 68 77 84.553zM63.604 95.972l10.419-10.8-37.57-15.121-10.431 10.785 37.582 15.136z" transform="translate(-117 -289) translate(117 289)"/>
                <path fill="#12CA70" d="M75 85.585L64.363 96 26 81.402 36.65 71 75 85.585zm-11.338 8.853l8.726-8.551-20.173-7.678-15.31-5.82-8.721 8.562L45.9 87.69l17.762 6.746z" transform="translate(-117 -289) translate(117 289)"/>
                <path fill="#12CA70" d="M72 85.564L63.434 94 46 87.336l.452-1.155c.847.328 1.75.492 2.659.485 3.073 0 5.568-1.803 5.568-4.012 0-1.533-1.179-2.86-2.915-3.537L52.19 78 72 85.564zm-5.282 2.71c0-.886-1-1.608-2.231-1.608-1.232 0-2.244.722-2.244 1.607s1 1.618 2.24 1.618c1.24 0 2.235-.722 2.235-1.618z" transform="translate(-117 -289) translate(117 289)"/>
                <path fill="#12CA70" d="M64.507 87c1.376 0 2.493.896 2.493 1.993C67 90.091 65.883 91 64.507 91S62 90.104 62 88.993C62 87.883 63.121 87 64.507 87zM51.861 79.484c1.87.675 3.139 1.995 3.139 3.521C55 85.215 52.313 87 49.005 87c-.98.007-1.952-.157-2.864-.484-1.87-.68-3.141-2.001-3.141-3.521C43 80.779 45.687 79 49.005 79c.977-.006 1.946.158 2.856.484z" transform="translate(-117 -289) translate(117 289)"/>
                <path fill="#12CA70" d="M52 77.717l-.434 1.11c-.86-.324-1.776-.487-2.699-.48-3.135 0-5.674 1.784-5.674 3.988 0 1.518 1.202 2.836 2.969 3.517L45.702 87 28 80.397 36.709 72 52 77.717zm-13.411.014c0-.888-1.017-1.606-2.27-1.606-1.253 0-2.283.718-2.283 1.606 0 .888 1.017 1.6 2.272 1.6s2.28-.718 2.28-1.6z" transform="translate(-117 -289) translate(117 289)"/>
                <path fill="#12CA70" d="M35.504 76c1.378 0 2.496.896 2.496 2.004S36.882 80 35.504 80C34.125 80 33 79.104 33 78.004S34.123 76 35.504 76z" transform="translate(-117 -289) translate(117 289)"/>
                <path fill="#231F20" d="M63.822 98l-.05-.018L22 81.488 35.184 68l.05.02L77 84.523l-.088.09L63.822 98zM22.289 81.436L63.78 97.817l12.926-13.23-41.482-16.382-12.936 13.23z" transform="translate(-117 -289) translate(117 289)"/>
                <path fill="#231F20" d="M64.302 96l-.047-.02L26 81.448 36.713 71l.047.02L75 85.537 64.302 96zm-38.01-14.613l37.982 14.426L74.71 85.591 36.752 71.187l-10.46 10.2z" transform="translate(-117 -289) translate(117 289)"/>
                <path fill="#231F20" d="M63.246 94l-.05-.02L28 79.975 36.745 71l.05.02 15.145 6.02L72 85.026 63.246 94zm-17.549-7.162l17.51 6.97 8.503-8.719-19.828-7.895-15.09-6-8.494 8.72 17.399 6.924z" transform="translate(-117 -289) translate(117 289)"/>
                <path fill="#231F20" d="M48.999 87c-.976.006-1.943-.156-2.853-.478C44.205 85.818 43 84.462 43 83c0-2.206 2.69-4 5.999-4 .976-.008 1.945.154 2.855.478C53.793 80.176 55 81.525 55 83c-.009 2.206-2.694 4-6.001 4zm0-7.845c-3.214 0-5.83 1.726-5.83 3.845 0 1.405 1.165 2.698 3.038 3.38.89.313 1.838.471 2.792.465 3.21 0 5.822-1.724 5.822-3.845 0-1.41-1.164-2.704-3.04-3.378-.886-.316-1.83-.474-2.782-.467zM64.506 91C63.126 91 62 90.1 62 89s1.123-2 2.506-2c1.383 0 2.494.897 2.494 2s-1.118 2-2.494 2zm0-3.817c-1.286 0-2.333.812-2.333 1.81 0 .997 1.047 1.82 2.333 1.82 1.286 0 2.321-.816 2.321-1.82 0-1.005-1.042-1.81-2.321-1.81zM35.5 80c-1.382 0-2.5-.895-2.5-2s1.122-2 2.5-2 2.5.903 2.5 2-1.122 2-2.5 2zm0-3.817c-1.283 0-2.327.817-2.327 1.82 0 1.002 1.044 1.81 2.327 1.81s2.327-.81 2.327-1.81-1.044-1.82-2.327-1.82z" transform="translate(-117 -289) translate(117 289)"/>
                <path fill="#12CA70" d="M77 84.552L64.118 98 23 81.445 35.89 68 77 84.552zM63.604 95.974l10.419-10.802-37.57-15.123-10.431 10.786 37.582 15.139z" transform="translate(-117 -289) translate(117 289)"/>
                <path fill="#12CA70" d="M75 84.584L64.362 95 26 80.402 36.65 70 75 84.584zm-11.339 8.854l8.727-8.561L52.214 77.2l-15.312-5.82-8.72 8.561 17.717 6.74 17.762 6.757z" transform="translate(-117 -289) translate(117 289)"/>
                <path fill="#12CA70" d="M72 84.556L63.434 93 46 86.335l.452-1.152c.847.326 1.75.49 2.659.483 3.073 0 5.568-1.803 5.568-4.011 0-1.535-1.179-2.86-2.915-3.538L52.19 77 72 84.556zm-5.282 2.702c0-.887-1-1.609-2.231-1.609-1.232 0-2.244.73-2.244 1.609 0 .878 1 1.615 2.24 1.615 1.24 0 2.235-.714 2.235-1.615z" transform="translate(-117 -289) translate(117 289)"/>
                <path fill="#12CA70" d="M64.507 86c1.376 0 2.493.896 2.493 1.996S65.883 90 64.507 90 62 89.104 62 87.986C62 86.867 63.121 86 64.507 86zM51.861 77.49c1.87.674 3.139 1.993 3.139 3.52 0 2.205-2.687 3.99-5.995 3.99-.98.007-1.951-.157-2.864-.481-1.87-.683-3.141-2-3.141-3.518C43 78.785 45.687 77 49.005 77c.977-.004 1.946.162 2.856.49z" transform="translate(-117 -289) translate(117 289)"/>
                <path fill="#12CA70" d="M52 76.713l-.434 1.11c-.86-.324-1.776-.487-2.699-.48-3.135 0-5.674 1.783-5.674 3.997 0 1.517 1.202 2.832 2.969 3.514L45.702 86 28 79.393 36.709 71 52 76.713zm-13.411.015c0-.887-1.017-1.605-2.27-1.605-1.253 0-2.283.718-2.283 1.605 0 .888 1.02 1.595 2.276 1.595 1.255 0 2.277-.714 2.277-1.595z" transform="translate(-117 -289) translate(117 289)"/>
                <path fill="#12CA70" d="M35.504 75c1.378 0 2.496.897 2.496 2.007S36.882 79 35.504 79C34.125 79 33 78.108 33 77.007 33 75.905 34.123 75 35.504 75z" transform="translate(-117 -289) translate(117 289)"/>
                <path fill="#231F20" d="M63.822 98l-.05-.02L22 81.482 35.184 68l.05.02L77 84.518l-.088.09L63.822 98zM22.289 81.425L63.78 97.813l12.926-13.236-41.484-16.39L22.29 81.425z" transform="translate(-117 -289) translate(117 289)"/>
                <path fill="#231F20" d="M64.302 95l-.047-.017L26 80.447 36.713 70l.047.017L75 84.539 64.302 95zm-38.01-14.613l37.982 14.428L74.72 84.598 36.752 70.185l-10.46 10.202z" transform="translate(-117 -289) translate(117 289)"/>
                <path fill="#231F20" d="M63.246 93l-.05-.018L28 78.974 36.745 70l.05.018 15.145 6.024L72 84.031 63.246 93zm-17.549-7.163l17.51 6.97 8.503-8.719-19.828-7.895-15.09-6-8.494 8.728 17.399 6.916z" transform="translate(-117 -289) translate(117 289)"/>
                <path fill="#231F20" d="M48.999 85c-.975.006-1.943-.156-2.853-.476-1.941-.705-3.146-2.06-3.146-3.523 0-2.206 2.69-4 5.999-4 .976-.01 1.945.153 2.855.477 1.939.697 3.146 2.046 3.146 3.523C54.991 83.205 52.306 85 48.999 85zm0-7.845c-3.214 0-5.83 1.724-5.83 3.846 0 1.403 1.165 2.699 3.038 3.379.891.31 1.838.466 2.792.457 3.21 0 5.822-1.724 5.822-3.844 0-1.411-1.164-2.707-3.04-3.38-.887-.313-1.831-.468-2.782-.458zM64.506 90C63.126 90 62 89.1 62 88s1.123-2 2.506-2c1.383 0 2.494.897 2.494 2s-1.118 2-2.494 2zm0-3.817c-1.286 0-2.333.812-2.333 1.812s1.047 1.817 2.333 1.817c1.286 0 2.321-.814 2.321-1.817 0-1.002-1.042-1.813-2.321-1.813zM35.5 79c-1.382 0-2.5-.897-2.5-2s1.122-2 2.5-2 2.5.9 2.5 2-1.122 2-2.5 2zm0-3.817c-1.283 0-2.327.814-2.327 1.817 0 1.002 1.044 1.813 2.327 1.813S37.827 78 37.827 77s-1.044-1.817-2.327-1.817z" transform="translate(-117 -289) translate(117 289)"/>
                <path fill="#12CA70" d="M63 106.553L50.121 120 9 103.447 21.892 90 63 106.553zm-13.398 11.42l10.42-10.8-37.567-15.114-10.433 10.786 37.58 15.129z" transform="translate(-117 -289) translate(117 289)"/>
                <path fill="#12CA70" d="M60 107.58L49.362 118 11 103.397 21.65 93 60 107.58zm-11.337 8.857l8.728-8.564-20.186-7.67-15.311-5.822-8.72 8.564 17.736 6.733 17.753 6.76z" transform="translate(-117 -289) translate(117 289)"/>
                <path fill="#12CA70" d="M57 108.565L48.433 117 31 110.334l.45-1.152c.848.326 1.751.49 2.661.483 3.074 0 5.57-1.8 5.57-4.017 0-1.531-1.181-2.855-2.916-3.532L37.19 101 57 108.565zm-5.283 2.707c0-.885-1-1.607-2.234-1.607-1.233 0-2.24.722-2.24 1.607 0 .886.994 1.614 2.234 1.614s2.233-.722 2.233-1.614h.007z" transform="translate(-117 -289) translate(117 289)"/>
                <path fill="#12CA70" d="M49.504 108c1.379 0 2.496.896 2.496 1.996S50.883 112 49.504 112c-1.38 0-2.504-.896-2.504-2.004S48.117 108 49.504 108zM37.861 101.473c1.868.675 3.139 1.996 3.139 3.522 0 2.21-2.687 4.005-5.995 4.005-.98.007-1.953-.157-2.866-.482-1.868-.683-3.139-2.003-3.139-3.523 0-2.216 2.687-3.995 6.005-3.995.976-.009 1.945.152 2.856.473z" transform="translate(-117 -289) translate(117 289)"/>
                <path fill="#12CA70" d="M38 99.713l-.434 1.11c-.86-.324-1.778-.487-2.701-.48-3.138 0-5.679 1.783-5.679 3.986 0 1.517 1.202 2.835 2.969 3.517L31.708 109 14 102.393 22.716 94 38 99.713zm-13.429.015c0-.887-1.017-1.605-2.272-1.605-1.254 0-2.274.718-2.274 1.605 0 .888 1.018 1.599 2.274 1.599 1.257 0 2.28-.718 2.28-1.599h-.008z" transform="translate(-117 -289) translate(117 289)"/>
                <path fill="#12CA70" d="M21.501 98c1.38 0 2.499.896 2.499 2.004S22.88 102 21.501 102c-1.38 0-2.501-.896-2.501-1.996S20.12 98 21.501 98z" transform="translate(-117 -289) translate(117 289)"/>
                <path fill="#231F20" d="M49.824 120l-.05-.02L8 103.486 21.185 90l.05.018L63 106.512l-.086.09L49.824 120zM8.289 103.424l41.494 16.382 12.926-13.23-41.485-16.384-12.935 13.232z" transform="translate(-117 -289) translate(117 289)"/>
                <path fill="#231F20" d="M49.302 118l-.047-.017L11 103.447 21.71 93l.05.017L60 107.547 49.302 118zm-38.004-14.613l37.983 14.428 10.445-10.217-37.974-14.413-10.454 10.202z" transform="translate(-117 -289) translate(117 289)"/>
                <path fill="#231F20" d="M49.248 118l-.05-.02L14 103.976 22.754 95l.048.02 15.14 6.019L58 109.026 49.248 118zm-17.552-7.161l17.51 6.962 8.504-8.718-19.827-7.885-15.09-5.999-8.499 8.715 17.402 6.925z" transform="translate(-117 -289) translate(117 289)"/>
                <path fill="#231F20" d="M35.005 109c-.977.006-1.946-.156-2.857-.478-1.94-.705-3.148-2.06-3.148-3.523 0-2.204 2.694-3.999 6.005-3.999.973-.007 1.94.155 2.847.476 1.94.699 3.148 2.048 3.148 3.523 0 2.206-2.691 4-5.995 4zm0-7.845c-3.216 0-5.835 1.724-5.835 3.844 0 1.405 1.167 2.699 3.041 3.38.891.314 1.839.472 2.794.466 3.211 0 5.825-1.724 5.825-3.846 0-1.411-1.167-2.705-3.041-3.379-.887-.316-1.832-.476-2.784-.47v.005zM49.503 112c-1.38 0-2.503-.9-2.503-2s1.123-2 2.503-2c1.381 0 2.497.897 2.497 2s-1.118 2-2.497 2zm0-3.817c-1.283 0-2.33.812-2.33 1.812s1.047 1.817 2.33 1.817c1.284 0 2.324-.814 2.324-1.817 0-1.002-1.042-1.813-2.324-1.813zM21.5 102c-1.382 0-2.5-.897-2.5-2s1.12-2 2.5-2 2.5.9 2.5 2-1.122 2-2.5 2zm0-3.817c-1.283 0-2.327.814-2.327 1.817 0 1.002 1.044 1.813 2.327 1.813S23.827 101 23.827 100s-1.044-1.817-2.327-1.817z" transform="translate(-117 -289) translate(117 289)"/>
                <path fill="#12CA70" d="M63 106.552L50.121 120 9 103.445 21.892 90 63 106.552zm-13.398 11.422l10.42-10.802L22.456 92.05l-10.433 10.784 37.58 15.139z" transform="translate(-117 -289) translate(117 289)"/>
                <path fill="#12CA70" d="M60 107.583L49.362 118 11 103.4 21.65 93 60 107.583zm-11.337 8.855l8.728-8.562-20.186-7.667-15.311-5.82-8.72 8.551 17.736 6.74 17.753 6.757z" transform="translate(-117 -289) translate(117 289)"/>
                <path fill="#12CA70" d="M57 107.559L48.433 116 31 109.33l.45-1.153c.848.326 1.751.49 2.661.484 3.074 0 5.57-1.8 5.57-4.01 0-1.534-1.181-2.86-2.916-3.535L37.19 100 57 107.559zm-5.283 2.71c0-.887-1-1.608-2.234-1.608-1.233 0-2.24.721-2.24 1.608 0 .886 1 1.614 2.24 1.614 1.24 0 2.227-.722 2.227-1.614h.007z" transform="translate(-117 -289) translate(117 289)"/>
                <path fill="#12CA70" d="M49.504 108c1.379 0 2.496.896 2.496 1.996S50.883 112 49.504 112c-1.38 0-2.504-.896-2.504-2.004S48.117 108 49.504 108zM37.861 101.492c1.868.672 3.139 1.99 3.139 3.517 0 2.208-2.687 3.99-5.995 3.99-.98.008-1.953-.156-2.866-.48-1.868-.683-3.139-2-3.139-3.518 0-2.216 2.687-4.001 6.005-4.001.977-.004 1.947.163 2.856.492z" transform="translate(-117 -289) translate(117 289)"/>
                <path fill="#12CA70" d="M38 98.709l-.434 1.11c-.86-.325-1.777-.49-2.701-.482-3.138 0-5.679 1.785-5.679 4 0 1.518 1.202 2.834 2.969 3.517L31.708 108 14 101.388 22.716 93 38 98.709zm-13.429.015c0-.89-1.017-1.609-2.272-1.609-1.254 0-2.274.718-2.274 1.609 0 .89 1.018 1.598 2.274 1.598 1.257 0 2.28-.719 2.28-1.598h-.008z" transform="translate(-117 -289) translate(117 289)"/>
                <path fill="#12CA70" d="M21.501 98c1.38 0 2.499.896 2.499 2.007 0 1.11-1.12 1.993-2.499 1.993-1.38 0-2.501-.896-2.501-1.993C19 98.909 20.12 98 21.501 98z" transform="translate(-117 -289) translate(117 289)"/>
                <path fill="#231F20" d="M49.824 120l-.05-.02L8 103.488 21.185 90l.05.02L63 106.512l-.086.09L49.824 120zM8.289 103.424l41.494 16.382 12.926-13.23-41.487-16.384-12.933 13.232z" transform="translate(-117 -289) translate(117 289)"/>
                <path fill="#231F20" d="M49.302 118l-.047-.02L11 103.447 21.71 93l.05.02L60 107.536 49.302 118zm-38.004-14.614l37.983 14.427 10.445-10.216-37.974-14.412-10.454 10.201z" transform="translate(-117 -289) translate(117 289)"/>
                <path fill="#231F20" d="M49.255 116l-.05-.02L14 101.973 22.748 93l.047.02 15.142 6.02L58 107.024 49.255 116zm-17.556-7.162l17.515 6.967 8.505-8.718-19.831-7.893-15.093-6.001-8.5 8.718 17.404 6.927z" transform="translate(-117 -289) translate(117 289)"/>
                <path fill="#231F20" d="M35.005 109c-.977.005-1.946-.157-2.857-.478-1.94-.704-3.148-2.06-3.148-3.522 0-2.206 2.694-4 6.005-4 .973-.007 1.94.155 2.847.478 1.94.696 3.148 2.045 3.148 3.522 0 2.206-2.691 4-5.995 4zm0-7.845c-3.216 0-5.835 1.724-5.835 3.845 0 1.403 1.167 2.698 3.041 3.378.891.314 1.839.473 2.794.467 3.211 0 5.825-1.726 5.825-3.845 0-1.41-1.167-2.706-3.041-3.38-.888-.314-1.833-.472-2.784-.463v-.002zM49.503 112c-1.38 0-2.503-.903-2.503-2s1.123-2 2.503-2c1.381 0 2.497.895 2.497 2s-1.118 2-2.497 2zm0-3.817c-1.283 0-2.33.81-2.33 1.81s1.047 1.82 2.33 1.82c1.284 0 2.324-.818 2.324-1.82 0-1.003-1.042-1.813-2.324-1.813v.002zM21.5 102c-1.382 0-2.5-.897-2.5-2s1.12-2 2.5-2 2.5.9 2.5 2-1.122 2-2.5 2zm0-3.817c-1.283 0-2.327.814-2.327 1.82 0 1.004 1.044 1.81 2.327 1.81s2.327-.813 2.327-1.81c0-.998-1.044-1.82-2.327-1.82z" transform="translate(-117 -289) translate(117 289)"/>
                <path fill="#12CA70" d="M63 106.553L50.115 120 9 103.447 21.892 90 63 106.553zm-13.398 11.419l10.42-10.802-37.567-15.12-10.433 10.786 37.58 15.136z" transform="translate(-117 -289) translate(117 289)"/>
                <path fill="#12CA70" d="M60 106.583L49.363 117 11 102.402 21.65 92 60 106.583zm-11.336 8.855l8.727-8.562-20.185-7.667-15.31-5.82-8.72 8.562 17.735 6.731 17.753 6.755z" transform="translate(-117 -289) translate(117 289)"/>
                <path fill="#12CA70" d="M57 106.559L48.433 115 31 108.332l.45-1.155c.848.326 1.751.49 2.661.484 3.074 0 5.57-1.8 5.57-4.01 0-1.534-1.181-2.857-2.916-3.535L37.19 99 57 106.559zm-5.283 2.71c0-.887-1-1.608-2.234-1.608-1.233 0-2.24.721-2.24 1.608 0 .886 1 1.614 2.24 1.614 1.24 0 2.227-.722 2.227-1.614h.007z" transform="translate(-117 -289) translate(117 289)"/>
                <path fill="#12CA70" d="M49.504 107c1.379 0 2.496.896 2.496 1.996S50.883 111 49.504 111c-1.38 0-2.504-.896-2.504-2.004S48.117 107 49.504 107zM37.861 99.482c1.868.675 3.139 1.993 3.139 3.522 0 2.21-2.687 3.996-5.995 3.996-.98.007-1.953-.157-2.866-.482-1.868-.681-3.139-2.002-3.139-3.522C29 100.779 31.687 99 35.005 99c.976-.006 1.946.157 2.856.482z" transform="translate(-117 -289) translate(117 289)"/>
                <path fill="#12CA70" d="M38 98.715l-.434 1.11c-.86-.324-1.778-.487-2.701-.48-3.138 0-5.679 1.782-5.679 3.985 0 1.517 1.202 2.834 2.969 3.514L31.708 108 14 101.392 22.716 93 38 98.715zm-13.429.014c0-.887-1.017-1.605-2.272-1.605-1.254 0-2.274.718-2.274 1.605 0 .888 1.018 1.599 2.274 1.599 1.257 0 2.28-.718 2.28-1.599h-.008z" transform="translate(-117 -289) translate(117 289)"/>
                <path fill="#12CA70" d="M21.501 97c1.38 0 2.499.896 2.499 2.004S22.88 101 21.501 101c-1.38 0-2.501-.896-2.501-1.996S20.12 97 21.501 97z" transform="translate(-117 -289) translate(117 289)"/>
                <path fill="#231F20" d="M49.824 120l-.05-.02L8 103.488 21.185 90l.05.02L63 106.518l-.086.09L49.824 120zM8.289 103.431l41.494 16.384 12.926-13.23L21.224 90.2 8.289 103.43z" transform="translate(-117 -289) translate(117 289)"/>
                <path fill="#231F20" d="M49.302 117l-.047-.02L11 102.45 21.71 92l.05.02L60 106.538 49.302 117zm-38.004-14.613l37.983 14.428 10.428-10.225-37.957-14.403-10.454 10.2z" transform="translate(-117 -289) translate(117 289)"/>
                <path fill="#231F20" d="M49.246 115l-.05-.02-17.563-6.987L14 100.975 22.748 92l.047.02 15.142 6.02L58 106.024 49.246 115zm-17.555-7.162l17.514 6.967 8.505-8.716-19.83-7.895-15.094-6-8.5 8.717 17.405 6.927z" transform="translate(-117 -289) translate(117 289)"/>
                <path fill="#231F20" d="M35.005 107c-.977.006-1.946-.156-2.857-.478-1.94-.704-3.148-2.06-3.148-3.522 0-2.206 2.694-4 6.005-4 .973-.007 1.94.155 2.847.478 1.94.696 3.148 2.047 3.148 3.522 0 2.206-2.691 4-5.995 4zm0-7.845c-3.216 0-5.835 1.726-5.835 3.845 0 1.403 1.167 2.698 3.041 3.378.89.315 1.838.473 2.794.467 3.211 0 5.825-1.726 5.825-3.845 0-1.41-1.167-2.706-3.041-3.378-.887-.317-1.832-.475-2.784-.467zM49.503 111c-1.38 0-2.503-.9-2.503-2s1.123-2 2.503-2c1.381 0 2.497.895 2.497 2s-1.118 2-2.497 2zm0-3.817c-1.283 0-2.33.812-2.33 1.81 0 .997 1.047 1.82 2.33 1.82 1.284 0 2.324-.818 2.324-1.82 0-1.003-1.042-1.81-2.324-1.81zM21.5 101c-1.382 0-2.5-.895-2.5-2s1.12-2 2.5-2 2.5.9 2.5 2-1.122 2-2.5 2zm0-3.817c-1.283 0-2.327.817-2.327 1.82 0 1.002 1.044 1.81 2.327 1.81s2.327-.813 2.327-1.81c0-.998-1.044-1.82-2.327-1.82z" transform="translate(-117 -289) translate(117 289)"/>
                <path fill="#12CA70" d="M63 104.553L50.115 118 9 101.447 21.892 88 63 104.553zm-13.398 11.419l10.42-10.8-37.567-15.117-10.433 10.786 37.58 15.13z" transform="translate(-117 -289) translate(117 289)"/>
                <path fill="#12CA70" d="M60 105.585L49.363 116 11 101.402 21.65 91 60 105.585zm-11.336 8.853l8.731-8.551-20.189-7.678-15.31-5.82-8.72 8.562 17.735 6.731 17.753 6.755z" transform="translate(-117 -289) translate(117 289)"/>
                <path fill="#12CA70" d="M57 105.57L48.433 114 31 107.34l.45-1.154c.848.327 1.751.492 2.661.485 3.074 0 5.57-1.802 5.57-4.02 0-1.532-1.181-2.857-2.916-3.535L37.19 98 57 105.57zm-5.283 2.707c0-.884-1-1.606-2.234-1.606-1.233 0-2.24.722-2.24 1.606 0 .884 1 1.616 2.24 1.616 1.24 0 2.227-.721 2.227-1.616h.007z" transform="translate(-117 -289) translate(117 289)"/>
                <path fill="#12CA70" d="M49.504 107c1.379 0 2.496.896 2.496 1.993 0 1.098-1.117 2.007-2.496 2.007-1.38 0-2.504-.896-2.504-2.007 0-1.11 1.117-1.993 2.504-1.993zM37.861 98.473c1.868.675 3.139 1.996 3.139 3.522 0 2.21-2.687 4.005-5.995 4.005-.98.007-1.953-.157-2.866-.484-1.868-.68-3.139-2.001-3.139-3.521C29 99.779 31.687 98 35.005 98c.976-.009 1.945.152 2.856.473z" transform="translate(-117 -289) translate(117 289)"/>
                <path fill="#12CA70" d="M38 98.713l-.434 1.11c-.86-.324-1.778-.487-2.701-.48-3.138 0-5.679 1.783-5.679 3.986 0 1.517 1.202 2.835 2.969 3.515L31.708 108 14 101.393 22.716 93 38 98.713zm-13.429.015c0-.887-1.017-1.605-2.272-1.605-1.254 0-2.274.718-2.274 1.605 0 .888 1.018 1.599 2.274 1.599 1.257 0 2.28-.718 2.28-1.599h-.008z" transform="translate(-117 -289) translate(117 289)"/>
                <path fill="#12CA70" d="M21.501 95c1.38 0 2.499.898 2.499 2.01 0 1.11-1.12 1.99-2.499 1.99-1.38 0-2.501-.898-2.501-2.001C19 95.896 20.12 95 21.501 95z" transform="translate(-117 -289) translate(117 289)"/>
                <path fill="#231F20" d="M49.824 118l-.05-.02L8 101.486 21.185 88l.05.018L63 104.512l-.086.09L49.824 118zM8.289 101.424l41.494 16.382 12.926-13.23-41.485-16.384-12.935 13.232z" transform="translate(-117 -289) translate(117 289)"/>
                <path fill="#231F20" d="M49.302 116l-.047-.02L11 101.449 21.71 91l.05.02L60 105.54 49.302 116zm-38.004-14.612l37.983 14.427 10.428-10.205-37.957-14.423-10.454 10.201z" transform="translate(-117 -289) translate(117 289)"/>
                <path fill="#231F20" d="M49.248 114l-.05-.02L14 99.975 22.746 91l.047.02 15.148 6.02L58 105.026 49.248 114zm-17.552-7.162l17.51 6.97 8.504-8.719-19.827-7.895-15.09-6-8.499 8.724 17.402 6.92z" transform="translate(-117 -289) translate(117 289)"/>
                <path fill="#231F20" d="M35.005 106c-.977.006-1.946-.156-2.857-.478-1.94-.704-3.148-2.06-3.148-3.522 0-2.206 2.694-4 6.005-4 .973-.007 1.94.155 2.847.478C39.792 99.176 41 100.525 41 102c0 2.206-2.691 4-5.995 4zm0-7.845c-3.216 0-5.835 1.726-5.835 3.845 0 1.405 1.167 2.698 3.041 3.38.891.313 1.839.471 2.794.465 3.211 0 5.825-1.724 5.825-3.845 0-1.41-1.167-2.704-3.041-3.378-.887-.316-1.832-.474-2.784-.467zM49.503 111c-1.38 0-2.503-.9-2.503-2s1.123-2 2.503-2c1.381 0 2.497.897 2.497 2s-1.118 2-2.497 2zm0-3.817c-1.283 0-2.33.812-2.33 1.81 0 .997 1.047 1.82 2.33 1.82 1.284 0 2.324-.816 2.324-1.82 0-1.005-1.042-1.81-2.324-1.81zM21.5 99c-1.382 0-2.5-.895-2.5-2s1.12-2 2.5-2 2.5.903 2.5 2-1.122 2-2.5 2zm0-3.817c-1.283 0-2.327.817-2.327 1.82 0 1.002 1.044 1.81 2.327 1.81s2.327-.81 2.327-1.81-1.044-1.82-2.327-1.82z" transform="translate(-117 -289) translate(117 289)"/>
                <path fill="#12CA70" d="M63 103.552L50.115 117 9 100.445 21.892 87 63 103.552zm-13.398 11.422l10.42-10.802-37.567-15.123-10.433 10.786 37.58 15.139z" transform="translate(-117 -289) translate(117 289)"/>
                <path fill="#12CA70" d="M60 104.584L49.362 115 11 100.402 21.65 90 60 104.584zm-11.337 8.854l8.728-8.561-20.186-7.669-15.311-5.819-8.72 8.56 17.736 6.732 17.753 6.757z" transform="translate(-117 -289) translate(117 289)"/>
                <path fill="#12CA70" d="M57 103.56L48.433 112 31 105.33l.45-1.152c.848.326 1.751.49 2.661.483 3.074 0 5.57-1.8 5.57-4.008 0-1.534-1.181-2.86-2.916-3.537L37.19 96 57 103.56zm-5.29 2.718c0-.886-.999-1.608-2.233-1.608s-2.24.722-2.24 1.608c0 .886 1 1.614 2.24 1.614 1.24 0 2.233-.73 2.233-1.614z" transform="translate(-117 -289) translate(117 289)"/>
                <path fill="#12CA70" d="M49.504 105c1.379 0 2.496.896 2.496 1.996S50.883 109 49.504 109c-1.38 0-2.504-.896-2.504-2.004S48.117 105 49.504 105zM37.861 97.48c1.868.675 3.139 1.995 3.139 3.524 0 2.21-2.687 3.996-5.995 3.996-.98.007-1.953-.157-2.866-.482-1.868-.683-3.139-2.002-3.139-3.522C29 98.777 31.687 97 35.005 97c.976-.007 1.946.156 2.856.48z" transform="translate(-117 -289) translate(117 289)"/>
                <path fill="#12CA70" d="M38 97.716l-.434 1.11c-.86-.324-1.777-.487-2.7-.48-3.136 0-5.676 1.782-5.676 3.985 0 1.516 1.202 2.831 2.967 3.513L31.71 107 14 100.39 22.712 92 38 97.716zm-13.423.015c0-.888-1.017-1.605-2.27-1.605-1.254 0-2.273.717-2.273 1.605 0 .887 1.017 1.598 2.273 1.598 1.255 0 2.279-.717 2.279-1.598h-.009z" transform="translate(-117 -289) translate(117 289)"/>
                <path fill="#12CA70" d="M21.501 94c1.38 0 2.499.896 2.499 2.004S22.88 98 21.501 98C20.121 98 19 97.104 19 96.004S20.12 94 21.501 94z" transform="translate(-117 -289) translate(117 289)"/>
                <path fill="#231F20" d="M49.824 117l-.05-.02L8 100.488 21.185 87l.05.02L63 103.5l-.086.091L49.824 117zM8.289 100.413l41.494 16.382 12.926-13.23L21.222 87.18 8.289 100.413z" transform="translate(-117 -289) translate(117 289)"/>
                <path fill="#231F20" d="M49.302 115l-.047-.017L11 100.447 21.71 90l.05.02L60 104.538 49.302 115zm-38.004-14.62L49.28 114.81l10.445-10.217-37.974-14.41-10.454 10.199z" transform="translate(-117 -289) translate(117 289)"/>
                <path fill="#231F20" d="M49.248 112l-.05-.018L14 97.974 22.746 89l.047.018 15.14 6.02L58 103.03 49.248 112zm-17.552-7.163l17.51 6.97 8.504-8.719-19.827-7.895-15.09-6-8.499 8.719 17.402 6.925z" transform="translate(-117 -289) translate(117 289)"/>
                <path fill="#231F20" d="M35.005 105c-.977.005-1.946-.156-2.857-.476-1.94-.705-3.148-2.06-3.148-3.523 0-2.206 2.694-4 6.005-4 .973-.008 1.94.154 2.847.477 1.94.697 3.148 2.046 3.148 3.523 0 2.204-2.691 3.999-5.995 3.999zm0-7.845c-3.216 0-5.835 1.724-5.835 3.846 0 1.403 1.167 2.699 3.041 3.379.89.316 1.838.477 2.794.474 3.211 0 5.825-1.725 5.825-3.845 0-1.41-1.167-2.707-3.041-3.38-.887-.318-1.832-.48-2.784-.474zM49.503 109c-1.38 0-2.503-.9-2.503-2s1.123-2 2.503-2c1.381 0 2.497.897 2.497 2s-1.118 2-2.497 2zm0-3.817c-1.283 0-2.33.812-2.33 1.812s1.047 1.817 2.33 1.817c1.284 0 2.324-.812 2.324-1.812s-1.042-1.823-2.324-1.823v.005zM21.5 98c-1.382 0-2.5-.897-2.5-2s1.12-2 2.5-2 2.5.9 2.5 2-1.122 2-2.5 2zm0-3.817c-1.283 0-2.327.814-2.327 1.82 0 1.004 1.044 1.81 2.327 1.81s2.327-.813 2.327-1.81c0-.998-1.044-1.82-2.327-1.82z" transform="translate(-117 -289) translate(117 289)"/>
                <path fill="#12CA70" d="M63 101.555L50.115 115 9 98.448 21.892 85 63 101.555zm-13.398 11.419l10.42-10.802L22.456 87.05 12.022 97.835l37.58 15.139z" transform="translate(-117 -289) translate(117 289)"/>
                <path fill="#12CA70" d="M60 102.583L49.362 113 11 98.4 21.65 88 60 102.583zm-11.339 8.859l8.734-8.562-20.19-7.671-15.303-5.813-8.72 8.55 17.728 6.736 17.751 6.76z" transform="translate(-117 -289) translate(117 289)"/>
                <path fill="#12CA70" d="M57 101.557L48.433 110 31 103.334l.45-1.155c.848.327 1.751.49 2.661.484 3.074 0 5.57-1.8 5.57-4.01 0-1.535-1.181-2.859-2.916-3.536L37.19 94 57 101.557zm-5.283 2.71c0-.887-1-1.608-2.234-1.608-1.233 0-2.24.721-2.24 1.608 0 .887 1 1.615 2.24 1.615 1.24 0 2.227-.718 2.227-1.61l.007-.005z" transform="translate(-117 -289) translate(117 289)"/>
                <path fill="#12CA70" d="M49.504 104c1.379 0 2.496.896 2.496 1.996S50.883 108 49.504 108c-1.38 0-2.504-.896-2.504-2.004S48.117 104 49.504 104zM37.861 96.474C39.73 97.15 41 98.47 41 100c0 2.212-2.687 4-5.995 4-.979.012-1.951-.145-2.866-.464-1.868-.682-3.139-2.004-3.139-3.526 0-2.22 2.687-4.01 6.005-4.01.976-.009 1.945.152 2.856.474z" transform="translate(-117 -289) translate(117 289)"/>
                <path fill="#12CA70" d="M38 95.704l-.434 1.111c-.86-.325-1.777-.489-2.701-.483-3.138 0-5.679 1.785-5.679 4.001 0 1.519 1.202 2.838 2.969 3.518L31.708 105 14 98.384 22.705 90 38 95.704zm-13.429.015c0-.888-1.017-1.609-2.272-1.609-1.254 0-2.265.72-2.265 1.609 0 .888 1.018 1.6 2.274 1.6s2.272-.72 2.272-1.6h-.009z" transform="translate(-117 -289) translate(117 289)"/>
                <path fill="#12CA70" d="M21.501 94c1.38 0 2.499.898 2.499 2.005C24 97.113 22.88 98 21.501 98 20.121 98 19 97.102 19 96.005S20.12 94 21.501 94z" transform="translate(-117 -289) translate(117 289)"/>
                <path fill="#231F20" d="M49.824 115l-.05-.02L8 98.491 21.185 85l.05.02L63 101.509l-.086.09L49.824 115zM8.289 98.42l41.494 16.393 12.926-13.234-41.485-16.392L8.289 98.421z" transform="translate(-117 -289) translate(117 289)"/>
                <path fill="#231F20" d="M49.302 113l-.047-.02L11 98.454 21.71 88l.05.02L60 102.531 49.302 113zM11.298 98.391l37.983 14.422L59.726 102.6 21.752 88.195 11.298 98.391z" transform="translate(-117 -289) translate(117 289)"/>
                <path fill="#231F20" d="M49.255 112l-.05-.02L14 97.975 22.748 89l.047.02 15.142 6.02L58 103.024 49.255 112zm-17.556-7.162l17.515 6.967 8.505-8.716-19.831-7.895-15.093-6.001-8.5 8.718 17.404 6.927z" transform="translate(-117 -289) translate(117 289)"/>
                <path fill="#231F20" d="M35.005 104c-.977.006-1.946-.156-2.857-.478-1.94-.704-3.148-2.06-3.148-3.522 0-2.206 2.694-4 6.005-4 .973-.007 1.94.155 2.847.478C39.792 97.174 41 98.523 41 100c0 2.206-2.691 4-5.995 4zm0-7.845c-3.216 0-5.835 1.724-5.835 3.845 0 1.403 1.167 2.698 3.041 3.378.891.314 1.839.473 2.794.467 3.211 0 5.825-1.726 5.825-3.845 0-1.41-1.167-2.706-3.041-3.378-.887-.317-1.832-.475-2.784-.467zM49.503 108c-1.38 0-2.503-.9-2.503-2s1.123-2 2.503-2c1.381 0 2.497.895 2.497 2s-1.118 2-2.497 2zm0-3.817c-1.283 0-2.33.812-2.33 1.81 0 .997 1.047 1.82 2.33 1.82 1.284 0 2.324-.818 2.324-1.82 0-1.003-1.042-1.81-2.324-1.81zM21.5 98c-1.382 0-2.5-.897-2.5-2s1.12-2 2.5-2 2.5.9 2.5 2-1.122 2-2.5 2zm0-3.817c-1.283 0-2.327.814-2.327 1.82 0 1.004 1.044 1.81 2.327 1.81s2.327-.813 2.327-1.81c0-.998-1.044-1.808-2.327-1.808v-.012z" transform="translate(-117 -289) translate(117 289)"/>
                <path fill="#12CA70" d="M63 100.553L50.115 114 9 97.447 21.892 84 63 100.553zm-13.398 11.419l10.42-10.8-37.567-15.121-10.433 10.79 37.58 15.13z" transform="translate(-117 -289) translate(117 289)"/>
                <path fill="#12CA70" d="M60 100.583L49.362 111 11 96.404 21.65 86 60 100.583zm-11.337 8.854l8.728-8.563-20.186-7.668-15.311-5.82-8.72 8.562 17.736 6.733 17.753 6.756z" transform="translate(-117 -289) translate(117 289)"/>
                <path fill="#12CA70" d="M57 100.559L48.433 109 31 102.33l.45-1.155c.848.327 1.751.492 2.661.486 3.074 0 5.57-1.803 5.57-4.01 0-1.532-1.181-2.857-2.916-3.535L37.19 93 57 100.559zm-5.283 2.707c0-.884-1-1.605-2.234-1.605-1.233 0-2.24.721-2.24 1.605 0 .885 1 1.617 2.24 1.617 1.24 0 2.227-.722 2.227-1.617h.007z" transform="translate(-117 -289) translate(117 289)"/>
                <path fill="#12CA70" d="M49.504 103c1.379 0 2.496.896 2.496 1.993 0 1.098-1.117 2.007-2.496 2.007-1.38 0-2.504-.898-2.504-2.007 0-1.108 1.117-1.993 2.504-1.993zM37.861 95.484C39.73 96.159 41 97.479 41 99.005c0 2.21-2.687 3.995-5.995 3.995-.98.006-1.953-.158-2.866-.484-1.868-.68-3.139-2.001-3.139-3.521C29 96.779 31.687 95 35.005 95c.977-.006 1.946.158 2.856.484z" transform="translate(-117 -289) translate(117 289)"/>
                <path fill="#12CA70" d="M38 93.713l-.434 1.11c-.86-.324-1.778-.487-2.701-.48-3.138 0-5.679 1.783-5.679 3.986 0 1.517 1.202 2.835 2.969 3.515L31.708 103 14 96.393 22.716 88 38 93.713zm-13.429.015c0-.887-1.017-1.605-2.272-1.605-1.254 0-2.274.718-2.274 1.605 0 .888 1.018 1.599 2.274 1.599 1.257 0 2.28-.718 2.28-1.599h-.008z" transform="translate(-117 -289) translate(117 289)"/>
                <path fill="#12CA70" d="M21.501 92c1.38 0 2.499.896 2.499 2.004S22.88 96 21.501 96C20.121 96 19 95.104 19 94.004S20.12 92 21.501 92z" transform="translate(-117 -289) translate(117 289)"/>
                <path fill="#231F20" d="M49.824 114l-.05-.018L8 97.488 21.185 84l.05.02L63 100.514l-.086.09L49.824 114zM8.289 97.427l41.494 16.381 12.926-13.23-41.485-16.384L8.289 97.427z" transform="translate(-117 -289) translate(117 289)"/>
                <path fill="#231F20" d="M49.302 111l-.047-.02L11 96.449 21.71 86l.05.02L60 100.536 49.302 111zM11.298 96.388l37.983 14.427L59.726 100.6 21.752 86.187 11.298 96.388z" transform="translate(-117 -289) translate(117 289)"/>
                <path fill="#231F20" d="M49.246 111l-.05-.02L14 96.978 22.748 88l.047.02 15.142 6.021L58 102.03 49.246 111zm-17.555-7.157l17.514 6.971 8.505-8.72-19.83-7.898-15.094-6.001-8.5 8.712 17.405 6.936z" transform="translate(-117 -289) translate(117 289)"/>
                <path fill="#231F20" d="M35.005 103c-.977.006-1.946-.156-2.857-.478C30.208 101.818 29 100.462 29 99c0-2.206 2.694-4 6.005-4 .973-.007 1.94.155 2.847.478C39.792 96.174 41 97.525 41 99c0 2.206-2.691 4-5.995 4zm0-7.845c-3.216 0-5.835 1.726-5.835 3.845 0 1.405 1.167 2.698 3.041 3.378.89.315 1.838.473 2.794.467 3.211 0 5.825-1.724 5.825-3.845 0-1.41-1.167-2.704-3.041-3.378-.887-.316-1.832-.474-2.784-.467zM49.503 107c-1.38 0-2.503-.9-2.503-2s1.123-2 2.503-2c1.381 0 2.497.897 2.497 2s-1.118 2-2.497 2zm0-3.817c-1.283 0-2.33.812-2.33 1.81 0 .997 1.047 1.81 2.33 1.81 1.284 0 2.324-.816 2.324-1.82 0-1.005-1.042-1.8-2.324-1.8zM21.5 96c-1.382 0-2.5-.895-2.5-2s1.12-2 2.5-2 2.5.9 2.5 2-1.122 2-2.5 2zm0-3.817c-1.283 0-2.327.817-2.327 1.82 0 1.002 1.044 1.81 2.327 1.81s2.327-.813 2.327-1.81c0-.998-1.044-1.82-2.327-1.82z" transform="translate(-117 -289) translate(117 289)"/>
                <path fill="#12CA70" d="M63 99.557L50.115 113 9 96.451 21.892 83 63 99.557zm-13.398 11.417l10.42-10.798L22.456 85.06 12.022 95.84l37.58 15.133z" transform="translate(-117 -289) translate(117 289)"/>
                <path fill="#12CA70" d="M60 99.584L49.362 110 11 95.402 21.65 85 60 99.584zm-11.337 8.854l8.728-8.561-20.186-7.66-15.311-5.82-8.72 8.561 17.736 6.723 17.753 6.757z" transform="translate(-117 -289) translate(117 289)"/>
                <path fill="#12CA70" d="M57 100.559L48.433 109 31 102.33l.45-1.153c.848.326 1.751.49 2.661.484 3.074 0 5.57-1.803 5.57-4.01 0-1.532-1.181-2.857-2.916-3.535L37.19 93 57 100.559zm-5.283 2.71c0-.887-1-1.608-2.234-1.608-1.233 0-2.24.721-2.24 1.608 0 .886 1 1.614 2.24 1.614 1.24 0 2.227-.722 2.227-1.614h.007z" transform="translate(-117 -289) translate(117 289)"/>
                <path fill="#12CA70" d="M49.504 101c1.379 0 2.496.896 2.496 1.996S50.883 105 49.504 105c-1.38 0-2.504-.896-2.504-2.004S48.117 101 49.504 101zM37.861 93.484C39.73 94.159 41 95.479 41 97.005c0 2.21-2.687 3.995-5.995 3.995-.98.007-1.953-.157-2.866-.482C30.27 99.835 29 98.515 29 96.995 29 94.779 31.687 93 35.005 93c.977-.006 1.946.158 2.856.484z" transform="translate(-117 -289) translate(117 289)"/>
                <path fill="#12CA70" d="M38 92.722l-.434 1.11c-.86-.324-1.778-.487-2.701-.48-3.138 0-5.679 1.783-5.679 3.986 0 1.517 1.202 2.834 2.969 3.516L31.708 102 14 95.393 22.716 87 38 92.722zm-13.429.014c0-.887-1.017-1.605-2.272-1.605-1.254 0-2.265.71-2.265 1.59 0 .882 1.018 1.6 2.274 1.6s2.272-.712 2.272-1.6l-.009.015z" transform="translate(-117 -289) translate(117 289)"/>
                <path fill="#12CA70" d="M21.501 91c1.38 0 2.499.896 2.499 2.004S22.88 95 21.501 95C20.121 95 19 94.104 19 92.996S20.12 91 21.501 91z" transform="translate(-117 -289) translate(117 289)"/>
                <path fill="#231F20" d="M49.824 113l-.05-.02L8 96.486 21.185 83l.05.018L63 99.512l-.086.09L49.824 113zM8.289 96.424l41.494 16.382 12.926-13.23-41.485-16.384L8.289 96.424z" transform="translate(-117 -289) translate(117 289)"/>
                <path fill="#231F20" d="M49.302 110l-.047-.017L11 95.445 21.71 85l.05.017L60 99.537 49.302 110zM11.298 95.39l37.983 14.425L59.726 99.6 21.752 85.19l-10.454 10.2z" transform="translate(-117 -289) translate(117 289)"/>
                <path fill="#231F20" d="M49.255 110l-.05-.018L14 95.975 22.748 87l.047.02 15.142 6.02L58 101.026 49.255 110zm-17.556-7.162l17.515 6.97 8.505-8.712L37.888 93.2l-15.093-6-8.5 8.712 17.404 6.925z" transform="translate(-117 -289) translate(117 289)"/>
                <path fill="#231F20" d="M35.005 101c-.977.006-1.946-.156-2.857-.478-1.94-.705-3.148-2.06-3.148-3.523C29 94.795 31.694 93 35.005 93c.973-.007 1.94.155 2.847.476C39.792 94.175 41 95.524 41 97c0 2.206-2.691 4-5.995 4zm0-7.845c-3.216 0-5.835 1.724-5.835 3.844 0 1.405 1.167 2.699 3.041 3.38.891.314 1.839.472 2.794.466 3.211 0 5.825-1.724 5.825-3.846 0-1.411-1.167-2.705-3.041-3.379-.887-.315-1.832-.473-2.784-.465zM49.503 105c-1.38 0-2.503-.9-2.503-2s1.123-2 2.503-2c1.381 0 2.497.897 2.497 2s-1.118 2-2.497 2zm0-3.817c-1.283 0-2.33.812-2.33 1.812s1.047 1.817 2.33 1.817c1.284 0 2.324-.814 2.324-1.817 0-1.002-1.042-1.813-2.324-1.813zM21.5 95c-1.382 0-2.5-.897-2.5-2s1.12-2 2.5-2 2.5.9 2.5 2-1.122 2-2.5 2zm0-3.817c-1.283 0-2.327.814-2.327 1.817 0 1.002 1.044 1.813 2.327 1.813S23.827 94 23.827 93s-1.044-1.81-2.327-1.81v-.007z" transform="translate(-117 -289) translate(117 289)"/>
                <path fill="#12CA70" d="M63 97.55L50.115 111 9 94.44 21.892 81 63 97.55zm-13.398 11.425l10.42-10.806L22.456 83.04 12.022 93.83l37.58 15.146z" transform="translate(-117 -289) translate(117 289)"/>
                <path fill="#12CA70" d="M60 98.581L49.362 109 11 94.4 21.65 84 60 98.581zm-11.337 8.854l8.728-8.56-20.186-7.667-15.311-5.819-8.72 8.55 17.736 6.742 17.753 6.754z" transform="translate(-117 -289) translate(117 289)"/>
                <path fill="#12CA70" d="M57 99.553L48.433 108 31 101.327l.45-1.155c.844.329 1.744.496 2.65.494 3.074 0 5.57-1.801 5.57-4.012 0-1.535-1.181-2.86-2.916-3.537L37.18 92 57 99.553zm-5.283 2.712c0-.887-1-1.61-2.234-1.61-1.233 0-2.24.723-2.24 1.61 0 .887 1 1.615 2.24 1.615 1.24 0 2.227-.722 2.227-1.615h.007z" transform="translate(-117 -289) translate(117 289)"/>
                <path fill="#12CA70" d="M49.504 100c1.379 0 2.496.896 2.496 1.996S50.883 104 49.504 104c-1.38 0-2.504-.896-2.504-2.004S48.117 100 49.504 100zM37.861 92.482C39.73 93.157 41 94.475 41 96.004c0 2.21-2.687 3.996-5.995 3.996-.98.007-1.953-.157-2.866-.482C30.27 98.835 29 97.516 29 95.996 29 93.777 31.687 92 35.005 92c.977-.007 1.946.156 2.856.482z" transform="translate(-117 -289) translate(117 289)"/>
                <path fill="#12CA70" d="M38 91.708l-.434 1.11c-.86-.325-1.777-.489-2.701-.482-3.138 0-5.679 1.784-5.679 3.989 0 1.518 1.202 2.834 2.969 3.516L31.708 101 14 94.387 22.716 86 38 91.708zm-13.429.015c0-.89-1.017-1.608-2.272-1.608-1.254 0-2.274.718-2.274 1.608 0 .89 1.018 1.598 2.274 1.598 1.257 0 2.28-.718 2.28-1.598h-.008z" transform="translate(-117 -289) translate(117 289)"/>
                <path fill="#12CA70" d="M21.501 89c1.38 0 2.499.896 2.499 2.007C24 92.117 22.88 93 21.501 93 20.121 93 19 92.104 19 91.007 19 89.909 20.12 89 21.501 89z" transform="translate(-117 -289) translate(117 289)"/>
                <path fill="#231F20" d="M49.824 111l-.05-.02L8 94.488 21.185 81l.05.02L63 97.512l-.086.09L49.824 111zM8.289 94.424l41.494 16.384 12.926-13.23-41.487-16.384-12.933 13.23z" transform="translate(-117 -289) translate(117 289)"/>
                <path fill="#231F20" d="M49.302 109l-.047-.02L11 94.447 21.71 84l.05.02L60 98.536 49.302 109zM11.298 94.386l37.983 14.427 10.445-10.216-37.974-14.412-10.454 10.201z" transform="translate(-117 -289) translate(117 289)"/>
                <path fill="#231F20" d="M49.255 109l-.05-.02L14 94.973 22.748 86l.047.02 15.142 6.02L58 100.024 49.255 109zm-17.556-7.162l17.515 6.967 8.505-8.718-19.831-7.893-15.093-6.001-8.5 8.718 17.404 6.927z" transform="translate(-117 -289) translate(117 289)"/>
                <path fill="#231F20" d="M35.005 100c-.977.004-1.946-.159-2.857-.48C30.208 98.816 29 97.461 29 96 29 93.794 31.694 92 35.005 92c.973-.007 1.94.155 2.847.478 1.94.696 3.148 2.045 3.148 3.521 0 2.207-2.691 4-5.995 4zm0-7.843c-3.216 0-5.835 1.723-5.835 3.844 0 1.402 1.167 2.697 3.041 3.377.891.314 1.839.473 2.794.467 3.211 0 5.825-1.725 5.825-3.844 0-1.41-1.167-2.706-3.041-3.379-.887-.315-1.832-.473-2.784-.465zM49.503 104c-1.38 0-2.503-.9-2.503-2s1.123-2 2.503-2c1.381 0 2.497.895 2.497 2s-1.118 2-2.497 2zm0-3.817c-1.283 0-2.33.812-2.33 1.81 0 .997 1.047 1.82 2.33 1.82 1.284 0 2.324-.818 2.324-1.82 0-1.003-1.042-1.81-2.324-1.81zM21.5 93c-1.382 0-2.5-.897-2.5-2s1.12-2 2.5-2 2.5.9 2.5 2-1.122 2-2.5 2zm0-3.817c-1.283 0-2.327.814-2.327 1.82 0 1.004 1.044 1.81 2.327 1.81s2.327-.813 2.327-1.81c0-.998-1.044-1.82-2.327-1.82z" transform="translate(-117 -289) translate(117 289)"/>
                <path fill="#FFC65A" d="M53 115L53 144.079 52.05 145 52 144.952 52 115.972z" transform="translate(-117 -289) translate(117 289)"/>
                <path fill="#FFC65A" d="M53 116.053L52.06 117 12.783 101.746 3 97.947 3.94 97 13.723 100.799z" transform="translate(-117 -289) translate(117 289)"/>
                <path fill="#E2A84D" d="M52 116.941L52 145 12.771 129.836 3 126.059 3 98 12.771 101.777z" transform="translate(-117 -289) translate(117 289)"/>
                <path fill="#231F20" d="M52 145l-.108-.042L3 126.08V98l.108.042L52 116.908V145zM3.159 125.981l48.68 18.786v-27.75L3.16 98.23v27.75zM52.105 146L52 145.884 52.852 144.94 52.852 116 53 116 53 145.008z" transform="translate(-117 -289) translate(117 289)"/>
                <path fill="#231F20" d="M51.977 117L51.864 116.885 52.716 116.033 4.011 97.187 3.112 98.088 3 97.976 3.972 97 13.765 100.79 53 115.973z" transform="translate(-117 -289) translate(117 289)"/>
                <path fill="#FFC65A" d="M79 89L79 117.481 52 145 52 116.519zM79 88.244L51.955 116 51.908 115.97 51 115.615 77.907 88z" transform="translate(-117 -289) translate(117 289)"/>
                <path fill="#231F20" d="M51.112 115L51 114.888 77.868 88 79 88.246 78.966 88.402 77.919 88.174zM52 145v-29.023l.024-.024L80 88v29.023l-.024.024L52 145zm.164-28.953v28.558l27.672-27.648v-28.56l-27.672 27.65z" transform="translate(-117 -289) translate(117 289)"/>
                <path fill="#231F20" d="M52.374 114.791L52.374 114.791 52.372 115.769 52.372 115.769z" transform="translate(-117 -289) translate(117 289) rotate(-69.09 52.373 115.28)"/>
                <path fill="#F9F8F7" d="M58.034 120.03L80.949 97l.051.02v12.984L58.12 133 58 120.066l.034-.036zm21.477-10.764v-9.194L59.365 120.32v9.196l20.146-20.25z" transform="translate(-117 -289) translate(117 289)"/>
                <path fill="#898684" d="M81 97.649L57.677 121 56.352 120.488 56 120.353 79.321 97 79.639 97.125z" transform="translate(-117 -289) translate(117 289)"/>
                <path fill="#231F20" d="M79 100L79 109.368 59 130 59 120.63z" transform="translate(-117 -289) translate(117 289)"/>
                <path fill="#898684" d="M57.792 120.689L58 133.941 57.964 134 55.599 133.457 55 133.32 55 120 55.599 120.137 57.85 120.654z" transform="translate(-117 -289) translate(117 289)"/>
                <path fill="#231F20" d="M57.908 120L57.763 119.959 55 119.181 55.095 119 58 119.819zM80.901 97L78 96.183 78.092 96 78.671 96.165 81 96.822z" transform="translate(-117 -289) translate(117 289)"/>
                <path fill="#231F20" d="M57.776 133L57.755 132.989 56 132.306 56 119.17 56.023 119.147 78.889 96 79 96.113 56.158 119.236 56.158 132.196 57.837 132.853z" transform="translate(-117 -289) translate(117 289)"/>
                <path fill="#231F20" d="M58 130v-9.789l.024-.024L79 99v9.791l-.024.024L58 130zm.164-9.72v9.321l20.679-20.878v-9.324l-20.68 20.88z" transform="translate(-117 -289) translate(117 289)"/>
                <path fill="#231F20" d="M58.125 133L58 119.634l.057-.056L82 96v13.487l-.024.024L58.125 133zm.039-13.3l.122 12.921 23.55-23.207V96.39L58.164 119.7z" transform="translate(-117 -289) translate(117 289)"/>
                <path fill="#FFC65A" d="M124 26L124 43.899 88 80 88 62.35 88 62.101zM124 25.472L124 25.491 87.435 61.75 87.435 62 87.39 62 86 61.464 122.771 25 124 25.472z" transform="translate(-117 -289) translate(117 289)"/>
                <path fill="#231F20" d="M122 25.744L85.433 62.53V78l-2.287-.887V66.821c.001-2.745 1.086-5.377 3.017-7.318l3.498-3.519 15.762-15.858 14.087-14.169L73 7.921 73.787 7l48.05 18.688.163.056z" transform="translate(-117 -289) translate(117 289)"/>
                <path fill="#898684" d="M119 25.482L105.04 40 105.008 39.969 69 25.521 70.906 23.539 70.906 9.082 72.908 7z" transform="translate(-117 -289) translate(117 289)"/>
                <path fill="#898684" d="M107 39.607L90.975 56 90.942 55.967 54 41.391 70.027 25 106.967 39.576zM90 56.843l-3.497 3.447c-1.929 1.901-3.014 4.48-3.015 7.168V78L37 60.332v-.919L53.647 43l36.315 13.812.038.031z" transform="translate(-117 -289) translate(117 289)"/>
                <path fill="#FFC65A" d="M85 77.955L85 62 85.003 62 86.937 62.557 87 62.557 87 81 86.937 81 85 80.445zM72 5.474L71.996 5.491 35.437 41.75 35.437 42 35.392 42 34 41.467 70.765 5 71.996 5.474z" transform="translate(-117 -289) translate(117 289)"/>
                <path fill="#898684" d="M71 10L71 23.191 69.083 25 59 21.327z" transform="translate(-117 -289) translate(117 289)"/>
                <path fill="#E2A84D" d="M60.07 21.94L44.467 37.59l-3.483 3.494c-1.91 1.916-2.983 4.513-2.986 7.222v9.689L36 60V42.112L72 6v3.974L60.07 21.94z" transform="translate(-117 -289) translate(117 289)"/>
                <path fill="#898684" d="M59.225 23L69 26.971 53.773 43 44 39.029z" transform="translate(-117 -289) translate(117 289)"/>
                <path fill="#898684" d="M43.672 37L54 40.988 37 58v-9.967c.003-2.787 1.11-5.459 3.08-7.43L43.671 37z" transform="translate(-117 -289) translate(117 289)"/>
                <path fill="#FFC65A" d="M35 42.555L35 61 34.937 61 33 60.445 33 42 34.937 42.555z" transform="translate(-117 -289) translate(117 289)"/>
                <path fill="#231F20" d="M84.699 76.306L84.699 76.306 84.694 78.757 84.694 78.757z" transform="translate(-117 -289) translate(117 289) rotate(-68.92 84.696 77.532)"/>
                <path fill="#231F20" d="M36 61L36 42.671 36.023 42.647 72 6 72 10.213 71.842 10.213 71.842 6.389 36.158 42.738 36.158 60.611 38.016 58.719 38.128 58.832z" transform="translate(-117 -289) translate(117 289)"/>
                <path fill="#231F20" d="M35.408 61L34 60.446 34 42.585 34.023 42.561 69.889 6 70 6.113 34.157 42.651 34.157 60.337 35.465 60.85z" transform="translate(-117 -289) translate(117 289)"/>
                <path fill="#231F20" d="M34.322 41.733L34.322 41.733 34.319 43.217 34.319 43.217z" transform="translate(-117 -289) translate(117 289) rotate(-68.9 34.32 42.475)"/>
                <path fill="#231F20" d="M71.917 6L70 5.218 70.08 5 72 5.782zM83.616 78h-.16V67.046c.006-2.816 1.097-5.516 3.034-7.514l33.221-34.05-46.29-18.296-33.273 34.106c-1.921 1.958-2.998 4.623-2.992 7.4v10.954H37V48.692c-.008-2.82 1.086-5.527 3.037-7.516L73.378 7l.05.02L120 25.422l-.088.088-33.309 34.142c-1.908 1.967-2.984 4.625-2.992 7.399L83.616 78z" transform="translate(-117 -289) translate(117 289)"/>
                <path fill="#231F20" d="M88.945 56L43 37.157 43.057 37 43.108 37.02 89 55.843zM104.943 41L59 22.157 59.059 22 59.11 22.02 105 40.843zM83.951 78L38 59.157 38.057 59 84 77.84zM88 81V62.676l.023-.024L124 26v18.33l-.023.024L88 81zm.158-18.262v17.873l35.684-36.35v-17.87L88.158 62.738z" transform="translate(-117 -289) translate(117 289)"/>
                <path fill="#231F20" d="M78.195 44.207L130.046 44.046 130.046 44.046 78.195 44.207z" transform="translate(-117 -289) translate(117 289) rotate(-45 104.12 44.126)"/>
                <path fill="#231F20" d="M86.923 81L85 80.427 85 62 85.215 62 85.215 80.315 87 80.845z" transform="translate(-117 -289) translate(117 289)"/>
                <path fill="#231F20" d="M86.92 63L85 62.223 85.039 62.118 85.036 62 85.08 62.006 87 62.783zM124.941 26L123.538 25.474 74.838 7.215 72 6.149 72.05 6 74.899 7.068 123.76 25.388 125 25.853z" transform="translate(-117 -289) translate(117 289)"/>
                <path fill="#231F20" d="M74.135 7L74 6.897 74.87 6 75 6.105z" transform="translate(-117 -289) translate(117 289)"/>
                <path fill="#12CA70" d="M101 39.55L88.114 53 47 36.444 59.893 23 101 39.55zM87.601 50.959l10.421-10.79-37.576-15.126-10.434 10.784L87.6 50.959z" transform="translate(-117 -289) translate(117 289)"/>
                <path fill="#12CA70" d="M99 40.591L88.362 51 50 36.409 60.65 26 99 40.591zm-11.339 8.855l8.727-8.562-20.19-7.677-15.304-5.82-8.727 8.562 17.732 6.746 17.762 6.751z" transform="translate(-117 -289) translate(117 289)"/>
                <path fill="#12CA70" d="M95 41.557L86.434 50 69 43.334l.452-1.16c.844.325 1.744.49 2.65.482 3.082 0 5.577-1.794 5.577-4.01 0-1.526-1.18-2.852-2.915-3.536L75.19 34 95 41.557zm-5.282 2.71c0-.895-1-1.617-2.24-1.617-1.24 0-2.233.722-2.233 1.617s1.002 1.606 2.233 1.606c1.232 0 2.24-.722 2.24-1.606z" transform="translate(-117 -289) translate(117 289)"/>
                <path fill="#12CA70" d="M88.496 41c1.387 0 2.504.898 2.504 2.01 0 1.113-1.117 1.99-2.504 1.99C87.11 45 86 44.102 86 43.003c0-1.1 1.12-2.003 2.496-2.003zM74.861 34.482C76.73 35.163 78 36.484 78 38.004 78 40.221 75.313 42 71.995 42c-.976.007-1.944-.157-2.854-.482-1.87-.675-3.141-1.995-3.141-3.522C66 35.786 68.687 34 71.995 34c.98-.006 1.952.157 2.866.482z" transform="translate(-117 -289) translate(117 289)"/>
                <path fill="#12CA70" d="M77 33.722l-.434 1.103c-.863-.323-1.782-.486-2.708-.48-3.126 0-5.665 1.79-5.665 3.987 0 1.523 1.2 2.84 2.968 3.514L70.701 43 53 36.393 61.716 28 77 33.722zm-13.413.014c0-.887-1.016-1.605-2.27-1.605-1.253 0-2.272.718-2.272 1.605 0 .888 1.017 1.6 2.272 1.6 1.256 0 2.266-.714 2.266-1.6h.004z" transform="translate(-117 -289) translate(117 289)"/>
                <path fill="#12CA70" d="M60.501 31c1.38 0 2.499.896 2.499 2.004S61.88 35 60.501 35C59.121 35 58 34.104 58 33.004S59.12 31 60.501 31z" transform="translate(-117 -289) translate(117 289)"/>
                <path fill="#231F20" d="M88.822 53l-.05-.02L47 36.486 60.184 23l.05.02L102 39.512l-.088.09L88.822 53zM47.289 36.424L88.78 52.806l12.926-13.23-41.484-16.384L47.29 36.424z" transform="translate(-117 -289) translate(117 289)"/>
                <path fill="#231F20" d="M88.309 51l-.048-.02L50 36.45 60.713 26l.047.017L99 40.536 88.309 51zM50.29 36.39l37.983 14.423L98.72 40.602 60.752 26.185 50.292 36.39z" transform="translate(-117 -289) translate(117 289)"/>
                <path fill="#231F20" d="M88.246 51l-.05-.018L53 36.974 61.754 28l.05.018L97 42.026 88.246 51zM53.29 36.905l34.915 13.896 8.505-8.72-34.917-13.886-8.503 8.71z" transform="translate(-117 -289) translate(117 289)"/>
                <path fill="#231F20" d="M71.995 42c-.973.007-1.94-.155-2.846-.478C67.206 40.826 66 39.475 66 38c0-2.206 2.69-4 5.995-4 .977-.006 1.946.156 2.856.478C76.79 35.182 78 36.538 78 38c.002 2.206-2.697 4-6.005 4zm0-7.845c-3.212 0-5.825 1.726-5.825 3.845 0 1.41 1.165 2.704 3.04 3.378.887.317 1.833.475 2.785.467 3.22 0 5.838-1.726 5.838-3.845 0-1.403-1.168-2.698-3.043-3.378-.89-.316-1.839-.474-2.795-.467zM88.497 45C87.116 45 86 44.102 86 43c0-1.102 1.12-2 2.497-2 1.376 0 2.503.9 2.503 2s-1.123 2-2.503 2zm0-3.818c-1.282 0-2.324.816-2.324 1.82 0 1.005 1.042 1.81 2.324 1.81 1.281 0 2.33-.812 2.33-1.81 0-.997-1.044-1.82-2.33-1.82zM60.5 35c-1.382 0-2.5-.898-2.5-2 0-1.102 1.122-2 2.5-2s2.5.9 2.5 2-1.122 2-2.5 2zm0-3.817c-1.283 0-2.327.814-2.327 1.817 0 1.002 1.048 1.805 2.327 1.805s2.327-.813 2.327-1.813-1.044-1.81-2.327-1.81z" transform="translate(-117 -289) translate(117 289)"/>
                <path fill="#12CA70" d="M117 24.552L104.12 38 63 21.445 75.89 8 117 24.552zm-13.396 11.413l10.419-10.793-37.57-15.121-10.431 10.793 37.582 15.12z" transform="translate(-117 -289) translate(117 289)"/>
                <path fill="#12CA70" d="M114 24.584L103.362 35 65 20.407 75.651 10 114 24.584zm-11.337 8.861l8.727-8.568-20.19-7.68-15.306-5.824-8.727 8.557 17.724 6.745 17.772 6.77z" transform="translate(-117 -289) translate(117 289)"/>
                <path fill="#12CA70" d="M111 24.558L102.434 33 85 26.329l.45-1.161c.845.326 1.745.491 2.652.485 3.082 0 5.577-1.794 5.577-4.01 0-1.526-1.18-2.851-2.915-3.535L91.19 17 111 24.558zm-5.282 2.71c0-.893-1-1.615-2.24-1.615-1.24 0-2.233.722-2.233 1.615s1 1.608 2.233 1.608c1.234 0 2.24-.724 2.24-1.608z" transform="translate(-117 -289) translate(117 289)"/>
                <path fill="#FFF" d="M103.496 26c1.387 0 2.504.896 2.504 2.004S104.883 30 103.496 30c-1.386 0-2.496-.898-2.496-1.996 0-1.098 1.117-2.004 2.496-2.004z" transform="translate(-117 -289) translate(117 289)"/>
                <path fill="#12CA70" d="M91.861 19.484c1.868.68 3.139 2.001 3.139 3.521C95 25.223 92.313 27 88.995 27c-.977.006-1.946-.158-2.856-.484C84.27 25.841 83 24.523 83 22.995 83 20.785 85.687 19 88.995 19c.98-.005 1.953.159 2.866.484z" transform="translate(-117 -289) translate(117 289)"/>
                <path fill="#12CA70" d="M92 17.72l-.434 1.102c-.863-.325-1.783-.489-2.71-.483-3.126 0-5.665 1.79-5.665 3.99 0 1.526 1.201 2.842 2.966 3.516L85.7 27 68 20.388 76.715 12 92 17.72zm-13.411.014c0-.89-1.017-1.608-2.27-1.608-1.253 0-2.272.718-2.272 1.608 0 .89 1.016 1.598 2.272 1.598 1.255 0 2.27-.718 2.27-1.598z" transform="translate(-117 -289) translate(117 289)"/>
                <path fill="#FFF" d="M76.501 16c1.38 0 2.499.896 2.499 2.007C79 19.117 77.88 20 76.501 20 75.121 20 74 19.104 74 18.007 74 16.909 75.12 16 76.501 16z" transform="translate(-117 -289) translate(117 289)"/>
                <path fill="#231F20" d="M104.813 38l-.05-.02L63 21.488 76.185 8l.05.02L118 24.512l-.086.09L104.813 38zM63.278 21.424l41.494 16.382 12.926-13.23L76.211 8.192 63.278 21.424z" transform="translate(-117 -289) translate(117 289)"/>
                <path fill="#231F20" d="M103.303 35l-.048-.02L65 20.45 75.712 10l.05.02L114 24.541 103.303 35zm-38.01-14.61l37.982 14.425 10.444-10.213-37.961-14.417L65.293 20.39z" transform="translate(-117 -289) translate(117 289)"/>
                <path fill="#231F20" d="M102.24 35l-.049-.02L67 20.984 75.761 12l.048.02L111 26.025 102.24 35zM67.29 20.91l34.91 13.895 8.502-8.718-34.91-13.894-8.502 8.718z" transform="translate(-117 -289) translate(117 289)"/>
                <path fill="#231F20" d="M88.997 27c-.974.007-1.941-.155-2.848-.478C84.208 25.826 83 24.477 83 23c0-2.206 2.692-4 5.997-4 .977-.003 1.945.162 2.854.488 1.943.705 3.149 2.06 3.149 3.522 0 2.196-2.692 3.99-6.003 3.99zm0-7.845c-3.212 0-5.827 1.726-5.827 3.845 0 1.41 1.167 2.706 3.042 3.378.887.317 1.832.475 2.785.467 3.216 0 5.833-1.724 5.833-3.845 0-1.403-1.165-2.698-3.04-3.378-.89-.315-1.838-.473-2.793-.467zM103.497 30c-1.381 0-2.497-.895-2.497-2s1.118-2 2.497-2c1.378 0 2.503.9 2.503 2s-1.123 2-2.503 2zm0-3.817c-1.282 0-2.324.817-2.324 1.82 0 1.002 1.042 1.81 2.324 1.81 1.281 0 2.33-.813 2.33-1.81 0-.998-1.047-1.82-2.33-1.82zM76.501 20C75.118 20 74 19.102 74 18c0-1.102 1.12-2 2.501-2 1.381 0 2.499.9 2.499 2s-1.12 2-2.499 2zm0-3.817c-1.284 0-2.328.814-2.328 1.82 0 1.005 1.044 1.81 2.328 1.81 1.284 0 2.326-.813 2.326-1.81 0-.998-1.044-1.82-2.326-1.82z" transform="translate(-117 -289) translate(117 289)"/>
                <path fill="#FFC65A" d="M123 24.006L123 25.096 114 34 114 32.91 114 32.888 122.984 24z" transform="translate(-117 -289) translate(117 289)"/>
                <path fill="#FFC65A" d="M123 25.31L113.621 34.976 113.621 35 60 13.683 69.396 4z" transform="translate(-117 -289) translate(117 289)"/>
                <path fill="#FFC65A" d="M114 33.804L114 34.961 113.985 35 60 14.202 60 13z" transform="translate(-117 -289) translate(117 289)"/>
                <path fill="#231F20" d="M87.022 -5.707L87.022 -5.707 86.902 51.606 86.902 51.606z" transform="translate(-117 -289) translate(117 289) rotate(-68.9 86.962 22.95)"/>
                <path fill="#231F20" d="M122.933 25L69 4.151 69.058 4 122.983 24.844 123 24.853z" transform="translate(-117 -289) translate(117 289)"/>
                <path fill="#231F20" d="M113.957 36L113.942 35.995 60 14.245 60 12.897 60.024 12.872 69.47 3 69.584 3.12 60.162 12.967 60.162 14.13 114 35.838zM114 34v-1.407l.02-.023L123 23v1.409l-.022.023L114 34zm.152-1.34v.95l8.692-9.262v-.95l-8.692 9.262z" transform="translate(-117 -289) translate(117 289)"/>
                <path fill="#12CA70" d="M74.771 76.716L74.784 76.683 81.756 61.005 46.599 47.785 44 45 84 60.042 84 60.252 75.664 79 75.543 78.87 75.664 78.916 72.983 76.045z" transform="translate(-117 -289) translate(117 289)"/>
                <path fill="#12CA70" d="M73.183 72.973L78.893 59.574 78.888 59.572 48.364 47.636 46 45 81 58.708 74.059 74.965 74.046 75 72.266 74.304 69.934 71.703z" transform="translate(-117 -289) translate(117 289)"/>
                <path fill="#12CA70" d="M79 59.78L73.202 73l-3.3-1.253-7.452-8.08c2.241-2.21 2.327-5.768.194-8.08-2.132-2.312-5.73-2.563-8.172-.569L48 48l30.996 11.777.004.002zm-4.759 6.526c.535-.924.21-2.1-.724-2.63-.935-.531-2.128-.216-2.669.704-.54.92-.225 2.1.705 2.636.452.26.99.332 1.495.198.505-.133.934-.46 1.193-.908zM73.157 75.058L77 79 76.827 78.937 73 75zM45.054 47.074L38.069 62.845 73.322 76.122 76 79 36 63.948 36 63.82 44.362 45 46.96 47.791 45.074 47.082z" transform="translate(-117 -289) translate(117 289)"/>
                <path fill="#12CA70" d="M74.01 64.342c.95.695 1.272 2.22.72 3.412-.553 1.191-1.772 1.6-2.727.913-.955-.687-1.286-2.21-.74-3.406.265-.58.704-1.003 1.22-1.176.516-.173 1.065-.08 1.526.257zM73 75L72.865 74.951 70 72 70.124 72.047z" transform="translate(-117 -289) translate(117 289)"/>
                <path fill="#12CA70" d="M40.112 60.447L70.676 72.402 73 75 38 61.288 44.935 45 44.954 45.009 46.827 45.741 49.181 48.374 45.818 47.061zM71 71L70.904 70.965 64 64.02 64.022 64z" transform="translate(-117 -289) translate(117 289)"/>
                <path fill="#12CA70" d="M62.631 63.992L70 72 39 60.205 44.787 47l3.411 1.287 6.471 7.034c-.53.438-.978.965-1.323 1.557-1.477 2.533-.834 5.754 1.507 7.544 2.342 1.79 5.662 1.6 7.778-.445v.015zm-16.143-8.015c.534-.923.21-2.099-.724-2.63-.933-.53-2.126-.214-2.666.706-.54.92-.226 2.098.704 2.634.94.536 2.143.218 2.686-.71zM62.255 54.78c1.481.912 2.48 2.507 2.7 4.315.22 1.807-.364 3.621-1.578 4.905L56 55.358c1.766-1.57 4.262-1.8 6.255-.577zM56.013 56L63 63.978l-.021.022L56 56.012c.003-.005.008-.01.013-.012z" transform="translate(-117 -289) translate(117 289)"/>
                <path fill="#12CA70" d="M56.098 56L64 64.382c-2.1 1.98-5.396 2.165-7.72.431-2.323-1.733-2.962-4.852-1.495-7.305.342-.574.786-1.084 1.313-1.508zM49.015 49.005L54 54.99c-.005.003-.009.006-.012.011L49 49l.015.005zM49 48L48.976 47.993 46 45 46.011 45.005zM46.01 53.337c.95.696 1.272 2.223.72 3.416-.553 1.192-1.772 1.6-2.727.913-.955-.687-1.286-2.211-.74-3.408.556-1.203 1.785-1.615 2.746-.92z" transform="translate(-117 -289) translate(117 289)"/>
                <path fill="#12CA70" d="M44 42L47 46 46.99 45.994z" transform="translate(-117 -289) translate(117 289)"/>
                <path fill="#231F20" d="M75.678 79L75.532 78.937 83.839 60.262 83.839 60.124 44 45.146 44.056 45 84 60.015 83.991 60.31z" transform="translate(-117 -289) translate(117 289)"/>
                <path fill="#231F20" d="M75.94 79L75.82 78.954 36 63.95 36.009 63.736 44.322 45 44.468 45.063 36.161 63.785 36.161 63.841 76 78.853z" transform="translate(-117 -289) translate(117 289)"/>
                <path fill="#231F20" d="M62.955 32.815L62.955 32.815 62.872 72.318 62.872 72.318z" transform="translate(-117 -289) translate(117 289) rotate(-68.9 62.913 52.567)"/>
                <path fill="#231F20" d="M74.94 75L74.865 74.971 72.98 74.265 38 61.145 38.06 61 38.113 61.021 73.149 74.161 75 74.855zM78.944 61L45.013 47.152 45 47.141 45.06 47.075 45.088 47 48.466 48.378 79 60.841zM73.94 74L73.908 73.986 70.558 72.621 40 60.165 40.015 60.079 40.047 60 70.616 72.462 70.718 72.505 74 73.841z" transform="translate(-117 -289) translate(117 289)"/>
                <path fill="#231F20" d="M69.094 67.763L86.611 67.723 86.611 67.723 69.094 67.763z" transform="translate(-117 -289) translate(117 289) rotate(-66.51 77.853 67.743)"/>
                <path fill="#231F20" d="M38.123 61L38 60.934 38.016 60.894 43.877 45 44 45.063 43.984 45.106zM40.127 61L40 60.937 40.013 60.899 44.877 47 45 47.067 44.967 47.159zM74.123 74L74 73.933 78.873 60 79 60.065 78.971 60.15zM59.995 66c-2.142.002-4.122-1.14-5.193-2.997-1.07-1.855-1.07-4.142.003-5.997.346-.604.796-1.142 1.33-1.588l.023-.022c2.466-2.062 6.119-1.812 8.281.566 2.163 2.379 2.067 6.04-.218 8.302-.009.011-.019.022-.03.03-1.121 1.097-2.628 1.71-4.196 1.706zm-3.737-10.474h-.01c-1.459 1.224-2.228 3.082-2.062 4.979.166 1.897 1.246 3.593 2.894 4.545 2.27 1.304 5.13.942 7.005-.888l.071.044-.05-.068c1.291-1.28 1.911-3.089 1.678-4.892-.234-1.803-1.296-3.393-2.87-4.301-2.119-1.217-4.77-.99-6.652.568l-.004.013zM72.99 69c-.904-.005-1.693-.769-1.924-1.862-.23-1.093.154-2.244.939-2.806.784-.563 1.773-.398 2.411.403.639.8.768 2.038.315 3.016-.36.775-1.023 1.251-1.74 1.249zm0-4.806c-.161 0-.323.027-.48.08-.471.152-.874.535-1.117 1.062-.376.805-.327 1.814.125 2.556.451.742 1.216 1.07 1.937.832.721-.238 1.256-.996 1.355-1.92.1-.924-.256-1.831-.901-2.3-.276-.201-.59-.309-.91-.31h-.008zM44.997 58c-1.054-.002-1.925-1.025-1.993-2.34-.067-1.314.692-2.468 1.737-2.639 1.045-.17 2.016.701 2.22 1.993.205 1.292-.427 2.561-1.445 2.901-.17.056-.344.084-.52.085zm0-4.796c-.723-.017-1.387.496-1.697 1.313-.31.816-.208 1.784.26 2.473.468.689 1.215.971 1.91.721.47-.153.872-.534 1.115-1.06.33-.71.332-1.587.004-2.298-.328-.712-.935-1.15-1.592-1.149z" transform="translate(-117 -289) translate(117 289)"/>
                <path fill="#9881EE" style="mix-blend-mode:color" d="M0 0H142V153H0z" transform="translate(-117 -289) translate(117 289)"/>
            </g>
        </g>
    </g>
</svg>
