<svg id="Security" xmlns="http://www.w3.org/2000/svg" width="25" height="25" viewBox="0 0 25 25">
  <circle id="Oval_Copy_12" data-name="Oval Copy 12" cx="12.5" cy="12.5" r="12.5" fill="#d7a81e" opacity="0.2"/>
  <path id="Fill_1" data-name="Fill 1" d="M6.2,14.444a.565.565,0,0,1-.26-.062l-2.6-1.346a6.105,6.105,0,0,1-1.766-1.312A5.953,5.953,0,0,1,.031,7.771L0,2.979A1.309,1.309,0,0,1,.887,1.742L5.663.077a1.359,1.359,0,0,1,.889,0L11.345,1.68a1.307,1.307,0,0,1,.9,1.224l.031,4.8a5.953,5.953,0,0,1-1.492,3.969A6.083,6.083,0,0,1,9.037,13L6.459,14.379a.552.552,0,0,1-.258.066" transform="translate(6.361 6)" fill="#d7a81e" opacity="0.4"/>
  <path id="Fill_4" data-name="Fill 4" d="M1.933,3.839a.551.551,0,0,1-.387-.153L.162,2.354a.521.521,0,0,1,0-.751.556.556,0,0,1,.771,0l1,.957L4.357.158a.556.556,0,0,1,.771,0A.521.521,0,0,1,5.134.9L2.318,3.681a.549.549,0,0,1-.385.158" transform="translate(10.075 11.06)" fill="#d7a81e"/>
</svg>
