<svg xmlns="http://www.w3.org/2000/svg" width="17.84" height="24.042" viewBox="0 0 17.84 24.042">
  <g id="Iconly_Bulk_Swap" data-name="Iconly/Bulk/Swap" transform="translate(9.627 24.042) rotate(-135)">
    <g id="Swap" transform="translate(0 0)">
      <path id="Fill_1" data-name="Fill 1" d="M1.072,0A.841.841,0,0,0,.232.843L0,4.912a1.072,1.072,0,1,0,2.143,0L1.913.843A.841.841,0,0,0,1.072,0" transform="translate(3.163 8.792)" fill="#d7a81e" opacity="0.4"/>
      <path id="Fill_3" data-name="Fill 3" d="M5.382.6A4.139,4.139,0,0,0,4.992.247,1.244,1.244,0,0,0,4.241,0a1.3,1.3,0,0,0-.8.268c-.041.041-.216.2-.36.341A15.759,15.759,0,0,0,.236,4.819,3.449,3.449,0,0,0,0,5.675a1.432,1.432,0,0,0,.154.649A1.336,1.336,0,0,0,.792,6.9a6.723,6.723,0,0,0,.751.186,16.376,16.376,0,0,0,2.687.175,19.013,19.013,0,0,0,2.6-.154A5.78,5.78,0,0,0,7.77,6.86a1.3,1.3,0,0,0,.7-1.144V5.675a3.632,3.632,0,0,0-.289-.96A15.76,15.76,0,0,0,5.382.6" transform="translate(0 0)" fill="#d7a81e"/>
      <path id="Fill_6" data-name="Fill 6" d="M1.072,5.986a.841.841,0,0,0,.841-.843l.231-4.07A1.072,1.072,0,1,0,0,1.074l.232,4.07a.841.841,0,0,0,.841.843" transform="translate(12.693 1.222)" fill="#d7a81e" opacity="0.4"/>
      <path id="Fill_8" data-name="Fill 8" d="M8.317.939A1.341,1.341,0,0,0,7.679.361,6.78,6.78,0,0,0,6.928.175,16.376,16.376,0,0,0,4.241,0a19.013,19.013,0,0,0-2.6.154A5.9,5.9,0,0,0,.7.4,1.3,1.3,0,0,0,0,1.548v.041a3.581,3.581,0,0,0,.289.959,15.717,15.717,0,0,0,2.8,4.117,4.03,4.03,0,0,0,.391.351,1.235,1.235,0,0,0,.752.248,1.3,1.3,0,0,0,.8-.268c.041-.041.216-.2.36-.34a15.789,15.789,0,0,0,2.84-4.209,3.416,3.416,0,0,0,.237-.856,1.433,1.433,0,0,0-.154-.65" transform="translate(9.529 8.737)" fill="#d7a81e"/>
    </g>
  </g>
</svg>
