<svg xmlns="http://www.w3.org/2000/svg" width="20" height="22" viewBox="0 0 20 22">
  <g id="Document" transform="translate(-0.4)">
    <path id="Path" d="M14.657,0H5.344C1.967,0,0,1.958,0,5.313V16.676C0,20.086,1.967,22,5.344,22h9.312C18.089,22,20,20.086,20,16.676V5.313C20,1.958,18.089,0,14.657,0" transform="translate(0.4)" fill="#484848" opacity="0.4"/>
    <path id="Combined_Shape" data-name="Combined Shape" d="M.126,11.588a.947.947,0,0,1,0-.945.811.811,0,0,1,.791-.416H9.178a.9.9,0,0,1,0,1.766H.917a.727.727,0,0,1-.1.007A.816.816,0,0,1,.126,11.588ZM.917,6.852a.88.88,0,0,1,0-1.757H9.178a.88.88,0,0,1,0,1.757Zm0-5.085A.852.852,0,0,1,.095.889.852.852,0,0,1,.917.012V0H4.066A.853.853,0,0,1,4.89.877a.856.856,0,0,1-.823.89Z" transform="translate(4.4 5)" fill="#484848"/>
  </g>
</svg>
