<svg id="Group" xmlns="http://www.w3.org/2000/svg" width="25" height="25" viewBox="0 0 25 25">
  <circle id="Oval" cx="12.5" cy="12.5" r="12.5" fill="#fff"/>
  <g id="Wallet" transform="translate(6 6)">
    <path id="Fill_1" data-name="Fill 1" d="M9.437,11.818H3.564A3.25,3.25,0,0,1,0,8.309V3.5A3.513,3.513,0,0,1,.942.925,3.644,3.644,0,0,1,3.564,0h5.87a3.644,3.644,0,0,1,2.622.925A3.513,3.513,0,0,1,13,3.5v.024H10.246A2.312,2.312,0,0,0,7.925,5.815,2.257,2.257,0,0,0,8.6,7.435a2.327,2.327,0,0,0,1.643.673H13v.2A3.249,3.249,0,0,1,9.437,11.818ZM3.081,2.544a.49.49,0,1,0,0,.98H6.754A.5.5,0,0,0,7.1,3.379a.481.481,0,0,0,.144-.347.5.5,0,0,0-.5-.488Z" fill="#010833"/>
    <path id="Fill_4" data-name="Fill 4" d="M.026,1.416A1.361,1.361,0,0,0,1.4,2.363h2.24a.467.467,0,0,0,.495-.434V.434A.468.468,0,0,0,3.642,0H1.349A1.276,1.276,0,0,0,0,1.188a1.035,1.035,0,0,0,.026.228" transform="translate(8.864 4.727)" fill="#010833" opacity="0.4"/>
    <circle id="Oval-2" data-name="Oval" cx="0.591" cy="0.591" r="0.591" transform="translate(10.045 5.318)" fill="#010833"/>
  </g>
</svg>
