<svg xmlns="http://www.w3.org/2000/svg" width="164" height="120" viewBox="0 0 164 120">
    <g fill="none" fill-rule="evenodd">
        <g fill-rule="nonzero">
            <g>
                <g>
                    <g fill="#231F20" opacity=".21">
                        <path d="M49.893 0.002L162.895 43.412 113.168 92.933 0.166 49.52z" transform="translate(-181 -206) translate(20 184) translate(161 22) translate(0 27)"/>
                    </g>
                    <path fill="#CE9C7A" d="M164 62L164 63.925 162 64z" transform="translate(-181 -206) translate(20 184) translate(161 22)"/>
                    <path fill="#F2BA94" d="M163 61.898L160.617 64.254 6.418 70 1 67.934 50.504 19z" transform="translate(-181 -206) translate(20 184) translate(161 22)"/>
                    <path fill="#CE9C7A" d="M163 63L114 112 114 109.732 160.641 63.088z" transform="translate(-181 -206) translate(20 184) translate(161 22)"/>
                    <path fill="#F2BA94" d="M162 65L114.94 111 8 70.674z" transform="translate(-181 -206) translate(20 184) translate(161 22)"/>
                    <path fill="#CE9C7A" d="M114 111.687L114 114 1 70.206 6.442 70z" transform="translate(-181 -206) translate(20 184) translate(161 22)"/>
                    <path fill="#CE9C7A" d="M8 70.822L1 71 1 69z" transform="translate(-181 -206) translate(20 184) translate(161 22)"/>
                    <path fill="#231F20" d="M113.485 112L113.437 111.981 1 69.156 1.059 69.006 113.446 111.811 162.885 63 163 63.114z" transform="translate(-181 -206) translate(20 184) translate(161 22)"/>
                    <path fill="#231F20" d="M113.153 111l-.048-.02L0 67.57l.087-.088L49.847 18l.05.02L163 61.42l-2.48 2.462L113.152 111zM.293 67.519l112.82 43.29 49.595-49.33L49.886 18.191.292 67.519zM113.919 111H114.919V113H113.919zM162.919 62H163.919V64H162.919zM.919 69H1.919V71H.919z" transform="translate(-181 -206) translate(20 184) translate(161 22)"/>
                    <path fill="#F7D4BC" d="M147.499 61c3.591 0 6.501 2.014 6.501 4.501 0 2.487-2.91 4.499-6.501 4.499S141 67.986 141 65.501c.003-.63.188-1.248.533-1.787h.012c.998-1.603 3.29-2.714 5.954-2.714z" transform="translate(-181 -206) translate(20 184) translate(161 22)"/>
                    <path fill="#FFF" d="M142.005 62.006L141.995 62.006 141.995 61.994z" transform="translate(-181 -206) translate(20 184) translate(161 22)"/>
                    <path fill="#F7D4BC" d="M142 65.082v.013l-36.263 36.04c-.38.242-.728.533-1.033.865L21 69.907c.249-.425.402-.9.448-1.39l33.954-33.75c1.117-.304 2.125-.917 2.907-1.767L142 65.082z" transform="translate(-181 -206) translate(20 184) translate(161 22)"/>
                    <path fill="#F7D4BC" d="M111.501 97c3.59 0 6.499 2.015 6.499 4.501 0 2.487-2.91 4.499-6.499 4.499-3.589 0-6.501-2.014-6.501-4.499.017-.924.4-1.808 1.073-2.475l.121.043.962-.914c1.301-.774 2.81-1.175 4.345-1.154z" transform="translate(-181 -206) translate(20 184) translate(161 22)"/>
                    <path fill="#FFF" d="M107 99l-.888 1-.112-.047c.295-.365.631-.686 1-.953z" transform="translate(-181 -206) translate(20 184) translate(161 22)"/>
                    <path fill="#CE9C7A" d="M61 29.499c-.015.889-.37 1.742-1 2.4l-.854-.314-2.189 2.084c-.797.222-1.624.333-2.455.331C50.915 34 48 31.986 48 29.499 48 27.012 50.908 25 54.495 25 58.083 25 61 27.014 61 29.499z" transform="translate(-181 -206) translate(20 184) translate(161 22)"/>
                    <path fill="#FFF" d="M58.439 32l.561.301c-.538.817-1.231 1.406-2 1.699l1.439-2z" transform="translate(-181 -206) translate(20 184) translate(161 22)"/>
                    <path fill="#F7D4BC" d="M23 66.499c.001.109-.006.217-.02.325l-1.186 1.128.716.262C21.537 69.85 19.213 71 16.501 71 12.91 71 10 68.986 10 66.499 10 64.012 12.91 62 16.501 62S23 64.014 23 66.499z" transform="translate(-181 -206) translate(20 184) translate(161 22)"/>
                    <path fill="#CE9C7A" d="M22 68.812L23 68c-.041.353-.176.694-.396 1L22 68.812z" transform="translate(-181 -206) translate(20 184) translate(161 22)"/>
                    <path fill="#231F20" d="M15.453 49.889L63.136 50.117 63.136 50.117 15.453 49.889z" transform="translate(-181 -206) translate(20 184) translate(161 22) rotate(-45.05 39.295 50.003)"/>
                    <path fill="#231F20" d="M63.518 39.428L63.518 39.428 63.805 128.815 63.805 128.815z" transform="translate(-181 -206) translate(20 184) translate(161 22) rotate(-68.9 63.661 84.121)"/>
                    <path fill="#231F20" d="M99.071 81.17L149.977 81.414 149.977 81.414 99.071 81.17z" transform="translate(-181 -206) translate(20 184) translate(161 22) rotate(-45.05 124.524 81.292)"/>
                    <path fill="#231F20" d="M100.74 2.738L100.74 2.738 101.026 92.104 101.026 92.104z" transform="translate(-181 -206) translate(20 184) translate(161 22) rotate(-68.9 100.883 47.42)"/>
                    <path fill="#231F20" d="M111.501 107c-3.584 0-6.501-2.24-6.501-4.995.015-1.033.402-2.02 1.082-2.767.32-.369.684-.693 1.084-.964 1.298-.853 2.804-1.295 4.335-1.273 3.582 0 6.499 2.242 6.499 4.997S115.083 107 111.501 107zm0-9.815c-1.498-.02-2.971.41-4.243 1.243-.388.265-.741.583-1.05.945-.651.711-1.022 1.655-1.04 2.642 0 2.658 2.843 4.817 6.333 4.817s6.33-2.16 6.33-4.817c0-2.659-2.84-4.83-6.33-4.83zM147.503 70C143.92 70 141 67.757 141 65.001c.003-.704.19-1.394.54-1.995v-.014c1.037-1.817 3.376-2.992 5.957-2.992 3.587 0 6.503 2.245 6.503 5.001 0 2.756-2.91 4.999-6.497 4.999zm-5.81-6.92v.014c-.336.574-.515 1.234-.517 1.907 0 2.66 2.842 4.822 6.334 4.822 3.493 0 6.335-2.163 6.335-4.822 0-2.659-2.842-4.824-6.335-4.824-2.53 0-4.804 1.14-5.817 2.903zM16.5 71c-3.585 0-6.5-2.243-6.5-5s2.924-5 6.5-5c3.578 0 6.5 2.243 6.5 5 .002.123-.005.245-.02.366-.05.546-.212 1.074-.473 1.549C21.497 69.783 19.14 71 16.501 71zm0-9.823c-3.49 0-6.331 2.163-6.331 4.823 0 2.66 2.84 4.823 6.332 4.823 2.58 0 4.879-1.182 5.849-2.993.25-.453.404-.958.45-1.48.018-.116.028-.233.03-.35 0-2.66-2.838-4.823-6.33-4.823zM54.498 34C50.915 34 48 31.754 48 28.998 48 26.24 50.924 24 54.498 24 58.072 24 61 26.241 61 28.998c-.013.99-.37 1.943-1.003 2.678-.82.939-1.875 1.617-3.043 1.957-.798.246-1.625.37-2.456.367zm0-9.823c-3.49 0-6.33 2.161-6.33 4.82 0 2.66 2.84 4.823 6.33 4.823.812.004 1.62-.116 2.4-.357 1.138-.331 2.166-.991 2.966-1.905.608-.701.952-1.612.967-2.56 0-2.653-2.843-4.82-6.333-4.82z" transform="translate(-181 -206) translate(20 184) translate(161 22)"/>
                    <g opacity=".44">
                        <path fill="#52AAFF" d="M22.8 0.336L22.8 46.839 0.202 69.623 0.202 23.12z" transform="translate(-181 -206) translate(20 184) translate(161 22) translate(43)"/>
                        <path fill="#231F20" d="M.123 69.82V23.085l.021-.022L22.882.14v46.735l-.024.024L.123 69.82zm.16-46.666v46.272L22.722 46.81V.533L.284 23.154z" transform="translate(-181 -206) translate(20 184) translate(161 22) translate(43)"/>
                    </g>
                    <g opacity=".44">
                        <path fill="#52AAFF" d="M45.766 17.021L45.766 62.691 0.237 45.788 0.237 0.117z" transform="translate(-181 -206) translate(20 184) translate(161 22) translate(66)"/>
                        <path fill="#231F20" d="M45.85 62.808l-.113-.042L.155 45.843V0l.113.043L45.85 16.965v45.843zM.32 45.732l45.364 16.842V17.076L.32.234v45.498z" transform="translate(-181 -206) translate(20 184) translate(161 22) translate(66)"/>
                    </g>
                    <path fill="#12CA70" d="M105 59.695L94.506 70 61 57.313 71.505 47 105 59.695zm-10.929 8.742l8.488-8.273-30.6-11.586-8.5 8.266L94.07 68.437z" transform="translate(-181 -206) translate(20 184) translate(161 22)"/>
                    <path fill="#12CA70" d="M104 60.675L95.53 69 65 57.323 73.475 49 104 60.675zm-9.022 7.084l6.946-6.844-16.06-6.142-12.177-4.665-6.955 6.852 14.113 5.385 14.133 5.414z" transform="translate(-181 -206) translate(20 184) translate(161 22)"/>
                    <path fill="#12CA70" d="M101 61.68L93.75 68 79 63l.382-.87c.715.244 1.477.368 2.244.363 2.606 0 4.719-1.344 4.719-3.012 0-1.144-1-2.137-2.468-2.65l.361-.831L101 61.68zm-4.47 2.032c0-.67-.845-1.211-1.894-1.211-1.048 0-1.89.54-1.89 1.21 0 .671.846 1.204 1.89 1.204s1.894-.541 1.894-1.203z" transform="translate(-181 -206) translate(20 184) translate(161 22)"/>
                    <path fill="#12CA70" d="M93.998 61c1.108 0 2.002.448 2.002 1.003 0 .555-.894.997-2.002.997-1.11 0-1.998-.448-1.998-.997 0-.548.894-1.003 1.998-1.003zM82.645 53.482c1.402.682 2.355 2 2.355 3.52C85 59.214 82.983 61 80.497 61c-.733.006-1.46-.157-2.142-.482C76.953 59.844 76 58.525 76 57.001 76 54.793 78.014 53 80.497 53c.734-.002 1.462.161 2.148.482z" transform="translate(-181 -206) translate(20 184) translate(161 22)"/>
                    <path fill="#12CA70" d="M84 54.575l-.362.882c-.723-.257-1.49-.388-2.264-.385-2.605 0-4.719 1.433-4.719 3.2 0 1.219 1 2.273 2.472 2.812l-.374.916L64 56.72 71.27 50 84 54.575zm-11.17.012c0-.711-.847-1.286-1.89-1.286-1.044 0-1.892.575-1.892 1.286 0 .712.846 1.278 1.892 1.278 1.046 0 1.888-.574 1.888-1.278h.002z" transform="translate(-181 -206) translate(20 184) translate(161 22)"/>
                    <path fill="#12CA70" d="M71.001 54c1.104 0 1.999.448 1.999 1.003 0 .555-.895.997-1.999.997-1.103 0-2.001-.448-2.001-.997 0-.548.886-1.003 2.001-1.003z" transform="translate(-181 -206) translate(20 184) translate(161 22)"/>
                    <path fill="#231F20" d="M94.969 70l-.052-.02L60 56.812 71.049 46 106 59.201 94.969 70zM60.313 56.741l34.613 13.067 10.77-10.538-34.609-13.071L60.313 56.74z" transform="translate(-181 -206) translate(20 184) translate(161 22)"/>
                    <path fill="#231F20" d="M95.472 69L65 56.787 73.539 48l.05.02L104 60.206 95.472 69zM65.29 56.718l30.154 12.085 8.277-8.534-30.144-12.072-8.287 8.521z" transform="translate(-181 -206) translate(20 184) translate(161 22)"/>
                    <path fill="#231F20" d="M94.025 69L66 57.425 72.97 50 101 61.575 94.025 69zM66.288 57.359l27.696 11.437 6.728-7.16L73.016 50.2l-6.728 7.16z" transform="translate(-181 -206) translate(20 184) translate(161 22)"/>
                    <path fill="#231F20" d="M83.998 61c-.812.007-1.617-.155-2.372-.478C80.006 59.826 79 58.467 79 57c0-2.207 2.242-4 4.998-4 .812-.003 1.618.158 2.376.475C87.994 54.18 89 55.531 89 57c.002 2.204-2.242 4-5.002 4zm0-7.807c-2.66 0-4.821 1.708-4.821 3.807 0 1.395.963 2.677 2.513 3.34.735.314 1.518.472 2.308.465 2.661 0 4.828-1.709 4.828-3.808 0-1.39-.964-2.671-2.516-3.34-.738-.308-1.522-.466-2.312-.464zM93.999 63C92.897 63 92 62.551 92 62.002c0-.549.897-1.002 1.999-1.002S96 61.449 96 62.002c0 .554-.897.998-2.001.998zm0-1.884c-1.009 0-1.83.398-1.83.886 0 .49.819.882 1.83.882 1.01 0 1.83-.396 1.83-.882 0-.485-.822-.88-1.83-.88v-.006zM71.001 56C69.898 56 69 55.551 69 55.002c0-.549.898-1.002 2.001-1.002 1.104 0 1.999.449 1.999 1.002 0 .554-.898.998-1.999.998zm0-1.884c-1.01 0-1.832.398-1.832.886 0 .49.82.882 1.832.882s1.832-.396 1.832-.882c0-.485-.824-.886-1.832-.886z" transform="translate(-181 -206) translate(20 184) translate(161 22)"/>
                    <path fill="#12CA70" d="M105 56.693L94.507 67 61 54.311 71.504 44 105 56.693zm-10.92 8.742l8.488-8.273-30.605-11.584-8.5 8.266L94.08 65.435z" transform="translate(-181 -206) translate(20 184) translate(161 22)"/>
                    <path fill="#12CA70" d="M104 56.67L95.53 65 65 53.324 73.475 45 104 56.67zm-9.022 7.085l6.946-6.845-16.06-6.147-12.177-4.66-6.955 6.852 14.104 5.396 14.142 5.404z" transform="translate(-181 -206) translate(20 184) translate(161 22)"/>
                    <path fill="#12CA70" d="M101 56.676L93.75 63 79 58.005l.382-.871c.715.245 1.477.368 2.244.363 2.606 0 4.719-1.345 4.719-3.015 0-1.145-1-2.137-2.468-2.65l.361-.832L101 56.676zm-4.47 2.031c0-.668-.845-1.21-1.894-1.21-1.048 0-1.89.542-1.89 1.21 0 .669.846 1.206 1.89 1.206s1.894-.541 1.894-1.206z" transform="translate(-181 -206) translate(20 184) translate(161 22)"/>
                    <path fill="#12CA70" d="M93.998 58c1.108 0 2.002.447 2.002.998C96 59.55 95.104 60 93.998 60 92.89 60 92 59.553 92 59.005S92.894 58 93.998 58zM82.645 51.482C84.047 52.164 85 53.48 85 54.999c0 2.216-2.017 4-4.503 4-.733.007-1.46-.156-2.142-.48-1.402-.675-2.355-1.994-2.355-3.52C76 52.793 78.014 51 80.497 51c.734-.003 1.462.16 2.148.482z" transform="translate(-181 -206) translate(20 184) translate(161 22)"/>
                    <path fill="#12CA70" d="M84 51.564l-.362.882c-.722-.258-1.49-.389-2.264-.385-2.605 0-4.719 1.434-4.719 3.199 0 1.221 1 2.276 2.472 2.815l-.383.925L64 53.714 71.261 47 84 51.564zm-11.17.01c0-.71-.847-1.284-1.89-1.284-1.044 0-1.892.575-1.892 1.284 0 .71.846 1.28 1.892 1.28 1.046 0 1.888-.568 1.888-1.273l.002-.007z" transform="translate(-181 -206) translate(20 184) translate(161 22)"/>
                    <path fill="#12CA70" d="M71.001 49c1.104 0 1.999.448 1.999 1.002 0 .553-.895.998-1.999.998-1.103 0-2.001-.448-2.001-.998S69.886 49 71.001 49z" transform="translate(-181 -206) translate(20 184) translate(161 22)"/>
                    <path fill="#231F20" d="M94.969 68l-.052-.02L60 54.8 71.049 44 106 57.204 94.969 68zM60.313 54.743L94.926 67.81l10.77-10.54-34.609-13.078-10.774 10.551z" transform="translate(-181 -206) translate(20 184) translate(161 22)"/>
                    <path fill="#231F20" d="M95.472 66L65 53.788 73.539 45l.05.02L104 57.205 95.472 66zM65.29 53.717l30.154 12.089 8.277-8.536-30.144-12.076-8.287 8.523z" transform="translate(-181 -206) translate(20 184) translate(161 22)"/>
                    <path fill="#231F20" d="M94.025 65L66 53.42 72.97 46 101 57.57 94.025 65zM66.288 53.355l27.696 11.432 6.728-7.156-27.696-11.432-6.728 7.156z" transform="translate(-181 -206) translate(20 184) translate(161 22)"/>
                    <path fill="#231F20" d="M83.998 59c-.811.008-1.616-.154-2.372-.476C80.006 57.828 79 56.47 79 55c0-2.204 2.242-4 4.998-4 .812-.003 1.618.16 2.376.478C87.994 52.182 89 53.533 89 55c.002 2.207-2.242 4-5.002 4zm0-7.807c-2.66 0-4.821 1.708-4.821 3.807 0 1.397.963 2.677 2.513 3.34.735.312 1.518.469 2.308.462 2.661 0 4.828-1.708 4.828-3.807 0-1.387-.964-2.67-2.516-3.34-.737-.31-1.522-.466-2.312-.462zM93.999 60C92.897 60 92 59.553 92 59.002c0-.55.897-1.002 1.999-1.002S96 58.45 96 59.002c0 .553-.897.998-2.001.998zm0-1.884c-1.009 0-1.83.398-1.83.886 0 .49.819.882 1.83.882 1.01 0 1.83-.394 1.83-.882 0-.487-.822-.886-1.83-.886zM71.001 51C69.898 51 69 50.553 69 50.002c0-.55.898-1.002 2.001-1.002 1.104 0 1.999.45 1.999 1.002 0 .553-.898.998-1.999.998zm0-1.884c-1.01 0-1.832.398-1.832.886 0 .49.82.882 1.832.882s1.832-.394 1.832-.882c0-.487-.824-.886-1.832-.886z" transform="translate(-181 -206) translate(20 184) translate(161 22)"/>
                    <path fill="#12CA70" d="M105 50.694L94.507 61 61 48.312 71.504 38 105 50.694zm-10.92 8.741l8.488-8.272-30.605-11.585-8.5 8.265L94.08 59.435z" transform="translate(-181 -206) translate(20 184) translate(161 22)"/>
                    <path fill="#12CA70" d="M104 51.67L95.53 60 65 48.323 73.475 40 104 51.67zm-9.022 7.085l6.946-6.842-16.06-6.144-12.177-4.657-6.955 6.844 14.104 5.393 14.142 5.406z" transform="translate(-181 -206) translate(20 184) translate(161 22)"/>
                    <path fill="#12CA70" d="M101 53.678L93.75 60 79 55.005l.382-.871c.715.246 1.476.369 2.244.363 2.606 0 4.719-1.345 4.719-3.013 0-1.145-1-2.139-2.468-2.653l.361-.831L101 53.678zm-4.47 2.031c0-.67-.845-1.212-1.894-1.212-1.048 0-1.891.542-1.891 1.212 0 .67.845 1.206 1.889 1.206s1.896-.541 1.896-1.206z" transform="translate(-181 -206) translate(20 184) translate(161 22)"/>
                    <path fill="#12CA70" d="M93.998 56c1.108 0 2.002.448 2.002 1.002 0 .555-.894.998-2.002.998-1.11 0-1.998-.448-1.998-.998S92.894 56 93.998 56zM82.645 47.48C84.047 48.16 85 49.48 85 51c0 2.214-2.017 4-4.503 4-.733.008-1.46-.156-2.142-.482C76.953 53.844 76 52.525 76 51c0-2.21 2.014-4 4.497-4 .734-.003 1.462.16 2.148.48z" transform="translate(-181 -206) translate(20 184) translate(161 22)"/>
                    <path fill="#12CA70" d="M84 47.566l-.362.882c-.723-.256-1.49-.386-2.264-.383-2.605 0-4.719 1.432-4.719 3.198 0 1.22 1 2.274 2.472 2.813l-.383.924L64 49.712 71.261 43 84 47.566zm-11.17.013c0-.712-.847-1.286-1.89-1.286-1.044 0-1.892.574-1.892 1.286 0 .712.846 1.28 1.892 1.28 1.046 0 1.888-.575 1.888-1.28h.002z" transform="translate(-181 -206) translate(20 184) translate(161 22)"/>
                    <path fill="#12CA70" d="M71.001 47c1.104 0 1.999.448 1.999 1.002 0 .555-.895.998-1.999.998-1.103 0-2.001-.448-2.001-.998S69.886 47 71.001 47z" transform="translate(-181 -206) translate(20 184) translate(161 22)"/>
                    <path fill="#231F20" d="M94.969 62l-.052-.018L60 48.802 71.049 38 106 51.206 94.969 62zM60.313 48.741l34.613 13.067 10.77-10.54-34.609-13.074-10.774 10.547z" transform="translate(-181 -206) translate(20 184) translate(161 22)"/>
                    <path fill="#231F20" d="M95.472 61L65 48.789 73.539 40l.05.02L104 52.207 95.472 61zM65.29 48.72l30.154 12.084 8.266-8.523-30.133-12.082-8.287 8.52z" transform="translate(-181 -206) translate(20 184) translate(161 22)"/>
                    <path fill="#231F20" d="M94.03 60L66 48.425 72.972 41 101 52.575 94.03 60zM66.288 48.361L93.99 59.8l6.729-7.16-27.7-11.438-6.73 7.16z" transform="translate(-181 -206) translate(20 184) translate(161 22)"/>
                    <path fill="#231F20" d="M83.998 55c-.812.007-1.617-.155-2.372-.478C80.006 53.826 79 52.467 79 51c0-2.207 2.242-4 4.998-4 .812-.003 1.618.158 2.376.475 1.62.704 2.626 2.056 2.626 3.522.002 2.207-2.242 4.003-5.002 4.003zm0-7.807c-2.66 0-4.821 1.708-4.821 3.807 0 1.395.963 2.677 2.513 3.34.735.314 1.518.472 2.308.465 2.661 0 4.828-1.709 4.828-3.808 0-1.39-.964-2.669-2.516-3.34-.738-.308-1.522-.466-2.312-.464zM93.999 58C92.897 58 92 57.553 92 57.002c0-.55.897-1.002 1.999-1.002S96 56.449 96 57.002c0 .554-.897.998-2.001.998zm0-1.884c-1.009 0-1.83.398-1.83.886 0 .49.819.882 1.83.882 1.01 0 1.83-.396 1.83-.882 0-.485-.822-.886-1.83-.886zM71.001 47C69.898 47 69 46.553 69 46.002c0-.55.898-1.002 2.001-1.002 1.104 0 1.999.449 1.999 1.002 0 .554-.898.998-1.999.998zm0-1.884c-1.01 0-1.832.398-1.832.886 0 .49.82.882 1.832.882s1.832-.396 1.832-.882c0-.485-.824-.886-1.832-.886z" transform="translate(-181 -206) translate(20 184) translate(161 22)"/>
                    <path fill="#12CA70" d="M105 48.693L94.507 59 61 46.311 71.504 36 105 48.693zm-10.92 8.742l8.488-8.273-30.605-11.584-8.5 8.266L94.08 57.435z" transform="translate(-181 -206) translate(20 184) translate(161 22)"/>
                    <path fill="#12CA70" d="M104 49.67L95.53 58 65 46.323 73.475 38 104 49.67zm-9.022 7.085l6.946-6.844-16.06-6.142-12.177-4.66-6.955 6.845 14.104 5.395 14.142 5.406z" transform="translate(-181 -206) translate(20 184) translate(161 22)"/>
                    <path fill="#12CA70" d="M101 49.676L93.75 56 79 51.005l.382-.871c.715.245 1.477.368 2.244.363 2.606 0 4.719-1.345 4.719-3.015 0-1.143-1-2.137-2.468-2.65l.361-.832L101 49.676zm-4.47 2.031c0-.668-.845-1.21-1.894-1.21-1.048 0-1.89.542-1.89 1.21 0 .669.846 1.206 1.89 1.206s1.894-.541 1.894-1.206z" transform="translate(-181 -206) translate(20 184) translate(161 22)"/>
                    <path fill="#12CA70" d="M93.998 50c1.108 0 2.002.448 2.002 1.002 0 .553-.894.998-2.002.998-1.11 0-1.998-.448-1.998-.998S92.894 50 93.998 50zM82.642 42.482c1.404.682 2.358 2 2.358 3.517 0 2.216-2.019 4-4.509 4-.733.007-1.46-.156-2.144-.48-1.403-.67-2.347-1.986-2.347-3.52C76 43.793 78.017 42 80.502 42c.732 0 1.457.163 2.14.482z" transform="translate(-181 -206) translate(20 184) translate(161 22)"/>
                    <path fill="#12CA70" d="M84 43.568l-.362.882c-.723-.258-1.49-.388-2.264-.386-2.605 0-4.719 1.434-4.719 3.198 0 1.22 1 2.275 2.472 2.814l-.383.924L64 45.71 71.261 39 84 43.568zm-11.17.01c0-.71-.847-1.284-1.89-1.284-1.044 0-1.892.575-1.892 1.284 0 .71.846 1.28 1.892 1.28 1.046 0 1.888-.579 1.888-1.28h.002z" transform="translate(-181 -206) translate(20 184) translate(161 22)"/>
                    <path fill="#12CA70" d="M71.001 43c1.104 0 1.999.448 1.999 1.002 0 .553-.895.998-1.999.998-1.103 0-2.001-.448-2.001-.998S69.886 43 71.001 43z" transform="translate(-181 -206) translate(20 184) translate(161 22)"/>
                    <path fill="#231F20" d="M94.969 59l-.052-.02L60 45.803 71.049 35 106 48.204 94.969 59zM60.313 45.739l34.613 13.067 10.77-10.545-34.609-13.067L60.313 45.74z" transform="translate(-181 -206) translate(20 184) translate(161 22)"/>
                    <path fill="#231F20" d="M95.472 57L65 44.788 73.539 36l.05.02L104 48.214 95.472 57zM65.29 44.717l30.154 12.089 8.277-8.536-30.144-12.076-8.287 8.523z" transform="translate(-181 -206) translate(20 184) translate(161 22)"/>
                    <path fill="#231F20" d="M94.03 56L66 44.423 72.972 37 101 48.575 94.03 56zM66.288 44.359L93.99 55.796l6.729-7.16-27.7-11.437-6.73 7.16z" transform="translate(-181 -206) translate(20 184) translate(161 22)"/>
                    <path fill="#231F20" d="M83.998 50c-.811.008-1.616-.154-2.372-.476C80.006 48.828 79 47.47 79 46 79 43.794 81.242 42 83.998 42c.812-.003 1.618.158 2.376.476C87.994 43.18 89 44.53 89 45.999c.002 2.207-2.242 4-5.002 4zm0-7.807c-2.66 0-4.821 1.706-4.821 3.806 0 1.398.963 2.68 2.513 3.34.735.314 1.518.47 2.308.463 2.661 0 4.828-1.706 4.828-3.809 0-1.387-.964-2.67-2.516-3.34-.738-.309-1.522-.465-2.312-.46zM93.999 52C92.897 52 92 51.552 92 51.002S92.897 50 93.999 50 96 50.45 96 51.002c0 .551-.897.998-2.001.998zm0-1.884c-1.009 0-1.83.397-1.83.886 0 .488.819.882 1.83.882 1.01 0 1.83-.396 1.83-.882 0-.487-.822-.886-1.83-.886zM71.001 45C69.898 45 69 44.552 69 44.002S69.898 43 71.001 43c1.104 0 1.999.45 1.999 1.002 0 .551-.898.998-1.999.998zm0-1.884c-1.01 0-1.832.397-1.832.886 0 .488.82.882 1.832.882s1.832-.396 1.832-.882c0-.487-.824-.886-1.832-.886z" transform="translate(-181 -206) translate(20 184) translate(161 22)"/>
                    <path fill="#12CA70" d="M105 45.695L94.507 56 61 43.312 71.504 33 105 45.695zM94.072 54.44l8.487-8.272-30.596-11.597-8.5 8.265 30.61 11.604z" transform="translate(-181 -206) translate(20 184) translate(161 22)"/>
                    <path fill="#12CA70" d="M104 45.674L95.53 54 65 42.328 73.486 34 104 45.674zm-9.022 7.081l6.946-6.84-16.06-6.142-12.177-4.655-6.955 6.843 14.104 5.39 14.142 5.404z" transform="translate(-181 -206) translate(20 184) translate(161 22)"/>
                    <path fill="#12CA70" d="M101 44.677L93.75 51 79 46.004l.382-.871c.715.246 1.476.369 2.244.363 2.606 0 4.719-1.345 4.719-3.013 0-1.144-1-2.138-2.468-2.65l.361-.833L101 44.677zm-4.47 2.03c0-.67-.845-1.211-1.894-1.211-1.048 0-1.89.541-1.89 1.212 0 .67.846 1.206 1.89 1.206s1.894-.542 1.894-1.206z" transform="translate(-181 -206) translate(20 184) translate(161 22)"/>
                    <path fill="#12CA70" d="M93.998 47c1.108 0 2.002.448 2.002 1.002 0 .555-.894.998-2.002.998-1.11 0-1.998-.448-1.998-.998S92.894 47 93.998 47zM82.645 40.482C84.047 41.162 85 42.48 85 44c0 2.214-2.017 4-4.503 4-.733.008-1.46-.156-2.142-.482C76.953 46.844 76 45.528 76 44c0-2.207 2.014-4 4.497-4 .734-.003 1.462.16 2.148.482z" transform="translate(-181 -206) translate(20 184) translate(161 22)"/>
                    <path fill="#12CA70" d="M84 39.566l-.362.885c-.722-.259-1.49-.39-2.264-.386-2.605 0-4.719 1.434-4.719 3.198 0 1.221 1 2.274 2.472 2.813l-.383.924L64 41.712 71.261 35 84 39.566zm-11.172.02c0-.712-.847-1.287-1.89-1.287-1.044 0-1.893.575-1.893 1.286 0 .712.847 1.28 1.893 1.28 1.045 0 1.89-.58 1.89-1.28z" transform="translate(-181 -206) translate(20 184) translate(161 22)"/>
                    <path fill="#12CA70" d="M71.001 38c1.104 0 1.999.448 1.999 1.002 0 .555-.895.998-1.999.998-1.103 0-2.001-.448-2.001-.998S69.886 38 71.001 38z" transform="translate(-181 -206) translate(20 184) translate(161 22)"/>
                    <path fill="#231F20" d="M94.969 57l-.052-.02L60 43.797 71.049 33 106 46.19 94.969 57zM60.313 43.735l34.613 13.062 10.77-10.536-34.609-13.07-10.774 10.544z" transform="translate(-181 -206) translate(20 184) translate(161 22)"/>
                    <path fill="#231F20" d="M95.472 55L65 42.792 73.539 34l.05.018L104 46.2 95.472 55zM65.29 42.711l30.154 12.092 8.277-8.539-30.144-12.079-8.287 8.526z" transform="translate(-181 -206) translate(20 184) translate(161 22)"/>
                    <path fill="#231F20" d="M94.025 52L66 41.644 72.97 35 101 45.358 94.025 52zM66.288 41.595l27.696 10.233 6.728-6.406-27.696-10.234-6.728 6.407z" transform="translate(-181 -206) translate(20 184) translate(161 22)"/>
                    <path fill="#231F20" d="M83.998 48c-.812.007-1.617-.155-2.372-.478C80.006 46.826 79 45.467 79 44c0-2.204 2.242-4 4.998-4 .812-.003 1.618.16 2.376.478C87.994 41.182 89 42.533 89 44c.002 2.214-2.242 4-5.002 4zm0-7.807c-2.66 0-4.821 1.708-4.821 3.807 0 1.395.963 2.677 2.513 3.34.735.312 1.518.469 2.308.462 2.661 0 4.828-1.708 4.828-3.807 0-1.387-.964-2.67-2.516-3.34-.738-.305-1.522-.458-2.312-.452v-.01zM93.999 49C92.897 49 92 48.553 92 48.002c0-.55.897-1.002 1.999-1.002S96 47.45 96 48.002c0 .553-.897.998-2.001.998zm0-1.884c-1.009 0-1.83.398-1.83.886 0 .49.819.882 1.83.882 1.01 0 1.83-.396 1.83-.882 0-.485-.822-.892-1.83-.892v.006zM71.001 40C69.898 40 69 39.553 69 39.002c0-.55.898-1.002 2.001-1.002 1.104 0 1.999.45 1.999 1.002 0 .553-.898.998-1.999.998zm0-1.884c-1.01 0-1.832.398-1.832.886 0 .49.82.882 1.832.882s1.832-.396 1.832-.882c0-.485-.824-.886-1.832-.886z" transform="translate(-181 -206) translate(20 184) translate(161 22)"/>
                    <path fill="#12CA70" d="M105 40.695L94.506 51 61 38.313 71.505 28 105 40.695zm-10.929 8.746l8.488-8.273-30.6-11.59-8.5 8.266L94.07 49.441z" transform="translate(-181 -206) translate(20 184) translate(161 22)"/>
                    <path fill="#12CA70" d="M104 41.67L95.53 50 65 38.323 73.475 30 104 41.67zm-9.022 7.085l6.946-6.844-16.06-6.142-12.177-4.657-6.955 6.842 14.104 5.395 14.142 5.406z" transform="translate(-181 -206) translate(20 184) translate(161 22)"/>
                    <path fill="#12CA70" d="M101 40.671L93.75 47 79 42.001l.382-.871c.714.248 1.476.374 2.244.371 2.606 0 4.719-1.346 4.719-3.015 0-1.146-1-2.14-2.468-2.654l.361-.832L101 40.671zm-4.47 2.035c0-.67-.845-1.213-1.894-1.213-1.048 0-1.89.542-1.89 1.213s.846 1.205 1.89 1.205 1.894-.542 1.894-1.205z" transform="translate(-181 -206) translate(20 184) translate(161 22)"/>
                    <path fill="#12CA70" d="M93.998 43c1.108 0 2.002.448 2.002 1.003 0 .555-.894.997-2.002.997-1.11 0-1.998-.448-1.998-.997 0-.548.894-1.003 1.998-1.003zM82.645 36.482c1.402.682 2.355 2 2.355 3.52C85 42.214 82.983 44 80.497 44c-.733.006-1.46-.157-2.142-.482C76.953 42.844 76 41.525 76 40.001 76 37.793 78.014 36 80.497 36c.734-.002 1.462.161 2.148.482z" transform="translate(-181 -206) translate(20 184) translate(161 22)"/>
                    <path fill="#12CA70" d="M84 36.566l-.362.882c-.723-.257-1.49-.387-2.264-.385-2.605 0-4.719 1.434-4.719 3.2 0 1.22 1 2.274 2.472 2.813l-.383.924L64 38.71 71.261 32 84 36.566zm-11.17.013c0-.712-.847-1.286-1.89-1.286-1.044 0-1.892.574-1.892 1.286 0 .712.846 1.278 1.892 1.278 1.046 0 1.888-.575 1.888-1.278h.002z" transform="translate(-181 -206) translate(20 184) translate(161 22)"/>
                    <path fill="#12CA70" d="M71.001 35c1.104 0 1.999.448 1.999 1.003 0 .555-.895.997-1.999.997-1.103 0-2.001-.448-2.001-.997 0-.548.886-1.003 2.001-1.003z" transform="translate(-181 -206) translate(20 184) translate(161 22)"/>
                    <path fill="#231F20" d="M94.969 51l-.052-.02L60 37.803 71.049 27 106 40.204 94.969 51zM60.313 37.739l34.613 13.069 10.77-10.54-34.609-13.074L60.313 37.74z" transform="translate(-181 -206) translate(20 184) translate(161 22)"/>
                    <path fill="#231F20" d="M95.472 50L65 37.787 73.539 29l.05.02L104 41.206 95.472 50zM65.29 37.718l30.154 12.085 8.277-8.534-30.144-12.072-8.287 8.521z" transform="translate(-181 -206) translate(20 184) translate(161 22)"/>
                    <path fill="#231F20" d="M94.03 49L66 37.425 72.972 30 101 41.575 94.03 49zM66.288 37.359L93.99 48.796l6.729-7.148-27.7-11.438-6.73 7.149z" transform="translate(-181 -206) translate(20 184) translate(161 22)"/>
                    <path fill="#231F20" d="M83.998 44c-.811.008-1.616-.154-2.372-.476C80.006 42.828 79 41.47 79 40.001c0-2.207 2.242-4 4.998-4 .812-.004 1.618.157 2.376.475C87.994 37.18 89 38.53 89 40 89.002 42.206 86.758 44 83.998 44zm0-7.807c-2.66 0-4.821 1.709-4.821 3.808 0 1.396.963 2.678 2.513 3.34.735.314 1.518.471 2.308.463 2.661 0 4.828-1.706 4.828-3.805 0-1.39-.964-2.673-2.516-3.341-.738-.306-1.522-.46-2.312-.452v-.013zM93.999 46C92.897 46 92 45.552 92 45.003c0-.549.897-1.003 1.999-1.003S96 44.45 96 45.003c0 .553-.897.997-2.001.997zm0-1.884c-1.009 0-1.83.399-1.83.887s.819.881 1.83.881c1.01 0 1.83-.396 1.83-.88 0-.486-.822-.888-1.83-.888zM71.001 36C69.898 36 69 35.551 69 35.002c0-.549.898-1.002 2.001-1.002 1.104 0 1.999.449 1.999 1.002 0 .554-.898.998-1.999.998zm0-1.884c-1.01 0-1.832.398-1.832.886 0 .49.82.882 1.832.882s1.832-.396 1.832-.882c0-.485-.824-.886-1.832-.886z" transform="translate(-181 -206) translate(20 184) translate(161 22)"/>
                    <path fill="#12CA70" d="M105 37.693L94.507 48 61 35.311 71.504 25 105 37.693zm-10.92 8.742l8.488-8.267-30.605-11.592-8.5 8.268L94.08 46.435z" transform="translate(-181 -206) translate(20 184) translate(161 22)"/>
                    <path fill="#12CA70" d="M104 37.672L95.53 46 65 34.325 73.475 26 104 37.672zm-9.022 7.085l6.946-6.844-16.06-6.142-12.177-4.659-6.955 6.844 14.104 5.395 14.142 5.406z" transform="translate(-181 -206) translate(20 184) translate(161 22)"/>
                    <path fill="#12CA70" d="M101 38.676L93.75 45 79 40.005l.382-.871c.715.245 1.477.368 2.244.363 2.606 0 4.719-1.347 4.719-3.015 0-1.145-1-2.137-2.468-2.65l.361-.832L101 38.676zm-4.47 2.031c0-.67-.845-1.21-1.894-1.21-1.048 0-1.891.544-1.891 1.21 0 .667.845 1.206 1.889 1.206s1.896-.541 1.896-1.206z" transform="translate(-181 -206) translate(20 184) translate(161 22)"/>
                    <path fill="#12CA70" d="M93.998 39c1.108 0 2.002.447 2.002 1.002 0 .555-.894.998-2.002.998-1.11 0-1.998-.448-1.998-.998S92.894 39 93.998 39zM82.645 33.482C84.047 34.164 85 35.48 85 36.999c0 2.213-2.017 4-4.503 4-.733.007-1.46-.156-2.142-.48-1.402-.675-2.355-1.994-2.355-3.52C76 34.793 78.014 33 80.497 33c.734-.003 1.462.16 2.148.482z" transform="translate(-181 -206) translate(20 184) translate(161 22)"/>
                    <path fill="#12CA70" d="M84 30.568l-.362.882c-.722-.259-1.49-.39-2.264-.386-2.605 0-4.719 1.434-4.719 3.198 0 1.22 1 2.275 2.472 2.814l-.383.924L64 32.71 71.261 26 84 30.568zm-11.17.01c0-.711-.847-1.284-1.89-1.284-1.044 0-1.892.573-1.892 1.284 0 .712.846 1.28 1.892 1.28 1.046 0 1.888-.575 1.888-1.28h.002z" transform="translate(-181 -206) translate(20 184) translate(161 22)"/>
                    <path fill="#12CA70" d="M71.001 32c1.104 0 1.999.447 1.999 1.002 0 .555-.895.998-1.999.998-1.103 0-2.001-.448-2.001-.998S69.886 32 71.001 32z" transform="translate(-181 -206) translate(20 184) translate(161 22)"/>
                    <path fill="#231F20" d="M94.969 49l-.052-.02L60 35.8 71.049 25 106 38.204 94.969 49zM60.313 35.739l34.613 13.067 10.77-10.54-34.609-13.074-10.774 10.547z" transform="translate(-181 -206) translate(20 184) translate(161 22)"/>
                    <path fill="#231F20" d="M95.472 47L65 34.788 73.539 26l.05.018L104 38.205 95.472 47zM65.29 34.717l30.154 12.089 8.277-8.536-30.144-12.076-8.287 8.523z" transform="translate(-181 -206) translate(20 184) translate(161 22)"/>
                    <path fill="#231F20" d="M94.025 45L66 33.424 72.97 26 101 37.58 94.025 45zM66.288 33.36l27.696 11.436 6.728-7.159-27.696-11.436-6.728 7.16z" transform="translate(-181 -206) translate(20 184) translate(161 22)"/>
                    <path fill="#231F20" d="M83.998 41c-.812.008-1.617-.154-2.372-.478C80.006 39.828 79 38.467 79 37c0-2.204 2.242-4 4.998-4 .812-.003 1.618.16 2.376.478C87.994 34.182 89 35.533 89 37c.002 2.207-2.242 4-5.002 4zm0-7.807c-2.66 0-4.821 1.708-4.821 3.807 0 1.397.963 2.677 2.513 3.34.735.312 1.518.469 2.308.462 2.661 0 4.828-1.708 4.828-3.807 0-1.387-.964-2.67-2.516-3.34-.737-.31-1.522-.466-2.312-.462zM93.999 41C92.897 41 92 40.553 92 40.002c0-.55.897-1.002 1.999-1.002S96 39.45 96 40.002c0 .553-.897.998-2.001.998zm0-1.884c-1.009 0-1.83.398-1.83.886 0 .49.819.882 1.83.882 1.01 0 1.83-.394 1.83-.882 0-.487-.822-.886-1.83-.886zM71.001 34C69.898 34 69 33.553 69 33.002c0-.55.898-1.002 2.001-1.002 1.104 0 1.999.45 1.999 1.002 0 .553-.898.998-1.999.998zm0-1.884c-1.01 0-1.832.398-1.832.886 0 .49.82.882 1.832.882s1.832-.394 1.832-.882c0-.487-.824-.884-1.832-.884v-.002z" transform="translate(-181 -206) translate(20 184) translate(161 22)"/>
                    <path fill="#12CA70" d="M105 33.695L94.507 44 61 31.313 71.504 21 105 33.695zm-10.92 8.742l8.488-8.273-30.605-11.586-8.5 8.266L94.08 42.437z" transform="translate(-181 -206) translate(20 184) translate(161 22)"/>
                    <path fill="#12CA70" d="M104 34.67L95.53 43 65 31.323 73.475 23 104 34.67zm-9.022 7.085l6.946-6.842-16.06-6.144-12.177-4.657-6.955 6.846 14.104 5.393 14.142 5.404z" transform="translate(-181 -206) translate(20 184) translate(161 22)"/>
                    <path fill="#12CA70" d="M101 32.678L93.75 39 79 34.005l.382-.871c.715.245 1.477.368 2.244.363 2.606 0 4.719-1.345 4.719-3.013 0-1.145-1-2.139-2.468-2.653l.361-.831L101 32.678zm-4.47 2.031c0-.67-.845-1.212-1.894-1.212-1.048 0-1.89.542-1.89 1.212 0 .67.846 1.204 1.89 1.204s1.894-.541 1.894-1.204z" transform="translate(-181 -206) translate(20 184) translate(161 22)"/>
                    <path fill="#12CA70" d="M93.999 35c1.108 0 2.001.448 2.001 1.003 0 .555-.893.997-2.001.997C92.89 37 92 36.552 92 36.003c0-.548.896-1.003 1.999-1.003zM82.645 27.482c1.402.682 2.355 2 2.355 3.52C85 33.214 82.983 35 80.497 35c-.733.006-1.46-.157-2.142-.482C76.953 33.844 76 32.525 76 31.001 76 28.793 78.014 27 80.497 27c.734-.002 1.462.161 2.148.482z" transform="translate(-181 -206) translate(20 184) translate(161 22)"/>
                    <path fill="#12CA70" d="M84 27.565l-.362.882c-.723-.257-1.49-.388-2.264-.385-2.605 0-4.719 1.434-4.719 3.2 0 1.22 1 2.275 2.472 2.814l-.383.924L64 29.713 71.261 23 84 27.565zm-11.17.013c0-.712-.847-1.287-1.89-1.287-1.044 0-1.892.575-1.892 1.287 0 .711.846 1.278 1.892 1.278 1.046 0 1.888-.573 1.888-1.278h.002z" transform="translate(-181 -206) translate(20 184) translate(161 22)"/>
                    <path fill="#12CA70" d="M71.001 26c1.104 0 1.999.448 1.999 1.003 0 .555-.895.997-1.999.997-1.103 0-2.001-.447-2.001-.997S69.886 26 71.001 26z" transform="translate(-181 -206) translate(20 184) translate(161 22)"/>
                    <path fill="#231F20" d="M94.978 45l-.052-.02L60 31.805 71.04 21 106 34.193 94.978 45zM60.314 31.75l34.62 13.065 10.773-10.532L71.09 21.221 60.314 31.75z" transform="translate(-181 -206) translate(20 184) translate(161 22)"/>
                    <path fill="#231F20" d="M95.472 44L65 31.787 73.539 23l.05.02L104 35.206 95.472 44zM65.29 31.718l30.154 12.085 8.277-8.534-30.144-12.072-8.287 8.521z" transform="translate(-181 -206) translate(20 184) translate(161 22)"/>
                    <path fill="#231F20" d="M94.03 40L66 29.644 72.972 23 101 33.356 94.03 40zM66.288 29.584L93.99 39.818l6.729-6.406-27.7-10.234-6.73 6.406z" transform="translate(-181 -206) translate(20 184) translate(161 22)"/>
                    <path fill="#231F20" d="M83.998 35c-.812.007-1.617-.155-2.372-.478C80.006 33.826 79 32.467 79 31c0-2.207 2.242-4 4.998-4 .812-.003 1.618.158 2.376.475C87.994 28.18 89 29.531 89 31c.002 2.204-2.242 4-5.002 4zm0-7.807c-2.66 0-4.821 1.708-4.821 3.807 0 1.395.963 2.677 2.513 3.34.735.314 1.518.472 2.308.465 2.661 0 4.828-1.709 4.828-3.808 0-1.39-.964-2.669-2.516-3.34-.738-.308-1.522-.466-2.312-.464zM93.999 37C92.897 37 92 36.551 92 36.002c0-.549.897-1.002 1.999-1.002S96 35.449 96 36.002c0 .554-.897.998-2.001.998zm0-1.884c-1.009 0-1.83.398-1.83.886 0 .49.819.882 1.83.882 1.01 0 1.83-.396 1.83-.882 0-.485-.822-.886-1.83-.886zM71.001 28C69.898 28 69 27.553 69 27.002c0-.55.898-1.002 2.001-1.002 1.104 0 1.999.449 1.999 1.002 0 .554-.898.998-1.999.998zm0-1.884c-1.01 0-1.832.398-1.832.886 0 .49.82.882 1.832.882s1.832-.396 1.832-.882c0-.485-.824-.886-1.832-.886z" transform="translate(-181 -206) translate(20 184) translate(161 22)"/>
                    <path fill="#12CA70" d="M105 28.693L94.507 39 61 26.311 71.504 16 105 28.693zm-10.92 8.742l8.488-8.273-30.605-11.584-8.5 8.266L94.08 37.435z" transform="translate(-181 -206) translate(20 184) translate(161 22)"/>
                    <path fill="#12CA70" d="M104 28.67L95.527 37 65 25.323 73.477 17 104 28.67zm-9.025 7.085l6.948-6.844-16.064-6.142-12.18-4.66-6.957 6.845L80.83 30.35l14.145 5.406z" transform="translate(-181 -206) translate(20 184) translate(161 22)"/>
                    <path fill="#12CA70" d="M101 30.676L93.75 37 79 32.005l.382-.871c.715.245 1.477.368 2.244.363 2.606 0 4.719-1.345 4.719-3.015 0-1.143-1-2.137-2.468-2.65l.361-.832L101 30.676zm-4.47 2.041c0-.669-.845-1.21-1.894-1.21-1.048 0-1.891.532-1.891 1.21 0 .678.845 1.206 1.889 1.206s1.896-.551 1.896-1.206z" transform="translate(-181 -206) translate(20 184) translate(161 22)"/>
                    <path fill="#12CA70" d="M93.999 32c1.108 0 2.001.45 2.001 1.004 0 .555-.896.996-2.001.996-1.106 0-1.999-.444-1.999-.988 0-.543.896-1.012 1.999-1.012zM82.645 24.482c1.402.682 2.355 2 2.355 3.517 0 2.216-2.017 4-4.503 4-.733.007-1.46-.156-2.142-.48-1.402-.675-2.355-1.994-2.355-3.52C76 25.793 78.014 24 80.497 24c.734-.002 1.462.161 2.148.482z" transform="translate(-181 -206) translate(20 184) translate(161 22)"/>
                    <path fill="#12CA70" d="M84 25.568l-.362.882c-.723-.258-1.49-.388-2.264-.386-2.605 0-4.719 1.434-4.719 3.198 0 1.22 1 2.275 2.472 2.814l-.383.924L64 27.71 71.261 21 84 25.568zm-11.17 0c0-.71-.847-1.284-1.89-1.284-1.044 0-1.892.574-1.892 1.284 0 .709.846 1.28 1.892 1.28 1.046 0 1.888-.565 1.888-1.27l.002-.01z" transform="translate(-181 -206) translate(20 184) translate(161 22)"/>
                    <path fill="#12CA70" d="M71.001 23c1.104 0 1.999.448 1.999 1.002 0 .553-.895.998-1.999.998-1.103 0-2.001-.448-2.001-.998S69.886 23 71.001 23z" transform="translate(-181 -206) translate(20 184) translate(161 22)"/>
                    <path fill="#231F20" d="M94.969 40l-.052-.02L60 26.803 71.049 16 106 29.204 94.969 40zM60.313 26.739l34.613 13.067 10.77-10.54-34.609-13.074-10.774 10.547z" transform="translate(-181 -206) translate(20 184) translate(161 22)"/>
                    <path fill="#231F20" d="M95.472 38L65 25.788 73.539 17l.05.02L104 29.205 95.472 38zM65.29 25.717l30.154 12.1 8.277-8.536-30.144-12.087-8.287 8.523z" transform="translate(-181 -206) translate(20 184) translate(161 22)"/>
                    <path fill="#231F20" d="M94.03 37L66 25.421 72.972 18 101 29.583 94.03 37zM66.288 25.357L93.99 36.803l6.729-7.165-27.7-11.446-6.73 7.165z" transform="translate(-181 -206) translate(20 184) translate(161 22)"/>
                    <path fill="#231F20" d="M83.998 32c-.811.008-1.616-.154-2.372-.476C80.006 30.828 79 29.47 79 28c0-2.204 2.242-4 4.998-4 .812-.003 1.618.16 2.376.478C87.994 25.182 89 26.533 89 28c.002 2.207-2.242 4-5.002 4zm0-7.807c-2.66 0-4.821 1.708-4.821 3.807 0 1.397.963 2.677 2.513 3.34.735.313 1.518.47 2.308.462 2.661 0 4.828-1.708 4.828-3.807 0-1.387-.964-2.67-2.516-3.34-.737-.31-1.522-.466-2.312-.462zM93.999 34C92.897 34 92 33.552 92 33.002S92.897 32 93.999 32 96 32.45 96 33.002c0 .551-.897.998-2.001.998zm0-1.884c-1.009 0-1.83.397-1.83.886 0 .488.819.882 1.83.882 1.01 0 1.83-.396 1.83-.882 0-.487-.822-.886-1.83-.886zM71.001 26C69.898 26 69 25.552 69 25.002S69.898 24 71.001 24c1.104 0 1.999.45 1.999 1.002 0 .551-.898.998-1.999.998zm0-1.884c-1.01 0-1.832.397-1.832.886 0 .488.82.882 1.832.882s1.832-.396 1.832-.882c0-.487-.824-.886-1.832-.886z" transform="translate(-181 -206) translate(20 184) translate(161 22)"/>
                    <path fill="#12CA70" d="M93 72.693L82.502 83 49 70.311 59.504 60 93 72.693zm-10.92 8.742l8.488-8.26-30.605-11.597-8.5 8.266L82.08 81.435z" transform="translate(-181 -206) translate(20 184) translate(161 22)"/>
                    <path fill="#12CA70" d="M91 72.67L82.536 81 52 69.324 60.477 61 91 72.67zm-9.024 7.085l6.956-6.852-16.063-6.142-12.182-4.66-6.946 6.845 14.105 5.396 14.13 5.413z" transform="translate(-181 -206) translate(20 184) translate(161 22)"/>
                    <path fill="#12CA70" d="M90 73.673L82.745 80 68 75.001l.382-.87c.714.244 1.476.367 2.243.363 2.606 0 4.716-1.347 4.716-3.014 0-1.144-.998-2.136-2.467-2.65l.364-.83L90 73.673zm-4.468 2.03c0-.67-.847-1.21-1.895-1.21s-1.888.54-1.888 1.21c0 .67.847 1.206 1.888 1.206s1.886-.542 1.886-1.206h.01z" transform="translate(-181 -206) translate(20 184) translate(161 22)"/>
                    <path fill="#12CA70" d="M82.996 74c1.108 0 2.004.447 2.004 1.002 0 .555-.896.998-2.004.998S81 75.552 81 75.002 81.896 74 82.996 74zM73.644 66.482C75.047 67.164 76 68.48 76 69.999c0 2.213-2.015 4-4.504 4-.733.007-1.46-.156-2.142-.48C67.95 72.843 67 71.524 67 69.998 67 67.793 69.015 66 71.496 66c.734-.003 1.463.16 2.148.482z" transform="translate(-181 -206) translate(20 184) translate(161 22)"/>
                    <path fill="#12CA70" d="M72 65.568l-.364.882c-.723-.259-1.49-.39-2.264-.386-2.603 0-4.717 1.434-4.717 3.198 0 1.22.998 2.275 2.47 2.814l-.383.924L52 67.71 59.259 61 72 65.568zm-11.17 0c0-.71-.847-1.284-1.892-1.284-1.046 0-1.893.574-1.893 1.284 0 .709.85 1.28 1.893 1.28 1.043 0 1.892-.565 1.892-1.27v-.01z" transform="translate(-181 -206) translate(20 184) translate(161 22)"/>
                    <path fill="#12CA70" d="M60 67c1.105 0 2 .448 2 1.002 0 .553-.895.998-2 .998s-2-.448-2-.998S58.897 67 60 67z" transform="translate(-181 -206) translate(20 184) translate(161 22)"/>
                    <path fill="#231F20" d="M82.968 83l-.05-.02L48 69.8 59.039 59 94 72.204 82.968 83zM48.302 69.739l34.625 13.067L93.7 72.266 59.082 59.192l-10.78 10.547z" transform="translate(-181 -206) translate(20 184) translate(161 22)"/>
                    <path fill="#231F20" d="M82.474 81L52 68.788 60.539 60l.05.018L91 72.205 82.474 81zM52.29 68.717l30.146 12.08 8.276-8.536-30.133-12.076-8.289 8.532z" transform="translate(-181 -206) translate(20 184) translate(161 22)"/>
                    <path fill="#231F20" d="M83.03 80L55 68.424 61.977 61 90 72.587 83.03 80zM55.287 68.36l27.697 11.436 6.727-7.159-27.694-11.436-6.73 7.16z" transform="translate(-181 -206) translate(20 184) translate(161 22)"/>
                    <path fill="#231F20" d="M68.995 74c-.81.008-1.615-.153-2.37-.475C65.008 72.819 64 71.479 64 69.996 64 67.794 66.241 66 68.995 66c.813-.003 1.62.16 2.378.477 1.62.704 2.627 2.054 2.627 3.519C74 72.208 71.754 74 68.995 74zm0-7.8c-2.655 0-4.818 1.707-4.818 3.804 0 1.396.962 2.674 2.514 3.336.734.312 1.516.469 2.304.462 2.663 0 4.828-1.707 4.828-3.803 0-1.386-.965-2.667-2.514-3.337-.738-.309-1.523-.466-2.314-.462zM82.997 76c-1.1 0-1.997-.447-1.997-.998 0-.55.897-1.002 1.997-1.002S85 74.45 85 75.002c0 .553-.899.998-2.003.998zm0-1.884c-1.007 0-1.83.398-1.83.886 0 .49.819.882 1.83.882 1.01 0 1.83-.394 1.83-.882 0-.487-.82-.886-1.83-.886zM60 69c-1.102 0-2-.447-2-.998 0-.55.898-1.002 2-1.002 1.102 0 2 .45 2 1.002 0 .553-.896.998-2 .998zm0-1.884c-1.008 0-1.833.398-1.833.886 0 .49.82.882 1.833.882s1.833-.394 1.833-.882c0-.487-.825-.89-1.833-.89v.004z" transform="translate(-181 -206) translate(20 184) translate(161 22)"/>
                    <path fill="#12CA70" d="M93 68.69L82.502 79 49 66.316 59.504 56 93 68.69zm-10.92 8.745l8.488-8.276-30.605-11.58-8.5 8.268L82.08 77.435z" transform="translate(-181 -206) translate(20 184) translate(161 22)"/>
                    <path fill="#12CA70" d="M91 69.67L82.536 78 52 66.323 60.477 58 91 69.67zm-9.024 7.085l6.956-6.842-16.063-6.144-12.182-4.657-6.954 6.853 14.105 5.393 14.138 5.397z" transform="translate(-181 -206) translate(20 184) translate(161 22)"/>
                    <path fill="#12CA70" d="M90 68.678L82.754 75 68 70.005l.382-.871c.714.244 1.476.368 2.243.363 2.606 0 4.716-1.345 4.716-3.013 0-1.145-.998-2.139-2.467-2.653l.364-.831L90 68.678zm-4.468 2.031c0-.67-.847-1.212-1.895-1.212s-1.888.542-1.888 1.212c0 .67.847 1.204 1.888 1.204s1.886-.535 1.886-1.204h.01z" transform="translate(-181 -206) translate(20 184) translate(161 22)"/>
                    <path fill="#12CA70" d="M82.996 70c1.108 0 2.004.448 2.004 1.003 0 .555-.896.997-2.004.997S81 71.553 81 71.003 81.896 70 82.996 70zM73.644 63.482c1.403.682 2.356 2 2.356 3.52C76 69.214 73.985 71 71.496 71c-.733.006-1.46-.157-2.142-.482C67.95 69.844 67 68.525 67 67.001 67 64.793 69.015 63 71.496 63c.734-.002 1.462.161 2.148.482z" transform="translate(-181 -206) translate(20 184) translate(161 22)"/>
                    <path fill="#12CA70" d="M72 63.558l-.365.89c-.722-.257-1.49-.388-2.264-.385-2.604 0-4.72 1.434-4.72 3.2 0 1.22 1 2.274 2.471 2.813L66.74 71 52 65.712 59.262 59 72 63.558zm-11.175.013c0-.712-.847-1.287-1.893-1.287-1.047 0-1.894.575-1.894 1.287 0 .711.85 1.277 1.894 1.277s1.893-.572 1.893-1.277z" transform="translate(-181 -206) translate(20 184) translate(161 22)"/>
                    <path fill="#12CA70" d="M60 61c1.105 0 2 .448 2 1.003 0 .555-.895.997-2 .997s-2-.447-2-.997S58.897 61 60 61z" transform="translate(-181 -206) translate(20 184) translate(161 22)"/>
                    <path fill="#231F20" d="M82.968 80l-.05-.018L48 66.802 59.039 56 94 69.205 82.968 80zM48.302 66.74l34.625 13.068L93.7 69.268 59.082 56.197 48.302 66.74z" transform="translate(-181 -206) translate(20 184) translate(161 22)"/>
                    <path fill="#231F20" d="M82.474 79L52 66.787 60.539 58l.05.02L91 70.206 82.474 79zM52.29 66.718l30.146 12.079 8.276-8.535-30.133-12.065-8.289 8.521z" transform="translate(-181 -206) translate(20 184) translate(161 22)"/>
                    <path fill="#231F20" d="M83.03 78L55 66.425 61.977 59 90 70.575 83.03 78zM55.287 66.359l27.697 11.437 6.727-7.16L62.018 59.2l-6.73 7.16z" transform="translate(-181 -206) translate(20 184) translate(161 22)"/>
                    <path fill="#231F20" d="M68.995 71c-.811.004-1.616-.162-2.37-.488C65.008 69.817 64 68.46 64 66.995 64 64.79 66.241 63 68.995 63c.813-.003 1.62.157 2.378.475 1.62.703 2.627 2.052 2.627 3.52C74 69.206 71.754 71 68.995 71zm0-7.797c-2.655 0-4.818 1.706-4.818 3.802 0 1.393.962 2.674 2.514 3.335.734.314 1.516.472 2.304.465 2.663 0 4.828-1.706 4.828-3.802 0-1.388-.965-2.666-2.514-3.336-.738-.309-1.523-.466-2.314-.464zM82.997 72c-1.1 0-1.997-.447-1.997-.998 0-.55.897-1.002 1.997-1.002S85 70.449 85 71.002c0 .554-.899.998-2.003.998zm0-1.884c-1.007 0-1.83.398-1.83.886 0 .49.819.882 1.83.882 1.01 0 1.83-.396 1.83-.882 0-.485-.82-.886-1.83-.886zM60 63c-1.102 0-2-.447-2-.998 0-.55.898-1.002 2-1.002 1.102 0 2 .449 2 1.002 0 .554-.896.998-2 .998zm0-1.884c-1.008 0-1.833.398-1.833.886 0 .49.82.882 1.833.882s1.833-.396 1.833-.882c0-.485-.825-.886-1.833-.886z" transform="translate(-181 -206) translate(20 184) translate(161 22)"/>
                    <path fill="#12CA70" d="M93 64.693L82.502 75 49 62.311 59.504 52 93 64.693zm-10.92 8.742l8.488-8.273-30.605-11.584-8.5 8.273L82.08 73.435z" transform="translate(-181 -206) translate(20 184) translate(161 22)"/>
                    <path fill="#12CA70" d="M91 64.668L82.536 73 52 61.326 60.477 53 91 64.668zm-9.025 7.086l6.957-6.846-16.064-6.144-12.183-4.66-6.946 6.846 14.106 5.397 14.13 5.407z" transform="translate(-181 -206) translate(20 184) translate(161 22)"/>
                    <path fill="#12CA70" d="M90 64.676L82.754 71 68 66.005l.382-.871c.714.244 1.476.368 2.243.363 2.606 0 4.716-1.345 4.716-3.015 0-1.143-.998-2.137-2.467-2.65l.364-.832L90 64.676zm-4.468 2.031c0-.668-.847-1.21-1.895-1.21s-1.888.542-1.888 1.21c0 .669.847 1.206 1.888 1.206s1.886-.541 1.886-1.206h.01z" transform="translate(-181 -206) translate(20 184) translate(161 22)"/>
                    <path fill="#12CA70" d="M82.996 67c1.108 0 2.004.448 2.004 1.002 0 .553-.896.998-2.004.998S81 68.552 81 68.002 81.896 67 82.996 67zM73.644 60.482c1.403.682 2.356 2 2.356 3.517 0 2.216-2.015 4-4.504 4-.733.007-1.46-.156-2.142-.48C67.95 66.843 67 65.524 67 63.998 67 61.793 69.015 60 71.496 60c.734-.002 1.462.161 2.148.482z" transform="translate(-181 -206) translate(20 184) translate(161 22)"/>
                    <path fill="#12CA70" d="M72 60.568l-.364.882c-.723-.258-1.49-.388-2.264-.386-2.603 0-4.717 1.434-4.717 3.198 0 1.22.998 2.275 2.47 2.814l-.383.924L52 62.71 59.259 56 72 60.568zm-11.17 0c0-.71-.847-1.284-1.892-1.284-1.046 0-1.893.574-1.893 1.284 0 .709.85 1.28 1.893 1.28 1.043 0 1.892-.565 1.892-1.27v-.01z" transform="translate(-181 -206) translate(20 184) translate(161 22)"/>
                    <path fill="#12CA70" d="M60 58c1.105 0 2 .448 2 1.002 0 .553-.895.998-2 .998s-2-.448-2-.998S58.897 58 60 58z" transform="translate(-181 -206) translate(20 184) translate(161 22)"/>
                    <path fill="#231F20" d="M82.968 75l-.05-.02L48 61.803 59.039 51 94 64.204 82.968 75zM48.302 61.734l34.625 13.067L93.7 64.263 59.082 51.192l-10.78 10.542z" transform="translate(-181 -206) translate(20 184) translate(161 22)"/>
                    <path fill="#231F20" d="M82.474 73L52 60.788 60.539 52l.05.02L91 64.205 82.474 73zM52.29 60.717l30.146 12.08 8.276-8.536-30.133-12.067-8.289 8.523z" transform="translate(-181 -206) translate(20 184) translate(161 22)"/>
                    <path fill="#231F20" d="M83.03 72L55 60.423 61.977 53 90 64.575 83.03 72zM55.287 60.359l27.697 11.437 6.727-7.16L62.018 53.2l-6.73 7.16z" transform="translate(-181 -206) translate(20 184) translate(161 22)"/>
                    <path fill="#231F20" d="M68.995 68c-.81.008-1.615-.154-2.37-.476C65.008 66.828 64 65.47 64 64 64 61.794 66.241 60 68.995 60c.813-.003 1.62.158 2.378.476C72.993 61.18 74 62.53 74 63.999c0 2.207-2.246 4-5.005 4zm0-7.807c-2.655 0-4.818 1.706-4.818 3.806 0 1.398.962 2.677 2.514 3.34.734.314 1.516.471 2.304.463 2.663 0 4.828-1.709 4.828-3.809 0-1.387-.965-2.67-2.514-3.34-.738-.309-1.523-.465-2.314-.46zM82.997 70c-1.1 0-1.997-.448-1.997-.998S81.897 68 82.997 68 85 68.45 85 69.002c0 .551-.899.998-2.003.998zm0-1.884c-1.007 0-1.83.397-1.83.886 0 .488.819.88 1.83.88 1.01 0 1.83-.394 1.83-.88 0-.487-.82-.886-1.83-.886zM60 60c-1.102 0-2-.448-2-.998S58.898 58 60 58c1.102 0 2 .45 2 1.002 0 .551-.896.998-2 .998zm0-1.884c-1.008 0-1.833.397-1.833.886 0 .488.82.882 1.833.882s1.833-.396 1.833-.882c0-.487-.825-.886-1.833-.886z" transform="translate(-181 -206) translate(20 184) translate(161 22)"/>
                    <path fill="#12CA70" d="M93 61.69L82.502 72 49 59.31 59.504 49 93 61.69zm-10.92 8.74l8.488-8.27-30.605-11.583-8.5 8.264L82.08 70.429z" transform="translate(-181 -206) translate(20 184) translate(161 22)"/>
                    <path fill="#12CA70" d="M91 61.67L82.536 70 52 58.323 60.477 50 91 61.67zm-9.024 7.085l6.956-6.838-16.063-6.144-12.182-4.657-6.946 6.844 14.105 5.393 14.13 5.402z" transform="translate(-181 -206) translate(20 184) translate(161 22)"/>
                    <path fill="#12CA70" d="M90 62.679L82.754 69 68 64.001l.382-.87c.714.245 1.475.368 2.243.363 2.606 0 4.716-1.345 4.716-3.012 0-1.144-.998-2.138-2.467-2.651l.364-.831L90 62.679zm-4.468 2.03c0-.67-.847-1.211-1.895-1.211s-1.888.541-1.888 1.211.847 1.206 1.888 1.206 1.886-.546 1.886-1.21l.01.004z" transform="translate(-181 -206) translate(20 184) translate(161 22)"/>
                    <path fill="#12CA70" d="M82.996 62c1.108 0 2.004.448 2.004 1.002 0 .555-.896.998-2.004.998S81 63.552 81 63.002 81.896 62 82.996 62zM73.644 54.48C75.047 55.16 76 56.48 76 58c0 2.214-2.015 4-4.504 4-.733.007-1.46-.156-2.142-.482C67.95 60.844 67 59.528 67 58c0-2.21 2.015-4 4.496-4 .734-.003 1.462.16 2.148.48z" transform="translate(-181 -206) translate(20 184) translate(161 22)"/>
                    <path fill="#12CA70" d="M72 54.566l-.364.882c-.723-.256-1.49-.386-2.264-.383-2.603 0-4.717 1.432-4.717 3.198 0 1.221.998 2.274 2.47 2.813l-.383.924L52 56.712 59.259 50 72 54.566zm-11.17.013c0-.712-.847-1.286-1.892-1.286-1.046 0-1.893.574-1.893 1.286 0 .712.85 1.28 1.893 1.28 1.043 0 1.892-.575 1.892-1.28z" transform="translate(-181 -206) translate(20 184) translate(161 22)"/>
                    <path fill="#12CA70" d="M60 56c1.105 0 2 .448 2 1.002 0 .555-.895.998-2 .998s-2-.448-2-.998S58.897 56 60 56z" transform="translate(-181 -206) translate(20 184) translate(161 22)"/>
                    <path fill="#231F20" d="M82.968 71l-.05-.018L48 57.802 59.039 47 94 60.205 82.968 71zM48.302 57.74l34.625 13.068L93.7 60.267 59.082 47.192 48.302 57.74z" transform="translate(-181 -206) translate(20 184) translate(161 22)"/>
                    <path fill="#231F20" d="M82.474 70L52 57.788 60.539 49l.05.018L91 61.205 82.474 70zM52.29 57.717l30.146 12.08 8.276-8.527-30.133-12.076-8.289 8.523z" transform="translate(-181 -206) translate(20 184) translate(161 22)"/>
                    <path fill="#231F20" d="M83.023 69L55 57.425 61.977 50 90 61.577 83.023 69zM55.282 57.361L82.978 68.8l6.727-7.16L62.011 50.2l-6.729 7.16z" transform="translate(-181 -206) translate(20 184) translate(161 22)"/>
                    <path fill="#231F20" d="M68.995 62c-.81.007-1.615-.155-2.37-.478C65.008 60.826 64 59.467 64 58c0-2.207 2.241-4 4.995-4 .813-.004 1.62.158 2.378.478C72.993 55.182 74 56.533 74 58c0 2.204-2.246 4-5.005 4zm0-7.807c-2.655 0-4.818 1.708-4.818 3.807 0 1.395.962 2.677 2.514 3.34.734.312 1.516.469 2.304.462 2.663 0 4.828-1.708 4.828-3.807 0-1.387-.965-2.67-2.514-3.34-.738-.308-1.523-.465-2.314-.462zM82.997 64c-1.1 0-1.997-.447-1.997-.998 0-.55.897-1.002 1.997-1.002S85 62.45 85 63.002c0 .553-.899.998-2.003.998zm0-1.884c-1.007 0-1.83.398-1.83.886 0 .49.819.882 1.83.882 1.01 0 1.83-.396 1.83-.882 0-.485-.82-.886-1.83-.886zM60 58c-1.102 0-2-.447-2-.998 0-.55.898-1.002 2-1.002 1.102 0 2 .45 2 1.002 0 .553-.896.998-2 .998zm0-1.884c-1.008 0-1.833.398-1.833.886 0 .49.82.882 1.833.882s1.833-.396 1.833-.882c0-.485-.825-.886-1.833-.886z" transform="translate(-181 -206) translate(20 184) translate(161 22)"/>
                    <path fill="#12CA70" d="M93 57.693L82.502 68 49 55.311 59.504 45 93 57.693zm-10.92 8.742l8.488-8.273-30.605-11.584-8.5 8.266L82.08 66.435z" transform="translate(-181 -206) translate(20 184) translate(161 22)"/>
                    <path fill="#12CA70" d="M91 58.66L82.536 67 52 55.323 60.477 47 91 58.66zm-9.024 7.084l6.956-6.844-16.063-6.142-12.191-4.65-6.945 6.842 14.105 5.395 14.138 5.4z" transform="translate(-181 -206) translate(20 184) translate(161 22)"/>
                    <path fill="#12CA70" d="M90 56.673L82.754 63 68 58.008l.382-.871c.714.245 1.476.368 2.243.363 2.606 0 4.716-1.346 4.716-3.015 0-1.145-.998-2.14-2.467-2.653l.364-.832L90 56.673zm-4.468 2.032c0-.669-.847-1.21-1.895-1.21s-1.888.541-1.888 1.21c0 .669.847 1.207 1.888 1.207s1.886-.542 1.886-1.207h.01z" transform="translate(-181 -206) translate(20 184) translate(161 22)"/>
                    <path fill="#12CA70" d="M82.996 59c1.108 0 2.004.448 2.004 1.002 0 .553-.896.998-2.004.998S81 60.552 81 60.002 81.896 59 82.996 59zM73.644 51.482c1.403.682 2.356 2 2.356 3.52C76 57.214 73.985 59 71.496 59c-.733.006-1.46-.157-2.142-.482C67.95 57.844 67 56.525 67 55.001 67 52.793 69.015 51 71.496 51c.734-.002 1.462.161 2.148.482z" transform="translate(-181 -206) translate(20 184) translate(161 22)"/>
                    <path fill="#12CA70" d="M72 51.56l-.365.882c-.722-.257-1.49-.388-2.264-.385-2.604 0-4.72 1.434-4.72 3.2 0 1.219 1 2.274 2.471 2.812L66.75 59 52 53.71 59.262 47 72 51.56zm-11.175 0c0-.71-.847-1.284-1.893-1.284-1.047 0-1.894.575-1.894 1.284 0 .71.85 1.28 1.894 1.28s1.893-.564 1.893-1.27v-.01z" transform="translate(-181 -206) translate(20 184) translate(161 22)"/>
                    <path fill="#12CA70" d="M60 50c1.105 0 2 .448 2 1.002 0 .553-.895.998-2 .998s-2-.448-2-.998S58.897 50 60 50z" transform="translate(-181 -206) translate(20 184) translate(161 22)"/>
                    <path fill="#231F20" d="M82.968 69l-.05-.02L48 55.797 59.039 45 94 58.21 82.968 69zM48.302 55.733l34.625 13.075L93.7 58.263l-34.618-13.08-10.78 10.55z" transform="translate(-181 -206) translate(20 184) translate(161 22)"/>
                    <path fill="#231F20" d="M82.474 68L52 55.788 60.539 47l.05.02L91 59.205 82.474 68zM52.29 55.717l30.146 12.08 8.276-8.536-30.133-12.064-8.289 8.52z" transform="translate(-181 -206) translate(20 184) translate(161 22)"/>
                    <path fill="#231F20" d="M83.03 65L55 53.426 61.977 46 90 57.576 83.03 65zM55.287 53.357l27.697 11.44 6.727-7.161-27.694-11.44-6.73 7.161z" transform="translate(-181 -206) translate(20 184) translate(161 22)"/>
                    <path fill="#231F20" d="M68.995 59c-.81.008-1.615-.154-2.37-.476C65.008 57.828 64 56.47 64 55.001c0-2.207 2.241-4 4.995-4 .813-.004 1.62.157 2.378.475C72.993 52.18 74 53.53 74 55 74 57.206 71.754 59 68.995 59zm0-7.807c-2.655 0-4.818 1.706-4.818 3.808 0 1.396.962 2.678 2.514 3.34.734.315 1.516.472 2.304.463 2.663 0 4.828-1.706 4.828-3.805 0-1.39-.965-2.673-2.514-3.341-.738-.31-1.523-.468-2.314-.465zM82.997 61c-1.1 0-1.997-.446-1.997-.994S81.901 59 82.997 59c1.095 0 2.003.448 2.003.997 0 .55-.899 1.003-2.003 1.003zm0-1.875c-1.007 0-1.83.395-1.83.881s.819.879 1.83.879c1.01 0 1.83-.394 1.83-.879 0-.484-.82-.886-1.83-.886v.005zM60 52c-1.102 0-2-.448-2-.998S58.898 50 60 50c1.102 0 2 .45 2 1.002 0 .551-.896.998-2 .998zm0-1.884c-1.008 0-1.833.399-1.833.886 0 .486.82.882 1.833.882s1.833-.396 1.833-.882c0-.487-.825-.883-1.833-.883v-.003z" transform="translate(-181 -206) translate(20 184) translate(161 22)"/>
                    <path fill="#12CA70" d="M93 52.694L82.502 63 49 50.312 59.504 40 93 52.694zm-10.92 8.741l8.488-8.272-30.605-11.585-8.5 8.268 30.618 11.59z" transform="translate(-181 -206) translate(20 184) translate(161 22)"/>
                    <path fill="#12CA70" d="M91 52.67L82.536 61 52 49.325 60.477 41 91 52.67zm-9.024 7.085l6.956-6.842-16.072-6.134-12.182-4.656-6.945 6.844 14.105 5.395 14.138 5.393z" transform="translate(-181 -206) translate(20 184) translate(161 22)"/>
                    <path fill="#12CA70" d="M90 54.677L82.754 61 68 56.006l.382-.871c.715.244 1.476.366 2.243.36 2.606 0 4.716-1.344 4.716-3.012 0-1.144-.998-2.136-2.467-2.65l.364-.833L90 54.677zm-4.468 2.03c0-.67-.847-1.211-1.895-1.211s-1.888.541-1.888 1.212c0 .67.847 1.206 1.888 1.206s1.886-.542 1.886-1.206h.01z" transform="translate(-181 -206) translate(20 184) translate(161 22)"/>
                    <path fill="#12CA70" d="M82.996 56c1.108 0 2.004.448 2.004 1.002 0 .555-.896.998-2.004.998S81 57.552 81 57.002 81.896 56 82.996 56zM73.644 47.482C75.047 48.164 76 49.48 76 51c0 2.214-2.015 4-4.504 4-.733.007-1.46-.156-2.142-.48C67.95 53.847 67 52.528 67 51c0-2.207 2.015-4 4.496-4 .734-.003 1.463.16 2.148.482z" transform="translate(-181 -206) translate(20 184) translate(161 22)"/>
                    <path fill="#12CA70" d="M72 48.566l-.364.884c-.723-.259-1.49-.39-2.264-.386-2.603 0-4.717 1.434-4.717 3.198 0 1.22.998 2.275 2.47 2.814l-.383.924L52 50.71 59.259 44 72 48.566zm-11.17.012c0-.711-.847-1.286-1.892-1.286-1.046 0-1.893.575-1.893 1.286 0 .712.85 1.28 1.893 1.28 1.043 0 1.892-.585 1.892-1.292v.012z" transform="translate(-181 -206) translate(20 184) translate(161 22)"/>
                    <path fill="#12CA70" d="M60 47c1.105 0 2 .448 2 1.002 0 .555-.895.998-2 .998s-2-.448-2-.998S58.897 47 60 47z" transform="translate(-181 -206) translate(20 184) translate(161 22)"/>
                    <path fill="#231F20" d="M82.968 64l-.05-.02L48 50.8 59.039 40 94 53.204 82.968 64zM48.302 50.739l34.625 13.067L93.7 53.266 59.082 40.192l-10.78 10.547z" transform="translate(-181 -206) translate(20 184) translate(161 22)"/>
                    <path fill="#231F20" d="M82.474 62L52 49.788 60.539 41l.05.018L91 53.205 82.474 62zM52.29 49.717l30.146 12.082 8.276-8.538-30.133-12.067-8.289 8.523z" transform="translate(-181 -206) translate(20 184) translate(161 22)"/>
                    <path fill="#231F20" d="M83.023 61L55 49.425 61.977 42 90 53.577 83.023 61zM55.282 49.361L82.978 60.8l6.727-7.16L62.011 42.2l-6.729 7.16z" transform="translate(-181 -206) translate(20 184) translate(161 22)"/>
                    <path fill="#231F20" d="M68.995 55c-.81.008-1.615-.154-2.37-.478C65.008 53.826 64 52.467 64 51c0-2.204 2.241-4 4.995-4 .813-.003 1.62.16 2.378.478C72.993 48.182 74 49.533 74 51c0 2.207-2.246 4-5.005 4zm0-7.807c-2.655 0-4.818 1.708-4.818 3.807 0 1.395.962 2.677 2.514 3.34.734.312 1.516.469 2.304.462 2.663 0 4.828-1.708 4.828-3.807 0-1.387-.965-2.67-2.514-3.34-.738-.31-1.523-.466-2.314-.462zM82.997 58c-1.1 0-1.997-.447-1.997-.998 0-.55.897-1.002 1.997-1.002S85 56.45 85 57.002c0 .553-.899.998-2.003.998zm0-1.884c-1.007 0-1.83.398-1.83.886 0 .49.819.882 1.83.882 1.01 0 1.83-.396 1.83-.882 0-.485-.82-.886-1.83-.886zM60 49c-1.102 0-2-.447-2-.998 0-.55.898-1.002 2-1.002 1.102 0 2 .45 2 1.002 0 .553-.896.998-2 .998zm0-1.884c-1.008 0-1.833.398-1.833.886 0 .49.82.882 1.833.882s1.833-.396 1.833-.882c0-.485-.825-.886-1.833-.886z" transform="translate(-181 -206) translate(20 184) translate(161 22)"/>
                    <path fill="#12CA70" d="M93 48.693L82.502 59 49 46.311 59.504 36 93 48.693zm-10.92 8.744l8.488-8.275-30.605-11.588-8.5 8.268L82.08 57.437z" transform="translate(-181 -206) translate(20 184) translate(161 22)"/>
                    <path fill="#12CA70" d="M91 50.67L82.536 59 52 47.323 60.477 39 91 50.67zm-9.024 7.085l6.956-6.844-16.063-6.142-12.182-4.657-6.946 6.844 14.105 5.393 14.13 5.406z" transform="translate(-181 -206) translate(20 184) translate(161 22)"/>
                    <path fill="#12CA70" d="M90 50.676L82.754 57 68 52.005l.382-.871c.714.244 1.476.368 2.243.363 2.606 0 4.716-1.345 4.716-3.013 0-1.145-.998-2.139-2.467-2.653l.364-.831L90 50.676zm-4.468 2.033c0-.67-.847-1.212-1.895-1.212s-1.888.542-1.888 1.212c0 .67.847 1.204 1.888 1.204s1.886-.541 1.886-1.204h.01z" transform="translate(-181 -206) translate(20 184) translate(161 22)"/>
                    <path fill="#12CA70" d="M82.996 51c1.108 0 2.004.448 2.004 1.003 0 .555-.896.997-2.004.997S81 52.552 81 52.003c0-.548.896-1.003 1.996-1.003zM73.644 42.482c1.403.682 2.356 2 2.356 3.52C76 48.214 73.985 50 71.496 50c-.733.006-1.46-.157-2.142-.482C67.95 48.844 67 47.525 67 46.001 67 43.793 69.015 42 71.496 42c.734-.002 1.462.161 2.148.482z" transform="translate(-181 -206) translate(20 184) translate(161 22)"/>
                    <path fill="#12CA70" d="M72 43.566l-.364.882c-.723-.257-1.49-.388-2.264-.385-2.603 0-4.717 1.434-4.717 3.2 0 1.22.998 2.274 2.47 2.813l-.383.924L52 45.712 59.259 39 72 43.566zm-11.17.013c0-.712-.847-1.286-1.892-1.286-1.046 0-1.893.574-1.893 1.286 0 .712.85 1.278 1.893 1.278 1.043 0 1.892-.575 1.892-1.278z" transform="translate(-181 -206) translate(20 184) translate(161 22)"/>
                    <path fill="#12CA70" d="M60 43c1.105 0 2 .448 2 1.003 0 .555-.895.997-2 .997s-2-.448-2-.997c0-.548.897-1.003 2-1.003z" transform="translate(-181 -206) translate(20 184) translate(161 22)"/>
                    <path fill="#231F20" d="M82.968 60l-.05-.02L48 46.803 59.039 36 94 49.204 82.968 60zM48.302 46.739l34.625 13.069L93.7 49.268 59.082 36.194 48.302 46.74z" transform="translate(-181 -206) translate(20 184) translate(161 22)"/>
                    <path fill="#231F20" d="M82.474 59L52 46.785 60.539 38l.05.02L91 50.203 82.474 59zM52.29 46.72L82.436 58.8l8.276-8.534-30.133-12.07-8.289 8.525z" transform="translate(-181 -206) translate(20 184) translate(161 22)"/>
                    <path fill="#231F20" d="M83.023 58L55 46.425 61.977 39 90 50.575 83.023 58zM55.282 46.359l27.696 11.437 6.727-7.157L62.011 39.2l-6.729 7.158z" transform="translate(-181 -206) translate(20 184) translate(161 22)"/>
                    <path fill="#231F20" d="M68.995 50c-.81.007-1.615-.155-2.37-.478C65.008 48.826 64 47.467 64 46c0-2.207 2.241-4 4.995-4 .813-.003 1.62.158 2.378.475C72.993 43.18 74 44.531 74 46c0 2.204-2.246 4-5.005 4zm0-7.807c-2.655 0-4.818 1.708-4.818 3.807 0 1.395.962 2.677 2.514 3.34.734.314 1.516.472 2.304.465 2.663 0 4.828-1.709 4.828-3.808 0-1.39-.965-2.671-2.514-3.34-.738-.309-1.523-.466-2.314-.462v-.002zM82.997 52c-1.1 0-1.997-.449-1.997-.998 0-.549.897-1.002 1.997-1.002S85 50.449 85 51.002c0 .554-.899.998-2.003.998zm0-1.884c-1.007 0-1.83.398-1.83.886 0 .49.819.882 1.83.882 1.01 0 1.83-.396 1.83-.882 0-.485-.82-.886-1.83-.886zM60 46c-1.102 0-2-.449-2-.998 0-.549.898-1.002 2-1.002 1.102 0 2 .449 2 1.002 0 .554-.896.998-2 .998zm0-1.884c-1.008 0-1.833.398-1.833.886 0 .49.82.882 1.833.882s1.833-.396 1.833-.882c0-.485-.825-.886-1.833-.886z" transform="translate(-181 -206) translate(20 184) translate(161 22)"/>
                    <path fill="#12CA70" d="M93 46.693L82.502 57 49 44.311 59.504 34 93 46.693zm-10.92 8.742l8.488-8.275-30.605-11.582-8.5 8.266L82.08 55.435z" transform="translate(-181 -206) translate(20 184) translate(161 22)"/>
                    <path fill="#12CA70" d="M91 46.67L82.536 55 52 43.324 60.477 35 91 46.67zm-9.024 7.085l6.956-6.837-16.063-6.142-12.182-4.66-6.946 6.845 14.105 5.396 14.13 5.398z" transform="translate(-181 -206) translate(20 184) translate(161 22)"/>
                    <path fill="#12CA70" d="M90 45.68L82.745 52 68 47.01l.382-.872c.714.245 1.476.368 2.243.363 2.606 0 4.716-1.346 4.716-3.017 0-1.146-.998-2.138-2.467-2.652l.364-.832L90 45.68zm-4.477 2.032c0-.669-.847-1.21-1.895-1.21s-1.888.541-1.888 1.21c0 .67.847 1.207 1.888 1.207s1.895-.542 1.895-1.207z" transform="translate(-181 -206) translate(20 184) translate(161 22)"/>
                    <path fill="#12CA70" d="M82.996 48c1.108 0 2.004.448 2.004 1.002 0 .553-.896.998-2.004.998S81 49.552 81 49.002 81.896 48 82.996 48zM73.644 40.482C75.047 41.164 76 42.48 76 43.999c0 2.216-2.015 4-4.504 4-.733.007-1.46-.156-2.142-.48C67.95 46.843 67 45.524 67 43.998 67 41.793 69.015 40 71.496 40c.734-.003 1.463.16 2.148.482z" transform="translate(-181 -206) translate(20 184) translate(161 22)"/>
                    <path fill="#12CA70" d="M72 39.568l-.364.882c-.723-.259-1.49-.39-2.264-.386-2.603 0-4.717 1.434-4.717 3.198 0 1.22.998 2.275 2.47 2.814l-.383.924L52 41.71 59.259 35 72 39.568zm-11.17.01c0-.71-.847-1.284-1.892-1.284-1.046 0-1.893.575-1.893 1.284 0 .71.85 1.28 1.893 1.28 1.043 0 1.892-.564 1.892-1.28z" transform="translate(-181 -206) translate(20 184) translate(161 22)"/>
                    <path fill="#12CA70" d="M60 39c1.105 0 2 .448 2 1.002 0 .553-.895.998-2 .998s-2-.448-2-.998S58.897 39 60 39z" transform="translate(-181 -206) translate(20 184) translate(161 22)"/>
                    <path fill="#231F20" d="M82.968 57l-.05-.02L48 43.8 59.039 33 94 46.204 82.968 57zM48.302 43.739l34.625 13.067L93.7 46.276 59.082 33.193l-10.78 10.547z" transform="translate(-181 -206) translate(20 184) translate(161 22)"/>
                    <path fill="#231F20" d="M82.474 55L52 42.788 60.539 34l.05.02L91 46.205 82.474 55zM52.29 42.717l30.146 12.089 8.276-8.536-30.133-12.076-8.289 8.523z" transform="translate(-181 -206) translate(20 184) translate(161 22)"/>
                    <path fill="#231F20" d="M83.03 52L55 41.642 61.977 35 90 45.352 83.03 52zM55.287 41.584l27.697 10.234 6.727-6.406-27.694-10.234-6.73 6.406z" transform="translate(-181 -206) translate(20 184) translate(161 22)"/>
                    <path fill="#231F20" d="M68.995 48c-.81.008-1.615-.154-2.37-.476C65.008 46.828 64 45.47 64 44c0-2.204 2.241-4 4.995-4 .813-.003 1.62.16 2.378.478C72.993 41.182 74 42.533 74 44c0 2.207-2.246 4-5.005 4zm0-7.807c-2.655 0-4.818 1.708-4.818 3.807 0 1.397.962 2.677 2.514 3.34.734.312 1.516.469 2.304.462 2.663 0 4.828-1.708 4.828-3.807 0-1.387-.965-2.67-2.514-3.34-.738-.31-1.523-.466-2.314-.462zM82.997 50c-1.1 0-1.997-.447-1.997-.998 0-.55.897-1.002 1.997-1.002S85 48.45 85 49.002c0 .553-.899.998-2.003.998zm0-1.884c-1.007 0-1.83.398-1.83.886 0 .49.819.882 1.83.882 1.01 0 1.83-.394 1.83-.882 0-.487-.82-.886-1.83-.886zM60 41c-1.102 0-2-.447-2-.998 0-.55.898-1.002 2-1.002 1.102 0 2 .45 2 1.002 0 .553-.896.998-2 .998zm0-1.884c-1.008 0-1.833.398-1.833.886 0 .49.82.882 1.833.882s1.833-.394 1.833-.882c0-.487-.825-.886-1.833-.886z" transform="translate(-181 -206) translate(20 184) translate(161 22)"/>
                    <path fill="#12CA70" d="M93 40.694L82.502 51 49 38.312 59.504 28 93 40.694zm-10.92 8.741l8.488-8.272-30.605-11.579-8.5 8.266L82.08 49.435z" transform="translate(-181 -206) translate(20 184) translate(161 22)"/>
                    <path fill="#12CA70" d="M91 41.668L82.536 50 52 38.32 60.479 30 91 41.668zm-9.024 7.086l6.956-6.844-16.063-6.146-12.182-4.658-6.954 6.84 14.105 5.394 14.138 5.414z" transform="translate(-181 -206) translate(20 184) translate(161 22)"/>
                    <path fill="#12CA70" d="M90 41.678L82.754 48 68 43.005l.382-.871c.714.244 1.476.368 2.243.363 2.606 0 4.716-1.345 4.716-3.013 0-1.145-.998-2.139-2.467-2.653l.364-.831L90 41.678zm-4.477 2.031c0-.67-.847-1.212-1.895-1.212s-1.888.542-1.888 1.212c0 .67.847 1.206 1.888 1.206s1.895-.541 1.895-1.206z" transform="translate(-181 -206) translate(20 184) translate(161 22)"/>
                    <path fill="#12CA70" d="M82.996 44c1.108 0 2.004.448 2.004 1.002 0 .555-.896.998-2.004.998S81 45.552 81 45.002 81.896 44 82.996 44zM73.644 36.48C75.047 37.16 76 38.48 76 40c0 2.214-2.015 4-4.504 4-.733.006-1.46-.157-2.142-.482C67.95 42.844 67 41.525 67 40c0-2.21 2.015-4 4.496-4 .734-.003 1.462.16 2.148.48z" transform="translate(-181 -206) translate(20 184) translate(161 22)"/>
                    <path fill="#12CA70" d="M72 37.573l-.365.875c-.722-.256-1.49-.386-2.264-.383-2.604 0-4.72 1.432-4.72 3.198 0 1.22 1 2.274 2.471 2.813L66.74 45 52 39.712 59.262 33 72 37.573zm-11.175.012c0-.711-.847-1.286-1.893-1.286-1.047 0-1.894.575-1.894 1.286 0 .712.85 1.28 1.894 1.28s1.893-.574 1.893-1.28z" transform="translate(-181 -206) translate(20 184) translate(161 22)"/>
                    <path fill="#12CA70" d="M60 35c1.105 0 2 .447 2 1 0 .554-.895 1-2 1s-2-.447-2-.996c0-.549.897-1.004 2-1.004z" transform="translate(-181 -206) translate(20 184) translate(161 22)"/>
                    <path fill="#231F20" d="M82.968 51l-.05-.018L48 37.802 59.039 27 94 40.206 82.968 51zM48.302 37.741l34.625 13.065L93.7 40.266 59.082 27.192l-10.78 10.549z" transform="translate(-181 -206) translate(20 184) translate(161 22)"/>
                    <path fill="#231F20" d="M82.474 50L52 37.787 60.539 29l.05.02L91 41.206 82.474 50zM52.29 37.718l30.146 12.079 8.276-8.535-30.133-12.065-8.289 8.521z" transform="translate(-181 -206) translate(20 184) translate(161 22)"/>
                    <path fill="#231F20" d="M83.023 50L55 38.425 61.977 31 90 42.575 83.023 50zM55.282 38.361L82.978 49.8l6.727-7.16L62.011 31.2l-6.729 7.16z" transform="translate(-181 -206) translate(20 184) translate(161 22)"/>
                    <path fill="#231F20" d="M68.995 44c-.81.007-1.615-.155-2.37-.478C65.008 42.826 64 41.467 64 40c0-2.207 2.241-4 4.995-4 .813-.003 1.62.158 2.378.475 1.62.704 2.627 2.056 2.627 3.522C74 42.202 71.754 44 68.995 44zm0-7.807c-2.655 0-4.818 1.708-4.818 3.807 0 1.395.962 2.677 2.514 3.34.734.314 1.516.472 2.304.465 2.663 0 4.828-1.709 4.828-3.808 0-1.39-.965-2.669-2.514-3.34-.738-.311-1.522-.471-2.314-.472v.008zM82.997 46c-1.1 0-1.997-.447-1.997-.998 0-.55.897-1.002 1.997-1.002S85 44.449 85 45.002c0 .554-.899.998-2.003.998zm0-1.884c-1.007 0-1.83.398-1.83.886 0 .49.819.882 1.83.882 1.01 0 1.83-.396 1.83-.882 0-.485-.82-.881-1.83-.881v-.005zM60 37c-1.102 0-2-.447-2-.998 0-.55.898-1.002 2-1.002 1.102 0 2 .449 2 1.002 0 .554-.896.998-2 .998zm0-1.884c-1.008 0-1.833.398-1.833.886 0 .49.82.882 1.833.882s1.833-.396 1.833-.882c0-.485-.825-.886-1.833-.886z" transform="translate(-181 -206) translate(20 184) translate(161 22)"/>
                    <g fill="#52AAFF" opacity=".44">
                        <path d="M67.987.209L67.987 46.333 45.074 68.931 45.074 22.807zM45.074 22.807L45.074 68.931.205 51.86.205 5.735z" transform="translate(-181 -206) translate(20 184) translate(161 22) translate(41 17)"/>
                    </g>
                    <path fill="#231F20" d="M89 86l-.114-.042L43 69.253V24l.114.042L89 40.747V86zM43.167 69.144l45.666 16.625V40.856L43.167 24.231v44.913z" transform="translate(-181 -206) translate(20 184) translate(161 22)"/>
                    <path fill="#231F20" d="M87.117 86L87 85.884 109.837 63.302 109.837 17.391 87.117 39.86 87 39.743 110 17 110 63.371 109.976 63.394z" transform="translate(-181 -206) translate(20 184) translate(161 22)"/>
                    <g fill="#52AAFF" opacity=".44">
                        <path d="M67.987 17.198L45.1 39.865 0.205 22.727 23.118 0.118z" transform="translate(-181 -206) translate(20 184) translate(161 22) translate(41)"/>
                    </g>
                    <path fill="#231F20" d="M86.006 40L41 22.768l.087-.086L64.02 0l.05.02L109 17.171 86.006 40zm-44.71-17.29l44.675 17.1 22.733-22.578L64.054.192 41.297 22.71z" transform="translate(-181 -206) translate(20 184) translate(161 22)"/>
                    <g>
                        <path fill="#FFC65A" d="M32.495 25.045L32.757 30.275 30.432 32.454 31.266 48.999 26.443 53.523 19.657 42.562 14.69 41.745 17.53 39.081 13.675 32.871 8.396 32 7.839 20.942 12.979 16.121 17.11 22.718 13.828 25.794 19.145 26.672 19.563 34.967 25.371 35.926 24.936 27.259 19.969 26.441 24.673 22.03 24.392 16.47 29.673 17.34 31.996 15.16 32.261 20.39 29.936 22.571 30.039 24.639 26.686 24.087 24.361 26.268 30.17 27.224z" transform="translate(-181 -206) translate(20 184) translate(161 22) translate(98 23)"/>
                        <path fill="#E2A84D" d="M32.495 25.045L30.17 27.224 30.039 24.639zM31.996 15.16L29.673 17.34 29.543 14.756z" transform="translate(-181 -206) translate(20 184) translate(161 22) translate(98 23)"/>
                        <path fill="#FFC65A" d="M30.039 24.639L30.17 27.224 24.361 26.268 26.686 24.087zM29.543 14.756L29.673 17.34 24.392 16.47 24.365 15.911 26.187 14.202z" transform="translate(-181 -206) translate(20 184) translate(161 22) translate(98 23)"/>
                        <path fill="#FFC65A" d="M28.86 1.225L29.543 14.756 26.187 14.202 24.365 15.911 23.86 5.915z" transform="translate(-181 -206) translate(20 184) translate(161 22) translate(98 23)"/>
                        <path fill="#E2A84D" d="M28.86 1.225L23.86 5.915 18.051 4.957 23.051.266zM19.657 42.562L26.443 53.523 20.632 52.567 16.357 45.658zM24.936 27.259L25.371 35.926 21.8 30.201z" transform="translate(-181 -206) translate(20 184) translate(161 22) translate(98 23)"/>
                        <path fill="#FFC65A" d="M21.8 30.201L25.371 35.926 19.563 34.967 19.145 26.672 19.637 26.753 19.969 26.441 24.936 27.259z" transform="translate(-181 -206) translate(20 184) translate(161 22) translate(98 23)"/>
                        <path fill="#E2A84D" d="M24.392 16.47L24.673 22.03 18.862 21.073 18.051 4.957 23.86 5.915 24.365 15.911 23.862 16.383z" transform="translate(-181 -206) translate(20 184) translate(161 22) translate(98 23)"/>
                        <path fill="#E2A84D" d="M24.673 22.03L19.969 26.441 19.381 26.344 17.11 22.718 18.862 21.073zM24.365 15.911L24.392 16.47 23.862 16.383z" transform="translate(-181 -206) translate(20 184) translate(161 22) translate(98 23)"/>
                        <path fill="#FFF" d="M19.969 26.441L19.637 26.753 19.381 26.344z" transform="translate(-181 -206) translate(20 184) translate(161 22) translate(98 23)"/>
                        <path fill="#FFC65A" d="M19.657 42.562L16.357 45.658 14.212 42.193 14.69 41.745z" transform="translate(-181 -206) translate(20 184) translate(161 22) translate(98 23)"/>
                        <path fill="#FFF" d="M19.381 26.344L19.637 26.753 19.145 26.672 19.127 26.303z" transform="translate(-181 -206) translate(20 184) translate(161 22) translate(98 23)"/>
                        <path fill="#FFC65A" d="M17.11 22.718L19.381 26.344 19.127 26.303 19.145 26.672 13.828 25.794z" transform="translate(-181 -206) translate(20 184) translate(161 22) translate(98 23)"/>
                        <path fill="#E2A84D" d="M13.675 32.871L17.53 39.081 13.958 38.494z" transform="translate(-181 -206) translate(20 184) translate(161 22) translate(98 23)"/>
                        <path fill="#E2A84D" d="M17.53 39.081L14.69 41.745 14.115 41.649 13.958 38.494z" transform="translate(-181 -206) translate(20 184) translate(161 22) translate(98 23)"/>
                        <path fill="#FFF" d="M14.115 41.649L14.69 41.745 14.212 42.193 14.138 42.073z" transform="translate(-181 -206) translate(20 184) translate(161 22) translate(98 23)"/>
                        <path fill="#FFC65A" d="M14.147 42.254L14.212 42.193 16.357 45.658 14.412 47.483 15.243 64.026 10.243 68.716 9.411 52.174 6.958 51.77 6.824 49.121 9.146 46.942 8.913 42.289 6.46 41.885 6.327 39.236 8.65 37.059 8.436 32.834 11.718 38.125 8.338 41.295z" transform="translate(-181 -206) translate(20 184) translate(161 22) translate(98 23)"/>
                        <path fill="#FFF" d="M14.138 42.073L14.212 42.193 14.147 42.254zM14.115 41.649L14.138 42.073 13.848 41.605z" transform="translate(-181 -206) translate(20 184) translate(161 22) translate(98 23)"/>
                        <path fill="#FFC65A" d="M14.147 42.254L8.338 41.295 11.718 38.125 13.958 38.494 14.115 41.649 13.848 41.605 14.138 42.073z" transform="translate(-181 -206) translate(20 184) translate(161 22) translate(98 23)"/>
                        <path fill="#FFC65A" d="M13.675 32.871L13.958 38.494 11.718 38.125 8.436 32.834 8.396 32z" transform="translate(-181 -206) translate(20 184) translate(161 22) translate(98 23)"/>
                        <path fill="#E2A84D" d="M12.979 16.121L7.839 20.942 2.028 19.986 7.17 15.163zM9.411 52.174L10.243 68.716 4.434 67.76 3.73 53.798 7.089 54.351z" transform="translate(-181 -206) translate(20 184) translate(161 22) translate(98 23)"/>
                        <path fill="#FFC65A" d="M9.411 52.174L7.089 54.351 6.958 51.77z" transform="translate(-181 -206) translate(20 184) translate(161 22) translate(98 23)"/>
                        <path fill="#E2A84D" d="M8.913 42.289L9.146 46.942 3.337 45.985 3.234 43.913 6.59 44.468z" transform="translate(-181 -206) translate(20 184) translate(161 22) translate(98 23)"/>
                        <path fill="#E2A84D" d="M9.146 46.942L6.824 49.121 1.015 48.165 3.337 45.985z" transform="translate(-181 -206) translate(20 184) translate(161 22) translate(98 23)"/>
                        <path fill="#FFC65A" d="M8.913 42.289L6.59 44.468 6.46 41.885z" transform="translate(-181 -206) translate(20 184) translate(161 22) translate(98 23)"/>
                        <path fill="#E2A84D" d="M8.436 32.834L8.65 37.059 2.839 36.101 2.028 19.986 7.839 20.942 8.396 32 7.866 31.913z" transform="translate(-181 -206) translate(20 184) translate(161 22) translate(98 23)"/>
                        <path fill="#E2A84D" d="M8.65 37.059L6.327 39.236.516 38.28 2.839 36.101zM8.436 32.834L7.866 31.913 8.396 32zM6.958 51.77L7.089 54.351 3.73 53.798 3.6 51.215z" transform="translate(-181 -206) translate(20 184) translate(161 22) translate(98 23)"/>
                        <path fill="#E2A84D" d="M6.824 49.121L6.958 51.77 3.6 51.215 3.73 53.798 1.277 53.394 1.015 48.165zM6.46 41.885L6.59 44.468 3.234 43.913 3.104 41.33z" transform="translate(-181 -206) translate(20 184) translate(161 22) translate(98 23)"/>
                        <path fill="#E2A84D" d="M6.327 39.236L6.46 41.885 3.104 41.33 3.234 43.913 0.781 43.509 0.516 38.28z" transform="translate(-181 -206) translate(20 184) translate(161 22) translate(98 23)"/>
                        <path fill="#231F20" d="M32.481 25.126L30.026 24.72 30.053 24.558 32.508 24.964z" transform="translate(-181 -206) translate(20 184) translate(161 22) translate(98 23)"/>
                        <path fill="#231F20" d="M30.775 13.722L30.775 13.722 30.786 16.209 30.786 16.209z" transform="translate(-181 -206) translate(20 184) translate(161 22) translate(98 23) rotate(-80.38 30.78 14.966)"/>
                        <path fill="#231F20" d="M26.43 53.604L20.58 52.641 16.285 45.699 16.429 45.616 20.683 52.492 26.456 53.442zM18.109 5.016L17.992 4.898 23.024.179 28.874 1.144 28.847 1.306 23.078.354z" transform="translate(-181 -206) translate(20 184) translate(161 22) translate(98 23)"/>
                        <path fill="#231F20" d="M18.776 21.078L17.961 4.858 23.873 5.834 23.846 5.996 18.141 5.055 18.945 21.069z" transform="translate(-181 -206) translate(20 184) translate(161 22) translate(98 23)"/>
                        <path fill="#231F20" d="M17.168 22.777L17.051 22.659 18.835 20.986 24.686 21.949 24.659 22.111 18.889 21.161z" transform="translate(-181 -206) translate(20 184) translate(161 22) translate(98 23)"/>
                        <path fill="#231F20" d="M15.729 36.971L15.729 36.971 15.746 40.591 15.746 40.591z" transform="translate(-181 -206) translate(20 184) translate(161 22) translate(98 23) rotate(-80.4 15.737 38.78)"/>
                        <path fill="#231F20" d="M10.229 68.797L4.353 67.83 4.35 67.764 3.647 53.803 3.816 53.794 4.514 67.69 10.256 68.635z" transform="translate(-181 -206) translate(20 184) translate(161 22) translate(98 23)"/>
                        <path fill="#231F20" d="M3.273 43.922L3.273 43.922 3.275 45.996 3.275 45.996z" transform="translate(-181 -206) translate(20 184) translate(161 22) translate(98 23) rotate(-2.77 3.274 44.959)"/>
                        <path fill="#231F20" d="M1.073 48.224L0.956 48.106 3.31 45.898 9.16 46.861 9.133 47.023 3.364 46.073z" transform="translate(-181 -206) translate(20 184) translate(161 22) translate(98 23)"/>
                        <path fill="#231F20" d="M7.075 54.431L1.197 53.464 1.192 53.399 0.925 48.066 6.837 49.04 6.81 49.202 1.104 48.263 1.358 53.324 7.102 54.27z" transform="translate(-181 -206) translate(20 184) translate(161 22) translate(98 23)"/>
                        <path fill="#231F20" d="M0.083 37.163L3.267 37.208 3.267 37.208 0.083 37.163z" transform="translate(-181 -206) translate(20 184) translate(161 22) translate(98 23) rotate(-44 1.675 37.185)"/>
                        <path fill="#231F20" d="M6.577 44.549L.7 43.579.698 43.514.426 38.181 6.341 39.155 6.314 39.317.606 38.378.862 43.439 6.603 44.387zM8.636 37.14L2.758 36.17 2.756 36.105 1.945 19.99 2.113 19.982 2.92 36.031 8.663 36.978z" transform="translate(-181 -206) translate(20 184) translate(161 22) translate(98 23)"/>
                        <path fill="#231F20" d="M10.168 68.9L10.159 68.721 9.337 52.357 7.015 54.534 6.738 49.088 6.765 49.062 9.061 46.909 8.839 42.472 6.516 44.651 6.242 39.203 8.565 37.026 7.756 20.947 7.924 20.938 8.735 37.092 6.413 39.269 6.664 44.284 8.987 42.105 9.232 46.975 6.909 49.154 7.163 54.167 9.486 51.99 9.497 52.169 10.317 68.533 15.157 63.993 14.326 47.451 19.675 42.431 19.729 42.52 26.461 53.392 31.18 48.966 30.347 32.421 32.672 30.242 32.42 25.229 30.096 27.408 29.851 22.539 32.176 20.357 31.922 15.344 29.599 17.523 28.786 1.408 23.945 5.948 24.758 22.063 24.731 22.089 19.619 26.884 12.907 16.163 13.05 16.077 19.655 26.624 24.588 21.997 23.774 5.882 23.801 5.856 28.934 1.042 29.747 17.156 32.07 14.977 32.346 20.423 32.319 20.449 30.021 22.604 30.244 27.041 32.569 24.862 32.843 30.308 30.518 32.487 31.351 49.031 26.425 53.654 26.371 53.565 19.639 42.693 14.497 47.516 15.328 64.059 15.301 64.085z" transform="translate(-181 -206) translate(20 184) translate(161 22) translate(98 23)"/>
                        <path fill="#231F20" d="M14.072 42.437l-.498-9.887 4.063 6.55-3.565 3.337zm-.296-9.247l.45 8.878 3.198-3.002-3.648-5.876zM25.473 36.247l-3.781-6.057 3.318-3.114.463 9.17zm-3.565-6.031l3.37 5.393-.41-8.164-2.96 2.77zM7.866 21.03l-6.016-.99 5.293-4.974 6.013.992-5.29 4.972zm-5.659-1.092l5.616.924 4.99-4.68-5.616-.926-4.99 4.682z" transform="translate(-181 -206) translate(20 184) translate(161 22) translate(98 23)"/>
                    </g>
                    <path fill="#F49493" style="mix-blend-mode:color" d="M0 0H163V120H0z" transform="translate(-181 -206) translate(20 184) translate(161 22)"/>
                </g>
            </g>
        </g>
    </g>
</svg>
