<svg id="Zimvest_illustrations-04" data-name="Zimvest illustrations-04" xmlns="http://www.w3.org/2000/svg" width="150" height="110" viewBox="0 0 150 110">
  <g id="Group" transform="translate(0 25)" opacity="0.21">
    <path id="Path" d="M45.456,0l103.3,39.676L103.3,84.936,0,45.259,45.456,0Z" transform="translate(0.152 0.002)" fill="#231f20"/>
  </g>
  <path id="Path-2" data-name="Path" d="M2,0V1.925L0,2,2,0Z" transform="translate(148 57)" fill="#ce9c7a"/>
  <path id="Path-3" data-name="Path" d="M148,39.534,145.823,41.7,4.949,47,0,45.1,45.226,0,148,39.534Z" transform="translate(1 17)" fill="#f2ba94"/>
  <path id="Path-4" data-name="Path" d="M45,0,0,45V42.917L42.834.081,45,0Z" transform="translate(104 58)" fill="#ce9c7a"/>
  <path id="Path-5" data-name="Path" d="M141,0,97.912,42,0,5.181,141,0Z" transform="translate(7 60)" fill="#f2ba94"/>
  <path id="Path-6" data-name="Path" d="M103,37.9V40L0,.187,4.96,0,103,37.9Z" transform="translate(1 64)" fill="#ce9c7a"/>
  <path id="Path-7" data-name="Path" d="M6,1.822,0,2V0L6,1.822Z" transform="translate(1 63)" fill="#ce9c7a"/>
  <path id="Path-8" data-name="Path" d="M102.764,45l-.044-.018L0,5.654l.054-.138L102.728,44.827,147.895,0,148,.1,102.764,45Z" transform="translate(1 58)" fill="#231f20"/>
  <path id="Shape" d="M103.39,84.983,0,45.307l.08-.082L45.565,0l.046.018L149,39.686l-2.268,2.249L103.434,85Z" transform="translate(0 17)" fill="#231f20"/>
  <rect id="Rectangle" width="0.149" height="2" transform="translate(103.926 102)" fill="#231f20"/>
  <rect id="Rectangle-2" data-name="Rectangle" width="0.149" height="2" transform="translate(148.926 57)" fill="#231f20"/>
  <rect id="Rectangle-3" data-name="Rectangle" width="0.149" height="2" transform="translate(0.926 63)" fill="#231f20"/>
  <path id="Path-9" data-name="Path" d="M6,0c3.315,0,6,1.791,6,4S9.314,8,6,8,0,6.209,0,4A2.889,2.889,0,0,1,.492,2.413H.5C1.424.988,3.54,0,6,0Z" transform="translate(129 56)" fill="#f7d4bc"/>
  <path id="Path-10" data-name="Path" d="M.1.1H.094V.093Z" transform="translate(129.901 56.901)" fill="#fff"/>
  <path id="Path-11" data-name="Path" d="M111,29.293V29.3L77.734,62.21a4.78,4.78,0,0,0-.948.79L0,33.7a3.084,3.084,0,0,0,.411-1.268L31.559,1.614A5.651,5.651,0,0,0,34.226,0Z" transform="translate(19 30)" fill="#f7d4bc"/>
  <path id="Path-12" data-name="Path" d="M6,0c3.313,0,6,1.79,6,4S9.314,8,6,8,0,6.21,0,4A3.125,3.125,0,0,1,.991,1.8l.111.039.888-.812A7.879,7.879,0,0,1,6,0Z" transform="translate(96 89)" fill="#f7d4bc"/>
  <path id="Path-13" data-name="Path" d="M1,0,.112,1,0,.953A5.26,5.26,0,0,1,1,0Z" transform="translate(97 91)" fill="#fff"/>
  <path id="Path-14" data-name="Path" d="M12,4a3.1,3.1,0,0,1-.923,2.133l-.788-.279L8.268,7.705A8.651,8.651,0,0,1,6,8C2.691,8,0,6.209,0,4S2.685,0,6,0,12,1.791,12,4Z" transform="translate(44 23)" fill="#ce9c7a"/>
  <path id="Path-15" data-name="Path" d="M1.439,0,2,.3A4.28,4.28,0,0,1,0,2Z" transform="translate(52 29)" fill="#fff"/>
  <path id="Path-16" data-name="Path" d="M12,4a1.9,1.9,0,0,1-.019.289l-1.094,1,.66.233C10.65,6.978,8.5,8,6,8,2.686,8,0,6.209,0,4S2.686,0,6,0,12,1.791,12,4Z" transform="translate(9 57)" fill="#f7d4bc"/>
  <path id="Path-17" data-name="Path" d="M0,.812,1,0A2.141,2.141,0,0,1,.6,1Z" transform="translate(20 62)" fill="#ce9c7a"/>
  <path id="Rectangle-4" data-name="Rectangle" d="M0,.42,43.662.58h0L0,.42Z" transform="translate(20.163 60.933) rotate(-45.05)" fill="#231f20"/>
  <path id="Rectangle-5" data-name="Rectangle" d="M.4,0h0L.6,81.78h0Z" transform="matrix(0.36, -0.933, 0.933, 0.36, 19.898, 62.857)" fill="#231f20"/>
  <path id="Rectangle-6" data-name="Rectangle" d="M0,.414,46.612.586h0L0,.414Z" transform="translate(97.075 90.658) rotate(-45.05)" fill="#231f20"/>
  <path id="Rectangle-7" data-name="Rectangle" d="M.4,0h0L.6,81.76h0Z" transform="matrix(0.36, -0.933, 0.933, 0.36, 53.952, 29.219)" fill="#231f20"/>
  <path id="Shape-2" data-name="Shape" d="M0,4.5a3.733,3.733,0,0,1,1-2.49,5.133,5.133,0,0,1,1-.868A7.23,7.23,0,0,1,6,0c3.307,0,6,2.018,6,4.5S9.308,9,6,9,0,6.984,0,4.5Z" transform="translate(96 89)" fill="#231f20"/>
  <path id="Shape-3" data-name="Shape" d="M0,4.5a3.524,3.524,0,0,1,.5-1.8V2.693A6.331,6.331,0,0,1,6,0c3.311,0,6,2.02,6,4.5S9.314,9,6,9,0,6.981,0,4.5Z" transform="translate(129 55)" fill="#231f20"/>
  <path id="Shape-4" data-name="Shape" d="M0,4.5C0,2.019,2.7,0,6,0s6,2.019,6,4.5a2.233,2.233,0,0,1-.019.329,3.5,3.5,0,0,1-.436,1.394A6.27,6.27,0,0,1,6,9C2.691,9,0,6.981,0,4.5Z" transform="translate(9 56)" fill="#231f20"/>
  <path id="Shape-5" data-name="Shape" d="M6,9C2.691,9,0,6.979,0,4.5S2.7,0,6,0s6,2.017,6,4.5a3.713,3.713,0,0,1-.926,2.41A5.953,5.953,0,0,1,8.265,8.67,7.775,7.775,0,0,1,6.025,9Z" transform="translate(44 22)" fill="#231f20"/>
  <g id="Group-2" data-name="Group" transform="translate(39)" opacity="0.44">
    <path id="Path-18" data-name="Path" d="M20.633,0V42.517L0,63.348V20.831L20.633,0Z" transform="translate(0.184 0.307)" fill="#52aaff"/>
    <path id="Shape-6" data-name="Shape" d="M0,20.979l.02-.02L20.78,0V42.729l-.022.022L0,63.708Z" transform="translate(0.112 0.127)" fill="#231f20"/>
  </g>
  <g id="Group-3" data-name="Group" transform="translate(60)" opacity="0.44">
    <path id="Path-19" data-name="Path" d="M41.57,15.562V57.608L0,42.046V0L41.57,15.562Z" transform="translate(0.216 0.108)" fill="#52aaff"/>
    <path id="Shape-7" data-name="Shape" d="M41.619,57.785,0,42.2V0L.1.04,41.721,15.619v42.2Z" transform="translate(0.141)" fill="#231f20"/>
  </g>
  <path id="Shape-8" data-name="Shape" d="M0,9.417,9.55,0,40,11.591,30.46,21Z" transform="translate(56 43)" fill="#12ca70"/>
  <path id="Shape-9" data-name="Shape" d="M0,7.491,7.823,0,36,10.508,28.181,18Z" transform="translate(59 45)" fill="#12ca70"/>
  <path id="Shape-10" data-name="Shape" d="M0,6.417l.347-.8a6.146,6.146,0,0,0,2.04.333c2.368,0,4.289-1.232,4.289-2.76,0-1.049-.908-1.959-2.244-2.43L4.762,0,20,5.207,13.409,11Z" transform="translate(72 51)" fill="#12ca70"/>
  <path id="Path-20" data-name="Path" d="M2,0C3.106,0,4,.448,4,1S3.106,2,2,2,0,1.552,0,1,.894,0,2,0Z" transform="translate(84 56)" fill="#12ca70"/>
  <path id="Path-21" data-name="Path" d="M5.907.422A3.474,3.474,0,0,1,8,3.5,3.773,3.773,0,0,1,4,7a4.386,4.386,0,0,1-1.9-.422A3.458,3.458,0,0,1,0,3.5,3.775,3.775,0,0,1,4,0,4.533,4.533,0,0,1,5.907.422Z" transform="translate(70 49)" fill="#12ca70"/>
  <path id="Shape-11" data-name="Shape" d="M0,6.16,6.543,0,18,4.193,17.674,5a5.938,5.938,0,0,0-2.038-.354c-2.345,0-4.247,1.315-4.247,2.934a2.989,2.989,0,0,0,2.225,2.578l-.337.84Z" transform="translate(59 46)" fill="#12ca70"/>
  <path id="Path-22" data-name="Path" d="M2,0C3.1,0,4,.448,4,1S3.1,2,2,2,0,1.552,0,1,.886,0,2,0Z" transform="translate(63 49)" fill="#12ca70"/>
  <path id="Shape-12" data-name="Shape" d="M31.881,21.982,0,9.911,10.088,0,42,12.1,31.928,22Z" transform="translate(55 42)" fill="#231f20"/>
  <path id="Shape-13" data-name="Shape" d="M0,7.951,7.882,0l.045.018L36,11.044,28.128,19Z" transform="translate(59 44)" fill="#231f20"/>
  <path id="Shape-14" data-name="Shape" d="M0,6.644,6.374,0,32,10.356,25.623,17Z" transform="translate(60 46)" fill="#231f20"/>
  <path id="Shape-15" data-name="Shape" d="M2.363,6.582A3.489,3.489,0,0,1,0,3.5C0,1.569,2.018,0,4.5,0A5.606,5.606,0,0,1,6.637.416,3.5,3.5,0,0,1,9,3.5C9,5.429,6.982,7,4.5,7H4.452A5.433,5.433,0,0,1,2.363,6.582Z" transform="translate(72 49)" fill="#231f20"/>
  <path id="Shape-16" data-name="Shape" d="M0,1C0,.454.9,0,2,0S4,.448,4,1,3.1,2,2,2,0,1.552,0,1Z" transform="translate(84 56)" fill="#231f20"/>
  <path id="Shape-17" data-name="Shape" d="M0,1C0,.454.9,0,2,0S4,.448,4,1,3.1,2,2,2,0,1.552,0,1Z" transform="translate(63 49)" fill="#231f20"/>
  <path id="Shape-18" data-name="Shape" d="M0,9.415,9.549,0,40,11.589,30.461,21Z" transform="translate(56 40)" fill="#12ca70"/>
  <path id="Shape-19" data-name="Shape" d="M0,7.492,7.823,0,36,10.5,28.181,18Z" transform="translate(59 41)" fill="#12ca70"/>
  <path id="Shape-20" data-name="Shape" d="M0,6.422l.347-.8a6.123,6.123,0,0,0,2.04.333c2.368,0,4.289-1.233,4.289-2.764,0-1.049-.908-1.958-2.244-2.429L4.762,0,20,5.2,13.409,11Z" transform="translate(72 47)" fill="#12ca70"/>
  <path id="Path-23" data-name="Path" d="M2,0C3.106,0,4,.447,4,1S3.1,2,2,2,0,1.553,0,1,.894,0,2,0Z" transform="translate(84 53)" fill="#12ca70"/>
  <path id="Path-24" data-name="Path" d="M5.907.422A3.471,3.471,0,0,1,8,3.5,3.774,3.774,0,0,1,4,7a4.386,4.386,0,0,1-1.9-.422A3.459,3.459,0,0,1,0,3.5,3.775,3.775,0,0,1,4,0,4.5,4.5,0,0,1,5.907.422Z" transform="translate(70 47)" fill="#12ca70"/>
  <path id="Shape-21" data-name="Shape" d="M0,6.154,6.535,0,18,4.183l-.326.809a5.891,5.891,0,0,0-2.038-.354c-2.345,0-4.247,1.315-4.247,2.933a2.992,2.992,0,0,0,2.225,2.581L13.27,11Z" transform="translate(59 43)" fill="#12ca70"/>
  <path id="Path-25" data-name="Path" d="M2,0C3.1,0,4,.448,4,1S3.1,2,2,2,0,1.552,0,1,.886,0,2,0Z" transform="translate(63 45)" fill="#12ca70"/>
  <path id="Shape-22" data-name="Shape" d="M31.881,21.982,0,9.9,10.088,0,42,12.1,31.928,22Z" transform="translate(55 40)" fill="#231f20"/>
  <path id="Shape-23" data-name="Shape" d="M0,7.952,7.882,0l.045.018L36,11.043,28.128,19Z" transform="translate(59 41)" fill="#231f20"/>
  <path id="Shape-24" data-name="Shape" d="M0,6.638,6.374,0,32,10.352,25.623,17Z" transform="translate(60 42)" fill="#231f20"/>
  <path id="Shape-25" data-name="Shape" d="M2.363,6.584A3.489,3.489,0,0,1,0,3.5C0,1.571,2.018,0,4.5,0A5.591,5.591,0,0,1,6.637.419,3.5,3.5,0,0,1,9,3.5C9,5.431,6.982,7,4.5,7H4.451A5.453,5.453,0,0,1,2.363,6.584Z" transform="translate(72 47)" fill="#231f20"/>
  <path id="Shape-26" data-name="Shape" d="M0,1C0,.452.9,0,2,0S4,.45,4,1,3.1,2,2,2,0,1.553,0,1Z" transform="translate(84 53)" fill="#231f20"/>
  <path id="Shape-27" data-name="Shape" d="M0,1C0,.452.9,0,2,0S4,.45,4,1,3.1,2,2,2,0,1.553,0,1Z" transform="translate(63 45)" fill="#231f20"/>
  <path id="Shape-28" data-name="Shape" d="M0,9.416,9.549,0,40,11.59,30.461,21Z" transform="translate(56 35)" fill="#12ca70"/>
  <path id="Shape-29" data-name="Shape" d="M0,7.491,7.823,0,36,10.5,28.181,18Z" transform="translate(59 37)" fill="#12ca70"/>
  <path id="Shape-30" data-name="Shape" d="M0,6.422l.347-.8a6.078,6.078,0,0,0,2.04.333c2.368,0,4.289-1.233,4.289-2.762,0-1.049-.908-1.96-2.244-2.431L4.762,0,20,5.2,13.409,11Z" transform="translate(72 44)" fill="#12ca70"/>
  <path id="Path-26" data-name="Path" d="M2,0C3.106,0,4,.448,4,1S3.106,2,2,2,0,1.552,0,1,.894,0,2,0Z" transform="translate(84 51)" fill="#12ca70"/>
  <path id="Path-27" data-name="Path" d="M5.907.419A3.475,3.475,0,0,1,8,3.5,3.774,3.774,0,0,1,4,7a4.352,4.352,0,0,1-1.9-.422A3.459,3.459,0,0,1,0,3.5,3.774,3.774,0,0,1,4,0,4.531,4.531,0,0,1,5.907.419Z" transform="translate(70 43)" fill="#12ca70"/>
  <path id="Shape-31" data-name="Shape" d="M0,6.152,6.535,0,18,4.186l-.326.808a5.935,5.935,0,0,0-2.038-.351c-2.345,0-4.247,1.312-4.247,2.931a2.99,2.99,0,0,0,2.225,2.579L13.27,11Z" transform="translate(59 39)" fill="#12ca70"/>
  <path id="Path-28" data-name="Path" d="M2,0C3.1,0,4,.448,4,1S3.1,2,2,2,0,1.552,0,1,.886,0,2,0Z" transform="translate(63 43)" fill="#12ca70"/>
  <path id="Shape-32" data-name="Shape" d="M31.881,21.983,0,9.9,10.088,0,42,12.106,31.928,22Z" transform="translate(55 35)" fill="#231f20"/>
  <path id="Shape-33" data-name="Shape" d="M0,7.952,7.882,0l.045.018L36,11.045,28.128,19Z" transform="translate(59 37)" fill="#231f20"/>
  <path id="Shape-34" data-name="Shape" d="M0,6.644,6.375,0,32,10.356,25.628,17Z" transform="translate(60 38)" fill="#231f20"/>
  <path id="Shape-35" data-name="Shape" d="M2.363,6.582A3.489,3.489,0,0,1,0,3.5C0,1.569,2.018,0,4.5,0A5.606,5.606,0,0,1,6.637.416,3.5,3.5,0,0,1,9,3.5C9,5.429,6.982,7,4.5,7H4.452A5.433,5.433,0,0,1,2.363,6.582Z" transform="translate(72 43)" fill="#231f20"/>
  <path id="Shape-36" data-name="Shape" d="M0,1C0,.452.9,0,2,0S4,.448,4,1,3.1,2,2,2,0,1.553,0,1Z" transform="translate(84 51)" fill="#231f20"/>
  <path id="Shape-37" data-name="Shape" d="M0,1C0,.452.9,0,2,0S4,.448,4,1,3.1,2,2,2,0,1.553,0,1Z" transform="translate(63 41)" fill="#231f20"/>
  <path id="Shape-38" data-name="Shape" d="M0,9.415,9.549,0,40,11.589,30.461,21Z" transform="translate(56 33)" fill="#12ca70"/>
  <path id="Shape-39" data-name="Shape" d="M0,7.491,7.823,0,36,10.5,28.181,18Z" transform="translate(59 35)" fill="#12ca70"/>
  <path id="Shape-40" data-name="Shape" d="M0,6.422l.347-.8a6.123,6.123,0,0,0,2.04.333c2.368,0,4.289-1.233,4.289-2.764,0-1.048-.908-1.958-2.244-2.429L4.762,0,20,5.2,13.409,11Z" transform="translate(72 40)" fill="#12ca70"/>
  <path id="Path-29" data-name="Path" d="M2,0C3.106,0,4,.448,4,1S3.106,2,2,2,0,1.552,0,1,.894,0,2,0Z" transform="translate(84 46)" fill="#12ca70"/>
  <path id="Path-30" data-name="Path" d="M5.9.422A3.473,3.473,0,0,1,8,3.5,3.776,3.776,0,0,1,3.992,7a4.4,4.4,0,0,1-1.906-.422A3.436,3.436,0,0,1,0,3.5,3.778,3.778,0,0,1,4,0,4.544,4.544,0,0,1,5.9.422Z" transform="translate(70 39)" fill="#12ca70"/>
  <path id="Shape-41" data-name="Shape" d="M0,6.152,6.535,0,18,4.187l-.326.808a5.958,5.958,0,0,0-2.038-.353c-2.345,0-4.247,1.314-4.247,2.931a2.99,2.99,0,0,0,2.225,2.579L13.27,11Z" transform="translate(59 36)" fill="#12ca70"/>
  <path id="Path-31" data-name="Path" d="M2,0C3.1,0,4,.448,4,1S3.1,2,2,2,0,1.552,0,1,.886,0,2,0Z" transform="translate(63 39)" fill="#12ca70"/>
  <path id="Shape-42" data-name="Shape" d="M31.881,21.982,0,9.9,10.088,0,42,12.1,31.928,22Z" transform="translate(55 32)" fill="#231f20"/>
  <path id="Shape-43" data-name="Shape" d="M0,7.952,7.882,0l.045.018L36,11.051,28.128,19Z" transform="translate(59 33)" fill="#231f20"/>
  <path id="Shape-44" data-name="Shape" d="M0,6.642,6.375,0,32,10.356,25.628,17Z" transform="translate(60 34)" fill="#231f20"/>
  <path id="Shape-45" data-name="Shape" d="M2.363,6.584A3.49,3.49,0,0,1,0,3.5C0,1.57,2.018,0,4.5,0A5.606,5.606,0,0,1,6.637.416,3.5,3.5,0,0,1,9,3.5C9,5.431,6.982,7,4.5,7H4.445A5.437,5.437,0,0,1,2.363,6.584Z" transform="translate(72 39)" fill="#231f20"/>
  <path id="Shape-46" data-name="Shape" d="M0,1C0,.451.9,0,2,0S4,.45,4,1,3.1,2,2,2,0,1.552,0,1Z" transform="translate(84 46)" fill="#231f20"/>
  <path id="Shape-47" data-name="Shape" d="M0,1C0,.451.9,0,2,0S4,.45,4,1,3.1,2,2,2,0,1.552,0,1Z" transform="translate(63 39)" fill="#231f20"/>
  <path id="Shape-48" data-name="Shape" d="M0,9.415,9.549,0,40,11.591,30.461,21Z" transform="translate(56 30)" fill="#12ca70"/>
  <path id="Shape-49" data-name="Shape" d="M0,7.5,7.833,0,36,10.507,28.181,18Z" transform="translate(59 31)" fill="#12ca70"/>
  <path id="Shape-50" data-name="Shape" d="M0,6.42l.347-.8a6.078,6.078,0,0,0,2.04.333c2.368,0,4.289-1.233,4.289-2.762,0-1.049-.908-1.959-2.244-2.429L4.762,0,20,5.2,13.409,11Z" transform="translate(72 36)" fill="#12ca70"/>
  <path id="Path-32" data-name="Path" d="M2,0C3.106,0,4,.448,4,1S3.106,2,2,2,0,1.552,0,1,.894,0,2,0Z" transform="translate(84 43)" fill="#12ca70"/>
  <path id="Path-33" data-name="Path" d="M5.907.422A3.469,3.469,0,0,1,8,3.5,3.774,3.774,0,0,1,4,7a4.352,4.352,0,0,1-1.9-.422A3.456,3.456,0,0,1,0,3.5,3.775,3.775,0,0,1,4,0,4.5,4.5,0,0,1,5.907.422Z" transform="translate(70 37)" fill="#12ca70"/>
  <path id="Shape-51" data-name="Shape" d="M0,6.152,6.535,0,18,4.186,17.674,5a5.87,5.87,0,0,0-2.038-.353c-2.345,0-4.247,1.314-4.247,2.931a2.988,2.988,0,0,0,2.225,2.579L13.27,11Z" transform="translate(59 32)" fill="#12ca70"/>
  <path id="Path-34" data-name="Path" d="M2,0C3.1,0,4,.448,4,1S3.1,2,2,2,0,1.552,0,1,.886,0,2,0Z" transform="translate(63 35)" fill="#12ca70"/>
  <path id="Shape-52" data-name="Shape" d="M31.881,21.982,0,9.9,10.088,0,42,12.091,31.928,22Z" transform="translate(55 30)" fill="#231f20"/>
  <path id="Shape-53" data-name="Shape" d="M0,7.954,7.882,0l.045.016L36,11.039,28.128,19Z" transform="translate(59 31)" fill="#231f20"/>
  <path id="Shape-54" data-name="Shape" d="M0,6.253,6.374,0,32,9.749,25.623,16Z" transform="translate(60 32)" fill="#231f20"/>
  <path id="Shape-55" data-name="Shape" d="M2.363,6.582A3.489,3.489,0,0,1,0,3.5C0,1.571,2.018,0,4.5,0A5.591,5.591,0,0,1,6.637.419,3.5,3.5,0,0,1,9,3.5C9,5.438,6.982,7,4.5,7H4.452A5.433,5.433,0,0,1,2.363,6.582Z" transform="translate(72 37)" fill="#231f20"/>
  <path id="Shape-56" data-name="Shape" d="M0,1C0,.452.9,0,2,0S4,.45,4,1,3.1,2,2,2,0,1.553,0,1Z" transform="translate(84 43)" fill="#231f20"/>
  <path id="Shape-57" data-name="Shape" d="M0,1C0,.452.9,0,2,0S4,.45,4,1,3.1,2,2,2,0,1.553,0,1Z" transform="translate(63 35)" fill="#231f20"/>
  <path id="Shape-58" data-name="Shape" d="M0,9.417,9.55,0,40,11.591,30.46,21Z" transform="translate(56 26)" fill="#12ca70"/>
  <path id="Shape-59" data-name="Shape" d="M0,7.491,7.823,0,36,10.5,28.181,18Z" transform="translate(59 28)" fill="#12ca70"/>
  <path id="Shape-60" data-name="Shape" d="M0,6.418l.347-.8a6.148,6.148,0,0,0,2.04.34c2.368,0,4.289-1.234,4.289-2.765,0-1.049-.908-1.961-2.244-2.433L4.762,0,20,5.2,13.409,11Z" transform="translate(72 32)" fill="#12ca70"/>
  <path id="Path-35" data-name="Path" d="M2,0C3.106,0,4,.448,4,1S3.106,2,2,2,0,1.552,0,1,.894,0,2,0Z" transform="translate(84 39)" fill="#12ca70"/>
  <path id="Path-36" data-name="Path" d="M5.907.422A3.474,3.474,0,0,1,8,3.5,3.773,3.773,0,0,1,4,7a4.386,4.386,0,0,1-1.9-.422A3.458,3.458,0,0,1,0,3.5,3.775,3.775,0,0,1,4,0,4.533,4.533,0,0,1,5.907.422Z" transform="translate(70 33)" fill="#12ca70"/>
  <path id="Shape-61" data-name="Shape" d="M0,6.151,6.535,0,18,4.186l-.326.808a5.915,5.915,0,0,0-2.038-.353c-2.345,0-4.247,1.314-4.247,2.933a2.99,2.99,0,0,0,2.225,2.579L13.27,11Z" transform="translate(59 29)" fill="#12ca70"/>
  <path id="Path-37" data-name="Path" d="M2,0C3.1,0,4,.448,4,1S3.1,2,2,2,0,1.552,0,1,.886,0,2,0Z" transform="translate(63 32)" fill="#12ca70"/>
  <path id="Shape-62" data-name="Shape" d="M31.881,21.982,0,9.9,10.088,0,42,12.1,31.928,22Z" transform="translate(55 25)" fill="#231f20"/>
  <path id="Shape-63" data-name="Shape" d="M0,7.951,7.882,0l.045.018L36,11.044,28.128,19Z" transform="translate(59 27)" fill="#231f20"/>
  <path id="Shape-64" data-name="Shape" d="M0,6.644,6.375,0,32,10.356,25.628,17Z" transform="translate(60 28)" fill="#231f20"/>
  <path id="Shape-65" data-name="Shape" d="M2.363,6.584A3.49,3.49,0,0,1,0,3.5C0,1.57,2.018,0,4.5,0A5.606,5.606,0,0,1,6.637.416,3.5,3.5,0,0,1,9,3.5C9,5.431,6.982,7,4.5,7H4.445A5.437,5.437,0,0,1,2.363,6.584Z" transform="translate(72 33)" fill="#231f20"/>
  <path id="Shape-66" data-name="Shape" d="M0,1C0,.455.9,0,2,0S4,.45,4,1,3.1,2,2,2,0,1.552,0,1Z" transform="translate(84 40)" fill="#231f20"/>
  <path id="Shape-67" data-name="Shape" d="M0,1C0,.454.9,0,2,0S4,.448,4,1,3.1,2,2,2,0,1.552,0,1Z" transform="translate(63 31)" fill="#231f20"/>
  <path id="Shape-68" data-name="Shape" d="M0,9.415,9.549,0,40,11.589,30.461,21Z" transform="translate(56 23)" fill="#12ca70"/>
  <path id="Shape-69" data-name="Shape" d="M0,7.493,7.823,0,36,10.5,28.181,18Z" transform="translate(59 24)" fill="#12ca70"/>
  <path id="Shape-70" data-name="Shape" d="M0,6.422l.347-.8a6.123,6.123,0,0,0,2.04.333c2.368,0,4.289-1.235,4.289-2.764,0-1.049-.908-1.958-2.244-2.429L4.762,0,20,5.2,13.409,11Z" transform="translate(72 30)" fill="#12ca70"/>
  <path id="Path-38" data-name="Path" d="M2,0C3.106,0,4,.447,4,1S3.106,2,2,2,0,1.552,0,1,.894,0,2,0Z" transform="translate(84 36)" fill="#12ca70"/>
  <path id="Path-39" data-name="Path" d="M5.907.422A3.471,3.471,0,0,1,8,3.5,3.775,3.775,0,0,1,4,7a4.386,4.386,0,0,1-1.9-.422A3.459,3.459,0,0,1,0,3.5,3.775,3.775,0,0,1,4,0,4.5,4.5,0,0,1,5.907.422Z" transform="translate(70 30)" fill="#12ca70"/>
  <path id="Shape-71" data-name="Shape" d="M0,6.152,6.535,0,18,4.187l-.326.808a5.912,5.912,0,0,0-2.038-.353c-2.345,0-4.247,1.314-4.247,2.931a2.99,2.99,0,0,0,2.225,2.579L13.27,11Z" transform="translate(59 24)" fill="#12ca70"/>
  <path id="Path-40" data-name="Path" d="M2,0C3.1,0,4,.447,4,1S3.1,2,2,2,0,1.552,0,1,.886,0,2,0Z" transform="translate(63 29)" fill="#12ca70"/>
  <path id="Shape-72" data-name="Shape" d="M31.881,21.982,0,9.9,10.088,0,42,12.1,31.928,22Z" transform="translate(55 23)" fill="#231f20"/>
  <path id="Shape-73" data-name="Shape" d="M0,7.952,7.882,0l.045.016L36,11.043,28.128,19Z" transform="translate(59 24)" fill="#231f20"/>
  <path id="Shape-74" data-name="Shape" d="M0,6.643,6.374,0,32,10.362,25.623,17Z" transform="translate(60 24)" fill="#231f20"/>
  <path id="Shape-75" data-name="Shape" d="M2.363,6.582A3.487,3.487,0,0,1,0,3.5C0,1.571,2.018,0,4.5,0A5.591,5.591,0,0,1,6.637.419,3.5,3.5,0,0,1,9,3.5C9,5.431,6.982,7,4.5,7H4.439A5.385,5.385,0,0,1,2.363,6.582Z" transform="translate(72 30)" fill="#231f20"/>
  <path id="Shape-76" data-name="Shape" d="M0,1C0,.452.9,0,2,0S4,.45,4,1,3.1,2,2,2,0,1.553,0,1Z" transform="translate(84 36)" fill="#231f20"/>
  <path id="Shape-77" data-name="Shape" d="M0,1C0,.452.9,0,2,0S4,.45,4,1,3.1,2,2,2,0,1.553,0,1Z" transform="translate(63 29)" fill="#231f20"/>
  <path id="Shape-78" data-name="Shape" d="M0,9.417,9.549,0,40,11.591,30.461,21Z" transform="translate(56 19)" fill="#12ca70"/>
  <path id="Shape-79" data-name="Shape" d="M0,7.491,7.823,0,36,10.5,28.181,18Z" transform="translate(59 21)" fill="#12ca70"/>
  <path id="Shape-80" data-name="Shape" d="M0,6.422l.347-.8a6.123,6.123,0,0,0,2.04.333c2.368,0,4.289-1.233,4.289-2.762,0-1.049-.908-1.96-2.244-2.431L4.762,0,20,5.2,13.409,11Z" transform="translate(72 25)" fill="#12ca70"/>
  <path id="Path-41" data-name="Path" d="M2,0C3.107,0,4,.448,4,1S3.107,2,2,2,0,1.552,0,1,.9,0,2,0Z" transform="translate(84 32)" fill="#12ca70"/>
  <path id="Path-42" data-name="Path" d="M5.907.422A3.474,3.474,0,0,1,8,3.5,3.773,3.773,0,0,1,4,7a4.386,4.386,0,0,1-1.9-.422A3.458,3.458,0,0,1,0,3.5,3.775,3.775,0,0,1,4,0,4.533,4.533,0,0,1,5.907.422Z" transform="translate(70 25)" fill="#12ca70"/>
  <path id="Shape-81" data-name="Shape" d="M0,6.153,6.535,0,18,4.185l-.326.808a5.915,5.915,0,0,0-2.038-.353c-2.345,0-4.247,1.314-4.247,2.934a2.991,2.991,0,0,0,2.225,2.579L13.27,11Z" transform="translate(59 21)" fill="#12ca70"/>
  <path id="Path-43" data-name="Path" d="M2,0C3.1,0,4,.448,4,1S3.1,2,2,2,0,1.553,0,1,.886,0,2,0Z" transform="translate(63 24)" fill="#12ca70"/>
  <path id="Shape-82" data-name="Shape" d="M31.889,21.982,0,9.9,10.08,0,42,12.093,31.937,22Z" transform="translate(55 19)" fill="#231f20"/>
  <path id="Shape-83" data-name="Shape" d="M0,7.951,7.882,0l.045.018L36,11.044,28.128,19Z" transform="translate(59 21)" fill="#231f20"/>
  <path id="Shape-84" data-name="Shape" d="M0,6.253,6.375,0,32,9.747,25.628,16Z" transform="translate(60 21)" fill="#231f20"/>
  <path id="Shape-85" data-name="Shape" d="M2.363,6.582A3.489,3.489,0,0,1,0,3.5C0,1.569,2.018,0,4.5,0A5.606,5.606,0,0,1,6.637.416,3.5,3.5,0,0,1,9,3.5C9,5.429,6.982,7,4.5,7H4.452A5.433,5.433,0,0,1,2.363,6.582Z" transform="translate(72 25)" fill="#231f20"/>
  <path id="Shape-86" data-name="Shape" d="M0,1C0,.454.9,0,2,0S4,.448,4,1,3.1,2,2,2,0,1.552,0,1Z" transform="translate(84 32)" fill="#231f20"/>
  <path id="Shape-87" data-name="Shape" d="M0,1C0,.452.9,0,2,0S4,.448,4,1,3.1,2,2,2,0,1.553,0,1Z" transform="translate(63 24)" fill="#231f20"/>
  <path id="Shape-88" data-name="Shape" d="M0,9.415,9.549,0,40,11.589,30.461,21Z" transform="translate(56 15)" fill="#12ca70"/>
  <path id="Shape-89" data-name="Shape" d="M0,7.491,7.825,0,36,10.5,28.179,18Z" transform="translate(59 16)" fill="#12ca70"/>
  <path id="Shape-90" data-name="Shape" d="M0,6.422l.347-.8a6.123,6.123,0,0,0,2.04.333c2.368,0,4.289-1.233,4.289-2.764,0-1.048-.908-1.958-2.244-2.429L4.762,0,20,5.2,13.409,11Z" transform="translate(72 23)" fill="#12ca70"/>
  <path id="Path-44" data-name="Path" d="M2,0C3.107,0,4,.449,4,1S3.1,2,2,2s-2-.444-2-.988S.9,0,2,0Z" transform="translate(84 29)" fill="#12ca70"/>
  <path id="Path-45" data-name="Path" d="M5.907.422A3.473,3.473,0,0,1,8,3.5,3.774,3.774,0,0,1,4,7a4.386,4.386,0,0,1-1.9-.422A3.459,3.459,0,0,1,0,3.5,3.775,3.775,0,0,1,4,0,4.533,4.533,0,0,1,5.907.422Z" transform="translate(70 22)" fill="#12ca70"/>
  <path id="Shape-91" data-name="Shape" d="M0,6.152,6.535,0,18,4.187l-.326.808a5.958,5.958,0,0,0-2.038-.353c-2.345,0-4.247,1.314-4.247,2.931a2.99,2.99,0,0,0,2.225,2.579L13.27,11Z" transform="translate(59 19)" fill="#12ca70"/>
  <path id="Path-46" data-name="Path" d="M2,0C3.1,0,4,.448,4,1S3.1,2,2,2,0,1.552,0,1,.886,0,2,0Z" transform="translate(63 21)" fill="#12ca70"/>
  <path id="Shape-92" data-name="Shape" d="M31.881,21.982,0,9.9,10.088,0,42,12.1,31.928,22Z" transform="translate(55 15)" fill="#231f20"/>
  <path id="Shape-93" data-name="Shape" d="M0,7.952,7.882,0l.045.018L36,11.043,28.128,19Z" transform="translate(59 16)" fill="#231f20"/>
  <path id="Shape-94" data-name="Shape" d="M0,6.64,6.375,0,32,10.364,25.628,17Z" transform="translate(60 17)" fill="#231f20"/>
  <path id="Shape-95" data-name="Shape" d="M2.363,6.584A3.489,3.489,0,0,1,0,3.5C0,1.571,2.018,0,4.5,0A5.591,5.591,0,0,1,6.637.419,3.5,3.5,0,0,1,9,3.5C9,5.431,6.982,7,4.5,7H4.451A5.453,5.453,0,0,1,2.363,6.584Z" transform="translate(72 22)" fill="#231f20"/>
  <path id="Shape-96" data-name="Shape" d="M0,1C0,.451.9,0,2,0S4,.45,4,1,3.1,2,2,2,0,1.552,0,1Z" transform="translate(84 29)" fill="#231f20"/>
  <path id="Shape-97" data-name="Shape" d="M0,1C0,.451.9,0,2,0S4,.45,4,1,3.1,2,2,2,0,1.552,0,1Z" transform="translate(63 22)" fill="#231f20"/>
  <path id="Shape-98" data-name="Shape" d="M0,9.415,9.549,0,40,11.589,30.457,21Z" transform="translate(45 55)" fill="#12ca70"/>
  <path id="Shape-99" data-name="Shape" d="M0,7.492,7.825,0,36,10.5,28.187,18Z" transform="translate(47 56)" fill="#12ca70"/>
  <path id="Shape-100" data-name="Shape" d="M0,6.418l.347-.8a6.139,6.139,0,0,0,2.039.333c2.37,0,4.288-1.234,4.288-2.763,0-1.048-.907-1.957-2.242-2.428L4.762,0,20,5.2,13.4,11Z" transform="translate(62 62)" fill="#12ca70"/>
  <path id="Path-47" data-name="Path" d="M2,0C3.1,0,4,.447,4,1S3.1,2,2,2,0,1.552,0,1,.9,0,2,0Z" transform="translate(74 68)" fill="#12ca70"/>
  <path id="Path-48" data-name="Path" d="M5.906.422A3.471,3.471,0,0,1,8,3.5,3.774,3.774,0,0,1,4,7a4.394,4.394,0,0,1-1.9-.422A3.457,3.457,0,0,1,0,3.5,3.775,3.775,0,0,1,4,0,4.493,4.493,0,0,1,5.906.422Z" transform="translate(61 61)" fill="#12ca70"/>
  <path id="Shape-101" data-name="Shape" d="M0,6.152,6.533,0,18,4.187l-.328.808a5.873,5.873,0,0,0-2.038-.353c-2.343,0-4.245,1.314-4.245,2.931a2.987,2.987,0,0,0,2.222,2.579L13.268,11Z" transform="translate(48 56)" fill="#12ca70"/>
  <path id="Path-49" data-name="Path" d="M2,0C3.105,0,4,.448,4,1S3.105,2,2,2,0,1.552,0,1,.9,0,2,0Z" transform="translate(53 61)" fill="#12ca70"/>
  <path id="Shape-102" data-name="Shape" d="M31.882,21.982,0,9.9,10.079,0,42,12.1,31.928,22Z" transform="translate(44 54)" fill="#231f20"/>
  <path id="Shape-103" data-name="Shape" d="M0,7.952,7.882,0l.045.016L36,11.043,28.13,19Z" transform="translate(47 55)" fill="#231f20"/>
  <path id="Shape-104" data-name="Shape" d="M0,6.643,6.379,0,32,10.367,25.627,17Z" transform="translate(50 56)" fill="#231f20"/>
  <path id="Shape-105" data-name="Shape" d="M2.362,6.584A3.493,3.493,0,0,1,0,3.5C0,1.57,2.017,0,4.5,0a5.616,5.616,0,0,1,2.14.418A3.5,3.5,0,0,1,9,3.5C9,5.432,6.979,7,4.5,7H4.449A5.443,5.443,0,0,1,2.362,6.584Z" transform="translate(59 61)" fill="#231f20"/>
  <path id="Shape-106" data-name="Shape" d="M0,1C0,.452.9,0,2,0S4,.45,4,1,3.1,2,2,2,0,1.553,0,1Z" transform="translate(74 68)" fill="#231f20"/>
  <path id="Shape-107" data-name="Shape" d="M0,1C0,.452.9,0,2,0S4,.45,4,1,3.1,2,2,2,0,1.553,0,1Z" transform="translate(53 61)" fill="#231f20"/>
  <path id="Shape-108" data-name="Shape" d="M0,9.419,9.549,0,40,11.587,30.457,21Z" transform="translate(45 51)" fill="#12ca70"/>
  <path id="Shape-109" data-name="Shape" d="M0,7.491,7.825,0,36,10.5,28.187,18Z" transform="translate(47 53)" fill="#12ca70"/>
  <path id="Shape-110" data-name="Shape" d="M0,6.422l.347-.8a6.116,6.116,0,0,0,2.039.333c2.37,0,4.288-1.233,4.288-2.762,0-1.049-.907-1.96-2.242-2.431L4.762,0,20,5.2,13.413,11Z" transform="translate(62 58)" fill="#12ca70"/>
  <path id="Path-50" data-name="Path" d="M2,0C3.1,0,4,.448,4,1S3.1,2,2,2,0,1.553,0,1,.9,0,2,0Z" transform="translate(74 64)" fill="#12ca70"/>
  <path id="Path-51" data-name="Path" d="M5.906.422A3.474,3.474,0,0,1,8,3.5,3.773,3.773,0,0,1,4,7a4.394,4.394,0,0,1-1.9-.422A3.456,3.456,0,0,1,0,3.5,3.775,3.775,0,0,1,4,0a4.528,4.528,0,0,1,1.91.422Z" transform="translate(61 58)" fill="#12ca70"/>
  <path id="Shape-111" data-name="Shape" d="M0,6.152,6.536,0,18,4.178l-.328.816a5.912,5.912,0,0,0-2.038-.353c-2.344,0-4.247,1.314-4.247,2.933a2.986,2.986,0,0,0,2.223,2.579L13.266,11Z" transform="translate(48 54)" fill="#12ca70"/>
  <path id="Path-52" data-name="Path" d="M2,0C3.105,0,4,.448,4,1S3.105,2,2,2,0,1.553,0,1,.9,0,2,0Z" transform="translate(53 56)" fill="#12ca70"/>
  <path id="Shape-112" data-name="Shape" d="M31.882,21.983,0,9.9,10.079,0,42,12.1,31.928,22Z" transform="translate(44 51)" fill="#231f20"/>
  <path id="Shape-113" data-name="Shape" d="M0,7.951,7.882,0l.045.018L36,11.044,28.13,19Z" transform="translate(47 53)" fill="#231f20"/>
  <path id="Shape-114" data-name="Shape" d="M0,6.644,6.379,0,32,10.356,25.627,17Z" transform="translate(50 54)" fill="#231f20"/>
  <path id="Shape-115" data-name="Shape" d="M2.362,6.574A3.489,3.489,0,0,1,0,3.5C0,1.567,2.017,0,4.5,0a5.615,5.615,0,0,1,2.14.416A3.494,3.494,0,0,1,9,3.5C9,5.431,6.979,7,4.5,7h-.02A5.447,5.447,0,0,1,2.362,6.574Z" transform="translate(59 58)" fill="#231f20"/>
  <path id="Shape-116" data-name="Shape" d="M0,1C0,.452.9,0,2,0S4,.448,4,1,3.1,2,2,2,0,1.553,0,1Z" transform="translate(74 64)" fill="#231f20"/>
  <path id="Shape-117" data-name="Shape" d="M0,1C0,.452.9,0,2,0S4,.448,4,1,3.1,2,2,2,0,1.553,0,1Z" transform="translate(53 56)" fill="#231f20"/>
  <path id="Shape-118" data-name="Shape" d="M0,9.415,9.549,0,40,11.589,30.457,21Z" transform="translate(45 48)" fill="#12ca70"/>
  <path id="Shape-119" data-name="Shape" d="M0,7.493,7.825,0,36,10.5,28.187,18Z" transform="translate(47 49)" fill="#12ca70"/>
  <path id="Shape-120" data-name="Shape" d="M0,6.422l.347-.8a6.116,6.116,0,0,0,2.039.333c2.37,0,4.288-1.233,4.288-2.764,0-1.048-.907-1.958-2.242-2.429L4.762,0,20,5.2,13.413,11Z" transform="translate(62 54)" fill="#12ca70"/>
  <path id="Path-53" data-name="Path" d="M2,0C3.1,0,4,.448,4,1S3.1,2,2,2,0,1.552,0,1,.9,0,2,0Z" transform="translate(74 61)" fill="#12ca70"/>
  <path id="Path-54" data-name="Path" d="M5.906.422A3.473,3.473,0,0,1,8,3.5,3.773,3.773,0,0,1,4,7a4.394,4.394,0,0,1-1.9-.422A3.457,3.457,0,0,1,0,3.5,3.775,3.775,0,0,1,4,0a4.528,4.528,0,0,1,1.91.422Z" transform="translate(61 55)" fill="#12ca70"/>
  <path id="Shape-121" data-name="Shape" d="M0,6.152,6.533,0,18,4.187l-.328.808a5.915,5.915,0,0,0-2.038-.353c-2.343,0-4.245,1.314-4.245,2.931a2.987,2.987,0,0,0,2.222,2.579L13.268,11Z" transform="translate(48 51)" fill="#12ca70"/>
  <path id="Path-55" data-name="Path" d="M2,0C3.105,0,4,.448,4,1S3.105,2,2,2,0,1.552,0,1,.9,0,2,0Z" transform="translate(53 53)" fill="#12ca70"/>
  <path id="Shape-122" data-name="Shape" d="M31.882,21.982,0,9.9,10.079,0,42,12.1,31.928,22Z" transform="translate(44 47)" fill="#231f20"/>
  <path id="Shape-123" data-name="Shape" d="M0,7.952,7.882,0l.045.018L36,11.043,28.13,19Z" transform="translate(47 48)" fill="#231f20"/>
  <path id="Shape-124" data-name="Shape" d="M0,6.642,6.379,0,32,10.356,25.627,17Z" transform="translate(50 49)" fill="#231f20"/>
  <path id="Shape-125" data-name="Shape" d="M2.362,6.584A3.493,3.493,0,0,1,0,3.5C0,1.57,2.017,0,4.5,0a5.615,5.615,0,0,1,2.14.416A3.5,3.5,0,0,1,9,3.5C9,5.431,6.979,7,4.5,7H4.442A5.428,5.428,0,0,1,2.362,6.584Z" transform="translate(59 55)" fill="#231f20"/>
  <path id="Shape-126" data-name="Shape" d="M0,1C0,.451.9,0,2,0S4,.45,4,1,3.1,2,2,2,0,1.552,0,1Z" transform="translate(74 62)" fill="#231f20"/>
  <path id="Shape-127" data-name="Shape" d="M0,1C0,.451.9,0,2,0S4,.45,4,1,3.1,2,2,2,0,1.552,0,1Z" transform="translate(53 53)" fill="#231f20"/>
  <path id="Shape-128" data-name="Shape" d="M0,9.413,9.549,0,40,11.587,30.457,21Z" transform="translate(45 45)" fill="#12ca70"/>
  <path id="Shape-129" data-name="Shape" d="M0,7.491,7.825,0,36,10.5,28.187,18Z" transform="translate(47 46)" fill="#12ca70"/>
  <path id="Shape-130" data-name="Shape" d="M0,6.418l.347-.8a6.09,6.09,0,0,0,2.039.333c2.37,0,4.288-1.232,4.288-2.761,0-1.049-.907-1.959-2.242-2.43L4.762,0,20,5.206,13.413,11Z" transform="translate(62 52)" fill="#12ca70"/>
  <path id="Path-56" data-name="Path" d="M2,0C3.1,0,4,.448,4,1S3.1,2,2,2,0,1.552,0,1,.9,0,2,0Z" transform="translate(74 57)" fill="#12ca70"/>
  <path id="Path-57" data-name="Path" d="M5.906.419A3.475,3.475,0,0,1,8,3.5,3.773,3.773,0,0,1,4,7a4.36,4.36,0,0,1-1.9-.422A3.455,3.455,0,0,1,0,3.5,3.774,3.774,0,0,1,4,0a4.526,4.526,0,0,1,1.91.419Z" transform="translate(61 50)" fill="#12ca70"/>
  <path id="Shape-131" data-name="Shape" d="M0,6.152,6.533,0,18,4.186l-.328.808a5.935,5.935,0,0,0-2.038-.351c-2.343,0-4.245,1.312-4.245,2.931a2.985,2.985,0,0,0,2.222,2.579L13.268,11Z" transform="translate(48 46)" fill="#12ca70"/>
  <path id="Path-58" data-name="Path" d="M2,0C3.105,0,4,.448,4,1S3.105,2,2,2,0,1.552,0,1,.9,0,2,0Z" transform="translate(53 51)" fill="#12ca70"/>
  <path id="Shape-132" data-name="Shape" d="M31.882,21.983,0,9.9,10.079,0,42,12.105,31.928,22Z" transform="translate(44 43)" fill="#231f20"/>
  <path id="Shape-133" data-name="Shape" d="M0,7.952,7.882,0l.045.016L36,11.043,28.13,19Z" transform="translate(47 45)" fill="#231f20"/>
  <path id="Shape-134" data-name="Shape" d="M0,6.644,6.379,0,32,10.358,25.621,17Z" transform="translate(50 46)" fill="#231f20"/>
  <path id="Shape-135" data-name="Shape" d="M2.362,6.582A3.492,3.492,0,0,1,0,3.5C0,1.569,2.017,0,4.5,0a5.563,5.563,0,0,1,2.14.419A3.5,3.5,0,0,1,9,3.5C9,5.429,6.979,7,4.5,7H4.449A5.427,5.427,0,0,1,2.362,6.582Z" transform="translate(59 50)" fill="#231f20"/>
  <path id="Shape-136" data-name="Shape" d="M0,1C0,.452.9,0,2,0S4,.45,4,1,3.1,2,2,2,0,1.553,0,1Z" transform="translate(74 57)" fill="#231f20"/>
  <path id="Shape-137" data-name="Shape" d="M0,1C0,.452.9,0,2,0S4,.45,4,1,3.1,2,2,2,0,1.553,0,1Z" transform="translate(53 51)" fill="#231f20"/>
  <path id="Shape-138" data-name="Shape" d="M0,9.415,9.549,0,40,11.589,30.457,21Z" transform="translate(45 41)" fill="#12ca70"/>
  <path id="Shape-139" data-name="Shape" d="M0,7.491,7.825,0,36,10.494,28.187,18Z" transform="translate(47 43)" fill="#12ca70"/>
  <path id="Shape-140" data-name="Shape" d="M0,6.424l.347-.8a6.162,6.162,0,0,0,2.039.333c2.37,0,4.288-1.234,4.288-2.764,0-1.05-.907-1.961-2.242-2.433L4.762,0,20,5.2,13.413,11Z" transform="translate(62 47)" fill="#12ca70"/>
  <path id="Path-59" data-name="Path" d="M2,0C3.1,0,4,.448,4,1S3.1,2,2,2,0,1.552,0,1,.9,0,2,0Z" transform="translate(74 54)" fill="#12ca70"/>
  <path id="Path-60" data-name="Path" d="M5.906.422A3.474,3.474,0,0,1,8,3.5,3.773,3.773,0,0,1,4,7a4.394,4.394,0,0,1-1.9-.422A3.456,3.456,0,0,1,0,3.5,3.775,3.775,0,0,1,4,0a4.528,4.528,0,0,1,1.91.422Z" transform="translate(61 47)" fill="#12ca70"/>
  <path id="Shape-141" data-name="Shape" d="M0,6.151,6.536,0,18,4.18l-.328.809a5.934,5.934,0,0,0-2.038-.354c-2.344,0-4.247,1.315-4.247,2.934a2.985,2.985,0,0,0,2.223,2.578L13.274,11Z" transform="translate(48 43)" fill="#12ca70"/>
  <path id="Path-61" data-name="Path" d="M2,0C3.105,0,4,.448,4,1S3.105,2,2,2,0,1.552,0,1,.9,0,2,0Z" transform="translate(53 46)" fill="#12ca70"/>
  <path id="Shape-142" data-name="Shape" d="M31.882,21.982,0,9.9,10.079,0,42,12.109,31.928,22Z" transform="translate(44 41)" fill="#231f20"/>
  <path id="Shape-143" data-name="Shape" d="M0,7.952,7.882,0l.045.018L36,11.043,28.13,19Z" transform="translate(47 43)" fill="#231f20"/>
  <path id="Shape-144" data-name="Shape" d="M0,6.645,6.379,0,32,10.357,25.627,17Z" transform="translate(50 42)" fill="#231f20"/>
  <path id="Shape-145" data-name="Shape" d="M2.362,6.584A3.493,3.493,0,0,1,0,3.5C0,1.57,2.017,0,4.5,0a5.615,5.615,0,0,1,2.14.416A3.5,3.5,0,0,1,9,3.5C9,5.431,6.979,7,4.5,7H4.442A5.428,5.428,0,0,1,2.362,6.584Z" transform="translate(59 47)" fill="#231f20"/>
  <path id="Shape-146" data-name="Shape" d="M0,1.006C0,.458.9,0,2,0S4,.447,4,1,3.1,2,2,2,0,1.553,0,1.006Z" transform="translate(74 54)" fill="#231f20"/>
  <path id="Shape-147" data-name="Shape" d="M0,1C0,.451.9,0,2,0S4,.45,4,1,3.1,2,2,2,0,1.552,0,1Z" transform="translate(53 46)" fill="#231f20"/>
  <path id="Shape-148" data-name="Shape" d="M0,9.416,9.549,0,40,11.59,30.457,21Z" transform="translate(45 37)" fill="#12ca70"/>
  <path id="Shape-149" data-name="Shape" d="M0,7.493,7.825,0,36,10.5,28.187,18Z" transform="translate(47 38)" fill="#12ca70"/>
  <path id="Shape-150" data-name="Shape" d="M0,6.422l.347-.8a6.115,6.115,0,0,0,2.039.331c2.37,0,4.288-1.233,4.288-2.762,0-1.049-.907-1.958-2.242-2.429L4.762,0,20,5.2,13.413,11Z" transform="translate(62 45)" fill="#12ca70"/>
  <path id="Path-62" data-name="Path" d="M2,0C3.1,0,4,.448,4,1S3.1,2,2,2,0,1.552,0,1,.9,0,2,0Z" transform="translate(74 51)" fill="#12ca70"/>
  <path id="Path-63" data-name="Path" d="M5.906.422A3.472,3.472,0,0,1,8,3.5,3.773,3.773,0,0,1,4,7a4.392,4.392,0,0,1-1.9-.419A3.458,3.458,0,0,1,0,3.5,3.775,3.775,0,0,1,4,0,4.491,4.491,0,0,1,5.906.422Z" transform="translate(61 43)" fill="#12ca70"/>
  <path id="Shape-151" data-name="Shape" d="M0,6.152,6.533,0,18,4.185l-.328.81a5.873,5.873,0,0,0-2.038-.353c-2.343,0-4.245,1.314-4.245,2.931a2.987,2.987,0,0,0,2.222,2.579L13.268,11Z" transform="translate(48 40)" fill="#12ca70"/>
  <path id="Path-64" data-name="Path" d="M2,0C3.105,0,4,.448,4,1S3.105,2,2,2,0,1.552,0,1,.9,0,2,0Z" transform="translate(53 43)" fill="#12ca70"/>
  <path id="Shape-152" data-name="Shape" d="M31.882,21.982,0,9.9,10.079,0,42,12.1,31.928,22Z" transform="translate(44 37)" fill="#231f20"/>
  <path id="Shape-153" data-name="Shape" d="M0,7.952,7.882,0l.045.016L36,11.043,28.13,19Z" transform="translate(47 38)" fill="#231f20"/>
  <path id="Shape-154" data-name="Shape" d="M0,6.644,6.379,0,32,10.358,25.621,17Z" transform="translate(50 39)" fill="#231f20"/>
  <path id="Shape-155" data-name="Shape" d="M2.362,6.582A3.492,3.492,0,0,1,0,3.5C0,1.571,2.017,0,4.5,0a5.6,5.6,0,0,1,2.14.419A3.5,3.5,0,0,1,9,3.5C9,5.431,6.979,7,4.5,7H4.442A5.394,5.394,0,0,1,2.362,6.582Z" transform="translate(59 43)" fill="#231f20"/>
  <path id="Shape-156" data-name="Shape" d="M0,1C0,.452.9,0,2,0S4,.45,4,1,3.1,2,2,2,0,1.553,0,1Z" transform="translate(74 51)" fill="#231f20"/>
  <path id="Shape-157" data-name="Shape" d="M0,1C0,.452.9,0,2,0S4,.45,4,1,3.1,2,2,2,0,1.553,0,1Z" transform="translate(53 43)" fill="#231f20"/>
  <path id="Shape-158" data-name="Shape" d="M0,9.415,9.549,0,40,11.589,30.457,21Z" transform="translate(45 33)" fill="#12ca70"/>
  <path id="Shape-159" data-name="Shape" d="M0,7.491,7.825,0,36,10.5,28.187,18Z" transform="translate(47 36)" fill="#12ca70"/>
  <path id="Shape-160" data-name="Shape" d="M0,6.422l.347-.8a6.116,6.116,0,0,0,2.039.333c2.37,0,4.288-1.233,4.288-2.762,0-1.049-.907-1.96-2.242-2.431L4.762,0,20,5.2,13.413,11Z" transform="translate(62 41)" fill="#12ca70"/>
  <path id="Path-65" data-name="Path" d="M2,0C3.1,0,4,.448,4,1S3.1,2,2,2,0,1.552,0,1,.9,0,2,0Z" transform="translate(74 47)" fill="#12ca70"/>
  <path id="Path-66" data-name="Path" d="M5.906.422A3.474,3.474,0,0,1,8,3.5,3.773,3.773,0,0,1,4,7a4.394,4.394,0,0,1-1.9-.422A3.456,3.456,0,0,1,0,3.5,3.775,3.775,0,0,1,4,0a4.528,4.528,0,0,1,1.91.422Z" transform="translate(61 39)" fill="#12ca70"/>
  <path id="Shape-161" data-name="Shape" d="M0,6.152,6.533,0,18,4.186l-.328.808a5.915,5.915,0,0,0-2.038-.353c-2.343,0-4.245,1.314-4.245,2.933a2.987,2.987,0,0,0,2.222,2.579L13.268,11Z" transform="translate(48 36)" fill="#12ca70"/>
  <path id="Path-67" data-name="Path" d="M2,0C3.105,0,4,.448,4,1S3.105,2,2,2,0,1.552,0,1,.9,0,2,0Z" transform="translate(53 39)" fill="#12ca70"/>
  <path id="Shape-162" data-name="Shape" d="M31.882,21.982,0,9.9,10.079,0,42,12.1,31.928,22Z" transform="translate(44 33)" fill="#231f20"/>
  <path id="Shape-163" data-name="Shape" d="M0,7.949,7.882,0l.045.018L36,11.041,28.13,19Z" transform="translate(47 35)" fill="#231f20"/>
  <path id="Shape-164" data-name="Shape" d="M0,6.644,6.379,0,32,10.356,25.621,17Z" transform="translate(50 36)" fill="#231f20"/>
  <path id="Shape-165" data-name="Shape" d="M2.362,6.582A3.492,3.492,0,0,1,0,3.5C0,1.569,2.017,0,4.5,0a5.615,5.615,0,0,1,2.14.416A3.5,3.5,0,0,1,9,3.5C9,5.429,6.979,7,4.5,7H4.449A5.427,5.427,0,0,1,2.362,6.582Z" transform="translate(59 39)" fill="#231f20"/>
  <path id="Shape-166" data-name="Shape" d="M0,1C0,.454.9,0,2,0S4,.448,4,1,3.1,2,2,2,0,1.552,0,1Z" transform="translate(74 46)" fill="#231f20"/>
  <path id="Shape-167" data-name="Shape" d="M0,1C0,.454.9,0,2,0S4,.448,4,1,3.1,2,2,2,0,1.552,0,1Z" transform="translate(53 40)" fill="#231f20"/>
  <path id="Shape-168" data-name="Shape" d="M0,9.415,9.549,0,40,11.589,30.457,21Z" transform="translate(45 31)" fill="#12ca70"/>
  <path id="Shape-169" data-name="Shape" d="M0,7.492,7.825,0,36,10.5,28.187,18Z" transform="translate(47 32)" fill="#12ca70"/>
  <path id="Shape-170" data-name="Shape" d="M0,6.425l.347-.8a6.162,6.162,0,0,0,2.039.333c2.37,0,4.288-1.234,4.288-2.767,0-1.049-.907-1.959-2.242-2.431L4.762,0,20,5.207,13.4,11Z" transform="translate(62 37)" fill="#12ca70"/>
  <path id="Path-68" data-name="Path" d="M2,0C3.1,0,4,.448,4,1S3.1,2,2,2,0,1.552,0,1,.9,0,2,0Z" transform="translate(74 44)" fill="#12ca70"/>
  <path id="Path-69" data-name="Path" d="M5.906.422A3.471,3.471,0,0,1,8,3.5,3.773,3.773,0,0,1,4,7a4.394,4.394,0,0,1-1.9-.422A3.457,3.457,0,0,1,0,3.5,3.775,3.775,0,0,1,4,0,4.493,4.493,0,0,1,5.906.422Z" transform="translate(61 37)" fill="#12ca70"/>
  <path id="Shape-171" data-name="Shape" d="M0,6.152,6.533,0,18,4.187l-.328.808a5.873,5.873,0,0,0-2.038-.353c-2.343,0-4.245,1.314-4.245,2.931a2.987,2.987,0,0,0,2.222,2.579L13.268,11Z" transform="translate(48 32)" fill="#12ca70"/>
  <path id="Path-70" data-name="Path" d="M2,0C3.105,0,4,.448,4,1S3.105,2,2,2,0,1.552,0,1,.9,0,2,0Z" transform="translate(53 36)" fill="#12ca70"/>
  <path id="Shape-172" data-name="Shape" d="M31.882,21.982,0,9.9,10.079,0,42,12.1,31.928,22Z" transform="translate(44 30)" fill="#231f20"/>
  <path id="Shape-173" data-name="Shape" d="M0,7.952,7.882,0l.045.018L36,11.043,28.13,19Z" transform="translate(47 31)" fill="#231f20"/>
  <path id="Shape-174" data-name="Shape" d="M0,6.251,6.379,0,32,9.743,25.627,16Z" transform="translate(50 32)" fill="#231f20"/>
  <path id="Shape-175" data-name="Shape" d="M2.362,6.584A3.492,3.492,0,0,1,0,3.5C0,1.571,2.017,0,4.5,0a5.6,5.6,0,0,1,2.14.419A3.5,3.5,0,0,1,9,3.5C9,5.431,6.979,7,4.5,7H4.449A5.445,5.445,0,0,1,2.362,6.584Z" transform="translate(59 37)" fill="#231f20"/>
  <path id="Shape-176" data-name="Shape" d="M0,1C0,.452.9,0,2,0S4,.45,4,1,3.1,2,2,2,0,1.553,0,1Z" transform="translate(74 44)" fill="#231f20"/>
  <path id="Shape-177" data-name="Shape" d="M0,1C0,.452.9,0,2,0S4,.45,4,1,3.1,2,2,2,0,1.553,0,1Z" transform="translate(53 36)" fill="#231f20"/>
  <path id="Shape-178" data-name="Shape" d="M0,9.416,9.549,0,40,11.59,30.457,21Z" transform="translate(45 26)" fill="#12ca70"/>
  <path id="Shape-179" data-name="Shape" d="M0,7.488,7.826,0,36,10.5,28.187,18Z" transform="translate(47 28)" fill="#12ca70"/>
  <path id="Shape-180" data-name="Shape" d="M0,6.422l.347-.8a6.116,6.116,0,0,0,2.039.333c2.37,0,4.288-1.233,4.288-2.762,0-1.049-.907-1.96-2.242-2.431L4.762,0,20,5.2,13.413,11Z" transform="translate(62 33)" fill="#12ca70"/>
  <path id="Path-71" data-name="Path" d="M2,0C3.1,0,4,.448,4,1S3.1,2,2,2,0,1.552,0,1,.9,0,2,0Z" transform="translate(74 40)" fill="#12ca70"/>
  <path id="Path-72" data-name="Path" d="M5.906.419A3.475,3.475,0,0,1,8,3.5,3.773,3.773,0,0,1,4,7a4.393,4.393,0,0,1-1.9-.422A3.457,3.457,0,0,1,0,3.5,3.774,3.774,0,0,1,4,0a4.526,4.526,0,0,1,1.91.419Z" transform="translate(61 33)" fill="#12ca70"/>
  <path id="Shape-181" data-name="Shape" d="M0,6.152,6.536,0,18,4.191l-.328.8a5.931,5.931,0,0,0-2.038-.351c-2.344,0-4.247,1.312-4.247,2.931a2.986,2.986,0,0,0,2.223,2.579L13.266,11Z" transform="translate(48 30)" fill="#12ca70"/>
  <path id="Path-73" data-name="Path" d="M2,0C3.105,0,4,.447,4,1S3.105,2,2,2,0,1.553,0,1,.9,0,2,0Z" transform="translate(53 32)" fill="#12ca70"/>
  <path id="Shape-182" data-name="Shape" d="M31.882,21.983,0,9.9,10.079,0,42,12.106,31.928,22Z" transform="translate(44 25)" fill="#231f20"/>
  <path id="Shape-183" data-name="Shape" d="M0,7.951,7.882,0l.045.018L36,11.044,28.13,19Z" transform="translate(47 27)" fill="#231f20"/>
  <path id="Shape-184" data-name="Shape" d="M0,6.644,6.379,0,32,10.356,25.621,17Z" transform="translate(50 29)" fill="#231f20"/>
  <path id="Shape-185" data-name="Shape" d="M2.362,6.582A3.492,3.492,0,0,1,0,3.5C0,1.569,2.017,0,4.5,0a5.615,5.615,0,0,1,2.14.416A3.5,3.5,0,0,1,9,3.5C9,5.426,6.979,7,4.5,7H4.449A5.427,5.427,0,0,1,2.362,6.582Z" transform="translate(59 33)" fill="#231f20"/>
  <path id="Shape-186" data-name="Shape" d="M0,1C0,.452.9,0,2,0S4,.448,4,1,3.1,2,2,2,0,1.553,0,1Z" transform="translate(74 40)" fill="#231f20"/>
  <path id="Shape-187" data-name="Shape" d="M0,1C0,.452.9,0,2,0S4,.448,4,1,3.1,2,2,2,0,1.553,0,1Z" transform="translate(53 32)" fill="#231f20"/>
  <g id="Group-4" data-name="Group" transform="translate(38 16)" opacity="0.44">
    <path id="Path-74" data-name="Path" d="M20.891,0V42.114L0,62.747V20.633L20.891,0Z" transform="translate(41.097 0.19)" fill="#52aaff"/>
    <path id="Path-75" data-name="Path" d="M40.91,15.587V57.7L0,42.114V0L40.91,15.587Z" transform="translate(0.187 5.236)" fill="#52aaff"/>
  </g>
  <path id="Shape-188" data-name="Shape" d="M41.9,56.961,0,41.6V0L.1.039,42,15.4V57Z" transform="translate(39 22)" fill="#231f20"/>
  <path id="Path-76" data-name="Path" d="M.107,63,0,62.894,20.851,42.276V.357L.107,20.872,0,20.766,21,0V42.338l-.022.022L.107,63Z" transform="translate(80 16)" fill="#231f20"/>
  <g id="Group-5" data-name="Group" transform="translate(38)" opacity="0.44">
    <path id="Path-77" data-name="Path" d="M61.8,15.8,40.934,36.765,0,20.913,20.891,0,61.8,15.8Z" transform="translate(0.187 0.109)" fill="#52aaff"/>
  </g>
  <path id="Shape-189" data-name="Shape" d="M0,21.06l.079-.079L20.989,0l.046.018L62,15.884,41.035,37Z" transform="translate(38)" fill="#231f20"/>
  <g id="Group-6" data-name="Group" transform="translate(90 21)">
    <path id="Path-78" data-name="Path" d="M22.414,9.025l.239,4.775L20.54,15.79,21.3,30.9l-4.384,4.131L10.744,25.019l-4.515-.746L8.81,21.841l-3.5-5.67-4.8-.8L0,5.279,4.672.877,8.428,6.9,5.444,9.709l4.834.8.38,7.574,5.281.875-.4-7.913L11.027,10.3,15.3,6.272,15.048,1.2l4.8.793L21.961,0,22.2,4.775,20.088,6.767l.094,1.888-3.049-.5L15.02,10.142l5.281.873,2.114-1.99Z" transform="translate(7.126 13.842)" fill="#ffc65a"/>
    <path id="Path-79" data-name="Path" d="M2.232.371.118,2.361,0,0,2.232.371Z" transform="translate(27.308 22.497)" fill="#e2a84d"/>
    <path id="Path-80" data-name="Path" d="M2.23.369.118,2.359,0,0,2.23.369Z" transform="translate(26.857 13.473)" fill="#e2a84d"/>
    <path id="Path-81" data-name="Path" d="M5.162.5l.118,2.361L0,1.992,2.114,0,5.162.5Z" transform="translate(22.146 21.992)" fill="#ffc65a"/>
    <path id="Path-82" data-name="Path" d="M4.707.506l.118,2.359-4.8-.793L0,1.561,1.656,0,4.707.506Z" transform="translate(22.15 12.967)" fill="#ffc65a"/>
    <path id="Path-83" data-name="Path" d="M4.546,0l.621,12.355-3.051-.506L.459,13.409,0,4.282,4.546,0Z" transform="translate(21.691 1.118)" fill="#ffc65a"/>
    <path id="Path-84" data-name="Path" d="M9.827.875,5.281,5.158,0,4.282,4.546,0,9.827.875Z" transform="translate(16.41 0.243)" fill="#e2a84d"/>
    <path id="Path-85" data-name="Path" d="M3,0,9.169,10.008,3.886,9.135,0,2.827,3,0Z" transform="translate(14.87 38.861)" fill="#e2a84d"/>
    <path id="Path-86" data-name="Path" d="M2.851,0l.4,7.913L0,2.685,2.851,0Z" transform="translate(19.818 24.889)" fill="#e2a84d"/>
    <path id="Path-87" data-name="Path" d="M2.414,3.433,5.661,8.661.38,7.785,0,.211.447.285.749,0,5.265.748,2.414,3.433Z" transform="translate(17.404 24.141)" fill="#ffc65a"/>
    <path id="Path-88" data-name="Path" d="M5.765,10.513l.255,5.076L.737,14.715,0,0,5.281.875,5.74,10l-.457.431.482.08Z" transform="translate(16.41 4.526)" fill="#e2a84d"/>
    <path id="Path-89" data-name="Path" d="M6.876.873,2.6,4.9l-.535-.088L0,1.5,1.593,0,6.876.873Z" transform="translate(15.554 19.241)" fill="#e2a84d"/>
    <path id="Path-90" data-name="Path" d="M.457,0,.482.51,0,.431.457,0Z" transform="translate(21.693 14.528)" fill="#e2a84d"/>
    <path id="Path-91" data-name="Path" d="M.535.088l-.3.285L0,0,.535.088Z" transform="translate(17.619 24.054)" fill="#fff"/>
    <path id="Path-92" data-name="Path" d="M4.95.746l-3,2.827L0,.409.435,0,4.95.746Z" transform="translate(12.92 38.115)" fill="#ffc65a"/>
    <path id="Path-93" data-name="Path" d="M.231.038.464.411.016.337,0,0,.231.038Z" transform="translate(17.388 24.016)" fill="#fff"/>
    <path id="Path-94" data-name="Path" d="M2.984,0,5.048,3.311l-.231-.038.016.337L0,2.809,2.984,0Z" transform="translate(12.571 20.742)" fill="#ffc65a"/>
    <path id="Path-95" data-name="Path" d="M0,0,3.5,5.67.257,5.134,0,0Z" transform="translate(12.432 30.013)" fill="#e2a84d"/>
    <path id="Path-96" data-name="Path" d="M3.247.536.666,2.969.143,2.881,0,0,3.247.536Z" transform="translate(12.689 35.146)" fill="#e2a84d"/>
    <path id="Path-97" data-name="Path" d="M0,0,.523.088.088.5.02.387,0,0Z" transform="translate(12.832 38.027)" fill="#fff"/>
    <path id="Path-98" data-name="Path" d="M7.109,8.6l.059-.056,1.95,3.164L7.35,13.376l.756,15.1L3.559,32.762,2.8,17.658l-2.23-.369L.451,14.871l2.112-1.99L2.35,8.633.12,8.264,0,5.845,2.112,3.858,1.918,0,4.9,4.831,1.828,7.725,7.109,8.6Z" transform="translate(5.752 29.979)" fill="#ffc65a"/>
    <path id="Path-99" data-name="Path" d="M.068.017l.067.11L.077.182.068.017Z" transform="translate(12.784 38.397)" fill="#fff"/>
    <path id="Path-100" data-name="Path" d="M.243.04l.02.387L0,0,.243.04Z" transform="translate(12.589 37.987)" fill="#fff"/>
    <path id="Path-101" data-name="Path" d="M5.281,3.77,0,2.895,3.073,0,5.109.337l.143,2.881-.243-.04.263.427.008.165Z" transform="translate(7.58 34.809)" fill="#ffc65a"/>
    <path id="Path-102" data-name="Path" d="M4.8.8l.257,5.134L3.02,5.592.037.762,0,0,4.8.8Z" transform="translate(7.633 29.217)" fill="#ffc65a"/>
    <path id="Path-103" data-name="Path" d="M9.955.875l-4.672,4.4L0,4.4,4.674,0,9.955.875Z" transform="translate(1.843 13.844)" fill="#e2a84d"/>
    <path id="Path-104" data-name="Path" d="M5.164,0,5.92,15.1.639,14.231,0,1.483l3.053.5L5.164,0Z" transform="translate(3.391 47.637)" fill="#e2a84d"/>
    <path id="Path-105" data-name="Path" d="M2.23.369.118,2.357,0,0,2.23.369Z" transform="translate(6.326 47.268)" fill="#ffc65a"/>
    <path id="Path-106" data-name="Path" d="M5.162,0l.212,4.249L.094,3.375,0,1.483l3.051.506L5.162,0Z" transform="translate(2.94 38.611)" fill="#e2a84d"/>
    <path id="Path-107" data-name="Path" d="M7.392.873,5.281,2.863,0,1.99,2.112,0,7.392.873Z" transform="translate(0.922 41.987)" fill="#e2a84d"/>
    <path id="Path-108" data-name="Path" d="M2.23.369.118,2.359,0,0,2.23.369Z" transform="translate(5.872 38.243)" fill="#ffc65a"/>
    <path id="Path-109" data-name="Path" d="M5.826,11.731l.194,3.858L.737,14.713,0,0,5.283.873l.506,10.1-.482-.08.519.841Z" transform="translate(1.843 18.248)" fill="#e2a84d"/>
    <path id="Path-110" data-name="Path" d="M7.394.875,5.283,2.863,0,1.99,2.112,0,7.394.875Z" transform="translate(0.469 32.961)" fill="#e2a84d"/>
    <path id="Path-111" data-name="Path" d="M.519.841,0,0,.482.08.519.841Z" transform="translate(7.151 29.138)" fill="#e2a84d"/>
    <path id="Path-112" data-name="Path" d="M3.053.506l.118,2.357-3.053-.5L0,0,3.053.506Z" transform="translate(3.273 46.762)" fill="#e2a84d"/>
    <path id="Path-113" data-name="Path" d="M5.281.873,5.4,3.292,2.35,2.785l.118,2.359L.239,4.775,0,0,5.281.873Z" transform="translate(0.922 43.976)" fill="#e2a84d"/>
    <path id="Path-114" data-name="Path" d="M3.051.506l.118,2.359L.118,2.359,0,0,3.051.506Z" transform="translate(2.822 37.736)" fill="#e2a84d"/>
    <path id="Path-115" data-name="Path" d="M5.283.873,5.4,3.292,2.353,2.785l.118,2.359L.241,4.775,0,0,5.283.873Z" transform="translate(0.469 34.951)" fill="#e2a84d"/>
    <path id="Path-116" data-name="Path" d="M2.232.518,0,.148.025,0,2.257.371,2.232.518Z" transform="translate(27.296 22.423)" fill="#231f20"/>
    <path id="Rectangle-8" data-name="Rectangle" d="M.5,0h0L.5,2.261h0Z" transform="matrix(0.167, -0.986, 0.986, 0.167, 26.784, 13.968)" fill="#231f20"/>
    <path id="Path-117" data-name="Path" d="M9.222,7.293,3.9,6.414,0,.076.131,0,4,6.278l5.248.867-.025.148Z" transform="translate(14.805 41.65)" fill="#231f20"/>
    <path id="Path-118" data-name="Path" d="M.106,4.416,0,4.308,4.574,0,9.892.881l-.025.148L4.623.159.106,4.416Z" transform="translate(16.357 0.163)" fill="#231f20"/>
    <path id="Path-119" data-name="Path" d="M.741,14.809,0,0,5.375.891l-.025.148L.163.179.894,14.8l-.153.008Z" transform="translate(16.328 4.436)" fill="#231f20"/>
    <path id="Path-120" data-name="Path" d="M.106,1.635,0,1.527,1.621,0l5.32.879-.025.148L1.67.159.106,1.635Z" transform="translate(15.501 19.161)" fill="#231f20"/>
    <path id="Rectangle-9" data-name="Rectangle" d="M.494,0h0L.506,3.292h0Z" transform="translate(12.6 35.627) rotate(-80.4)" fill="#231f20"/>
    <path id="Path-121" data-name="Path" d="M5.983,13.7.641,12.815l0-.06L0,.008.153,0,.788,12.688l5.22.863-.025.148Z" transform="translate(3.316 49.116)" fill="#231f20"/>
    <path id="Rectangle-10" data-name="Rectangle" d="M.5,0h0l0,1.894h0Z" transform="translate(2.431 40.128) rotate(-2.77)" fill="#231f20"/>
    <path id="Path-122" data-name="Path" d="M.106,2.123,0,2.016,2.14,0,7.458.879l-.025.148L2.189.159.106,2.123Z" transform="translate(0.869 41.907)" fill="#231f20"/>
    <path id="Path-123" data-name="Path" d="M5.591,5.812.247,4.928l0-.06L0,0,5.375.889l-.025.148L.163.179.394,4.8l5.222.863-.025.148Z" transform="translate(0.841 43.887)" fill="#231f20"/>
    <path id="Rectangle-11" data-name="Rectangle" d="M0,.483,2.9.517h0L0,.483Z" transform="matrix(0.719, -0.695, 0.695, 0.719, 0.132, 34.599)" fill="#231f20"/>
    <path id="Path-124" data-name="Path" d="M5.591,5.814.249,4.928l0-.06L0,0,5.377.889l-.025.148L.163.179.4,4.8l5.22.865-.025.148Z" transform="translate(0.387 34.861)" fill="#231f20"/>
    <path id="Path-125" data-name="Path" d="M6.083,15.666.739,14.781l0-.06L0,.008.153,0,.886,14.653l5.222.865-.025.148Z" transform="translate(1.768 18.244)" fill="#231f20"/>
    <path id="Path-126" data-name="Path" d="M3.57,61.957l-.008-.163L2.814,46.853.7,48.841.451,43.869l.025-.024,2.087-1.966-.2-4.051L.249,39.818,0,34.843l2.112-1.988L1.376,18.174l.153-.008.737,14.749L.155,34.9l.229,4.579L2.5,37.493l.223,4.446L.607,43.929l.231,4.577,2.112-1.988.01.163L3.7,61.622l4.4-4.145-.756-15.1,4.862-4.583.049.082,6.12,9.926,4.29-4.041-.758-15.106,2.114-1.99L23.8,22.084l-2.114,1.99-.223-4.446,2.114-1.992-.231-4.577-2.112,1.99L20.495.335l-4.4,4.145.739,14.713-.025.024L12.161,23.6l-6.1-9.789.131-.078,6,9.629,4.484-4.225L15.939,4.42l.025-.024L20.629,0l.739,14.713,2.112-1.99.251,4.972-.025.024-2.089,1.968.2,4.051,2.114-1.99.249,4.972-2.114,1.99.758,15.106-4.478,4.221-.049-.082-6.12-9.926L7.5,42.433l.756,15.1-.025.024-4.666,4.4Z" transform="translate(5.674 0.951)" fill="#231f20"/>
    <path id="Shape-190" data-name="Shape" d="M0,0,3.695,5.981.454,9.027Z" transform="translate(12.34 29.72)" fill="#231f20"/>
    <path id="Shape-191" data-name="Shape" d="M0,2.843,3.016,0l.421,8.374Z" transform="translate(19.72 24.722)" fill="#231f20"/>
    <path id="Shape-192" data-name="Shape" d="M0,4.541,4.811,0l5.467.905-4.81,4.54Z" transform="translate(1.682 13.756)" fill="#231f20"/>
  </g>
  <rect id="Rectangle-12" data-name="Rectangle" width="149" height="110" fill="#f49493" style="mix-blend-mode: color;isolation: isolate"/>
</svg>
