<svg xmlns="http://www.w3.org/2000/svg" width="23" height="22" viewBox="0 0 23 22">
  <g id="Activity" transform="translate(-0.5)">
    <path id="Path_34168" d="M14.07,20H5.94a6.016,6.016,0,0,1-4.373-1.568A6,6,0,0,1,0,14.068V5.951A6.03,6.03,0,0,1,1.567,1.578,6,6,0,0,1,5.94,0h8.852a4.327,4.327,0,0,0-.078.82,4.476,4.476,0,0,0,4.475,4.468A4.467,4.467,0,0,0,20,5.21v8.858a6.006,6.006,0,0,1-1.565,4.364A6,6,0,0,1,14.07,20ZM8.025,7.866a.824.824,0,0,0-.659.33L4.084,12.429a.809.809,0,0,0-.176.508.821.821,0,0,0,1.515.478L8.168,9.863l3.048,2.39a.821.821,0,0,0,1.172-.146l3.176-4.1V7.99a.833.833,0,0,0-.157-1.161.818.818,0,0,0-.5-.169.827.827,0,0,0-.115.008.817.817,0,0,0-.541.327l-2.677,3.444-3.048-2.4A.825.825,0,0,0,8.025,7.866Z" transform="translate(0.5 2)" fill="#484848"/>
    <circle id="Ellipse_742" cx="3" cy="3" r="3" transform="translate(17.5)" fill="#484848" opacity="0.4"/>
  </g>
</svg>
