<svg xmlns="http://www.w3.org/2000/svg" width="79.8" height="50.655" viewBox="0 0 79.8 50.655"><g transform="translate(-0.286 -1.34)"><g transform="translate(0.157 0.471)"><path d="M0,12.5A51.489,51.489,0,0,1,42.317.739,65.593,65.593,0,0,0,7.937,19.017Z" transform="translate(0.129 0.868)" fill="#d7a81e"/></g><g transform="translate(12.014 1.471)"><path d="M0,22.876c9.351-9.926,29.6-26.4,54-22.2C36.673,3,16.423,18.856,7.941,32.086Z" transform="translate(0.957 0.416)" fill="#d7a81e"/></g><g transform="translate(24.871 3.471)"><path d="M0,36.6C4.56,27.716,26.447,5,46.286,0L54.3,2.79a119.76,119.76,0,0,0-46.453,45.6Z" transform="translate(0.914 0.129)" fill="#d7a81e"/></g></g></svg>