<svg xmlns="http://www.w3.org/2000/svg" id="prefix__bx-user" width="13.263" height="14" viewBox="0 0 13.263 14">
    <g id="prefix__Group_269" data-name="Group 269">
        <path id="prefix__Path_2528" fill="#fff" fill-rule="evenodd" d="M6.632 0a3.684 3.684 0 1 0 3.684 3.684A3.688 3.688 0 0 0 6.632 0zm0 5.895a2.211 2.211 0 1 1 2.21-2.211 2.213 2.213 0 0 1-2.21 2.211zm6.632 7.368V14h-1.475v-.737a3.688 3.688 0 0 0-3.684-3.684H5.158a3.688 3.688 0 0 0-3.684 3.684V14H0v-.737a5.164 5.164 0 0 1 5.158-5.158h2.947a5.165 5.165 0 0 1 5.158 5.158z" data-name="Path 2528"/>
    </g>
</svg>
