<svg xmlns="http://www.w3.org/2000/svg" xmlns:xlink="http://www.w3.org/1999/xlink" width="157.939" height="106.834" viewBox="0 0 157.939 106.834">
  <defs>
    <clipPath id="clip-path">
      <path id="Path_2609" data-name="Path 2609" d="M148.8,20.958c-1.634-.949-3.9-.817-6.407.629-4.975,2.87-8.994,9.833-8.976,15.548,0,2.841,1.008,4.839,2.628,5.778l2.609,1.516c-1.619-.938,11.121-22.9,12.759-21.951Z" transform="translate(-133.42 -20.352)" fill="none"/>
    </clipPath>
    <clipPath id="clip-path-2">
      <path id="Path_2681" data-name="Path 2681" d="M226,212.346v3c0,1.858,1.222,3.709,3.662,5.126,4.905,2.848,12.88,2.848,17.811,0,2.484-1.432,3.728-3.312,3.72-5.2V212.28C246.869,212.28,230.048,212.346,226,212.346Z" transform="translate(-226 -212.28)" fill="none"/>
    </clipPath>
    <clipPath id="clip-path-3">
      <path id="Path_2686" data-name="Path 2686" d="M219.55,200.1v3c0,1.84,1.222,3.709,3.662,5.126,4.9,2.848,12.88,2.848,17.811,0,2.484-1.435,3.728-3.312,3.72-5.2v-3C240.408,200.017,223.569,200.1,219.55,200.1Z" transform="translate(-219.55 -200.027)" fill="none"/>
    </clipPath>
    <clipPath id="clip-path-4">
      <path id="Path_2691" data-name="Path 2691" d="M230.37,188.99v3c0,1.84,1.225,3.709,3.68,5.126,4.905,2.848,12.88,2.848,17.815,0,2.484-1.435,3.724-3.312,3.717-5.2v-3C251.21,188.92,234.385,188.99,230.37,188.99Z" transform="translate(-230.37 -188.92)" fill="none"/>
    </clipPath>
    <clipPath id="clip-path-5">
      <path id="Path_2696" data-name="Path 2696" d="M220.9,177.79v3c0,1.84,1.225,3.709,3.68,5.126,4.9,2.848,12.88,2.848,17.811,0,2.484-1.432,3.724-3.312,3.72-5.2v-3C241.758,177.72,224.919,177.79,220.9,177.79Z" transform="translate(-220.9 -177.72)" fill="none"/>
    </clipPath>
    <clipPath id="clip-path-6">
      <path id="Path_2701" data-name="Path 2701" d="M227.7,165.094v3c0,1.858,1.225,3.709,3.662,5.126,4.905,2.848,12.88,2.848,17.815,0,2.484-1.432,3.724-3.312,3.72-5.2v-2.992C248.558,165.017,231.719,165.094,227.7,165.094Z" transform="translate(-227.7 -165.027)" fill="none"/>
    </clipPath>
    <clipPath id="clip-path-7">
      <path id="Path_2718" data-name="Path 2718" d="M280.135,196.633c-1.869.283-3.555,1.807-4.6,4.5-2.079,5.354-.854,13.3,2.738,17.745,1.781,2.208,3.816,3.139,5.664,2.859l2.984-.453c-1.84.28-5.671-24.822-3.8-25.1Z" transform="translate(-274.519 -196.18)" fill="none"/>
    </clipPath>
  </defs>
  <g id="Layer_2" data-name="Layer 2" transform="translate(-16.747 -0.234)">
    <g id="OBJECTS" transform="translate(0 0.748)">
      <path id="Path_2577" data-name="Path 2577" d="M92.408,60.478c-.07-3.82,2.4-7.651,7.419-10.565,9.936-5.774,26.1-5.774,36.1,0,5.034,2.907,7.548,6.72,7.537,10.528s-2.484,7.515-7.419,10.381c-9.936,5.778-26.1,5.778-36.1,0C94.987,67.971,92.474,64.228,92.408,60.478Zm2.686.607c.309,3.15,2.55,6.256,6.716,8.659,8.964,5.174,23.453,5.174,32.358,0,4.088-2.385,6.3-5.45,6.609-8.552.368-3.658-1.877-7.386-6.712-10.179-8.968-5.178-23.453-5.178-32.358,0C96.938,53.77,94.737,57.461,95.094,61.085Z" transform="translate(-58.401 -29.083)" fill="#fff"/>
      <path id="Path_2578" data-name="Path 2578" d="M143.249,86q-.066,22.5-.129,45c0,3.761-2.48,7.515-7.419,10.385-9.936,5.774-26.1,5.774-36.1,0-5.034-2.918-7.559-6.731-7.537-10.54l.129-44.819c.066,3.75,2.576,7.492,7.537,10.352,10,5.774,26.165,5.774,36.1,0C140.765,93.5,143.238,89.75,143.249,86Z" transform="translate(-58.182 -54.627)" fill="#deeaed"/>
      <path id="Path_2579" data-name="Path 2579" d="M143.12,202.334c0,3.761-2.48,7.515-7.419,10.385-9.936,5.774-26.1,5.774-36.1,0-5.034-2.907-7.559-6.72-7.537-10.528" transform="translate(-58.182 -128.059)" fill="none" stroke="#324d53" stroke-linejoin="round" stroke-width="1"/>
      <path id="Path_2580" data-name="Path 2580" d="M138.595,53.643c4.836,2.793,7.077,6.51,6.712,10.19-.313-3.146-2.55-6.256-6.712-8.644-8.968-5.178-23.453-5.178-32.358,0-4.1,2.381-6.3,5.439-6.624,8.552-.368-3.625,1.84-7.316,6.624-10.087C115.142,48.465,129.626,48.465,138.595,53.643Z" transform="translate(-62.93 -31.724)" fill="#deeaed"/>
      <path id="Path_2581" data-name="Path 2581" d="M138.656,57.812c4.162,2.4,6.4,5.5,6.712,8.655-.305,3.113-2.51,6.179-6.624,8.56-8.906,5.178-23.394,5.178-32.358,0-4.166-2.407-6.407-5.52-6.716-8.659.313-3.113,2.517-6.171,6.624-8.552C115.2,52.634,129.688,52.634,138.656,57.812Zm-6.528,4.464a1.023,1.023,0,0,0,0-1.932l-.464-.269a3.68,3.68,0,0,0-3.334,0l-15.4,8.942a1.023,1.023,0,0,0,0,1.932l.1.055.368.213a3.68,3.68,0,0,0,3.341,0l15.279-8.88Z" transform="translate(-62.991 -34.358)" fill="#deeaed"/>
      <path id="Path_2582" data-name="Path 2582" d="M153.718,70.213a1.019,1.019,0,0,1,0,1.932l-.107.063-.368-.213a3.68,3.68,0,0,0-3.334,0l-15.268,8.88-.1-.055a1.019,1.019,0,0,1,0-1.932l15.39-8.942a3.68,3.68,0,0,1,3.334,0Z" transform="translate(-84.593 -44.228)" fill="#deeaed"/>
      <path id="Path_2583" data-name="Path 2583" d="M154.969,75.728l-15.279,8.88a3.68,3.68,0,0,1-3.341,0l-.368-.213,15.287-8.88a3.68,3.68,0,0,1,3.334,0Z" transform="translate(-85.939 -47.748)" fill="#324d53"/>
      <path id="Path_2584" data-name="Path 2584" d="M143.249,85.728q-.066,22.5-.129,45c0,3.761-2.48,7.515-7.419,10.385-9.936,5.774-26.1,5.774-36.1,0-5.034-2.918-7.559-6.731-7.537-10.54l.129-44.819v-.18" transform="translate(-58.182 -54.355)" fill="none" stroke="#324d53" stroke-linejoin="round" stroke-width="1"/>
      <path id="Path_2585" data-name="Path 2585" d="M143.468,60.477c0-3.809-2.5-7.621-7.537-10.528-10-5.778-26.168-5.778-36.1,0-5.016,2.9-7.489,6.731-7.419,10.551.066,3.75,2.576,7.492,7.537,10.352,10,5.774,26.165,5.774,36.1,0C140.984,67.98,143.456,64.227,143.468,60.477Z" transform="translate(-58.401 -29.104)" fill="none" stroke="#324d53" stroke-linejoin="round" stroke-width="1"/>
      <path id="Path_2586" data-name="Path 2586" d="M145.3,63.842c-.305,3.113-2.51,6.179-6.624,8.56-8.906,5.178-23.394,5.178-32.358,0-4.166-2.407-6.407-5.52-6.716-8.659-.368-3.625,1.84-7.316,6.624-10.087,8.906-5.174,23.39-5.174,32.358,0C143.424,56.445,145.665,60.162,145.3,63.842Z" transform="translate(-62.924 -31.733)" fill="none" stroke="#324d53" stroke-linejoin="round" stroke-width="1"/>
      <path id="Path_2587" data-name="Path 2587" d="M99.71,66.388h0c.313-3.113,2.517-6.171,6.624-8.552,8.906-5.174,23.39-5.174,32.358,0,4.151,2.392,6.388,5.491,6.7,8.648" transform="translate(-63.017 -34.375)" fill="none" stroke="#324d53" stroke-linejoin="round" stroke-width="1"/>
      <path id="Path_2588" data-name="Path 2588" d="M153.612,72.208l.107-.063a1.023,1.023,0,0,0,0-1.932l-.464-.269a3.68,3.68,0,0,0-3.334,0l-15.4,8.942a1.023,1.023,0,0,0,0,1.932l.1.055.368.213a3.68,3.68,0,0,0,3.341,0Z" transform="translate(-84.582 -44.228)" fill="none" stroke="#324d53" stroke-linejoin="round" stroke-width="0.5"/>
      <path id="Path_2589" data-name="Path 2589" d="M154.981,75.728l-.368-.213a3.68,3.68,0,0,0-3.334,0L136,84.394" transform="translate(-85.952 -47.748)" fill="none" stroke="#324d53" stroke-linejoin="round" stroke-width="1"/>
      <path id="Path_2590" data-name="Path 2590" d="M174.74,160.062c-.659.6-1.336,1.638-4.269,6.565a35.116,35.116,0,0,0-7.147,1.9c-5.174-4.935-6.065-4-6.716-3.312-1.1,1.148-1.759,3.654-2.006,7.456a22.475,22.475,0,0,1-.431,4.1,7.75,7.75,0,0,0-.173,1.6c.224,9.351,13.517,9.156,19.232,3.36a13.371,13.371,0,0,0,3.452-8.5,16.108,16.108,0,0,0-.07-2.892c-.346-2.734-.088-5.52-.508-8.232-.155-1-.471-2.208-1.1-2.156a.614.614,0,0,0-.272.125" transform="translate(-97.328 -101.354)" fill="#f5ebd0"/>
      <path id="Path_2591" data-name="Path 2591" d="M183.417,214.909c-1.016-.114-1.446-.916-.957-1.354.291-.258,3.205-1.409,3.216-.478a2.249,2.249,0,0,1-1.126,1.535c.7.478,1.557-.074,1.8-.254h0c.386-.254.552,0,.515.2a2.2,2.2,0,0,1-2.892.718c-1.141,1.369-3.029,1.34-3.076.824a.482.482,0,0,1,.574-.449h0a2.079,2.079,0,0,0,1.921-.736" transform="translate(-114.329 -134.713)" fill="#324d53"/>
      <path id="Path_2592" data-name="Path 2592" d="M167.476,203.582c-.53,0-.736-.489-.431-.776.7-.684,5.226.648,5.207,1.531a.646.646,0,0,1-1.1.368,6.23,6.23,0,0,0-3.625-1.1h-.044" transform="translate(-105.483 -128.329)" fill="#324d53"/>
      <path id="Path_2593" data-name="Path 2593" d="M197.263,196.445c-.368.14-.6-.14-.434-.515a14.252,14.252,0,0,1,2.407-2.727c1.645-1.472,1.741-1.185,1.8-1.016a.894.894,0,0,1-.412.894h0a11.114,11.114,0,0,0-3,3.069.8.8,0,0,1-.368.291" transform="translate(-124.363 -121.648)" fill="#324d53"/>
      <path id="Path_2594" data-name="Path 2594" d="M175.537,133.641c-11.312,3.743-10.554,9.675-6.381,11.526a7.312,7.312,0,0,0,3.9.486c.328.707.758,1.649,1.082,2.359a16.994,16.994,0,0,1,1.571-3.187,2.4,2.4,0,0,1,.684-.368,10.709,10.709,0,0,0,3.312-3.047,11.743,11.743,0,0,0,2.145-5.365C182.153,132.887,180.266,132.169,175.537,133.641Z" transform="translate(-105.127 -84.273)" fill="#ebd79e"/>
      <path id="Path_2595" data-name="Path 2595" d="M183.734,147.774l-1.2,1.086c-1.623-.537-3.154-1.045-3.606-2.307a2.7,2.7,0,0,1,1.689-3.032c.269-.132,1.634-.736,2.4.158,1.152-1.7,3.249-2.237,3.562-.913C186.766,143.6,186.435,145.139,183.734,147.774Z" transform="translate(-113.022 -90.034)" fill="#324d53"/>
      <path id="Path_2596" data-name="Path 2596" d="M148.8,20.958c-1.634-.949-3.9-.817-6.407.629-4.975,2.87-8.994,9.833-8.976,15.548,0,2.841,1.008,4.839,2.628,5.778l2.609,1.516c-1.619-.938,11.121-22.9,12.759-21.951Z" transform="translate(-84.321 -13.137)" fill="#deeaed" stroke="#324d53" stroke-linejoin="round" stroke-width="1"/>
      <g id="Group_342" data-name="Group 342" transform="translate(49.098 7.214)" clip-path="url(#clip-path)">
        <path id="Path_2597" data-name="Path 2597" d="M166.09,20.223,153,12.62" transform="translate(-145.794 -15.465)" fill="#deeaed" stroke="#324d53" stroke-linejoin="round" stroke-width="0.5"/>
        <path id="Path_2598" data-name="Path 2598" d="M163.2,25.149l-13.079-7.6" transform="translate(-143.974 -18.581)" fill="#deeaed" stroke="#324d53" stroke-linejoin="round" stroke-width="0.5"/>
        <path id="Path_2599" data-name="Path 2599" d="M160.292,30.073l-13.082-7.6" transform="translate(-142.135 -21.69)" fill="#deeaed" stroke="#324d53" stroke-linejoin="round" stroke-width="0.5"/>
        <path id="Path_2600" data-name="Path 2600" d="M157.382,35,144.3,27.4" transform="translate(-140.296 -24.806)" fill="#deeaed" stroke="#324d53" stroke-linejoin="round" stroke-width="0.5"/>
        <path id="Path_2601" data-name="Path 2601" d="M154.5,39.93l-13.1-7.61" transform="translate(-138.463 -27.916)" fill="#deeaed" stroke="#324d53" stroke-linejoin="round" stroke-width="0.5"/>
        <path id="Path_2602" data-name="Path 2602" d="M151.558,44.853l-13.068-7.6" transform="translate(-136.624 -31.031)" fill="#deeaed" stroke="#324d53" stroke-linejoin="round" stroke-width="0.5"/>
        <path id="Path_2603" data-name="Path 2603" d="M148.669,49.773l-13.079-7.6" transform="translate(-134.791 -34.141)" fill="#deeaed" stroke="#324d53" stroke-linejoin="round" stroke-width="0.5"/>
        <path id="Path_2604" data-name="Path 2604" d="M145.762,54.7,132.68,47.1" transform="translate(-132.952 -37.257)" fill="#deeaed" stroke="#324d53" stroke-linejoin="round" stroke-width="0.5"/>
        <path id="Path_2605" data-name="Path 2605" d="M142.852,59.614,129.77,52" transform="translate(-131.113 -40.353)" fill="#deeaed" stroke="#324d53" stroke-linejoin="round" stroke-width="0.5"/>
        <path id="Path_2606" data-name="Path 2606" d="M139.949,64.584,126.87,57" transform="translate(-129.28 -43.513)" fill="#deeaed" stroke="#324d53" stroke-linejoin="round" stroke-width="0.5"/>
        <path id="Path_2607" data-name="Path 2607" d="M137.068,69.483,124,61.88" transform="translate(-127.466 -46.598)" fill="#deeaed" stroke="#324d53" stroke-linejoin="round" stroke-width="0.5"/>
        <path id="Path_2608" data-name="Path 2608" d="M134.132,74.4,121.05,66.8" transform="translate(-125.602 -49.707)" fill="#deeaed" stroke="#324d53" stroke-linejoin="round" stroke-width="0.5"/>
      </g>
      <path id="Path_2610" data-name="Path 2610" d="M149.485,25.738c-4.972,2.87-8.994,9.833-8.976,15.548s4.048,8.022,9.034,5.152,8.994-9.833,8.976-15.552S154.461,22.868,149.485,25.738Z" transform="translate(-88.802 -15.761)" fill="#deeaed" stroke="#324d53" stroke-linejoin="round" stroke-width="1"/>
      <path id="Path_2611" data-name="Path 2611" d="M153.114,32.827a15.167,15.167,0,0,0-6.874,11.9c.011,4.376,3.11,6.142,6.918,3.945a15.156,15.156,0,0,0,6.874-11.908C160.022,32.392,156.919,30.63,153.114,32.827Z" transform="translate(-92.424 -20.424)" fill="none" stroke="#324d53" stroke-linejoin="round" stroke-width="1"/>
      <path id="Path_2613" data-name="Path 2613" d="M382.161,31.944c-6.528,13.049-13.134,18.245-17.083,16.269s-3.754-10.378,2.775-23.427S384.781-1.025,388.719.951,388.682,18.891,382.161,31.944Z" transform="translate(-229.073 -0.748)" fill="#deeaed" stroke="#324d53" stroke-linejoin="round" stroke-width="1"/>
      <line id="Line_23" data-name="Line 23" x1="23.64" y2="47.262" transform="translate(135.998 0.203)" fill="none" stroke="#7e9195" stroke-linejoin="round" stroke-width="0.5"/>
      <path id="Path_2614" data-name="Path 2614" d="M365.39,95.23l3.154,9.458L378,101.541" transform="translate(-230.926 -60.46)" fill="none" stroke="#7e9195" stroke-linejoin="round" stroke-width="0.75"/>
      <path id="Path_2615" data-name="Path 2615" d="M379.25,61.86l3.57,10.712L393.528,69" transform="translate(-239.686 -39.371)" fill="none" stroke="#7e9195" stroke-linejoin="round" stroke-width="0.5"/>
      <path id="Path_2616" data-name="Path 2616" d="M395.32,35.15l3.172,9.516L408,41.494" transform="translate(-249.842 -22.49)" fill="none" stroke="#7e9195" stroke-linejoin="round" stroke-width="0.5"/>
      <path id="Path_2617" data-name="Path 2617" d="M412.91,12.99l2.215,6.642,6.639-2.212" transform="translate(-260.959 -8.485)" fill="none" stroke="#7e9195" stroke-linejoin="round" stroke-width="0.5"/>
      <path id="Path_2618" data-name="Path 2618" d="M394.536,90.511c-8.987,5.189-12.4,10.1-10.823,12.821s7.529,2.208,16.516-2.97,17.605-13.108,16.034-15.824S403.526,85.318,394.536,90.511Z" transform="translate(-242.272 -53.106)" fill="#deeaed" stroke="#324d53" stroke-linejoin="round" stroke-width="1"/>
      <line id="Line_24" data-name="Line 24" x1="32.55" y2="18.801" transform="translate(141.441 31.424)" fill="none" stroke="#7e9195" stroke-linejoin="round" stroke-width="0.5"/>
      <path id="Path_2619" data-name="Path 2619" d="M397.252,123.8l-6.852-1.836,1.836-6.852" transform="translate(-246.733 -73.025)" fill="none" stroke="#7cb53e" stroke-linejoin="round" stroke-width="0.75"/>
      <path id="Path_2620" data-name="Path 2620" d="M418.8,110.573,411.05,108.5l2.076-7.757" transform="translate(-259.784 -63.943)" fill="none" stroke="#7e9195" stroke-linejoin="round" stroke-width="0.5"/>
      <path id="Path_2621" data-name="Path 2621" d="M438.573,99.906l-6.893-1.847,1.844-6.889" transform="translate(-272.822 -57.895)" fill="none" stroke="#7e9195" stroke-linejoin="round" stroke-width="0.5"/>
      <path id="Path_2622" data-name="Path 2622" d="M457.12,91l-4.81-1.288L453.6,84.9" transform="translate(-285.86 -53.932)" fill="none" stroke="#7e9195" stroke-linejoin="round" stroke-width="0.5"/>
      <path id="Path_2623" data-name="Path 2623" d="M316.874,37.4c2.815,11.982,7.224,17.532,10.867,16.689s5.1-7.791,2.289-19.776-8.869-24.483-12.5-23.633S314.059,25.411,316.874,37.4Z" transform="translate(-198.941 -6.999)" fill="#deeaed" stroke="#324d53" stroke-linejoin="round" stroke-width="1"/>
      <line id="Line_25" data-name="Line 25" x2="10.197" y2="43.409" transform="translate(118.588 3.681)" fill="none" stroke="#7e9195" stroke-linejoin="round" stroke-width="0.5"/>
      <path id="Path_2624" data-name="Path 2624" d="M340.215,101.19l-4.434,7.154-7.15-4.431" transform="translate(-207.694 -64.227)" fill="none" stroke="#7cb53e" stroke-linejoin="round" stroke-width="0.75"/>
      <path id="Path_2625" data-name="Path 2625" d="M332.712,71.1,327.7,79.2l-8.1-5.016" transform="translate(-201.987 -45.21)" fill="none" stroke="#7e9195" stroke-linejoin="round" stroke-width="0.5"/>
      <path id="Path_2626" data-name="Path 2626" d="M327.241,46.03l-4.46,7.2-7.191-4.456" transform="translate(-199.453 -29.366)" fill="none" stroke="#7e9195" stroke-linejoin="round" stroke-width="0.5"/>
      <path id="Path_2627" data-name="Path 2627" d="M323.159,24.43l-3.11,5.02-5.02-3.113" transform="translate(-199.099 -15.715)" fill="none" stroke="#7e9195" stroke-linejoin="round" stroke-width="0.5"/>
      <path id="Path_2628" data-name="Path 2628" d="M389.747,196.72v5.8L366.28,216.154v-5.8Z" transform="translate(-231.489 -124.602)" fill="#deeaed" stroke="#324d53" stroke-linejoin="round" stroke-width="1.5"/>
      <path id="Path_2629" data-name="Path 2629" d="M288.98,189.148v5.8l-45.01-25.988v-5.8Z" transform="translate(-154.189 -103.392)" fill="#deeaed" stroke="#324d53" stroke-linejoin="round" stroke-width="1.5"/>
      <path id="Path_2630" data-name="Path 2630" d="M312.447,152.088,288.98,165.726l-45.01-25.988L267.437,126.1Z" transform="translate(-154.189 -79.97)" fill="#deeaed" stroke="#324d53" stroke-linejoin="round" stroke-width="1.5"/>
      <path id="Path_2631" data-name="Path 2631" d="M367.958,194.912a5.52,5.52,0,0,0-5,0c-1.38.8-1.373,2.1,0,2.9a5.52,5.52,0,0,0,5,0C369.353,197.009,369.342,195.714,367.958,194.912Z" transform="translate(-228.737 -123.081)" fill="#7cb53e"/>
      <path id="Path_2632" data-name="Path 2632" d="M298.888,155.042a5.52,5.52,0,0,0-5,0c-1.38.8-1.373,2.1,0,2.9a5.52,5.52,0,0,0,5,0C300.287,157.139,300.268,155.84,298.888,155.042Z" transform="translate(-185.084 -97.883)" fill="#7cb53e"/>
      <path id="Path_2633" data-name="Path 2633" d="M273.313,131.48,253.25,143.138l41.584,24.012L314.9,155.488Zm-1.233,1.921a2.793,2.793,0,0,1,2.528,0,.777.777,0,0,1,0,1.472,2.8,2.8,0,0,1-2.532,0,.781.781,0,0,1,0-1.472ZM259.1,143.885a2.782,2.782,0,0,1-2.528,0,.777.777,0,0,1,0-1.472,2.808,2.808,0,0,1,2.528,0A.786.786,0,0,1,259.1,143.885Zm36.966,21.344a2.782,2.782,0,0,1-2.528,0,.777.777,0,0,1,0-1.472,2.789,2.789,0,0,1,2.532,0,.779.779,0,0,1,0,1.468ZM297.881,163a6.767,6.767,0,0,0-6.142,0l-31.32-18.084c1.693-.986,1.685-2.576-.018-3.559l9.862-5.733a6.767,6.767,0,0,0,6.142,0l31.32,18.084c-1.693.983-1.682,2.576.022,3.559Zm13.7-6.79a2.782,2.782,0,0,1-2.528,0,.777.777,0,0,1,0-1.472,2.789,2.789,0,0,1,2.532,0,.778.778,0,0,1,0,1.468Z" transform="translate(-160.054 -83.37)" fill="#324d53"/>
      <path id="Path_2634" data-name="Path 2634" d="M327.136,166.246a15.172,15.172,0,0,0-13.785,0c-3.794,2.208-3.779,5.781.04,7.989a15.188,15.188,0,0,0,13.793,0C330.982,172.027,330.96,168.45,327.136,166.246Zm-3.879,4.383a3.408,3.408,0,0,0-1.214-1.373,1.06,1.06,0,0,0-1.019-.121c-.964.563,2.547,1.954.537,3.121a3.906,3.906,0,0,1-3.507-.077l-1.2.7-1.056-.611,1.233-.736a2.734,2.734,0,0,1-1.086-1.593l1.645-.313a2.473,2.473,0,0,0,1.189,1.652,1.233,1.233,0,0,0,1.214.14c.986-.574-2.576-1.943-.592-3.091a3.757,3.757,0,0,1,3.2-.029l1.178-.684,1.06.611-1.141.659a3.36,3.36,0,0,1,1.211,1.4Z" transform="translate(-196.246 -104.296)" fill="#7cb53e"/>
      <path id="Path_2635" data-name="Path 2635" d="M347.987,172.62,324.52,186.258l8.332,4.81,23.467-13.638Z" transform="translate(-205.097 -109.371)" fill="#deeaed" stroke="#324d53" stroke-linejoin="round" stroke-width="1.5"/>
      <path id="Path_2636" data-name="Path 2636" d="M363.727,181.71,340.26,195.344l1.409.817,23.471-13.638Z" transform="translate(-215.044 -115.116)" fill="#324d53"/>
      <path id="Path_2637" data-name="Path 2637" d="M351.051,174.39,327.58,188.028l1.413.813L352.46,175.2Z" transform="translate(-207.031 -110.49)" fill="#324d53"/>
      <path id="Path_2638" data-name="Path 2638" d="M324.52,209.68v5.789l8.332,4.813V214.49Z" transform="translate(-205.097 -132.793)" fill="#deeaed" stroke="#324d53" stroke-linejoin="round" stroke-width="1"/>
      <path id="Path_2639" data-name="Path 2639" d="M328.993,218.056l-1.413-.813V211.45l1.413.813Z" transform="translate(-207.031 -133.911)" fill="#324d53"/>
      <path id="Path_2640" data-name="Path 2640" d="M341.669,225.369l-1.409-.817V218.76l1.409.817Z" transform="translate(-215.044 -138.531)" fill="#324d53"/>
      <path id="Path_2641" data-name="Path 2641" d="M403.554,177.13v5.792L380.02,197.168v-5.792Z" transform="translate(-240.173 -112.221)" fill="#deeaed" stroke="#324d53" stroke-linejoin="round" stroke-width="1"/>
      <path id="Path_2642" data-name="Path 2642" d="M302.505,173.205V179L257.37,154.172V148.38Z" transform="translate(-162.658 -94.051)" fill="#deeaed" stroke="#324d53" stroke-linejoin="round" stroke-width="1.5"/>
      <path id="Path_2643" data-name="Path 2643" d="M326.039,134.5l-23.534,14.245L257.37,123.915,280.9,109.67Z" transform="translate(-162.658 -69.587)" fill="#deeaed" stroke="#324d53" stroke-linejoin="round" stroke-width="1"/>
      <path id="Path_2644" data-name="Path 2644" d="M381.707,176.764a5.542,5.542,0,0,0-5.016.125c-1.38.835-1.373,2.134.018,2.9a5.549,5.549,0,0,0,5.02-.129C383.109,178.825,383.1,177.526,381.707,176.764Z" transform="translate(-237.418 -111.649)" fill="#7cb53e"/>
      <path id="Path_2645" data-name="Path 2645" d="M312.451,138.67a5.564,5.564,0,0,0-5.02.129c-1.38.835-1.373,2.134.018,2.9a5.549,5.549,0,0,0,5.02-.129C313.849,140.734,313.838,139.435,312.451,138.67Z" transform="translate(-193.646 -87.576)" fill="#7cb53e"/>
      <path id="Path_2646" data-name="Path 2646" d="M286.8,115,266.68,127.181l41.7,22.948L328.5,137.952Zm-1.233,1.972a2.8,2.8,0,0,1,2.539-.066c.7.368.707,1.041,0,1.472a2.808,2.808,0,0,1-2.539.066C284.87,118.051,284.867,117.392,285.566,116.972Zm-13.012,10.816a2.8,2.8,0,0,1-2.536.066c-.7-.386-.71-1.041,0-1.472a2.808,2.808,0,0,1,2.539-.066c.688.394.692,1.052-.007,1.472Zm37.065,20.387a2.812,2.812,0,0,1-2.536.066c-.707-.39-.71-1.041,0-1.472a2.808,2.808,0,0,1,2.539-.063c.685.39.692,1.045-.007,1.468Zm1.818-2.263a6.8,6.8,0,0,0-6.16.162L273.871,128.8c1.7-1.027,1.689-2.616-.018-3.559l9.873-6a6.81,6.81,0,0,0,6.16-.158l31.42,17.259c-1.7,1.027-1.685,2.616.022,3.555Zm13.737-7.143a2.83,2.83,0,0,1-2.539.066c-.7-.39-.7-1.045,0-1.472a2.808,2.808,0,0,1,2.539-.066c.692.379.7,1.038,0,1.461Z" transform="translate(-168.542 -72.955)" fill="#324d53"/>
      <path id="Path_2647" data-name="Path 2647" d="M340.773,148.875a15.235,15.235,0,0,0-13.826.368c-3.805,2.318-3.79,5.888.04,7.989a15.277,15.277,0,0,0,13.829-.368C344.622,154.549,344.6,150.98,340.773,148.875Zm-3.893,4.5a3.224,3.224,0,0,0-1.218-1.34,1.045,1.045,0,0,0-1.023-.1c-.964.585,2.554,1.888.541,3.106a3.885,3.885,0,0,1-3.514,0l-1.207.736-1.06-.585,1.236-.736a2.65,2.65,0,0,1-1.1-1.568l1.649-.368a2.4,2.4,0,0,0,1.192,1.627,1.24,1.24,0,0,0,1.218.107c.99-.6-2.576-1.877-.6-3.073a3.789,3.789,0,0,1,3.209-.118l1.181-.714,1.06.581-1.141.692a3.209,3.209,0,0,1,1.211,1.365Z" transform="translate(-204.833 -93.427)" fill="#7cb53e"/>
      <path id="Path_2648" data-name="Path 2648" d="M361.68,154.1l-23.53,14.245,8.354,4.6,23.53-14.245Z" transform="translate(-213.711 -97.666)" fill="#deeaed" stroke="#324d53" stroke-linejoin="round" stroke-width="1.5"/>
      <path id="Path_2649" data-name="Path 2649" d="M377.464,162.78,353.93,177.025l1.413.78,23.534-14.245Z" transform="translate(-223.684 -103.152)" fill="#324d53"/>
      <path id="Path_2650" data-name="Path 2650" d="M364.754,155.79,341.22,170.035l1.413.78,23.534-14.245Z" transform="translate(-215.651 -98.734)" fill="#7cb53e"/>
      <path id="Path_2651" data-name="Path 2651" d="M338.15,192.81V198.6l8.354,4.593v-5.789Z" transform="translate(-213.711 -122.131)" fill="#deeaed" stroke="#324d53" stroke-linejoin="round" stroke-width="1.5"/>
      <path id="Path_2652" data-name="Path 2652" d="M342.633,201.069l-1.413-.776V194.5l1.413.78Z" transform="translate(-215.651 -123.199)" fill="#7cb53e"/>
      <path id="Path_2653" data-name="Path 2653" d="M355.343,208.059l-1.413-.776V201.49l1.413.776Z" transform="translate(-223.684 -127.617)" fill="#7cb53e"/>
      <path id="Path_2654" data-name="Path 2654" d="M380.208,170.63l-.4,5.778L355.46,188.4l.4-5.778Z" transform="translate(-224.651 -108.113)" fill="#deeaed" stroke="#324d53" stroke-linejoin="round" stroke-width="1"/>
      <path id="Path_2655" data-name="Path 2655" d="M281.806,153.358l-.4,5.778L238.29,130.111l.4-5.781Z" transform="translate(-150.599 -78.852)" fill="#deeaed" stroke="#324d53" stroke-linejoin="round" stroke-width="1"/>
      <path id="Path_2656" data-name="Path 2656" d="M306.845,120.778l-24.351,11.989L239.38,103.739,263.731,91.75Z" transform="translate(-151.288 -58.261)" fill="#deeaed" stroke="#324d53" stroke-linejoin="round" stroke-width="1"/>
      <path id="Path_2657" data-name="Path 2657" d="M360.643,164.944a5.52,5.52,0,0,0-4.99-.346c-1.428.7-1.512,2-.184,2.892a5.52,5.52,0,0,0,4.994.346C361.894,167.13,361.971,165.838,360.643,164.944Z" transform="translate(-224.06 -104.024)" fill="#7cb53e"/>
      <path id="Path_2658" data-name="Path 2658" d="M294.5,120.4a5.52,5.52,0,0,0-4.99-.346c-1.428.7-1.509,2-.184,2.892a5.52,5.52,0,0,0,4.994.346C295.743,122.593,295.82,121.3,294.5,120.4Z" transform="translate(-182.255 -75.875)" fill="#7cb53e"/>
      <path id="Path_2659" data-name="Path 2659" d="M269.451,97.12,248.63,107.38,288.466,134.2l20.818-10.256Zm-1.365,1.84a2.8,2.8,0,0,1,2.528.173.781.781,0,0,1-.1,1.472,2.8,2.8,0,0,1-2.525-.173c-.67-.467-.626-1.122.092-1.479Zm-13.664,9.568a2.789,2.789,0,0,1-2.528-.173.781.781,0,0,1,.1-1.472,2.8,2.8,0,0,1,2.524.173.774.774,0,0,1-.092,1.461Zm35.405,23.835a2.793,2.793,0,0,1-2.524-.173.781.781,0,0,1,.092-1.472,2.782,2.782,0,0,1,2.524.177.771.771,0,0,1-.092,1.457Zm1.965-2.094a6.744,6.744,0,0,0-6.127-.423l-30-20.2c1.755-.865,1.858-2.455.224-3.551l10.238-5.042a6.744,6.744,0,0,0,6.127.423l30,20.2c-1.755.865-1.84,2.455-.224,3.551Zm14.135-5.833a2.8,2.8,0,0,1-2.524-.173.781.781,0,0,1,.092-1.472,2.782,2.782,0,0,1,2.525.173.773.773,0,0,1-.092,1.461Z" transform="translate(-157.134 -61.655)" fill="#324d53"/>
      <path id="Path_2660" data-name="Path 2660" d="M321.454,134.219a15.185,15.185,0,0,0-13.756-.949c-3.941,1.939-4.166,5.52-.508,7.971a15.239,15.239,0,0,0,13.76.949C324.888,140.251,325.116,136.681,321.454,134.219Zm-4.173,4.118a3.375,3.375,0,0,0-1.1-1.45,1.034,1.034,0,0,0-1.008-.191c-1,.493,2.407,2.123.32,3.15a3.914,3.914,0,0,1-3.492-.32l-1.262.6-1.012-.681,1.281-.633a2.738,2.738,0,0,1-.975-1.663l1.663-.2a2.466,2.466,0,0,0,1.071,1.73,1.229,1.229,0,0,0,1.2.221c1.023-.5-2.429-2.112-.368-3.121a3.76,3.76,0,0,1,3.194.188l1.2-.589,1.012.681-1.181.581a3.356,3.356,0,0,1,1.1,1.472Z" transform="translate(-192.5 -83.732)" fill="#7cb53e"/>
      <path id="Path_2661" data-name="Path 2661" d="M340.891,143.7,316.54,155.693l7.978,5.369,24.351-11.989Z" transform="translate(-200.053 -91.093)" fill="#deeaed" stroke="#324d53" stroke-linejoin="round" stroke-width="1"/>
      <path id="Path_2662" data-name="Path 2662" d="M355.961,153.85,331.61,165.839l1.354.913,24.351-11.993Z" transform="translate(-209.578 -97.508)" fill="#324d53"/>
      <path id="Path_2663" data-name="Path 2663" d="M343.821,145.68,319.47,157.669l1.351.909,24.351-11.989Z" transform="translate(-201.905 -92.345)" fill="#324d53"/>
      <path id="Path_2664" data-name="Path 2664" d="M315.851,176.29l-.4,5.774,7.982,5.373.4-5.778Z" transform="translate(-199.364 -111.69)" fill="#deeaed" stroke="#324d53" stroke-linejoin="round" stroke-width="1"/>
      <path id="Path_2665" data-name="Path 2665" d="M319.741,184.95l-1.351-.913.4-5.778,1.351.909Z" transform="translate(-201.222 -112.935)" fill="#324d53"/>
      <path id="Path_2666" data-name="Path 2666" d="M331.881,193.12l-1.351-.913.4-5.778,1.354.913Z" transform="translate(-208.895 -118.099)" fill="#324d53"/>
      <path id="Path_2667" data-name="Path 2667" d="M388.731,133.49l.247,5.789L366.107,153.9l-.247-5.789Z" transform="translate(-231.224 -84.641)" fill="#deeaed" stroke="#324d53" stroke-linejoin="round" stroke-width="1"/>
      <path id="Path_2668" data-name="Path 2668" d="M286.74,131.89l.247,5.789-46.07-24.06-.247-5.789Z" transform="translate(-152.103 -68.424)" fill="#deeaed" stroke="#324d53" stroke-linejoin="round" stroke-width="1"/>
      <path id="Path_2669" data-name="Path 2669" d="M309.611,92.164,286.74,106.78l-46.07-24.06L263.538,68.1Z" transform="translate(-152.103 -43.314)" fill="#deeaed" stroke="#324d53" stroke-linejoin="round" stroke-width="1"/>
      <path id="Path_2670" data-name="Path 2670" d="M366.045,134.044a5.52,5.52,0,0,0-5,.21c-1.343.857-1.281,2.153.136,2.9a5.52,5.52,0,0,0,5-.213C367.528,136.079,367.461,134.784,366.045,134.044Z" transform="translate(-227.57 -84.676)" fill="#7cb53e"/>
      <path id="Path_2671" data-name="Path 2671" d="M295.351,97.142a5.52,5.52,0,0,0-5,.21c-1.34.857-1.281,2.153.14,2.9a5.52,5.52,0,0,0,5-.213C296.834,99.17,296.768,97.878,295.351,97.142Z" transform="translate(-182.891 -61.353)" fill="#324d53"/>
      <path id="Path_2672" data-name="Path 2672" d="M269.492,73.47,249.94,85.982l42.567,22.227L312.058,95.7Zm-1.13,1.976a2.786,2.786,0,0,1,2.528-.11.782.782,0,0,1,.07,1.472,2.786,2.786,0,0,1-2.528.107C267.7,76.535,267.667,75.873,268.362,75.446ZM255.85,86.486a2.786,2.786,0,0,1-2.528.107.783.783,0,0,1-.07-1.472,2.786,2.786,0,0,1,2.528-.107.772.772,0,0,1,.04,1.454Zm37.834,19.758a2.786,2.786,0,0,1-2.528.107.782.782,0,0,1-.07-1.472,2.786,2.786,0,0,1,2.528-.107.773.773,0,0,1,.041,1.454Zm1.719-2.3a6.756,6.756,0,0,0-6.135.258l-32.06-16.74c1.652-1.056,1.575-2.642-.169-3.555l9.616-6.142a6.768,6.768,0,0,0,6.135-.261l32.056,16.74c-1.649,1.056-1.571,2.646.169,3.555Zm13.4-7.36a2.808,2.808,0,0,1-2.528.107c-.736-.368-.736-1.03-.07-1.472a2.786,2.786,0,0,1,2.528-.107c.684.357.721,1,.04,1.45Z" transform="translate(-157.962 -46.708)" fill="#324d53"/>
      <path id="Path_2673" data-name="Path 2673" d="M324.3,106.637a15.183,15.183,0,0,0-13.774.585c-3.7,2.366-3.533,5.936.368,7.978a15.191,15.191,0,0,0,13.778-.585C328.37,112.249,328.212,108.687,324.3,106.637Zm-3.68,4.56a3.415,3.415,0,0,0-1.273-1.321,1.056,1.056,0,0,0-1.023-.077c-.938.6,2.628,1.84.67,3.1a3.913,3.913,0,0,1-3.507.066l-1.17.736-1.086-.567,1.2-.765a2.756,2.756,0,0,1-1.152-1.549l1.63-.368a2.462,2.462,0,0,0,1.259,1.6,1.225,1.225,0,0,0,1.218.088c.961-.615-2.646-1.84-.736-3.062a3.771,3.771,0,0,1,3.2-.166l1.148-.736,1.082.563-1.1.71a3.312,3.312,0,0,1,1.266,1.343Z" transform="translate(-194.565 -66.8)" fill="#324d53"/>
      <path id="Path_2674" data-name="Path 2674" d="M345.991,111.17,323.12,125.791l8.527,4.453,22.871-14.621Z" transform="translate(-204.212 -70.535)" fill="#deeaed" stroke="#324d53" stroke-linejoin="round" stroke-width="1.5"/>
      <path id="Path_2675" data-name="Path 2675" d="M362.1,119.58,339.23,134.2l1.443.754,22.871-14.621Z" transform="translate(-214.393 -75.85)" fill="#324d53"/>
      <path id="Path_2676" data-name="Path 2676" d="M349.128,112.81,326.26,127.427l1.443.754,22.867-14.617Z" transform="translate(-206.196 -71.571)" fill="#324d53"/>
      <path id="Path_2677" data-name="Path 2677" d="M323.12,150.9l.247,5.785,8.527,4.453-.247-5.785Z" transform="translate(-204.212 -95.644)" fill="#deeaed" stroke="#324d53" stroke-linejoin="round" stroke-width="1"/>
      <path id="Path_2678" data-name="Path 2678" d="M327.949,159.073l-1.446-.754-.243-5.789,1.443.754Z" transform="translate(-206.196 -96.674)" fill="#324d53"/>
      <path id="Path_2679" data-name="Path 2679" d="M340.919,165.849l-1.446-.754-.243-5.785,1.443.754Z" transform="translate(-214.393 -100.959)" fill="#324d53"/>
      <path id="Path_2680" data-name="Path 2680" d="M226,212.346v3c0,1.858,1.222,3.709,3.662,5.126,4.905,2.848,12.88,2.848,17.811,0,2.484-1.432,3.728-3.312,3.72-5.2V212.28C246.869,212.28,230.048,212.346,226,212.346Z" transform="translate(-142.832 -134.436)" fill="#deeaed" stroke="#324d53" stroke-linejoin="round" stroke-width="1"/>
      <g id="Group_343" data-name="Group 343" transform="translate(83.168 77.844)" clip-path="url(#clip-path-2)">
        <line id="Line_26" data-name="Line 26" y1="19.74" transform="translate(1.049 -6.672)" fill="none" stroke="#324d53" stroke-linejoin="round" stroke-width="0.5"/>
        <line id="Line_27" data-name="Line 27" y1="19.74" transform="translate(2.977 -6.672)" fill="none" stroke="#324d53" stroke-linejoin="round" stroke-width="0.5"/>
        <line id="Line_28" data-name="Line 28" y1="19.74" transform="translate(4.905 -6.672)" fill="none" stroke="#324d53" stroke-linejoin="round" stroke-width="0.5"/>
        <line id="Line_29" data-name="Line 29" y1="19.74" transform="translate(6.834 -6.672)" fill="none" stroke="#324d53" stroke-linejoin="round" stroke-width="0.5"/>
        <line id="Line_30" data-name="Line 30" y1="19.74" transform="translate(8.758 -6.672)" fill="none" stroke="#324d53" stroke-linejoin="round" stroke-width="0.5"/>
        <line id="Line_31" data-name="Line 31" y1="19.74" transform="translate(10.687 -6.672)" fill="none" stroke="#324d53" stroke-linejoin="round" stroke-width="0.5"/>
        <line id="Line_32" data-name="Line 32" y1="19.74" transform="translate(12.615 -6.672)" fill="none" stroke="#324d53" stroke-linejoin="round" stroke-width="0.5"/>
        <line id="Line_33" data-name="Line 33" y1="19.74" transform="translate(14.54 -6.672)" fill="none" stroke="#324d53" stroke-linejoin="round" stroke-width="0.5"/>
        <line id="Line_34" data-name="Line 34" y1="19.74" transform="translate(16.468 -6.672)" fill="none" stroke="#324d53" stroke-linejoin="round" stroke-width="0.5"/>
        <line id="Line_35" data-name="Line 35" y1="19.74" transform="translate(18.396 -6.672)" fill="none" stroke="#324d53" stroke-linejoin="round" stroke-width="0.5"/>
        <line id="Line_36" data-name="Line 36" y1="19.74" transform="translate(20.325 -6.672)" fill="none" stroke="#324d53" stroke-linejoin="round" stroke-width="0.5"/>
        <line id="Line_37" data-name="Line 37" y1="19.74" transform="translate(22.249 -6.672)" fill="none" stroke="#324d53" stroke-linejoin="round" stroke-width="0.5"/>
        <line id="Line_38" data-name="Line 38" y1="19.74" transform="translate(24.178 -6.672)" fill="none" stroke="#324d53" stroke-linejoin="round" stroke-width="0.5"/>
      </g>
      <path id="Path_2682" data-name="Path 2682" d="M229.705,204.991c4.905,2.848,12.88,2.848,17.815,0s4.961-7.47.059-10.322-12.88-2.848-17.819,0S224.8,202.143,229.705,204.991Z" transform="translate(-142.857 -121.955)" fill="#deeaed" stroke="#324d53" stroke-linejoin="round" stroke-width="1"/>
      <path id="Path_2683" data-name="Path 2683" d="M234.121,203.4c-.291-1.616.64-3.312,2.789-4.537a15.031,15.031,0,0,1,13.642,0c2.123,1.233,3.036,2.9,2.753,4.508a5.186,5.186,0,0,1-2.8,3.389,15,15,0,0,1-13.638,0A5.177,5.177,0,0,1,234.121,203.4Z" transform="translate(-147.932 -124.92)" fill="none" stroke="#324d53" stroke-linejoin="round" stroke-width="1"/>
      <path id="Path_2684" data-name="Path 2684" d="M257.162,205.565c-.883-.512-1.557-.5-3.036-.063l-1.156-.872c.537-.276,1.163-.57,1.2-.585l-.776-.556c-.029,0-.622.239-1.236.53l-1.034-.769-.6.368.986.736-.107.063c-1.1.637-1.351,1.347-.224,1.995.839.486,1.689.486,3.143.029l1.248.931c-.578.3-1.277.6-1.314.618l.736.556a13.281,13.281,0,0,0,1.384-.563l.835.615.666-.316-.839-.633C258.1,207.029,258.347,206.246,257.162,205.565Zm-4.983.173c-.328-.188-.3-.449.169-.736l1,.736c-.655.158-.909.155-1.174,0Zm4,1.281-1.1-.813a1.325,1.325,0,0,1,1.075.033C256.532,206.47,256.591,206.724,256.183,207.018Z" transform="translate(-158.276 -128.729)" fill="#7cb53e"/>
      <path id="Path_2685" data-name="Path 2685" d="M219.55,200.1v3c0,1.84,1.222,3.709,3.662,5.126,4.9,2.848,12.88,2.848,17.811,0,2.484-1.435,3.728-3.312,3.72-5.2v-3C240.408,200.017,223.569,200.1,219.55,200.1Z" transform="translate(-138.756 -126.692)" fill="#deeaed" stroke="#324d53" stroke-linejoin="round" stroke-width="1"/>
      <g id="Group_344" data-name="Group 344" transform="translate(80.794 73.335)" clip-path="url(#clip-path-3)">
        <line id="Line_39" data-name="Line 39" y1="19.74" transform="translate(1.038 -6.667)" fill="none" stroke="#324d53" stroke-linejoin="round" stroke-width="0.5"/>
        <line id="Line_40" data-name="Line 40" y1="19.74" transform="translate(2.966 -6.667)" fill="none" stroke="#324d53" stroke-linejoin="round" stroke-width="0.5"/>
        <line id="Line_41" data-name="Line 41" y1="19.74" transform="translate(4.894 -6.667)" fill="none" stroke="#324d53" stroke-linejoin="round" stroke-width="0.5"/>
        <line id="Line_42" data-name="Line 42" y1="19.74" transform="translate(6.823 -6.667)" fill="none" stroke="#324d53" stroke-linejoin="round" stroke-width="0.5"/>
        <line id="Line_43" data-name="Line 43" y1="19.74" transform="translate(8.747 -6.667)" fill="none" stroke="#324d53" stroke-linejoin="round" stroke-width="0.5"/>
        <line id="Line_44" data-name="Line 44" y1="19.74" transform="translate(10.676 -6.667)" fill="none" stroke="#324d53" stroke-linejoin="round" stroke-width="0.5"/>
        <line id="Line_45" data-name="Line 45" y1="19.74" transform="translate(12.604 -6.667)" fill="none" stroke="#324d53" stroke-linejoin="round" stroke-width="0.5"/>
        <line id="Line_46" data-name="Line 46" y1="19.74" transform="translate(14.529 -6.667)" fill="none" stroke="#324d53" stroke-linejoin="round" stroke-width="0.5"/>
        <line id="Line_47" data-name="Line 47" y1="19.74" transform="translate(16.457 -6.667)" fill="none" stroke="#324d53" stroke-linejoin="round" stroke-width="0.5"/>
        <line id="Line_48" data-name="Line 48" y1="19.74" transform="translate(18.385 -6.667)" fill="none" stroke="#324d53" stroke-linejoin="round" stroke-width="0.5"/>
        <line id="Line_49" data-name="Line 49" y1="19.74" transform="translate(20.314 -6.667)" fill="none" stroke="#324d53" stroke-linejoin="round" stroke-width="0.5"/>
        <line id="Line_50" data-name="Line 50" y1="19.74" transform="translate(22.238 -6.667)" fill="none" stroke="#324d53" stroke-linejoin="round" stroke-width="0.5"/>
        <line id="Line_51" data-name="Line 51" y1="19.74" transform="translate(24.167 -6.667)" fill="none" stroke="#324d53" stroke-linejoin="round" stroke-width="0.5"/>
      </g>
      <path id="Path_2687" data-name="Path 2687" d="M223.21,192.795c4.905,2.852,12.88,2.852,17.815,0s4.961-7.47.059-10.3-12.88-2.848-17.819,0S218.308,189.946,223.21,192.795Z" transform="translate(-138.754 -114.263)" fill="#deeaed" stroke="#324d53" stroke-linejoin="round" stroke-width="1.5"/>
      <path id="Path_2688" data-name="Path 2688" d="M227.641,191.133c-.291-1.619.637-3.312,2.789-4.541a15.043,15.043,0,0,1,13.642,0c2.123,1.233,3.036,2.9,2.753,4.508a5.174,5.174,0,0,1-2.8,3.389,14.993,14.993,0,0,1-13.634,0A5.12,5.12,0,0,1,227.641,191.133Z" transform="translate(-143.836 -117.167)" fill="none" stroke="#324d53" stroke-linejoin="round" stroke-width="1"/>
      <path id="Path_2689" data-name="Path 2689" d="M250.682,193.35c-.883-.512-1.557-.5-3.036-.063l-1.156-.857c.537-.272,1.163-.57,1.2-.585l-.776-.552c-.029,0-.622.236-1.236.526l-1.034-.769-.6.35.986.736-.107.063c-1.1.637-1.351,1.347-.224,2,.839.482,1.689.482,3.143.026l1.248.931c-.578.3-1.277.6-1.314.618l.736.556a11.724,11.724,0,0,0,1.384-.563l.835.615.662-.316-.828-.615C251.616,194.818,251.867,194.034,250.682,193.35Zm-4.983.173c-.328-.188-.3-.449.169-.736l1,.736c-.655.158-.909.155-1.174,0Zm4,1.281-1.1-.813a1.325,1.325,0,0,1,1.075.033C250.052,194.241,250.111,194.509,249.7,194.8Z" transform="translate(-154.181 -121.019)" fill="#7cb53e"/>
      <path id="Path_2690" data-name="Path 2690" d="M230.37,188.99v3c0,1.84,1.225,3.709,3.68,5.126,4.905,2.848,12.88,2.848,17.815,0,2.484-1.435,3.724-3.312,3.717-5.2v-3C251.21,188.92,234.385,188.99,230.37,188.99Z" transform="translate(-145.594 -119.673)" fill="#deeaed" stroke="#324d53" stroke-linejoin="round" stroke-width="1.5"/>
      <g id="Group_345" data-name="Group 345" transform="translate(84.776 69.247)" clip-path="url(#clip-path-4)">
        <line id="Line_52" data-name="Line 52" y1="19.74" transform="translate(1.038 -6.672)" fill="none" stroke="#324d53" stroke-linejoin="round" stroke-width="0.5"/>
        <line id="Line_53" data-name="Line 53" y1="19.74" transform="translate(2.962 -6.672)" fill="none" stroke="#324d53" stroke-linejoin="round" stroke-width="0.5"/>
        <line id="Line_54" data-name="Line 54" y1="19.74" transform="translate(4.891 -6.672)" fill="none" stroke="#324d53" stroke-linejoin="round" stroke-width="0.5"/>
        <line id="Line_55" data-name="Line 55" y1="19.74" transform="translate(6.819 -6.672)" fill="none" stroke="#324d53" stroke-linejoin="round" stroke-width="0.5"/>
        <line id="Line_56" data-name="Line 56" y1="19.74" transform="translate(8.747 -6.672)" fill="none" stroke="#324d53" stroke-linejoin="round" stroke-width="0.5"/>
        <line id="Line_57" data-name="Line 57" y1="19.74" transform="translate(10.676 -6.672)" fill="none" stroke="#324d53" stroke-linejoin="round" stroke-width="0.5"/>
        <line id="Line_58" data-name="Line 58" y1="19.74" transform="translate(12.6 -6.672)" fill="none" stroke="#324d53" stroke-linejoin="round" stroke-width="0.5"/>
        <line id="Line_59" data-name="Line 59" y1="19.74" transform="translate(14.529 -6.672)" fill="none" stroke="#324d53" stroke-linejoin="round" stroke-width="0.5"/>
        <line id="Line_60" data-name="Line 60" y1="19.74" transform="translate(16.457 -6.672)" fill="none" stroke="#324d53" stroke-linejoin="round" stroke-width="0.5"/>
        <line id="Line_61" data-name="Line 61" y1="19.74" transform="translate(18.382 -6.672)" fill="none" stroke="#324d53" stroke-linejoin="round" stroke-width="0.5"/>
        <line id="Line_62" data-name="Line 62" y1="19.74" transform="translate(20.31 -6.672)" fill="none" stroke="#324d53" stroke-linejoin="round" stroke-width="0.5"/>
        <line id="Line_63" data-name="Line 63" y1="19.74" transform="translate(22.238 -6.672)" fill="none" stroke="#324d53" stroke-linejoin="round" stroke-width="0.5"/>
        <line id="Line_64" data-name="Line 64" y1="19.74" transform="translate(24.167 -6.672)" fill="none" stroke="#324d53" stroke-linejoin="round" stroke-width="0.5"/>
      </g>
      <path id="Path_2692" data-name="Path 2692" d="M234.032,181.642c4.9,2.848,12.88,2.848,17.811,0s4.964-7.47.059-10.3-12.88-2.852-17.815,0S229.131,178.805,234.032,181.642Z" transform="translate(-145.595 -107.213)" fill="#fff" stroke="#324d53" stroke-linejoin="round" stroke-width="1"/>
      <path id="Path_2693" data-name="Path 2693" d="M238.453,180.013c-.287-1.616.64-3.312,2.793-4.541a15.043,15.043,0,0,1,13.642,0c2.12,1.236,3.032,2.9,2.749,4.512a5.183,5.183,0,0,1-2.8,3.389,15.024,15.024,0,0,1-13.638,0A5.1,5.1,0,0,1,238.453,180.013Z" transform="translate(-150.67 -110.14)" fill="none" stroke="#324d53" stroke-linejoin="round" stroke-width="1.5"/>
      <path id="Path_2694" data-name="Path 2694" d="M261.5,182.234c-.887-.512-1.56-.5-3.036-.063l-1.156-.861c.534-.272,1.163-.567,1.2-.581l-.776-.556c-.033,0-.626.239-1.24.526l-1.034-.769-.6.35.983.736-.107.063c-1.1.633-1.347,1.347-.224,1.995.839.486,1.693.486,3.143.029l1.248.931c-.578.294-1.273.6-1.314.615l.736.559a13.647,13.647,0,0,0,1.384-.563l.832.615.666-.32-.839-.633C262.433,183.7,262.679,182.9,261.5,182.234Zm-4.986.173c-.328-.188-.3-.449.173-.736l1,.736C257.03,182.561,256.78,182.561,256.512,182.407Zm4,1.281-1.1-.813a1.327,1.327,0,0,1,1.075.029C260.865,183.124,260.924,183.393,260.515,183.687Z" transform="translate(-161.016 -113.991)" fill="#7cb53e"/>
      <path id="Path_2695" data-name="Path 2695" d="M220.9,177.79v3c0,1.84,1.225,3.709,3.68,5.126,4.9,2.848,12.88,2.848,17.811,0,2.484-1.432,3.724-3.312,3.72-5.2v-3C241.758,177.72,224.919,177.79,220.9,177.79Z" transform="translate(-139.609 -112.594)" fill="#deeaed" stroke="#324d53" stroke-linejoin="round" stroke-width="1"/>
      <g id="Group_346" data-name="Group 346" transform="translate(81.291 65.126)" clip-path="url(#clip-path-5)">
        <line id="Line_65" data-name="Line 65" y1="19.74" transform="translate(1.038 -6.668)" fill="none" stroke="#324d53" stroke-linejoin="round" stroke-width="0.5"/>
        <line id="Line_66" data-name="Line 66" y1="19.74" transform="translate(2.966 -6.668)" fill="none" stroke="#324d53" stroke-linejoin="round" stroke-width="0.5"/>
        <line id="Line_67" data-name="Line 67" y1="19.74" transform="translate(4.894 -6.668)" fill="none" stroke="#324d53" stroke-linejoin="round" stroke-width="0.5"/>
        <line id="Line_68" data-name="Line 68" y1="19.74" transform="translate(6.819 -6.668)" fill="none" stroke="#324d53" stroke-linejoin="round" stroke-width="0.5"/>
        <line id="Line_69" data-name="Line 69" y1="19.74" transform="translate(8.747 -6.668)" fill="none" stroke="#324d53" stroke-linejoin="round" stroke-width="0.5"/>
        <line id="Line_70" data-name="Line 70" y1="19.74" transform="translate(10.676 -6.668)" fill="none" stroke="#324d53" stroke-linejoin="round" stroke-width="0.5"/>
        <line id="Line_71" data-name="Line 71" y1="19.74" transform="translate(12.604 -6.668)" fill="none" stroke="#324d53" stroke-linejoin="round" stroke-width="0.5"/>
        <line id="Line_72" data-name="Line 72" y1="19.74" transform="translate(14.529 -6.668)" fill="none" stroke="#324d53" stroke-linejoin="round" stroke-width="0.5"/>
        <line id="Line_73" data-name="Line 73" y1="19.74" transform="translate(16.457 -6.668)" fill="none" stroke="#324d53" stroke-linejoin="round" stroke-width="0.5"/>
        <line id="Line_74" data-name="Line 74" y1="19.74" transform="translate(18.385 -6.668)" fill="none" stroke="#324d53" stroke-linejoin="round" stroke-width="0.5"/>
        <line id="Line_75" data-name="Line 75" y1="19.74" transform="translate(20.31 -6.668)" fill="none" stroke="#324d53" stroke-linejoin="round" stroke-width="0.5"/>
        <line id="Line_76" data-name="Line 76" y1="19.74" transform="translate(22.238 -6.668)" fill="none" stroke="#324d53" stroke-linejoin="round" stroke-width="0.5"/>
        <line id="Line_77" data-name="Line 77" y1="19.74" transform="translate(24.167 -6.668)" fill="none" stroke="#324d53" stroke-linejoin="round" stroke-width="0.5"/>
      </g>
      <path id="Path_2697" data-name="Path 2697" d="M224.56,170.482c4.905,2.848,12.88,2.848,17.815,0s4.961-7.47.059-10.3-12.88-2.852-17.819,0S219.658,167.63,224.56,170.482Z" transform="translate(-139.607 -100.16)" fill="#deeaed" stroke="#324d53" stroke-linejoin="round" stroke-width="1"/>
      <path id="Path_2698" data-name="Path 2698" d="M228.991,168.817c-.291-1.616.637-3.312,2.789-4.537a15.031,15.031,0,0,1,13.642,0c2.12,1.233,3.032,2.9,2.753,4.508a5.182,5.182,0,0,1-2.8,3.389,14.994,14.994,0,0,1-13.634,0A5.117,5.117,0,0,1,228.991,168.817Z" transform="translate(-144.689 -103.065)" fill="none" stroke="#324d53" stroke-linejoin="round" stroke-width="1.5"/>
      <path id="Path_2699" data-name="Path 2699" d="M252.031,171.05c-.883-.512-1.557-.5-3.036-.063l-1.156-.857c.537-.276,1.163-.57,1.2-.585l-.776-.556c-.029,0-.622.239-1.236.53l-1.034-.769-.6.35.986.736-.107.063c-1.1.633-1.351,1.347-.228,1.995.839.486,1.693.486,3.146.029l1.248.931c-.578.3-1.277.6-1.314.618l.736.556a13.283,13.283,0,0,0,1.384-.563l.835.615.662-.316-.839-.633C252.965,172.522,253.216,171.727,252.031,171.05Zm-4.983.173c-.328-.188-.3-.449.169-.736l1,.736c-.655.155-.909.151-1.189,0Zm4,1.281-1.1-.813a1.332,1.332,0,0,1,1.078.033c.372.213.423.482.026.776Z" transform="translate(-155.033 -106.925)" fill="#7cb53e"/>
      <path id="Path_2700" data-name="Path 2700" d="M227.7,165.094v3c0,1.858,1.225,3.709,3.662,5.126,4.905,2.848,12.88,2.848,17.815,0,2.484-1.432,3.724-3.312,3.72-5.2v-2.992C248.558,165.017,231.719,165.094,227.7,165.094Z" transform="translate(-143.906 -104.572)" fill="#deeaed" stroke="#324d53" stroke-linejoin="round" stroke-width="1"/>
      <g id="Group_347" data-name="Group 347" transform="translate(83.794 60.455)" clip-path="url(#clip-path-6)">
        <line id="Line_78" data-name="Line 78" y1="19.74" transform="translate(1.038 -6.671)" fill="none" stroke="#324d53" stroke-linejoin="round" stroke-width="0.5"/>
        <line id="Line_79" data-name="Line 79" y1="19.74" transform="translate(2.966 -6.671)" fill="none" stroke="#324d53" stroke-linejoin="round" stroke-width="0.5"/>
        <line id="Line_80" data-name="Line 80" y1="19.74" transform="translate(4.891 -6.671)" fill="none" stroke="#324d53" stroke-linejoin="round" stroke-width="0.5"/>
        <line id="Line_81" data-name="Line 81" y1="19.74" transform="translate(6.819 -6.671)" fill="none" stroke="#324d53" stroke-linejoin="round" stroke-width="0.5"/>
        <line id="Line_82" data-name="Line 82" y1="19.74" transform="translate(8.747 -6.671)" fill="none" stroke="#324d53" stroke-linejoin="round" stroke-width="0.5"/>
        <line id="Line_83" data-name="Line 83" y1="19.74" transform="translate(10.676 -6.671)" fill="none" stroke="#324d53" stroke-linejoin="round" stroke-width="0.5"/>
        <line id="Line_84" data-name="Line 84" y1="19.74" transform="translate(12.604 -6.671)" fill="none" stroke="#324d53" stroke-linejoin="round" stroke-width="0.5"/>
        <line id="Line_85" data-name="Line 85" y1="19.74" transform="translate(14.529 -6.671)" fill="none" stroke="#324d53" stroke-linejoin="round" stroke-width="0.5"/>
        <line id="Line_86" data-name="Line 86" y1="19.74" transform="translate(16.457 -6.671)" fill="none" stroke="#324d53" stroke-linejoin="round" stroke-width="0.5"/>
        <line id="Line_87" data-name="Line 87" y1="19.74" transform="translate(18.385 -6.671)" fill="none" stroke="#324d53" stroke-linejoin="round" stroke-width="0.5"/>
        <line id="Line_88" data-name="Line 88" y1="19.74" transform="translate(20.31 -6.671)" fill="none" stroke="#324d53" stroke-linejoin="round" stroke-width="0.5"/>
        <line id="Line_89" data-name="Line 89" y1="19.74" transform="translate(22.238 -6.671)" fill="none" stroke="#324d53" stroke-linejoin="round" stroke-width="0.5"/>
        <line id="Line_90" data-name="Line 90" y1="19.74" transform="translate(24.167 -6.671)" fill="none" stroke="#324d53" stroke-linejoin="round" stroke-width="0.5"/>
      </g>
      <path id="Path_2702" data-name="Path 2702" d="M231.36,157.741c4.905,2.848,12.88,2.848,17.815,0s4.961-7.47.059-10.322-12.88-2.848-17.819,0S226.458,154.893,231.36,157.741Z" transform="translate(-143.905 -92.093)" fill="#deeaed" stroke="#324d53" stroke-linejoin="round" stroke-width="1"/>
      <path id="Path_2703" data-name="Path 2703" d="M235.783,156.117c-.287-1.616.64-3.312,2.793-4.537a15.031,15.031,0,0,1,13.642,0c2.12,1.233,3.032,2.9,2.749,4.508a5.175,5.175,0,0,1-2.8,3.389,14.955,14.955,0,0,1-13.616,0A5.169,5.169,0,0,1,235.783,156.117Z" transform="translate(-148.982 -95.039)" fill="none" stroke="#324d53" stroke-linejoin="round" stroke-width="1"/>
      <path id="Path_2705" data-name="Path 2705" d="M280.135,196.633c-1.869.283-3.555,1.807-4.6,4.5-2.079,5.354-.854,13.3,2.738,17.745,1.781,2.208,3.816,3.139,5.664,2.859l2.984-.453c-1.84.28-5.671-24.822-3.8-25.1Z" transform="translate(-173.496 -124.261)" fill="#deeaed" stroke="#324d53" stroke-linejoin="round" stroke-width="1"/>
      <g id="Group_348" data-name="Group 348" transform="translate(101.023 71.919)" clip-path="url(#clip-path-7)">
        <path id="Path_2706" data-name="Path 2706" d="M281.539,197.82l-14.959,2.274" transform="translate(-269.501 -197.216)" fill="#deeaed" stroke="#324d53" stroke-linejoin="round" stroke-width="0.5"/>
        <path id="Path_2707" data-name="Path 2707" d="M282.353,203.48l-14.963,2.26" transform="translate(-270.013 -200.794)" fill="#deeaed" stroke="#324d53" stroke-linejoin="round" stroke-width="0.5"/>
        <path id="Path_2708" data-name="Path 2708" d="M283.173,209.14,268.21,211.4" transform="translate(-270.532 -204.371)" fill="#deeaed" stroke="#324d53" stroke-linejoin="round" stroke-width="0.5"/>
        <path id="Path_2709" data-name="Path 2709" d="M283.97,214.8,269,217.082" transform="translate(-271.031 -207.948)" fill="#deeaed" stroke="#324d53" stroke-linejoin="round" stroke-width="0.5"/>
        <path id="Path_2710" data-name="Path 2710" d="M284.809,220.46l-14.959,2.263" transform="translate(-271.568 -211.525)" fill="#deeaed" stroke="#324d53" stroke-linejoin="round" stroke-width="0.5"/>
        <path id="Path_2711" data-name="Path 2711" d="M285.629,226.12l-14.959,2.263" transform="translate(-272.086 -215.102)" fill="#deeaed" stroke="#324d53" stroke-linejoin="round" stroke-width="0.5"/>
        <path id="Path_2712" data-name="Path 2712" d="M286.443,231.78l-14.963,2.263" transform="translate(-272.598 -218.679)" fill="#deeaed" stroke="#324d53" stroke-linejoin="round" stroke-width="0.5"/>
        <path id="Path_2713" data-name="Path 2713" d="M287.309,237.44,272.35,239.7" transform="translate(-273.148 -222.256)" fill="#deeaed" stroke="#324d53" stroke-linejoin="round" stroke-width="0.5"/>
        <path id="Path_2714" data-name="Path 2714" d="M288.079,243.1l-14.959,2.263" transform="translate(-273.635 -225.833)" fill="#deeaed" stroke="#324d53" stroke-linejoin="round" stroke-width="0.5"/>
        <path id="Path_2715" data-name="Path 2715" d="M288.9,248.76l-14.959,2.263" transform="translate(-274.153 -229.411)" fill="#deeaed" stroke="#324d53" stroke-linejoin="round" stroke-width="0.5"/>
        <path id="Path_2716" data-name="Path 2716" d="M289.713,254.42l-14.963,2.263" transform="translate(-274.665 -232.988)" fill="#deeaed" stroke="#324d53" stroke-linejoin="round" stroke-width="0.5"/>
        <path id="Path_2717" data-name="Path 2717" d="M290.529,260.08l-14.959,2.263" transform="translate(-275.183 -236.565)" fill="#deeaed" stroke="#324d53" stroke-linejoin="round" stroke-width="0.5"/>
      </g>
      <path id="Path_2719" data-name="Path 2719" d="M283.64,200.637c-2.079,5.354-.857,13.3,2.734,17.745s8.192,3.713,10.271-1.641.857-13.311-2.734-17.727S285.708,195.282,283.64,200.637Z" transform="translate(-178.62 -124.217)" fill="#deeaed" stroke="#324d53" stroke-linejoin="round" stroke-width="1"/>
      <path id="Path_2720" data-name="Path 2720" d="M288.187,207.558a15.15,15.15,0,0,0,2.094,13.587c2.749,3.408,6.256,2.841,7.864-1.259a15.115,15.115,0,0,0-2.094-13.587C293.306,202.9,289.78,203.462,288.187,207.558Z" transform="translate(-181.643 -129.25)" fill="none" stroke="#324d53" stroke-linejoin="round" stroke-width="1"/>
      <path id="Path_2722" data-name="Path 2722" d="M85.726,182.852,54,164.533c-.824-.475-1.682,0-1.91,1.027L47.023,188.7a2.674,2.674,0,0,0,1.082,2.749l31.729,18.315c.824.478,1.674.018,1.9-1.023l5.071-23.14A2.671,2.671,0,0,0,85.726,182.852Z" transform="translate(-29.683 -104.143)" fill="#deeaed" stroke="#324d53" stroke-linejoin="round" stroke-width="1"/>
      <path id="Path_2723" data-name="Path 2723" d="M121.853,258.382a2.811,2.811,0,0,1,1.1,1.314,1.91,1.91,0,0,0-1.027,1.409,3.518,3.518,0,0,0,.258,2.138,1.472,1.472,0,0,1-1.373-.121,3.352,3.352,0,0,1-1.358-3.456C119.745,258.356,120.816,257.782,121.853,258.382Z" transform="translate(-75.452 -163.422)" fill="#deeaed" stroke="#324d53" stroke-linejoin="round" stroke-width="0.75"/>
      <path id="Path_2724" data-name="Path 2724" d="M129.162,262.286a3.352,3.352,0,0,1,1.358,3.456c-.287,1.31-1.358,1.888-2.4,1.288a2.812,2.812,0,0,1-1.1-1.314,1.9,1.9,0,0,0,1.023-1.409,3.514,3.514,0,0,0-.247-2.142A1.472,1.472,0,0,1,129.162,262.286Z" transform="translate(-80.277 -165.891)" fill="#deeaed" stroke="#324d53" stroke-linejoin="round" stroke-width="0.75"/>
      <path id="Path_2725" data-name="Path 2725" d="M61.08,208.19l.107.515.523-.107-.431,1.972.427.247.563-2.58-.386-.228Z" transform="translate(-38.603 -131.737)" fill="#324d53"/>
      <path id="Path_2726" data-name="Path 2726" d="M66.35,210.446a1.965,1.965,0,0,0-.64-.236l-.07.431a2.8,2.8,0,0,1,.5.221.423.423,0,0,1,.261.53c-.055.25-.247.368-.589.556l-.559.305-.1.456,1.325.762.1-.467-.85-.489.445-.2a.98.98,0,0,0,.681-.736A.946.946,0,0,0,66.35,210.446Z" transform="translate(-41.175 -133.128)" fill="#324d53"/>
      <path id="Path_2727" data-name="Path 2727" d="M71.637,213.519a1.586,1.586,0,0,0-.626-.2l-.059.416a3.007,3.007,0,0,1,.552.236.4.4,0,0,1,.243.456c-.037.177-.2.28-.339.2L71,214.391l-.1.445.412.236a.46.46,0,0,1,.228.489c-.052.239-.184.283-.394.162a5.94,5.94,0,0,1-.567-.408l-.11.394a3.375,3.375,0,0,0,.637.519c.5.287.758.121.876-.423a.776.776,0,0,0-.151-.718c.173-.037.3-.158.368-.442A.936.936,0,0,0,71.637,213.519Z" transform="translate(-44.537 -135.093)" fill="#324d53"/>
      <path id="Path_2728" data-name="Path 2728" d="M77.1,217.437l.107.519.519-.11-.431,1.972.427.247.567-2.58-.39-.224Z" transform="translate(-48.727 -137.583)" fill="#324d53"/>
      <path id="Path_2729" data-name="Path 2729" d="M84.91,221.957l.107.515.523-.107-.431,1.972.427.247L86.1,222l-.39-.224Z" transform="translate(-53.663 -140.44)" fill="#324d53"/>
      <path id="Path_2730" data-name="Path 2730" d="M90.192,224.206a2.1,2.1,0,0,0-.637-.236l-.074.431a2.8,2.8,0,0,1,.5.221.42.42,0,0,1,.261.53c-.055.25-.247.368-.589.556l-.559.305-.092.46,1.325.762.1-.467-.846-.489.442-.2c.423-.191.592-.35.681-.736A.938.938,0,0,0,90.192,224.206Z" transform="translate(-56.248 -141.824)" fill="#324d53"/>
      <path id="Path_2731" data-name="Path 2731" d="M95.467,227.282a1.523,1.523,0,0,0-.626-.2l-.059.412a3.5,3.5,0,0,1,.552.239.4.4,0,0,1,.243.456c-.037.177-.2.28-.335.2l-.412-.232-.1.445.412.236a.456.456,0,0,1,.228.489c-.052.239-.184.283-.394.162a5.151,5.151,0,0,1-.567-.412l-.11.4a3.375,3.375,0,0,0,.626.523c.5.291.758.121.876-.423a.776.776,0,0,0-.151-.736c.177-.037.3-.158.368-.442A.9.9,0,0,0,95.467,227.282Z" transform="translate(-59.598 -143.79)" fill="#324d53"/>
      <path id="Path_2732" data-name="Path 2732" d="M103.333,231.8a2.009,2.009,0,0,0-.64-.232l-.07.431a2.974,2.974,0,0,1,.5.217.431.431,0,0,1,.261.534c-.055.25-.25.368-.592.556l-.556.305-.1.456,1.328.765.1-.471-.846-.489.445-.2c.42-.191.592-.35.681-.736A.946.946,0,0,0,103.333,231.8Z" transform="translate(-64.546 -146.627)" fill="#324d53"/>
      <path id="Path_2733" data-name="Path 2733" d="M111.23,237.147l.107.515.523-.107-.434,1.972.427.247.567-2.58-.39-.224Z" transform="translate(-70.297 -150.04)" fill="#324d53"/>
      <path id="Path_2734" data-name="Path 2734" d="M116.49,239.4a2.1,2.1,0,0,0-.637-.236l-.07.431a3.775,3.775,0,0,1,.5.221.423.423,0,0,1,.258.53c-.055.254-.247.368-.589.556l-.559.305-.1.46,1.325.765.1-.471-.846-.489.442-.2c.423-.191.592-.35.681-.736A.935.935,0,0,0,116.49,239.4Z" transform="translate(-72.863 -151.424)" fill="#324d53"/>
      <path id="Path_2735" data-name="Path 2735" d="M121.783,242.472a1.523,1.523,0,0,0-.626-.2l-.059.416a3,3,0,0,1,.552.236.408.408,0,0,1,.247.456c-.04.177-.2.28-.339.2l-.412-.239-.1.445.412.239a.445.445,0,0,1,.224.486c-.052.239-.18.283-.394.162a4.782,4.782,0,0,1-.563-.408l-.11.4a3.479,3.479,0,0,0,.633.515c.5.291.758.121.88-.423a.788.788,0,0,0-.155-.736c.177-.037.3-.158.368-.442A.912.912,0,0,0,121.783,242.472Z" transform="translate(-76.232 -153.39)" fill="#324d53"/>
      <path id="Path_2736" data-name="Path 2736" d="M82.448,239.547c-.169.769-.11,1.277.482,1.619a4.594,4.594,0,0,0,.637.28l.261-1.192-.53-.305-.088.4.166.1-.1.445a1.922,1.922,0,0,1-.228-.114c-.331-.191-.368-.4-.224-1.016s.265-.736.578-.541c.247.144.541.368.556.368l.092-.368a4.652,4.652,0,0,0-.615-.445C82.9,238.468,82.629,238.708,82.448,239.547Z" transform="translate(-52.055 -151.101)" fill="#324d53"/>
      <path id="Path_2737" data-name="Path 2737" d="M88.057,243.129c-.467-.269-.7,0-.81.526a1.034,1.034,0,0,0,.42,1.247c.464.269.7,0,.81-.534A1.015,1.015,0,0,0,88.057,243.129Zm.059,1.027c-.074.331-.166.475-.368.368s-.213-.32-.14-.648.158-.467.368-.368.21.324.14.648Z" transform="translate(-55.11 -153.866)" fill="#324d53"/>
      <path id="Path_2738" data-name="Path 2738" d="M56.192,225.212c-.04.2-.118.2-.254.121l-.088.408c.4.232.6.21.71-.3l.416-1.91-.368-.213Z" transform="translate(-35.297 -141.413)" fill="#324d53"/>
      <path id="Path_2739" data-name="Path 2739" d="M60.052,226.966c-.467-.272-.692,0-.806.526a1.025,1.025,0,0,0,.42,1.244c.467.269.7,0,.81-.534A1.014,1.014,0,0,0,60.052,226.966Zm.059,1.027c-.07.328-.162.471-.368.368s-.213-.32-.14-.648.158-.467.368-.368S60.185,227.665,60.111,227.993Z" transform="translate(-37.413 -143.65)" fill="#324d53"/>
      <path id="Path_2740" data-name="Path 2740" d="M64.459,228.144a.736.736,0,0,0-.368-.07l.166-.758-.368-.206-.519,2.366.368.206.276-1.27a.736.736,0,0,1,.258.088c.173.1.162.28.107.534l-.2.905.368.206.2-.913C64.864,228.714,64.835,228.361,64.459,228.144Z" transform="translate(-40.05 -143.809)" fill="#324d53"/>
      <path id="Path_2741" data-name="Path 2741" d="M69.032,231.943a.666.666,0,0,0-.368-.055l.022-.1-.368-.2-.368,1.689.368.206.276-1.266a.607.607,0,0,1,.258.081c.173.1.166.283.107.537l-.2.9.368.21.2-.916C69.44,232.514,69.407,232.16,69.032,231.943Z" transform="translate(-42.944 -146.64)" fill="#324d53"/>
      <path id="Path_2742" data-name="Path 2742" d="M75.9,234.188l-.615-.368-.5,2.3.615.368c.651.368.861.04,1.034-.736S76.532,234.552,75.9,234.188Zm.151,1.332c-.11.512-.206.769-.567.559l-.243-.14.324-1.49.247.14C76.167,234.8,76.16,235.016,76.05,235.52Z" transform="translate(-47.261 -148.049)" fill="#324d53"/>
      <path id="Path_2743" data-name="Path 2743" d="M95.352,246l-.151.681a2.635,2.635,0,0,0-.28-.213c-.368-.21-.611-.059-.736.559s-.077.96.328,1.2a.817.817,0,0,0,.35.077v.066l.368.206.515-2.366Zm-.427,1.95a.862.862,0,0,1-.272-.1c-.166-.1-.188-.269-.114-.615s.191-.438.324-.368a2.047,2.047,0,0,1,.258.188Z" transform="translate(-59.486 -155.747)" fill="#324d53"/>
      <path id="Path_2744" data-name="Path 2744" d="M91.47,245.666l.357.21.519-2.366-.361-.21Z" transform="translate(-57.809 -154.041)" fill="#324d53"/>
      <path id="Path_2745" data-name="Path 2745" d="M68.562,189.683a1.078,1.078,0,0,1,.434,1.1l-.776,3.548c-.092.42-.438.6-.769.416l-4.387-2.536a1.078,1.078,0,0,1-.434-1.1l.776-3.548c.092-.416.438-.6.769-.412Z" transform="translate(-39.568 -118.507)" fill="#f5ebd0" stroke="#bf9931" stroke-linejoin="round" stroke-width="0.75"/>
    </g>
  </g>
</svg>
