<svg xmlns="http://www.w3.org/2000/svg" width="220" height="247" viewBox="0 0 220 247">
    <defs>
        <linearGradient id="fa0vpy23qa" x1="49.986%" x2="49.986%" y1="99.982%" y2="0%">
            <stop offset="0%" stop-color="#FFF"/>
            <stop offset="100%" stop-color="#FFF" stop-opacity="0"/>
        </linearGradient>
    </defs>
    <g fill="none" fill-rule="evenodd">
        <g fill-rule="nonzero">
            <g>
                <g fill="#231F20" opacity=".21">
                    <path d="M38.252 0.285L124.91 33.78 86.775 71.99 0.117 38.492z" transform="translate(-78 -54) translate(78 54) translate(0 125)"/>
                </g>
                <path fill="#FFF" d="M186 122.432l-.382 3.568c-11.963-1.25-13.076-9.447-13.891-15.432-.369-2.72-.717-5.29-1.986-6.225-.677-.512-1.837-.665-3.407-.422-4.61.682-11.005 5.08-16.648 8.961-7.47 5.14-12.855 8.855-16.336 6.577-2.311-1.516-2.683-5.1-1.208-11.638.626-2.78.974-6.354-.934-7.608-3.576-2.344-13.512 2.278-17.619 4.376-4.651 2.415-9.156 5.092-13.492 8.02L98 109.674c4.454-3.015 9.085-5.769 13.87-8.246 10.488-5.364 17.484-6.733 21.361-4.19 2.91 1.912 3.742 5.736 2.47 11.369-1.573 6.953-.339 7.857-.339 7.864 0 .007.755.456 3.827-1.154 2.385-1.25 5.3-3.255 8.39-5.38 6.262-4.323 12.74-8.762 18.197-9.566 2.608-.386 4.618-.027 6.14 1.097 2.49 1.839 2.937 5.134 3.41 8.622.82 5.846 1.563 11.392 10.674 12.343z" transform="translate(-78 -54) translate(78 54)"/>
                <path fill="#231F20" d="M185.589 127h-.125c-12.014-1.292-13.147-9.75-13.953-15.926-.364-2.765-.707-5.372-1.931-6.3-.654-.5-1.767-.64-3.297-.409-4.561.682-10.915 5.189-16.518 9.153-7.504 5.311-12.91 9.143-16.44 6.756-2.36-1.588-2.738-5.304-1.258-12.05.617-2.812.964-6.422-.876-7.666-3.51-2.366-13.356 2.355-17.428 4.493-4.623 2.468-9.1 5.206-13.41 8.198l-.105.071-.087-.092L98 110.113l.101-.075c4.444-3.094 9.064-5.92 13.838-8.46 10.5-5.523 17.506-6.928 21.413-4.29 2.946 1.992 3.792 5.96 2.514 11.788-1.516 6.9-.384 7.923-.374 7.933.01.01.728.399 3.678-1.193 2.36-1.282 5.276-3.334 8.35-5.509 6.253-4.431 12.719-9 18.183-9.828 2.636-.398 4.669-.023 6.216 1.15 2.522 1.915 2.97 5.317 3.445 8.92.79 5.959 1.534 11.59 10.511 12.541H186l-.411 3.91zm-17.995-23.013c.756-.048 1.507.151 2.14.57 1.305.988 1.656 3.65 2.024 6.476.805 6.075 1.904 14.382 13.605 15.698l.357-3.41c-9.054-1.022-9.81-6.711-10.608-12.734-.469-3.56-.91-6.91-3.351-8.761-1.487-1.132-3.459-1.49-6.02-1.101-5.394.821-11.85 5.376-18.076 9.783-3.081 2.182-5.99 4.237-8.377 5.526-3.128 1.687-3.877 1.227-3.95 1.172 0 0-1.35-.79.276-8.18 1.257-5.717.445-9.593-2.407-11.522-3.823-2.58-10.744-1.173-21.157 4.301-4.725 2.519-9.3 5.314-13.703 8.373l1.945 2.802c4.294-2.973 8.752-5.694 13.353-8.15 4.11-2.162 14.064-6.924 17.684-4.48 1.959 1.323 1.615 5.045.984 7.932-1.46 6.63-1.102 10.264 1.15 11.784 3.37 2.288 8.73-1.5 16.134-6.742 5.646-3.992 12.024-8.505 16.642-9.204.448-.078.901-.123 1.355-.133z" transform="translate(-78 -54) translate(78 54)"/>
                <path fill="#18A058" d="M112 149L112 152.872 78 186 78 182.132z" transform="translate(-78 -54) translate(78 54)"/>
                <path fill="#12CA70" d="M111 147.587L77.331 181 76 175.433 106.67 145z" transform="translate(-78 -54) translate(78 54)"/>
                <path fill="#18A058" d="M107 142L107 146.019 76 177 76 172.984z" transform="translate(-78 -54) translate(78 54)"/>
                <path fill="#12CA70" d="M101.815 138L106 142.506 76.289 173 75 165.518z" transform="translate(-78 -54) translate(78 54)"/>
                <path fill="#12CA70" d="M104 86v51.348L75 165v-51.352L104 86zm-4.526 47.687v-30.479l-19.948 19.02v30.48l19.948-19.02z" transform="translate(-78 -54) translate(78 54)"/>
                <path fill="#12CA70" d="M94.051 61L103 87.406 74.751 115 72 82.543z" transform="translate(-78 -54) translate(78 54)"/>
                <path fill="#231F20" d="M99 104L99 134.172 81 153 81 122.828z" transform="translate(-78 -54) translate(78 54)"/>
                <path fill="#18A058" d="M94 59.408L72.52 81 32 66.274 49.18 49l.219.22c-1.182 1.187-1.846 2.533-1.846 3.96v10.121c0 4.808 7.551 8.705 16.868 8.705 9.317 0 16.869-3.897 16.869-8.705v-8.505L94 59.408z" transform="translate(-78 -54) translate(78 54)"/>
                <path fill="#18A058" d="M81 55.545v8.132C81 68.274 73.388 72 64.005 72 54.622 72 47 68.274 47 63.677V54c0 4.597 7.608 8.323 16.995 8.323 8.372 0 15.331-2.965 16.734-6.868l.271.09z" transform="translate(-78 -54) translate(78 54)"/>
                <path fill="#FFF" d="M79.885 53v2l-.77-.117c.51-.605.77-1.242.77-1.883z" transform="translate(-78 -54) translate(78 54)"/>
                <path fill="#12CA70" d="M80 52.511c0 .507-.087 1.01-.256 1.489l-2.534-.908c.03-.192.046-.386.047-.58 0-3.933-6.247-7.118-13.948-7.118-1.943-.005-3.881.21-5.775.643L55 45.13c2.7-.767 5.495-1.147 8.302-1.13C72.512 43.995 80 47.808 80 52.512zM78.4 54.017l2.6.913C79.585 58.948 72.57 62 64.131 62 54.67 62 47 58.164 47 53.432c0-1.405.682-2.73 1.875-3.899 1.513-1.48 3.858-2.71 6.728-3.533l2.6.92c-4.948 1.126-8.388 3.62-8.388 6.519 0 3.955 6.408 7.16 14.316 7.16 7.513-.007 13.675-2.9 14.268-6.582z" transform="translate(-78 -54) translate(78 54)"/>
                <path fill="#231F20" d="M78 52.471c0 .177-.016.354-.047.529L58 46.58c1.92-.392 3.886-.586 5.856-.58C71.666 45.994 78 48.893 78 52.471z" transform="translate(-78 -54) translate(78 54)"/>
                <path fill="#231F20" d="M58.51 46L79 53.27C78.398 57.04 72.146 60 64.524 60 56.501 60 50 56.72 50 52.672c0-2.974 3.49-5.527 8.51-6.672z" transform="translate(-78 -54) translate(78 54)"/>
                <path fill="#18894B" d="M78 183.053L78 187 15 163.951 15 160z" transform="translate(-78 -54) translate(78 54)"/>
                <path fill="#18A058" d="M76.681 176.289L78 182 15 158.627 19.291 155z" transform="translate(-78 -54) translate(78 54)"/>
                <path fill="#18894B" d="M77 174.007L77 178 20 156.996 20 153z" transform="translate(-78 -54) translate(78 54)"/>
                <path fill="#18A058" d="M75.69 164.303L77 172 20 150.607 24.252 145z" transform="translate(-78 -54) translate(78 54)"/>
                <path fill="#18A058" d="M75 113.799L75 165 23 146.201 23 95z" transform="translate(-78 -54) translate(78 54)"/>
                <path fill="#18A058" d="M72.318 81.644L75 114 23 95.24 31.724 67.01 31.734 67zM52.752 45L55 46.03c-2.478.925-4.502 2.306-5.809 3.97L49 49.757 52.752 45z" transform="translate(-78 -54) translate(78 54)"/>
                <path fill="#231F20" d="M78.41 186l-.077-.026L15 163.624v-4.086l.171.06 63.175 22.297L112 149v4.177l-.037.036L78.41 186zm-63.175-22.547l63.09 22.265 33.406-32.643v-3.477l-33.321 32.58-.077-.027-63.081-22.265-.017 3.567z" transform="translate(-78 -54) translate(78 54)"/>
                <path fill="#231F20" d="M80 154v-30.771l.037-.037L99 104v30.781l-.037.04L80 154zm.25-30.667v30.058l18.5-18.728V104.61l-18.5 18.724zM72.43 81L72.353 80.972 32 65.954 32.074 65.706 72.363 80.704 93.546 58.879 81.075 54.241 81.162 54 94 58.775 93.863 58.92z" transform="translate(-78 -54) translate(78 54)"/>
                <path fill="#231F20" d="M74.639 115L74.563 114.973 23 96.107 31.696 67.612 53.024 46 55.641 46.957 55.555 47.193 53.091 46.29 31.895 67.767 23.306 95.952 74.573 114.71 101.714 87.216 93.105 60.874 93.344 60.793 102 87.283 101.943 87.341z" transform="translate(-78 -54) translate(78 54)"/>
                <path fill="#231F20" d="M17.925 149.078L24.856 149.053 24.856 149.054 17.925 149.078z" transform="translate(-78 -54) translate(78 54) rotate(-51.71 21.39 149.066)"/>
                <path fill="#231F20" d="M78 186L77.774 186 77.774 182.069 76.588 176.49 76.588 172.484 75.402 164.983 75.402 113.56 73 81.02 73.223 81 75.625 113.55 75.628 164.959 76.811 172.46 76.814 176.459 77.997 182.038z" transform="translate(-78 -54) translate(78 54)"/>
                <path fill="#231F20" d="M76.385 177l-.077-.027L19 156.092v-4.237l.167.06 57.151 20.831L106.781 142v4.203l4.219 2.563-.127.216-4.195-2.55L76.385 177zM19.25 155.913l57.075 20.797 30.213-30.487v-3.607L76.392 173.04l-.077-.027-57.065-20.8v3.701z" transform="translate(-78 -54) translate(78 54)"/>
                <path fill="#231F20" d="M74.505 165L74.429 164.973 23 146.182 23 95 23.249 95 23.249 146.008 74.439 164.711 101.669 137.161 106 141.761 105.821 141.935 101.663 137.524zM102.875 86H103.875V137H102.875zM64.002 62C54.628 62 47 57.96 47 52.999c0-1.438.651-2.868 1.883-4.126 1.511-1.551 3.821-2.827 6.682-3.69 2.743-.8 5.584-1.199 8.437-1.183C73.375 44 81 48.04 81 53.002c0 .542-.09 1.08-.265 1.592C79.298 58.88 72.26 62 64.002 62zm0-17.745c-2.828-.017-5.644.378-8.364 1.172-2.823.853-5.096 2.105-6.573 3.624-1.202 1.231-1.813 2.558-1.813 3.948 0 4.813 7.514 8.743 16.75 8.743 8.155 0 15.091-3.043 16.498-7.22.164-.486.248-.996.248-1.51 0-4.834-7.51-8.757-16.746-8.757zM64.002 72C54.628 72 47 68.41 47 64h.252c0 4.278 7.514 7.77 16.75 7.77S80.748 68.285 80.748 64H81c0 4.397-7.625 8-16.998 8z" transform="translate(-78 -54) translate(78 54)"/>
                <path fill="#231F20" d="M64.498 60C56.501 60 50 56.867 50 53.011c0-2.744 3.343-5.245 8.517-6.374 1.96-.425 3.968-.639 5.981-.637C72.495 46 79 49.136 79 52.992c0 .194-.018.388-.051.58C78.333 57.247 72.122 60 64.499 60zm0-13.742c-1.992-.008-3.978.199-5.92.615-5.057 1.097-8.321 3.506-8.321 6.138 0 3.722 6.388 6.75 14.241 6.75 7.374 0 13.612-2.725 14.197-6.208.031-.18.047-.36.048-.542 0-3.722-6.392-6.753-14.245-6.753zM79.875 53H80.875V63H79.875zM47.875 53H48.875V63H47.875z" transform="translate(-78 -54) translate(78 54)"/>
                <path fill="#231F20" d="M14.331 157.546L19.891 157.526 19.891 157.526 14.331 157.546z" transform="translate(-78 -54) translate(78 54) rotate(-39.4 17.11 157.536)"/>
                <g fill="#231F20" opacity=".15">
                    <path d="M81.082 0.04L89.639 3.384 123.987 16.806 42.935 98.906 8.587 85.483 0.03 82.14z" transform="translate(-78 -54) translate(78 54) translate(68 148)"/>
                </g>
                <path fill="#FFF" d="M191 157L191 161.092 112 242 112 237.908zM190 157.445L110.67 238l-.05-.037L71 205.545 150.333 125 190 157.445zm-84.157 72.57l72.968-74.094-27.278-22.31-72.975 74.094 27.285 22.31z" transform="translate(-78 -54) translate(78 54)"/>
                <path fill="#231F20" d="M179 156.216L105.481 230 78 207.784 151.519 134z" transform="translate(-78 -54) translate(78 54)"/>
                <path fill="#898684" d="M111 238.047L111 242 110.923 242 78.961 229.952 71 226.953 71 223 78.961 226 110.923 238.047 110.95 238.011zM71 206L111 237.964 110.973 238 78.971 225.754 71 222.705z" transform="translate(-78 -54) translate(78 54)"/>
                <path fill="#231F20" d="M90.88 209.058L90.881 209.058 90.776 251.872 90.775 251.872z" transform="translate(-78 -54) translate(78 54) rotate(-68.91 90.828 230.465)"/>
                <path fill="#231F20" d="M110.85 238L110.804 237.964 71 206.191 71.156 206 110.953 237.766 111 237.799zM105.848 230l-.087-.073L78 207.71l.097-.1L152.148 134l.088.07L180 156.3l-.1.097L105.847 230zm-27.472-22.32l27.456 21.983L179.62 156.3l-27.452-21.983-73.792 73.363z" transform="translate(-78 -54) translate(78 54)"/>
                <path fill="#231F20" d="M110.897 242v-.188L71 226.342v-21.054l.037-.037L150.907 125l.086.07L191 157.453l-.06.06v4.058l-.037.037L110.897 242zM71.24 226.175l39.657 15.37v-3.962l.036-.036 79.694-80.074-39.704-32.145-79.673 80.064-.01 20.783zm39.897 11.519v3.683l79.553-79.91v-3.703l-79.553 79.93z" transform="translate(-78 -54) translate(78 54)"/>
                <path fill="#FFF" d="M91 204.138L90.94 204.345 85.232 210 80.093 205.894 80 205.763 85.817 200z" transform="translate(-78 -54) translate(78 54)"/>
                <path fill="#FFF" d="M90 205L90 206.211 84.247 211 84.094 210.867 84.094 210.058 84 210zM83.915 210.037L84 210.101 84 211 79 206.896 79 206z" transform="translate(-78 -54) translate(78 54)"/>
                <path fill="#231F20" d="M84 211l-5-4.683V205l5 4.683V211zm-4.759-4.81l4.533 4.258v-.635l-.036-.035-4.497-4.216v.629zM89.852 205L85 200.221 85.141 200 85.178 200.038 90 204.779z" transform="translate(-78 -54) translate(78 54)"/>
                <path fill="#231F20" d="M84.388 211L84.212 210.833 89.751 205.555 89.751 204.572 84.176 209.888 84 209.72 90 204 90 205.653 89.964 205.688z" transform="translate(-78 -54) translate(78 54)"/>
                <path fill="#231F20" d="M77.98 202.775L86.477 202.744 86.477 202.744 77.98 202.775z" transform="translate(-78 -54) translate(78 54) rotate(-44.95 82.228 202.76)"/>
                <path fill="#FFF" d="M98 209.138L97.934 209.344 92.232 215 87.093 210.895 87 210.767 92.814 205z" transform="translate(-78 -54) translate(78 54)"/>
                <path fill="#FFF" d="M97 210L97 211.209 91.254 216 91.094 215.867 91.094 215.061 91 215z" transform="translate(-78 -54) translate(78 54)"/>
                <path fill="#FFF" d="M91.915 216.036L92 216.104 92 217 87 212.896 87 212z" transform="translate(-78 -54) translate(78 54)"/>
                <path fill="#231F20" d="M92 217l-5-4.683V211l5 4.69V217zm-4.774-4.823l4.548 4.26v-.638l-.037-.036-4.51-4.215v.629zM96.856 209L92 204.211 92.153 204 92.193 204.041 97 208.782z" transform="translate(-78 -54) translate(78 54)"/>
                <path fill="#231F20" d="M91.385 217L91.216 216.829 91.312 216.741 96.751 211.557 96.751 210.572 91.176 215.885 91 215.718 97 210 97 211.652 96.964 211.687z" transform="translate(-78 -54) translate(78 54)"/>
                <path fill="#231F20" d="M84.939 208.367L93.439 208.336 93.439 208.337 84.939 208.368z" transform="translate(-78 -54) translate(78 54) rotate(-45.05 89.189 208.352)"/>
                <path fill="#FFF" d="M104 215.14L103.94 215.343 98.234 221 93.093 216.896 93 216.762 98.819 211zM105 216L105 217.211 99.247 222 99.094 221.867 99.094 221.061 99 221zM97.915 221.036L98 221.104 98 222 93 217.896 93 217z" transform="translate(-78 -54) translate(78 54)"/>
                <path fill="#231F20" d="M98 223l-5-4.665V217l5 4.686V223zm-4.774-4.81l4.554 4.262v-.64l-.037-.034-4.51-4.216-.007.629zM104.855 216L100 211.221 100.141 211 100.181 211.038 105 215.782zM99.388 223L99.212 222.833 104.751 217.555 104.751 216.572 99.176 221.888 99 221.72 105 216 105 217.656 104.964 217.691z" transform="translate(-78 -54) translate(78 54)"/>
                <path fill="#231F20" d="M91.934 213.909L100.431 213.878 100.431 213.878 91.934 213.909z" transform="translate(-78 -54) translate(78 54) rotate(-44.95 96.182 213.894)"/>
                <path fill="#FFF" d="M111 221.138L110.934 221.344 105.232 227 100.093 222.895 100 222.767 105.811 217z" transform="translate(-78 -54) translate(78 54)"/>
                <path fill="#FFF" d="M111 221L111 222.209 105.251 227 105.094 226.867 105.094 226.061 105 226zM104.915 227.036L105 227.104 105 228 100 223.896 100 223z" transform="translate(-78 -54) translate(78 54)"/>
                <path fill="#231F20" d="M105 228l-5-4.686V222l5 4.683V228zm-4.774-4.813l4.548 4.261v-.65l-.037-.031-4.51-4.215v.635zM110.856 221L106 216.21 106.153 216 106.19 216.041 111 220.778z" transform="translate(-78 -54) translate(78 54)"/>
                <path fill="#231F20" d="M105.385 227L105.216 226.829 105.312 226.741 110.751 221.557 110.751 220.575 105.176 225.888 105 225.721 111 220 111 221.655 110.964 221.69z" transform="translate(-78 -54) translate(78 54)"/>
                <path fill="#231F20" d="M98.843 219.704L107.343 219.673 107.343 219.673 98.843 219.704z" transform="translate(-78 -54) translate(78 54) rotate(-45.05 103.093 219.688)"/>
                <path fill="#FFF" d="M98 197.14L97.94 197.346 92.234 203 87.093 198.896 87 198.765 92.819 193z" transform="translate(-78 -54) translate(78 54)"/>
                <path fill="#FFF" d="M97 197L97 198.209 91.247 203 91.09 202.867 91.09 202.061 91 202z" transform="translate(-78 -54) translate(78 54)"/>
                <path fill="#FFF" d="M91.918 203.036L92 203.104 92 204 87 199.896 87 199z" transform="translate(-78 -54) translate(78 54)"/>
                <path fill="#231F20" d="M92 204l-5-4.683V198l5 4.683V204zm-4.774-4.81l4.548 4.259v-.64l-.037-.03-4.51-4.214v.625zM96.855 197L92 192.225 92.141 192 92.178 192.038 97 196.782z" transform="translate(-78 -54) translate(78 54)"/>
                <path fill="#231F20" d="M91.388 203L91.212 202.833 96.752 197.557 96.752 196.572 91.176 201.888 91 201.721 97 196 97 197.655 96.964 197.69z" transform="translate(-78 -54) translate(78 54)"/>
                <path fill="#231F20" d="M85.415 195.284L93.912 195.253 93.912 195.253 85.415 195.284z" transform="translate(-78 -54) translate(78 54) rotate(-44.95 89.664 195.269)"/>
                <path fill="#FFF" d="M105 202.138L104.937 202.341 99.234 208 94.089 203.892 94 203.764 99.813 198z" transform="translate(-78 -54) translate(78 54)"/>
                <path fill="#FFF" d="M105 203L105 204.211 99.251 209 99.09 208.867 99.09 208.058 99 208zM98.918 207.037L99 207.101 99 208 94 203.899 94 203z" transform="translate(-78 -54) translate(78 54)"/>
                <path fill="#231F20" d="M99 209l-5-4.683V203l5 4.683V209zm-4.773-4.81l4.546 4.262v-.64l-.036-.034-4.51-4.216v.629zM104.853 202L100 197.214 100.153 197 100.193 197.045 105 201.778zM99.388 210L99.216 209.826 99.312 209.741 104.751 204.554 104.751 203.572 99.176 208.885 99 208.718 105 203 105 204.652 104.964 204.687z" transform="translate(-78 -54) translate(78 54)"/>
                <path fill="#231F20" d="M92.376 200.88L100.876 200.849 100.876 200.849 92.376 200.88z" transform="translate(-78 -54) translate(78 54) rotate(-45.05 96.626 200.865)"/>
                <path fill="#FFF" d="M112 208.142L111.94 208.345 106.232 214 101.093 209.894 101 209.763 106.817 204z" transform="translate(-78 -54) translate(78 54)"/>
                <path fill="#FFF" d="M112 208L112 209.211 106.247 214 106.094 213.867 106.094 213.061 106 213zM105.915 214.037L106 214.104 106 215 101 210.899 101 210z" transform="translate(-78 -54) translate(78 54)"/>
                <path fill="#231F20" d="M106 216l-5-4.683V210l5 4.69V216zm-4.773-4.81l4.546 4.258v-.635l-.036-.035-4.51-4.216v.629zM111.855 208L107 203.221 107.145 203 107.181 203.038 112 207.779z" transform="translate(-78 -54) translate(78 54)"/>
                <path fill="#231F20" d="M106.388 214L106.212 213.833 111.751 208.555 111.751 207.572 106.176 212.888 106 212.72 112 207 112 208.653 111.964 208.688z" transform="translate(-78 -54) translate(78 54)"/>
                <path fill="#231F20" d="M99.365 206.418L107.862 206.387 107.862 206.388 99.365 206.419z" transform="translate(-78 -54) translate(78 54) rotate(-44.95 103.613 206.403)"/>
                <path fill="#FFF" d="M118 213.138L117.934 213.344 112.235 219 107.093 214.895 107 214.767 112.814 209zM119 214L119 215.209 113.251 220 113.091 219.867 113.091 219.061 113 219z" transform="translate(-78 -54) translate(78 54)"/>
                <path fill="#FFF" d="M112.918 219.036L113 219.104 113 220 108 215.896 108 215z" transform="translate(-78 -54) translate(78 54)"/>
                <path fill="#231F20" d="M113 220l-5-4.683V214l5 4.683V220zm-4.773-4.81l4.562 4.259v-.64l-.037-.03-4.51-4.214-.015.625zM118.853 214L114 209.211 114.153 209 114.193 209.041 119 213.782z" transform="translate(-78 -54) translate(78 54)"/>
                <path fill="#231F20" d="M113.385 220L113.216 219.829 113.312 219.741 118.751 214.557 118.751 213.572 113.176 218.885 113 218.718 113.07 218.654 119 213 119 214.655 118.964 214.69z" transform="translate(-78 -54) translate(78 54)"/>
                <path fill="#231F20" d="M106.28 212.213L114.78 212.182 114.78 212.182 106.28 212.213z" transform="translate(-78 -54) translate(78 54) rotate(-45.05 110.53 212.198)"/>
                <path fill="#FFF" d="M105 189.14L104.94 189.343 99.232 195 94.093 190.896 94 190.762 99.817 185z" transform="translate(-78 -54) translate(78 54)"/>
                <path fill="#FFF" d="M105 190L105 191.211 99.247 196 99.094 195.867 99.094 195.061 99 195zM98.915 195.036L99 195.104 99 196 94 191.896 94 191z" transform="translate(-78 -54) translate(78 54)"/>
                <path fill="#231F20" d="M99 196l-5-4.683V190l5 4.686V196zm-4.774-4.799l4.548 4.262v-.64l-.037-.035-4.51-4.215v.628zM104.855 190L100 185.221 100.141 185 100.181 185.038 105 189.782zM99.388 197L99.212 196.833 104.751 191.555 104.751 190.572 99.176 195.888 99 195.72 105 190 105 191.656 104.964 191.691z" transform="translate(-78 -54) translate(78 54)"/>
                <path fill="#231F20" d="M92.849 187.799L101.345 187.768 101.345 187.768 92.849 187.799z" transform="translate(-78 -54) translate(78 54) rotate(-44.95 97.097 187.784)"/>
                <path fill="#FFF" d="M113 195.138L112.937 195.344 107.234 201 102.093 196.895 102 196.767 107.813 191z" transform="translate(-78 -54) translate(78 54)"/>
                <path fill="#FFF" d="M113 195L113 196.209 107.251 201 107.09 200.867 107.09 200.061 107 200zM106.918 200.036L107 200.104 107 201 102 196.896 102 196z" transform="translate(-78 -54) translate(78 54)"/>
                <path fill="#231F20" d="M107 202l-5-4.686V196l5 4.683V202zm-4.774-4.813l4.548 4.261v-.639l-.037-.031-4.51-4.216v.625zM112.856 195L108 190.21 108.153 190 108.19 190.041 113 194.778z" transform="translate(-78 -54) translate(78 54)"/>
                <path fill="#231F20" d="M107.385 201L107.212 200.829 107.309 200.741 112.751 195.557 112.751 194.575 107.176 199.888 107 199.721 113 194 113 195.655 112.963 195.69z" transform="translate(-78 -54) translate(78 54)"/>
                <path fill="#231F20" d="M99.811 193.392L108.311 193.361 108.311 193.361 99.811 193.392z" transform="translate(-78 -54) translate(78 54) rotate(-45.05 104.06 193.376)"/>
                <path fill="#FFF" d="M119 200.14L118.94 200.346 113.234 206 108.089 201.896 108 201.765 113.816 196z" transform="translate(-78 -54) translate(78 54)"/>
                <path fill="#FFF" d="M119 201L119 202.209 113.247 207 113.09 206.867 113.09 206.061 113 206zM112.918 206.036L113 206.104 113 207 108 202.896 108 202z" transform="translate(-78 -54) translate(78 54)"/>
                <path fill="#231F20" d="M113 207l-5-4.686V201l5 4.68V207zm-4.774-4.813l4.548 4.261v-.639l-.04-.031-4.508-4.216v.625zM118.855 200L114 195.222 114.141 195 114.178 195.034 119 199.782zM113.388 207L113.212 206.833 118.752 201.557 118.752 200.572 113.176 205.888 113 205.721 119 200 119 201.655 118.964 201.69z" transform="translate(-78 -54) translate(78 54)"/>
                <path fill="#231F20" d="M106.798 198.93L115.295 198.899 115.295 198.899 106.798 198.93z" transform="translate(-78 -54) translate(78 54) rotate(-44.95 111.046 198.915)"/>
                <path fill="#FFF" d="M126 206.138L125.937 206.341 120.234 212 115.089 207.892 115 207.767 120.813 202z" transform="translate(-78 -54) translate(78 54)"/>
                <path fill="#FFF" d="M126 207L126 208.211 120.251 213 120.09 212.867 120.09 212.061 120 212zM119.918 212.037L120 212.104 120 213 115 208.899 115 208z" transform="translate(-78 -54) translate(78 54)"/>
                <path fill="#231F20" d="M120 213l-5-4.683V207l5 4.683V213zm-4.783-4.81l4.547 4.262v-.64l-.036-.034-4.51-4.216v.629zM125.856 206L121 201.211 121.153 201 121.19 201.041 126 205.782zM120.388 213L120.216 212.829 120.312 212.741 125.751 207.554 125.751 206.572 120.176 211.885 120 211.718 126 206 126 207.652 125.964 207.687z" transform="translate(-78 -54) translate(78 54)"/>
                <path fill="#231F20" d="M113.713 204.722L122.213 204.691 122.213 204.692 113.713 204.723z" transform="translate(-78 -54) translate(78 54) rotate(-45.05 117.963 204.707)"/>
                <path fill="#FFF" d="M113 181.142L112.94 181.345 107.232 187 102.093 182.894 102 182.763 107.817 177zM113 183L113 184.211 107.247 189 107.094 188.867 107.094 188.061 107 188zM106.915 188.037L107 188.104 107 189 102 184.899 102 184z" transform="translate(-78 -54) translate(78 54)"/>
                <path fill="#231F20" d="M107 190l-5-4.683V184l5 4.683V190zm-4.773-4.81l4.55 4.258v-.642l-.037-.036-4.51-4.215-.003.636zM112.855 182L108 177.221 108.142 177 108.178 177.034 113 181.779z" transform="translate(-78 -54) translate(78 54)"/>
                <path fill="#231F20" d="M107.388 188L107.212 187.833 112.751 182.555 112.751 181.572 107.176 186.888 107 186.72 113 181 113 182.653 112.964 182.688z" transform="translate(-78 -54) translate(78 54)"/>
                <path fill="#231F20" d="M100.283 180.308L108.779 180.277 108.779 180.278 100.283 180.309z" transform="translate(-78 -54) translate(78 54) rotate(-44.95 104.531 180.293)"/>
                <path fill="#FFF" d="M119 188.138L118.934 188.344 113.232 194 108.093 189.895 108 189.767 113.814 184z" transform="translate(-78 -54) translate(78 54)"/>
                <path fill="#FFF" d="M119 188L119 189.209 113.251 194 113.094 193.867 113.094 193.061 113 193z" transform="translate(-78 -54) translate(78 54)"/>
                <path fill="#FFF" d="M113.915 193.036L114 193.104 114 194 109 189.896 109 189z" transform="translate(-78 -54) translate(78 54)"/>
                <path fill="#231F20" d="M114 195l-5-4.687V189l5 4.67V195zm-4.762-4.796l4.536 4.246v-.637l-.036-.035-4.5-4.2v.626zM118.856 187L114 182.211 114.153 182 114.19 182.041 119 186.782z" transform="translate(-78 -54) translate(78 54)"/>
                <path fill="#231F20" d="M113.385 194L113.212 193.829 113.312 193.741 118.751 188.557 118.751 187.572 113.176 192.885 113 192.718 119 187 119 188.655 118.964 188.69z" transform="translate(-78 -54) translate(78 54)"/>
                <path fill="#231F20" d="M107.246 185.903L115.746 185.872 115.746 185.873 107.246 185.904z" transform="translate(-78 -54) translate(78 54) rotate(-45.05 111.496 185.888)"/>
                <path fill="#FFF" d="M126 193.14L125.94 193.346 120.234 199 115.093 194.896 115 194.762 120.819 189z" transform="translate(-78 -54) translate(78 54)"/>
                <path fill="#FFF" d="M126 194L126 195.209 120.247 200 120.09 199.867 120.09 199.061 120 199z" transform="translate(-78 -54) translate(78 54)"/>
                <path fill="#FFF" d="M120.918 199.036L121 199.104 121 200 116 195.896 116 195z" transform="translate(-78 -54) translate(78 54)"/>
                <path fill="#231F20" d="M120.988 201L116 196.317V195l5 4.686-.012 1.314zm-4.774-4.81l4.547 4.262v-.64l-.036-.034-4.51-4.216v.629zM125.855 193L121 188.221 121.141 188 121.181 188.038 126 192.782z" transform="translate(-78 -54) translate(78 54)"/>
                <path fill="#231F20" d="M120.391 201L120.215 200.829 125.752 195.554 125.752 194.572 120.179 199.885 120 199.718 126 194 126 195.652 125.964 195.687z" transform="translate(-78 -54) translate(78 54)"/>
                <path fill="#231F20" d="M114.237 191.439L122.734 191.408 122.734 191.409 114.237 191.439z" transform="translate(-78 -54) translate(78 54) rotate(-44.95 118.485 191.424)"/>
                <path fill="#FFF" d="M120 173.14L119.94 173.346 114.234 179 109.093 174.896 109 174.765 114.816 169zM120 175L120 176.209 114.247 181 114.09 180.87 114.09 180.061 114 180zM113.918 180.034L114 180.101 114 181 109 176.896 109 176z" transform="translate(-78 -54) translate(78 54)"/>
                <path fill="#231F20" d="M114 182l-5-4.686V176l5 4.683V182zm-4.776-4.813l4.55 4.261v-.639l-.037-.031-4.513-4.216v.625zM119.855 175L115 170.222 115.141 170 115.181 170.034 120 174.782z" transform="translate(-78 -54) translate(78 54)"/>
                <path fill="#231F20" d="M114.388 181L114.212 180.833 119.752 175.557 119.752 174.572 114.176 179.888 114 179.721 120 174 120 175.655 119.964 175.69z" transform="translate(-78 -54) translate(78 54)"/>
                <path fill="#231F20" d="M107.716 172.82L116.213 172.789 116.213 172.789 107.716 172.82z" transform="translate(-78 -54) translate(78 54) rotate(-44.95 111.964 172.805)"/>
                <path fill="#FFF" d="M127 180.138L126.937 180.341 121.235 186 116.093 181.892 116 181.767 121.814 176z" transform="translate(-78 -54) translate(78 54)"/>
                <path fill="#FFF" d="M127 180L127 181.211 121.251 186 121.09 185.867 121.09 185.061 121 185zM120.918 185.037L121 185.104 121 186 116 181.899 116 181z" transform="translate(-78 -54) translate(78 54)"/>
                <path fill="#231F20" d="M121 186l-5-4.683V180l5 4.683V186zm-4.773-4.806l4.546 4.262v-.643l-.036-.035-4.51-4.216v.632zM126.856 180L122 175.211 122.153 175 122.193 175.041 127 179.782zM121.385 187L121.216 186.829 121.312 186.741 126.751 181.554 126.751 180.572 121.176 185.885 121 185.718 127 180 127 181.652 126.964 181.687z" transform="translate(-78 -54) translate(78 54)"/>
                <path fill="#231F20" d="M114.68 178.41L123.181 178.379 123.181 178.38 114.68 178.41z" transform="translate(-78 -54) translate(78 54) rotate(-45.05 118.93 178.395)"/>
                <path fill="#FFF" d="M133 185.142L132.94 185.345 127.232 191 122.093 186.894 122 186.763 127.817 181zM133 187L133 188.211 127.247 193 127.094 192.867 127.094 192.058 127 192z" transform="translate(-78 -54) translate(78 54)"/>
                <path fill="#FFF" d="M127.915 192.037L128 192.101 128 193 123 188.899 123 188z" transform="translate(-78 -54) translate(78 54)"/>
                <path fill="#231F20" d="M128 193l-5-4.683V187l5 4.683V193zm-4.767-4.81l4.531 4.262v-.64l-.036-.034-4.51-4.216.015.629zM132.855 185L128 180.221 128.145 180 128.181 180.038 133 184.779z" transform="translate(-78 -54) translate(78 54)"/>
                <path fill="#231F20" d="M127.388 193L127.212 192.833 132.751 187.555 132.751 186.572 127.176 191.888 127 191.72 133 186 133 187.653 132.964 187.688z" transform="translate(-78 -54) translate(78 54)"/>
                <path fill="#231F20" d="M121.668 183.948L130.164 183.917 130.164 183.918 121.668 183.949z" transform="translate(-78 -54) translate(78 54) rotate(-44.95 125.916 183.933)"/>
                <path fill="#FFF" d="M128 167.14L127.937 167.346 122.232 173 117.093 168.896 117 168.762 122.817 163z" transform="translate(-78 -54) translate(78 54)"/>
                <path fill="#FFF" d="M128 168L128 169.209 122.247 174 122.09 173.867 122.09 173.061 122 173zM120.918 173.036L121 173.104 121 174 116 169.896 116 169z" transform="translate(-78 -54) translate(78 54)"/>
                <path fill="#231F20" d="M121 174l-5-4.683V168l5 4.683V174zm-4.774-4.81l4.548 4.259v-.64l-.037-.034-4.51-4.213v.628zM127.855 168L123 163.221 123.141 163 123.181 163.038 128 167.782z" transform="translate(-78 -54) translate(78 54)"/>
                <path fill="#231F20" d="M122.388 174L122.212 173.829 127.751 168.557 127.751 167.572 122.176 172.885 122 172.718 128 167 128 168.655 127.964 168.69z" transform="translate(-78 -54) translate(78 54)"/>
                <path fill="#231F20" d="M115.155 165.329L123.651 165.298 123.651 165.299 115.155 165.329z" transform="translate(-78 -54) translate(78 54) rotate(-44.95 119.403 165.314)"/>
                <path fill="#FFF" d="M134 172.138L133.937 172.344 128.234 178 123.093 173.895 123 173.767 128.813 168z" transform="translate(-78 -54) translate(78 54)"/>
                <path fill="#FFF" d="M134 172L134 173.211 128.251 178 128.09 177.867 128.09 177.058 128 176.998z" transform="translate(-78 -54) translate(78 54)"/>
                <path fill="#FFF" d="M128.918 178.034L129 178.101 129 179 124 174.896 124 174z" transform="translate(-78 -54) translate(78 54)"/>
                <path fill="#231F20" d="M129 180l-5-4.686V174l5 4.683V180zm-4.774-4.813l4.548 4.261v-.65l-.037-.031-4.51-4.215v.635zM133.856 173L129 168.21 129.153 168 129.19 168.041 134 172.778z" transform="translate(-78 -54) translate(78 54)"/>
                <path fill="#231F20" d="M128.388 179L128.216 178.829 128.312 178.741 133.751 173.557 133.751 172.575 128.176 177.888 128 177.721 128.07 177.654 134 172 134 173.655 133.964 173.69z" transform="translate(-78 -54) translate(78 54)"/>
                <path fill="#231F20" d="M122.119 170.922L130.619 170.891 130.619 170.891 122.119 170.922z" transform="translate(-78 -54) translate(78 54) rotate(-45.05 126.369 170.906)"/>
                <path fill="#FFF" d="M140 178.14L139.94 178.346 134.234 184 129.089 179.896 129 179.765 134.816 174zM142 178L142 179.209 136.247 184 136.09 183.867 136.09 183.061 136 183z" transform="translate(-78 -54) translate(78 54)"/>
                <path fill="#FFF" d="M134.918 183.036L135 183.104 135 184 130 179.896 130 179z" transform="translate(-78 -54) translate(78 54)"/>
                <path fill="#231F20" d="M135 184l-5-4.686V178l5 4.683V184zm-4.774-4.813l4.548 4.25v-.638l-.04-.032-4.508-4.215v.635zM141.855 178L137 173.225 137.141 173 137.178 173.038 142 177.779z" transform="translate(-78 -54) translate(78 54)"/>
                <path fill="#231F20" d="M136.388 184L136.212 183.833 141.751 178.557 141.751 177.575 136.176 182.888 136 182.721 142 177 142 178.655 141.964 178.69z" transform="translate(-78 -54) translate(78 54)"/>
                <path fill="#231F20" d="M129.104 176.46L137.601 176.429 137.601 176.429 129.104 176.46z" transform="translate(-78 -54) translate(78 54) rotate(-44.95 133.352 176.445)"/>
                <path fill="#FFF" d="M135 160.142L134.94 160.345 129.232 166 124.093 161.894 124 161.763 129.817 156z" transform="translate(-78 -54) translate(78 54)"/>
                <path fill="#FFF" d="M135 160L135 161.211 129.247 166 129.094 165.867 129.094 165.058 129 165z" transform="translate(-78 -54) translate(78 54)"/>
                <path fill="#FFF" d="M129.915 166.037L130 166.101 130 167 125 162.899 125 162z" transform="translate(-78 -54) translate(78 54)"/>
                <path fill="#231F20" d="M129.994 168L125 163.317V162l5 4.683-.006 1.317zm-4.773-4.81l4.531 4.258v-.635l-.036-.035-4.51-4.216.015.629zM134.855 159L130 154.221 130.145 154 130.181 154.038 135 158.779z" transform="translate(-78 -54) translate(78 54)"/>
                <path fill="#231F20" d="M128.388 167L128.212 166.833 133.751 161.555 133.751 160.572 128.176 165.888 128 165.72 128.07 165.654 134 160 134 161.653 133.964 161.688z" transform="translate(-78 -54) translate(78 54)"/>
                <path fill="#231F20" d="M122.586 157.838L131.082 157.807 131.082 157.808 122.585 157.839z" transform="translate(-78 -54) translate(78 54) rotate(-44.95 126.834 157.823)"/>
                <path fill="#FFF" d="M140 164.138L139.934 164.344 134.232 170 129.093 165.895 129 165.767 134.811 160zM142 166L142 167.209 136.254 172 136.094 171.867 136.094 171.061 136 171z" transform="translate(-78 -54) translate(78 54)"/>
                <path fill="#FFF" d="M135.915 170.036L136 170.104 136 171 131 166.896 131 166z" transform="translate(-78 -54) translate(78 54)"/>
                <path fill="#231F20" d="M136 172l-5-4.683V166l5 4.683V172zm-4.774-4.81l4.548 4.259v-.64l-.037-.034-4.51-4.213v.628zM141.856 166L137 161.211 137.153 161 137.19 161.041 142 165.782z" transform="translate(-78 -54) translate(78 54)"/>
                <path fill="#231F20" d="M136.385 172L136.212 171.829 136.312 171.741 141.751 166.557 141.751 165.572 136.176 170.888 136 170.718 142 165 142 166.655 141.964 166.69z" transform="translate(-78 -54) translate(78 54)"/>
                <path fill="#231F20" d="M129.553 163.433L138.054 163.402 138.054 163.403 129.553 163.434z" transform="translate(-78 -54) translate(78 54) rotate(-45.05 133.804 163.418)"/>
                <path fill="#FFF" d="M150 171.14L149.94 171.346 144.234 177 139.093 172.896 139 172.762 144.819 167z" transform="translate(-78 -54) translate(78 54)"/>
                <path fill="#FFF" d="M149 170L149 171.209 143.247 176 143.09 175.867 143.09 175.061 143 175z" transform="translate(-78 -54) translate(78 54)"/>
                <path fill="#FFF" d="M143.918 176.036L144 176.104 144 177 139 172.896 139 172z" transform="translate(-78 -54) translate(78 54)"/>
                <path fill="#231F20" d="M144 177l-5-4.683V171l5 4.697V177zm-4.774-4.813l4.548 4.258v-.639l-.037-.031-4.51-4.213v.625zM148.855 170L144 165.221 144.141 165 144.181 165.038 149 169.782z" transform="translate(-78 -54) translate(78 54)"/>
                <path fill="#231F20" d="M143.388 177L143.212 176.833 148.751 171.558 148.751 170.572 143.176 175.888 143 175.72 149 170 149 171.656 148.964 171.691z" transform="translate(-78 -54) translate(78 54)"/>
                <path fill="#231F20" d="M136.54 168.973L145.036 168.942 145.036 168.942 136.54 168.973z" transform="translate(-78 -54) translate(78 54) rotate(-44.95 140.788 168.957)"/>
                <path fill="#FFF" d="M141 152.14L140.94 152.346 135.234 158 130.089 153.896 130 153.765 135.816 148zM143 153L143 154.209 137.247 159 137.09 158.87 137.09 158.061 137 158z" transform="translate(-78 -54) translate(78 54)"/>
                <path fill="#FFF" d="M135.918 158.034L136 158.101 136 159 131 154.896 131 154z" transform="translate(-78 -54) translate(78 54)"/>
                <path fill="#231F20" d="M136 159l-5-4.687V153l5 4.683V159zm-4.77-4.81l4.547 4.259v-.625l-.04-.032-4.508-4.213v.611zM142.855 152L138 147.221 138.141 147 138.178 147.034 143 151.779zM137.388 160L137.212 159.833 142.752 154.557 142.752 153.575 137.176 158.888 137 158.721 143 153 143 154.655 142.964 154.69z" transform="translate(-78 -54) translate(78 54)"/>
                <path fill="#231F20" d="M130.022 150.35L138.519 150.319 138.519 150.319 130.022 150.35z" transform="translate(-78 -54) translate(78 54) rotate(-44.95 134.27 150.335)"/>
                <path fill="#FFF" d="M150 157.138L149.934 157.341 144.232 163 139.093 158.895 139 158.767 144.814 153z" transform="translate(-78 -54) translate(78 54)"/>
                <path fill="#FFF" d="M149 158L149 159.211 143.254 164 143.094 163.867 143.094 163.061 143 163z" transform="translate(-78 -54) translate(78 54)"/>
                <path fill="#FFF" d="M143.915 164.036L144 164.104 144 165 139 160.896 139 160z" transform="translate(-78 -54) translate(78 54)"/>
                <path fill="#231F20" d="M144 165l-5-4.683V159l5 4.683V165zm-4.773-4.81l4.531 4.262v-.64l-.036-.034-4.51-4.216.015.629zM148.856 158L144 153.211 144.153 153 144.193 153.041 149 157.778z" transform="translate(-78 -54) translate(78 54)"/>
                <path fill="#231F20" d="M143.388 164L143.216 163.829 143.312 163.741 148.751 158.554 148.751 157.572 143.176 162.885 143 162.718 143.07 162.651 149 157 149 158.652 148.964 158.687z" transform="translate(-78 -54) translate(78 54)"/>
                <path fill="#231F20" d="M136.988 155.944L145.489 155.913 145.489 155.913 136.988 155.944z" transform="translate(-78 -54) translate(78 54) rotate(-45.05 141.238 155.928)"/>
                <path fill="#FFF" d="M157 163.142L156.94 163.345 151.232 169 146.093 164.894 146 164.763 151.817 159z" transform="translate(-78 -54) translate(78 54)"/>
                <path fill="#FFF" d="M156 163L156 164.211 150.247 169 150.094 168.867 150.094 168.061 150 168z" transform="translate(-78 -54) translate(78 54)"/>
                <path fill="#FFF" d="M150.915 168.037L151 168.104 151 169 146 164.899 146 164z" transform="translate(-78 -54) translate(78 54)"/>
                <path fill="#231F20" d="M151 170l-5-4.683V164l4.997 4.683L151 170zm-4.77-4.81l4.544 4.262v-.64l-.037-.034-4.508-4.216v.629zM155.855 164L151 159.221 151.138 159 151.178 159.038 156 163.782z" transform="translate(-78 -54) translate(78 54)"/>
                <path fill="#231F20" d="M150.388 170L150.212 169.833 155.751 164.555 155.751 163.572 150.176 168.888 150 168.72 156 163 156 164.653 155.964 164.688z" transform="translate(-78 -54) translate(78 54)"/>
                <path fill="#231F20" d="M143.974 161.482L152.471 161.451 152.471 161.451 143.974 161.482z" transform="translate(-78 -54) translate(78 54) rotate(-44.95 148.222 161.467)"/>
                <path fill="#FFF" d="M150 145.14L149.94 145.346 144.234 151 139.093 146.896 139 146.765 144.816 141z" transform="translate(-78 -54) translate(78 54)"/>
                <path fill="#FFF" d="M150 146L150 147.209 144.247 152 144.09 151.867 144.09 151.061 144 151zM143.918 150.036L144 150.104 144 151 139 146.896 139 146z" transform="translate(-78 -54) translate(78 54)"/>
                <path fill="#231F20" d="M144 152l-5-4.686V146l5 4.69V152zm-4.774-4.823l4.548 4.26v-.638l-.037-.032-4.51-4.215v.625zM149.855 144L145 139.225 145.141 139 145.178 139.038 150 143.782zM144.391 152L144.212 151.833 149.752 146.557 149.752 145.572 144.179 150.888 144 150.721 150 145 150 146.655 149.964 146.69z" transform="translate(-78 -54) translate(78 54)"/>
                <path fill="#231F20" d="M137.578 142.738L146.075 142.707 146.075 142.708 137.578 142.739z" transform="translate(-78 -54) translate(78 54) rotate(-44.95 141.826 142.723)"/>
                <path fill="#FFF" d="M157 149.138L156.937 149.341 151.234 155 146.089 150.892 146 150.764 151.813 145zM157 151L157 152.211 151.251 157 151.09 156.867 151.09 156.058 151 156zM150.918 156.037L151 156.101 151 157 146 152.899 146 152z" transform="translate(-78 -54) translate(78 54)"/>
                <path fill="#231F20" d="M151 158l-5-4.683V152l5 4.683V158zm-4.773-4.81l4.531 4.262v-.64l-.036-.034-4.51-4.216.015.629zM155.856 151L151 146.214 151.153 146 151.193 146.045 156 150.778zM151.388 157L151.216 156.826 151.312 156.741 156.751 151.554 156.751 150.572 151.176 155.885 151 155.718 151.07 155.651 157 150 157 151.652 156.964 151.687z" transform="translate(-78 -54) translate(78 54)"/>
                <path fill="#231F20" d="M144.543 148.334L153.043 148.303 153.043 148.304 144.543 148.335z" transform="translate(-78 -54) translate(78 54) rotate(-45.05 148.793 148.32)"/>
                <path fill="#FFF" d="M165 156.142L164.94 156.345 159.232 162 154.093 157.894 154 157.763 159.817 152z" transform="translate(-78 -54) translate(78 54)"/>
                <path fill="#FFF" d="M164 157L164 158.211 158.247 163 158.094 162.867 158.094 162.058 158 162zM157.915 161.037L158 161.101 158 162 153 157.899 153 157z" transform="translate(-78 -54) translate(78 54)"/>
                <path fill="#231F20" d="M158 163l-5-4.683V157l5 4.683V163zm-4.773-4.81l4.546 4.258v-.635l-.036-.035-4.51-4.216v.629zM163.855 157L159 152.221 159.138 152 159.178 152.034 164 156.779z" transform="translate(-78 -54) translate(78 54)"/>
                <path fill="#231F20" d="M158.388 163L158.212 162.833 163.751 157.555 163.751 156.572 158.176 161.888 158 161.72 164 156 164 157.653 163.964 157.688z" transform="translate(-78 -54) translate(78 54)"/>
                <path fill="#231F20" d="M151.527 153.873L160.024 153.842 160.024 153.842 151.527 153.873z" transform="translate(-78 -54) translate(78 54) rotate(-44.95 155.776 153.857)"/>
                <path fill="#FFF" d="M171 161.138L170.934 161.344 165.232 167 160.093 162.895 160 162.767 165.814 157z" transform="translate(-78 -54) translate(78 54)"/>
                <path fill="#FFF" d="M171 162L171 163.209 165.254 168 165.094 167.867 165.094 167.061 165 167zM164.915 167.036L165 167.104 165 168 160 163.896 160 163z" transform="translate(-78 -54) translate(78 54)"/>
                <path fill="#231F20" d="M165 169l-5-4.683V163l5 4.683V169zm-4.773-4.81l4.531 4.259v-.64l-.036-.03-4.51-4.214.015.625zM170.856 161L166 156.211 166.153 156 166.193 156.041 171 160.782zM165.388 168L165.216 167.829 165.312 167.741 170.751 162.557 170.751 161.572 165.176 166.885 165 166.718 165.07 166.651 171 161 171 162.655 170.964 162.69z" transform="translate(-78 -54) translate(78 54)"/>
                <path fill="#231F20" d="M158.445 159.665L166.945 159.634 166.945 159.635 158.445 159.665z" transform="translate(-78 -54) translate(78 54) rotate(-45.05 162.695 159.65)"/>
                <path fill="#FFF" d="M158 136.14L157.937 136.346 152.232 142 147.093 137.896 147 137.762 152.817 132z" transform="translate(-78 -54) translate(78 54)"/>
                <path fill="#FFF" d="M157 136L157 137.209 151.247 142 151.09 141.867 151.09 141.061 151 141z" transform="translate(-78 -54) translate(78 54)"/>
                <path fill="#FFF" d="M151.918 142.036L152 142.104 152 143 147 138.896 147 138z" transform="translate(-78 -54) translate(78 54)"/>
                <path fill="#231F20" d="M152 143l-5-4.683V137l5 4.686V143zm-4.774-4.81l4.548 4.262v-.64l-.037-.034-4.51-4.216v.629zM156.855 136L152 131.221 152.141 131 152.181 131.038 157 135.782z" transform="translate(-78 -54) translate(78 54)"/>
                <path fill="#231F20" d="M151.388 143L151.212 142.833 156.751 137.555 156.751 136.572 151.176 141.888 151 141.72 157 136 157 137.653 156.964 137.691z" transform="translate(-78 -54) translate(78 54)"/>
                <path fill="#231F20" d="M145.011 135.253L153.508 135.222 153.508 135.223 145.011 135.254z" transform="translate(-78 -54) translate(78 54) rotate(-44.95 149.26 135.238)"/>
                <path fill="#FFF" d="M165 141.138L164.937 141.344 159.234 147 154.093 142.895 154 142.767 159.813 137zM165 144L165 145.209 159.251 150 159.09 149.87 159.09 149.061 159 149zM157.918 149.034L158 149.101 158 150 153 145.896 153 145z" transform="translate(-78 -54) translate(78 54)"/>
                <path fill="#231F20" d="M157.994 150L153 145.315V144l5 4.685-.006 1.315zm-4.774-4.815l4.548 4.263v-.64l-.037-.031-4.51-4.218v.626zM163.856 142L159 137.21 159.153 137 159.19 137.041 164 141.778zM159.388 150L159.216 149.829 159.312 149.741 164.751 144.557 164.751 143.575 159.179 148.888 159 148.721 165 143 165 144.655 164.964 144.69z" transform="translate(-78 -54) translate(78 54)"/>
                <path fill="#231F20" d="M151.978 140.846L160.478 140.815 160.478 140.816 151.978 140.846z" transform="translate(-78 -54) translate(78 54) rotate(-45.05 156.228 140.83)"/>
                <path fill="#FFF" d="M172 148.14L171.94 148.346 166.234 154 161.089 149.896 161 149.765 166.816 144z" transform="translate(-78 -54) translate(78 54)"/>
                <path fill="#FFF" d="M172 148L172 149.209 166.247 154 166.09 153.867 166.09 153.061 166 153zM165.918 155.036L166 155.104 166 156 161 151.896 161 151z" transform="translate(-78 -54) translate(78 54)"/>
                <path fill="#231F20" d="M166 156l-5-4.686V150l5 4.683V156zm-4.774-4.813l4.548 4.265v-.64l-.04-.031-4.508-4.215v.621zM171.855 149L167 144.222 167.141 144 167.178 144.034 172 148.782z" transform="translate(-78 -54) translate(78 54)"/>
                <path fill="#231F20" d="M165.388 155L165.212 154.833 170.752 149.557 170.752 148.575 165.176 153.888 165 153.721 171 148 171 149.655 170.964 149.69z" transform="translate(-78 -54) translate(78 54)"/>
                <path fill="#231F20" d="M158.96 146.384L167.457 146.353 167.457 146.354 158.96 146.385z" transform="translate(-78 -54) translate(78 54) rotate(-44.95 163.209 146.369)"/>
                <path fill="#FFF" d="M177 154.138L176.937 154.341 171.234 160 166.093 155.892 166 155.764 171.813 150z" transform="translate(-78 -54) translate(78 54)"/>
                <path fill="#FFF" d="M178 154L178 155.211 172.251 160 172.09 159.867 172.09 159.061 172 159zM171.918 159.037L172 159.104 172 160 167 155.899 167 155z" transform="translate(-78 -54) translate(78 54)"/>
                <path fill="#231F20" d="M172 161l-5-4.683V155l5 4.683V161zm-4.774-4.81l4.548 4.262v-.64l-.037-.034-4.51-4.216v.629zM177.856 154L173 149.214 173.153 149 173.19 149.045 178 153.782zM172.388 161L172.216 160.829 172.312 160.741 177.751 155.554 177.751 154.572 172.179 159.885 172 159.718 178 154 178 155.652 177.964 155.687z" transform="translate(-78 -54) translate(78 54)"/>
                <path fill="#231F20" d="M165.881 152.178L174.377 152.147 174.377 152.147 165.881 152.178z" transform="translate(-78 -54) translate(78 54) rotate(-45.05 170.129 152.163)"/>
                <path fill="#FFF" d="M136 196L136 197.079 128.081 206 128 205.908 128 205.016z" transform="translate(-78 -54) translate(78 54)"/>
                <path fill="#FFF" d="M136 196.182L136 196.36 127.277 205 127.277 204.948 122.095 200.809 122 200.679 130.759 192z" transform="translate(-78 -54) translate(78 54)"/>
                <path fill="#FFF" d="M128 205.153L128 206 123 201.896 123 201 128 205.101z" transform="translate(-78 -54) translate(78 54)"/>
                <path fill="#231F20" d="M128 207l-5-4.686V201l5 4.683V207zm-4.773-4.813l4.531 4.261v-.639l-4.531-4.257v.635zM135.858 196L131 191.207 131.151 191 131.187 191.041 136 195.782z" transform="translate(-78 -54) translate(78 54)"/>
                <path fill="#231F20" d="M120.358 196.157L133.135 196.111 133.135 196.111 120.358 196.158z" transform="translate(-78 -54) translate(78 54) rotate(-44.95 126.746 196.134)"/>
                <path fill="#231F20" d="M125.755 200.693L138.351 200.647 138.351 200.648 125.755 200.694z" transform="translate(-78 -54) translate(78 54) rotate(-44.95 132.053 200.67)"/>
                <path fill="#231F20" d="M128.156 206L128 205.814 128.076 205.722 135.779 196.518 135.779 195 136 195 136 196.627 135.968 196.666z" transform="translate(-78 -54) translate(78 54)"/>
                <path fill="#FFF" d="M163.969 169.339L164 169.5 138.619 194 138.619 193.946 133.101 189.651 133 189.516 158.136 165.25 158.388 165z" transform="translate(-78 -54) translate(78 54)"/>
                <path fill="#FFF" d="M164 168L163.971 169.122 141.089 194 141 193.904 141 192.998zM138 193.153L138 194 133 189.899 133 189 138 193.101z" transform="translate(-78 -54) translate(78 54)"/>
                <path fill="#231F20" d="M138 195l-5-4.683V189l5 4.683V195zm-4.773-4.81l4.534 4.258v-.639l-4.534-4.257v.639z" transform="translate(-78 -54) translate(78 54)"/>
                <path fill="#231F20" d="M133.184 190L133 189.82 158.021 165.334 158.351 165 164 169.449 163.837 169.65 158.372 165.344 158.205 165.511z" transform="translate(-78 -54) translate(78 54)"/>
                <path fill="#231F20" d="M140.17 195L140 194.811 140.092 194.716 163.718 169.413 163.738 168.652 140.174 193.885 140 193.699 164 168 163.961 169.522 163.928 169.561z" transform="translate(-78 -54) translate(78 54)"/>
                <g fill="#231F20" opacity=".15">
                    <path d="M13.87 0.067L20.427 2.723 46.757 13.387 33.097 27.734 6.767 17.066 0.21 14.413z" transform="translate(-78 -54) translate(78 54) translate(172 120)"/>
                </g>
                <path fill="#FFF" d="M218 133.206L206.299 145s-9.66-11.033-19.299-15.299c0 0 8.41-.24 11.828-3.897 1.615-1.721 2.113-4.217.082-7.804 9.567 4.33 19.09 15.206 19.09 15.206z" transform="translate(-78 -54) translate(78 54)"/>
                <path fill="#898684" d="M207 144l-26.421-9.898-6.579-2.465 2.007-1.966c3.408-2.462 7.735-1.949 12.067-.107C197.538 133.589 207 144 207 144z" transform="translate(-78 -54) translate(78 54)"/>
                <path fill="#FFF" d="M200.683 119.64c2.004 3.383 1.512 5.734-.08 7.36-4.756-3.14-10.023-5.535-14.603-5.087l.286-.276c3.681-4.635 9.046-4.301 14.397-1.987v-.01z" transform="translate(-78 -54) translate(78 54)"/>
                <path fill="#FFF" d="M199 125.187c-3.252 3.476-11.266 3.705-11.266 3.705-4.228-1.866-8.42-2.373-11.734.108l8.901-8.946c4.424-.451 9.51 1.964 14.099 5.133z" transform="translate(-78 -54) translate(78 54)"/>
                <path fill="#231F20" d="M208 144l-34-13.046.105-.131c.59-.78 1.287-1.473 2.07-2.062 3.11-2.3 7.26-2.353 12.328-.124 9.468 4.129 19.057 14.865 19.155 14.976L208 144zm-33.59-13.157l32.697 12.542c-1.826-1.974-10.326-10.858-18.709-14.516-4.97-2.182-9.028-2.135-12.072.094-.72.54-1.364 1.172-1.917 1.88z" transform="translate(-78 -54) translate(78 54)"/>
                <path fill="#231F20" d="M204.698 139.137L220.94 139.078 220.94 139.079 204.698 139.138z" transform="translate(-78 -54) translate(78 54) rotate(-44.95 212.819 139.108)"/>
                <path fill="#231F20" d="M217.804 133c-.094-.1-9.494-10.154-18.806-14.136-6.278-2.677-11.076-2.03-14.262 1.923l-.296.286-11.261 10.715-.179-.17 11.55-10.984c3.254-4.047 8.157-4.72 14.556-1.988 4.895 2.09 9.777 5.841 13 8.618 2.062 1.764 4.03 3.626 5.894 5.579l-.196.157z" transform="translate(-78 -54) translate(78 54)"/>
                <path fill="#231F20" d="M199.849 126c-5.427-3.486-10.09-5.078-13.849-4.725v-.226c3.808-.357 8.521 1.247 14 4.764l-.151.187z" transform="translate(-78 -54) translate(78 54)"/>
                <path fill="#231F20" d="M189 130v-.26c.083 0 8.158-.285 11.406-3.89 1.768-1.96 1.788-4.557.063-7.721l.215-.129c1.785 3.275 1.755 5.974-.096 8.027-1.738 1.93-4.797 2.907-7.056 3.386-1.494.316-3.01.512-4.532.587z" transform="translate(-78 -54) translate(78 54)"/>
                <g opacity=".84">
                    <path fill="#55DFFF" d="M65.513 17.724L30.07 51.49 55.697 24.987z" transform="translate(-78 -54) translate(78 54) translate(34 3)"/>
                    <path fill="#52AAFF" d="M65.513 17.724L55.697 24.987 50.323 7.716z" transform="translate(-78 -54) translate(78 54) translate(34 3)"/>
                    <path fill="#55DFFF" d="M65.513 17.724L50.323 7.716 51.417 4.636zM50.323 7.716L55.697 24.987 37.973 10.578z" transform="translate(-78 -54) translate(78 54) translate(34 3)"/>
                    <path fill="#52AAFF" d="M55.697 24.987L30.07 51.49 27.047 28.063z" transform="translate(-78 -54) translate(78 54) translate(34 3)"/>
                    <path fill="#52AAFF" d="M55.697 24.987L27.047 28.063 37.973 10.578zM51.417 4.636L50.323 7.716 37.973 10.578 23.113 9.477 14.59 5.297 16.01 2.328 29.013.127 41.8 1.228z" transform="translate(-78 -54) translate(78 54) translate(34 3)"/>
                    <path fill="#55DFFF" d="M37.973 10.578L27.047 28.063 23.113 9.477zM27.047 28.063L30.07 51.49 3.227 20.803z" transform="translate(-78 -54) translate(78 54) translate(34 3)"/>
                    <path fill="#52AAFF" d="M23.113 9.477L27.047 28.063 3.227 20.803z" transform="translate(-78 -54) translate(78 54) translate(34 3)"/>
                    <path fill="#55DFFF" d="M23.113 9.477L3.227 20.803 14.59 5.297zM16.01 2.328L14.59 5.297.383 12.886z" transform="translate(-78 -54) translate(78 54) translate(34 3)"/>
                    <path fill="#52AAFF" d="M14.59 5.297L3.227 20.803 0.383 12.886z" transform="translate(-78 -54) translate(78 54) translate(34 3)"/>
                    <path fill="#231F20" d="M30.063 51.665l-.086-.098-26.86-30.7-2.884-8.031L16 2.204 29 0h.017l12.816 1.107L51.5 4.54 65.697 17.72l-.097.09-35.537 33.855zM3.333 20.74l26.74 30.569 35.26-33.585L51.35 4.747l-9.577-3.405L29.02.245 16.057 2.449.533 12.936l2.8 7.804z" transform="translate(-78 -54) translate(78 54) translate(34 3)"/>
                    <path fill="#231F20" d="M37.983 10.705L37.963 10.702 23.08 9.602 23.06 9.591 14.423 5.354 15.897 2.275 16.123 2.382 14.757 5.24 23.147 9.353 37.963 10.45 50.23 7.609 51.3 4.593 51.533 4.68 50.417 7.823z" transform="translate(-78 -54) translate(78 54) translate(34 3)"/>
                    <path fill="#231F20" d="M27 28.392l-.05-.228L3.03 20.87 14.173 5.666l-13.73 7.33-.12-.22 14.694-7.848L3.683 20.404 23.2 9.283l3.903 18.451L37.943 10.4l.11.09 17.4 14.148L50.1 7.418l15.633 10.299-9.89 7.317.097.312-.28-.228-28.54 3.063-.12.211zm11-17.626L27.29 27.912l28.093-3.02L38 10.767zm-34.457 10l23.334 7.116-3.85-18.21L3.543 20.766zm47-12.748l5.217 16.774 9.53-7.045-14.747-9.729z" transform="translate(-78 -54) translate(78 54) translate(34 3)"/>
                    <path fill="#231F20" d="M29.98 51.765L26.923 28.08 27.17 28.046 30.16 51.215 55.607 24.9 55.787 25.074z" transform="translate(-78 -54) translate(78 54) translate(34 3)"/>
                </g>
                <path fill="url(#fa0vpy23qa)" d="M50.04 55.995L40 5l49 1.047-8.42 48.917s-1.837 7.75-15.383 6.982c-13.15-.768-15.157-5.951-15.157-5.951z" opacity=".5" style="mix-blend-mode:overlay" transform="translate(-78 -54) translate(78 54)"/>
                <path fill="#9881EE" style="mix-blend-mode:color" d="M1 0H220V247H1z" transform="translate(-78 -54) translate(78 54)"/>
            </g>
        </g>
    </g>
</svg>
