<svg xmlns="http://www.w3.org/2000/svg" width="48.479" height="55.405" viewBox="0 0 48.479 55.405">
    <path id="Icon_awesome-calculator" fill="#bf9931" d="M43.285 0H5.194A5.326 5.326 0 0 0 0 5.194v45.017a5.326 5.326 0 0 0 5.194 5.194h38.091a5.326 5.326 0 0 0 5.194-5.194V5.194A5.326 5.326 0 0 0 43.285 0zM13.851 47.094a1.49 1.49 0 0 1-1.385 1.385H8.311a1.49 1.49 0 0 1-1.385-1.385v-4.155a1.49 1.49 0 0 1 1.385-1.385h4.155a1.49 1.49 0 0 1 1.385 1.385zm0-13.851a1.49 1.49 0 0 1-1.385 1.385H8.311a1.49 1.49 0 0 1-1.385-1.385v-4.155A1.49 1.49 0 0 1 8.311 27.7h4.155a1.49 1.49 0 0 1 1.385 1.385zM27.7 47.094a1.49 1.49 0 0 1-1.385 1.385h-4.153a1.49 1.49 0 0 1-1.385-1.385v-4.155a1.49 1.49 0 0 1 1.385-1.385h4.155a1.49 1.49 0 0 1 1.383 1.385zm0-13.851a1.49 1.49 0 0 1-1.385 1.385h-4.153a1.49 1.49 0 0 1-1.385-1.385v-4.155a1.49 1.49 0 0 1 1.385-1.388h4.155a1.49 1.49 0 0 1 1.383 1.388zm13.854 13.851a1.49 1.49 0 0 1-1.385 1.385h-4.156a1.49 1.49 0 0 1-1.385-1.385V29.088a1.49 1.49 0 0 1 1.385-1.388h4.155a1.49 1.49 0 0 1 1.385 1.385zm0-27.7a1.49 1.49 0 0 1-1.385 1.385H8.311a1.49 1.49 0 0 1-1.385-1.385V8.311a1.49 1.49 0 0 1 1.385-1.385h31.858a1.49 1.49 0 0 1 1.385 1.385z" data-name="Icon awesome-calculator"/>
</svg>
