<svg xmlns="http://www.w3.org/2000/svg" width="18" height="16" viewBox="0 0 18 16">
  <g id="cam" transform="translate(-11.24 -12.048)">
    <path id="Path" d="M13.9,2.877l-.09-.2c-.243-.506-.522-1.092-.693-1.43a2.2,2.2,0,0,0-2-1.252H6.876A2.187,2.187,0,0,0,4.887,1.252c-.18.355-.486.994-.738,1.518l-.054.107a.177.177,0,0,1-.171.107A3.9,3.9,0,0,0,0,6.855v5.274A3.9,3.9,0,0,0,3.924,16H14.076A3.907,3.907,0,0,0,18,12.129V6.855a3.907,3.907,0,0,0-3.924-3.871A.205.205,0,0,1,13.9,2.877Z" transform="translate(11.24 12.048)" fill="#d7a81e" opacity="0.4"/>
    <path id="Combined_Shape" data-name="Combined Shape" d="M.931,6.782A4.01,4.01,0,0,1-.24,3.952,3.945,3.945,0,0,1,.92,1.133,4,4,0,1,1,6.579,6.782,3.961,3.961,0,0,1,3.76,7.952,4.01,4.01,0,0,1,.931,6.782ZM2,2.212a2.376,2.376,0,0,0-.712,1.73v.01A2.466,2.466,0,0,0,3.76,6.426,2.49,2.49,0,0,0,6.233,3.952,2.476,2.476,0,0,0,2,2.212ZM7.76.958a1,1,0,1,1,.995.995A.99.99,0,0,1,7.76.958Z" transform="translate(16.24 17.048)" fill="#d7a81e"/>
  </g>
</svg>
