<svg width="65" height="99" viewBox="0 0 65 99" fill="none" xmlns="http://www.w3.org/2000/svg">
<g opacity="0.05">
<path d="M-2.93994 94.6525C-1.12994 95.4125 0.710059 96.0525 2.58006 96.5825L62.8301 36.3325C62.3001 34.4625 61.6601 32.6225 60.9001 30.8125L-2.93994 94.6525Z" fill="#FFC263"/>
<path d="M-10.73 90.5225C-9.18998 91.5325 -7.60998 92.4325 -5.99998 93.2425L59.49 27.7525C58.68 26.1325 57.78 24.5525 56.77 23.0225L-10.73 90.5225Z" fill="#FFC263"/>
<path d="M-17.3999 85.2525C-16.0999 86.4725 -14.7499 87.6125 -13.3599 88.6625L54.9101 20.3925C53.8601 19.0025 52.7201 17.6525 51.5001 16.3525L-17.3999 85.2525Z" fill="#FFC263"/>
<path d="M0.180019 3.52246C-6.66998 5.85246 -13.1 9.74246 -18.56 15.1925C-24.02 20.6525 -27.9 27.0825 -30.23 33.9325L0.180019 3.52246Z" fill="#FFC263"/>
<path d="M63.74 59.3025C64.29 56.5325 64.6 53.7325 64.67 50.9225L17.17 98.4225C19.98 98.3525 22.79 98.0425 25.55 97.4925L63.74 59.3025Z" fill="#FFC263"/>
<path d="M6.19006 97.4625C8.37006 97.9025 10.5601 98.1925 12.7701 98.3325L64.5801 46.5225C64.4401 44.3125 64.1501 42.1125 63.7101 39.9425L6.19006 97.4625Z" fill="#FFC263"/>
<path d="M-27.6299 71.6126C-26.8199 73.2326 -25.9199 74.8126 -24.9099 76.3426L42.5901 8.84256C41.0501 7.83256 39.4701 6.93256 37.8601 6.12256L-27.6299 71.6126Z" fill="#FFC263"/>
<path d="M-31.8799 40.0625C-32.4299 42.8325 -32.7399 45.6325 -32.8099 48.4425L14.6901 0.942505C11.8801 1.0125 9.07006 1.3225 6.31006 1.8725L-31.8799 40.0625Z" fill="#FFC263"/>
<path d="M31.6801 95.8425C38.5301 93.5125 44.9601 89.6225 50.4201 84.1725C55.8801 78.7125 59.7601 72.2825 62.0901 65.4325L31.6801 95.8425Z" fill="#FFC263"/>
<path d="M-30.97 63.0225C-30.44 64.8925 -29.8 66.7325 -29.04 68.5425L34.8 4.70246C32.99 3.94246 31.15 3.30246 29.28 2.77246L-30.97 63.0225Z" fill="#FFC263"/>
<path d="M-32.72 52.8425C-32.58 55.0525 -32.29 57.2525 -31.85 59.4225L25.67 1.90247C23.49 1.46247 21.3 1.17247 19.09 1.03247L-32.72 52.8425Z" fill="#FFC263"/>
<path d="M-23.0499 78.9725C-21.9999 80.3625 -20.8599 81.7125 -19.6399 83.0125L49.2701 14.1025C47.9701 12.8825 46.6201 11.7425 45.2301 10.6925L-23.0499 78.9725Z" fill="#FFC263"/>
</g>
</svg>
