<svg xmlns="http://www.w3.org/2000/svg" width="15.4" height="19" viewBox="0 0 15.4 19">
  <g id="bxs-coin-stack" transform="translate(0.5 0.5)">
    <path id="Path" d="M7.2,7.2c3.578,0,7.2-1.237,7.2-3.6S10.778,0,7.2,0,0,1.237,0,3.6,3.622,7.2,7.2,7.2Z" fill="none" stroke="#7e9195" stroke-width="1"/>
    <path id="Path-2" data-name="Path" d="M0,1.8C0,4.163,3.622,5.4,7.2,5.4s7.2-1.237,7.2-3.6V0c0,2.363-3.622,3.6-7.2,3.6S0,2.363,0,0Z" transform="translate(0 5.4)" fill="none" stroke="#7e9195" stroke-width="1"/>
    <path id="Path-3" data-name="Path" d="M0,1.8C0,4.163,3.622,5.4,7.2,5.4s7.2-1.237,7.2-3.6V0c0,2.363-3.622,3.6-7.2,3.6S0,2.363,0,0Z" transform="translate(0 9)" fill="none" stroke="#7e9195" stroke-width="1"/>
    <path id="Path-4" data-name="Path" d="M0,1.8C0,4.163,3.622,5.4,7.2,5.4s7.2-1.237,7.2-3.6V0c0,2.363-3.622,3.6-7.2,3.6S0,2.363,0,0Z" transform="translate(0 12.6)" fill="none" stroke="#7e9195" stroke-width="1"/>
  </g>
</svg>
