<svg width="138" height="138" viewBox="0 0 138 138" fill="none" xmlns="http://www.w3.org/2000/svg">
<circle opacity="0.797138" cx="69" cy="69" r="69" fill="#030C42"/>
<path d="M37.8334 102C37.3641 102 36.895 101.821 36.537 101.463C35.821 100.747 35.821 99.5861 36.537 98.8701L39.8702 95.537C40.5862 94.821 41.747 94.821 42.463 95.537C43.179 96.2529 43.179 97.4138 42.463 98.1298L39.1298 101.463C38.7717 101.821 38.3025 102 37.8334 102Z" fill="#00429D"/>
<path d="M37 101.448C37.3851 101.815 37.8799 102 38.3758 102C38.8865 102 39.3975 101.805 39.7872 101.415L43.4162 97.7869C44.1843 97.019 44.1939 95.7817 43.4484 95L37 101.448Z" fill="#00347B"/>
<path d="M36.0395 88.7362C36.3214 88.049 36.7399 87.4055 37.2954 86.848L38.6675 85.4711L41.2741 85.3861L41.4054 82.7235L44.1186 80.0006L46.1645 79.7207L46.8209 77.2887L49.5998 74.4999C49.5998 74.4999 52.9044 72.4088 53.6573 73.1647L64.838 84.3851C65.591 85.1407 63.4747 88.4899 63.4747 88.4899L60.7395 91.2348L58.325 91.5127L58.0153 93.9688L55.3075 96.6862L53.1419 96.7142L52.5587 99.4448L51.203 100.805C50.6935 101.317 50.1121 101.712 49.4909 101.993C48.7371 102.333 35.1768 90.8394 36.0395 88.7362Z" fill="#7DD5F4"/>
<path d="M59.2777 79L42 95.4422C45.4214 98.429 49.1035 101.157 49.4863 100.993C50.1076 100.727 50.6894 100.352 51.1988 99.8668L52.555 98.5763L53.1384 95.9861L55.3046 95.9596L58.0132 93.3819L58.323 91.0522L60.7382 90.7886L63.4742 88.1849C63.4742 88.1849 65.5912 85.008 64.8379 84.2913L59.2777 79Z" fill="#4793FF"/>
<path d="M44.3997 79.7789L47.1408 77.0915L61.1207 90.7973L58.3796 93.4847L44.3997 79.7789Z" fill="#4793FF"/>
<path d="M53.8742 73.535C53.161 72.8215 52.0046 72.8218 51.2911 73.535L50 74.8262L63.1739 88L64.465 86.7088C65.1783 85.9956 65.1783 84.839 64.465 84.1257L53.8742 73.535Z" fill="#4793FF"/>
<path d="M36.5716 88C35.607 90.0018 35.8632 92.4478 37.3404 94.2132L43.7867 100.659C44.8546 101.552 46.1713 102 47.4888 102C48.3493 102 49.2092 101.808 50 101.427L36.5716 88Z" fill="#4793FF"/>
<path d="M38.9166 85.1536L41.6578 82.4661L55.6378 96.172L52.8966 98.8594L38.9166 85.1536Z" fill="#4793FF"/>
<path d="M101.054 81C100.565 81 100.076 80.8322 99.6979 80.4949C95.412 76.6727 89.7592 74.5679 83.7805 74.5679C78.8858 74.5679 74.0311 76.0479 70.1107 78.7352C69.2502 79.3252 68.0309 79.1638 67.3874 78.3746C66.7441 77.5855 66.9201 76.4677 67.7807 75.8777C72.3692 72.7323 78.0514 71 83.7805 71C90.7782 71 97.3946 73.4638 102.411 77.9372C103.181 78.6241 103.198 79.7535 102.449 80.4598C102.068 80.8193 101.561 81 101.054 81Z" fill="#CA75F5"/>
<path d="M59.1297 70C58.7179 70 58.3026 69.8813 57.9455 69.6351C57.0561 69.0216 56.866 67.8488 57.5209 67.0156C59.143 64.952 60.0003 62.5064 60.0003 59.9435C60.0003 54.83 56.5272 50.2907 51.358 48.6481C50.3121 48.3158 49.7517 47.2521 50.1065 46.2722C50.4614 45.2923 51.5968 44.7674 52.6427 45.0998C59.4358 47.2584 64 53.2236 64 59.9436C64 63.3116 62.8733 66.5253 60.7416 69.2373C60.3496 69.736 59.7437 70 59.1297 70Z" fill="#FDBF00"/>
<path d="M72.9592 60C72.4578 60 71.9563 59.817 71.5739 59.4513C70.8087 58.7198 70.8087 57.5337 71.5739 56.8022C73.4412 55.0169 76.0128 54.5728 78.2818 54.181C80.1504 53.8583 81.9155 53.5536 82.9155 52.5975C83.9152 51.6416 84.2342 49.954 84.5717 48.1673C84.9814 45.998 85.4459 43.5391 87.3132 41.7539C89.6123 39.5559 92.6517 38.8453 95.5912 38.1582C96.9279 37.8456 98.1906 37.5504 99.3319 37.1273C100.341 36.753 101.476 37.232 101.867 38.1967C102.258 39.1613 101.757 40.2464 100.748 40.6204C99.3692 41.1318 97.9217 41.4702 96.5218 41.7974C93.9948 42.3882 91.6078 42.9462 90.084 44.403C89.0841 45.3591 88.7652 47.0467 88.4276 48.8333C88.0179 51.0027 87.5534 53.4615 85.6863 55.2466C83.819 57.0319 81.2474 57.476 78.9783 57.8678C77.1097 58.1905 75.3446 58.4952 74.3446 59.4513C73.9619 59.817 73.4605 60 72.9592 60Z" fill="#FF8856"/>
<path d="M79.7302 43.338C80.7951 43.338 81.6635 42.4784 81.6635 41.4244C81.6635 40.3706 80.7951 39.5109 79.7302 39.5109C78.6653 39.5109 77.7969 40.3706 77.7969 41.4244C77.7969 42.4783 78.6653 43.338 79.7302 43.338Z" fill="#BEE75E"/>
<path d="M42.9297 63.4866C43.9946 63.4866 44.863 62.627 44.863 61.573C44.863 60.519 43.9946 59.6594 42.9297 59.6594C41.8648 59.6594 40.9963 60.519 40.9963 61.573C40.9963 62.627 41.8648 63.4866 42.9297 63.4866Z" fill="#D98FF8"/>
<path d="M40.9347 42.8278C41.9996 42.8278 42.868 41.9682 42.868 40.9142C42.868 39.8602 41.9994 39.0006 40.9347 39.0006C39.8698 39.0006 39.0013 39.8602 39.0013 40.9142C39.0013 41.9681 39.8698 42.8278 40.9347 42.8278Z" fill="#7DD5F4"/>
<path d="M83.7258 83.3955C84.7907 83.3955 85.6591 82.5359 85.6591 81.4819C85.6591 80.4279 84.7907 79.5684 83.7258 79.5684C82.6609 79.5684 81.7925 80.4279 81.7925 81.4819C81.7925 82.5359 82.6609 83.3955 83.7258 83.3955Z" fill="#FF8856"/>
<path d="M94.9391 100.873C96.004 100.873 96.8724 100.013 96.8724 98.9594C96.8724 97.9054 96.004 97.0458 94.9391 97.0458C93.8742 97.0458 93.0057 97.9054 93.0057 98.9594C93.0057 100.013 93.8742 100.873 94.9391 100.873Z" fill="#4793FF"/>
<path d="M68.7746 98.8319C69.8395 98.8319 70.708 97.9723 70.708 96.9183C70.708 95.8643 69.8394 95.0048 68.7746 95.0048C67.7098 95.0048 66.8413 95.8643 66.8413 96.9183C66.8413 97.9722 67.7098 98.8319 68.7746 98.8319Z" fill="#FF435B"/>
<path d="M69.0262 50C68.9729 50 68.9194 49.9976 68.8652 49.9931C67.8036 49.902 67.0141 48.9355 67.102 47.8344C67.3177 45.1265 66.6747 42.3647 65.2912 40.0577C64.7287 39.1194 65.0058 37.8858 65.9102 37.3021C66.8146 36.7185 68.004 37.006 68.5667 37.9442C70.3847 40.976 71.2298 44.6054 70.9463 48.1638C70.8631 49.2091 70.0194 50 69.0262 50Z" fill="#D98FF8"/>
<path d="M84.8626 64C84.0829 64 83.3562 63.5005 83.096 62.7106C82.7709 61.723 83.2981 60.6555 84.2737 60.3261C88.1719 59.0108 92.3766 58.6656 96.434 59.3278C97.4493 59.4935 98.1397 60.4612 97.976 61.4889C97.8122 62.5166 96.8565 63.2162 95.841 63.0497C92.3746 62.4836 88.7821 62.7788 85.4516 63.9027C85.2564 63.9687 85.0578 64 84.8626 64Z" fill="#FF435B"/>
<path fill-rule="evenodd" clip-rule="evenodd" d="M70 71C71.1016 71 72 70.1016 72 69C72 67.8985 71.1016 67 70 67C68.8984 67 68 67.8984 68 69C68 70.1016 68.8984 71 70 71Z" fill="#7DD5F4"/>
<path fill-rule="evenodd" clip-rule="evenodd" d="M98 51C99.1016 51 100 50.1015 100 49C100 47.8985 99.1016 47 98 47C96.8984 47 96 47.8985 96 49C96 50.1015 96.8984 51 98 51Z" fill="#00CB75"/>
<path d="M81.0908 57.976C82.8592 57.6056 84.6722 57.031 86.0749 55.6536C87.4775 54.2762 88.0627 52.4959 88.4399 50.7595L81.0908 57.976Z" fill="#FF435B"/>
<path d="M101.351 38.0817L97.2472 42.1112C98.3885 41.833 99.5487 41.5287 100.663 41.1043C101.64 40.7322 102.125 39.6527 101.747 38.6933C101.654 38.4587 101.517 38.2533 101.351 38.0817Z" fill="#FF435B"/>
<path fill-rule="evenodd" clip-rule="evenodd" d="M71.4764 68L69 70.4764C69.3182 70.7991 69.7597 71 70.2469 71C71.2125 71 72 70.2124 72 69.2468C72 68.7597 71.7991 68.3182 71.4764 68Z" fill="#4793FF"/>
<path d="M59.7729 78L57 80.8259L64.0395 88L65.4256 86.5872C66.1915 85.8068 66.1915 84.5414 65.4256 83.7609L59.7729 78Z" fill="#525CDD"/>
<path d="M51.4214 86.6638L54.1626 83.9764L61.1206 90.798L58.3794 93.4854L51.4214 86.6638Z" fill="#525CDD"/>
<path d="M45.9382 92.0383L48.6794 89.3509L55.6374 96.1725L52.8962 98.8599L45.9382 92.0383Z" fill="#525CDD"/>
<path d="M41 97.6266L44.0542 100.706C45.0762 101.568 46.3361 102 47.597 102C48.4203 102 49.2432 101.815 50 101.447L43.6053 95L41 97.6266Z" fill="#525CDD"/>
</svg>
