<svg xmlns="http://www.w3.org/2000/svg" width="13.5" height="15" viewBox="0 0 13.5 15">
    <path id="copy" fill="#cbaa4d" d="M16.5 7.2a.982.982 0 0 0-.045-.2v-.065a.8.8 0 0 0-.142-.21l-4.5-4.5a.8.8 0 0 0-.21-.143.24.24 0 0 0-.068 0A.66.66 0 0 0 11.288 2H8.25A2.25 2.25 0 0 0 6 4.25V5h-.75A2.25 2.25 0 0 0 3 7.25v7.5A2.25 2.25 0 0 0 5.25 17h6a2.25 2.25 0 0 0 2.25-2.25V14h.75a2.25 2.25 0 0 0 2.25-2.25V7.2zM12 4.557L13.943 6.5H12.75a.75.75 0 0 1-.75-.75zm0 10.193a.75.75 0 0 1-.75.75h-6a.75.75 0 0 1-.75-.75v-7.5a.75.75 0 0 1 .75-.75H6v5.25A2.25 2.25 0 0 0 8.25 14H12zm3-3a.75.75 0 0 1-.75.75h-6a.75.75 0 0 1-.75-.75v-7.5a.75.75 0 0 1 .75-.75h2.25v2.25A2.25 2.25 0 0 0 12.75 8H15z" transform="translate(-3 -2)"/>
</svg>
