<svg xmlns="http://www.w3.org/2000/svg" width="18" height="18" viewBox="0 0 18 18">
  <g id="Iconly_Light_Home" data-name="Iconly/Light/Home" transform="translate(-1.563 -1.25)">
    <g id="Home" transform="translate(1.563 1.25)">
      <path id="Home-2" data-name="Home" d="M6.307,16.894v-2.76a1.319,1.319,0,0,1,1.349-1.277H10.39a1.319,1.319,0,0,1,1.358,1.277h0V16.9A1.131,1.131,0,0,0,12.887,18H14.71A3.2,3.2,0,0,0,18,14.906h0V7.054a2.161,2.161,0,0,0-.911-1.714L10.855.617a3.138,3.138,0,0,0-3.737,0L.911,5.348A2.144,2.144,0,0,0,0,7.063v7.843A3.2,3.2,0,0,0,3.29,18H5.113a1.142,1.142,0,0,0,1.176-1.106h0" fill="#bf9931"/>
    </g>
  </g>
</svg>
