<svg xmlns="http://www.w3.org/2000/svg" width="138.579" height="90.463" viewBox="0 0 138.579 90.463">
  <g id="fixed_imng" transform="translate(-218 -913.414)">
    <path id="Path_93133" data-name="Path 93133" d="M166.1,223.768l-16.873-1.388h0l-2.466,1.675h0a25.34,25.34,0,0,0-10.08,2.8,15.035,15.035,0,0,0-2.59,1.791h0l-3.032-.551v6.4h0c0,2.7,1.783,5.428,5.35,7.475,7.165,4.148,18.78,4.164,25.953.039a14.641,14.641,0,0,0,2.187-1.551h0V234.1l-8.025-1.434h0l9.561-2.5h0V223.8Z" transform="translate(188.563 756.485)" fill="#f5ebd0"/>
    <path id="Path_93134" data-name="Path 93134" d="M130.47,227.755l.357-.271.217.047,2.8.5a15.135,15.135,0,0,1,2.5-1.714,25.589,25.589,0,0,1,10.119-2.815l2.512-1.706h.178l17.3,1.45v7.095l-.31.116-7.622,1.985,6.4,1.148v6.979l-.124.14a15.212,15.212,0,0,1-2.326,1.605c-7.289,4.195-19.137,4.179-26.41-.039-3.482-2.016-5.428-4.707-5.575-7.591h0v-6.893Zm18.741-5.025-2.5,1.652a24.812,24.812,0,0,0-9.925,2.753,14.476,14.476,0,0,0-2.5,1.737l-.186.155-.24-.054-2.466-.442v5.831c0,2.66,1.822,5.172,5.125,7.087,7.025,4.071,18.462,4.086,25.5,0a14.624,14.624,0,0,0,1.962-1.349v-5.738l-8.01-1.427-.039-.775.357-.1,9.235-2.349V224.1Z" transform="translate(188.695 756.616)" fill="#cbaa4d"/>
    <path id="Path_93135" data-name="Path 93135" d="M149.437,226.726l16.663-4.342a13.888,13.888,0,0,0-5.3-3.931c-7.118-3.249-17.555-2.985-24.092.636-7.428,4.117-7.529,10.933-.279,15.128s18.78,4.172,25.953.039a14.849,14.849,0,0,0,2.171-1.512l-15.112-5.971S149.429,226.726,149.437,226.726Z" transform="translate(188.563 757.877)" fill="#f5ebd0"/>
    <path id="Path_93136" data-name="Path 93136" d="M131.735,222.562a12.879,12.879,0,0,1,4.652-4.032c6.684-3.691,17.214-3.978,24.5-.651a14.492,14.492,0,0,1,5.482,4.063l.14.186-.116.457-.233.085-15.368,4.009,14.058,5.56.109.512-.2.186a16.119,16.119,0,0,1-2.249,1.551c-7.289,4.187-19.137,4.172-26.41-.047-3.637-2.1-5.622-4.924-5.591-7.948A7.265,7.265,0,0,1,131.735,222.562Zm33.435-.582a14.143,14.143,0,0,0-4.691-3.272c-7.048-3.21-17.229-2.939-23.681.628-3.458,1.915-5.374,4.466-5.428,7.18s1.8,5.218,5.133,7.149c7.025,4.071,18.462,4.086,25.5.039a15.385,15.385,0,0,0,1.512-.993L148.778,226.9l.039-.675.326-.085Z" transform="translate(188.688 758.018)" fill="#cbaa4d"/>
    <path id="Path_93137" data-name="Path 93137" d="M169.831,235.755,154.75,229.8h0l5.187,10.15h0a23.5,23.5,0,0,0,7.754-2.66,14.841,14.841,0,0,0,2.14-1.489Z" transform="translate(183.242 754.819)" fill="#f5ebd0"/>
    <path id="Path_93138" data-name="Path 93138" d="M154,229.576l.434-.5.318.14,15.3,6.048.1.535-.2.194a16.127,16.127,0,0,1-2.218,1.551,23.959,23.959,0,0,1-7.917,2.706l-.333.062Zm14.787,6.2-13.236-5.28,4.5,8.785a22.921,22.921,0,0,0,7.281-2.543,15.387,15.387,0,0,0,1.481-.992Z" transform="translate(183.411 754.981)" fill="#cbaa4d"/>
    <path id="Path_93139" data-name="Path 93139" d="M154.75,229.84h0v10.553h0a31.448,31.448,0,0,0,5.215-.435Z" transform="translate(183.242 754.811)" fill="#cbaa4d"/>
    <path id="Path_93140" data-name="Path 93140" d="M169.86,239.73v6.288a14.392,14.392,0,0,0,3.6-2.249l-.186-6.25Z" transform="translate(179.85 753.086)" fill="#cbaa4d"/>
    <path id="Path_93141" data-name="Path 93141" d="M154.124,229.326l.721-.186.163.333,5.428,10.677-.613.1a30.9,30.9,0,0,1-5.3.442h-.457Zm4.955,10.127-4.048-7.917v8.242a32.127,32.127,0,0,0,4.048-.326Z" transform="translate(183.396 754.967)" fill="#cbaa4d"/>
    <path id="Path_93142" data-name="Path 93142" d="M153.683,240.428V229.89h0L150,240.2a32.685,32.685,0,0,0,3.706.233Z" transform="translate(184.31 754.799)" fill="#f5ebd0"/>
    <path id="Path_93143" data-name="Path 93143" d="M153.187,229.22l.775.132v11.383H153.5a34.351,34.351,0,0,1-3.761-.233l-.574-.07Zm-.147,10.592v-7.49l-2.629,7.335C151.295,239.742,152.14,239.8,153.039,239.812Z" transform="translate(184.496 754.949)" fill="#cbaa4d"/>
    <rect id="Rectangle_2148" data-name="Rectangle 2148" width="6.397" height="0.915" transform="translate(342.695 1001.159) rotate(-89.9)" fill="#cbaa4d"/>
    <rect id="Rectangle_2149" data-name="Rectangle 2149" width="6.397" height="0.915" transform="translate(322.873 997.283) rotate(-89.9)" fill="#cbaa4d"/>
    <rect id="Rectangle_2150" data-name="Rectangle 2150" width="6.397" height="0.915" transform="translate(324.939 998.813) rotate(-89.9)" fill="#cbaa4d"/>
    <rect id="Rectangle_2151" data-name="Rectangle 2151" width="6.397" height="0.915" transform="translate(350.246 987.838) rotate(-89.9)" fill="#cbaa4d"/>
    <path id="Path_93144" data-name="Path 93144" d="M166.6,250.106a17.144,17.144,0,0,0,7.3-3.443,2.784,2.784,0,0,0,1.024-1.938l.163-2.125.915.07-.171,2.125a3.66,3.66,0,0,1-1.357,2.582,18.113,18.113,0,0,1-7.7,3.629Z" transform="translate(180.581 751.944)" fill="#cbaa4d"/>
    <rect id="Rectangle_2152" data-name="Rectangle 2152" width="3.466" height="0.915" transform="translate(341.691 1002.971) rotate(-7.94)" fill="#cbaa4d"/>
    <path id="Path_93145" data-name="Path 93145" d="M154.46,212.234a19.718,19.718,0,0,1,7.327.837l-.295.868a18.927,18.927,0,0,0-6.979-.775Z" transform="translate(183.308 758.777)" fill="#cbaa4d"/>
    <rect id="Rectangle_2153" data-name="Rectangle 2153" width="0.915" height="2.846" transform="translate(346.01 973.175) rotate(-68.53)" fill="#cbaa4d"/>
    <path id="Path_93146" data-name="Path 93146" d="M72.41,163.437l.473-20.835h0a56.379,56.379,0,0,0-19.563,2.846h0L72.4,163.437S72.41,163.444,72.41,163.437Z" transform="translate(206.024 774.41)" fill="#f5ebd0"/>
    <path id="Path_93147" data-name="Path 93147" d="M72.156,163.88l-.248-.178L52.6,145.48l.14-.574.287-.078a56.6,56.6,0,0,1,19.7-2.838h.481v.488l-.473,21.153ZM54.073,145.511l17.71,16.694.442-19.269a56.037,56.037,0,0,0-18.152,2.574Z" transform="translate(206.186 774.549)" fill="#cbaa4d"/>
    <path id="Path_93148" data-name="Path 93148" d="M77.991,174.714l24.278-14.531h0c-6.529-3.955-15.12-6.048-23.836-6.273h0l-.473,20.843Z" transform="translate(200.49 771.864)" fill="#f5ebd0"/>
    <path id="Path_93149" data-name="Path 93149" d="M77.856,175.125l-.5-.287v-.287l.481-21.331h.5c9.181.24,17.733,2.489,24.092,6.343l.24.147v.551l-.24.163Zm.946-20.936-.442,19.478,22.828-13.639c-6.025-3.489-13.934-5.536-22.424-5.823Z" transform="translate(200.625 772.02)" fill="#cbaa4d"/>
    <path id="Path_93150" data-name="Path 93150" d="M77.94,176.523v16.625h0l24.285-13.624V162h0L77.987,176.515Z" transform="translate(200.494 770.047)" fill="#cbaa4d"/>
    <path id="Path_93151" data-name="Path 93151" d="M77.856,193.546l-.5-.287V176.046l.271-.14,24.526-14.686.512.271v18.1l-.2.163Zm.457-16.919v15.508l23.316-13.089v-16.4Z" transform="translate(200.625 770.223)" fill="#cbaa4d"/>
    <path id="Path_93152" data-name="Path 93152" d="M112.024,208.315V192.14l-33.962.628L78,213.572h.078L85.421,232.5h0a46,46,0,0,0,16.283-5.335c6.537-3.768,9.917-8.4,10.22-13.337v-.256S112.048,208.7,112.024,208.315Z" transform="translate(200.48 763.277)" fill="#f5ebd0"/>
    <path id="Path_93153" data-name="Path 93153" d="M85.184,232.868l-.295-.178-.07-.163L77.6,213.917h-.24l.047-21.711.434-.07,34.521-.636v22.238c-.318,5.2-3.931,9.941-10.46,13.709a46.678,46.678,0,0,1-16.5,5.428Zm-6.839-19.734.047.109,7.2,18.61a45.484,45.484,0,0,0,15.772-5.218c6.2-3.6,9.677-8.072,9.972-12.941V192.539l-32.993.6Z" transform="translate(200.625 763.421)" fill="#150035"/>
    <path id="Path_93154" data-name="Path 93154" d="M114.084,213.832v-.256s.054-4.87,0-5.3V192.16h0l-7.273.14h0C101.2,196.58,89.5,205.636,89.45,205.683h0L87.5,211.8h0l-.023,20.556.047.124h0a46.051,46.051,0,0,0,16.283-5.335C110.37,223.4,113.781,218.772,114.084,213.832Z" transform="translate(198.352 763.273)" fill="#cbaa4d"/>
    <path id="Path_93155" data-name="Path 93155" d="M87.09,232.891l-.24-.667.047-20.788.062-.062,1.946-6.118.085-.085c.14-.116,11.864-9.188,17.415-13.43l.178-.1h.124l7.754-.14v22.262c-.326,5.211-3.939,9.956-10.46,13.725a46.523,46.523,0,0,1-16.5,5.389Zm.775-21.176L87.819,231.8a45.447,45.447,0,0,0,15.64-5.2c6.2-3.6,9.677-8.072,9.979-12.941V192.5l-6.63.124c-5.311,4.055-15.9,12.244-17.121,13.182Z" transform="translate(198.493 763.421)" fill="#cbaa4d"/>
    <path id="Path_93156" data-name="Path 93156" d="M78,188.773l7.374,19.005h0a45.9,45.9,0,0,0,16.283-5.335c13.484-7.754,13.686-20.323.62-28.263h0L78,188.726Z" transform="translate(200.48 767.312)" fill="#f5ebd0"/>
    <path id="Path_93157" data-name="Path 93157" d="M84.928,208.129l-.14-.4L77.36,188.6l.078-.326L102.25,173.43l.271.171c6.413,3.877,9.917,9.049,9.863,14.5s-3.8,10.724-10.514,14.6a46.524,46.524,0,0,1-16.5,5.428Zm-6.444-19.385,7.126,18.3a45.338,45.338,0,0,0,15.764-5.218c6.4-3.7,9.964-8.584,10.026-13.756.054-5.025-3.195-9.809-9.165-13.507Z" transform="translate(200.625 767.479)" fill="#cbaa4d"/>
    <path id="Path_93158" data-name="Path 93158" d="M74.871,226.478l-5.932-7.359h0l-1.419-3.668h0L44.3,202.053v-.884H42.746L41.6,200.51h0c-.372.217-.775.442-1.093.667l-9.165,5.56h0v8.025c0,5.2,3.4,10.414,10.274,14.376,9.018,5.211,21.711,6.979,33.265,5.335h0v-7.994Z" transform="translate(210.961 761.397)" fill="#f5ebd0"/>
    <path id="Path_93159" data-name="Path 93159" d="M66.159,235.428c-9.25,0-18.168-2.117-24.945-5.994s-10.545-9.188-10.514-14.8v-8.343l.271-.147,9.134-5.544c.357-.217.721-.45,1.1-.667l.116-.07h.264l1.163.667h1.869v1.093l23.068,13.337.078.07v.1l1.4,3.629,5.994,7.4V234.2l.062.14-.248.442h-.248a60.911,60.911,0,0,1-8.568.644ZM31.708,206.862v7.754c0,5.249,3.536,10.2,10.026,13.957,8.452,4.877,20.881,6.9,32.567,5.327v-7.366l-5.9-7.351-1.372-3.536L43.765,202.194v-.682H42.5l-.109-.054-.93-.535-.837.512Z" transform="translate(211.105 761.543)" fill="#cbaa4d"/>
    <path id="Path_93160" data-name="Path 93160" d="M61.61,238.412A59.891,59.891,0,0,0,79,239.1V228.247l-3.83-4.753h0l-.938-2.4H61.61Z" transform="translate(204.162 756.776)" fill="#cbaa4d"/>
    <path id="Path_93161" data-name="Path 93161" d="M72.522,239.8a60.111,60.111,0,0,1-11.142-1.031L61,238.72V220.49H74.438l1.031,2.652,3.877,4.823v11.453l-.434.047a62.813,62.813,0,0,1-6.389.333Zm-10.553-1.923a60.078,60.078,0,0,0,16.407.651V228.314l-3.807-4.753-.775-2.094H61.969Z" transform="translate(204.299 756.91)" fill="#cbaa4d"/>
    <path id="Path_93162" data-name="Path 93162" d="M47.47,234.471a41.763,41.763,0,0,0,6.335,2.45V219.7H47.47Z" transform="translate(207.338 757.088)" fill="#cbaa4d"/>
    <path id="Path_93163" data-name="Path 93163" d="M54.152,237.447l-.628-.194a42.9,42.9,0,0,1-6.413-2.481l-.271-.132V219.07h7.312Zm-6.327-3.427a41.873,41.873,0,0,0,5.342,2.1V220.047H47.825Z" transform="translate(207.48 757.229)" fill="#cbaa4d"/>
    <path id="Path_93164" data-name="Path 93164" d="M74.877,224.167l-7.359-18.99h0L41.605,190.22h0c-13.694,7.917-13.694,20.734,0,28.643,9.018,5.2,21.711,6.979,33.265,5.335Z" transform="translate(210.962 763.709)" fill="#f5ebd0"/>
    <path id="Path_93165" data-name="Path 93165" d="M66.157,225.142c-9.25,0-18.175-2.1-24.945-6.009S30.69,209.975,30.69,204.4s3.737-10.856,10.514-14.733l.248-.147.256.14L67.7,204.687l.078.078v.1L75.237,224.1l-.248.419H74.74A60.915,60.915,0,0,1,66.157,225.142Zm-24.7-34.474c-6.3,3.668-9.754,8.529-9.754,13.717s3.559,10.165,10.026,13.9c8.405,4.854,20.757,6.893,32.35,5.358l-7.087-18.284Z" transform="translate(211.107 763.866)" fill="#cbaa4d"/>
    <path id="Path_93166" data-name="Path 93166" d="M51.361,138.74a38.576,38.576,0,0,0-6.761,3.047h0l25.813,14.9h0L51.377,138.74Z" transform="translate(207.982 775.271)" fill="#f5ebd0"/>
    <path id="Path_93167" data-name="Path 93167" d="M70.41,157.184l-.4-.233L44,141.917v-.558l.24-.163a39.825,39.825,0,0,1,6.847-3.1l.264-.124.248.209,19.385,18.268ZM45.442,141.63l21.5,12.406L51.118,139.125a39.183,39.183,0,0,0-5.676,2.5Z" transform="translate(208.117 775.444)" fill="#cbaa4d"/>
    <path id="Path_93168" data-name="Path 93168" d="M44.59,142.69v36.855h0L70.5,194.487h0L70.449,157.6h0L44.629,142.7Z" transform="translate(207.984 774.385)" fill="#f5ebd0"/>
    <path id="Path_93169" data-name="Path 93169" d="M70.363,194.894l-.256-.155L44,179.673V142.524h0v-.279l.5-.295.256.147,26.061,15.035v.295l.047,37.173ZM44.946,179.1l24.906,14.376-.047-35.769L44.946,143.361Z" transform="translate(208.117 774.551)" fill="#cbaa4d"/>
    <path id="Path_93170" data-name="Path 93170" d="M101.2,175.875l2.691-1.667V164.88l-2.691,1.613Z" transform="translate(195.271 769.4)" fill="#f5ebd0"/>
    <path id="Path_93171" data-name="Path 93171" d="M100.57,176.508V165.962l3.675-2.2v10.476Zm.985-9.987v8.227l1.706-1.062V165.5Z" transform="translate(195.412 769.652)" fill="#cbaa4d"/>
    <rect id="Rectangle_2154" data-name="Rectangle 2154" width="0.985" height="17.253" transform="translate(309.427 964.622)" fill="#f5ebd0"/>
    <rect id="Rectangle_2155" data-name="Rectangle 2155" width="0.985" height="8.033" transform="translate(293.687 937.685)" fill="#f5ebd0"/>
    <rect id="Rectangle_2156" data-name="Rectangle 2156" width="0.985" height="36.862" transform="translate(254.32 918.523)" fill="#cbaa4d"/>
    <rect id="Rectangle_2157" data-name="Rectangle 2157" width="0.985" height="36.862" transform="translate(269.463 927.287)" fill="#cbaa4d"/>
    <rect id="Rectangle_2158" data-name="Rectangle 2158" width="0.985" height="12.941" transform="translate(282.304 967.11)" fill="#cbaa4d"/>
    <rect id="Rectangle_2159" data-name="Rectangle 2159" width="0.985" height="18.943" transform="translate(288.414 975.066)" fill="#f5ebd0"/>
    <path id="Path_93172" data-name="Path 93172" d="M35.762,233.583a17.989,17.989,0,0,1-8.607-10.77,11.755,11.755,0,0,1-.465-3.319V213.71h1.016v5.784a10.9,10.9,0,0,0,.426,3.04,17.059,17.059,0,0,0,8.1,10.181Z" transform="translate(212.005 758.434)" fill="#cbaa4d"/>
    <rect id="Rectangle_2160" data-name="Rectangle 2160" width="0.985" height="4.334" transform="translate(238.695 965.848)" fill="#cbaa4d"/>
    <path id="Path_93173" data-name="Path 93173" d="M111.758,164.462h-.985v-4.156a3.047,3.047,0,0,0-1.706-2.753l-3.978-1.977.442-.876,3.97,1.969a4.048,4.048,0,0,1,2.256,3.637Z" transform="translate(194.396 771.688)" fill="#cbaa4d"/>
    <path id="Path_93174" data-name="Path 93174" d="M23.4,172.691c-1.124-1.4-2.326-1.124-5.428-1.814a17.384,17.384,0,0,0-8.111.109c-2.629.682-4.234,1.117-5.319,2.326l-1.4.721v3.047c.062,1.962,1.667,3.8,4.854,5.118a16.47,16.47,0,0,0,10.08.706c4.714-1.14,7.079-3.5,7.157-5.9v-2.915Z" transform="translate(217.295 768.149)" fill="#cbaa4d"/>
    <path id="Path_93175" data-name="Path 93175" d="M13.909,183.7a16.493,16.493,0,0,1-6.273-1.217c-3.257-1.341-5.087-3.311-5.156-5.56v-3.3l1.59-.822c1.217-1.326,3.024-1.791,5.505-2.435a17.834,17.834,0,0,1,8.343-.116c.861.194,1.551.31,2.194.411,1.613.264,2.59.419,3.5,1.551l1.931,1.489v3.2c-.085,2.838-2.908,5.218-7.537,6.327a17.355,17.355,0,0,1-4.1.465Zm-10.46-9.475v2.613c.07,1.892,1.683,3.551,4.567,4.738a15.973,15.973,0,0,0,9.747.682c4.11-.993,6.707-3.1,6.777-5.428v-2.66l-1.683-1.31c-.682-.861-1.388-.977-2.923-1.225-.613-.1-1.365-.225-2.256-.419a16.8,16.8,0,0,0-7.878.109c-2.667.682-4.1,1.093-5.079,2.2l-.14.109Z" transform="translate(217.443 768.292)" fill="#cbaa4d"/>
    <path id="Path_93176" data-name="Path 93176" d="M21.95,168.759c4.311,2.489,4.311,6.529,0,9.018a17.263,17.263,0,0,1-15.616,0c-4.311-2.489-4.311-6.529,0-9.018A17.263,17.263,0,0,1,21.95,168.759Z" transform="translate(217.304 768.948)" fill="#f5ebd0"/>
    <path id="Path_93177" data-name="Path 93177" d="M14.009,180.019a16.5,16.5,0,0,1-8.018-1.954c-2.241-1.295-3.482-3.047-3.482-4.932s1.241-3.644,3.482-4.939c4.443-2.559,11.67-2.559,16.1,0h0c2.249,1.295,3.482,3.047,3.482,4.932s-1.233,3.644-3.482,4.939a16.477,16.477,0,0,1-8.087,1.954Zm0-12.748a15.508,15.508,0,0,0-7.568,1.807c-1.923,1.109-2.985,2.559-2.985,4.086s1.062,2.962,2.985,4.079a16.769,16.769,0,0,0,15.128,0c1.923-1.117,2.985-2.567,2.985-4.086s-1.062-2.97-2.985-4.079a15.508,15.508,0,0,0-7.56-1.838Z" transform="translate(217.436 769.087)" fill="#cbaa4d"/>
    <ellipse id="Ellipse_292" data-name="Ellipse 292" cx="7.707" cy="3.885" rx="7.707" ry="3.885" transform="translate(223.738 938.328)" fill="#cbaa4d"/>
    <path id="Path_93178" data-name="Path 93178" d="M14.959,178.218a13.074,13.074,0,0,1-5.691-1.179c-1.628-.822-2.528-1.954-2.528-3.195s.915-2.365,2.528-3.187a14.213,14.213,0,0,1,11.344,0h0c1.636.822,2.528,1.954,2.528,3.187s-.892,2.373-2.528,3.195a13.011,13.011,0,0,1-5.653,1.179Zm0-7.754a12.05,12.05,0,0,0-5.234,1.086c-1.233.659-2.008,1.434-2.008,2.3s.721,1.675,1.985,2.326a13.058,13.058,0,0,0,10.46,0c1.264-.636,1.993-1.473,1.993-2.326s-.729-1.667-1.993-2.326h0a12.042,12.042,0,0,0-5.2-1.07Z" transform="translate(216.486 768.368)" fill="#cbaa4d"/>
    <path id="Path_93179" data-name="Path 93179" d="M20.608,173.36a13.6,13.6,0,0,0-10.9,0A4.2,4.2,0,0,0,7.62,175.29a4.187,4.187,0,0,0,2.086,1.923,13.6,13.6,0,0,0,10.9,0,4.2,4.2,0,0,0,2.078-1.923,4.211,4.211,0,0,0-2.078-1.931Z" transform="translate(216.289 767.752)" fill="#f5ebd0"/>
    <path id="Path_93180" data-name="Path 93180" d="M15,178.695A13.074,13.074,0,0,1,9.3,177.516a4.73,4.73,0,0,1-2.326-2.171l-.078-.194.078-.194A4.652,4.652,0,0,1,9.3,172.786a14.151,14.151,0,0,1,11.344,0,4.606,4.606,0,0,1,2.326,2.171l.085.194-.085.194a4.652,4.652,0,0,1-2.326,2.171A13.011,13.011,0,0,1,15,178.695Zm-6.979-3.544a3.978,3.978,0,0,0,1.752,1.481,13.058,13.058,0,0,0,10.46,0,3.931,3.931,0,0,0,1.752-1.481,3.993,3.993,0,0,0-1.752-1.489h0a13.058,13.058,0,0,0-10.46,0,4.032,4.032,0,0,0-1.76,1.489Z" transform="translate(216.45 767.892)" fill="#cbaa4d"/>
    <rect id="Rectangle_2161" data-name="Rectangle 2161" width="0.76" height="2.404" transform="translate(237.246 947.726)" fill="#f5ebd0"/>
    <rect id="Rectangle_2162" data-name="Rectangle 2162" width="0.76" height="2.404" transform="translate(221.645 945.694)" fill="#f5ebd0"/>
    <rect id="Rectangle_2163" data-name="Rectangle 2163" width="0.76" height="1.551" transform="translate(232.097 938.421)" fill="#f5ebd0"/>
    <path id="Path_93181" data-name="Path 93181" d="M10,173.628v1.31l1.822.675.845-1.38h0l6.413,3.7a10.207,10.207,0,0,0,1.551-.52l.7-.4V175.7L12.8,172.1Z" transform="translate(215.754 767.779)" fill="#cbaa4d"/>
    <path id="Path_93182" data-name="Path 93182" d="M18.977,178.193l-6.2-3.6-.837,1.357-2.326-.876v-1.8l3.21-1.737,8.917,3.768v1.783l-.884.5a11,11,0,0,1-1.659.566Zm-6.389-4.528.217.093,6.281,3.629a10.294,10.294,0,0,0,1.357-.465l.465-.264v-.884l-8.118-3.427-2.5,1.349v.822L11.58,175l.737-1.2Z" transform="translate(215.842 767.904)" fill="#cbaa4d"/>
    <path id="Path_93183" data-name="Path 93183" d="M12.706,172.512h0l-.845,1.38L10,173.241l1.217-1.915,1.636-.946,8.529,4.916h0L19.46,176.4Z" transform="translate(215.754 768.165)" fill="#f5ebd0"/>
    <path id="Path_93184" data-name="Path 93184" d="M19.28,176.713l-6.622-3.823-.837,1.357L9.27,173.3l1.551-2.38,1.907-1.1,8.956,5.172-.124.426Zm-6.761-4.745.209.093,6.552,3.784,1.171-.675L12.7,170.688l-1.372.775-.915,1.442,1.093.4.737-1.2Z" transform="translate(215.918 768.291)" fill="#cbaa4d"/>
    <rect id="Rectangle_2164" data-name="Rectangle 2164" width="0.985" height="4.8" transform="translate(219.907 951.315)" fill="#cbaa4d"/>
    <rect id="Rectangle_2165" data-name="Rectangle 2165" width="4.8" height="0.985" transform="translate(218 953.223)" fill="#cbaa4d"/>
  </g>
</svg>
