<svg xmlns="http://www.w3.org/2000/svg" width="385.027" height="440.589" viewBox="0 0 385.027 440.589">
    <defs>
        <clipPath id="clip-path">
            <path id="Path_2414" fill="none" d="M0 0l439.678.8.91 384.228-439.678-.8z" data-name="Path 2414"/>
        </clipPath>
        <style>
            .cls-5{fill:#ebd79e;fill-rule:evenodd}
        </style>
    </defs>
    <g id="Layer_2" data-name="Layer 2" opacity="0.502" transform="rotate(90 192.513 192.514)">
        <g id="Layer_1" data-name="Layer 1" opacity="0.397">
            <g id="Group_235" clip-path="url(#clip-path)" data-name="Group 235">
                <path id="Path_2237" d="M.086 36.526a5 5 0 0 0 .929-.8q5.37-8.1 10.648-16.217a3.25 3.25 0 0 0 .228-.48l-3.524-5.41q-3.585-5.41-7.2-10.833A9.9 9.9 0 0 0 0 1.572V.384L1.358 0c.245.361.582.815.889 1.336C5.663 6.5 9.126 11.661 12.481 16.857a3.037 3.037 0 0 0 3.057 1.58c6.763-.081 13.526.025 20.289.037h1.954v1.481h-1.817l-20.64-.037a2.681 2.681 0 0 0-2.684 1.329C9.3 26.47 5.83 31.653 2.407 36.85c-.3.466-.624.933-.943 1.332l-1.375-.429zm13.79-17.559c-.443-.188-.718-.4-.978-.389s-.35.306-.533.479c.229.16.459.454.7.468s.445-.238.811-.558z" class="cls-5" data-name="Path 2237" transform="translate(-21.373 295.871)"/>
                <path id="Path_2238" d="M.085 36.432a5.005 5.005 0 0 0 .929-.8q5.37-8.1 10.648-16.217a2.308 2.308 0 0 0 .228-.48l-3.616-5.45C5.915 9.921 3.556 6.341 1.166 2.8A8.314 8.314 0 0 0 0 1.585v-1.2L1.358 0l.965 1.416c3.371 5.089 6.711 10.178 10.1 15.241 1.333 1.99.6 1.669 3.256 1.687l22.076.04v1.481h-1.786l-20.64-.037a2.681 2.681 0 0 0-2.684 1.329C9.3 26.377 5.829 31.56 2.407 36.757a15.09 15.09 0 0 1-.943 1.332L.088 37.66zM12.961 19.7c.3-.293.594-.466.67-.693s-.337-.481-.49-.468a1.011 1.011 0 0 0-.7.426c-.061.146.275.4.52.735z" class="cls-5" data-name="Path 2238" transform="translate(-21.623 190.609)"/>
                <path id="Path_2239" d="M.116 36.486a5 5 0 0 0 .929-.8q5.37-8.1 10.648-16.217a2.491 2.491 0 0 0 .229-.469c-1.256-1.91-2.528-3.847-3.815-5.784-2.3-3.473-4.6-6.959-6.94-10.432A8.313 8.313 0 0 0 0 1.572v-1.2L1.343 0c.26.361.6.815.9 1.336C5.632 6.452 9 11.594 12.42 16.7c1.333 1.99.6 1.669 3.256 1.687l20.124.033h1.954v1.481L36 19.9l-20.64-.037a2.7 2.7 0 0 0-2.684 1.329C9.3 26.523 5.814 31.693 2.346 36.93c-.274.426-.578.853-.867 1.333l-1.36-.429zm13.79-17.479c-.428-.2-.688-.415-.948-.415s-.366.293-.549.453c.214.174.429.481.658.495s.458-.267.839-.533z" class="cls-5" data-name="Path 2239" transform="translate(-21.903 85.2)"/>
                <path id="Path_2240" d="M.04 36.659a9.164 9.164 0 0 0 .975-1.012q5.324-8 10.648-16.083a3.251 3.251 0 0 0 .228-.48c-.184-.321-.368-.668-.583-1.015Q6.283 10.455 1.211 2.842C.92 2.414.827 1.747 0 1.732V.545L1.3 0c.245.334.536.695.781 1.069C5.617 6.412 9.186 11.755 12.68 17.1a2.577 2.577 0 0 0 2.553 1.339l20.473.037h2.076v1.4a6.031 6.031 0 0 1-.763.105l-15.4-.028-6.824-.012a2.048 2.048 0 0 0-2.013 1.024c-3.468 5.33-7 10.66-10.511 15.99-.289.426-.593.839-.9 1.332l-1.33-.6zm12.172-17.6c.336.241.566.548.8.535s.442-.293.671-.466c-.2-.187-.368-.521-.6-.548s-.564.252-.945.479z" class="cls-5" data-name="Path 2240" transform="translate(-21.702 137.858)"/>
                <path id="Path_2241" d="M.04 36.646a8.017 8.017 0 0 0 .975-1q5.324-8 10.648-16.1a2.491 2.491 0 0 0 .228-.467c-.184-.321-.368-.681-.583-1.015Q6.283 10.455 1.211 2.842C.92 2.414.827 1.747 0 1.732V.545L1.3 0c.245.334.536.695.781 1.069C5.617 6.412 9.186 11.755 12.68 17.1a2.593 2.593 0 0 0 2.553 1.339c6.824-.054 13.648.025 20.473.037h2.076v1.4a6.035 6.035 0 0 1-.763.105l-15.74-.029-6.488-.012a2.048 2.048 0 0 0-2.013 1.024C9.252 26.4 5.662 31.813 2.133 37.223c-.228.346-.472.666-.715 1.026l-1.33-.6zm13.775-17.6c-.4-.228-.658-.495-.871-.469s-.411.346-.609.546c.229.174.444.468.673.468s.456-.291.806-.544z" class="cls-5" data-name="Path 2241" transform="translate(-21.452 243.213)"/>
                <path id="Path_2242" d="M.04 36.646a9.045 9.045 0 0 0 .975-1q5.324-8 10.648-16.1a2.489 2.489 0 0 0 .228-.467c-.184-.32-.368-.681-.583-1.015Q6.283 10.455 1.212 2.841C.92 2.414.827 1.747 0 1.732v-1.2L1.3 0c.245.334.536.695.781 1.069C5.617 6.412 9.187 11.755 12.68 17.1a2.611 2.611 0 0 0 2.553 1.272c6.839-.054 13.6-.042 20.427-.03h2.076v1.414a6.027 6.027 0 0 1-.763.105l-17.573-.03-4.58-.008a2 2 0 0 0-2.013 1.024C9.282 26.283 5.692 31.693 2.163 37.1c-.228.346-.472.666-.715 1.026l-1.33-.616zm13.775-17.6c-.4-.228-.658-.495-.871-.469s-.411.346-.609.546c.229.174.444.468.673.468s.456-.291.806-.544z" class="cls-5" data-name="Path 2242" transform="translate(-21.202 348.569)"/>
                <path id="Path_2243" d="M.04 36.659a9.165 9.165 0 0 0 .975-1.012q5.324-8 10.648-16.083a3.252 3.252 0 0 0 .228-.48c-.153-.267-.307-.588-.506-.881Q6.3 10.522 1.212 2.855C.92 2.414.827 1.747 0 1.732V.545L1.3 0c.245.334.536.695.781 1.069C5.617 6.412 9.186 11.755 12.68 17.1a2.6 2.6 0 0 0 2.553 1.272l20.473.037h2.076v1.334a4.3 4.3 0 0 1-.763.105l-15.74-.029-6.488-.012a2.044 2.044 0 0 0-2.013 1.037c-3.468 5.33-7 10.66-10.511 15.99-.289.426-.593.839-.9 1.332l-1.33-.616zM13.022 19.82c.259-.333.579-.573.533-.759a.81.81 0 0 0-.642-.468.785.785 0 0 0-.548.546c.016.187.367.374.658.682z" class="cls-5" data-name="Path 2243" transform="translate(-21.951 32.502)"/>
                <path id="Path_2244" d="M.085 36.353a5 5 0 0 0 .929-.8q5.34-8 10.648-16.11c.076-.133.121-.28.228-.507-.674-1.028-1.379-2.1-2.1-3.166Q5.5 9.32 1.211 2.842C.92 2.414.827 1.747 0 1.732V.545L1.3 0c.245.334.536.695.781 1.069C5.617 6.412 9.186 11.755 12.665 17.1a2.61 2.61 0 0 0 2.553 1.339l20.473.037h2.046a3.909 3.909 0 0 0 .11 1.161 1.725 1.725 0 0 1-.458.066l-13.177-.023-8.183-.015c-3.053-.006-2.23-.351-3.675 1.821C8.962 26.59 5.6 31.72 2.315 36.837c-.259.386-.533.759-.791 1.133l-1.36-.416zM13.783 18.9c-.382-.161-.627-.361-.825-.322s-.4.266-.579.426a2.378 2.378 0 0 0 .734.415c.26.04.4-.266.7-.519z" class="cls-5" data-name="Path 2244" transform="translate(-22.122 -20.023)"/>
                <path id="Path_2245" d="M2.092 0q5.531 8.379 11.123 16.821l-1.525.824Q5.853 8.8 0 0z" class="cls-5" data-name="Path 2245" transform="translate(112.729 -25.504)"/>
                <path id="Path_2246" d="M2.076 0l11.139 16.821-1.525.824L0 0z" class="cls-5" data-name="Path 2246" transform="translate(321.744 -25.124)"/>
                <path id="Path_2247" d="M13.1 0L1.528 17.566 0 16.79 11.059 0z" class="cls-5" data-name="Path 2247" transform="translate(134.493 -25.444)"/>
                <path id="Path_2248" d="M2.015 0L13.2 16.821l-1.525.824L0 0z" class="cls-5" data-name="Path 2248" transform="translate(217.305 -25.314)"/>
                <path id="Path_2249" d="M13.1 0L1.529 17.566 0 16.79 11.044 0z" class="cls-5" data-name="Path 2249" transform="translate(239.008 -25.254)"/>
                <path id="Path_2250" d="M13.1 0L1.528 17.566 0 16.79 11.044 0z" class="cls-5" data-name="Path 2250" transform="translate(29.993 -25.634)"/>
                <path id="Path_2251" d="M2.046 0l11.123 16.82-1.525.824L0 0z" class="cls-5" data-name="Path 2251" transform="translate(8.259 -25.693)"/>
                <path id="Path_2252" d="M2.076 0Q7.607 8.405 13.2 16.821l-1.525.824L0 0z" class="cls-5" data-name="Path 2252" transform="translate(426.259 -24.934)"/>
                <path id="Path_2253" d="M13.135 0L1.529 17.566 0 16.79 11.059 0z" class="cls-5" data-name="Path 2253" transform="translate(343.477 -25.065)"/>
                <path id="Path_2254" d="M0 17.216c1.308-2.025 2.586-4.064 3.894-6.076C6.312 7.449 8.746 3.771 11.241 0l1.529.737c-.289.466-.578.933-.882 1.4q-4.564 6.808-8.976 13.63c-.3.466-.563.973-.851 1.453z" class="cls-5" data-name="Path 2254" transform="translate(9.585 374.926)"/>
                <path id="Path_2255" d="M10.8 17.28c-.506-.828-1-1.669-1.533-2.484C6.205 10.148 3.141 5.513 0 .811L1.525 0c.291.427.6.842.873 1.269Q7.27 8.6 12.127 15.962a14.94 14.94 0 0 1 .766 1.336z" class="cls-5" data-name="Path 2255" transform="translate(30.889 374.92)"/>
                <path id="Path_2256" d="M0 17.216c1.262-1.986 2.51-4 3.8-5.957C6.252 7.529 8.716 3.811 11.226 0l1.528.737c-.289.466-.563.933-.867 1.4L2.76 15.9c-.274.426-.5.88-.745 1.333z" class="cls-5" data-name="Path 2256" transform="translate(114.1 375.115)"/>
                <path id="Path_2257" d="M10.771 17.28c-.352-.574-.659-1.149-1.027-1.71Q5.362 8.892.95 2.294C.644 1.826.337 1.345 0 .8L1.525 0 2.4 1.269Q7.27 8.6 12.127 15.962c.276.427.506.881.766 1.336z" class="cls-5" data-name="Path 2257" transform="translate(135.435 375.11)"/>
                <path id="Path_2258" d="M0 17.216c1.293-2.025 2.57-4.064 3.894-6.076C6.312 7.449 8.746 3.771 11.241 0l1.529.737c-.3.466-.578.933-.882 1.4q-4.564 6.808-8.976 13.63c-.319.466-.563.973-.851 1.453z" class="cls-5" data-name="Path 2258" transform="translate(218.6 375.305)"/>
                <path id="Path_2259" d="M10.726 17.28c-.506-.828-1-1.669-1.533-2.484C6.129 10.148 3.064 5.513 0 .811L1.525 0c.291.427.6.842.873 1.269Q7.27 8.6 12.127 15.962a14.942 14.942 0 0 1 .766 1.336z" class="cls-5" data-name="Path 2259" transform="translate(239.98 375.3)"/>
                <path id="Path_2260" d="M0 17.216c1.262-1.986 2.51-4 3.8-5.957C6.252 7.529 8.716 3.811 11.226 0l1.528.737c-.289.466-.578.933-.882 1.4L2.745 15.9c-.274.426-.5.88-.745 1.333z" class="cls-5" data-name="Path 2260" transform="translate(323.054 375.495)"/>
                <path id="Path_2261" d="M10.756 17.28c-.337-.574-.644-1.148-1.012-1.709Q5.362 8.892.95 2.294C.644 1.826.337 1.345 0 .8L1.433 0l.888 1.269q4.873 7.331 9.73 14.693c.276.427.506.881.766 1.336z" class="cls-5" data-name="Path 2261" transform="translate(344.45 375.489)"/>
                <path id="Path_2262" d="M0 17.216c1.293-2.025 2.57-4.064 3.894-6.076C6.312 7.449 8.746 3.771 11.241 0l1.529.737c-.289.466-.563.933-.867 1.4l-8.991 13.63c-.3.466-.547.973-.836 1.453z" class="cls-5" data-name="Path 2262" transform="translate(427.615 375.685)"/>
                <path id="Path_2263" d="M8.074 12.966L0 .811 1.525 0C2.812 1.937 4.083 3.874 5.37 5.784c.889 1.336 1.808 2.6 2.711 3.9z" class="cls-5" data-name="Path 2263" transform="translate(448.28 112.269)"/>
                <path id="Path_2264" d="M8.074 12.966L0 .8 1.525 0 5.37 5.784c.889 1.336 1.808 2.6 2.711 3.9z" class="cls-5" data-name="Path 2264" transform="translate(448.779 322.981)"/>
                <path id="Path_2265" d="M8.074 12.966C5.408 8.959 2.727 4.952 0 .8L1.525 0c1.348 2.017 2.666 4.007 4.014 6.038.827 1.216 1.7 2.418 2.543 3.633z" class="cls-5" data-name="Path 2265" transform="translate(448.03 6.927)"/>
                <path id="Path_2266" d="M8.074 12.966L0 .8C.5.532.961.306 1.525 0c1.348 2.017 2.666 4.007 4.014 6.038.827 1.229 1.7 2.431 2.543 3.647z" class="cls-5" data-name="Path 2266" transform="translate(448.529 217.625)"/>
                <path id="Path_2267" d="M8.04 3.282l-5.492 8.182-1.019 1.519L0 12.206 8 0z" class="cls-5" data-name="Path 2267" transform="translate(448.476 190.301)"/>
                <path id="Path_2268" d="M8.04 3.282l-5.492 8.182-1.02 1.519L0 12.219 8 0z" class="cls-5" data-name="Path 2268" transform="translate(448.227 84.945)"/>
                <path id="Path_2269" d="M8.04 3.282l-5.492 8.182-1.019 1.519L0 12.206 8 0z" class="cls-5" data-name="Path 2269" transform="translate(448.726 295.657)"/>
                <path id="Path_2270" d="M8.043 12.793C6.036 9.827 4.014 6.849 2.023 3.87 1.333 2.841.674 1.813 0 .784L1.525 0q3.263 4.915 6.557 9.818z" class="cls-5" data-name="Path 2270" transform="translate(448.685 270.323)"/>
                <path id="Path_2271" d="M8.043 12.806C6.036 9.827 4.014 6.849 2.023 3.87 1.333 2.855.674 1.813 0 .784L1.525 0q3.263 4.915 6.557 9.818z" class="cls-5" data-name="Path 2271" transform="translate(448.185 59.611)"/>
                <path id="Path_2272" d="M8.043 12.806C6.036 9.827 4.014 6.849 2.023 3.87 1.333 2.841.674 1.813 0 .784L1.525 0q3.263 4.9 6.557 9.818z" class="cls-5" data-name="Path 2272" transform="translate(448.435 164.967)"/>
                <path id="Path_2273" d="M8.043 12.793C6.036 9.814 4.014 6.849 2.023 3.87 1.333 2.841.674 1.813 0 .784L1.525 0l6.557 9.818z" class="cls-5" data-name="Path 2273" transform="translate(448.934 375.679)"/>
                <path id="Path_2274" d="M8.009 2.975l-6.48 9.834L0 11.993 8.017 0z" class="cls-5" data-name="Path 2274" transform="translate(448.632 243.132)"/>
                <path id="Path_2275" d="M8.009 2.975L1.529 12.8 0 11.993 8.017 0z" class="cls-5" data-name="Path 2275" transform="translate(448.132 32.434)"/>
                <path id="Path_2276" d="M8.009 2.988l-6.48 9.821L0 11.993 8.017 0z" class="cls-5" data-name="Path 2276" transform="translate(448.008 -20.104)"/>
                <path id="Path_2277" d="M8.009 2.975L1.529 12.8 0 11.993 8.017 0z" class="cls-5" data-name="Path 2277" transform="translate(448.382 137.79)"/>
                <path id="Path_2278" d="M8.009 2.975l-6.48 9.834L0 11.992 8.017 0z" class="cls-5" data-name="Path 2278" transform="translate(448.881 348.488)"/>
                <path id="Path_2279" d="M2.248 1.5L0 1.494V0h2.244z" class="cls-5" data-name="Path 2279" transform="translate(454.06 104.339)"/>
                <path id="Path_2280" d="M2.248 1.5L0 1.494V0h2.244z" class="cls-5" data-name="Path 2280" transform="translate(454.56 315.051)"/>
                <path id="Path_2281" d="M2.248 1.5L0 1.494V0h2.244z" class="cls-5" data-name="Path 2281" transform="translate(454.31 209.695)"/>
                <path id="Path_2282" d="M2.233 1.632L0 1.441V0l2.229.137z" class="cls-5" data-name="Path 2282" transform="translate(454.2 157.037)"/>
                <path id="Path_2283" d="M2.233 1.632L0 1.441V0l2.229.137z" class="cls-5" data-name="Path 2283" transform="translate(453.951 51.681)"/>
                <path id="Path_2284" d="M2.233 1.672L0 1.481V0l2.229.137z" class="cls-5" data-name="Path 2284" transform="translate(454.7 367.709)"/>
                <path id="Path_2285" d="M2.233 1.632L0 1.441V0l2.229.137z" class="cls-5" data-name="Path 2285" transform="translate(454.45 262.393)"/>
                <path id="Path_2286" d="M2.217 1.338L0 1.334V0l2.214.137z" class="cls-5" data-name="Path 2286" transform="translate(453.842 -.857)"/>
                <path id="Path_2287" d="M37.937 37.452l-1.525.771L35 36.139c-3.248-4.915-6.542-9.818-9.729-14.693a3.037 3.037 0 0 0-3.057-1.58c-6.778.068-13.541-.025-20.32-.037L0 19.826v-1.468a4.152 4.152 0 0 1 .61-.079l21.16.038c3.053.006 2.2.378 3.66-1.821 3.347-5.01 6.632-10.061 9.949-15.084L36.352 0l1.528.737-12.169 18.388c4.089 6.025 8.12 12.142 12.226 18.327zM24.671 18.323c-.259.346-.579.586-.532.773s.413.361.642.535c.2-.2.549-.386.563-.6s-.352-.401-.673-.708z" class="cls-5" data-name="Path 2287" transform="translate(88.147 6.416)"/>
                <path id="Path_2288" d="M37.937 37.518l-1.418.771c-.276-.347-.566-.695-.812-1.069-3.539-5.343-7.094-10.686-10.587-16.029a2.593 2.593 0 0 0-2.553-1.339L2.1 19.816 0 19.812v-1.494h1.832l20.824.038a2.426 2.426 0 0 0 2.409-1.21c3.346-5.184 6.769-10.327 10.177-15.484L36.352 0l1.528.763c-4.016 6.09-8.032 12.179-12.093 18.376zM25.68 19.1c-.382-.227-.673-.495-.887-.469a.789.789 0 0 0-.564.546.832.832 0 0 0 .642.495c.168.014.381-.306.731-.572z" class="cls-5" data-name="Path 2288" transform="translate(297.146 6.716)"/>
                <path id="Path_2289" d="M0 19.786V18.3l24.228.044L36.4 0l1.528.763L25.863 19.1 38 37.438l-1.525.811c-.322-.468-.659-.935-.965-1.336-3.493-5.249-7-10.5-10.419-15.788a2.6 2.6 0 0 0-2.568-1.259l-20.657-.037zM24.824 18.4c-.3.293-.594.466-.67.693s.322.481.459.468a.994.994 0 0 0 .717-.4c.061-.213-.261-.427-.506-.761z" class="cls-5" data-name="Path 2289" transform="translate(245.575 296.393)"/>
                <path id="Path_2290" d="M37.922 19.931h-2.03l-20.473-.041a2.6 2.6 0 0 0-2.546 1.33C9.435 26.55 5.921 31.813 2.437 37.1l-.822 1.186-1.528-.76c4.016-6.09 8-12.153 12.078-18.322L0 .8 1.525 0l12.257 18.38 24.136.044zm-24.644-1.552c-.3.306-.671.506-.67.706s.367.4.566.6c.229-.173.61-.332.64-.546s-.291-.413-.536-.76z" class="cls-5" data-name="Path 2290" transform="translate(134.999 217.136)"/>
                <path id="Path_2291" d="M1.529 38.329L0 37.526 12.17 19.2C8.094 13.06 4.08 7 0 .824L1.529 0l12.257 18.42 24.259.044v1.561h-2.214l-19.969-.036a3.341 3.341 0 0 0-3.339 1.648c-3.316 5.2-6.754 10.34-10.161 15.5zm12.488-19.082c-.367-.267-.612-.561-.826-.548s-.473.306-.7.479c.214.2.4.534.627.561s.473-.253.884-.492z" class="cls-5" data-name="Path 2291" transform="translate(344.101 217.422)"/>
                <path id="Path_2292" d="M0 19.812v-1.481l24.228.044C28.3 12.192 32.336 6.1 36.4 0l1.528.777-12.08 18.348 12.135 18.353-1.525.8c-.322-.441-.643-.9-.95-1.336-3.493-5.249-6.986-10.5-10.419-15.788a2.592 2.592 0 0 0-2.537-1.339L1.9 19.776zm24.717.045l.685-.706a2.059 2.059 0 0 0-.7-.468.533.533 0 0 0-.533.413c.016.133.291.387.551.721z" class="cls-5" data-name="Path 2292" transform="translate(36.56 295.987)"/>
                <path id="Path_2293" d="M1.631 38.25L.1 37.473c4-6.076 8.017-12.166 12.063-18.336C8.12 13.007 4.075 6.9 0 .758L1.4 0a2.049 2.049 0 0 1 .383.388l10.375 15.641c.306.467.674.922.935 1.416a1.561 1.561 0 0 0 1.727.924 11.818 11.818 0 0 1 1.191 0l21.984.04v1.414a2.708 2.708 0 0 1-.6.132l-8.7-.016-13.129-.024a2.7 2.7 0 0 0-2.7 1.329c-3.422 5.33-6.936 10.58-10.42 15.87-.237.363-.526.736-.815 1.136zM14.119 19.1c-.4-.228-.673-.495-.887-.469s-.411.346-.609.546c.214.174.444.494.673.495s.457-.306.823-.572z" class="cls-5" data-name="Path 2293" transform="translate(30.453 216.919)"/>
                <path id="Path_2294" d="M24.289 18.335L36.459 0l1.528.737-12.169 18.375 12.15 18.366-1.525.8c-.306-.414-.6-.828-.888-1.256-3.417-5.169-6.879-10.325-10.235-15.534a3.244 3.244 0 0 0-3.179-1.647C15.423 19.92 8.706 19.815 2 19.8H0v-1.548zm.553 1.535c.274-.346.594-.573.563-.786a.821.821 0 0 0-.642-.481.76.76 0 0 0-.548.546c0 .2.337.414.627.722z" class="cls-5" data-name="Path 2294" transform="translate(-15.931 216.885)"/>
                <path id="Path_2295" d="M0 19.812v-1.481h1.924l20.824.038A2.263 2.263 0 0 0 25 17.216q5.141-7.889 10.359-15.75c.3-.466.624-.933.989-1.466l1.532.763L25.8 19.1c4.06 6.118 8.074 12.2 12.135 18.34l-1.525.811c-.322-.468-.659-.935-.965-1.336C32 31.7 28.507 26.508 25.12 21.245a2.864 2.864 0 0 0-2.812-1.339L1.82 19.869zm25.6-.607c-.382-.268-.581-.521-.826-.562s-.61.252-.595.332.261.574.459.615.524-.199.962-.385z" class="cls-5" data-name="Path 2295" transform="translate(350.09 296.556)"/>
                <path id="Path_2296" d="M37.964 18.4v1.481H36.04l-20.656-.038a2.536 2.536 0 0 0-2.531 1.33C9.48 26.39 6.027 31.587 2.6 36.784l-.989 1.466-1.524-.777L12.15 19.164 0 .811 1.525 0l12.257 18.42zm-25 1.489l.427-.226c.137-.227.381-.44.4-.666s-.428-.414-.55-.375-.595.306-.625.506.215.507.353.761z" class="cls-5" data-name="Path 2296" transform="translate(291.959 296.454)"/>
                <path id="Path_2297" d="M13.72 18.34l24.243.044v1.494h-1.908L15.4 19.837a2.554 2.554 0 0 0-2.546 1.329C9.48 26.39 6.027 31.587 2.6 36.8l-1 1.466L.072 37.5l12.063-18.323L0 .824 1.525 0C5.615 6.038 9.6 12.155 13.72 18.34zm-.443.066l-.716.679c.214.174.413.428.673.482a.562.562 0 0 0 .549-.386 3.574 3.574 0 0 0-.505-.775z" class="cls-5" data-name="Path 2297" transform="translate(187.459 296.264)"/>
                <path id="Path_2298" d="M37.968 37.518l-1.525.784c-.306-.454-.659-.908-.965-1.336C32 31.7 28.491 26.455 25.059 21.165a2.559 2.559 0 0 0-2.537-1.339l-20.656-.037L0 19.786v-1.468l24.228.044L36.4 0l1.528.763C33.91 6.866 29.894 12.956 25.863 19.1zM25.711 19.112c-.428-.214-.673-.428-.948-.442s-.366.28-.549.426c.2.187.4.508.627.521s.4-.266.793-.506z" class="cls-5" data-name="Path 2298" transform="translate(141.06 296.15)"/>
                <path id="Path_2299" d="M13.736 18.366l24.228.044v1.468H36.04l-20.656-.038a2.568 2.568 0 0 0-2.531 1.33C9.48 26.4 6.027 31.587 2.6 36.8c-.319.466-.639.933-.989 1.466l-1.529-.79q6.09-9.158 12.068-18.312L0 .811 1.525 0zm.337.668c-.443-.2-.7-.415-.963-.415s-.366.293-.533.453c.214.174.413.481.642.495s.458-.28.854-.533z" class="cls-5" data-name="Path 2299" transform="translate(82.944 296.075)"/>
                <path id="Path_2300" d="M12.15 19.177L0 .811 1.525 0l12.257 18.393 24.259.044v1.521l-21.755-.04c-3.13-.006-2.306-.364-3.8 1.874C9.145 26.816 5.86 31.853 2.543 36.89l-.959 1.332-1.528-.763C4.1 31.423 8.1 25.32 12.15 19.177zm1.036-.692c-.274.32-.441.533-.624.733a2.181 2.181 0 0 0 .734.428c.26.041.518-.306.5-.439s-.38-.401-.61-.722z" class="cls-5" data-name="Path 2300" transform="translate(396.225 191.208)"/>
                <path id="Path_2301" d="M36.413 0l1.528.75c-4.015 6.09-8.016 12.179-12.093 18.35L38 37.452l-1.525.8c-.291-.427-.628-.868-.919-1.336-3.524-5.343-7.048-10.592-10.511-15.922a2.47 2.47 0 0 0-2.43-1.205l-20.657-.04L0 19.746v-1.481h1.847l20.824.038A2.426 2.426 0 0 0 25.08 17.1c3.407-5.33 6.891-10.5 10.344-15.751zM25.665 19.165c-.382-.268-.612-.561-.841-.549s-.427.319-.655.492c.184.16.367.454.535.455a4.033 4.033 0 0 0 .961-.4z" class="cls-5" data-name="Path 2301" transform="translate(349.779 191.227)"/>
                <path id="Path_2302" d="M1.615 38.289L.087 37.5 12.15 19.177 0 .824 1.525 0c4.06 6.1 8.1 12.209 12.257 18.406l24.259.044v1.508h-1.878l-20.653-.041a2.537 2.537 0 0 0-2.546 1.33C9.557 26.51 6.073 31.747 2.62 37a15.527 15.527 0 0 0-1.005 1.289zM14.15 19.114c-.443-.2-.7-.415-.963-.415s-.366.293-.549.453c.214.174.429.481.658.495s.412-.267.854-.533z" class="cls-5" data-name="Path 2302" transform="translate(291.679 191.018)"/>
                <path id="Path_2303" d="M25.863 19.139l12.15 18.366-1.525.784c-.322-.454-.659-.908-.965-1.336-3.493-5.263-7-10.512-10.419-15.788a2.61 2.61 0 0 0-2.553-1.339L1.9 19.789 0 19.786v-1.468l24.228.044L36.4 0l1.528.763C33.911 6.96 29.91 13.009 25.863 19.139zm-1.055-.7c-.274.32-.548.519-.578.733s.367.454.5.428a3.52 3.52 0 0 0 .716-.439z" class="cls-5" data-name="Path 2303" transform="translate(245.264 190.997)"/>
                <path id="Path_2304" d="M38.1 18.5v1.334a3.452 3.452 0 0 1-.626.092L22.563 19.9l-7.163-.01a2.4 2.4 0 0 0-2.425 1.2c-3.468 5.33-7 10.66-10.527 15.99-.243.386-.517.76-.822 1.186L.1 37.486l12.05-18.322L0 .8 1.525 0l12.257 18.406zm-24.834 1.4c.3-.293.594-.466.655-.693s-.322-.481-.474-.468a1.011 1.011 0 0 0-.7.426c-.061.147.276.4.521.735z" class="cls-5" data-name="Path 2304" transform="translate(187.087 190.788)"/>
                <path id="Path_2305" d="M37.937 37.438l-1.525.771c-1.977-3.005-3.953-5.971-5.914-8.936s-3.754-5.6-5.546-8.415a2.242 2.242 0 0 0-2.155-1.1l-20.824-.035L0 19.719v-1.334a3.68 3.68 0 0 1 .6-.079l20.992.038c3.252.006 2.322.418 3.919-1.954 3.316-4.97 6.571-9.981 9.857-14.964L36.337 0l1.528.75L25.787 19.1q6.021 9.075 12.15 18.338zM25.543 19.245c-.245-.294-.368-.6-.536-.615a2.434 2.434 0 0 0-.839.212c.123.227.185.587.383.654s.549-.118.992-.251z" class="cls-5" data-name="Path 2305" transform="translate(140.841 190.887)"/>
                <path id="Path_2306" d="M1.57 38.289L.041 37.5 12.1 19.177 0 .824 1.525 0l12.257 18.406 24.167.044v1.508h-1.878l-20.656-.038a2.538 2.538 0 0 0-2.546 1.33C9.465 26.51 5.981 31.747 2.528 37c-.304.37-.639.823-.958 1.289zm11.693-19.8l-.716.679c.229.174.428.428.688.482a.514.514 0 0 0 .533-.386 3.277 3.277 0 0 0-.506-.775z" class="cls-5" data-name="Path 2306" transform="translate(82.71 190.639)"/>
                <path id="Path_2307" d="M36.367 0L37.9.817c-4.016 6.09-8.017 12.193-12.063 18.322l12.15 18.366-1.525.784c-.322-.454-.659-.908-.965-1.336-3.493-5.263-7-10.512-10.419-15.788a2.561 2.561 0 0 0-2.553-1.339l-20.659-.037L0 19.786v-1.468l24.228.044zm-11.7 18.443c-.228.346-.472.559-.487.773s.4.428.551.388a3.65 3.65 0 0 0 .671-.492z" class="cls-5" data-name="Path 2307" transform="translate(36.31 190.618)"/>
                <path id="Path_2308" d="M0 19.786v-1.334a4.485 4.485 0 0 1 .611 0l17.755.032c1.3 0 2.626-.075 3.924.007a2.735 2.735 0 0 0 2.973-1.542c3.316-5.2 6.769-10.34 10.161-15.5L36.413 0l1.528.763L25.817 19.1l12.15 18.353-1.525.8c-.674-1-1.348-1.977-1.992-2.965-3.064-4.7-6.251-9.35-9.3-14.119a2.7 2.7 0 0 0-2.66-1.339L2 19.789zM24.839 18.4c-.3.293-.594.466-.67.693s.322.494.459.468a.946.946 0 0 0 .717-.4c.055-.143-.261-.411-.506-.761z" class="cls-5" data-name="Path 2308" transform="translate(36.046 85.302)"/>
                <path id="Path_2309" d="M0 19.8v-1.481a5.347 5.347 0 0 1 .626 0l20.137.037a9.01 9.01 0 0 0 3.5-.247c.854-.425 1.248-1.6 1.811-2.465L35.5 1.332c.274-.426.593-.839.9-1.332l1.528.723-12.095 18.389 12.134 18.353-1.525.824c-.475-.721-.95-1.336-1.394-2.1-3.309-5-6.665-9.978-9.9-15.013a2.739 2.739 0 0 0-2.705-1.339L2.141 19.8zm25.646-.687c-.367-.254-.6-.561-.826-.548s-.457.306-.686.479c.2.2.383.534.612.561s.488-.253.9-.492z" class="cls-5" data-name="Path 2309" transform="translate(297.865 322.85)"/>
                <path id="Path_2310" d="M13.705 18.446l24.228.044v1.468H36.04l-20.656-.038a2.57 2.57 0 0 0-2.546 1.33C9.465 26.483 6.012 31.68 2.589 36.877c-.319.466-.639.933-1 1.492l-1.532-.763L12.12 19.271 0 .838 1.525 0q5.998 9.176 12.18 18.446zm-.577 1.426c.3-.306.594-.479.655-.706s-.337-.481-.474-.468a1.015 1.015 0 0 0-.717.426c-.045.147.276.415.537.749z" class="cls-5" data-name="Path 2310" transform="translate(82.475 85.283)"/>
                <path id="Path_2311" d="M25.818 19.125q6.128 9.2 12.135 18.353l-1.448.811c-.322-.454-.659-.908-.965-1.336-3.509-5.343-7.048-10.592-10.511-15.922a2.351 2.351 0 0 0-2.277-1.165l-20.825-.037L0 19.826v-1.494l24.243.044C28.32 12.193 32.351 6.1 36.413 0l1.529.79q-6.085 9.141-12.124 18.335zm-1.1.692l.685-.706c-.229-.161-.444-.414-.7-.468a.515.515 0 0 0-.518.413 3.228 3.228 0 0 0 .536.761z" class="cls-5" data-name="Path 2311" transform="translate(140.561 85.465)"/>
                <path id="Path_2312" d="M12.135 19.164L0 .811 1.525 0l12.257 18.433 24.228.044v1.468h-2L15.526 19.9a2.762 2.762 0 0 0-2.775 1.422C9.374 26.563 5.92 31.747 2.482 36.957c-.274.426-.578.853-.9 1.333l-1.526-.777zm.183-.08c.382.268.6.508.841.562a.67.67 0 0 0 .595-.346c-.015-.08-.261-.561-.459-.6s-.534.239-.976.385z" class="cls-5" data-name="Path 2312" transform="translate(186.975 85.486)"/>
                <path id="Path_2313" d="M25.848 18.979l12.134 18.353-1.4.771a6.091 6.091 0 0 1-.459-.521L25.442 21.553a8.657 8.657 0 0 1-.6-.908 1.748 1.748 0 0 0-1.88-.951l-11.6-.021L0 19.652v-1.334a7.339 7.339 0 0 1 .779 0l20.656.038a11.51 11.51 0 0 1 1.359 0 2 2 0 0 0 2.15-1.063c2.571-4 5.2-7.915 7.8-11.873L36.337 0l1.528.75zm-1.082.692l.685-.706c-.229-.161-.444-.414-.719-.468a.5.5 0 0 0-.518.413 3.456 3.456 0 0 0 .551.761z" class="cls-5" data-name="Path 2313" transform="translate(245.03 85.801)"/>
                <path id="Path_2314" d="M0 .811L1.525 0l12.257 18.393 24.243.044v1.521h-1.832l-20.488-.037a2.9 2.9 0 0 0-2.912 1.5c-3.331 5.2-6.769 10.327-10.161 15.5l-.959 1.332-1.525-.767 12.063-18.335C8.09 13.046 4.045 6.929 0 .811zm14.1 18.3c-.443-.2-.7-.415-.963-.415s-.366.293-.549.453c.214.174.429.481.658.495s.416-.264.854-.53z" class="cls-5" data-name="Path 2314" transform="translate(291.475 85.662)"/>
                <path id="Path_2315" d="M24.259 18.362L36.428 0l1.528.777c-4.016 6.09-8.017 12.193-12.078 18.336l12.15 18.353-1.525.811c-.322-.454-.659-.908-.965-1.336-3.493-5.249-6.986-10.5-10.419-15.788a2.559 2.559 0 0 0-2.537-1.339l-20.655-.038L0 19.772v-1.454zM24.8 19.8c.274-.32.609-.573.563-.733a1.061 1.061 0 0 0-.688-.442c-.26-.04-.518.319-.487.453a3.656 3.656 0 0 0 .612.722z" class="cls-5" data-name="Path 2315" transform="translate(349.56 85.858)"/>
                <path id="Path_2316" d="M37.979 18.4v1.481h-1.924L15.4 19.837a2.568 2.568 0 0 0-2.531 1.33C9.5 26.4 6.042 31.587 2.6 36.8c-.3.466-.624.933-.989 1.466l-1.524-.78 12.048-18.322L0 .824 1.525 0l12.257 18.42zm-23.906.637c-.428-.2-.688-.415-.948-.415s-.366.293-.548.453c.214.174.413.481.642.495s.457-.266.854-.532z" class="cls-5" data-name="Path 2316" transform="translate(395.96 85.932)"/>
                <path id="Path_2317" d="M37.937 37.478l-1.433.785c-.276-.361-.551-.721-.812-1.1-3.509-5.343-7.048-10.579-10.5-15.922a2.9 2.9 0 0 0-2.827-1.339l-20.3-.037L0 19.866v-1.588l24.259.044L36.337 0l1.528.737L25.7 19.112zm-13.129-19.1c-.3.306-.655.506-.655.706s.367.4.566.6c.229-.173.61-.332.64-.532s-.29-.428-.551-.775z" class="cls-5" data-name="Path 2317" transform="translate(-16.135 111.529)"/>
                <path id="Path_2318" d="M37.937 37.492l-1.525.784c-.291-.414-.6-.828-.873-1.256-3.493-5.249-7-10.5-10.434-15.788a2.7 2.7 0 0 0-2.66-1.339l-20.3-.037L0 19.853V18.3l24.182.044C28.2 12.246 32.229 6.156 36.276 0L37.8.75c-4.031 6.143-8.047 12.233-12.093 18.376zM25.68 19.165c-.352-.254-.6-.561-.826-.548s-.457.306-.686.479c.2.2.383.534.612.561s.442-.253.839-.492z" class="cls-5" data-name="Path 2318" transform="translate(402.395 322.987)"/>
                <path id="Path_2319" d="M25.8 19.219c4.106 6.184 8.12 12.262 12.15 18.366l-1.418.771c-.276-.361-.567-.708-.812-1.082-3.539-5.343-7.094-10.686-10.587-16.029a2.591 2.591 0 0 0-2.568-1.352L2.08 19.856 0 19.852v-1.534h1.863l20.824.038a2.421 2.421 0 0 0 2.394-1.223c3.362-5.184 6.784-10.327 10.177-15.484C35.622 1.093 36 .546 36.367 0L37.9.777zm-.979-.749c-.3.306-.67.519-.655.706s.367.4.566.6c.229-.173.61-.332.64-.532s-.291-.494-.552-.841z" class="cls-5" data-name="Path 2319" transform="translate(-16.399 6.147)"/>
                <path id="Path_2320" d="M12.165 19.191C8.09 13.006 4.075 6.942 0 .8L1.525 0l1.057 1.549c3.447 5.223 6.925 10.419 10.327 15.668a2.468 2.468 0 0 0 2.415 1.205l20.64.037h1.985v1.548h-2.092l-20.484-.037a2.536 2.536 0 0 0-2.531 1.33C9.4 26.63 5.89 31.88 2.407 37.17c-.243.386-.517.76-.822 1.186l-1.528-.777zm1.893-.063c-.4-.214-.673-.482-.9-.455s-.411.359-.609.559c.229.174.459.481.688.482s.457-.373.823-.652z" class="cls-5" data-name="Path 2320" transform="translate(30.015 6.234)"/>
                <path id="Path_2321" d="M0 .744L1.525 0 6.6 7.654c1.992 3.005 3.968 6.051 5.991 9.043 1.363 1.99.584 1.682 3.424 1.687l19.969.036h1.954v1.4a2.4 2.4 0 0 1-.58.132l-8.366-.015-13.312-.024a2.95 2.95 0 0 0-2.943 1.449C9.389 26.617 5.905 31.787 2.483 37l-.9 1.332-1.529-.79C4.07 31.466 8.071 25.376 12.132 19.22 8.136 13.046 4.091 6.942 0 .744zm14.073 18.383c-.382-.227-.673-.495-.887-.469s-.411.359-.609.559c.229.174.459.481.688.482s.458-.305.808-.572z" class="cls-5" data-name="Path 2321" transform="translate(134.5 6.371)"/>
                <path id="Path_2322" d="M36.382 38.3l-1.532-2.364c-3.187-4.822-6.419-9.631-9.545-14.493a3.151 3.151 0 0 0-3.057-1.58c-6.7.068-13.419-.024-20.137-.037H0v-1.468a4.446 4.446 0 0 1 .61-.079l21.16.038c3.053.006 2.2.378 3.675-1.821 3.332-5.01 6.632-10.061 9.949-15.084.3-.466.639-.933.958-1.412l1.528.737c-4.016 6.09-8.017 12.179-12.17 18.375l12.2 18.38zM25.558 19.085c-.4-.214-.658-.495-.887-.469s-.595.372-.564.546a.783.783 0 0 0 .627.495c.2.014.442-.293.792-.572z" class="cls-5" data-name="Path 2322" transform="translate(192.723 6.54)"/>
                <path id="Path_2323" d="M12.165 19.218L0 .758 1.4 0a5.289 5.289 0 0 1 .383.388l10.375 15.641c.337.521.7 1.029 1.011 1.563a1.416 1.416 0 0 0 1.528.777 11.823 11.823 0 0 1 1.191 0l22.091.04v1.4a2.708 2.708 0 0 1-.6.132l-9.038-.016-12.8-.025a2.7 2.7 0 0 0-2.684 1.329c-3.422 5.33-6.936 10.66-10.435 15.884-.243.373-.517.746-.806 1.146l-1.529-.773zm1.893 0c-.4-.228-.673-.495-.9-.469s-.411.359-.609.559c.229.174.459.481.688.482s.457-.426.823-.692z" class="cls-5" data-name="Path 2323" transform="translate(239.03 6.587)"/>
                <path id="Path_2324" d="M1.707 38.29l-1.528-.764c4-6.076 8-12.166 12.078-18.336Q6.128 10.014 0 .8L1.525 0 6.6 7.64c2.145 3.232 4.32 6.452 6.4 9.711a2.217 2.217 0 0 0 2.155 1.071l20.824.038h1.954v1.334c-.092 0-.229.133-.366.133h-1.878l-20.148-.037a2.823 2.823 0 0 0-2.775 1.436c-3.377 5.237-6.83 10.42-10.253 15.631zm11.666-18.35c.259-.346.579-.573.563-.773a.821.821 0 0 0-.642-.481.761.761 0 0 0-.564.533c0 .187.322.414.628.722z" class="cls-5" data-name="Path 2324" transform="translate(343.423 6.737)"/>
                <path id="Path_2325" d="M37.937 37.492l-1.433.771c-.26-.361-.551-.708-.8-1.082-3.536-5.343-7.104-10.686-10.584-16.029a2.645 2.645 0 0 0-2.568-1.272L2.08 19.843 0 19.839v-1.548h1.863l20.656.038A2.678 2.678 0 0 0 25.171 17C28.487 11.859 31.9 6.769 35.257 1.652 35.622 1.093 36 .546 36.367 0c.52.254.932.482 1.529.777L25.787 19.192zM25.68 19.165c-.352-.267-.6-.575-.826-.562s-.457.306-.686.479c.2.2.383.534.612.561s.442-.253.839-.452z" class="cls-5" data-name="Path 2325" transform="translate(401.646 6.932)"/>
                <path id="Path_2326" d="M37.979 18.424v1.588h-2.015L15.48 19.97a2.679 2.679 0 0 0-2.669 1.33C9.4 26.63 5.921 31.8 2.467 37.05c-.289.426-.593.839-.9 1.333l-1.529-.79C4.057 31.5 8.058 25.414 12.1 19.257L0 .8 1.525 0l12.257 18.38zm-23.921.717c-.4-.214-.673-.481-.9-.455s-.4.359-.609.546c.229.187.459.494.688.495s.455-.307.821-.586z" class="cls-5" data-name="Path 2326" transform="translate(30.265 111.51)"/>
                <path id="Path_2327" d="M0 .8L1.525 0l12.257 18.406 24.259.044v1.561h-2.122l-20.485-.041a2.572 2.572 0 0 0-2.547 1.263C9.45 26.563 5.936 31.827 2.452 37.1c-.259.386-.533.759-.837 1.226L.087 37.54l12.17-18.349zm14.074 18.434c-.367-.254-.612-.561-.826-.548s-.457.306-.7.479c.214.2.4.534.627.561s.5-.253.915-.492z" class="cls-5" data-name="Path 2327" transform="translate(344.264 322.791)"/>
                <path id="Path_2328" d="M25.741 19.112l12.15 18.366-1.525.8c-.291-.427-.6-.828-.873-1.256-3.493-5.263-7-10.5-10.434-15.788a2.7 2.7 0 0 0-2.66-1.339L2.1 19.856 0 19.852v-1.561l24.182.044L36.352 0l1.528.737c-4.08 6.142-8.092 12.232-12.139 18.375zm-.168 0c-.352-.254-.581-.561-.826-.562s-.457.306-.686.479c.2.2.383.534.612.561s.5-.2.9-.359z" class="cls-5" data-name="Path 2328" transform="translate(88.426 111.719)"/>
                <path id="Path_2329" d="M0 19.839v-1.561l24.213.044L36.383 0l1.528.737c-4.031 6.13-8.032 12.219-12.093 18.376L38 37.478l-1.433.785c-.276-.361-.551-.721-.812-1.1C32.306 31.945 28.8 26.762 25.426 21.5a3.388 3.388 0 0 0-3.347-1.66c-6.7.081-13.419-.024-20.137-.037zm24.793.045c.274-.346.594-.573.563-.773a.817.817 0 0 0-.642-.495.831.831 0 0 0-.564.546c.061.187.352.4.643.708z" class="cls-5" data-name="Path 2329" transform="translate(192.881 111.909)"/>
                <path id="Path_2330" d="M0 19.839v-1.561l24.213.044L36.383 0l1.528.737c-4.031 6.13-8.032 12.219-12.093 18.376L38 37.478l-1.525.784c-.291-.4-.6-.815-.873-1.229-3.434-5.169-6.896-10.325-10.252-15.533A3.339 3.339 0 0 0 22 19.839c-6.641.081-13.312-.024-19.969-.036zm24.7.045c.3-.306.655-.519.655-.719a.6.6 0 0 0-.6-.451.589.589 0 0 0-.6.448c-.03.147.291.361.551.708z" class="cls-5" data-name="Path 2330" transform="translate(193.38 322.621)"/>
                <path id="Path_2331" d="M37.979 18.437v1.548h-2.076l-20.473-.037a2.588 2.588 0 0 0-2.547 1.263C9.45 26.537 5.936 31.8 2.452 37.09c-.259.386-.533.759-.837 1.2l-1.528-.777c4.016-6.076 8-12.126 12.078-18.322Q6.129 10.081 0 .8L1.525 0l12.257 18.42zm-23.891.69c-.4-.228-.673-.495-.9-.469s-.411.346-.609.546c.229.174.459.494.688.495s.456-.332.822-.572z" class="cls-5" data-name="Path 2331" transform="translate(135.249 322.438)"/>
                <path id="Path_2332" d="M36.367 0L37.9.777 25.818 19.139l12.15 18.366-1.433.785c-.26-.361-.551-.708-.8-1.082-3.539-5.343-7.109-10.686-10.6-16.029A2.592 2.592 0 0 0 22.6 19.84L2.11 19.8H0v-1.561h1.863l20.824.038a2.4 2.4 0 0 0 2.379-1.223c3.392-5.224 6.845-10.42 10.268-15.617.334-.424.684-.931 1.033-1.437zM24.793 18.4c-.289.306-.655.506-.64.706s.352.4.566.6c.229-.173.595-.332.64-.546s-.29-.423-.566-.76z" class="cls-5" data-name="Path 2332" transform="translate(88.88 322.404)"/>
                <path id="Path_2333" d="M12.18 19.177C8.09 12.98 4.06 6.915 0 .784L1.525 0C3.241 2.578 4.926 5.116 6.6 7.654c2.068 3.112 4.182 6.185 6.129 9.35a2.931 2.931 0 0 0 2.95 1.446l20.32.037h1.954v1.414a2.568 2.568 0 0 1-.58.132l-8.2-.015L15.694 20a2.918 2.918 0 0 0-2.943 1.449c-3.362 5.237-6.83 10.42-10.268 15.617-.274.426-.578.853-.9 1.332L.057 37.62zm1.893 0c-.352-.267-.581-.561-.81-.562s-.473.306-.7.479c.2.2.383.534.612.561s.5-.2.9-.359z" class="cls-5" data-name="Path 2333" transform="translate(239.265 111.903)"/>
                <path id="Path_2334" d="M24.259 18.349C28.335 12.179 32.321 6.116 36.428 0l1.528.75-12.169 18.375c4.075 6.144 8.105 12.262 12.15 18.366-.518.293-.945.519-1.525.784-.291-.414-.6-.828-.873-1.256-3.478-5.249-6.986-10.5-10.419-15.775a2.718 2.718 0 0 0-2.66-1.339l-20.32-.037L0 19.866v-1.548zm1.376.816c-.352-.254-.6-.561-.81-.562s-.473.319-.7.492c.214.2.383.534.612.561s.5-.253.884-.492z" class="cls-5" data-name="Path 2334" transform="translate(-15.65 322.228)"/>
                <path id="Path_2335" d="M13.736 18.353l24.243.044v1.481h-1.924L15.4 19.837a2.536 2.536 0 0 0-2.531 1.33C9.5 26.39 6.042 31.587 2.6 36.784c-.3.48-.624.946-.989 1.466l-1.524-.777 12.048-18.309L0 .811 1.525 0zm-.577 1.426c.3-.306.594-.466.655-.693s-.322-.481-.474-.468a1 1 0 0 0-.7.412c-.061.147.276.414.521.748z" class="cls-5" data-name="Path 2335" transform="translate(396.459 296.644)"/>
                <path id="Path_2336" d="M25.8 19.125l12.15 18.353-1.525.8c-.291-.414-.6-.828-.873-1.256-3.46-5.211-6.952-10.407-10.34-15.656a2.976 2.976 0 0 0-2.919-1.513l-20.137-.037L0 19.812V18.3l24.182.044L36.352 0l1.528.737zm-.994-.749c-.3.306-.655.519-.64.706s.352.4.566.6c.213-.173.595-.332.64-.532s-.322-.427-.567-.775z" class="cls-5" data-name="Path 2336" transform="translate(297.38 112.098)"/>
                <path id="Path_2337" d="M25.879 19.139l12.15 18.366-1.525.8c-.291-.414-.6-.828-.873-1.256C32.2 31.878 28.736 26.722 25.4 21.526a3.227 3.227 0 0 0-3.179-1.647c-6.717.068-13.435-.024-20.137-.037h-2A10.43 10.43 0 0 0 0 18.3l24.259.044L36.428 0l1.528.737zm-.168 0c-.367-.254-.6-.561-.826-.548s-.457.306-.686.479c.2.2.383.534.612.561s.5-.213.9-.452z" class="cls-5" data-name="Path 2337" transform="translate(401.804 112.262)"/>
                <path id="Path_2338" d="M37.987.71L25.818 19.1l12.134 18.352-1.525.824-1.41-2.084c-3.34-5.049-6.7-10.071-9.99-15.147A2.486 2.486 0 0 0 22.6 19.84L2.126 19.8H0v-1.481a3.491 3.491 0 0 1 .565 0l19.3.035 3.053.006a1.943 1.943 0 0 0 2-1.05q5.09-7.81 10.263-15.618L36.306 0zM25.711 19.152c-.352-.267-.6-.561-.81-.562s-.473.306-.7.466c.2.214.383.548.612.575s.501-.253.898-.479z" class="cls-5" data-name="Path 2338" transform="translate(402.054 217.657)"/>
                <path id="Path_2339" d="M37.922 37.465l-1.448.8c-.291-.414-.6-.828-.873-1.242q-5.056-7.64-10.112-15.254c-1.532-2.244-.722-1.882-3.821-1.888l-19.634-.038H.004v-1.561l24.243.044L36.322 0l1.528.737-12.093 18.375q6.113 9.197 12.165 18.353zM24.8 19.857c.259-.346.594-.586.563-.786a.881.881 0 0 0-.642-.481.755.755 0 0 0-.564.546c0 .2.337.4.643.722z" class="cls-5" data-name="Path 2339" transform="translate(297.645 217.468)"/>
                <path id="Path_2340" d="M37.964 18.45v1.574h-2.015l-20.488-.037a2.678 2.678 0 0 0-2.653 1.329C9.374 26.643 5.86 31.907 2.376 37.2c-.228.346-.472.68-.761 1.119L.087 37.54c4.031-6.1 8.047-12.193 12.078-18.336L0 .811 1.525 0l12.257 18.406zm-23.89.8c-.367-.254-.6-.561-.826-.549s-.457.306-.686.479c.2.2.383.534.612.561s.503-.254.9-.494z" class="cls-5" data-name="Path 2340" transform="translate(239.514 217.232)"/>
                <path id="Path_2341" d="M0 19.879v-1.561h1.832l20.824.038a2.443 2.443 0 0 0 2.409-1.21c3.346-5.184 6.769-10.327 10.177-15.484L36.337 0l1.528.75c-4 6.1-8.017 12.193-12.093 18.376q6.037 9.15 12.15 18.366l-1.418.785c-.26-.347-.551-.695-.8-1.069C32.168 31.865 28.6 26.522 25.1 21.179a2.576 2.576 0 0 0-2.537-1.339L2.08 19.8zm24.789-1.463c-.3.306-.655.506-.655.706s.367.4.566.6c.229-.173.595-.332.64-.532s-.287-.439-.547-.773z" class="cls-5" data-name="Path 2341" transform="translate(193.145 217.225)"/>
                <path id="Path_2342" d="M0 19.852V18.3l24.228.044L36.4 0l1.528.75-12.171 18.375c4.06 6.158 8.105 12.262 12.15 18.366l-1.525.8-.888-1.269c-3.478-5.249-6.986-10.5-10.419-15.775a2.718 2.718 0 0 0-2.66-1.339c-6.763.054-13.541-.025-20.32-.037zm24.8.048c.274-.346.594-.586.563-.786a.851.851 0 0 0-.642-.481.755.755 0 0 0-.564.546c0 .2.337.387.643.708z" class="cls-5" data-name="Path 2342" transform="translate(88.63 217.062)"/>
                <path id="Path_2343" d="M36.367 0L37.9.737 25.8 19.1c4.03 6.091 8.074 12.2 12.15 18.38l-1.525.811c-4.06-6.1-8.1-12.222-12.257-18.406L0 19.839V18.3h1.862l20.473.037a2.932 2.932 0 0 0 2.912-1.5C28.609 11.606 32.062 6.423 35.5 1.226c.274-.4.578-.813.867-1.226zm-11.65 18.35c-.274.346-.594.573-.563.773a.881.881 0 0 0 .642.481.775.775 0 0 0 .564-.546c-.001-.187-.353-.401-.643-.708z" class="cls-5" data-name="Path 2343" transform="translate(401.771 59.63)"/>
                <path id="Path_2344" d="M37.968 37.6l-1.525.784c-4.045-6.1-8.1-12.209-12.257-18.393L0 19.946v-1.561h1.847l20.808.038a2.455 2.455 0 0 0 2.41-1.223C28.5 11.873 32 6.543 35.485 1.333L36.367 0 37.9.737C33.879 6.813 29.879 12.9 25.8 19.1zM24.7 18.443c-.259.333-.579.573-.548.773a.825.825 0 0 0 .642.468.761.761 0 0 0 .564-.533c.001-.186-.351-.401-.658-.708z" class="cls-5" data-name="Path 2344" transform="translate(402.02 164.893)"/>
                <path id="Path_2345" d="M0 .771L1.525 0 2.4 1.229c3.509 5.343 7.032 10.592 10.5 15.908a2.576 2.576 0 0 0 2.537 1.339l20.64.038h1.924v1.534h-1.832l-20.811-.038a2.43 2.43 0 0 0-2.409 1.2C9.542 26.537 6.073 31.707 2.6 36.944c-.3.48-.624.933-.958 1.439L.118 37.62C4.1 31.557 8.1 25.48 12.288 19.258zm13.236 19.115c.259-.333.594-.573.548-.759a.817.817 0 0 0-.627-.481.793.793 0 0 0-.579.546c.031.187.383.388.689.7z" class="cls-5" data-name="Path 2345" transform="translate(344.139 270.147)"/>
                <path id="Path_2346" d="M12.257 19.191L0 .8 1.525 0l12.257 18.38 24.259.044v1.588h-2l-20.653-.042a2.443 2.443 0 0 0-2.409 1.21c-3.438 5.33-6.936 10.66-10.42 15.884L1.677 38.4l-1.529-.79zm1.07.762c.259-.346.579-.586.563-.786a.851.851 0 0 0-.642-.481.775.775 0 0 0-.564.546c-.076.2.276.414.582.721z" class="cls-5" data-name="Path 2346" transform="translate(343.764 112.079)"/>
                <path id="Path_2347" d="M36.306 0l1.529.79-12.17 18.335 12.256 18.393-1.525.8c-.306-.441-.628-.882-.934-1.336-3.509-5.343-7.032-10.592-10.5-15.908a2.449 2.449 0 0 0-2.354-1.192l-20.64-.037L0 19.839v-1.334s.137-.133.213-.133h1.878l20.3.037a2.819 2.819 0 0 0 2.775-1.449C28.548 11.74 32 6.556 35.424 1.359A14.425 14.425 0 0 1 36.306 0zM24.735 19.884c.259-.333.579-.573.548-.746a.832.832 0 0 0-.642-.495.8.8 0 0 0-.564.546c.061.16.352.361.658.695z" class="cls-5" data-name="Path 2347" transform="translate(192.833 59.224)"/>
                <path id="Path_2348" d="M37.979 18.437v1.521h-1.832l-20.808-.038a2.43 2.43 0 0 0-2.409 1.2c-3.407 5.33-6.891 10.5-10.344 15.751-.3.466-.639.933-.974 1.439l-1.529-.79 12.082-18.356L0 .771 1.525 0c.276.4.582.815.858 1.229 3.509 5.343 7.048 10.592 10.5 15.908a2.593 2.593 0 0 0 2.553 1.339l20.64.037zm-25.616.674c.367.254.6.548.826.548s.457-.306.686-.479c-.2-.187-.383-.521-.612-.548s-.503.253-.899.479z" class="cls-5" data-name="Path 2348" transform="translate(239.125 59.258)"/>
                <path id="Path_2349" d="M0 19.826v-1.508h1.847l20.824.038a2.472 2.472 0 0 0 2.394-1.156C28.5 11.873 32 6.609 35.485 1.332c.289-.426.593-.839.9-1.332l1.528.737L25.833 19.1l12.15 18.366-1.525.851L24.2 19.91zm24.839-1.516c-.3.306-.655.506-.655.706a.822.822 0 0 0 .551.548.845.845 0 0 0 .655-.479c.03-.133-.321-.374-.551-.721z" class="cls-5" data-name="Path 2349" transform="translate(297.24 59.427)"/>
                <path id="Path_2350" d="M37.994 18.464v1.414a3.573 3.573 0 0 1-.626.092c-6.824-.012-13.663.109-20.473-.037a4.675 4.675 0 0 0-4.834 2.486c-3.042 4.971-6.4 9.821-9.629 14.658-.259.386-.533.759-.837 1.2l-1.523-.764 12.17-18.362L0 .784 1.448 0c.291.4.6.8.873 1.216 3.478 5.249 7 10.486 10.4 15.775a2.977 2.977 0 0 0 2.95 1.46l20.3.037zm-25.646.661c.367.254.6.548.826.548s.457-.306.686-.479c-.2-.187-.383-.521-.612-.548s-.488.253-.9.479z" class="cls-5" data-name="Path 2350" transform="translate(343.64 59.435)"/>
                <path id="Path_2351" d="M0 .771L1.525 0c.291.4.582.815.858 1.229 3.524 5.343 7.047 10.592 10.51 15.908a2.559 2.559 0 0 0 2.537 1.339l20.64.037h1.924v1.494h-1.832l-20.804-.037a2.43 2.43 0 0 0-2.409 1.2C9.541 26.5 6.073 31.667 2.62 36.917c-.319.466-.639.919-.974 1.426l-1.528-.75Q6.2 28.425 12.287 19.218zm13.251 19.115c.259-.333.594-.573.548-.759a.817.817 0 0 0-.627-.481.793.793 0 0 0-.579.546c.016.187.367.388.673.695z" class="cls-5" data-name="Path 2351" transform="translate(343.889 164.791)"/>
                <path id="Path_2352" d="M36.367 0L37.9.763 25.818 19.125l12.165 18.38-1.525.811C32.4 32.185 28.338 26.081 24.2 19.9L0 19.852v-1.508h1.893l20.473.037a2.839 2.839 0 0 0 2.806-1.329C28.533 11.819 32 6.636 35.424 1.439 35.7.986 36 .56 36.367 0zM25.619 19.165c-.352-.267-.6-.575-.826-.562s-.457.306-.671.479c.2.187.368.521.6.548s.5-.226.9-.439z" class="cls-5" data-name="Path 2352" transform="translate(402.27 270.289)"/>
                <path id="Path_2353" d="M0 .771L1.525 0c.322.468.643.922.95 1.336 3.478 5.249 6.986 10.5 10.419 15.775a2.579 2.579 0 0 0 2.553 1.272l20.64.037h1.893v1.588l-24.259-.044C9.647 26.123 5.632 32.226 1.555 38.329l-1.529-.763 12.093-18.375zm13.247 17.648c-.289.306-.64.492-.655.706s.352.534.566.535a.8.8 0 0 0 .64-.466c.03-.187-.291-.427-.551-.775z" class="cls-5" data-name="Path 2353" transform="translate(239.405 164.601)"/>
                <path id="Path_2354" d="M0 19.826v-1.534h1.893l20.64.037A2.606 2.606 0 0 0 25.1 17.07c3.392-5.33 6.876-10.5 10.329-15.737L36.352 0l1.528.737-12.139 18.335L38 37.465l-1.525.8c-4.075-6.131-8.12-12.235-12.257-18.42zm24.808.045c.259-.333.579-.573.548-.759a.6.6 0 0 0-.6-.451.589.589 0 0 0-.6.448c.061.174.352.374.658.682z" class="cls-5" data-name="Path 2354" transform="translate(193.005 164.633)"/>
                <path id="Path_2355" d="M36.322 0l1.528.777-12.078 18.348c4.045 6.131 8.09 12.235 12.165 18.393l-1.525.8-4.994-7.518c-2.16-3.286-4.351-6.545-6.481-9.831a2.192 2.192 0 0 0-2.14-1.1l-20.809-.04L0 19.826v-1.534h1.878l20.64.037A2.57 2.57 0 0 0 25.065 17c3.407-5.33 6.876-10.5 10.344-15.751.228-.316.563-.729.913-1.249zm-11.56 18.377c-.3.306-.655.506-.655.693a.791.791 0 0 0 .551.548.8.8 0 0 0 .655-.466c.03-.187-.322-.427-.551-.775z" class="cls-5" data-name="Path 2355" transform="translate(297.566 164.77)"/>
                <path id="Path_2356" d="M13.7 19.94L1.528 38.3 0 37.539l12.17-18.375L.02.8 1.545 0c.291.427.6.842.873 1.336 3.509 5.343 7.048 10.579 10.51 15.908a2.6 2.6 0 0 0 2.553 1.256l20.64.037h1.893v1.441zm.349-.813c-.413-.241-.688-.508-.9-.482s-.411.346-.609.546c.229.174.444.468.688.482s.457-.319.823-.572z" class="cls-5" data-name="Path 2356" transform="translate(134.916 164.438)"/>
                <path id="Path_2357" d="M36.367 0L37.9.8 25.772 19.192l12.165 18.393-1.525.8c-.322-.454-.643-.9-.95-1.336-3.309-5-6.588-10-9.928-14.987-1.655-2.578-.646-2.069-4.127-2.075l-19.45-.035L0 19.946v-1.428a6.509 6.509 0 0 1 .763-.092l19.618.036a9.387 9.387 0 0 0 3.664-.193C25 17.79 25.475 16.55 26.1 15.6q4.685-7.076 9.34-14.178zM25.6 19.178c-.367-.267-.6-.561-.826-.562s-.457.306-.686.479c.2.187.383.521.612.548s.5-.186.9-.412z" class="cls-5" data-name="Path 2357" transform="translate(88.521 164.324)"/>
                <path id="Path_2358" d="M0 .758L1.525 0l3.064 4.662c2.773 4.181 5.562 8.348 8.274 12.556a2.481 2.481 0 0 0 2.415 1.218l20.64.037h1.969a8.27 8.27 0 0 0 .1 1.468l-24.2-.044c-4.079 6.16-8.095 12.25-12.171 18.419l-1.529-.763 12.078-18.362zm13.278 17.661c-.3.306-.655.492-.67.706s.352.534.566.535a.8.8 0 0 0 .64-.466c.03-.187-.291-.428-.536-.775z" class="cls-5" data-name="Path 2358" transform="translate(30.374 164.221)"/>
                <path id="Path_2359" d="M25.818 19.205L37.983 37.6l-1.525.784c-.306-.427-.628-.868-.919-1.336-3.509-5.348-7.048-10.593-10.511-15.91a2.436 2.436 0 0 0-2.415-1.205L1.973 19.9 0 19.892v-1.534h1.969l20.64.037a2.552 2.552 0 0 0 2.531-1.33c3.407-5.33 6.891-10.487 10.344-15.737.274-.426.578-.839.9-1.332l1.528.75zm-.979-.749c-.3.306-.655.506-.64.706a.751.751 0 0 0 .551.535.8.8 0 0 0 .64-.466c.046-.2-.29-.431-.551-.774z" class="cls-5" data-name="Path 2359" transform="translate(-16.04 164.12)"/>
                <path id="Path_2360" d="M36.383 0l1.528.75-12.078 18.362 12.15 18.38-1.525.811L24.2 19.883 0 19.839v-1.494h1.893l20.473.037a2.823 2.823 0 0 0 2.806-1.329c3.392-5.33 6.891-10.5 10.344-15.737.273-.45.578-.863.867-1.316zM25.634 19.152c-.367-.267-.6-.575-.826-.575s-.457.319-.686.492c.2.187.383.521.612.548s.488-.213.9-.425z" class="cls-5" data-name="Path 2360" transform="translate(297.755 270.099)"/>
                <path id="Path_2361" d="M37.9.817L25.726 19.165l12.257 18.394-1.525.784c-.306-.428-.628-.868-.934-1.336-3.509-5.343-7.032-10.592-10.5-15.908a2.436 2.436 0 0 0-2.415-1.205l-20.64-.038L0 19.852v-1.494h1.908l20.64.037a2.552 2.552 0 0 0 2.531-1.33c3.407-5.33 6.891-10.487 10.344-15.737C35.7.906 36 .493 36.321 0zm-13.164 17.6c-.259.333-.579.573-.548.773a.6.6 0 0 0 .6.451.589.589 0 0 0 .6-.448c-.046-.267-.4-.521-.7-.775z" class="cls-5" data-name="Path 2361" transform="translate(193.27 269.896)"/>
                <path id="Path_2362" d="M36.367 0L37.9.737 25.787 19.1l12.165 18.365-1.525.824-12.165-18.433L0 19.812V18.3h1.863l20.64.037a2.71 2.71 0 0 0 2.653-1.329C28.64 11.726 32.047 6.529 35.5 1.2c.274-.374.578-.787.867-1.2zM25.6 19.138c-.352-.267-.6-.561-.826-.562s-.442.306-.671.479c.2.2.383.521.6.548s.52-.238.897-.465z" class="cls-5" data-name="Path 2362" transform="translate(-16.259 58.871)"/>
                <path id="Path_2363" d="M1.57 38.3l-1.529-.774 12.078-18.362L0 .771 1.525 0c.291.414.582.815.858 1.242 3.524 5.343 7.047 10.579 10.51 15.909a2.592 2.592 0 0 0 2.537 1.339l20.64.037h1.924v1.441h-1.893L15.3 19.93a2.425 2.425 0 0 0-2.4 1.21c-3.4 5.33-6.888 10.5-10.341 15.737-.305.453-.639.923-.989 1.423zm11.693-19.87c-.3.293-.671.492-.67.693a.812.812 0 0 0 .566.548.842.842 0 0 0 .64-.479c.03-.187-.291-.427-.536-.761z" class="cls-5" data-name="Path 2363" transform="translate(30.14 58.866)"/>
                <path id="Path_2364" d="M25.772 19.139c4.091 6.158 8.12 12.275 12.165 18.38l-1.525.811c-.306-.454-.643-.908-.95-1.336-3.386-5.249-6.8-10.445-10.266-15.681a2.816 2.816 0 0 0-2.782-1.446c-6.809.054-13.633-.025-20.457-.037L0 19.826v-1.441q.471-.06.946-.078l20.473.037c3.389.006 2.489.431 4.178-2.087 3.331-5.024 6.632-10.057 9.949-15.084.254-.387.532-.76.821-1.173L37.9.763zm-.979-.749c-.289.306-.64.506-.64.706a.726.726 0 0 0 .551.535.8.8 0 0 0 .64-.466c.046-.2-.291-.428-.551-.775z" class="cls-5" data-name="Path 2364" transform="translate(-15.745 269.543)"/>
                <path id="Path_2365" d="M36.367 0L37.9.737 25.787 19.1l12.15 18.366-1.525.838-12.165-18.448L0 19.812V18.3h1.847l20.64.037a2.694 2.694 0 0 0 2.653-1.329c3.407-5.29 6.891-10.487 10.4-15.817zM24.812 19.857c.259-.333.579-.573.548-.759a.87.87 0 0 0-.658-.481.753.753 0 0 0-.548.559c-.015.147.352.347.658.681z" class="cls-5" data-name="Path 2365" transform="translate(88.256 59.061)"/>
                <path id="Path_2366" d="M0 .8L1.529 0l12.1 18.379 24.259.044v1.588h-1.985l-20.48-.041a2.679 2.679 0 0 0-2.668 1.33C9.363 26.63 5.864 31.813 2.411 37.05l-.882 1.333L0 37.593l12.063-18.336zm13.164 19.153c.3-.306.64-.506.639-.719a.822.822 0 0 0-.551-.548.875.875 0 0 0-.655.479c-.03.147.306.441.567.788z" class="cls-5" data-name="Path 2366" transform="translate(134.76 111.7)"/>
                <path id="Path_2367" d="M36.367 0L37.9.777 25.818 19.125l12.165 18.393-1.525.8C32.4 32.172 28.338 26.067 24.2 19.883L0 19.839v-1.494h1.908l20.64.037a2.569 2.569 0 0 0 2.552-1.326c3.392-5.33 6.876-10.5 10.329-15.737zM24.69 19.844c.32-.293.671-.492.67-.693a.783.783 0 0 0-.566-.548.827.827 0 0 0-.64.479c-.03.213.291.454.536.788z" class="cls-5" data-name="Path 2367" transform="translate(88.755 269.719)"/>
                <path id="Path_2368" d="M37.938 18.45v1.521L13.7 19.927C9.637 26.11 5.605 32.2 1.528 38.289c-.52-.241-.932-.455-1.528-.75C4 31.45 8 25.36 12.17 19.164L.02.8 1.545 0c.291.414.6.842.873 1.256C5.926 6.6 9.465 11.848 12.913 17.164a2.613 2.613 0 0 0 2.568 1.272l20.64.038zm-23.89.757c-.367-.267-.6-.575-.826-.562s-.457.306-.686.479c.2.187.383.508.612.548s.457-.239.9-.465z" class="cls-5" data-name="Path 2368" transform="translate(135.165 269.767)"/>
                <path id="Path_2369" d="M0 .8L1.525 0c4.06 6.1 8.1 12.209 12.257 18.406l24.243.044v1.561h-2.046l-20.32-.037a2.857 2.857 0 0 0-2.817 1.326C9.465 26.63 5.966 31.8 2.5 37.05c-.243.386-.517.76-.837 1.226l-1.529-.79Q6.218 28.332 12.2 19.164zm14.058 18.434c-.367-.254-.6-.561-.826-.548s-.457.306-.686.479c.2.2.383.534.612.561s.5-.253.9-.492z" class="cls-5" data-name="Path 2369" transform="translate(239.779 322.601)"/>
                <path id="Path_2370" d="M38.01 18.437v1.548h-2.076l-20.488-.037a2.572 2.572 0 0 0-2.546 1.258C9.465 26.537 5.951 31.8 2.468 37.09c-.243.373-.517.76-.837 1.213L.1 37.513l12.065-18.322L0 .8 1.525 0l12.257 18.42zm-23.906.69c-.4-.228-.673-.508-.887-.469s-.411.346-.609.546c.214.174.444.494.673.495s.457-.333.823-.572z" class="cls-5" data-name="Path 2370" transform="translate(30.718 322.249)"/>
                <path id="Path_2371" d="M37.938 18.464v1.508L13.7 19.927 1.528 38.289 0 37.526l12.17-18.375L0 .8 1.529 0c.291.427.6.842.873 1.336C5.9 6.6 9.4 11.835 12.821 17.124a2.9 2.9 0 0 0 2.827 1.339l20.473.037zm-24.7-.045c-.3.293-.655.492-.655.693a.794.794 0 0 0 .551.548.86.86 0 0 0 .655-.479c.03-.173-.291-.414-.551-.748z" class="cls-5" data-name="Path 2371" transform="translate(134.666 59.055)"/>
                <path id="Path_2372" d="M13.339 18.272c.794 0 1.527.123 2.382.124l22.259.04v1.454a3.781 3.781 0 0 1-.58.066l-19.984-.036c-1.191 0-2.627-.3-3.511.18s-1.416 1.718-2.039 2.665L2.346 37.21c-.228.346-.472.666-.746 1.066L.072 37.5 12.15 19.151 0 .771 1.418 0a6.5 6.5 0 0 1 .551.695q5.454 8.188 10.863 16.416a5.543 5.543 0 0 1 .491 1.188 3.394 3.394 0 0 0-.686.586.6.6 0 0 0 .124.627.84.84 0 0 0 .718.081.61.61 0 0 0 .3-.573 2.786 2.786 0 0 0-.444-.748z" class="cls-5" data-name="Path 2372" transform="translate(30.594 269.59)"/>
                <path id="Path_2373" d="M13.369 18.272c.794 0 1.527.123 2.382.124l22.259.04v1.454a3.78 3.78 0 0 1-.6.066l-19.953-.036c-1.191 0-2.627-.3-3.511.18s-1.416 1.718-2.039 2.665L2.361 37.21c-.228.346-.472.666-.746 1.066L.087 37.5l12.078-18.349L0 .771 1.433 0a6.5 6.5 0 0 1 .551.695q5.439 8.188 10.863 16.416a6.445 6.445 0 0 1 .491 1.188 3.393 3.393 0 0 0-.686.586.623.623 0 0 0 .108.627.875.875 0 0 0 .733.081.61.61 0 0 0 .3-.573 2.772 2.772 0 0 0-.429-.748z" class="cls-5" data-name="Path 2373" transform="translate(239.578 269.97)"/>
                <path id="Path_2374" d="M0 19.932v-1.561h2.092l20.473.037a2.536 2.536 0 0 0 2.531-1.33c3.422-5.33 6.891-10.5 10.359-15.751.274-.426.578-.839.9-1.332l1.525.782-12.048 18.3 12.135 18.34-1.525.824c-.322-.454-.659-.908-.965-1.336-3.309-5-6.6-10-9.928-15-1.639-2.444-.8-2-3.9-2.008L1.8 19.856zm24.793.045c.259-.32.564-.559.533-.746a.787.787 0 0 0-.627-.481.813.813 0 0 0-.548.546c0 .133.337.334.643.628z" class="cls-5" data-name="Path 2374" transform="translate(36.7 348.578)"/>
                <path id="Path_2375" d="M36.382 0l1.528.763-12.062 18.322c4.045 6.091 8.059 12.168 12.134 18.313l-1.525.864c-.46-.708-.934-1.336-1.379-2.07-3.309-5-6.649-9.978-9.9-15a2.7 2.7 0 0 0-2.66-1.339c-6.885.054-13.74-.025-20.656-.037L0 19.812v-1.334a1.428 1.428 0 0 1 .442-.146l4.427.008 17.068.031a3.438 3.438 0 0 0 3.477-1.7c3.27-5.17 6.693-10.247 10.07-15.364.274-.428.579-.854.898-1.307zM24.808 18.35c-.289.306-.64.492-.624.693a.751.751 0 0 0 .551.535.8.8 0 0 0 .625-.466c.03-.187-.291-.427-.551-.761z" class="cls-5" data-name="Path 2375" transform="translate(140.686 138.19)"/>
                <path id="Path_2376" d="M0 .8L1.525 0c.49.761.981 1.483 1.532 2.217 3.309 5 6.634 9.978 9.9 15a2.452 2.452 0 0 0 2.415 1.205l20.488.037h2.122a7.485 7.485 0 0 0 .095 1.428c-.336 0-.61.079-.87.078l-21.511-.039a2.945 2.945 0 0 0-2.928 1.462C9.465 26.55 6.058 31.64 2.7 36.757L1.631 38.3.1 37.486l12.032-18.3C8.09 13.02 4.075 6.955 0 .8zm13.266 19.073c.243-.333.564-.559.533-.759a.807.807 0 0 0-.627-.468.746.746 0 0 0-.548.533c-.046.186.306.427.642.694z" class="cls-5" data-name="Path 2376" transform="translate(187.1 138.184)"/>
                <path id="Path_2377" d="M25.787 19.152l12.135 18.34-1.448.825c-.322-.454-.643-.908-.95-1.336-3.478-5.263-6.987-10.513-10.424-15.789a2.559 2.559 0 0 0-2.537-1.339l-20.651-.037L0 19.812v-1.454h2.061l20.473.037a2.6 2.6 0 0 0 2.546-1.325c3.438-5.33 6.952-10.66 10.435-15.87.259-.386.533-.759.822-1.2l1.528.763zm-.994-.736c-.3.293-.64.492-.64.693a.567.567 0 0 0 .556.478.585.585 0 0 0 .62-.409c.045-.187-.276-.427-.536-.761z" class="cls-5" data-name="Path 2377" transform="translate(245.216 138.313)"/>
                <path id="Path_2378" d="M36.337 0l1.529.8-12.048 18.3 12.134 18.325-1.525.838-5.163-7.787c-2.053-3.1-4.167-6.185-6.129-9.35a2.689 2.689 0 0 0-2.69-1.339c-6.824.054-13.664-.025-20.488-.037L0 19.746V18.3h2l20.473.037a2.7 2.7 0 0 0 2.668-1.329c3.422-5.33 6.936-10.58 10.42-15.87zM25.573 19.058c-.382-.227-.658-.508-.871-.482s-.4.346-.594.546c.214.174.444.468.673.468s.442-.279.793-.532z" class="cls-5" data-name="Path 2378" transform="translate(349.731 138.556)"/>
                <path id="Path_2379" d="M37.933 18.424v1.4a5.77 5.77 0 0 1-.748.105L21.831 19.9l-6.824-.012a2.048 2.048 0 0 0-2.013 1.024C9.465 26.35 5.875 31.747 2.346 37.17c-.228.333-.472.666-.73 1.066l-1.529-.8 12.048-18.3L0 .8 1.525 0c.291.414.6.828.873 1.242 3.509 5.343 7.048 10.592 10.5 15.908a2.611 2.611 0 0 0 2.568 1.339l20.472.037zm-24.7-.045c-.289.306-.64.492-.64.693a.567.567 0 0 0 .556.478.585.585 0 0 0 .62-.409c.03-.173-.276-.414-.536-.748z" class="cls-5" data-name="Path 2379" transform="translate(396.115 138.59)"/>
                <path id="Path_2380" d="M1.554 38.263L.1 37.419l12.035-18.268L0 .8 1.525 0 4.39 4.3c2.773 4.181 5.592 8.335 8.258 12.556a3.168 3.168 0 0 0 3.225 1.58c6.656-.055 13.312.024 19.969.036h2.107v1.521h-1.863l-20.473-.037a2.948 2.948 0 0 0-2.912 1.5C9.4 26.6 6 31.707 2.62 36.824a17.81 17.81 0 0 0-1.066 1.439zM14.028 19.1c-.4-.228-.658-.495-.871-.469s-.411.346-.609.546c.229.174.444.468.673.468s.456-.292.807-.545z" class="cls-5" data-name="Path 2380" transform="translate(396.614 349.275)"/>
                <path id="Path_2381" d="M37.979 18.424v1.428a5.8 5.8 0 0 1-.809.092l-20.656-.038a8.863 8.863 0 0 1-1.191 0 2.244 2.244 0 0 0-2.425 1.17C10.5 24.844 8 28.575 5.54 32.32c-1.308 1.972-2.6 4-3.94 5.943l-1.528-.817 12.047-18.309L0 .825 1.433 0c.322.441.613.855.9 1.336 3.513 5.343 7.036 10.592 10.515 15.908a2.443 2.443 0 0 0 2.4 1.232l20.472.037zm-25.616.661c.352.254.581.561.8.548s.457-.293.671-.466c-.184-.2-.368-.521-.6-.548s-.488.279-.869.505z" class="cls-5" data-name="Path 2381" transform="translate(292.084 349.059)"/>
                <path id="Path_2382" d="M0 19.919v-1.561h2.107l20.137.037a3.01 3.01 0 0 0 3.05-1.569c3.331-5.2 6.769-10.341 10.177-15.5.274-.426.578-.839.9-1.332l1.452.736c-.274.453-.547.92-.852 1.333-3.392 5.17-6.739 10.354-10.238 15.457a2.319 2.319 0 0 0 .007 3.082c3.478 5.143 6.879 10.325 10.3 15.495.26.387.506.775.812 1.256l-1.418.851c-.368-.521-.72-1.015-1.057-1.536-3.4-5.129-6.818-10.232-10.158-15.4a2.958 2.958 0 0 0-2.9-1.513c-6.839.068-13.74-.025-20.488-.037zm25.585-.674c-.352-.267-.581-.561-.81-.562s-.442.306-.671.466c.2.2.383.521.6.548s.488-.239.885-.452z" class="cls-5" data-name="Path 2382" transform="translate(245.715 348.971)"/>
                <path id="Path_2383" d="M1.54 0l8.289 12.516c1.011 1.509 2.068 2.992 2.972 4.541a2.62 2.62 0 0 0 2.66 1.339c6.778-.054 13.541.025 20.3.037h2.153c0 .507.079.921.126 1.428a7.068 7.068 0 0 1-.855.092l-17.4-.032c-1.313 0-2.626.075-3.924-.007a3.143 3.143 0 0 0-3.218 1.555c-3.164 5-6.465 9.914-9.72 14.858l-1.308 1.962-1.529-.8 12.049-18.325Q6.006 9.974 0 .824zm11.634 19.859c.289-.293.64-.492.624-.679a.765.765 0 0 0-.551-.548.838.838 0 0 0-.625.479c-.029.189.292.428.552.748z" class="cls-5" data-name="Path 2383" transform="translate(187.569 348.896)"/>
                <path id="Path_2384" d="M12.119 19.15C8.074 13.033 4.045 6.969 0 .838L1.525 0l1.532 2.217c3.309 5 6.649 9.991 9.9 15.013a2.5 2.5 0 0 0 2.43 1.205l20.473.037h2.137a7.348 7.348 0 0 0 .095 1.428 8.262 8.262 0 0 1-.892.1l-21.5-.039a2.941 2.941 0 0 0-2.928 1.476c-3.216 5.02-6.532 9.99-9.818 14.974l-1.293 1.932-1.529-.83zm1.878 0c-.382-.228-.658-.495-.871-.469s-.4.346-.594.546c.214.161.444.454.673.468s.442-.333.731-.586z" class="cls-5" data-name="Path 2384" transform="translate(83.115 348.693)"/>
                <path id="Path_2385" d="M0 19.759v-1.521h2.107l20.137.037a3.134 3.134 0 0 0 2.989-1.5C28.594 11.553 32.062 6.369 35.5 1.159c.243-.373.517-.746.806-1.159l1.452.723c-.274.453-.547.933-.837 1.333-3.423 5.2-6.815 10.42-10.314 15.59a2.1 2.1 0 0 0 .007 2.8c3.478 5.143 6.864 10.325 10.3 15.508l.889 1.336-1.4.838c-.337-.468-.674-.922-.98-1.336-3.4-5.129-6.833-10.245-10.158-15.414a3.138 3.138 0 0 0-3.072-1.633c-6.778.081-13.541-.025-20.3-.037zm25.585-.687c-.352-.254-.581-.561-.81-.562s-.442.306-.671.479c.2.187.383.508.6.548s.534-.252.885-.465z" class="cls-5" data-name="Path 2385" transform="translate(35.951 32.697)"/>
                <path id="Path_2386" d="M12.134 19.07L0 .784 1.525 0l.888 1.269C5.891 6.518 9.4 11.768 12.832 17.044a2.669 2.669 0 0 0 2.66 1.339l20.3.037h2.137a5.6 5.6 0 0 0 .125 1.414 7.06 7.06 0 0 1-.855.092l-20.009-.033a11.807 11.807 0 0 1-1.374 0 2.9 2.9 0 0 0-3.2 1.542c-3.148 4.944-6.419 9.821-9.644 14.658l-1.387 2.05c-.5-.254-.917-.482-1.529-.8zm.994.722c.3-.306.64-.506.64-.693a.774.774 0 0 0-.551-.535.779.779 0 0 0-.625.479c-.045.173.276.441.536.748z" class="cls-5" data-name="Path 2386" transform="translate(82.351 32.718)"/>
                <path id="Path_2387" d="M37.922 37.372l-1.418.811c-.26-.361-.551-.708-.8-1.082-3.539-5.343-7.094-10.686-10.587-16.029a2.608 2.608 0 0 0-2.537-1.339L1.927 19.7 0 19.692v-1.454h2.046l20.3.037a2.857 2.857 0 0 0 2.821-1.329c3.407-5.33 6.936-10.58 10.42-15.87.228-.346.472-.666.761-1.079l1.528.763-12.043 18.312q6.006 9.083 12.089 18.3zm-12.334-18.38c-.382-.227-.658-.508-.887-.482s-.4.359-.594.546c.229.174.444.468.673.482s.457-.293.808-.546z" class="cls-5" data-name="Path 2387" transform="translate(244.966 33.077)"/>
                <path id="Path_2388" d="M1.554 38.236l-1.529-.87 12.048-18.282L0 .8 1.448 0c.306.414.6.828.888 1.256C5.784 6.465 9.292 11.648 12.648 16.91a3.169 3.169 0 0 0 3.057 1.513l20.137.037h2.061v1.414a6.51 6.51 0 0 1-.763.092l-17.892-.032-4.259-.008a1.978 1.978 0 0 0-2 1.037c-3.311 5.094-6.673 10.158-10.02 15.221-.441.64-.897 1.279-1.415 2.052zm12.534-19.188c-.382-.227-.658-.508-.871-.482s-.4.359-.594.546c.214.174.444.468.673.468s.366-.28.792-.532z" class="cls-5" data-name="Path 2388" transform="translate(291.366 33.084)"/>
                <path id="Path_2389" d="M1.585 38.29l-1.422-.83c.259-.426.5-.866.791-1.333 3.438-5.25 6.876-10.5 10.375-15.724a1.945 1.945 0 0 0-.006-2.548C7.814 12.673 4.382 7.437.935 2.227.628 1.76.322 1.279 0 .758L1.372 0a4.357 4.357 0 0 1 .474.521l10.281 15.508a6.643 6.643 0 0 1 .582.908 2.584 2.584 0 0 0 2.767 1.463c6.763-.054 13.541.025 20.3.037h2.107v1.508H36.02L15.541 19.9a2.9 2.9 0 0 0-2.9 1.5c-3.164 4.93-6.435 9.807-9.659 14.658zm11.662-19.858c-.289.306-.64.492-.64.693a.567.567 0 0 0 .556.478.585.585 0 0 0 .62-.409c.03-.213-.276-.454-.536-.788z" class="cls-5" data-name="Path 2389" transform="translate(396.349 243.932)"/>
                <path id="Path_2390" d="M36.291 0l1.529.8c-3.985 6.05-7.971 12.113-12.048 18.282l12.134 18.343-1.4.825c-.26-.361-.551-.708-.8-1.082-3.538-5.343-7.106-10.686-10.586-16.029a2.592 2.592 0 0 0-2.537-1.339l-20.656-.037L0 19.759v-1.508h2.03l20.3.037a2.873 2.873 0 0 0 2.821-1.329c3.422-5.33 6.936-10.66 10.42-15.884zM25.512 19.045c-.382-.214-.658-.495-.871-.469s-.4.346-.594.546c.214.174.444.468.673.468s.442-.279.792-.545z" class="cls-5" data-name="Path 2390" transform="translate(350.042 243.912)"/>
                <path id="Path_2391" d="M37.872 18.33v1.414a6.8 6.8 0 0 1-.778.092c-6.7-.012-13.419.109-20.121-.037a4.934 4.934 0 0 0-5.123 2.659c-2.9 4.771-6.084 9.328-9.127 14.085L1.6 38.236l-1.529-.79 12.064-18.322Q6.006 9.947 0 .784L1.525 0c.291.414.6.828.873 1.256 3.432 5.169 6.894 10.325 10.25 15.521a3.145 3.145 0 0 0 3.164 1.647c6.717-.068 13.419.024 20.137.037zm-23.921.73c-.352-.254-.566-.548-.8-.548s-.457.306-.671.479c.2.187.368.508.6.535s.488-.239.945-.465z" class="cls-5" data-name="Path 2391" transform="translate(291.926 243.85)"/>
                <path id="Path_2392" d="M25.894 19.126c4.076 6.184 8.074 12.209 12.119 18.326l-1.525.864-1.394-2.07c-3.309-5-6.649-9.978-9.9-15.013a2.718 2.718 0 0 0-2.66-1.339L1.9 19.856 0 19.852v-1.334c.153 0 .3-.16.442-.159l8.366.015 13.312.024a3.138 3.138 0 0 0 3.2-1.568c3.316-5.21 6.769-10.34 10.161-15.5.289-.426.593-.839.9-1.332l1.528.763c-3.968 6.132-7.969 12.208-12.015 18.365zm-.2 0c-.382-.214-.658-.495-.887-.469s-.4.346-.594.546c.229.174.444.468.673.468s.457-.333.808-.586z" class="cls-5" data-name="Path 2392" transform="translate(245.359 243.682)"/>
                <path id="Path_2393" d="M37.918 18.45v1.334a3.906 3.906 0 0 1-.732.119l-13.251-.024-8.7-.016a2.285 2.285 0 0 0-2.272 1.143C9.4 26.5 5.784 31.947 2.194 37.4c-.167.267-.365.506-.578.813l-1.529-.79 12.048-18.312Q6.1 9.961 0 .771L1.525 0c.26.361.551.708.8 1.082 3.535 5.343 7.09 10.686 10.583 16.029a2.61 2.61 0 0 0 2.553 1.339c6.824-.054 13.648.025 20.473.037zm-23.906.65c-.382-.214-.658-.495-.871-.469s-.411.359-.609.546c.229.174.444.468.673.468s.457-.293.808-.546z" class="cls-5" data-name="Path 2393" transform="translate(187.365 243.54)"/>
                <path id="Path_2394" d="M0 19.839v-1.508h2.107l19.953.036a3.32 3.32 0 0 0 3.309-1.715c3.316-5.2 6.769-10.327 10.161-15.484.259-.386.533-.76.822-1.173l1.528.768-12.047 18.309L37.937 37.4l-1.433.865c-.444-.655-.889-1.336-1.3-1.937-3.309-5-6.665-9.978-9.9-15.013a2.976 2.976 0 0 0-2.92-1.515c-6.824.068-13.648-.025-20.473-.037zm24.778-1.449c-.289.293-.64.492-.624.693a.751.751 0 0 0 .551.535.8.8 0 0 0 .625-.466c.029-.187-.292-.428-.552-.762z" class="cls-5" data-name="Path 2394" transform="translate(140.966 243.505)"/>
                <path id="Path_2395" d="M1.57 38.263l-1.407-.816c.274-.426.517-.853.791-1.333 3.423-5.2 6.815-10.42 10.3-15.59a2.149 2.149 0 0 0-.007-2.815C7.707 12.539 4.305 7.3.843 2.094.567 1.666.291 1.225 0 .758L1.357 0a3.364 3.364 0 0 1 .474.521q5.148 7.761 10.281 15.508a6.267 6.267 0 0 1 .506.775 2.773 2.773 0 0 0 3.057 1.596c6.763-.068 13.541.025 20.3.037h1.969v1.508h-1.863L15.617 19.9a2.9 2.9 0 0 0-2.917 1.493c-3.331 5.2-6.769 10.34-10.177 15.5-.299.407-.634.864-.953 1.37zm12.412-19.2c-.382-.214-.658-.495-.871-.469s-.4.346-.594.546c.214.174.444.468.673.468s.502-.281.792-.547z" class="cls-5" data-name="Path 2395" transform="translate(82.819 243.39)"/>
                <path id="Path_2396" d="M0 19.812v-1.334a1.643 1.643 0 0 1 .427-.159l4.259.008 17.068.031c3.053.006 2.26.324 3.675-1.808 3.377-5.064 6.693-10.14 10.04-15.217.289-.426.593-.839.9-1.332L37.9.763 25.832 19.072 37.952 37.4l-1.525.864-1.394-2.07c-3.264-4.982-6.588-9.924-9.776-14.987a2.7 2.7 0 0 0-2.66-1.339l-20.64-.037zm25.6-.674c-.352-.267-.581-.561-.81-.562s-.442.306-.671.479c.2.187.383.508.6.535s.534-.239.881-.452z" class="cls-5" data-name="Path 2396" transform="translate(36.436 243.342)"/>
                <path id="Path_2397" d="M36.367 0L37.9.763 25.832 19.085c4.03 6.091 8.044 12.168 12.119 18.313l-1.525.864-1.3-1.937c-3.34-5.049-6.711-10.071-9.99-15.147a2.7 2.7 0 0 0-2.66-1.339c-6.885.054-13.74-.025-20.64-.037L0 19.8v-1.334a1.858 1.858 0 0 1 .427-.159l8.2.015 13.48.024a3.138 3.138 0 0 0 3.2-1.568c3.316-5.21 6.769-10.34 10.161-15.5.29-.399.595-.825.899-1.278zM25.6 19.125c-.352-.267-.581-.561-.8-.562s-.457.306-.686.479c.2.187.383.508.6.535s.534-.239.884-.452z" class="cls-5" data-name="Path 2397" transform="translate(36.186 138)"/>
                <path id="Path_2398" d="M1.539 38.263L.01 37.446q6.009-9.114 12.048-18.3L0 .825 1.433 0c.322.454.628.868.9 1.336 3.513 5.343 7.052 10.592 10.515 15.908a2.465 2.465 0 0 0 2.415 1.218L35.9 18.5h1.969a6.259 6.259 0 0 0 .11 1.414 7.649 7.649 0 0 1-.87.092l-21.5-.039a2.93 2.93 0 0 0-2.943 1.462C9.465 26.444 6.149 31.414 2.863 36.4c-.426.53-.863 1.2-1.324 1.863zM13.936 19.1c-.382-.214-.658-.495-.871-.469s-.4.359-.594.546c.214.174.444.468.673.468s.502-.278.792-.545z" class="cls-5" data-name="Path 2398" transform="translate(82.616 137.994)"/>
                <path id="Path_2399" d="M37.983 37.505l-1.525.838-1.287-1.91c-3.279-4.956-6.6-9.884-9.806-14.893a3.342 3.342 0 0 0-3.347-1.647c-6.7.081-13.419-.024-20.121-.037L0 19.852v-1.521h2.107l20.473.037a2.568 2.568 0 0 0 2.531-1.33c3.438-5.33 6.936-10.594 10.435-15.87.243-.386.517-.76.806-1.173l1.528.742-12.063 18.322zM24.858 19.884c.259-.333.579-.559.548-.746a.817.817 0 0 0-.627-.481.757.757 0 0 0-.548.546c-.016.186.336.387.627.681z" class="cls-5" data-name="Path 2399" transform="translate(350.154 349.187)"/>
                <path id="Path_2400" d="M37.835.8L25.787 19.112l12.119 18.34-1.525.838-5.163-7.79c-2.053-3.112-4.167-6.185-6.129-9.35a2.672 2.672 0 0 0-2.69-1.339l-20.487-.035L0 19.772v-1.494h1.832l20.656.038a2.694 2.694 0 0 0 2.653-1.329c3.422-5.33 6.936-10.594 10.435-15.87.213-.347.456-.68.761-1.119zM24.69 19.831c.289-.293.64-.492.64-.679a.783.783 0 0 0-.566-.548.79.79 0 0 0-.61.479c-.031.186.275.427.536.748z" class="cls-5" data-name="Path 2400" transform="translate(141.215 348.861)"/>
                <path id="Path_2401" d="M37.937 37.465l-1.387.758a2.525 2.525 0 0 1-.4-.374c-3.57-5.343-7.109-10.779-10.725-16.162-1.44-2.164-.722-1.8-3.516-1.807l-19.951-.037L0 19.839v-1.521h2.015l20.3.037a2.9 2.9 0 0 0 2.928-1.5c3.392-5.33 6.876-10.5 10.344-15.751L36.352 0l1.529.777-12.063 18.308c3.999 6.091 8.059 12.209 12.119 18.38zM25.589 19.152c-.352-.267-.581-.561-.8-.562s-.457.306-.671.479c.2.187.368.521.6.548s.49-.252.871-.465z" class="cls-5" data-name="Path 2401" transform="translate(349.466 33.187)"/>
                <path id="Path_2402" d="M37.964 18.437a7.451 7.451 0 0 0 .079 1.334 5.092 5.092 0 0 1-.61.146L26.166 19.9l-10.916-.02a2.274 2.274 0 0 0-2.287 1.13C9.419 26.483 5.783 31.933 2.194 37.4c-.167.253-.35.506-.578.813l-1.529-.78 12.048-18.309Q6.1 9.974 0 .785L1.433 0c.276.361.551.708.8 1.082 3.539 5.343 7.109 10.686 10.6 16.029a2.592 2.592 0 0 0 2.537 1.339l20.488.037zm-23.891.663c-.4-.228-.658-.508-.871-.482s-.411.359-.609.546c.229.174.444.468.673.468s.457-.278.807-.532z" class="cls-5" data-name="Path 2402" transform="translate(395.82 33.221)"/>
                <path id="Path_2403" d="M37.948 18.424v1.428c-.305 0-.565.079-.839.079l-21.5-.039a2.963 2.963 0 0 0-2.943 1.462c-3.209 5.024-6.526 9.994-9.811 14.978L1.554 38.2l-1.529-.83 12.032-18.3L0 .838 1.525 0l1.532 2.217c3.309 5.009 6.649 9.991 9.913 15.014a2.5 2.5 0 0 0 2.415 1.218l20.473.037zm-23.936.744c-.352-.254-.581-.561-.8-.562s-.457.306-.686.479c.2.187.383.508.6.535s.49-.24.886-.453z" class="cls-5" data-name="Path 2403" transform="translate(186.866 32.855)"/>
                <path id="Path_2404" d="M1.539 38.249l-1.452-.843 12.048-18.282L0 .785 1.433 0c.276.361.551.721.812 1.1 3.539 5.338 7.094 10.681 10.587 16.024a2.577 2.577 0 0 0 2.553 1.339l20.655.037h1.893v1.4a6.185 6.185 0 0 1-.748.105l-15.022-.027-7.16-.013a2.016 2.016 0 0 0-2.013 1.024Q7.67 29.135 2.346 37.25zm11.681-18.4c.259-.333.579-.573.548-.759a.8.8 0 0 0-.627-.468.792.792 0 0 0-.564.533c-.015.2.352.441.643.708z" class="cls-5" data-name="Path 2404" transform="translate(291.615 138.387)"/>
                <path id="Path_2405" d="M0 19.839v-1.521h2.015l20.64.037a2.489 2.489 0 0 0 2.424-1.223c3.438-5.33 6.936-10.58 10.42-15.87L36.383 0l1.529.777-12.049 18.308L37.967 37.4l-1.433.851c-.383-.548-.735-1.055-1.072-1.563-3.462-5.224-6.925-10.42-10.327-15.669a2.49 2.49 0 0 0-2.43-1.192l-20.656-.038zm24.8-1.463c-.289.306-.64.492-.624.693a.756.756 0 0 0 .536.535.8.8 0 0 0 .64-.466c.038-.187-.283-.428-.544-.762z" class="cls-5" data-name="Path 2405" transform="translate(140.436 32.807)"/>
                <path id="Path_2406" d="M0 19.639V18.3h1.924l20.32.037a3.014 3.014 0 0 0 2.989-1.529C28.563 11.633 32 6.489 35.409 1.332L36.306 0l1.528.763c-3.97 6.063-7.94 12.113-12 18.269L37.921 37.3l-1.525.811c-.322-.454-.643-.908-.95-1.336-3.416-5.284-6.925-10.534-10.346-15.823a2.592 2.592 0 0 0-2.537-1.339l-20.652-.037zm25.555-.407c-.321-.321-.429-.548-.627-.548a2.772 2.772 0 0 0-.717.185c.077.2.123.547.261.574a3.917 3.917 0 0 0 1.083-.211z" class="cls-5" data-name="Path 2406" transform="translate(35.827 -19.907)"/>
                <path id="Path_2407" d="M36.352 0l1.528.763C33.865 6.8 29.94 12.849 25.833 19.005l12.089 18.273-1.448.811-.965-1.336c-3.478-5.249-6.986-10.5-10.419-15.788a2.558 2.558 0 0 0-2.522-1.339l-20.657-.037L0 19.586v-1.334h1.924l20.32.037a3.01 3.01 0 0 0 3.05-1.569c3.331-5.2 6.769-10.327 10.177-15.5zM25.558 18.858a3.4 3.4 0 0 0-1.008-.269c-.153 0-.243.346-.365.533.229.107.459.308.672.281s.365-.265.701-.545z" class="cls-5" data-name="Path 2407" transform="translate(244.842 -19.501)"/>
                <path id="Path_2408" d="M37.918 18.437v1.241a7.7 7.7 0 0 1-.87.078l-21.508-.039a2.936 2.936 0 0 0-2.851 1.462c-3.331 5.2-6.769 10.34-10.161 15.5-.3.466-.639.933-.959 1.332l-1.528-.75 12.048-18.2L0 .784 1.525 0c.291.427.6.842.873 1.256 3.493 5.263 7 10.512 10.419 15.788a2.736 2.736 0 0 0 2.675 1.339c6.763-.054 13.541.025 20.3.037zm-23.952.6c-.336-.2-.581-.455-.734-.415a3.137 3.137 0 0 0-.64.492c.214.134.413.348.627.348s.412-.215.747-.428z" class="cls-5" data-name="Path 2408" transform="translate(291.241 -19.493)"/>
                <path id="Path_2409" d="M1.539 38.1L.01 37.326 12.027 19.07C8.028 12.953 4.03 6.929 0 .825L1.433 0c.322.454.628.868.9 1.336 3.528 5.343 7.052 10.592 10.515 15.922a2.486 2.486 0 0 0 2.43 1.205l20.472.037h2.107v1.32H36.04l-20.656-.038a2.553 2.553 0 0 0-2.546 1.329C9.434 26.443 5.951 31.614 2.5 36.864a10.467 10.467 0 0 0-.961 1.236zm12.4-19.042c-.336-.214-.581-.468-.734-.428a3.136 3.136 0 0 0-.64.492c.214.134.413.348.627.348s.424-.21.744-.409z" class="cls-5" data-name="Path 2409" transform="translate(82.241 -19.887)"/>
                <path id="Path_2410" d="M36.352 0l1.529.817-12.048 18.188q5.975 9.056 12.089 18.273l-1.4.771a2.763 2.763 0 0 1-.459-.521q-5.32-8.014-10.621-16.028a7.467 7.467 0 0 1-.6-.908 1.743 1.743 0 0 0-1.834-.951l-11.616-.021L0 19.6v-1.334h2.03l20.488.037a2.654 2.654 0 0 0 2.562-1.263c3.438-5.33 6.936-10.594 10.42-15.884.259-.33.533-.703.852-1.156zM25.527 18.992c-.336-.214-.581-.468-.749-.428s-.427.319-.625.492c.2.12.413.348.627.361s.412-.226.747-.425z" class="cls-5" data-name="Path 2410" transform="translate(140.342 -19.691)"/>
                <path id="Path_2411" d="M.071 37.313C4.118 31.183 8.1 25.12 12.089 19.057L0 .784 1.525 0c.291.414.6.828.888 1.256C5.861 6.465 9.354 11.661 12.74 16.91a2.959 2.959 0 0 0 2.919 1.513c6.7-.055 13.419.024 20.137.037h2.137a8.618 8.618 0 0 0 .156 1.241 8.519 8.519 0 0 1-.9.078l-21.511-.039a2.971 2.971 0 0 0-2.978 1.386c-3.331 5.2-6.769 10.327-10.161 15.5l-.974 1.332zm13.91-18.426c-.382-.161-.627-.361-.84-.322s-.381.266-.564.426a2.378 2.378 0 0 0 .734.415c.259.041.35-.266.67-.519z" class="cls-5" data-name="Path 2411" transform="translate(186.726 -19.63)"/>
                <path id="Path_2412" d="M36.367 0L37.9.817c-3.955 6.023-7.925 11.993-12 18.216q5.945 8.976 12.043 18.326l-1.525.8-5.918-8.952c-1.854-2.805-3.754-5.583-5.562-8.415a2.163 2.163 0 0 0-2.14-1.085l-20.825-.038L0 19.666v-1.334h1.847l20.488.037a2.873 2.873 0 0 0 2.821-1.329C28.548 11.713 32.047 6.529 35.5 1.293zM25.542 18.978c-.336-.2-.6-.455-.749-.415a2.737 2.737 0 0 0-.625.492c.2.134.413.348.627.361s.412-.225.747-.438z" class="cls-5" data-name="Path 2412" transform="translate(349.342 -19.311)"/>
                <path id="Path_2413" d="M1.6 38.076l-1.528-.75 12.017-18.269L0 .784 1.525 0l.888 1.269C5.891 6.518 9.4 11.768 12.832 17.044a2.7 2.7 0 0 0 2.66 1.339c6.778-.054 13.541.025 20.32.037h2.046A10.737 10.737 0 0 0 38 19.664a8.518 8.518 0 0 1-.9.078L15.586 19.7a2.931 2.931 0 0 0-2.867 1.489C9.4 26.377 5.966 31.52 2.558 36.677c-.304.48-.639.933-.958 1.399zm12.412-19.135c-.382-.161-.627-.348-.84-.322s-.381.266-.564.426a2.378 2.378 0 0 0 .734.415c.258.04.35-.267.67-.519z" class="cls-5" data-name="Path 2413" transform="translate(395.711 -19.304)"/>
            </g>
        </g>
    </g>
</svg>
