<svg xmlns="http://www.w3.org/2000/svg" id="prefix__Sidepane_Icons_Savings_Inactive" width="24" height="24" data-name="Sidepane/Icons/Savings/Inactive" viewBox="0 0 24 24">
    <g id="prefix__Group">
        <g id="prefix__bxs-home" transform="translate(4 4.011)">
            <path id="prefix__Path" fill="#bf9931" d="M15.042 7.86L8.185.241a.785.785 0 0 0-1.132 0L.2 7.86a.762.762 0 0 0 .562 1.272h1.524v5.333a.762.762 0 0 0 .762.762h2.285a.762.762 0 0 0 .762-.762v-3.047h3.048v3.048a.762.762 0 0 0 .762.762h2.285a.762.762 0 0 0 .762-.762V9.132h1.524a.762.762 0 0 0 .566-1.272z"/>
        </g>
    </g>
</svg>
