<svg xmlns="http://www.w3.org/2000/svg" width="32.737" height="32.737" viewBox="0 0 32.737 32.737">
  <g id="iconfinder_face_ID_2639811" transform="translate(1 1)">
    <path id="Path_262" d="M0,0A6.727,6.727,0,0,0,8.208,0" transform="translate(11.261 22.349)" fill="none" stroke="#484848" stroke-linecap="round" stroke-linejoin="round" stroke-miterlimit="10" stroke-width="2"/>
    <path id="Line_5" d="M.667,0V2.667" transform="translate(21.365 11.365)" fill="none" stroke="#484848" stroke-linecap="round" stroke-linejoin="round" stroke-miterlimit="10" stroke-width="2"/>
    <path id="Line_6" d="M.667,0V2.667" transform="translate(8.032 11.365)" fill="none" stroke="#484848" stroke-linecap="round" stroke-linejoin="round" stroke-miterlimit="10" stroke-width="2"/>
    <path id="Path_263" d="M1.4,0V5.587A1.4,1.4,0,0,1,0,6.984" transform="translate(13.968 11.175)" fill="none" stroke="#484848" stroke-linecap="round" stroke-linejoin="round" stroke-miterlimit="10" stroke-width="2"/>
    <g id="Group_1951">
      <path id="Path_264" d="M6.984,6.984V2.8A2.8,2.8,0,0,0,4.184,0H0" transform="translate(23.747 0)" fill="none" stroke="#484848" stroke-linecap="round" stroke-linejoin="round" stroke-miterlimit="10" stroke-width="2"/>
      <path id="Path_265" d="M6.984,0H2.8A2.8,2.8,0,0,0,0,2.8V6.984" transform="translate(0)" fill="none" stroke="#484848" stroke-linecap="round" stroke-linejoin="round" stroke-miterlimit="10" stroke-width="2"/>
      <path id="Path_266" d="M0,6.984H4.191a2.8,2.8,0,0,0,2.8-2.8V0" transform="translate(23.747 23.747)" fill="none" stroke="#484848" stroke-linecap="round" stroke-linejoin="round" stroke-miterlimit="10" stroke-width="2"/>
      <path id="Path_267" d="M0,0V4.191a2.8,2.8,0,0,0,2.8,2.8H6.984" transform="translate(0 23.747)" fill="none" stroke="#484848" stroke-linecap="round" stroke-linejoin="round" stroke-miterlimit="10" stroke-width="2"/>
    </g>
  </g>
</svg>
