<svg xmlns="http://www.w3.org/2000/svg" width="17.759" height="17.759" viewBox="0 0 17.759 17.759">
  <g id="Iconly_Light_Category" data-name="Iconly/Light/Category" transform="translate(-1.5 -1.5)">
    <g id="Category" transform="translate(2 2)">
      <path id="Stroke_1" data-name="Stroke 1" d="M2.052,0H4.789A2.061,2.061,0,0,1,6.84,2.07V4.83A2.061,2.061,0,0,1,4.789,6.9H2.052A2.062,2.062,0,0,1,0,4.83V2.07A2.061,2.061,0,0,1,2.052,0Z" transform="translate(9.918 0)" fill="none" stroke="#7e9195" stroke-linecap="round" stroke-linejoin="round" stroke-miterlimit="10" stroke-width="1"/>
      <path id="Stroke_3" data-name="Stroke 3" d="M2.052,0H4.788A2.061,2.061,0,0,1,6.84,2.07V4.83A2.062,2.062,0,0,1,4.788,6.9H2.052A2.062,2.062,0,0,1,0,4.83V2.07A2.061,2.061,0,0,1,2.052,0Z" transform="translate(0 0)" fill="none" stroke="#7e9195" stroke-linecap="round" stroke-linejoin="round" stroke-miterlimit="10" stroke-width="1"/>
      <path id="Stroke_5" data-name="Stroke 5" d="M2.052,0H4.788A2.061,2.061,0,0,1,6.84,2.071V4.83A2.061,2.061,0,0,1,4.788,6.9H2.052A2.061,2.061,0,0,1,0,4.83V2.071A2.061,2.061,0,0,1,2.052,0Z" transform="translate(0 9.859)" fill="none" stroke="#7e9195" stroke-linecap="round" stroke-linejoin="round" stroke-miterlimit="10" stroke-width="1"/>
      <path id="Stroke_7" data-name="Stroke 7" d="M2.052,0H4.789A2.061,2.061,0,0,1,6.84,2.071V4.83A2.061,2.061,0,0,1,4.789,6.9H2.052A2.061,2.061,0,0,1,0,4.83V2.071A2.061,2.061,0,0,1,2.052,0Z" transform="translate(9.918 9.859)" fill="none" stroke="#7e9195" stroke-linecap="round" stroke-linejoin="round" stroke-miterlimit="10" stroke-width="1"/>
    </g>
  </g>
</svg>
