<svg xmlns="http://www.w3.org/2000/svg" xmlns:xlink="http://www.w3.org/1999/xlink" width="375" height="812" viewBox="0 0 375 812">
  <defs>
    <clipPath id="clip-path">
      <rect id="Mask" width="375" height="812" fill="none"/>
    </clipPath>
  </defs>
  <g id="Patterns" clip-path="url(#clip-path)">
    <g id="Patterns-2" data-name="Patterns" transform="translate(-46 -23)">
      <path id="Shape" d="M50.622,104.532a2.939,2.939,0,1,1,2.08.863A2.939,2.939,0,0,1,50.622,104.532ZM63.062,92.1a2.94,2.94,0,1,1,2.08.863A2.94,2.94,0,0,1,63.062,92.1Zm-24.88,0a2.939,2.939,0,1,1,2.08.863A2.939,2.939,0,0,1,38.183,92.1ZM75.5,79.663a2.939,2.939,0,1,1,2.08.863A2.939,2.939,0,0,1,75.5,79.663Zm-24.88,0a2.939,2.939,0,1,1,2.08.863A2.939,2.939,0,0,1,50.622,79.663Zm-24.88,0a2.939,2.939,0,1,1,2.08.863A2.939,2.939,0,0,1,25.743,79.663Zm62.2-12.44a2.94,2.94,0,1,1,2.08.862A2.94,2.94,0,0,1,87.943,67.223Zm-24.881,0a2.941,2.941,0,1,1,2.08.862A2.941,2.941,0,0,1,63.062,67.223Zm-24.88,0a2.94,2.94,0,1,1,2.08.862A2.94,2.94,0,0,1,38.183,67.223Zm-24.88,0a2.94,2.94,0,1,1,2.08.862A2.94,2.94,0,0,1,13.3,67.223Zm87.08-12.441a2.939,2.939,0,1,1,2.08.863A2.939,2.939,0,0,1,100.382,54.782Zm-24.88,0a2.939,2.939,0,1,1,2.08.863A2.939,2.939,0,0,1,75.5,54.782Zm-24.88,0a2.939,2.939,0,1,1,2.08.863A2.939,2.939,0,0,1,50.622,54.782Zm-24.88,0a2.939,2.939,0,1,1,2.08.863A2.939,2.939,0,0,1,25.743,54.782Zm-24.881,0a2.94,2.94,0,1,1,2.08.863A2.94,2.94,0,0,1,.862,54.782Zm87.08-12.44a2.939,2.939,0,1,1,2.08.863A2.939,2.939,0,0,1,87.943,42.342Zm-24.881,0a2.94,2.94,0,1,1,2.08.863A2.94,2.94,0,0,1,63.062,42.342Zm-24.88,0a2.939,2.939,0,1,1,2.08.863A2.939,2.939,0,0,1,38.183,42.342Zm-24.88,0a2.939,2.939,0,1,1,2.08.863A2.939,2.939,0,0,1,13.3,42.342ZM75.5,29.9a2.939,2.939,0,1,1,2.08.863A2.939,2.939,0,0,1,75.5,29.9Zm-24.88,0a2.939,2.939,0,1,1,2.08.863A2.939,2.939,0,0,1,50.622,29.9Zm-24.88,0a2.939,2.939,0,1,1,2.08.863A2.939,2.939,0,0,1,25.743,29.9Zm37.319-12.44a2.94,2.94,0,1,1,2.08.863A2.94,2.94,0,0,1,63.062,17.463Zm-24.88,0a2.939,2.939,0,1,1,2.08.863A2.939,2.939,0,0,1,38.183,17.463Zm12.44-12.44a2.94,2.94,0,1,1,2.08.862A2.94,2.94,0,0,1,50.622,5.023Z" transform="translate(189.528 0)" fill="#244579" opacity="0.05"/>
      <path id="Path" d="M70.12,84.64,0,14.52A49.582,49.582,0,0,1,70.12,84.64Z" transform="translate(0 90.302)" fill="#da5077" opacity="0.05"/>
      <path id="Path-2" data-name="Path" d="M0,0,85.45,85.45H0Z" transform="translate(380.06 63.013)" fill="#da5077" opacity="0.05"/>
      <path id="Path-3" data-name="Path" d="M13.4,11.36,8.95,6.91,13.4,2.46A1.442,1.442,0,0,0,11.36.42L6.91,4.87,2.46.42A1.442,1.442,0,0,0,.42,2.46L4.87,6.91.42,11.36A1.442,1.442,0,0,0,2.46,13.4L6.91,8.95l4.45,4.45a1.442,1.442,0,0,0,2.04-2.04Z" transform="translate(328.81 119.442)" fill="#ffc263" opacity="0.05"/>
      <path id="Path-4" data-name="Path" d="M13.4,11.36,8.95,6.91,13.4,2.46A1.442,1.442,0,0,0,11.36.42L6.91,4.87,2.46.42A1.442,1.442,0,0,0,.42,2.46L4.87,6.91.42,11.36A1.442,1.442,0,0,0,2.46,13.4L6.91,8.95l4.45,4.45a1.442,1.442,0,0,0,2.04-2.04Z" transform="translate(161.56 105.613)" fill="#da5077" opacity="0.05"/>
      <g id="Group_2" data-name="Group 2" transform="translate(113.93 150.525)" opacity="0.05">
        <path id="Shape-2" data-name="Shape" d="M24.294,39.218l-.79-.79a6.768,6.768,0,0,1-1.01-5.01c-2.93-.329-5.37-.249-5.071,3.64.041.47-.48.97-.74,1.46-.21.21-.4.41-.6.6-2.18,1.46-4.42,1.75-6.59.069s-2.36-3.939-1.52-6.739c-2.83.609-5.379.6-7.05-1.931-1.43-2.16-1.09-4.28.33-6.32.18-.17.35-.34.53-.51a4.6,4.6,0,0,1,3.36-1.2c2.15.43,1.76-.57,1.87-2.08.159-2.09-.06-2.95-2.41-2.61-.85.12-1.83-.64-2.76-1l-.74-.741c-1.25-2.08-1.63-4.209-.12-6.32,1.67-2.34,4.04-2.54,6.95-1.759-.74-2.86-.63-5.37,1.89-7.03,2.15-1.42,4.26-1.06,6.29.339.17.18.34.35.509.53.41,1.021,1.31,2.111,1.15,3.03-.419,2.48.76,2.03,2.48,2.17,2.07.17,2.25-.39,2.19-2.16-.03-1,.75-2.03,1.17-3.04.18-.19.37-.37.55-.56,2.17-1.52,4.4-1.78,6.58-.13s2.43,3.919,1.59,6.7c2.76-.48,5.34-.6,7.02,1.95,1.43,2.16,1.11,4.27-.25,6.33-.21.21-.419.42-.63.62-1.03.4-2.11,1.23-3.08,1.12-2.1-.239-2.08.51-2.05,2.291.031,1.72-.08,2.56,2.06,2.32.97-.111,2.05.72,3.07,1.129.211.21.43.42.64.64,1.45,2.17,1.741,4.4.07,6.56-1.65,2.14-3.88,2.48-6.68,1.57.57,2.89.47,5.52-2.19,7.179a4.975,4.975,0,0,1-2.656.8A6.281,6.281,0,0,1,24.294,39.218Z" transform="translate(34.327 34.299)" fill="#ee885e"/>
        <path id="Path-5" data-name="Path" d="M1.353,8.976c-.17-.18-.34-.35-.51-.53a2.34,2.34,0,0,0-.09-.66C-.377,5.3-.417,2.936,1.9,1.116A4.486,4.486,0,0,1,7.8,1.1c2.33,1.8,2.3,4.17,1.19,6.66a2.4,2.4,0,0,0-.1.66c-.18.19-.37.37-.55.56A8.972,8.972,0,0,1,1.353,8.976Z" transform="translate(49.597 27.151)" fill="#ee885e"/>
        <path id="Path-6" data-name="Path" d="M1.368,8.911c-.21-.21-.43-.42-.64-.64a8.45,8.45,0,0,1,0-6.86c.21-.21.42-.42.63-.62a19.618,19.618,0,0,1,2.23-.66,4.7,4.7,0,0,1,5.26,2.03,4.678,4.678,0,0,1,.01,5.36,4.711,4.711,0,0,1-5.25,2.05A22.861,22.861,0,0,1,1.368,8.911Z" transform="translate(72.063 49.636)" fill="#ee885e"/>
        <path id="Path-7" data-name="Path" d="M8.217.625c.26.27.53.53.79.79.14.54.29,1.07.43,1.61.6,2.28.24,4.31-1.79,5.72a4.625,4.625,0,0,1-5.69-.07c-1.99-1.45-2.31-3.49-1.64-5.76.16-.54.33-1.07.49-1.6.19-.2.39-.39.58-.59A8.978,8.978,0,0,1,8.217.625Z" transform="translate(49.593 72.112)" fill="#ee885e"/>
        <path id="Path-8" data-name="Path" d="M8.95,8.333c-.18.17-.35.34-.53.51-2.73.87-5.47,1.65-7.51-1.29a4.532,4.532,0,0,1-.08-5.34C2.77-.8,5.52-.127,8.28.7l.74.74A9.129,9.129,0,0,1,8.95,8.333Z" transform="translate(27.15 49.664)" fill="#ee885e"/>
        <path id="Path-9" data-name="Path" d="M9.341,4.581a4.815,4.815,0,0,1-4.75,4.76A4.84,4.84,0,0,1,0,4.761,4.8,4.8,0,0,1,4.751,0,4.84,4.84,0,0,1,9.341,4.581Z" transform="translate(72.189 64.747)" fill="#ee885e"/>
        <path id="Path-10" data-name="Path" d="M4.672,9.26A4.779,4.779,0,0,1,0,4.5,4.79,4.79,0,0,1,4.592,0a4.779,4.779,0,0,1,4.67,4.76A4.8,4.8,0,0,1,4.672,9.26Z" transform="translate(27.428 64.787)" fill="#ee885e"/>
        <path id="Path-11" data-name="Path" d="M9.293,4.48a4.8,4.8,0,0,1-4.65,4.81A4.817,4.817,0,0,1,0,4.81,4.8,4.8,0,0,1,4.653,0,4.81,4.81,0,0,1,9.293,4.48Z" transform="translate(34.877 72.247)" fill="#ee885e"/>
        <path id="Path-12" data-name="Path" d="M4.4,9.318A4.821,4.821,0,0,1,.02,4.238,4.826,4.826,0,0,1,4.92.008,4.814,4.814,0,0,1,9.3,5.088,4.833,4.833,0,0,1,4.4,9.318Z" transform="translate(72.2 34.889)" fill="#ee885e"/>
        <path id="Path-13" data-name="Path" d="M4.47,0A4.8,4.8,0,0,1,9.25,4.3a4.781,4.781,0,0,1-4.46,4.96A4.773,4.773,0,0,1,0,4.623,4.813,4.813,0,0,1,4.47,0Z" transform="translate(27.42 34.914)" fill="#ee885e"/>
        <path id="Path-14" data-name="Path" d="M9.32,4.684a4.806,4.806,0,0,1-4.85,4.64A4.823,4.823,0,0,1,0,4.644,4.812,4.812,0,0,1,4.85,0,4.83,4.83,0,0,1,9.32,4.684Z" transform="translate(64.73 27.423)" fill="#ee885e"/>
        <path id="Path-15" data-name="Path" d="M4.655,0a4.78,4.78,0,0,1,4.61,4.82,4.8,4.8,0,0,1-4.65,4.44A4.78,4.78,0,0,1,0,4.44,4.79,4.79,0,0,1,4.655,0Z" transform="translate(34.885 27.457)" fill="#ee885e"/>
        <path id="Path-16" data-name="Path" d="M9.31,4.6a4.8,4.8,0,0,1-4.77,4.71A4.813,4.813,0,0,1,0,4.712,4.789,4.789,0,0,1,4.77,0,4.82,4.82,0,0,1,9.31,4.6Z" transform="translate(64.74 72.226)" fill="#ee885e"/>
        <path id="Path-17" data-name="Path" d="M0,4.01C.38,1.38,1.86-.03,4.51,0A4.114,4.114,0,0,1,8.57,4.72a3.949,3.949,0,0,1-4.61,3.8C1.28,8.33.08,6.6,0,4.01Z" transform="translate(42.67 80.077)" fill="#ee885e"/>
        <path id="Path-18" data-name="Path" d="M4.3,8.652c-2.63-.23-4.17-1.6-4.3-4.27A4.14,4.14,0,0,1,4.485.012c2.65.2,4.15,1.75,4.11,4.39C8.545,7.072,6.925,8.432,4.3,8.652Z" transform="translate(80.015 57.645)" fill="#ee885e"/>
        <path id="Path-19" data-name="Path" d="M8.51,4.171c-.2,2.63-1.54,4.25-4.24,4.27A3.852,3.852,0,0,1,0,4.271,3.852,3.852,0,0,1,4.17,0C6.87-.049,8.25,1.531,8.51,4.171Z" transform="translate(20.36 57.736)" fill="#ee885e"/>
        <path id="Path-20" data-name="Path" d="M8.667,4.253c-.19,2.61-1.53,4.25-4.2,4.33-2.64.08-4.22-1.4-4.45-4.05A4.141,4.141,0,0,1,4.337,0C7.007.093,8.4,1.613,8.667,4.253Z" transform="translate(57.604 80.055)" fill="#ee885e"/>
        <path id="Path-21" data-name="Path" d="M4.232,8.66C1.592,8.38.082,6.98,0,4.31A4.141,4.141,0,0,1,4.562.02c2.65.25,4.12,1.83,4.02,4.47C8.492,7.16,6.842,8.48,4.232,8.66Z" transform="translate(80.018 42.698)" fill="#ee885e"/>
        <path id="Path-22" data-name="Path" d="M4.4,0c2.63.32,4.15,1.77,4.05,4.45A3.855,3.855,0,0,1,4.063,8.5C1.383,8.41-.077,6.78,0,4.12.093,1.42,1.763.14,4.4,0Z" transform="translate(20.357 42.737)" fill="#ee885e"/>
        <path id="Path-23" data-name="Path" d="M8.56,4.14C8.28,6.95,6.88,8.52,4.18,8.48A3.873,3.873,0,0,1,0,4.18C.03,1.49,1.62-.02,4.3,0,7.02.01,8.31,1.69,8.56,4.14Z" transform="translate(42.75 20.377)" fill="#ee885e"/>
        <path id="Path-24" data-name="Path" d="M8.605,4.312c-.25,2.62-1.63,4.14-4.29,4.23a4.107,4.107,0,0,1-4.3-4.5C.235,1.392,1.8-.068,4.425,0,7.1.072,8.415,1.7,8.605,4.312Z" transform="translate(57.635 20.355)" fill="#ee885e"/>
        <path id="Path-25" data-name="Path" d="M3.961,7.782c-2.35-.27-3.91-1.5-3.96-3.85A3.6,3.6,0,0,1,3.761,0a3.6,3.6,0,0,1,3.93,3.76C7.751,6.122,6.221,7.392,3.961,7.782Z" transform="translate(28.209 80.506)" fill="#ee885e"/>
        <path id="Path-26" data-name="Path" d="M3.931,7.822C1.621,7.552.051,6.312,0,3.952A3.626,3.626,0,0,1,3.781,0a3.621,3.621,0,0,1,3.95,3.78C7.8,6.152,6.261,7.442,3.931,7.822Z" transform="translate(50.589 87.956)" fill="#ee885e"/>
        <path id="Path-27" data-name="Path" d="M4.19,0a3.934,3.934,0,0,1-.53,7.85A3.866,3.866,0,0,1,0,3.771,4.08,4.08,0,0,1,4.19,0Z" transform="translate(87.88 50.546)" fill="#ee885e"/>
        <path id="Path-28" data-name="Path" d="M7.752,3.791c-.38,2.41-1.66,3.92-4.01,3.86A3.579,3.579,0,0,1,0,3.741,3.584,3.584,0,0,1,3.912,0C6.272.031,7.452,1.631,7.752,3.791Z" transform="translate(13.288 50.666)" fill="#ee885e"/>
        <path id="Path-29" data-name="Path" d="M3.792,0c2.3.27,3.86,1.5,3.9,3.85a3.6,3.6,0,0,1-3.77,3.92A3.6,3.6,0,0,1,0,4C-.058,1.64,1.472.36,3.792,0Z" transform="translate(50.608 13.227)" fill="#ee885e"/>
        <path id="Path-30" data-name="Path" d="M7.732,3.762c-.26,2.29-1.48,3.84-3.82,3.89A3.584,3.584,0,0,1,0,3.912,3.584,3.584,0,0,1,3.742,0C6.092-.068,7.372,1.442,7.732,3.762Z" transform="translate(28.228 20.795)" fill="#ee885e"/>
        <path id="Path-31" data-name="Path" d="M7.822,3.941c-.38,2.33-1.67,3.86-4.04,3.8A3.634,3.634,0,0,1,0,3.781,3.631,3.631,0,0,1,3.952,0C6.322.051,7.552,1.631,7.822,3.941Z" transform="translate(72.988 80.486)" fill="#ee885e"/>
        <path id="Path-32" data-name="Path" d="M3.811,0c2.31.27,3.88,1.51,3.93,3.87a3.628,3.628,0,0,1-3.79,3.95A3.621,3.621,0,0,1,0,4.04C-.049,1.66,1.491.38,3.811,0Z" transform="translate(72.979 20.667)" fill="#ee885e"/>
        <path id="Path-33" data-name="Path" d="M3.791,0c2.41.37,3.92,1.65,3.87,4a3.586,3.586,0,0,1-3.91,3.75A3.592,3.592,0,0,1,0,3.84C.041,1.49,1.631.31,3.791,0Z" transform="translate(20.759 72.967)" fill="#ee885e"/>
        <path id="Path-34" data-name="Path" d="M3.921,7.821C1.611,7.541.041,6.3,0,3.941A3.626,3.626,0,0,1,3.791,0a3.625,3.625,0,0,1,3.94,3.79C7.791,6.161,6.251,7.451,3.921,7.821Z" transform="translate(80.459 28.216)" fill="#ee885e"/>
        <path id="Path-35" data-name="Path" d="M7.741,3.721c-.27,2.34-1.49,3.9-3.83,3.94A3.586,3.586,0,0,1,0,3.911,3.591,3.591,0,0,1,3.751,0C6.1-.049,7.361,1.481,7.741,3.721Z" transform="translate(20.759 28.246)" fill="#ee885e"/>
        <path id="Path-36" data-name="Path" d="M7.9,3.977c-.38,2.29-1.64,3.71-3.98,3.83a3.936,3.936,0,0,1-3.89-4.18c.32-2.29,1.76-3.74,4.09-3.62C6.429.117,7.659,1.677,7.9,3.977Z" transform="translate(80.391 73)" fill="#ee885e"/>
        <path id="Path-37" data-name="Path" d="M3.661,0c2.29.24,3.54,1.5,3.43,3.79-.12,2.32-1.56,3.48-3.83,3.34A3.2,3.2,0,0,1,0,3.56C.041,1.24,1.4.12,3.661,0Z" transform="translate(88.24 35.957)" fill="#ee885e"/>
        <path id="Path-38" data-name="Path" d="M3.661,7.191c-2.39-.22-3.7-1.4-3.66-3.68A3.242,3.242,0,0,1,3.621,0a3.255,3.255,0,0,1,3.52,3.61C7.121,5.921,5.711,6.991,3.661,7.191Z" transform="translate(88.229 65.857)" fill="#ee885e"/>
        <path id="Path-39" data-name="Path" d="M3.369,7.073c-2.26-.25-3.49-1.51-3.36-3.78.13-2.3,1.57-3.43,3.81-3.28a3.166,3.166,0,0,1,3.2,3.56C6.989,5.883,5.619,6.963,3.369,7.073Z" transform="translate(13.601 65.904)" fill="#ee885e"/>
        <path id="Path-40" data-name="Path" d="M3.521,0c2.26.18,3.58,1.35,3.53,3.65s-1.41,3.52-3.69,3.44A3.177,3.177,0,0,1,0,3.65C-.039,1.36,1.251.18,3.521,0Z" transform="translate(65.869 13.577)" fill="#ee885e"/>
        <path id="Path-41" data-name="Path" d="M3.74,7.071C1.35,6.931,0,5.811,0,3.511A3.2,3.2,0,0,1,3.59,0a3.168,3.168,0,0,1,3.43,3.34C7.12,5.641,5.82,6.8,3.74,7.071Z" transform="translate(13.61 36.047)" fill="#ee885e"/>
        <path id="Path-42" data-name="Path" d="M7.153,3.551c-.27,2.42-1.54,3.67-3.83,3.54C1,6.961-.137,5.5.013,3.241A3.21,3.21,0,0,1,3.6,0C5.943.031,6.983,1.461,7.153,3.551Z" transform="translate(65.847 88.277)" fill="#ee885e"/>
        <path id="Path-43" data-name="Path" d="M3.643,7.115C1.223,6.9-.067,5.7,0,3.415.073,1.1,1.453-.085,3.723,0a3.188,3.188,0,0,1,3.33,3.47C7.093,5.815,5.713,6.9,3.643,7.115Z" transform="translate(35.997 88.293)" fill="#ee885e"/>
        <path id="Path-44" data-name="Path" d="M7.073,3.651c-.25,2.26-1.51,3.49-3.78,3.36-2.3-.13-3.43-1.57-3.28-3.81A3.166,3.166,0,0,1,3.573,0C5.883.041,6.963,1.4,7.073,3.651Z" transform="translate(36.007 13.646)" fill="#ee885e"/>
        <path id="Path-45" data-name="Path" d="M3.145,6.4c-2.04-.4-3.3-1.52-3.13-3.48a2.974,2.974,0,0,1,3.47-2.9,2.967,2.967,0,0,1,2.84,3.22C6.265,5.212,4.925,6.162,3.145,6.4Z" transform="translate(96.085 58.795)" fill="#ee885e"/>
        <path id="Path-46" data-name="Path" d="M3.081,6.2C1.181,6-.049,4.95,0,2.97A2.845,2.845,0,0,1,3.011,0a2.893,2.893,0,0,1,3.14,3.18C6.111,4.98,4.941,5.98,3.081,6.2Z" transform="translate(6.579 58.877)" fill="#ee885e"/>
        <path id="Path-47" data-name="Path" d="M3.01,0A3.051,3.051,0,0,1,6.19,2.83,2.9,2.9,0,0,1,3.26,6.25,2.9,2.9,0,0,1,0,3.15C-.02,1.33,1.15.3,3.01,0Z" transform="translate(58.82 6.527)" fill="#ee885e"/>
        <path id="Path-48" data-name="Path" d="M6.38,3.059c-.19,1.9-1.2,3.23-3.16,3.27A2.973,2.973,0,0,1,0,3.149,2.965,2.965,0,0,1,2.93.009C4.9-.121,6.01,1.109,6.38,3.059Z" transform="translate(96.1 43.848)" fill="#ee885e"/>
        <path id="Path-49" data-name="Path" d="M2.99,0A3,3,0,0,1,6.13,2.8a2.867,2.867,0,0,1-2.9,3.39A2.861,2.861,0,0,1,0,3.12C-.02,1.31,1.12.27,2.99,0Z" transform="translate(6.58 43.897)" fill="#ee885e"/>
        <path id="Path-50" data-name="Path" d="M6.33,3.076c-.2,1.89-1.21,3.19-3.17,3.2A2.949,2.949,0,0,1,0,3.086,2.928,2.928,0,0,1,2.94.006C4.9-.094,6,1.116,6.33,3.076Z" transform="translate(43.85 96.142)" fill="#ee885e"/>
        <path id="Path-51" data-name="Path" d="M6.253,3.05A3.054,3.054,0,0,1,3.373,6.2,2.906,2.906,0,0,1,0,3.21,2.9,2.9,0,0,1,3.163,0C4.983.01,5.993,1.2,6.253,3.05Z" transform="translate(43.887 6.577)" fill="#ee885e"/>
        <path id="Path-52" data-name="Path" d="M3.141,6.333c-1.92-.25-3.19-1.31-3.14-3.26A2.951,2.951,0,0,1,3.281,0a2.933,2.933,0,0,1,2.99,3.03C6.311,4.993,5.071,6.053,3.141,6.333Z" transform="translate(58.789 96.154)" fill="#ee885e"/>
        <path id="Path-53" data-name="Path" d="M2.8,5.68C.955,5.53-.085,4.54.005,2.65A2.544,2.544,0,0,1,2.835,0a2.59,2.59,0,0,1,2.82,2.99C5.585,4.72,4.525,5.57,2.8,5.68Z" transform="translate(88.965 81.537)" fill="#ee885e"/>
        <path id="Path-54" data-name="Path" d="M2.54,0c2,.1,3.09,1.01,3.07,2.9A2.522,2.522,0,0,1,2.92,5.65,2.573,2.573,0,0,1,0,2.8,2.633,2.633,0,0,1,2.54,0Z" transform="translate(81.52 14.297)" fill="#ee885e"/>
        <path id="Path-55" data-name="Path" d="M2.861,0c1.73.15,2.76,1.03,2.79,2.76a2.585,2.585,0,0,1-2.89,2.92A2.545,2.545,0,0,1,0,2.95C-.039,1.06,1.031.11,2.861,0Z" transform="translate(81.499 88.957)" fill="#ee885e"/>
        <path id="Path-56" data-name="Path" d="M2.57,0c2,.1,3.1,1.01,3.08,2.92A2.543,2.543,0,0,1,2.94,5.69,2.592,2.592,0,0,1,0,2.81,2.641,2.641,0,0,1,2.57,0Z" transform="translate(88.97 21.747)" fill="#ee885e"/>
        <path id="Path-57" data-name="Path" d="M5.568,2.835c-.17,1.69-1.05,2.71-2.78,2.7a2.546,2.546,0,0,1-2.78-2.99A2.509,2.509,0,0,1,2.908,0C4.638.085,5.468,1.135,5.568,2.835Z" transform="translate(21.822 14.382)" fill="#ee885e"/>
        <path id="Path-58" data-name="Path" d="M2.906,0c1.7.19,2.71,1.1,2.67,2.84A2.56,2.56,0,0,1,2.526,5.6,2.533,2.533,0,0,1,.006,2.64C.116.89,1.2.07,2.906,0Z" transform="translate(14.324 81.537)" fill="#ee885e"/>
        <path id="Path-59" data-name="Path" d="M5.27,2.51A2.6,2.6,0,0,1,2.78,5.2,2.448,2.448,0,0,1,0,2.53,2.425,2.425,0,0,1,2.59,0C4.16-.01,5,1,5.27,2.51Z" transform="translate(74.25 7.077)" fill="#ee885e"/>
        <path id="Path-60" data-name="Path" d="M5.237,2.6c-.22,1.51-1.04,2.56-2.58,2.57a2.44,2.44,0,0,1-2.65-2.76A2.424,2.424,0,0,1,2.677,0,2.619,2.619,0,0,1,5.237,2.6Z" transform="translate(29.464 7.095)" fill="#ee885e"/>
        <path id="Path-61" data-name="Path" d="M2.781,0c1.71.12,2.76.99,2.79,2.73A2.55,2.55,0,0,1,2.631,5.6,2.53,2.53,0,0,1,0,2.75,2.627,2.627,0,0,1,2.781,0Z" transform="translate(21.799 88.997)" fill="#ee885e"/>
        <path id="Path-62" data-name="Path" d="M2.625,5.35C.985,5.12-.085,4.22.005,2.49A2.442,2.442,0,0,1,2.635,0a2.474,2.474,0,0,1,2.65,2.8C5.225,4.36,4.185,5.17,2.625,5.35Z" transform="translate(96.615 74.237)" fill="#ee885e"/>
        <path id="Path-63" data-name="Path" d="M2.39,0C4.04.18,5.1.99,5.17,2.51A2.435,2.435,0,0,1,2.49,5.24,2.421,2.421,0,0,1,0,2.65,2.692,2.692,0,0,1,2.39,0Z" transform="translate(7.06 74.227)" fill="#ee885e"/>
        <path id="Path-64" data-name="Path" d="M2.87,5.6C1,5.4-.02,4.51,0,2.78A2.546,2.546,0,0,1,3,.01,2.524,2.524,0,0,1,5.53,2.92,2.656,2.656,0,0,1,2.87,5.6Z" transform="translate(14.36 21.848)" fill="#ee885e"/>
        <path id="Path-65" data-name="Path" d="M2.472,5.32C.882,4.98-.168,4.05.022,2.34A2.436,2.436,0,0,1,2.762.01a2.482,2.482,0,0,1,2.49,2.92A2.625,2.625,0,0,1,2.472,5.32Z" transform="translate(96.618 29.447)" fill="#ee885e"/>
        <path id="Path-66" data-name="Path" d="M5.27,2.717c-.28,1.51-1.12,2.52-2.69,2.5A2.428,2.428,0,0,1,0,2.667,2.443,2.443,0,0,1,2.79.007,2.6,2.6,0,0,1,5.27,2.717Z" transform="translate(29.45 96.681)" fill="#ee885e"/>
        <path id="Path-67" data-name="Path" d="M2.452,0c1.79.25,2.87,1.13,2.8,2.84a2.426,2.426,0,0,1-2.59,2.49A2.474,2.474,0,0,1,0,2.57,2.7,2.7,0,0,1,2.452,0Z" transform="translate(74.228 96.577)" fill="#ee885e"/>
        <path id="Path-68" data-name="Path" d="M5.183,2.633c-.29,1.53-1.14,2.55-2.71,2.49A2.411,2.411,0,0,1,0,2.473,2.406,2.406,0,0,1,2.653,0C4.213.053,5.013,1.113,5.183,2.633Z" transform="translate(7.088 29.525)" fill="#ee885e"/>
        <path id="Path-69" data-name="Path" d="M4.67,2.26c-.15,1.52-.94,2.39-2.38,2.37A2.141,2.141,0,0,1,0,2.29,2.141,2.141,0,0,1,2.34,0,2.249,2.249,0,0,1,4.67,2.26Z" transform="translate(104.41 52.167)" fill="#ee885e"/>
        <path id="Path-70" data-name="Path" d="M4.052,1.74C4,3.11,3.4,3.9,2.242,4.01A1.852,1.852,0,0,1,0,2.08,1.854,1.854,0,0,1,2.1,0,1.958,1.958,0,0,1,4.052,1.74Z" transform="translate(67.388 104.747)" fill="#ee885e"/>
        <path id="Path-71" data-name="Path" d="M0,2.292C.21.682,1.06-.108,2.49.012a2.094,2.094,0,0,1,2.04,2.53A2.051,2.051,0,0,1,2.25,4.5,2.177,2.177,0,0,1,0,2.292Z" transform="translate(52.16 104.505)" fill="#ee885e"/>
        <path id="Path-72" data-name="Path" d="M4.01,1.972a1.945,1.945,0,0,1-2.15,2A1.811,1.811,0,0,1,0,2.032,1.859,1.859,0,0,1,2.11,0,1.954,1.954,0,0,1,4.01,1.972Z" transform="translate(37.54 104.765)" fill="#ee885e"/>
        <path id="Path-73" data-name="Path" d="M3.968,1.985c-.16,1.15-.77,1.93-1.94,1.94a1.844,1.844,0,0,1-2.02-2.14A1.823,1.823,0,0,1,2.068,0,1.963,1.963,0,0,1,3.968,1.985Z" transform="translate(37.552 0.243)" fill="#ee885e"/>
        <path id="Path-74" data-name="Path" d="M4.456,2.227c-.19,1.62-1.09,2.34-2.53,2.19A2,2,0,0,1,.006,2.1a2.05,2.05,0,0,1,2.5-2.08A2.061,2.061,0,0,1,4.456,2.227Z" transform="translate(52.244 0)" fill="#ee885e"/>
        <path id="Path-75" data-name="Path" d="M4.046,1.913c-.24,1.44-.98,2.2-2.29,2.06a1.823,1.823,0,0,1-1.75-2.05A1.876,1.876,0,0,1,2.236.013,1.988,1.988,0,0,1,4.046,1.913Z" transform="translate(67.394 0.224)" fill="#ee885e"/>
        <path id="Path-76" data-name="Path" d="M3.967,1.962c-.14,1.15-.75,1.94-1.92,1.96A1.84,1.84,0,0,1,.007,1.8,1.818,1.818,0,0,1,2.037,0,1.964,1.964,0,0,1,3.967,1.962Z" transform="translate(0.223 37.585)" fill="#ee885e"/>
        <path id="Path-77" data-name="Path" d="M4.112,1.818c-.1,1.47-.76,2.24-2.1,2.25a1.839,1.839,0,0,1-2-1.81A1.875,1.875,0,0,1,1.892.008,1.954,1.954,0,0,1,4.112,1.818Z" transform="translate(104.688 37.519)" fill="#ee885e"/>
        <path id="Path-78" data-name="Path" d="M4.39,2.182a2.059,2.059,0,0,1-2.33,2.17A1.961,1.961,0,0,1,0,2.222,2,2,0,0,1,2.3,0C3.62.032,4.29.832,4.39,2.182Z" transform="translate(0 52.315)" fill="#ee885e"/>
        <path id="Path-79" data-name="Path" d="M3.964,2.019c-.18,1.14-.8,1.92-1.97,1.91a1.838,1.838,0,0,1-1.98-2.18A1.824,1.824,0,0,1,2.1.009,1.963,1.963,0,0,1,3.964,2.019Z" transform="translate(0.226 67.448)" fill="#ee885e"/>
        <path id="Path-80" data-name="Path" d="M4.1,1.987a1.945,1.945,0,0,1-2.09,2.08,1.839,1.839,0,0,1-2-1.81A1.871,1.871,0,0,1,1.892.007,1.941,1.941,0,0,1,4.1,1.987Z" transform="translate(104.688 67.39)" fill="#ee885e"/>
      </g>
      <path id="Shape-3" data-name="Shape" d="M50.622,104.532a2.939,2.939,0,1,1,2.08.863A2.939,2.939,0,0,1,50.622,104.532ZM63.062,92.1a2.94,2.94,0,1,1,2.08.863A2.94,2.94,0,0,1,63.062,92.1Zm-24.88,0a2.939,2.939,0,1,1,2.08.863A2.939,2.939,0,0,1,38.183,92.1ZM75.5,79.663a2.939,2.939,0,1,1,2.08.863A2.939,2.939,0,0,1,75.5,79.663Zm-24.88,0a2.939,2.939,0,1,1,2.08.863A2.939,2.939,0,0,1,50.622,79.663Zm-24.88,0a2.939,2.939,0,1,1,2.08.863A2.939,2.939,0,0,1,25.743,79.663Zm62.2-12.44a2.94,2.94,0,1,1,2.08.862A2.94,2.94,0,0,1,87.943,67.223Zm-24.881,0a2.941,2.941,0,1,1,2.08.862A2.941,2.941,0,0,1,63.062,67.223Zm-24.88,0a2.94,2.94,0,1,1,2.08.862A2.94,2.94,0,0,1,38.183,67.223Zm-24.88,0a2.94,2.94,0,1,1,2.08.862A2.94,2.94,0,0,1,13.3,67.223Zm87.08-12.441a2.939,2.939,0,1,1,2.08.863A2.939,2.939,0,0,1,100.382,54.782Zm-24.88,0a2.939,2.939,0,1,1,2.08.863A2.939,2.939,0,0,1,75.5,54.782Zm-24.88,0a2.939,2.939,0,1,1,2.08.863A2.939,2.939,0,0,1,50.622,54.782Zm-24.88,0a2.939,2.939,0,1,1,2.08.863A2.939,2.939,0,0,1,25.743,54.782Zm-24.881,0a2.94,2.94,0,1,1,2.08.863A2.94,2.94,0,0,1,.862,54.782Zm87.08-12.44a2.939,2.939,0,1,1,2.08.863A2.939,2.939,0,0,1,87.943,42.342Zm-24.881,0a2.94,2.94,0,1,1,2.08.863A2.94,2.94,0,0,1,63.062,42.342Zm-24.88,0a2.939,2.939,0,1,1,2.08.863A2.939,2.939,0,0,1,38.183,42.342Zm-24.88,0a2.939,2.939,0,1,1,2.08.863A2.939,2.939,0,0,1,13.3,42.342ZM75.5,29.9a2.939,2.939,0,1,1,2.08.863A2.939,2.939,0,0,1,75.5,29.9Zm-24.88,0a2.939,2.939,0,1,1,2.08.863A2.939,2.939,0,0,1,50.622,29.9Zm-24.88,0a2.939,2.939,0,1,1,2.08.863A2.939,2.939,0,0,1,25.743,29.9Zm37.319-12.44a2.94,2.94,0,1,1,2.08.863A2.94,2.94,0,0,1,63.062,17.463Zm-24.88,0a2.939,2.939,0,1,1,2.08.863A2.939,2.939,0,0,1,38.183,17.463Zm12.44-12.44a2.94,2.94,0,1,1,2.08.862A2.94,2.94,0,0,1,50.622,5.023Z" transform="translate(25.098 320.49)" fill="#244579" opacity="0.05"/>
      <path id="Path-81" data-name="Path" d="M53.94,65.115,0,11.175a38.141,38.141,0,0,1,53.94,53.94Z" transform="translate(351.89 237.258)" fill="#ffc263" opacity="0.05"/>
      <path id="Shape-4" data-name="Shape" d="M50.622,104.532a2.939,2.939,0,1,1,2.08.863A2.939,2.939,0,0,1,50.622,104.532Zm12.44-12.44a2.94,2.94,0,1,1,2.08.863A2.94,2.94,0,0,1,63.062,92.092Zm-24.88,0a2.939,2.939,0,1,1,2.08.863A2.939,2.939,0,0,1,38.183,92.092Zm37.31-12.44a2.939,2.939,0,1,1,2.08.863A2.939,2.939,0,0,1,75.493,79.653Zm-24.871,0a2.939,2.939,0,1,1,2.08.863A2.939,2.939,0,0,1,50.622,79.653Zm-24.88,0a2.939,2.939,0,1,1,2.08.863A2.939,2.939,0,0,1,25.743,79.653Zm62.19-12.44a2.94,2.94,0,1,1,2.08.862A2.94,2.94,0,0,1,87.933,67.213Zm-24.871,0a2.941,2.941,0,1,1,2.08.862A2.941,2.941,0,0,1,63.062,67.213Zm-24.88,0a2.94,2.94,0,1,1,2.08.862A2.94,2.94,0,0,1,38.183,67.213Zm-24.88,0a2.94,2.94,0,1,1,2.08.862A2.94,2.94,0,0,1,13.3,67.213Zm87.07-12.441a2.939,2.939,0,1,1,2.08.863A2.939,2.939,0,0,1,100.373,54.772Zm-24.88,0a2.939,2.939,0,1,1,2.08.863A2.939,2.939,0,0,1,75.493,54.772Zm-24.871,0a2.939,2.939,0,1,1,2.08.863A2.939,2.939,0,0,1,50.622,54.772Zm-24.88,0a2.939,2.939,0,1,1,2.08.863A2.939,2.939,0,0,1,25.743,54.772Zm-24.881,0a2.94,2.94,0,1,1,2.08.863A2.94,2.94,0,0,1,.862,54.772Zm87.071-12.44a2.939,2.939,0,1,1,2.08.863A2.939,2.939,0,0,1,87.933,42.332Zm-24.871,0a2.94,2.94,0,1,1,2.08.863A2.94,2.94,0,0,1,63.062,42.332Zm-24.88,0a2.939,2.939,0,1,1,2.08.863A2.939,2.939,0,0,1,38.183,42.332Zm-24.88,0a2.939,2.939,0,1,1,2.08.863A2.939,2.939,0,0,1,13.3,42.332Zm62.19-12.44a2.939,2.939,0,1,1,2.08.863A2.939,2.939,0,0,1,75.493,29.893Zm-24.871,0a2.939,2.939,0,1,1,2.08.863A2.939,2.939,0,0,1,50.622,29.893Zm-24.88,0a2.939,2.939,0,1,1,2.08.863A2.939,2.939,0,0,1,25.743,29.893Zm37.319-12.44a2.941,2.941,0,1,1,2.08.862A2.941,2.941,0,0,1,63.062,17.453Zm-24.88,0a2.94,2.94,0,1,1,2.08.862A2.94,2.94,0,0,1,38.183,17.453Zm12.44-12.43a2.94,2.94,0,1,1,2.08.862A2.94,2.94,0,0,1,50.622,5.023Z" transform="translate(331.978 379.84)" fill="#da5077" opacity="0.05"/>
      <path id="Path-82" data-name="Path" d="M0,0H119.89A59.949,59.949,0,0,1,59.94,59.95,59.96,59.96,0,0,1,0,0Z" transform="translate(10.14 520.482)" fill="#6b9ba5" opacity="0.05"/>
      <path id="Path-83" data-name="Path" d="M0,0,85.45,85.45H0Z" transform="translate(342.06 538.013)" fill="#da5077" opacity="0.05"/>
      <g id="Group_14" data-name="Group 14" transform="translate(13.19 652.943)" opacity="0.05">
        <path id="Path-84" data-name="Path" d="M0,63.84a48.156,48.156,0,0,0,5.52,1.93L65.77,5.52A48.156,48.156,0,0,0,63.84,0Z" transform="translate(29.87 29.87)" fill="#ffc263"/>
        <path id="Path-85" data-name="Path" d="M0,67.5a47.685,47.685,0,0,0,4.73,2.72L70.22,4.73A45.511,45.511,0,0,0,67.5,0Z" transform="translate(22.08 22.08)" fill="#ffc263"/>
        <path id="Path-86" data-name="Path" d="M0,68.9a49.6,49.6,0,0,0,4.04,3.41L72.31,4.04A49.6,49.6,0,0,0,68.9,0Z" transform="translate(15.41 15.41)" fill="#ffc263"/>
        <path id="Path-87" data-name="Path" d="M30.41,0A48.745,48.745,0,0,0,0,30.41Z" transform="translate(2.58 2.58)" fill="#ffc263"/>
        <path id="Path-88" data-name="Path" d="M46.57,8.38A49.306,49.306,0,0,0,47.5,0L0,47.5a49.194,49.194,0,0,0,8.38-.93Z" transform="translate(49.98 49.98)" fill="#ffc263"/>
        <path id="Path-89" data-name="Path" d="M0,57.52a48.786,48.786,0,0,0,6.58.87L58.39,6.58A48.576,48.576,0,0,0,57.52,0Z" transform="translate(39 39)" fill="#ffc263"/>
        <path id="Path-90" data-name="Path" d="M0,65.49a45.511,45.511,0,0,0,2.72,4.73l67.5-67.5A47.686,47.686,0,0,0,65.49,0Z" transform="translate(5.18 5.18)" fill="#ffc263"/>
        <path id="Path-91" data-name="Path" d="M.93,39.12A49.306,49.306,0,0,0,0,47.5L47.5,0a49.194,49.194,0,0,0-8.38.93Z" fill="#ffc263"/>
        <path id="Path-92" data-name="Path" d="M0,30.41A48.641,48.641,0,0,0,18.74,18.74,48.523,48.523,0,0,0,30.41,0Z" transform="translate(64.49 64.49)" fill="#ffc263"/>
        <path id="Path-93" data-name="Path" d="M0,60.25a48.156,48.156,0,0,0,1.93,5.52L65.77,1.93A48.156,48.156,0,0,0,60.25,0Z" transform="translate(1.84 1.83)" fill="#ffc263"/>
        <path id="Path-94" data-name="Path" d="M0,51.81a48.575,48.575,0,0,0,.87,6.58L58.39.87A48.786,48.786,0,0,0,51.81,0Z" transform="translate(0.09 0.09)" fill="#ffc263"/>
        <path id="Path-95" data-name="Path" d="M0,68.28a49.6,49.6,0,0,0,3.41,4.04L72.32,3.41A49.6,49.6,0,0,0,68.28,0Z" transform="translate(9.76 9.75)" fill="#ffc263"/>
      </g>
      <path id="Shape-5" data-name="Shape" d="M70.37,73.31a2.94,2.94,0,1,1,2.94,2.939A2.945,2.945,0,0,1,70.37,73.31Zm-17.59,0a2.94,2.94,0,1,1,2.94,2.939A2.945,2.945,0,0,1,52.78,73.31Zm-17.6,0a2.94,2.94,0,1,1,2.94,2.939A2.945,2.945,0,0,1,35.18,73.31Zm-17.59,0a2.94,2.94,0,1,1,2.94,2.939A2.945,2.945,0,0,1,17.59,73.31ZM0,73.31A2.94,2.94,0,1,1,2.94,76.25,2.945,2.945,0,0,1,0,73.31ZM70.37,55.72a2.94,2.94,0,1,1,2.94,2.94A2.945,2.945,0,0,1,70.37,55.72Zm-17.59,0a2.94,2.94,0,1,1,2.94,2.94A2.945,2.945,0,0,1,52.78,55.72Zm-17.6,0a2.94,2.94,0,1,1,2.94,2.94A2.945,2.945,0,0,1,35.18,55.72Zm-17.59,0a2.94,2.94,0,1,1,2.94,2.94A2.945,2.945,0,0,1,17.59,55.72ZM0,55.72a2.94,2.94,0,1,1,2.94,2.94A2.945,2.945,0,0,1,0,55.72ZM73.31,41.06a2.922,2.922,0,1,1,.018,0Zm-17.59,0a2.923,2.923,0,1,1,.018,0Zm-17.6,0a2.922,2.922,0,1,1,.018,0Zm-17.59,0a2.923,2.923,0,1,1,.018,0ZM0,38.12A2.94,2.94,0,1,1,2.94,41.06,2.945,2.945,0,0,1,0,38.12ZM70.37,20.53a2.94,2.94,0,1,1,2.94,2.94A2.945,2.945,0,0,1,70.37,20.53Zm-17.59,0a2.94,2.94,0,1,1,2.94,2.94A2.945,2.945,0,0,1,52.78,20.53Zm-17.6,0a2.94,2.94,0,1,1,2.94,2.94A2.945,2.945,0,0,1,35.18,20.53Zm-17.59,0a2.94,2.94,0,1,1,2.94,2.94A2.945,2.945,0,0,1,17.59,20.53ZM0,20.53a2.94,2.94,0,1,1,2.94,2.94A2.945,2.945,0,0,1,0,20.53ZM70.37,2.94A2.94,2.94,0,1,1,73.31,5.88,2.945,2.945,0,0,1,70.37,2.94Zm-17.59,0A2.94,2.94,0,1,1,55.72,5.88,2.945,2.945,0,0,1,52.78,2.94Zm-17.6,0A2.94,2.94,0,1,1,38.12,5.88,2.945,2.945,0,0,1,35.18,2.94Zm-17.59,0A2.94,2.94,0,1,1,20.53,5.88,2.945,2.945,0,0,1,17.59,2.94ZM0,2.94A2.94,2.94,0,1,1,2.94,5.88,2.945,2.945,0,0,1,0,2.94Z" transform="translate(189.47 563.112)" fill="#244579" opacity="0.05"/>
      <path id="Path-96" data-name="Path" d="M85.45,85.45,0,0H85.45Z" transform="translate(331.58 729.573)" fill="#ee885e" opacity="0.05"/>
      <g id="Group_15" data-name="Group 15" transform="translate(55.51 799.563)" opacity="0.05">
        <path id="Path-97" data-name="Path" d="M6.55,0,0,6.54H13.09Z" transform="translate(0 50.76)" fill="#da5077"/>
        <path id="Path-98" data-name="Path" d="M6.54,0,0,6.54H13.09Z" transform="translate(19.61 50.76)" fill="#da5077"/>
        <path id="Path-99" data-name="Path" d="M6.54,0,0,6.54H13.09Z" transform="translate(39.22 50.76)" fill="#da5077"/>
        <path id="Path-100" data-name="Path" d="M6.54,0,0,6.54H13.08Z" transform="translate(58.83 50.76)" fill="#da5077"/>
        <path id="Path-101" data-name="Path" d="M6.54,0,0,6.54H13.08Z" transform="translate(78.44 50.76)" fill="#da5077"/>
        <path id="Path-102" data-name="Path" d="M6.54,0,0,6.54H13.08Z" transform="translate(98.05 50.76)" fill="#da5077"/>
        <path id="Path-103" data-name="Path" d="M6.54,0,0,6.54H13.09Z" transform="translate(19.61 30.73)" fill="#da5077"/>
        <path id="Path-104" data-name="Path" d="M6.54,0,0,6.54H13.09Z" transform="translate(39.22 30.73)" fill="#da5077"/>
        <path id="Path-105" data-name="Path" d="M6.54,0,0,6.54H13.08Z" transform="translate(58.83 30.73)" fill="#da5077"/>
        <path id="Path-106" data-name="Path" d="M6.54,0,0,6.54H13.08Z" transform="translate(78.44 30.73)" fill="#da5077"/>
        <path id="Path-107" data-name="Path" d="M6.54,0,0,6.54H13.09Z" transform="translate(39.22 10.71)" fill="#da5077"/>
        <path id="Path-108" data-name="Path" d="M6.54,0,0,6.54H13.08Z" transform="translate(58.83 10.71)" fill="#da5077"/>
        <path id="Path-109" data-name="Path" d="M6.54,0,0,6.54H13.08Z" transform="translate(9.81 40.17)" fill="#da5077"/>
        <path id="Path-110" data-name="Path" d="M6.54,0,0,6.54H13.08Z" transform="translate(29.42 40.17)" fill="#da5077"/>
        <path id="Path-111" data-name="Path" d="M6.54,0,0,6.54H13.08Z" transform="translate(49.03 40.17)" fill="#da5077"/>
        <path id="Path-112" data-name="Path" d="M6.54,0,0,6.54H13.08Z" transform="translate(68.64 40.17)" fill="#da5077"/>
        <path id="Path-113" data-name="Path" d="M6.54,0,0,6.54H13.08Z" transform="translate(88.25 40.17)" fill="#da5077"/>
        <path id="Path-114" data-name="Path" d="M6.54,0,0,6.54H13.08Z" transform="translate(29.42 20.72)" fill="#da5077"/>
        <path id="Path-115" data-name="Path" d="M6.54,0,0,6.54H13.08Z" transform="translate(49.03 20.72)" fill="#da5077"/>
        <path id="Path-116" data-name="Path" d="M6.54,0,0,6.54H13.08Z" transform="translate(68.64 20.72)" fill="#da5077"/>
        <path id="Path-117" data-name="Path" d="M6.54,0,0,6.54H13.08Z" transform="translate(49.03 0)" fill="#da5077"/>
      </g>
      <g id="Group" transform="translate(78.28 494.462) rotate(-90)" opacity="0.05">
        <path id="Path-118" data-name="Path" d="M13.4,11.36,8.95,6.91,13.4,2.46A1.442,1.442,0,0,0,11.36.42L6.91,4.87,2.46.42A1.442,1.442,0,0,0,.42,2.46L4.87,6.91.42,11.36A1.442,1.442,0,0,0,2.46,13.4L6.91,8.95l4.45,4.45a1.442,1.442,0,0,0,2.04-2.04Z" transform="translate(348.12 30.55)" fill="#ffc263"/>
        <path id="Path-119" data-name="Path" d="M13.4,11.36,8.95,6.91,13.4,2.46A1.442,1.442,0,0,0,11.36.42L6.91,4.87,2.46.42A1.442,1.442,0,1,0,.42,2.46L4.87,6.91.42,11.36A1.442,1.442,0,0,0,2.46,13.4L6.91,8.95l4.45,4.45a1.449,1.449,0,0,0,2.04,0A1.431,1.431,0,0,0,13.4,11.36Z" transform="translate(33.65 0.16)" fill="#ffc263"/>
        <path id="Path-120" data-name="Path" d="M13.4,11.36,8.95,6.91,13.4,2.46A1.442,1.442,0,0,0,11.36.42L6.91,4.87,2.46.42A1.442,1.442,0,0,0,.42,2.46L4.87,6.91.42,11.36A1.442,1.442,0,0,0,2.46,13.4L6.91,8.95l4.45,4.45a1.442,1.442,0,0,0,2.04-2.04Z" transform="translate(384.28 96.15)" fill="#da5077"/>
        <path id="Path-121" data-name="Path" d="M13.4,11.36,8.95,6.91,13.4,2.46A1.442,1.442,0,0,0,11.36.42L6.91,4.87,2.46.42A1.442,1.442,0,0,0,.42,2.46L4.87,6.91.42,11.36A1.442,1.442,0,0,0,2.46,13.4L6.91,8.95l4.45,4.45a1.449,1.449,0,0,0,2.04,0A1.431,1.431,0,0,0,13.4,11.36Z" transform="translate(409.42 267.95)" fill="#ffc263"/>
        <path id="Path-122" data-name="Path" d="M10.74,5.37A5.37,5.37,0,1,1,5.37,0,5.365,5.365,0,0,1,10.74,5.37Z" transform="translate(397.13 48.47)" fill="#da5077"/>
        <path id="Path-123" data-name="Path" d="M10.74,5.37A5.37,5.37,0,1,1,5.37,0,5.365,5.365,0,0,1,10.74,5.37Z" transform="translate(53.74 53.85)" fill="#ffc263"/>
        <path id="Path-124" data-name="Path" d="M10.74,5.37A5.37,5.37,0,1,1,5.37,0,5.365,5.365,0,0,1,10.74,5.37Z" transform="translate(0.02 43.21)" fill="#da5077"/>
      </g>
      <path id="Path-125" data-name="Path" d="M78.82,0,62.38,16.36,45.93,0,29.49,16.36,13.05,0,.01,12.98,0,16.62,13.05,3.63,29.49,19.99,45.93,3.63,62.38,19.99,78.82,3.63,93.33,18.06l1.81-1.83Z" transform="matrix(0.848, -0.53, 0.53, 0.848, 216.612, 798.15)" fill="#ff9d00" opacity="0.05"/>
      <path id="Shape-6" data-name="Shape" d="M0,9.85A9.85,9.85,0,1,1,9.85,19.7,9.85,9.85,0,0,1,0,9.85Z" transform="translate(223.91 688.503)" fill="#114a82" opacity="0.05"/>
      <g id="Group_13" data-name="Group 13" transform="translate(137.28 263.94)" opacity="0.05">
        <path id="Path-126" data-name="Path" d="M0,.16,1.19,0A94.144,94.144,0,0,0,28.16,54.39a94.7,94.7,0,0,0,87.52,25.64l.26,1.18A95.882,95.882,0,0,1,27.32,55.25,95.376,95.376,0,0,1,0,.16Z" transform="translate(0 108.963)" fill="#da5077"/>
        <path id="Path-127" data-name="Path" d="M24.22,28.132a96.209,96.209,0,0,1,136.06,136.06l-.85-.85A95.007,95.007,0,1,0,1.15,69.143L0,68.8A96.271,96.271,0,0,1,24.22,28.132Z" transform="translate(3.09 0)" fill="#da5077"/>
        <path id="Path-128" data-name="Path" d="M0,2.4A86.432,86.432,0,0,1,81.64,25.5l-1.7,1.7A84.06,84.06,0,0,0,.56,4.744Z" transform="translate(75.17 9.199)" fill="#da5077"/>
        <path id="Path-129" data-name="Path" d="M25.569,16.47A86.729,86.729,0,0,1,48.479,0l1.07,2.16a84.588,84.588,0,0,0-28.07,129.11l-1.86,1.52A86.59,86.59,0,0,1,25.569,16.47Z" transform="translate(8.311 18.233)" fill="#da5077"/>
        <path id="Path-130" data-name="Path" d="M1.43,106.71A84.532,84.532,0,0,0,133.49,56.02a85.045,85.045,0,0,0-6.65-54.96L129,0a87.376,87.376,0,0,1,6.84,56.52A86.959,86.959,0,0,1,0,108.65Z" transform="translate(44.46 58.013)" fill="#da5077"/>
        <path id="Path-131" data-name="Path" d="M10.9,18.36a62.854,62.854,0,0,1,88.79,0,62.147,62.147,0,0,1,17.87,36.33l-2.39.31A59.8,59.8,0,0,0,97.98,20.07,60.419,60.419,0,0,0,2.12,34.13L0,32.99A62.658,62.658,0,0,1,10.9,18.36Z" transform="translate(40.05 33.412)" fill="#da5077"/>
        <path id="Path-132" data-name="Path" d="M.06,0,2.47.1A60.549,60.549,0,0,0,20.09,45.44,60.064,60.064,0,0,0,50.67,61.9l-.48,2.36a62.539,62.539,0,0,1-31.8-17.12A62.891,62.891,0,0,1,.06,0Z" transform="translate(32.56 93.412)" fill="#da5077"/>
        <path id="Path-133" data-name="Path" d="M0,48.45A59.807,59.807,0,0,0,35.83,31.16,60.088,60.088,0,0,0,52.41,0l2.36.46a62.4,62.4,0,0,1-17.24,32.4A62.111,62.111,0,0,1,.27,50.84Z" transform="translate(102.2 107.702)" fill="#da5077"/>
        <path id="Path-134" data-name="Path" d="M15.217,12.92A52.075,52.075,0,0,1,36.617,0l.35,1.15A50.826,50.826,0,0,0,7.787,74.76l-1.05.59A52.132,52.132,0,0,1,15.217,12.92Z" transform="translate(43.353 46.482)" fill="#da5077"/>
        <path id="Path-135" data-name="Path" d="M36.75,0A51.994,51.994,0,1,1,0,88.76l.85-.85A50.791,50.791,0,1,0,36.76,1.2V0Z" transform="translate(58.58 44.173)" fill="#da5077"/>
        <path id="Path-136" data-name="Path" d="M9.456,9.458A32.343,32.343,0,1,1,55.2,55.2l-1.7-1.7a29.935,29.935,0,1,0-42.33-.01l-1.7,1.7A32.36,32.36,0,0,1,9.456,9.458Z" transform="translate(63.014 63.845)" fill="#da5077"/>
        <path id="Path-137" data-name="Path" d="M4.7,4.7a16.085,16.085,0,0,1,22.73,0l-.85.85a14.872,14.872,0,1,0,4.26,8.84l1.2-.14A16.075,16.075,0,1,1,4.7,4.7Z" transform="translate(79.275 80.1)" fill="#da5077"/>
      </g>
    </g>
  </g>
</svg>
