<svg id="Sidepane_Icons_Savings_Inactive" data-name="Sidepane/Icons/Savings/Inactive" xmlns="http://www.w3.org/2000/svg" width="23.382" height="24" viewBox="0 0 23.382 24">
  <defs>
    <style>
      .cls-1 {
        fill: rgba(216,216,216,0);
      }

      .cls-2 {
        fill: #fff;
      }
    </style>
  </defs>
  <g id="Group_4_Copy_2" data-name="Group 4 Copy 2">
    <g id="flame" transform="translate(5.851 4)">
      <path id="Path" class="cls-2" d="M2.35,14.533A11.28,11.28,0,0,1,.467,11.8,6.349,6.349,0,0,1,.11,8.233,7.786,7.786,0,0,1,1.6,4.933a3.232,3.232,0,0,0,.779,2.333,5.649,5.649,0,0,1,1.234-4.6A9.266,9.266,0,0,1,7.579,0a3.354,3.354,0,0,0-.552,3.133A13.2,13.2,0,0,0,8.488,6.1a6.73,6.73,0,0,1,1.1,3.067A10.85,10.85,0,0,0,10.4,7.4a3.578,3.578,0,0,0,.13-1.933,5.018,5.018,0,0,1,1.072,2.4,10.351,10.351,0,0,1,.032,2.833,7.216,7.216,0,0,1-.942,2.967,5.438,5.438,0,0,1-2.825,2.167A6.3,6.3,0,0,1,2.35,14.533Z" transform="translate(0)"/>
    </g>
  </g>
</svg>
