<svg xmlns="http://www.w3.org/2000/svg" id="prefix__Sidepane_Icons_Savings_Inactive" width="24" height="24" data-name="Sidepane/Icons/Savings/Inactive" viewBox="0 0 24 24">
    <g id="prefix__Group_4_Copy" data-name="Group 4 Copy">
        <g id="prefix__bxs-widget" transform="translate(5 5.305)">
            <path id="prefix__Shape" fill="#fff" d="M8.105 13.7a.736.736 0 0 1-.737-.737V8.537a.736.736 0 0 1 .737-.737h4.421a.736.736 0 0 1 .737.737v4.421a.736.736 0 0 1-.737.737zm-7.368 0A.736.736 0 0 1 0 12.958V8.537A.736.736 0 0 1 .737 7.8h4.421a.736.736 0 0 1 .737.737v4.421a.736.736 0 0 1-.737.737zm9.058-7.157L7.152 3.9a.737.737 0 0 1 0-1.042L9.795.216a.737.737 0 0 1 1.042 0l2.642 2.642a.737.737 0 0 1 0 1.042l-2.642 2.643a.737.737 0 0 1-1.042 0zM.737 6.327A.736.736 0 0 1 0 5.59V1.169A.736.736 0 0 1 .737.432h4.421a.736.736 0 0 1 .737.737V5.59a.736.736 0 0 1-.737.737z"/>
        </g>
    </g>
</svg>
