<?xml version="1.0" encoding="UTF-8"?>
<svg  viewBox="0 0 24 24" xmlns="http://www.w3.org/2000/svg">
    <defs>
        <style>.prefix__cls-2{fill:#deeaed}</style>
    </defs>
    <g transform="translate(6 5)">
        <path class="prefix__cls-2" d="M6 6c2.982 0 6-1.03 6-3S8.982 0 6 0 0 1.031 0 3s3.018 3 6 3z"/>
        <path class="prefix__cls-2" transform="translate(0 4.5)" d="M0 1.5c0 1.97 3.018 3 6 3s6-1.03 6-3V0c0 1.969-3.018 3-6 3S0 1.969 0 0z" />
        <path class="prefix__cls-2" transform="translate(0 7.5)" d="M0 1.5c0 1.97 3.018 3 6 3s6-1.03 6-3V0c0 1.969-3.018 3-6 3S0 1.969 0 0z" />
        <path class="prefix__cls-2" transform="translate(0 10.5)" d="M0 1.5c0 1.97 3.018 3 6 3s6-1.03 6-3V0c0 1.969-3.018 3-6 3S0 1.969 0 0z"/>
    </g>
</svg>
