<svg width="24" height="24" viewBox="0 0 24 24" fill="none" xmlns="http://www.w3.org/2000/svg">
<g clip-path="url(#clip0)">
<path d="M18.194 8.008H15.076V6.934C15.0744 6.68677 14.9755 6.45012 14.8007 6.2753C14.6259 6.10048 14.3892 6.00157 14.142 6H10.479C10.2318 6.00157 9.99513 6.10048 9.82031 6.2753C9.64549 6.45012 9.54659 6.68677 9.54501 6.934V8.009H6.42701C6.23948 8.00821 6.05364 8.04454 5.88022 8.11591C5.70679 8.18728 5.54921 8.29227 5.41656 8.42484C5.2839 8.5574 5.1788 8.71491 5.10731 8.88828C5.03582 9.06165 4.99935 9.24747 5.00001 9.435V16.992C4.99922 17.1796 5.03559 17.3655 5.10702 17.539C5.17845 17.7125 5.28353 17.8701 5.4162 18.0028C5.54887 18.1355 5.7065 18.2406 5.87999 18.312C6.05348 18.3834 6.23939 18.4198 6.42701 18.419H18.194C18.3816 18.4198 18.5676 18.3834 18.741 18.312C18.9145 18.2406 19.0722 18.1355 19.2048 18.0028C19.3375 17.8701 19.4426 17.7125 19.514 17.539C19.5854 17.3655 19.6218 17.1796 19.621 16.992V9.435C19.6218 9.24738 19.5854 9.06146 19.514 8.88797C19.4426 8.71448 19.3375 8.55686 19.2048 8.42419C19.0722 8.29152 18.9145 8.18644 18.741 8.11501C18.5676 8.04357 18.3816 8.00721 18.194 8.008V8.008ZM10.425 6.916C10.424 6.90881 10.4247 6.90148 10.427 6.8946C10.4293 6.88771 10.4332 6.88146 10.4383 6.87632C10.4435 6.87119 10.4497 6.86731 10.4566 6.865C10.4635 6.86269 10.4708 6.862 10.478 6.863H14.142C14.1492 6.862 14.1565 6.86269 14.1634 6.865C14.1703 6.86731 14.1766 6.87119 14.1817 6.87632C14.1868 6.88146 14.1907 6.88771 14.193 6.8946C14.1953 6.90148 14.196 6.90881 14.195 6.916V7.991H10.425V6.916Z" fill="white"/>
</g>
<defs>
<clipPath id="clip0">
<rect width="14.621" height="12.419" fill="white" transform="translate(5 6)"/>
</clipPath>
</defs>
</svg>
