<svg width="77" height="77" viewBox="0 0 77 77" fill="none" xmlns="http://www.w3.org/2000/svg">
<path opacity="0.05" fill-rule="evenodd" clip-rule="evenodd" d="M3.40997 0.112549C5.02997 0.112549 6.34997 1.43255 6.34997 3.05255C6.34997 4.68255 5.02997 5.99255 3.40997 5.99255C1.78997 5.99255 0.469971 4.67255 0.469971 3.05255C0.469971 1.43255 1.78997 0.112549 3.40997 0.112549ZM23.94 3.05255C23.94 1.43255 22.62 0.112549 21 0.112549C19.38 0.112549 18.06 1.43255 18.06 3.05255C18.06 4.67255 19.38 5.99255 21 5.99255C22.63 5.99255 23.94 4.68255 23.94 3.05255ZM38.59 0.112549C40.21 0.112549 41.53 1.43255 41.53 3.05255C41.53 4.68255 40.22 5.99255 38.59 5.99255C36.97 5.99255 35.65 4.67255 35.65 3.05255C35.65 1.43255 36.97 0.112549 38.59 0.112549ZM59.13 3.05255C59.13 1.43255 57.81 0.112549 56.19 0.112549C54.57 0.112549 53.25 1.43255 53.25 3.05255C53.25 4.67255 54.57 5.99255 56.19 5.99255C57.81 5.99255 59.13 4.68255 59.13 3.05255ZM73.78 5.99255C72.16 5.99255 70.84 4.67255 70.84 3.05255C70.84 1.43255 72.16 0.112549 73.78 0.112549C75.4 0.112549 76.72 1.43255 76.72 3.05255C76.72 4.68255 75.4 5.99255 73.78 5.99255ZM76.72 20.6425C76.72 19.0225 75.4 17.7025 73.78 17.7025C72.16 17.7025 70.84 19.0225 70.84 20.6425C70.84 22.2625 72.16 23.5826 73.78 23.5826C75.4 23.5826 76.72 22.2725 76.72 20.6425ZM73.78 35.2925C75.4 35.2925 76.72 36.6125 76.72 38.2325C76.72 39.8625 75.4 41.1825 73.78 41.1726C72.16 41.1726 70.84 39.8526 70.84 38.2325C70.84 36.6125 72.16 35.2925 73.78 35.2925ZM76.72 55.8325C76.72 54.2125 75.4 52.8925 73.78 52.8925C72.16 52.8925 70.84 54.2125 70.84 55.8325C70.84 57.4525 72.16 58.7725 73.78 58.7725C75.4 58.7725 76.72 57.4525 76.72 55.8325ZM73.78 70.4826C75.4 70.4826 76.72 71.8026 76.72 73.4226C76.72 75.0425 75.4 76.3625 73.78 76.3625C72.16 76.3625 70.84 75.0425 70.84 73.4226C70.84 71.8026 72.16 70.4826 73.78 70.4826ZM56.19 17.7025C57.81 17.7025 59.13 19.0225 59.13 20.6425C59.13 22.2725 57.81 23.5826 56.19 23.5826C54.57 23.5826 53.25 22.2625 53.25 20.6425C53.25 19.0225 54.57 17.7025 56.19 17.7025ZM59.13 38.2325C59.13 36.6125 57.81 35.2925 56.19 35.2925C54.57 35.2925 53.25 36.6125 53.25 38.2325C53.25 39.8526 54.57 41.1726 56.19 41.1726C57.81 41.1825 59.13 39.8625 59.13 38.2325ZM56.19 52.8925C57.81 52.8925 59.13 54.2125 59.13 55.8325C59.13 57.4525 57.81 58.7725 56.19 58.7725C54.57 58.7725 53.25 57.4525 53.25 55.8325C53.25 54.2125 54.57 52.8925 56.19 52.8925ZM59.13 73.4226C59.13 71.8026 57.81 70.4826 56.19 70.4826C54.57 70.4826 53.25 71.8026 53.25 73.4226C53.25 75.0425 54.57 76.3625 56.19 76.3625C57.81 76.3625 59.13 75.0425 59.13 73.4226ZM41.53 20.6425C41.53 19.0225 40.21 17.7025 38.59 17.7025C36.97 17.7025 35.65 19.0225 35.65 20.6425C35.65 22.2625 36.97 23.5826 38.59 23.5826C40.22 23.5826 41.53 22.2725 41.53 20.6425ZM38.59 35.2925C40.21 35.2925 41.53 36.6125 41.53 38.2325C41.53 39.8625 40.22 41.1825 38.59 41.1726C36.97 41.1726 35.65 39.8526 35.65 38.2325C35.65 36.6125 36.97 35.2925 38.59 35.2925ZM41.53 55.8325C41.53 54.2125 40.21 52.8925 38.59 52.8925C36.97 52.8925 35.65 54.2125 35.65 55.8325C35.65 57.4525 36.97 58.7725 38.59 58.7725C40.22 58.7725 41.53 57.4525 41.53 55.8325ZM38.59 70.4826C40.21 70.4826 41.53 71.8026 41.53 73.4226C41.53 75.0425 40.22 76.3625 38.59 76.3625C36.97 76.3625 35.65 75.0425 35.65 73.4226C35.65 71.8026 36.97 70.4826 38.59 70.4826ZM21 17.7025C22.62 17.7025 23.94 19.0225 23.94 20.6425C23.94 22.2725 22.63 23.5826 21 23.5826C19.38 23.5826 18.06 22.2625 18.06 20.6425C18.06 19.0225 19.38 17.7025 21 17.7025ZM23.94 38.2325C23.94 36.6125 22.62 35.2925 21 35.2925C19.38 35.2925 18.06 36.6125 18.06 38.2325C18.06 39.8526 19.38 41.1726 21 41.1726C22.63 41.1825 23.94 39.8625 23.94 38.2325ZM21 52.8925C22.62 52.8925 23.94 54.2125 23.94 55.8325C23.94 57.4525 22.63 58.7725 21 58.7725C19.38 58.7725 18.06 57.4525 18.06 55.8325C18.06 54.2125 19.38 52.8925 21 52.8925ZM23.94 73.4226C23.94 71.8026 22.62 70.4826 21 70.4826C19.38 70.4826 18.06 71.8026 18.06 73.4226C18.06 75.0425 19.38 76.3625 21 76.3625C22.63 76.3625 23.94 75.0425 23.94 73.4226ZM6.34997 20.6425C6.34997 19.0225 5.02997 17.7025 3.40997 17.7025C1.78997 17.7025 0.469971 19.0225 0.469971 20.6425C0.469971 22.2625 1.78997 23.5826 3.40997 23.5826C5.02997 23.5826 6.34997 22.2725 6.34997 20.6425ZM3.40997 35.2925C5.02997 35.2925 6.34997 36.6125 6.34997 38.2325C6.34997 39.8625 5.02997 41.1726 3.40997 41.1726C1.78997 41.1726 0.469971 39.8526 0.469971 38.2325C0.469971 36.6125 1.78997 35.2925 3.40997 35.2925ZM6.34997 55.8325C6.34997 54.2125 5.02997 52.8925 3.40997 52.8925C1.78997 52.8925 0.469971 54.2125 0.469971 55.8325C0.469971 57.4525 1.78997 58.7725 3.40997 58.7725C5.02997 58.7725 6.34997 57.4525 6.34997 55.8325ZM3.40997 70.4826C5.02997 70.4826 6.34997 71.8026 6.34997 73.4226C6.34997 75.0425 5.02997 76.3625 3.40997 76.3625C1.78997 76.3625 0.469971 75.0425 0.469971 73.4226C0.469971 71.8026 1.78997 70.4826 3.40997 70.4826Z" fill="#244579"/>
</svg>
