<svg width="24" height="24" viewBox="0 0 24 24" fill="none" xmlns="http://www.w3.org/2000/svg">
<g clip-path="url(#clip0)">
<path d="M9.19394 12.026C9.02447 12.026 8.86194 11.9586 8.7421 11.8388C8.62227 11.719 8.55494 11.5564 8.55494 11.387V6.91696C8.55154 6.83098 8.56554 6.74521 8.59609 6.66477C8.62664 6.58434 8.67313 6.5109 8.73275 6.44887C8.79238 6.38684 8.86392 6.33749 8.94308 6.30377C9.02224 6.27006 9.1074 6.25269 9.19344 6.25269C9.27949 6.25269 9.36464 6.27006 9.44381 6.30377C9.52297 6.33749 9.59451 6.38684 9.65413 6.44887C9.71376 6.5109 9.76024 6.58434 9.7908 6.66477C9.82135 6.74521 9.83535 6.83098 9.83194 6.91696V11.387C9.83194 11.5563 9.76476 11.7186 9.64514 11.8384C9.52552 11.9583 9.36324 12.0257 9.19394 12.026V12.026Z" fill="white"/>
<path d="M10.471 7.55506C10.387 7.55549 10.3038 7.53938 10.2261 7.50764C10.1484 7.47589 10.0776 7.42914 10.018 7.37006L9.19399 6.54006L8.36999 7.37006C8.24972 7.49033 8.08659 7.5579 7.91649 7.5579C7.7464 7.5579 7.58327 7.49033 7.46299 7.37006C7.34272 7.24978 7.27515 7.08665 7.27515 6.91656C7.27515 6.74646 7.34272 6.58333 7.46299 6.46306L8.73999 5.18606C8.85968 5.06734 9.02142 5.00073 9.18999 5.00073C9.35857 5.00073 9.52031 5.06734 9.63999 5.18606L10.918 6.46306C11.0075 6.55207 11.0686 6.66559 11.0936 6.78929C11.1187 6.91299 11.1065 7.04134 11.0587 7.15814C11.0109 7.27494 10.9296 7.37497 10.825 7.44561C10.7204 7.51625 10.5972 7.55433 10.471 7.55506V7.55506Z" fill="white"/>
<path d="M15.5799 17.1351C15.4105 17.1351 15.2479 17.0678 15.1281 16.9479C15.0083 16.8281 14.9409 16.6656 14.9409 16.4961V12.0261C14.9375 11.9401 14.9515 11.8543 14.9821 11.7739C15.0126 11.6935 15.0591 11.62 15.1187 11.558C15.1784 11.496 15.2499 11.4466 15.3291 11.4129C15.4082 11.3792 15.4934 11.3618 15.5794 11.3618C15.6655 11.3618 15.7506 11.3792 15.8298 11.4129C15.909 11.4466 15.9805 11.496 16.0401 11.558C16.0997 11.62 16.1462 11.6935 16.1768 11.7739C16.2073 11.8543 16.2213 11.9401 16.2179 12.0261V16.4971C16.2177 16.6662 16.1504 16.8283 16.0308 16.9479C15.9112 17.0675 15.7491 17.1348 15.5799 17.1351V17.1351Z" fill="white"/>
<path d="M15.58 18.4121C15.496 18.4125 15.4128 18.3964 15.3351 18.3647C15.2574 18.3329 15.1867 18.2862 15.127 18.2271L13.846 16.9501C13.7439 16.8276 13.6912 16.6713 13.6984 16.512C13.7056 16.3527 13.7721 16.2018 13.8849 16.089C13.9977 15.9762 14.1486 15.9097 14.3079 15.9025C14.4672 15.8953 14.6235 15.948 14.746 16.0501L15.576 16.8741L16.4 16.0501C16.5225 15.948 16.6788 15.8953 16.8381 15.9025C16.9974 15.9097 17.1483 15.9762 17.2611 16.089C17.3739 16.2018 17.4404 16.3527 17.4476 16.512C17.4548 16.6713 17.4022 16.8276 17.3 16.9501L16.023 18.2271C15.905 18.344 15.7461 18.4104 15.58 18.4121Z" fill="white"/>
<path d="M18.1349 12.026C17.9655 12.026 17.8029 11.9587 17.6831 11.8388C17.5633 11.719 17.4959 11.5565 17.4959 11.387C17.4959 10.032 16.9577 8.7325 15.9995 7.77438C15.0414 6.81626 13.7419 6.27799 12.3869 6.27799C12.301 6.28139 12.2152 6.2674 12.1347 6.23684C12.0543 6.20629 11.9809 6.1598 11.9188 6.10018C11.8568 6.04055 11.8075 5.96901 11.7737 5.88985C11.74 5.81069 11.7227 5.72553 11.7227 5.63949C11.7227 5.55345 11.74 5.46829 11.7737 5.38913C11.8075 5.30996 11.8568 5.23842 11.9188 5.1788C11.9809 5.11917 12.0543 5.07269 12.1347 5.04213C12.2152 5.01158 12.301 4.99759 12.3869 5.00099C14.0809 5.00099 15.7054 5.6739 16.9032 6.8717C18.101 8.06949 18.7739 9.69405 18.7739 11.388C18.7737 11.5573 18.7062 11.7196 18.5864 11.8392C18.4666 11.9588 18.3042 12.026 18.1349 12.026V12.026Z" fill="white"/>
<path d="M12.387 17.7739C10.6932 17.7739 9.06883 17.1011 7.87106 15.9035C6.6733 14.706 6.00027 13.0817 6 11.3879C6.00653 11.2229 6.07666 11.0669 6.19568 10.9525C6.31471 10.8381 6.4734 10.7742 6.6385 10.7742C6.8036 10.7742 6.96229 10.8381 7.08132 10.9525C7.20034 11.0669 7.27047 11.2229 7.277 11.3879C7.277 12.7429 7.81527 14.0424 8.77339 15.0005C9.73151 15.9586 11.031 16.4969 12.386 16.4969C12.472 16.4935 12.5578 16.5075 12.6382 16.538C12.7186 16.5686 12.7921 16.6151 12.8541 16.6747C12.9161 16.7343 12.9655 16.8059 12.9992 16.885C13.0329 16.9642 13.0503 17.0494 13.0503 17.1354C13.0503 17.2214 13.0329 17.3066 12.9992 17.3858C12.9655 17.4649 12.9161 17.5365 12.8541 17.5961C12.7921 17.6557 12.7186 17.7022 12.6382 17.7328C12.5578 17.7633 12.472 17.7773 12.386 17.7739H12.387Z" fill="white"/>
</g>
<defs>
<clipPath id="clip0">
<rect width="12.773" height="13.413" fill="white" transform="translate(6 5)"/>
</clipPath>
</defs>
</svg>
