<svg xmlns="http://www.w3.org/2000/svg" id="iiSidepane-Icons-Transactions-Inactive" width="24" height="24" viewBox="0 0 24 24">
    <g id="Group_340" data-name="Group 340">
        <g id="Group_339" data-name="Group 339" transform="translate(5 6)">
            <g id="Group_338" data-name="Group 338">
                <path id="Path_2540" fill="#fff" fill-rule="evenodd" d="M12.6 1.4A1.4 1.4 0 0 0 11.2 0H2.1A2.1 2.1 0 0 0 0 2.1v8.4a2.041 2.041 0 0 0 2.1 2.1h10.5a1.4 1.4 0 0 0 1.4-1.4v-7a1.4 1.4 0 0 0-1.4-1.4zm-11.2.7a.7.7 0 0 0 .7.7h9.1V1.4H2.1a.7.7 0 0 0-.7.7zm9.8 7H9.8V6.3h1.4z" data-name="Path 2540"/>
            </g>
        </g>
    </g>
</svg>
