<svg xmlns="http://www.w3.org/2000/svg" xmlns:xlink="http://www.w3.org/1999/xlink" width="107.435" height="131.747" viewBox="0 0 107.435 131.747">
  <defs>
    <clipPath id="clip-path">
      <path id="Path_2755" data-name="Path 2755" d="M118.66,395.24l3.789,11.363a1.546,1.546,0,0,0,1.468,1.06h5.905a1.552,1.552,0,0,0,1.42-.937l2.642-6.127" transform="translate(-118.66 -395.24)" fill="#c6ff00" stroke="#263238" stroke-linecap="round" stroke-linejoin="round" stroke-width="1"/>
    </clipPath>
    <clipPath id="clip-path-2">
      <path id="Path_2760" data-name="Path 2760" d="M219.881,395.24,216.095,406.6a1.546,1.546,0,0,1-1.468,1.06h-5.905a1.546,1.546,0,0,1-1.42-.937L204.66,400.6" transform="translate(-204.66 -395.24)" fill="#c6ff00" stroke="#263238" stroke-linecap="round" stroke-linejoin="round" stroke-width="1"/>
    </clipPath>
    <clipPath id="clip-path-3">
      <ellipse id="Ellipse_268" data-name="Ellipse 268" cx="32.473" cy="29.45" rx="32.473" ry="29.45" fill="#c6ff00" stroke="#263238" stroke-linecap="round" stroke-linejoin="round" stroke-width="1"/>
    </clipPath>
    <clipPath id="clip-path-4">
      <path id="Path_2776" data-name="Path 2776" d="M154.19,406.264l3.3,7.835a1.543,1.543,0,0,0,1.426.946h6a1.552,1.552,0,0,0,1.42-.931l3.6-8.325h-.156" transform="translate(-154.19 -405.79)" fill="#deeaed" stroke="#263238" stroke-linecap="round" stroke-linejoin="round" stroke-width="1"/>
    </clipPath>
    <clipPath id="clip-path-5">
      <path id="Path_2780" data-name="Path 2780" d="M226.9.608,210.3,24.532a37.6,37.6,0,0,1-3.17,5.9c-1.75,2.513-6.662,5.025-6.662,5.025s-.423,4.7-1.858,6.322-4.479.654-4.479.654A10.415,10.415,0,0,1,191.4,44.51c-1.42.657-5.791-1.747-5.791-1.747s3.933,4.26,4.479,5.68,1.531,2.621-.219,3.933-3.714-.546-3.714-.546.874,2.84-1.639,3.386-5.242-4.917-6.334-6.773-4.26-8.85-4.8-9.177a2.892,2.892,0,0,1-.219-3.714c1.093-1.639,8.85-12.125,9.724-12.891s17.586-4.7,17.586-4.7L206.8.5" transform="translate(-172.604 -0.5)" fill="#fff" stroke="#263238" stroke-linecap="round" stroke-linejoin="round" stroke-width="1"/>
    </clipPath>
    <clipPath id="clip-path-6">
      <path id="Path_2789" data-name="Path 2789" d="M188.856,99.642a10.545,10.545,0,0,1,1.531,3.714,6.391,6.391,0,0,1-.985,4.263,13.726,13.726,0,0,0-1.855,3.386c-.543,1.531-.657,3.714-1.42,4.8s-1.2,2.183-.111,3.167,3.933.874,5.461-1.966,2.513-5.9,3.5-6.992a53.759,53.759,0,0,1,4.152-3.6s8.628-1.2,10.267-2.729S212.452,98,212.452,98" transform="translate(-185.362 -98)" fill="#fff" stroke="#263238" stroke-linecap="round" stroke-linejoin="round" stroke-width="1"/>
    </clipPath>
  </defs>
  <g id="Layer_2" data-name="Layer 2" transform="translate(-66.678 -0.18)">
    <g id="Plants" transform="translate(145.613 56.974)">
      <path id="Path_2748" data-name="Path 2748" d="M338.731,246.116s-12.783-22.45-9.832-28.156,10.486,4.566,10.486,4.566-6.562-20.924-2.96-30.057,9.832,0,10.159,6.469-1.312,17.5-1.312,17.5,2.621-22.816,8.847-15.977-7.862,29.676-7.862,29.676,9.5-5.326,9.174,1.522-11.471,12.936-11.471,12.936" transform="translate(-328.457 -188.616)" fill="#deeaed"/>
      <path id="Path_2749" data-name="Path 2749" d="M345.174,265.019s-11.828-11.036-6.064-15.98,8.793,5.326,8.793,5.326-6.367-31.579,3.945-32.723,2.741,27.4,2.741,27.4,8.793-12.176,8.187-2.285-13.647,18.265-13.647,18.265" transform="translate(-334.803 -211.704)" fill="none" stroke="#263238" stroke-miterlimit="10" stroke-width="1"/>
      <line id="Line_91" data-name="Line 91" x1="7.995" y1="8.661" transform="translate(8.197 42.646)" fill="none" stroke="#263238" stroke-miterlimit="10" stroke-width="1"/>
      <line id="Line_92" data-name="Line 92" y1="25.317" x2="2.167" transform="translate(14.525 26.657)" fill="none" stroke="#263238" stroke-miterlimit="10" stroke-width="1"/>
      <line id="Line_93" data-name="Line 93" y1="9.493" x2="7.163" transform="translate(14.192 40.646)" fill="none" stroke="#263238" stroke-miterlimit="10" stroke-width="1"/>
      <path id="Path_2750" data-name="Path 2750" d="M358.7,349.75H336.59l2.21,26.079h17.688Z" transform="translate(-334.148 -301.376)" fill="#cbaa4d"/>
    </g>
    <g id="Piggy_Bank" data-name="Piggy Bank" transform="translate(67.173 67.581)">
      <path id="Path_2751" data-name="Path 2751" d="M85.758,239.25a67.675,67.675,0,0,0-8.892-3.6c-4.392-1.351-9.568-.111-9.682,1.351s.675.79,1.69,2.366.561,5.29,2.023,8.667,5.854,5.064,5.854,5.064Z" transform="translate(-67.173 -231.73)" fill="#deeaed" stroke="#324d53" stroke-linecap="round" stroke-linejoin="round" stroke-width="1"/>
      <path id="Path_2752" data-name="Path 2752" d="M84.7,245.307S77.943,241.029,74,239.564s-4.164.672-4.164.672a3.266,3.266,0,0,1,2.149,3.191c0,2.528,1.264,7.763,4.332,8.847S84.7,245.307,84.7,245.307Z" transform="translate(-69.039 -234.517)" fill="#324d53" opacity="0.464"/>
      <ellipse id="Ellipse_266" data-name="Ellipse 266" cx="3.419" cy="3.672" rx="3.419" ry="3.672" transform="translate(58.049 9.918) rotate(-20.8)" fill="#deeaed" stroke="#324d53" stroke-linecap="round" stroke-linejoin="round" stroke-width="1"/>
      <path id="Path_2753" data-name="Path 2753" d="M118.66,395.24l3.789,11.363a1.546,1.546,0,0,0,1.468,1.06h5.905a1.552,1.552,0,0,0,1.42-.937l2.642-6.127" transform="translate(-103.203 -343.817)" fill="#deeaed"/>
      <g id="Group_349" data-name="Group 349" transform="translate(15.457 51.423)" clip-path="url(#clip-path)">
        <path id="Path_2754" data-name="Path 2754" d="M125,395.24l3.143,11.363a1.327,1.327,0,0,0,1.216,1.06h4.9a1.3,1.3,0,0,0,1.177-.937l2.191-6.127" transform="translate(-123.097 -395.24)" fill="#324d53" opacity="0.614"/>
      </g>
      <path id="Path_2756" data-name="Path 2756" d="M118.66,395.24l3.789,11.363a1.546,1.546,0,0,0,1.468,1.06h5.905a1.552,1.552,0,0,0,1.42-.937l2.642-6.127" transform="translate(-103.203 -343.817)" fill="none" stroke="#324d53" stroke-linecap="round" stroke-linejoin="round" stroke-width="1"/>
      <path id="Path_2757" data-name="Path 2757" d="M178.1,395.24,174.324,406.6a1.546,1.546,0,0,1-1.465,1.06h-5.917a1.546,1.546,0,0,1-1.42-.937L162.88,400.6" transform="translate(-134.148 -343.817)" fill="#263238" stroke="#263238" stroke-linecap="round" stroke-linejoin="round" stroke-width="1"/>
      <path id="Path_2758" data-name="Path 2758" d="M219.881,395.24,216.095,406.6a1.546,1.546,0,0,1-1.468,1.06h-5.905a1.546,1.546,0,0,1-1.42-.937L204.66,400.6" transform="translate(-163.385 -343.817)" fill="#deeaed"/>
      <g id="Group_350" data-name="Group 350" transform="translate(41.275 51.423)" clip-path="url(#clip-path-2)">
        <path id="Path_2759" data-name="Path 2759" d="M220.524,395.24,217.933,406.6c-.144.633-.546,1.06-1,1.06h-4.041c-.42,0-.8-.369-.97-.937l-2.51-6" transform="translate(-207.984 -395.24)" fill="#324d53" opacity="0.656"/>
      </g>
      <path id="Path_2761" data-name="Path 2761" d="M219.881,395.24,216.095,406.6a1.546,1.546,0,0,1-1.468,1.06h-5.905a1.546,1.546,0,0,1-1.42-.937L204.66,400.6" transform="translate(-163.385 -343.817)" fill="none" stroke="#263238" stroke-linecap="round" stroke-linejoin="round" stroke-width="1"/>
      <ellipse id="Ellipse_267" data-name="Ellipse 267" cx="32.473" cy="29.45" rx="32.473" ry="29.45" transform="translate(3.776)" fill="#deeaed"/>
      <g id="Group_351" data-name="Group 351" transform="translate(3.776)" clip-path="url(#clip-path-3)">
        <path id="Path_2762" data-name="Path 2762" d="M149.5,255a27.019,27.019,0,0,1,2.888,12.182c0,16.265-14.539,29.45-32.473,29.45a34.627,34.627,0,0,1-18.838-5.458A32.459,32.459,0,0,0,127.2,303.784c17.412,0,31.522-12.792,31.522-28.574A27.215,27.215,0,0,0,149.5,255Z" transform="translate(-94.677 -245.679)" fill="#324d53" opacity="0.527"/>
      </g>
      <ellipse id="Ellipse_269" data-name="Ellipse 269" cx="32.473" cy="29.45" rx="32.473" ry="29.45" transform="translate(3.776)" fill="none" stroke="#263238" stroke-linecap="round" stroke-linejoin="round" stroke-width="1"/>
      <path id="Path_2763" data-name="Path 2763" d="M269.372,330.85a26.968,26.968,0,0,1-7.562,15.566" transform="translate(-203.379 -298.758)" fill="none" stroke="#deeaed" stroke-linecap="round" stroke-linejoin="round" stroke-width="2"/>
      <path id="Path_2764" data-name="Path 2764" d="M285.21,300.38a25.834,25.834,0,0,1,.718,6.067" transform="translate(-219.754 -277.435)" fill="none" stroke="#deeaed" stroke-linecap="round" stroke-linejoin="round" stroke-width="2"/>
      <path id="Path_2765" data-name="Path 2765" d="M161.1,227.887a36.1,36.1,0,0,1,13.422-.552" transform="translate(-132.903 -226.049)" fill="none" stroke="#324d53" stroke-linecap="round" stroke-linejoin="round" stroke-width="2"/>
      <path id="Path_2766" data-name="Path 2766" d="M172.5,252.5a8.112,8.112,0,0,0,3.263-6.079c.111-3.939-5.065-9.682-9.228-12.044s-7.2-1.912-7.316-.225-1.576,3.6-2.14,6.866-.787,8.106,3.6,9.682" transform="translate(-129.879 -230.103)" fill="#deeaed" stroke="#324d53" stroke-linecap="round" stroke-linejoin="round" stroke-width="1"/>
      <path id="Path_2767" data-name="Path 2767" d="M168.244,253.57l.648.1c2.768.4,3.741-1.408,3.66-4.122-.111-3.828-5.179-11.933-7.316-13.059s-2.813.45-2.813.45.3.2-.754,3.7c-.5,1.615-2.3,7.244-.5,9.745C162.75,252.585,165.7,253.189,168.244,253.57Z" transform="translate(-132.406 -232.438)" fill="#324d53" opacity="0.456"/>
      <path id="Path_2768" data-name="Path 2768" d="M205.21,259.326h-.039a.3.3,0,0,1-.258-.339,6.809,6.809,0,0,0,.057-.7c.06-2.1-1.654-5.119-4.473-7.9a.3.3,0,1,1,.426-.423c2.966,2.951,4.713,6.058,4.647,8.355a7.185,7.185,0,0,1-.063.763A.3.3,0,0,1,205.21,259.326Z" transform="translate(-160.411 -242.092)" fill="#324d53" opacity="0.3"/>
      <path id="Path_2769" data-name="Path 2769" d="M210.308,287.185a.3.3,0,0,1-.231-.489,7.378,7.378,0,0,0,1.171-2.017.3.3,0,1,1,.561.213,8.019,8.019,0,0,1-1.267,2.182A.3.3,0,0,1,210.308,287.185Z" transform="translate(-167.13 -266.312)" fill="#324d53" opacity="0.3"/>
      <ellipse id="Ellipse_270" data-name="Ellipse 270" cx="6.641" cy="8.781" rx="6.641" ry="8.781" transform="translate(2.68 37.339) rotate(-75.99)" fill="#324d53" opacity="0.3"/>
      <ellipse id="Ellipse_271" data-name="Ellipse 271" cx="6.641" cy="8.781" rx="6.641" ry="8.781" transform="translate(2.255 36.689) rotate(-75.99)" fill="#deeaed" stroke="#324d53" stroke-linecap="round" stroke-linejoin="round" stroke-width="1"/>
      <path id="Path_2770" data-name="Path 2770" d="M95.929,324.934c.054.808-.255,1.5-.69,1.5s-.829-.6-.883-1.4.255-1.486.687-1.5S95.875,324.13,95.929,324.934Z" transform="translate(-86.191 -293.635)" fill="none" stroke="#324d53" stroke-linecap="round" stroke-linejoin="round" stroke-width="1"/>
      <path id="Path_2771" data-name="Path 2771" d="M115.676,329.907c.054.8-.255,1.483-.687,1.5s-.832-.6-.9-1.408.255-1.483.687-1.5S115.622,329.1,115.676,329.907Z" transform="translate(-99.998 -297.112)" fill="none" stroke="#324d53" stroke-linecap="round" stroke-linejoin="round" stroke-width="1"/>
      <path id="Path_2772" data-name="Path 2772" d="M118.27,340.14a7.288,7.288,0,0,1-.4,1.69c-1.726,4.656-7.962,6.671-14.128,4.665" transform="translate(-92.762 -305.259)" fill="none" stroke="#263238" stroke-linecap="round" stroke-linejoin="round" stroke-width="1"/>
      <line id="Line_94" data-name="Line 94" x2="1.915" transform="translate(24.499 34.44)" fill="none" stroke="#263238" stroke-linecap="round" stroke-linejoin="round" stroke-width="1"/>
      <path id="Path_2773" data-name="Path 2773" d="M104.193,292.953c-.21.877-.751,1.5-1.2,1.39s-.648-.9-.438-1.783.751-1.5,1.2-1.39S104.4,292.08,104.193,292.953Z" transform="translate(-91.874 -270.981)" fill="#324d53" stroke="#324d53" stroke-linecap="round" stroke-linejoin="round" stroke-width="1"/>
      <ellipse id="Ellipse_272" data-name="Ellipse 272" cx="1.633" cy="0.844" rx="1.633" ry="0.844" transform="translate(15.834 24.373) rotate(-76.45)" fill="#324d53" stroke="#324d53" stroke-linecap="round" stroke-linejoin="round" stroke-width="1"/>
      <path id="Path_2774" data-name="Path 2774" d="M154.19,406.264l3.3,7.835a1.543,1.543,0,0,0,1.426.946h6a1.552,1.552,0,0,0,1.42-.931l3.6-8.325h-.156" transform="translate(-128.067 -351.2)" fill="#deeaed"/>
      <g id="Group_352" data-name="Group 352" transform="translate(26.123 54.59)" clip-path="url(#clip-path-4)">
        <path id="Path_2775" data-name="Path 2775" d="M163.671,403.327a28.008,28.008,0,0,1-5.911-.165l3.074,8.985a1.3,1.3,0,0,0,1.177.946h4.953a1.294,1.294,0,0,0,1.171-.931l3-9.162-1.2.165A33.815,33.815,0,0,1,163.671,403.327Z" transform="translate(-156.688 -403.838)" fill="#324d53" opacity="0.54"/>
      </g>
      <path id="Path_2777" data-name="Path 2777" d="M154.19,406.264l3.3,7.835a1.543,1.543,0,0,0,1.426.946h6a1.552,1.552,0,0,0,1.42-.931l3.6-8.325h-.156" transform="translate(-128.067 -351.2)" fill="none" stroke="#263238" stroke-linecap="round" stroke-linejoin="round" stroke-width="1"/>
    </g>
    <g id="Hand" transform="translate(92.168 0.5)">
      <path id="Path_2778" data-name="Path 2778" d="M226.9.608,210.3,24.532a37.6,37.6,0,0,1-3.17,5.9c-1.75,2.513-6.662,5.025-6.662,5.025s-.423,4.7-1.858,6.322-4.479.654-4.479.654A10.415,10.415,0,0,1,191.4,44.51c-1.42.657-5.791-1.747-5.791-1.747s3.933,4.26,4.479,5.68,1.531,2.621-.219,3.933-3.714-.546-3.714-.546.874,2.84-1.639,3.386-5.242-4.917-6.334-6.773-4.26-8.85-4.8-9.177a2.892,2.892,0,0,1-.219-3.714c1.093-1.639,8.85-12.125,9.724-12.891s17.586-4.7,17.586-4.7L206.8.5" transform="translate(-165.947 -0.5)" fill="#deeaed"/>
      <g id="Group_353" data-name="Group 353" transform="translate(6.657 0)" clip-path="url(#clip-path-5)">
        <path id="Path_2779" data-name="Path 2779" d="M213.353,57.837s-1.8,5.4-3.753,6.454-13.059,3.9-17.412,3.3a16.835,16.835,0,0,1-6.755-2.252s-2.4,3.152-3.452,4.2a6.884,6.884,0,0,1-2.552,1.5s5.224,13.122,8.979,17.184a1.8,1.8,0,0,0,.883.042c2.513-.546,1.639-3.386,1.639-3.386s1.966,1.855,3.714.546.766-2.513.219-3.933-4.479-5.68-4.479-5.68,4.371,2.4,5.791,1.747a10.345,10.345,0,0,0,2.729-2.077s3.059.985,4.479-.654,1.858-6.334,1.858-6.334,4.914-2.513,6.662-5.025a37.89,37.89,0,0,0,3.17-5.9l6.839-9.856Z" transform="translate(-177.381 -33.544)" fill="#324d53" opacity="0.2"/>
      </g>
      <path id="Path_2781" data-name="Path 2781" d="M226.9.608,210.3,24.532a37.6,37.6,0,0,1-3.17,5.9c-1.75,2.513-6.662,5.025-6.662,5.025s-.423,4.7-1.858,6.322-4.479.654-4.479.654A10.415,10.415,0,0,1,191.4,44.51c-1.42.657-5.791-1.747-5.791-1.747s3.933,4.26,4.479,5.68,1.531,2.621-.219,3.933-3.714-.546-3.714-.546.874,2.84-1.639,3.386-5.242-4.917-6.334-6.773-4.26-8.85-4.8-9.177a2.892,2.892,0,0,1-.219-3.714c1.093-1.639,8.85-12.125,9.724-12.891s17.586-4.7,17.586-4.7L206.8.5" transform="translate(-165.947 -0.5)" fill="none" stroke="#263238" stroke-linecap="round" stroke-linejoin="round" stroke-width="0.5"/>
      <path id="Path_2782" data-name="Path 2782" d="M164.25,171.344l.438,1.639,6.773-1.639,6.334-16.6-4.149-1.42Z" transform="translate(-160.101 -107.442)" fill="#fff" stroke="#263238" stroke-linecap="round" stroke-linejoin="round" stroke-width="1"/>
      <path id="Path_2783" data-name="Path 2783" d="M156.656,139.86l9.393,3.494-4.587,20.756-11.033-3.386Z" transform="translate(-150.43 -98.023)" fill="#fff" stroke="#263238" stroke-linecap="round" stroke-linejoin="round" stroke-width="1"/>
      <path id="Path_2784" data-name="Path 2784" d="M151.66,162.48l9.79,2.879,4.26-18.463-8.577-2.756Z" transform="translate(-151.291 -101.018)" fill="#deeaed" stroke="#324d53" stroke-linecap="round" stroke-linejoin="round" stroke-width="1"/>
      <path id="Path_2785" data-name="Path 2785" d="M160.754,159.11a3.1,3.1,0,0,0-1.306-.06l-2.558,8.571a3.065,3.065,0,0,0,1.324.76c2.005.549,4.2-1.078,4.9-3.639S162.762,159.659,160.754,159.11Z" transform="translate(-154.951 -111.422)" fill="#fff" stroke="#263238" stroke-linecap="round" stroke-linejoin="round" stroke-width="1"/>
      <path id="Path_2787" data-name="Path 2787" d="M188.856,99.642a10.545,10.545,0,0,1,1.531,3.714,6.391,6.391,0,0,1-.985,4.263,13.726,13.726,0,0,0-1.855,3.386c-.543,1.531-.657,3.714-1.42,4.8s-1.2,2.183-.111,3.167,3.933.874,5.461-1.966,2.513-5.9,3.5-6.992a53.759,53.759,0,0,1,4.152-3.6s8.628-1.2,10.267-2.729S212.452,98,212.452,98" transform="translate(-174.875 -68.73)" fill="#deeaed"/>
      <g id="Group_354" data-name="Group 354" transform="translate(10.487 29.27)" clip-path="url(#clip-path-6)">
        <path id="Path_2788" data-name="Path 2788" d="M211.8,102.92s-4.653,3-8.256,3.9-5.854.9-7.2,2.7-2.7,7.505-4.5,8.556-2.1-2.7-4.653-1.951l-.084.03a9.3,9.3,0,0,1-.973,3.1c-.766,1.09-1.2,2.183-.111,3.167s3.933.874,5.461-1.966,2.513-5.9,3.5-6.992a53.761,53.761,0,0,1,4.152-3.6s8.628-1.2,10.267-2.729a13.46,13.46,0,0,0,2.465-4.149Z" transform="translate(-185.36 -101.443)" fill="#324d53" opacity="0.2"/>
      </g>
      <path id="Path_2790" data-name="Path 2790" d="M188.856,99.642a10.545,10.545,0,0,1,1.531,3.714,6.391,6.391,0,0,1-.985,4.263,13.726,13.726,0,0,0-1.855,3.386c-.543,1.531-.657,3.714-1.42,4.8s-1.2,2.183-.111,3.167,3.933.874,5.461-1.966,2.513-5.9,3.5-6.992a53.759,53.759,0,0,1,4.152-3.6s8.628-1.2,10.267-2.729S212.452,98,212.452,98" transform="translate(-174.875 -68.73)" fill="none" stroke="#263238" stroke-linecap="round" stroke-linejoin="round" stroke-width="0.5"/>
      <path id="Path_2791" data-name="Path 2791" d="M185.72,121.159s2.84,1.528,4.917-.219" transform="translate(-175.126 -84.783)" fill="none" stroke="#263238" stroke-linecap="round" stroke-linejoin="round" stroke-width="1"/>
      <line id="Line_95" data-name="Line 95" x1="2.513" y1="4.806" transform="translate(17.694 46.535)" fill="none" stroke="#263238" stroke-linecap="round" stroke-linejoin="round" stroke-width="1"/>
      <path id="Path_2792" data-name="Path 2792" d="M244.3,128a6.634,6.634,0,0,0,1.858-5.242" transform="translate(-216.12 -86.057)" fill="none" stroke="#263238" stroke-linecap="round" stroke-linejoin="round" stroke-width="1"/>
    </g>
  </g>
</svg>
