<svg id="Zimvest_illustrations-08" data-name="Zimvest illustrations-08" xmlns="http://www.w3.org/2000/svg" width="206" height="247" viewBox="0 0 206 247">
  <g id="Group" transform="translate(63 144)" opacity="0.15">
    <path id="Path" d="M84.32,0l8.9,3.411L128.955,17.1l-84.32,83.758L8.9,87.169,0,83.758,84.32,0Z" transform="translate(0.031 0.041)" fill="#231f20"/>
  </g>
  <path id="Path-2" data-name="Path" d="M84.878,80.007,88,82.125c-.342.512-8.462,12.564-22.619,12.875H64.275c-7.806,0-12.77-1.9-14.765-5.654-1.783-3.353-.905-7.671,2.613-12.834,3-4.394,3.023-8.63,1.329-10.035-.97-.806-2.637-.813-4.7-.017s-5.466,2.768-10.18,7.682C35,77.875,29.238,81.848,22.109,79.6,15.58,77.522,10.671,71.176,7.706,66.2A58.305,58.305,0,0,1,.457,46.931C-2.276,30.322,8.13,1.228,8.574,0L12.1,1.308C12,1.6,1.584,30.692,4.163,46.291a54.4,54.4,0,0,0,6.757,17.934c3.72,6.228,8.09,10.381,12.3,11.727s8.52-.156,12.64-4.471,8.059-7.249,11.536-8.588c4.554-1.758,7.232-.346,8.421.633,3.587,2.983,3.327,9.343-.618,15.142-1.824,2.675-3.72,6.384-2.391,8.869s5.859,3.779,12.479,3.637C77.482,90.927,84.806,80.114,84.878,80.007Z" transform="translate(0 152)" fill="#fff"/>
  <path id="Shape" d="M49.349,89.3c-1.8-3.39-.923-7.74,2.611-12.928,2.945-4.318,2.993-8.468,1.362-9.833-.929-.773-2.546-.773-4.554,0s-5.41,2.735-10.1,7.626C35.8,77.153,31.535,80.3,26.289,80.3a13.815,13.815,0,0,1-4.17-.659C15.569,77.567,10.661,71.2,7.7,66.227A58.307,58.307,0,0,1,.455,46.969C-2.268,30.381,8.1,1.349,8.55.121L8.594,0l3.745,1.38-.044.121c-.105.29-10.462,29.3-7.9,44.786a54.171,54.171,0,0,0,6.717,17.833C14.8,70.3,19.127,74.432,23.3,75.749s8.421-.145,12.506-4.4c4.184-4.363,8.065-7.243,11.543-8.592,4.6-1.777,7.309-.345,8.51.653,3.626,3.018,3.377,9.436-.592,15.266-1.8,2.639-3.669,6.288-2.383,8.707s5.76,3.7,12.32,3.56c12.03-.266,19.336-10.99,19.4-11.1l.071-.107L88,81.989l-.072.107c-.34.514-8.547,12.583-22.64,12.893L64.174,95C56.345,95,51.361,93.083,49.349,89.3Z" transform="translate(0 152)" fill="#231f20"/>
  <g id="Group-2" data-name="Group" transform="translate(8 122)" opacity="0.15">
    <path id="Path-3" data-name="Path" d="M89.047,0l4.973,1.9,19.962,7.635L24.935,97.822,4.973,90.187,0,88.285,89.047,0Z" transform="translate(0.01 0.017)" fill="#231f20"/>
  </g>
  <path id="Path-4" data-name="Path" d="M82,0V4.188L0,87V82.812L82,0Z" transform="translate(106 152)" fill="#f9f8f7"/>
  <path id="Shape-2" data-name="Shape" d="M40.952,114.966,0,81.971,82,0l41,33.019L41,115Z" transform="translate(66 120)" fill="#f9f8f7"/>
  <path id="Path-5" data-name="Path" d="M104,22.679,28.3,98,0,75.321,75.7,0,104,22.679Z" transform="translate(73 130)" fill="#231f20"/>
  <path id="Path-6" data-name="Path" d="M41,15.839V20h-.079L8.16,7.318,0,4.161V0L8.16,3.158,40.921,15.839l.027-.038.051.038Z" transform="translate(65 219)" fill="#898684"/>
  <path id="Path-7" data-name="Path" d="M0,0,41,31.964,40.973,32,8.171,19.754,0,16.705V0Z" transform="translate(65 203)" fill="#898684"/>
  <path id="Rectangle" d="M.545,0h0L.455,44.009h0Z" transform="matrix(0.36, -0.933, 0.933, 0.36, 64.865, 220.543)" fill="#231f20"/>
  <path id="Path-8" data-name="Path" d="M41.843,33l-.049-.034L0,.2.164,0,42,32.8l-.157.2Z" transform="translate(64 203)" fill="#231f20"/>
  <path id="Shape-3" data-name="Shape" d="M0,75.245l.1-.1L76.329,0,105,22.765l-.1.1L28.668,98Z" transform="translate(73 130)" fill="#231f20"/>
  <path id="Shape-4" data-name="Shape" d="M41.226,120.806,0,104.808V83.033L.038,83,82.571,0l.089.073L124,33.562l-.062.063v4.2l-.038.038L41.226,121Z" transform="translate(65 120)" fill="#231f20"/>
  <path id="Path-9" data-name="Path" d="M12,4.556l-.069.223L5.706,11,.1,6.484,0,6.34,6.344,0,12,4.556Z" transform="translate(73 196)" fill="#fff"/>
  <path id="Path-10" data-name="Path" d="M5,0V1.615L.206,8,.078,7.822V6.748L0,6.667,5,0Z" transform="translate(79 201)" fill="#fff"/>
  <path id="Path-11" data-name="Path" d="M4.915,4.037,5,4.1V5L0,.9V0L4.915,4.037Z" transform="translate(74 203)" fill="#fff"/>
  <path id="Shape-5" data-name="Shape" d="M0,1.1V0L5,3.9V5Z" transform="translate(74 203)" fill="#231f20"/>
  <path id="Path-12" data-name="Path" d="M4.856,5,0,.221.141,0,.178.038,5,4.779,4.856,5Z" transform="translate(80 196)" fill="#231f20"/>
  <path id="Path-13" data-name="Path" d="M.388,9,.212,8.785,5.751,2V.735L.176,7.57,0,7.354,6,0V2.125L.388,9Z" transform="translate(79 200)" fill="#231f20"/>
  <path id="Rectangle-2" data-name="Rectangle" d="M0,.513,8.73.486h0L0,.514Z" transform="translate(73.28 202.257) rotate(-45.05)" fill="#231f20"/>
  <path id="Path-14" data-name="Path" d="M12,4.551l-.072.227L5.708,11,.1,6.485,0,6.344,6.343,0,12,4.551Z" transform="translate(80 202)" fill="#fff"/>
  <path id="Path-15" data-name="Path" d="M5,0V1.612L.209,8,.078,7.822V6.748L0,6.667,5,0Z" transform="translate(86 207)" fill="#fff"/>
  <path id="Path-16" data-name="Path" d="M4.915,4.036,5,4.1V5L0,.9V0L4.915,4.036Z" transform="translate(81 209)" fill="#fff"/>
  <path id="Shape-6" data-name="Shape" d="M0,1.1V0L5,3.906V5Z" transform="translate(81 209)" fill="#231f20"/>
  <path id="Path-17" data-name="Path" d="M4.856,5,0,.211.153,0,.19.041,5,4.782,4.856,5Z" transform="translate(87 202)" fill="#231f20"/>
  <path id="Path-18" data-name="Path" d="M.385,9,.216,8.781l.1-.114L5.751,2V.735L.176,7.566,0,7.351,6,0V2.128L.385,9Z" transform="translate(86 206)" fill="#231f20"/>
  <path id="Rectangle-3" data-name="Rectangle" d="M0,.513,8.734.486h0L0,.514Z" transform="translate(80.439 207.976) rotate(-45.05)" fill="#231f20"/>
  <path id="Path-19" data-name="Path" d="M12,4.554l-.072.227L5.706,11,.1,6.486,0,6.338,6.344,0,12,4.554Z" transform="translate(87 209)" fill="#fff"/>
  <path id="Path-20" data-name="Path" d="M5,0V1.612L.206,8l-.13-.178V6.748L0,6.667,5,0Z" transform="translate(94 212)" fill="#fff"/>
  <path id="Path-21" data-name="Path" d="M4.918,4.036,5,4.1V5L0,.9V0L4.918,4.036Z" transform="translate(88 214)" fill="#fff"/>
  <path id="Shape-7" data-name="Shape" d="M0,1.112V0L5,3.905V5Z" transform="translate(88 214)" fill="#231f20"/>
  <path id="Path-22" data-name="Path" d="M4.856,5,0,.221.141,0l.04.038L5,4.782,4.856,5Z" transform="translate(95 208)" fill="#231f20"/>
  <path id="Path-23" data-name="Path" d="M.388,9,.209,8.785,5.751,2V.735L.176,7.57,0,7.354l.066-.081L6,0V2.129L.388,9Z" transform="translate(94 212)" fill="#231f20"/>
  <path id="Rectangle-4" data-name="Rectangle" d="M0,.513,8.73.486h0L0,.514Z" transform="translate(87.625 213.69) rotate(-45.05)" fill="#231f20"/>
  <path id="Path-24" data-name="Path" d="M12,4.551l-.072.227L5.708,11,.1,6.485,0,6.344,6.339,0,12,4.551Z" transform="translate(94 213)" fill="#fff"/>
  <path id="Path-25" data-name="Path" d="M5,0V1.611L.209,8,.078,7.822V6.745L0,6.663,5,0Z" transform="translate(101 218)" fill="#fff"/>
  <path id="Path-26" data-name="Path" d="M4.915,4.034,5,4.1V5L0,.9V0L4.915,4.034Z" transform="translate(96 219)" fill="#fff"/>
  <path id="Shape-8" data-name="Shape" d="M0,1.094V0L5,3.9V5Z" transform="translate(96 219)" fill="#231f20"/>
  <path id="Path-27" data-name="Path" d="M4.856,5,0,.21.153,0,.19.041,5,4.778,4.856,5Z" transform="translate(101 214)" fill="#231f20"/>
  <path id="Path-28" data-name="Path" d="M.385,9,.212,8.781l.1-.114L5.751,2V.739L.176,7.57,0,7.355,6,0V2.128L.385,9Z" transform="translate(101 217)" fill="#231f20"/>
  <path id="Rectangle-5" data-name="Rectangle" d="M0,.513,8.73.486h0L0,.514Z" transform="translate(94.734 219.614) rotate(-45.05)" fill="#231f20"/>
  <path id="Path-29" data-name="Path" d="M12,4.554l-.072.227L5.706,11,.1,6.486,0,6.342,6.341,0,12,4.554Z" transform="translate(80 189)" fill="#fff"/>
  <path id="Path-30" data-name="Path" d="M5,0V1.612L.206,8l-.13-.178V6.748L0,6.667,5,0Z" transform="translate(87 193)" fill="#fff"/>
  <path id="Path-31" data-name="Path" d="M4.918,4.036,5,4.1V5L0,.9V0L4.918,4.036Z" transform="translate(82 195)" fill="#fff"/>
  <path id="Shape-9" data-name="Shape" d="M0,1.094V0L5,3.9V5Z" transform="translate(82 195)" fill="#231f20"/>
  <path id="Path-32" data-name="Path" d="M4.856,5,0,.222.141,0,.178.034,5,4.782,4.856,5Z" transform="translate(87 188)" fill="#231f20"/>
  <path id="Path-33" data-name="Path" d="M.388,9,.212,8.785,5.752,2V.735L.176,7.57,0,7.355,6,0V2.128L.388,9Z" transform="translate(86 193)" fill="#231f20"/>
  <path id="Rectangle-6" data-name="Rectangle" d="M0,.513,8.73.486h0L0,.514Z" transform="translate(80.923 194.567) rotate(-45.05)" fill="#231f20"/>
  <path id="Path-34" data-name="Path" d="M12,4.551l-.072.224L5.711,11,.1,6.481,0,6.34,6.343,0,12,4.551Z" transform="translate(88 195)" fill="#fff"/>
  <path id="Path-35" data-name="Path" d="M5,0V1.615L.209,8,.075,7.822V6.748L0,6.667,5,0Z" transform="translate(95 198)" fill="#fff"/>
  <path id="Path-36" data-name="Path" d="M4.918,4.037,5,4.1V5L0,.9V0L4.918,4.037Z" transform="translate(88 201)" fill="#fff"/>
  <path id="Shape-10" data-name="Shape" d="M0,1.1V0L5,3.9V5Z" transform="translate(88 201)" fill="#231f20"/>
  <path id="Path-37" data-name="Path" d="M4.856,5,0,.214.153,0l.04.045L5,4.778,4.856,5Z" transform="translate(95 194)" fill="#231f20"/>
  <path id="Path-38" data-name="Path" d="M.388,9,.216,8.777l.1-.11L5.751,2V.735L.176,7.566,0,7.351,6,0V2.124L.388,9Z" transform="translate(94 198)" fill="#231f20"/>
  <path id="Rectangle-7" data-name="Rectangle" d="M0,.513,8.734.486h0L0,.514Z" transform="translate(88.085 200.284) rotate(-45.05)" fill="#231f20"/>
  <path id="Path-39" data-name="Path" d="M12,4.556l-.069.223L5.706,11,.1,6.484,0,6.34,6.344,0,12,4.556Z" transform="translate(95 200)" fill="#fff"/>
  <path id="Path-40" data-name="Path" d="M5,0V1.615L.206,8,.078,7.822V6.748L0,6.667,5,0Z" transform="translate(102 205)" fill="#fff"/>
  <path id="Path-41" data-name="Path" d="M4.915,4.037,5,4.1V5L0,.9V0L4.915,4.037Z" transform="translate(96 206)" fill="#fff"/>
  <path id="Shape-11" data-name="Shape" d="M0,1.1V0L5,3.908V5Z" transform="translate(96 206)" fill="#231f20"/>
  <path id="Path-42" data-name="Path" d="M4.856,5,0,.221.144,0,.181.038,5,4.779,4.856,5Z" transform="translate(102 201)" fill="#231f20"/>
  <path id="Path-43" data-name="Path" d="M.388,9,.212,8.785.3,8.671,5.751,2V.735L.176,7.57,0,7.354,6,0V2.125L.388,9Z" transform="translate(101 205)" fill="#231f20"/>
  <path id="Rectangle-8" data-name="Rectangle" d="M0,.513,8.73.486h0L0,.514Z" transform="translate(95.266 205.998) rotate(-45.05)" fill="#231f20"/>
  <path id="Path-44" data-name="Path" d="M12,4.551l-.072.227L5.708,11,.1,6.485,0,6.344,6.343,0,12,4.551Z" transform="translate(103 206)" fill="#fff"/>
  <path id="Path-45" data-name="Path" d="M5,0V1.612L.212,8,.078,7.822V6.748L0,6.667,5,0Z" transform="translate(109 211)" fill="#fff"/>
  <path id="Path-46" data-name="Path" d="M4.915,4.036,5,4.1V5L0,.9V0L4.915,4.036Z" transform="translate(103 214)" fill="#fff"/>
  <path id="Shape-12" data-name="Shape" d="M0,1.1V0L5,3.9V5Z" transform="translate(103 214)" fill="#231f20"/>
  <path id="Path-47" data-name="Path" d="M4.856,5,0,.211.153,0l.04.041L5,4.782,4.856,5Z" transform="translate(109 206)" fill="#231f20"/>
  <path id="Path-48" data-name="Path" d="M.385,9,.216,8.781l.1-.114L5.751,2V.735L.176,7.566,0,7.355,6,0V2.128L.385,9Z" transform="translate(109 210)" fill="#231f20"/>
  <path id="Rectangle-9" data-name="Rectangle" d="M0,.513,8.734.486h0L0,.514Z" transform="translate(102.377 211.923) rotate(-45.05)" fill="#231f20"/>
  <path id="Path-49" data-name="Path" d="M12,4.554l-.072.227L5.706,11,.1,6.486,0,6.338,6.344,0,12,4.554Z" transform="translate(89 181)" fill="#fff"/>
  <path id="Path-50" data-name="Path" d="M5,0V1.612L.206,8l-.13-.178V6.748L0,6.667,5,0Z" transform="translate(95 185)" fill="#fff"/>
  <path id="Path-51" data-name="Path" d="M4.918,4.036,5,4.1V5L0,.9V0L4.918,4.036Z" transform="translate(88 188)" fill="#fff"/>
  <path id="Shape-13" data-name="Shape" d="M0,1.1V0L5,3.9V5Z" transform="translate(88 188)" fill="#231f20"/>
  <path id="Path-52" data-name="Path" d="M4.856,5,0,.225.141,0l.04.038L5,4.782,4.856,5Z" transform="translate(96 181)" fill="#231f20"/>
  <path id="Path-53" data-name="Path" d="M.388,9,.212,8.785,5.751,2V.735L.176,7.57,0,7.354,6,0V2.129L.388,9Z" transform="translate(95 184)" fill="#231f20"/>
  <path id="Rectangle-10" data-name="Rectangle" d="M0,.513,8.73.486h0L0,.514Z" transform="translate(88.569 186.878) rotate(-45.05)" fill="#231f20"/>
  <path id="Path-54" data-name="Path" d="M12,4.551l-.069.227L5.709,11,.1,6.485,0,6.344,6.341,0,12,4.551Z" transform="translate(95 186)" fill="#fff"/>
  <path id="Path-55" data-name="Path" d="M5,0V1.612L.209,8,.075,7.822V6.748L0,6.667,5,0Z" transform="translate(102 192)" fill="#fff"/>
  <path id="Path-56" data-name="Path" d="M4.918,4.036,5,4.1V5L0,.9V0L4.918,4.036Z" transform="translate(96 193)" fill="#fff"/>
  <path id="Shape-14" data-name="Shape" d="M0,1.094V0L5,3.9V5Z" transform="translate(96 193)" fill="#231f20"/>
  <path id="Path-57" data-name="Path" d="M4.856,5,0,.21.153,0,.19.041,5,4.778,4.856,5Z" transform="translate(102 187)" fill="#231f20"/>
  <path id="Path-58" data-name="Path" d="M.385,9,.212,8.781l.1-.114L5.751,2V.739L.173,7.57,0,7.355,6,0V2.128L.385,9Z" transform="translate(102 191)" fill="#231f20"/>
  <path id="Rectangle-11" data-name="Rectangle" d="M0,.513,8.734.486h0L0,.514Z" transform="translate(95.729 192.597) rotate(-45.05)" fill="#231f20"/>
  <path id="Path-59" data-name="Path" d="M12,4.554l-.069.227L5.71,11,.1,6.486,0,6.342,6.344,0,12,4.554Z" transform="translate(103 192)" fill="#fff"/>
  <path id="Path-60" data-name="Path" d="M5,0V1.612L.206,8l-.13-.174V6.748L0,6.667,5,0Z" transform="translate(109 197)" fill="#fff"/>
  <path id="Path-61" data-name="Path" d="M4.918,4.034,5,4.1V5L0,.9V0L4.918,4.034Z" transform="translate(103 200)" fill="#fff"/>
  <path id="Shape-15" data-name="Shape" d="M0,1.094V0L5,3.9V5Z" transform="translate(103 200)" fill="#231f20"/>
  <path id="Path-62" data-name="Path" d="M4.856,5,0,.222.141,0,.178.034,5,4.782,4.856,5Z" transform="translate(110 192)" fill="#231f20"/>
  <path id="Path-63" data-name="Path" d="M.388,9,.212,8.785,5.751,2V.735L.176,7.57,0,7.355,6,0V2.128L.388,9Z" transform="translate(109 196)" fill="#231f20"/>
  <path id="Rectangle-12" data-name="Rectangle" d="M0,.513,8.73.486h0L0,.514Z" transform="translate(102.91 198.311) rotate(-45.05)" fill="#231f20"/>
  <path id="Path-64" data-name="Path" d="M12,4.551l-.069.224L5.709,11,.1,6.485,0,6.344,6.341,0,12,4.551Z" transform="translate(110 198)" fill="#fff"/>
  <path id="Path-65" data-name="Path" d="M5,0V1.615L.209,8,.075,7.822V6.748L0,6.667,5,0Z" transform="translate(116 203)" fill="#fff"/>
  <path id="Path-66" data-name="Path" d="M4.918,4.036,5,4.1V5L0,.9V0L4.918,4.036Z" transform="translate(111 205)" fill="#fff"/>
  <path id="Shape-16" data-name="Shape" d="M0,1.1V0L5,3.9V5Z" transform="translate(111 205)" fill="#231f20"/>
  <path id="Path-67" data-name="Path" d="M4.856,5,0,.211.15,0,.19.041,5,4.782,4.856,5Z" transform="translate(117 198)" fill="#231f20"/>
  <path id="Path-68" data-name="Path" d="M.388,9,.216,8.781l.1-.114L5.751,2V.735L.176,7.566,0,7.351,6,0V2.124L.388,9Z" transform="translate(116 203)" fill="#231f20"/>
  <path id="Rectangle-13" data-name="Rectangle" d="M0,.513,8.734.486h0L0,.514Z" transform="translate(110.021 204.233) rotate(-45.05)" fill="#231f20"/>
  <path id="Path-69" data-name="Path" d="M12,4.556l-.069.223L5.706,11,.1,6.484,0,6.34,6.344,0,12,4.556Z" transform="translate(96 174)" fill="#fff"/>
  <path id="Path-70" data-name="Path" d="M5,0V1.615L.206,8,.078,7.822V6.748L0,6.667,5,0Z" transform="translate(102 178)" fill="#fff"/>
  <path id="Path-71" data-name="Path" d="M4.915,4.037,5,4.1V5L0,.9V0L4.915,4.037Z" transform="translate(97 179)" fill="#fff"/>
  <path id="Shape-17" data-name="Shape" d="M0,1.1V0L5,3.9V5Z" transform="translate(97 179)" fill="#231f20"/>
  <path id="Path-72" data-name="Path" d="M4.856,5,0,.221.144,0,.181.038,5,4.779,4.856,5Z" transform="translate(102 173)" fill="#231f20"/>
  <path id="Path-73" data-name="Path" d="M.388,9,.212,8.785,5.751,2V.735L.176,7.57,0,7.354,6,0V2.125L.388,9Z" transform="translate(102 178)" fill="#231f20"/>
  <path id="Rectangle-14" data-name="Rectangle" d="M0,.513,8.73.486h0L0,.514Z" transform="translate(96.21 179.186) rotate(-45.05)" fill="#231f20"/>
  <path id="Path-74" data-name="Path" d="M12,4.551l-.072.227L5.708,11,.1,6.485,0,6.344,6.339,0,12,4.551Z" transform="translate(104 179)" fill="#fff"/>
  <path id="Path-75" data-name="Path" d="M5,0V1.612L.209,8,.078,7.822V6.748L0,6.667,5,0Z" transform="translate(110 183)" fill="#fff"/>
  <path id="Path-76" data-name="Path" d="M4.915,4.036,5,4.1V5L0,.9V0L4.915,4.036Z" transform="translate(104 186)" fill="#fff"/>
  <path id="Shape-18" data-name="Shape" d="M0,1.094V0L5,3.892V5Z" transform="translate(104 186)" fill="#231f20"/>
  <path id="Path-77" data-name="Path" d="M4.856,5,0,.211.153,0,.19.041,5,4.782,4.856,5Z" transform="translate(110 178)" fill="#231f20"/>
  <path id="Path-78" data-name="Path" d="M.385,9,.212,8.781l.1-.114L5.751,2V.735L.176,7.566,0,7.351,6,0V2.128L.385,9Z" transform="translate(109 183)" fill="#231f20"/>
  <path id="Rectangle-15" data-name="Rectangle" d="M0,.513,8.734.486h0L0,.514Z" transform="translate(103.372 184.907) rotate(-45.05)" fill="#231f20"/>
  <path id="Path-79" data-name="Path" d="M12,4.554l-.072.227L5.706,11,.1,6.486,0,6.338,6.344,0,12,4.554Z" transform="translate(110 184)" fill="#fff"/>
  <path id="Path-80" data-name="Path" d="M5,0V1.612L.206,8l-.13-.178V6.748L0,6.667,5,0Z" transform="translate(117 189)" fill="#fff"/>
  <path id="Path-81" data-name="Path" d="M4.918,4.036,5,4.1V5L0,.9V0L4.918,4.036Z" transform="translate(112 191)" fill="#fff"/>
  <path id="Shape-19" data-name="Shape" d="M0,1.1V0L5,3.9,4.988,5Z" transform="translate(112 191)" fill="#231f20"/>
  <path id="Path-82" data-name="Path" d="M4.856,5,0,.221.141,0l.04.038L5,4.782,4.856,5Z" transform="translate(117 185)" fill="#231f20"/>
  <path id="Path-83" data-name="Path" d="M.391,9,.212,8.785,5.752,2V.735L.176,7.57,0,7.354,6,0V2.129L.391,9Z" transform="translate(116 189)" fill="#231f20"/>
  <path id="Rectangle-16" data-name="Rectangle" d="M0,.513,8.73.486h0L0,.514Z" transform="translate(110.555 190.619) rotate(-45.05)" fill="#231f20"/>
  <path id="Path-84" data-name="Path" d="M12,4.554l-.072.227L5.706,11,.1,6.486,0,6.342,6.341,0,12,4.554Z" transform="translate(104 165)" fill="#fff"/>
  <path id="Path-85" data-name="Path" d="M5,0V1.612L.206,8l-.13-.174V6.748L0,6.667,5,0Z" transform="translate(111 170)" fill="#fff"/>
  <path id="Path-86" data-name="Path" d="M4.918,4.034,5,4.1V5L0,.9V0L4.918,4.034Z" transform="translate(105 173)" fill="#fff"/>
  <path id="Shape-20" data-name="Shape" d="M0,1.094V0L5,3.9V5Z" transform="translate(105 173)" fill="#231f20"/>
  <path id="Path-87" data-name="Path" d="M4.856,5,0,.222.141,0,.178.034,5,4.782,4.856,5Z" transform="translate(111 165)" fill="#231f20"/>
  <path id="Path-88" data-name="Path" d="M.388,9,.212,8.785,5.752,2V.735L.176,7.57,0,7.355,6,0V2.128L.388,9Z" transform="translate(110 169)" fill="#231f20"/>
  <path id="Rectangle-17" data-name="Rectangle" d="M0,.513,8.73.486h0L0,.514Z" transform="translate(103.857 171.496) rotate(-45.05)" fill="#231f20"/>
  <path id="Path-89" data-name="Path" d="M12,4.551l-.072.224L5.708,11,.1,6.481,0,6.344,6.343,0,12,4.551Z" transform="translate(111 171)" fill="#fff"/>
  <path id="Path-90" data-name="Path" d="M5,0V1.615L.212,8,.078,7.822V6.748L0,6.667,5,0Z" transform="translate(118 176)" fill="#fff"/>
  <path id="Path-91" data-name="Path" d="M4.915,4.037,5,4.1V5L0,.9V0L4.915,4.037Z" transform="translate(113 178)" fill="#fff"/>
  <path id="Shape-21" data-name="Shape" d="M0,1.1V0L5,3.9V5Z" transform="translate(113 178)" fill="#231f20"/>
  <path id="Path-92" data-name="Path" d="M4.856,5,0,.211.153,0l.04.041L5,4.782,4.856,5Z" transform="translate(118 171)" fill="#231f20"/>
  <path id="Path-93" data-name="Path" d="M.385,9,.216,8.781l.1-.114L5.751,2V.735L.176,7.566,0,7.351,6,0V2.124L.385,9Z" transform="translate(117 175)" fill="#231f20"/>
  <path id="Rectangle-18" data-name="Rectangle" d="M0,.513,8.734.486h0L0,.514Z" transform="translate(111.016 177.213) rotate(-45.05)" fill="#231f20"/>
  <path id="Path-94" data-name="Path" d="M12,4.556l-.069.223L5.706,11,.1,6.484,0,6.34,6.344,0,12,4.556Z" transform="translate(119 177)" fill="#fff"/>
  <path id="Path-95" data-name="Path" d="M5,0V1.615L.206,8,.078,7.822V6.748L0,6.667,5,0Z" transform="translate(126 181)" fill="#fff"/>
  <path id="Path-96" data-name="Path" d="M4.915,4.037,5,4.1V5L0,.9V0L4.915,4.037Z" transform="translate(119 184)" fill="#fff"/>
  <path id="Shape-22" data-name="Shape" d="M0,1.1V0L5,3.9V5Z" transform="translate(119 184)" fill="#231f20"/>
  <path id="Path-97" data-name="Path" d="M4.856,5,0,.221.141,0l.04.038L5,4.779,4.856,5Z" transform="translate(126 177)" fill="#231f20"/>
  <path id="Path-98" data-name="Path" d="M.388,9,.212,8.785,5.751,2V.735L.176,7.57,0,7.354,6,0V2.125L.388,9Z" transform="translate(125 181)" fill="#231f20"/>
  <path id="Rectangle-19" data-name="Rectangle" d="M0,.513,8.73.486h0L0,.514Z" transform="translate(118.2 182.926) rotate(-45.05)" fill="#231f20"/>
  <path id="Path-99" data-name="Path" d="M12,4.554l-.072.227L5.706,11,.1,6.486,0,6.338,6.344,0,12,4.554Z" transform="translate(111 157)" fill="#fff"/>
  <path id="Path-100" data-name="Path" d="M5,0V1.612L.206,8l-.13-.178V6.748L0,6.667,5,0Z" transform="translate(118 162)" fill="#fff"/>
  <path id="Path-101" data-name="Path" d="M4.918,4.036,5,4.1V5L0,.9V0L4.918,4.036Z" transform="translate(113 164)" fill="#fff"/>
  <path id="Shape-23" data-name="Shape" d="M0,1.1V0L5,3.9V5Z" transform="translate(113 164)" fill="#231f20"/>
  <path id="Path-102" data-name="Path" d="M4.856,5,0,.221.141,0l.04.038L5,4.782,4.856,5Z" transform="translate(119 158)" fill="#231f20"/>
  <path id="Path-103" data-name="Path" d="M.391,9,.212,8.785,5.752,2V.735L.179,7.57,0,7.354,6,0V2.129L.391,9Z" transform="translate(118 162)" fill="#231f20"/>
  <path id="Rectangle-20" data-name="Rectangle" d="M0,.513,8.73.486h0L0,.514Z" transform="translate(111.503 163.803) rotate(-45.05)" fill="#231f20"/>
  <path id="Path-104" data-name="Path" d="M12,4.551l-.069.227L5.709,11,.1,6.485,0,6.344,6.341,0,12,4.551Z" transform="translate(119 164)" fill="#fff"/>
  <path id="Path-105" data-name="Path" d="M5,0V1.615L.209,8,.075,7.822V6.745L0,6.663,5,0Z" transform="translate(126 168)" fill="#fff"/>
  <path id="Path-106" data-name="Path" d="M4.918,4.034,5,4.1V5L0,.9V0L4.918,4.034Z" transform="translate(119 170)" fill="#fff"/>
  <path id="Shape-24" data-name="Shape" d="M0,1.094V0L5,3.9V5Z" transform="translate(119 170)" fill="#231f20"/>
  <path id="Path-107" data-name="Path" d="M4.856,5,0,.21.15,0,.19.041,5,4.778,4.856,5Z" transform="translate(126 163)" fill="#231f20"/>
  <path id="Path-108" data-name="Path" d="M.388,9,.216,8.781l.1-.114L5.751,2V.735L.176,7.57,0,7.354,6,0V2.125L.388,9Z" transform="translate(126 167)" fill="#231f20"/>
  <path id="Rectangle-21" data-name="Rectangle" d="M0,.513,8.734.486h0L0,.514Z" transform="translate(118.662 169.523) rotate(-45.05)" fill="#231f20"/>
  <path id="Path-109" data-name="Path" d="M12,4.554l-.069.227L5.706,11,.1,6.486,0,6.342,6.344,0,12,4.554Z" transform="translate(125 169)" fill="#fff"/>
  <path id="Path-110" data-name="Path" d="M5,0V1.612L.209,8l-.13-.178V6.748L0,6.667,5,0Z" transform="translate(132 173)" fill="#fff"/>
  <path id="Path-111" data-name="Path" d="M4.915,4.036,5,4.1V5L0,.9V0L4.915,4.036Z" transform="translate(126 176)" fill="#fff"/>
  <path id="Shape-25" data-name="Shape" d="M0,1.094V0L5,3.893V5Z" transform="translate(126 176)" fill="#231f20"/>
  <path id="Path-112" data-name="Path" d="M4.856,5,0,.221.141,0,.178.034,5,4.779,4.856,5Z" transform="translate(132 168)" fill="#231f20"/>
  <path id="Path-113" data-name="Path" d="M.388,9,.212,8.785,5.751,2V.739L.176,7.57,0,7.355,6,0V2.128L.388,9Z" transform="translate(131 173)" fill="#231f20"/>
  <path id="Rectangle-22" data-name="Rectangle" d="M0,.513,8.73.486h0L0,.514Z" transform="translate(125.843 175.236) rotate(-45.05)" fill="#231f20"/>
  <path id="Path-114" data-name="Path" d="M12,4.556l-.069.223L5.706,11,.1,6.484,0,6.34,6.344,0,12,4.556Z" transform="translate(120 150)" fill="#fff"/>
  <path id="Path-115" data-name="Path" d="M5,0V1.615L.206,8,.078,7.822V6.748L0,6.667,5,0Z" transform="translate(126 154)" fill="#fff"/>
  <path id="Path-116" data-name="Path" d="M4.915,4.037,5,4.1V5L0,.9V0L4.915,4.037Z" transform="translate(120 156)" fill="#fff"/>
  <path id="Shape-26" data-name="Shape" d="M0,1.1V0L5,3.9,4.994,5Z" transform="translate(120 156)" fill="#231f20"/>
  <path id="Path-117" data-name="Path" d="M4.856,5,0,.221.141,0l.04.038L5,4.779,4.856,5Z" transform="translate(126 151)" fill="#231f20"/>
  <path id="Path-118" data-name="Path" d="M.388,9,.212,8.785,5.751,2V.735L.176,7.57,0,7.354,6,0V2.125L.388,9Z" transform="translate(126 154)" fill="#231f20"/>
  <path id="Rectangle-23" data-name="Rectangle" d="M0,.513,8.73.486h0L0,.514Z" transform="translate(119.144 156.111) rotate(-45.05)" fill="#231f20"/>
  <path id="Path-119" data-name="Path" d="M12,4.551l-.069.227L5.709,11,.1,6.485,0,6.344,6.341,0,12,4.551Z" transform="translate(127 155)" fill="#fff"/>
  <path id="Path-120" data-name="Path" d="M5,0V1.612L.209,8,.075,7.822V6.748L0,6.667,5,0Z" transform="translate(132 161)" fill="#fff"/>
  <path id="Path-121" data-name="Path" d="M4.918,4.036,5,4.1V5L0,.9V0L4.918,4.036Z" transform="translate(127 162)" fill="#fff"/>
  <path id="Shape-27" data-name="Shape" d="M0,1.1V0L5,3.9V5Z" transform="translate(127 162)" fill="#231f20"/>
  <path id="Path-122" data-name="Path" d="M4.856,5,0,.211.153,0,.19.041,5,4.782,4.856,5Z" transform="translate(132 156)" fill="#231f20"/>
  <path id="Path-123" data-name="Path" d="M.385,9,.212,8.781l.1-.114L5.751,2V.735L.176,7.566,0,7.355,6,0V2.128L.385,9Z" transform="translate(131 159)" fill="#231f20"/>
  <path id="Rectangle-24" data-name="Rectangle" d="M0,.513,8.734.486h0L0,.514Z" transform="translate(126.306 161.833) rotate(-45.05)" fill="#231f20"/>
  <path id="Path-124" data-name="Path" d="M12,4.554l-.072.227L5.706,11,.1,6.486,0,6.338,6.341,0,12,4.554Z" transform="translate(133 161)" fill="#fff"/>
  <path id="Path-125" data-name="Path" d="M5,0V1.612L.206,8l-.13-.178V6.748L0,6.667,5,0Z" transform="translate(140 166)" fill="#fff"/>
  <path id="Path-126" data-name="Path" d="M4.918,4.036,5,4.1V5L0,.9V0L4.918,4.036Z" transform="translate(134 168)" fill="#fff"/>
  <path id="Shape-28" data-name="Shape" d="M0,1.1V0L5,3.915V5Z" transform="translate(134 168)" fill="#231f20"/>
  <path id="Path-127" data-name="Path" d="M4.856,5,0,.225.141,0,.178.038,5,4.782,4.856,5Z" transform="translate(140 161)" fill="#231f20"/>
  <path id="Path-128" data-name="Path" d="M.391,9,.212,8.785,5.752,2V.735L.176,7.57,0,7.354,6,0V2.129L.391,9Z" transform="translate(139 165)" fill="#231f20"/>
  <path id="Rectangle-25" data-name="Rectangle" d="M0,.513,8.73.486h0L0,.514Z" transform="translate(133.489 167.544) rotate(-45.05)" fill="#231f20"/>
  <path id="Path-129" data-name="Path" d="M12,4.554l-.069.227L5.708,11,.1,6.486,0,6.342,6.343,0,12,4.554Z" transform="translate(127 142)" fill="#fff"/>
  <path id="Path-130" data-name="Path" d="M5,0V1.612L.206,8l-.13-.174V6.748L0,6.667,5,0Z" transform="translate(132 148)" fill="#fff"/>
  <path id="Path-131" data-name="Path" d="M4.918,4.034,5,4.1V5L0,.9V0L4.918,4.034Z" transform="translate(127 150)" fill="#fff"/>
  <path id="Shape-29" data-name="Shape" d="M0,1.094V0L5,3.9V5Z" transform="translate(127 150)" fill="#231f20"/>
  <path id="Path-132" data-name="Path" d="M4.856,5,0,.221.141,0,.178.034,5,4.779,4.856,5Z" transform="translate(133 143)" fill="#231f20"/>
  <path id="Path-133" data-name="Path" d="M.388,9,.212,8.785,5.751,2V.735L.176,7.57,0,7.354l.07-.085L6,0V2.125L.388,9Z" transform="translate(132 146)" fill="#231f20"/>
  <path id="Rectangle-26" data-name="Rectangle" d="M0,.513,8.73.486h0L0,.514Z" transform="translate(126.787 148.421) rotate(-45.05)" fill="#231f20"/>
  <path id="Path-134" data-name="Path" d="M12,4.551l-.072.224L5.708,11,.1,6.485,0,6.344,6.343,0,12,4.551Z" transform="translate(133 149)" fill="#fff"/>
  <path id="Path-135" data-name="Path" d="M5,0V1.615L.212,8,.078,7.822V6.748L0,6.667,5,0Z" transform="translate(140 152)" fill="#fff"/>
  <path id="Path-136" data-name="Path" d="M4.915,4.036,5,4.1V5L0,.9V0L4.915,4.036Z" transform="translate(134 154)" fill="#fff"/>
  <path id="Shape-30" data-name="Shape" d="M0,1.1V0L5,3.9V5Z" transform="translate(134 154)" fill="#231f20"/>
  <path id="Path-137" data-name="Path" d="M4.856,5,0,.211.153,0l.04.041L5,4.782,4.856,5Z" transform="translate(141 148)" fill="#231f20"/>
  <path id="Path-138" data-name="Path" d="M.385,9,.216,8.781l.1-.114L5.751,2V.735L.176,7.566,0,7.351,6,0V2.124L.385,9Z" transform="translate(140 152)" fill="#231f20"/>
  <path id="Rectangle-27" data-name="Rectangle" d="M0,.513,8.734.486h0L0,.514Z" transform="translate(133.949 154.138) rotate(-45.05)" fill="#231f20"/>
  <path id="Path-139" data-name="Path" d="M12,4.556l-.072.223L5.706,11,.1,6.484,0,6.34,6.344,0,12,4.556Z" transform="translate(140 154)" fill="#fff"/>
  <path id="Path-140" data-name="Path" d="M5,0V1.615L.206,8,.078,7.822V6.748L0,6.667,5,0Z" transform="translate(147 157)" fill="#fff"/>
  <path id="Path-141" data-name="Path" d="M4.915,4.037,5,4.1V5L0,.9V0L4.915,4.037Z" transform="translate(142 160)" fill="#fff"/>
  <path id="Shape-31" data-name="Shape" d="M0,1.1V0L5,3.9,5,5Z" transform="translate(142 160)" fill="#231f20"/>
  <path id="Path-142" data-name="Path" d="M4.853,5,0,.221.141,0l.04.038L5,4.782,4.853,5Z" transform="translate(148 153)" fill="#231f20"/>
  <path id="Path-143" data-name="Path" d="M.388,9,.212,8.785,5.751,2V.735L.176,7.57,0,7.354,6,0V2.125L.388,9Z" transform="translate(147 157)" fill="#231f20"/>
  <path id="Rectangle-28" data-name="Rectangle" d="M0,.513,8.73.486h0L0,.514Z" transform="translate(141.133 159.854) rotate(-45.05)" fill="#231f20"/>
  <path id="Path-144" data-name="Path" d="M12,4.554l-.072.227L5.706,11,.1,6.486,0,6.342,6.341,0,12,4.554Z" transform="translate(134 135)" fill="#fff"/>
  <path id="Path-145" data-name="Path" d="M5,0V1.612L.206,8l-.13-.178V6.748L0,6.667,5,0Z" transform="translate(141 139)" fill="#fff"/>
  <path id="Path-146" data-name="Path" d="M4.918,4.036,5,4.1V5L0,.9V0L4.918,4.036Z" transform="translate(135 141)" fill="#fff"/>
  <path id="Shape-32" data-name="Shape" d="M0,1.094V0L5,3.908V5Z" transform="translate(135 141)" fill="#231f20"/>
  <path id="Path-147" data-name="Path" d="M4.856,5,0,.221.141,0,.178.034,5,4.779,4.856,5Z" transform="translate(141 135)" fill="#231f20"/>
  <path id="Path-148" data-name="Path" d="M.388,9,.212,8.785,5.752,2V.735L.176,7.57,0,7.355,6,0V2.128L.388,9Z" transform="translate(140 139)" fill="#231f20"/>
  <path id="Rectangle-29" data-name="Rectangle" d="M0,.513,8.73.486h0L0,.514Z" transform="translate(134.554 140.607) rotate(-45.05)" fill="#231f20"/>
  <path id="Path-149" data-name="Path" d="M12,4.551l-.069.224L5.708,11,.1,6.481,0,6.34,6.343,0,12,4.551Z" transform="translate(142 141)" fill="#fff"/>
  <path id="Path-150" data-name="Path" d="M5,0V1.615L.212,8,.078,7.822V6.748L0,6.667,5,0Z" transform="translate(148 145)" fill="#fff"/>
  <path id="Path-151" data-name="Path" d="M4.915,4.037,5,4.1V5L0,.9V0L4.915,4.037Z" transform="translate(142 147)" fill="#fff"/>
  <path id="Shape-33" data-name="Shape" d="M0,1.1V0L5,3.9V5Z" transform="translate(142 147)" fill="#231f20"/>
  <path id="Path-152" data-name="Path" d="M4.856,5,0,.211.153,0l.04.041L5,4.778,4.856,5Z" transform="translate(148 140)" fill="#231f20"/>
  <path id="Path-153" data-name="Path" d="M.388,9,.216,8.777l.1-.11L5.751,2V.735L.176,7.566,0,7.351,6,0V2.124L.388,9Z" transform="translate(147 144)" fill="#231f20"/>
  <path id="Rectangle-30" data-name="Rectangle" d="M0,.513,8.73.486h0L0,.514Z" transform="translate(141.716 146.324) rotate(-45.05)" fill="#231f20"/>
  <path id="Path-154" data-name="Path" d="M12,4.556l-.069.223L5.706,11,.1,6.484,0,6.34,6.344,0,12,4.556Z" transform="translate(149 147)" fill="#fff"/>
  <path id="Path-155" data-name="Path" d="M5,0V1.615L.206,8,.078,7.822V6.745L0,6.667,5,0Z" transform="translate(156 150)" fill="#fff"/>
  <path id="Path-156" data-name="Path" d="M4.915,4.037,5,4.1V5L0,.9V0L4.915,4.037Z" transform="translate(149 152)" fill="#fff"/>
  <path id="Shape-34" data-name="Shape" d="M0,1.1V0L5,3.9V5Z" transform="translate(149 152)" fill="#231f20"/>
  <path id="Path-157" data-name="Path" d="M4.856,5,0,.221.141,0l.04.038L5,4.779,4.856,5Z" transform="translate(156 147)" fill="#231f20"/>
  <path id="Path-158" data-name="Path" d="M.388,9,.212,8.785,5.751,2V.735L.176,7.57,0,7.354,6,0V2.125L.388,9Z" transform="translate(155 150)" fill="#231f20"/>
  <path id="Rectangle-31" data-name="Rectangle" d="M0,.513,8.73.486h0L0,.514Z" transform="translate(148.897 152.038) rotate(-45.05)" fill="#231f20"/>
  <path id="Path-159" data-name="Path" d="M12,4.551l-.072.227L5.708,11,.1,6.485,0,6.344,6.343,0,12,4.551Z" transform="translate(157 151)" fill="#fff"/>
  <path id="Path-160" data-name="Path" d="M5,0V1.612L.212,8,.078,7.822V6.748L0,6.667,5,0Z" transform="translate(162 156)" fill="#fff"/>
  <path id="Path-161" data-name="Path" d="M4.915,4.036,5,4.1V5L0,.9V0L4.915,4.036Z" transform="translate(157 159)" fill="#fff"/>
  <path id="Shape-35" data-name="Shape" d="M0,1.1V0L5,3.9V5Z" transform="translate(157 159)" fill="#231f20"/>
  <path id="Path-162" data-name="Path" d="M4.856,5,0,.211.153,0l.04.041L5,4.782,4.856,5Z" transform="translate(162 152)" fill="#231f20"/>
  <path id="Path-163" data-name="Path" d="M.385,9,.216,8.781l.1-.114L5.751,2V.735L.176,7.566,0,7.355.07,7.27,6,0V2.128L.385,9Z" transform="translate(161 155)" fill="#231f20"/>
  <path id="Rectangle-32" data-name="Rectangle" d="M0,.513,8.734.486h0L0,.514Z" transform="translate(156.008 157.963) rotate(-45.05)" fill="#231f20"/>
  <path id="Path-164" data-name="Path" d="M12,4.554l-.072.227L5.706,11,.1,6.486,0,6.338,6.344,0,12,4.554Z" transform="translate(143 127)" fill="#fff"/>
  <path id="Path-165" data-name="Path" d="M5,0V1.612L.206,8l-.13-.178V6.748L0,6.667,5,0Z" transform="translate(148 131)" fill="#fff"/>
  <path id="Path-166" data-name="Path" d="M4.918,4.036,5,4.1V5L0,.9V0L4.918,4.036Z" transform="translate(143 134)" fill="#fff"/>
  <path id="Shape-36" data-name="Shape" d="M0,1.1V0L5,3.905V5Z" transform="translate(143 134)" fill="#231f20"/>
  <path id="Path-167" data-name="Path" d="M4.853,5,0,.225.141,0l.04.038L5,4.782,4.853,5Z" transform="translate(148 127)" fill="#231f20"/>
  <path id="Path-168" data-name="Path" d="M.388,9,.212,8.785,5.751,2V.735L.176,7.57,0,7.354,6,0V2.125L.388,9Z" transform="translate(148 131)" fill="#231f20"/>
  <path id="Rectangle-33" data-name="Rectangle" d="M0,.513,8.73.486h0L0,.514Z" transform="translate(142.2 132.918) rotate(-45.05)" fill="#231f20"/>
  <path id="Path-169" data-name="Path" d="M12,4.551l-.069.227L5.709,11,.1,6.485,0,6.344,6.341,0,12,4.551Z" transform="translate(150 133)" fill="#fff"/>
  <path id="Path-170" data-name="Path" d="M5,0V1.611L.209,8,.075,7.822V6.745L0,6.663,5,0Z" transform="translate(156 138)" fill="#fff"/>
  <path id="Path-171" data-name="Path" d="M4.918,4.034,5,4.1V5L0,.9V0L4.918,4.034Z" transform="translate(150 139)" fill="#fff"/>
  <path id="Shape-37" data-name="Shape" d="M0,1.1V0L5,3.9,4.994,5Z" transform="translate(150 139)" fill="#231f20"/>
  <path id="Path-172" data-name="Path" d="M4.856,5,0,.21.15,0,.19.041,5,4.778,4.856,5Z" transform="translate(156 133)" fill="#231f20"/>
  <path id="Path-173" data-name="Path" d="M.388,9,.216,8.781l.1-.114L5.751,2V.739L.179,7.57,0,7.355,6,0V2.128L.388,9Z" transform="translate(155 137)" fill="#231f20"/>
  <path id="Rectangle-34" data-name="Rectangle" d="M0,.513,8.734.486h0L0,.514Z" transform="translate(149.36 138.637) rotate(-45.05)" fill="#231f20"/>
  <path id="Path-174" data-name="Path" d="M12,4.554l-.069.227L5.708,11,.1,6.486,0,6.342,6.343,0,12,4.554Z" transform="translate(157 138)" fill="#fff"/>
  <path id="Path-175" data-name="Path" d="M5,0V1.612L.2,8,.075,7.822V6.748L0,6.667,5,0Z" transform="translate(163 143)" fill="#fff"/>
  <path id="Path-176" data-name="Path" d="M4.918,4.036,5,4.1V5L0,.9V0L4.918,4.036Z" transform="translate(158 146)" fill="#fff"/>
  <path id="Shape-38" data-name="Shape" d="M0,1.094V0L5,3.9V5Z" transform="translate(158 146)" fill="#231f20"/>
  <path id="Path-177" data-name="Path" d="M4.856,5,0,.222.141,0,.178.034,5,4.782,4.856,5Z" transform="translate(163 138)" fill="#231f20"/>
  <path id="Path-178" data-name="Path" d="M.388,9,.212,8.785,5.751,2V.739L.176,7.57,0,7.355,6,0V2.128L.388,9Z" transform="translate(162 142)" fill="#231f20"/>
  <path id="Rectangle-35" data-name="Rectangle" d="M0,.513,8.73.486h0L0,.514Z" transform="translate(156.544 144.351) rotate(-45.05)" fill="#231f20"/>
  <path id="Path-179" data-name="Path" d="M12,4.551l-.069.224L5.709,11,.1,6.481,0,6.34,6.341,0,12,4.551Z" transform="translate(164 145)" fill="#fff"/>
  <path id="Path-180" data-name="Path" d="M5,0V1.615L.209,8,.075,7.822V6.748L0,6.667,5,0Z" transform="translate(170 149)" fill="#fff"/>
  <path id="Path-181" data-name="Path" d="M4.918,4.037,5,4.1V5L0,.9V0L4.918,4.037Z" transform="translate(164 151)" fill="#fff"/>
  <path id="Shape-39" data-name="Shape" d="M0,1.1V0L5,3.92V5Z" transform="translate(164 151)" fill="#231f20"/>
  <path id="Path-182" data-name="Path" d="M4.856,5,0,.214.15,0,.19.045,5,4.782,4.856,5Z" transform="translate(171 145)" fill="#231f20"/>
  <path id="Path-183" data-name="Path" d="M.388,9,.216,8.781l.1-.114L5.751,2V.735L.176,7.566,0,7.351,6,0V2.124L.388,9Z" transform="translate(170 149)" fill="#231f20"/>
  <path id="Rectangle-36" data-name="Rectangle" d="M0,.513,8.734.486h0L0,.514Z" transform="translate(163.652 150.273) rotate(-45.05)" fill="#231f20"/>
  <path id="Path-184" data-name="Path" d="M9,0V1.187L.091,11,0,10.9V9.918L9,0Z" transform="translate(124 192)" fill="#fff"/>
  <path id="Path-185" data-name="Path" d="M15,4.5V4.7L5.654,14v-.056L.1,9.486,0,9.346,9.381,0,15,4.5Z" transform="translate(118 189)" fill="#fff"/>
  <path id="Path-186" data-name="Path" d="M5,4.153V5L0,.9V0L5,4.1v.052Z" transform="translate(119 198)" fill="#fff"/>
  <path id="Shape-40" data-name="Shape" d="M0,1.094V0L5,3.9V5Z" transform="translate(119 198)" fill="#231f20"/>
  <path id="Path-187" data-name="Path" d="M4.858,5,0,.207.151,0,.187.041,5,4.782,4.858,5Z" transform="translate(127 188)" fill="#231f20"/>
  <path id="Rectangle-37" data-name="Rectangle" d="M0,.52,13.128.479h0L0,.521Z" transform="translate(117.495 197.012) rotate(-45.05)" fill="#231f20"/>
  <path id="Rectangle-38" data-name="Rectangle" d="M0,.519,12.942.48h0L0,.52Z" transform="translate(123.012 201.565) rotate(-44.95)" fill="#231f20"/>
  <path id="Path-188" data-name="Path" d="M.195,11,0,10.814l9.724-9.3V0H10V1.627l-.04.039L.195,11Z" transform="translate(123 192)" fill="#231f20"/>
  <path id="Path-189" data-name="Path" d="M29.97,4.488l.03.168L5.441,30v-.056L.1,25.5l-.1-.14L24.325.258,24.569,0l5.4,4.488Z" transform="translate(130 160)" fill="#fff"/>
  <path id="Path-190" data-name="Path" d="M26,0l-.032,1.119L.1,26,0,25.9V25L26,0Z" transform="translate(134 165)" fill="#fff"/>
  <path id="Path-191" data-name="Path" d="M5,4.153V5L0,.9V0L5,4.1v.052Z" transform="translate(129 186)" fill="#fff"/>
  <path id="Shape-41" data-name="Shape" d="M0,1.1V0L5,3.9V5Z" transform="translate(129 186)" fill="#231f20"/>
  <path id="Path-192" data-name="Path" d="M.178,26,0,25.812,24.213.347,24.533,0,30,4.627l-.158.209L24.553.358l-.162.173L.178,26Z" transform="translate(130 160)" fill="#231f20"/>
  <path id="Path-193" data-name="Path" d="M.188,27,0,26.811l.1-.095,25.6-25.3.021-.761L.188,25.885,0,25.7,26,0l-.043,1.522-.035.039L.188,27Z" transform="translate(135 165)" fill="#231f20"/>
  <g id="Group-3" data-name="Group" transform="translate(158 201)" opacity="0.15">
    <path id="Path-194" data-name="Path" d="M13.954,0l6.7,2.657L47.537,13.321,33.586,27.664,6.7,17,0,14.343,13.954,0Z" transform="translate(0.184 0.312)" fill="#231f20"/>
  </g>
  <path id="Path-195" data-name="Path" d="M85,0V120.753L0,207V176.8l5.345-5.427v23.986l74.306-75.39V12.121l-3.106,3.152v-.045l-1.259,1.277v-.035L48.22,43.93l-2.062,2.1L5.345,87.432V145.1L0,150.525V86.244L85,0Z" transform="translate(30 9)" fill="#ffc65a"/>
  <path id="Path-196" data-name="Path" d="M106,7.424l-85.81,86.3V94L3.919,87.689,0,86.165,85.676,0,106,7.424Z" transform="translate(10 1)" fill="#ffc65a"/>
  <path id="Path-197" data-name="Path" d="M75,0V107.708L0,183v-4.548l71.865-72.144V3.148L75,0Z" transform="translate(35 21)" fill="#e2a84d"/>
  <path id="Path-198" data-name="Path" d="M72,0V102.981L0,175v-1.859L70.727,102.4V1.273L72,0Z" transform="translate(35 24)" fill="#231f20"/>
  <path id="Path-199" data-name="Path" d="M71,0V101.2L0,172V70.8L71,0Z" transform="translate(34 26)" fill="#213148"/>
  <path id="Path-200" data-name="Path" d="M5,0V25.693L0,31V5.307L5,0Z" transform="translate(29 154)" fill="#ffc65a"/>
  <path id="Path-201" data-name="Path" d="M20,2.315V30.984L19.993,31l-16-6.014L0,23.484V8.55L2.762,9.588l11.083,4.166V0l1.227.461L20,2.315Z" transform="translate(10 182)" fill="#e2a84d"/>
  <path id="Shape-42" data-name="Shape" d="M2.761,36.6,0,35.5V9.03l2.761,1.1,11.084,4.4V0l1.227.487L20,2.442l0,26.325v.153l-4.925-1.958-1.227-.487V41Z" transform="translate(10 156)" fill="#e2a84d"/>
  <path id="Path-202" data-name="Path" d="M20,71.855V72l-4.928-1.941-1.227-.483V84L2.762,79.632,0,78.544V40.779l3.174,1.254L15.91,47.05V42.7L3.174,37.682l-1.8-.711L0,36.432V31.459l3.174,1.25L15.91,37.73V33.382L3.174,28.361l-1.8-.711L0,27.111V22.139l3.174,1.25L15.91,28.41V24.059L3.174,19.041l-1.8-.711L0,17.791V12.818l3.174,1.25L15.91,19.089V14.738L3.174,9.721l-1.8-.711L0,8.467V.135L.132,0,3.989,1.523,20,7.832V71.855Z" transform="translate(10 86)" fill="#e2a84d"/>
  <path id="Path-203" data-name="Path" d="M15,5.64V9L1.862,4.063,0,3.364V0L1.862.7,15,5.64Z" transform="translate(11 124)" fill="#231f20"/>
  <path id="Path-204" data-name="Path" d="M15,5.64V9L1.862,4.063,0,3.364V0L1.862.7,15,5.64Z" transform="translate(11 114)" fill="#231f20"/>
  <path id="Path-205" data-name="Path" d="M15,5.636V9L1.862,4.06,0,3.36V0L1.862.7,15,5.636Z" transform="translate(11 106)" fill="#231f20"/>
  <path id="Path-206" data-name="Path" d="M15,5.636V9L1.862,4.06,0,3.36V0L1.862.7,15,5.636Z" transform="translate(11 95)" fill="#231f20"/>
  <path id="Path-207" data-name="Path" d="M2,0C2.025,2.2,1.183,3.923.177,4A1.018,1.018,0,0,1,0,4C1.187,3.687,2,2.049,2,0Z" transform="translate(15 181)" fill="#231f20"/>
  <path id="Path-208" data-name="Path" d="M3,4.789v.337C3,7.1,2.447,8.69,1.638,9,.909,8.875.2,6.975.038,4.613S.27.334.944,0C1.8.094,2.627,1.623,2.9,3.658a1.929,1.929,0,0,0,.032.25c0,.138.026.28.037.425S2.994,4.647,3,4.789Z" transform="translate(14 177)" fill="#231f20"/>
  <path id="Path-209" data-name="Path" d="M.167,0C.878-.07,1.716,1.663,2,4,1.707,1.819.893.162,0,.06A.464.464,0,0,1,.167,0Z" transform="translate(15 177)" fill="#231f20"/>
  <path id="Rectangle-39" data-name="Rectangle" d="M.522,0h0L.478,21.792h0Z" transform="matrix(0.36, -0.933, 0.933, 0.36, 9.22, 87.119)" fill="#231f20"/>
  <path id="Path-210" data-name="Path" d="M14.654,15,0,9.4l.092-.245,14.3,5.46V0L21,2.527l-.092.245L14.654.385V15Z" transform="translate(10 155)" fill="#231f20"/>
  <path id="Path-211" data-name="Path" d="M17,17,.085,10.624l.092-.243,16.556,6.237V12.523L0,6.22V0L16.911,6.376l-.1.243L.267.382V6.039L17,12.343V17Z" transform="translate(9 98)" fill="#231f20"/>
  <path id="Shape-43" data-name="Shape" d="M0,86.657l.034-.038L86,0V121.339l-.035.034L0,208Z" transform="translate(30 8)" fill="#231f20"/>
  <path id="Rectangle-40" data-name="Rectangle" d="M0,.55l33.1-.1h0L0,.552Z" transform="translate(77.888 137.456) rotate(-45.05)" fill="#231f20"/>
  <path id="Rectangle-41" data-name="Rectangle" d="M0,.55l33.1-.1h0L0,.552Z" transform="translate(77.888 140.564) rotate(-45.05)" fill="#231f20"/>
  <path id="Rectangle-42" data-name="Rectangle" d="M0,.55l33.1-.1h0L0,.552Z" transform="translate(77.888 143.673) rotate(-45.05)" fill="#231f20"/>
  <path id="Rectangle-43" data-name="Rectangle" d="M0,.55l33.107-.1h0L0,.552Z" transform="translate(77.889 146.779) rotate(-45.05)" fill="#231f20"/>
  <path id="Rectangle-44" data-name="Rectangle" d="M0,.55l33.107-.1h0L0,.552Z" transform="translate(51.398 164.106) rotate(-45.05)" fill="#231f20"/>
  <path id="Rectangle-45" data-name="Rectangle" d="M0,.55l33.107-.1h0L0,.552Z" transform="translate(51.398 167.215) rotate(-45.05)" fill="#231f20"/>
  <path id="Rectangle-46" data-name="Rectangle" d="M0,.55l33.1-.1h0L0,.552Z" transform="translate(51.398 170.323) rotate(-45.05)" fill="#231f20"/>
  <path id="Rectangle-47" data-name="Rectangle" d="M0,.55l33.1-.1h0L0,.552Z" transform="translate(51.398 173.435) rotate(-45.05)" fill="#231f20"/>
  <path id="Rectangle-48" data-name="Rectangle" d="M0,.511,7.652.488h0L0,.512Z" transform="translate(29.356 158.213) rotate(-45.05)" fill="#231f20"/>
  <path id="Path-212" data-name="Path" d="M14.654,15,0,9.4l.092-.245,14.3,5.46V0L21,2.53l-.092.245L14.654.385V15Z" transform="translate(10 182)" fill="#231f20"/>
  <path id="Rectangle-49" data-name="Rectangle" d="M0,.511,7.652.488h0L0,.512Z" transform="translate(29.358 184.505) rotate(-45.05)" fill="#231f20"/>
  <path id="Path-213" data-name="Path" d="M0,184v-4.868H.257v4.246l74.487-75.192V.625L.222,75.852l-.181-.187L75,0V108.3l-.034.035L0,184Z" transform="translate(35 20)" fill="#231f20"/>
  <path id="Path-214" data-name="Path" d="M0,176v-2.176H.257v1.548l71.486-71.9V.624L7.443,65.3l-.185-.186L72,0V103.583l-.034.038L0,176Z" transform="translate(35 23)" fill="#231f20"/>
  <path id="Rectangle-50" data-name="Rectangle" d="M0,.508,5.7.491h0L0,.509Z" transform="translate(34.756 95.094) rotate(-44.95)" fill="#231f20"/>
  <path id="Path-215" data-name="Path" d="M0,173V71.18l.038-.035L41.9,29.759l.188.183L.262,71.291V172.379l71.477-70.666V.625L44.2,27.851l-.188-.183L72,0V101.82l-.038.041L0,173Z" transform="translate(34 25)" fill="#231f20"/>
  <rect id="Rectangle-51" data-name="Rectangle" width="0.257" height="3" transform="translate(11.871 95)" fill="#231f20"/>
  <path id="Path-216" data-name="Path" d="M17,17,.085,10.624l.092-.243,16.556,6.237V12.527L0,6.22V0L16.911,6.376l-.1.243L.267.382V6.039L17,12.346V17Z" transform="translate(9 108)" fill="#231f20"/>
  <path id="Path-217" data-name="Path" d="M.043,3V0H.3V3L.043,3Z" transform="translate(11.828 105)" fill="#231f20"/>
  <path id="Path-218" data-name="Path" d="M17,17,.085,10.624l.092-.243,16.556,6.237V12.527L0,6.22V0L3.519,1.33,16.911,6.376l-.1.243L.267.382V6.039L17,12.346V17Z" transform="translate(9 117)" fill="#231f20"/>
  <rect id="Rectangle-52" data-name="Rectangle" width="0.257" height="3" transform="translate(11.871 114)" fill="#231f20"/>
  <path id="Path-219" data-name="Path" d="M20.9,88,0,80.162V0L16.744,6.278l-.1.239L.264.376V79.984L21,87.761l-.042.123L20.9,88Z" transform="translate(9 126)" fill="#231f20"/>
  <rect id="Rectangle-53" data-name="Rectangle" width="0.257" height="3" transform="translate(11.871 124)" fill="#231f20"/>
  <path id="Path-220" data-name="Path" d="M.077,1A3.327,3.327,0,0,0,.053.511C.029.347.026.191.009.038L.263,0c0,.16.031.321.045.489s.021.332.027.5Z" transform="translate(16.828 181)" fill="#231f20"/>
  <path id="Path-221" data-name="Path" d="M2.622,10C1.376,10,.249,7.938.035,5.212-.185,2.413.654.137,1.947.007a.885.885,0,0,1,.217,0L2.138.275a.891.891,0,0,0-.167,0C.834.384.079,2.587.283,5.19s1.3,4.64,2.423,4.535a.74.74,0,0,0,.214-.051L3,9.935a1.031,1.031,0,0,1-.274.058Z" transform="translate(12 177)" fill="#231f20"/>
  <path id="Path-222" data-name="Path" d="M16.378,105,.082,98.694l.089-.24,15.95,6.169v-4.05L0,94.335V85.9l.168-.172L85.656,0,106,7.409l-.089.24L85.724.3.257,86.009v8.147l3.134,1.216,12.988,5.022V105Z" transform="translate(10 1)" fill="#231f20"/>
  <path id="Path-223" data-name="Path" d="M.18,39,0,38.824l3.172-3.176L38.817,0,39,.18,36.942,2.236.18,39Z" transform="translate(38 52)" fill="#231f20"/>
  <path id="Path-224" data-name="Path" d="M31,15.769,19.3,28S9.639,16.576,0,12.135c0,0,8.41-.25,11.828-4.041C13.443,6.308,13.941,3.72,11.91,0h0C21.477,4.491,31,15.769,31,15.769Z" transform="translate(174 197)" fill="#fff"/>
  <path id="Path-225" data-name="Path" d="M33,17,6.579,6.483,0,3.864,2.023,1.776C5.431-.841,9.759-.3,14.09,1.662,23.538,5.938,33,17,33,17Z" transform="translate(159 208)" fill="#898684"/>
  <path id="Path-226" data-name="Path" d="M14.677,1.835C16.7,5.588,16.188,8.2,14.6,10h0C9.845,6.528,4.579,3.855,0,4.342l.286-.306C3.966-1.108,9.33-.737,14.68,1.831Z" transform="translate(171 195)" fill="#fff"/>
  <path id="Path-227" data-name="Path" d="M25,5.767h0C21.465,9.626,12.755,9.88,12.755,9.88,8.177,7.809,3.6,7.246,0,10L9.672.058C14.483-.433,20.012,2.264,25,5.767Z" transform="translate(161 199)" fill="#fff"/>
  <path id="Shape-44" data-name="Shape" d="M0,4.19l.1-.142A10.912,10.912,0,0,1,2.174,1.867C5.283-.571,9.427-.628,14.494,1.735,23.958,6.111,33.548,17.491,33.642,17.6L34,18Z" transform="translate(158 207)" fill="#231f20"/>
  <path id="Rectangle-54" data-name="Rectangle" d="M0,.525,16.689.474h0L0,.526Z" transform="translate(191.993 224.2) rotate(-44.95)" fill="#231f20"/>
  <path id="Path-228" data-name="Path" d="M44.811,17C44.717,16.891,35.317,6.21,26,1.983,19.727-.86,14.929-.172,11.743,4.027l-.3.3L.182,15.709,0,15.525,11.554,3.857c3.254-4.295,8.156-5.01,14.552-2.108,4.9,2.221,9.777,6.2,13,9.152,3.5,3.195,5.87,5.9,5.893,5.926Z" transform="translate(159 195)" fill="#231f20"/>
  <path id="Path-229" data-name="Path" d="M14.859,5C9.039,1.516,4.046-.075.017.275L0,.049H0C4.077-.308,9.129,1.3,15,4.813Z" transform="translate(171 200)" fill="#231f20"/>
  <path id="Path-230" data-name="Path" d="M0,12v-.26c.086,0,8.786-.285,12.284-3.892,1.9-1.958,1.926-4.556.068-7.715L12.585,0c1.922,3.274,1.887,5.976-.107,8.028-1.872,1.927-5.167,2.906-7.6,3.385A33.816,33.816,0,0,1,0,12Z" transform="translate(173 197)" fill="#231f20"/>
  <g id="Group-4" data-name="Group" transform="translate(49 53)" opacity="0.44">
    <path id="Path-231" data-name="Path" d="M27.167,0V56.333L0,83.931V27.6L27.167,0Z" transform="translate(0.408 0.631)" fill="#52aaff"/>
    <path id="Shape-45" data-name="Shape" d="M0,27.858l.037-.037L27.417,0V56.7l-.038.038L0,84.554Z" transform="translate(0.283 0.319)" fill="#231f20"/>
  </g>
  <g id="Group-5" data-name="Group" transform="translate(77 52)" opacity="0.44">
    <path id="Path-232" data-name="Path" d="M54.543,21.17v57.2L0,57.2V0L54.543,21.17Z" transform="translate(0.259 0.292)" fill="#52aaff"/>
    <path id="Shape-46" data-name="Shape" d="M54.626,78.683,0,57.479V0L.176.066,54.8,21.271V78.753Z" transform="translate(0.128 0.101)" fill="#231f20"/>
  </g>
  <path id="Shape-47" data-name="Shape" d="M0,9.339l.453-1.16a7.224,7.224,0,0,0,2.65.483c3.074,0,5.577-1.795,5.577-4.019C8.68,3.118,7.5,1.8,5.765,1.108L6.2,0,26,7.568,17.429,16Z" transform="translate(95 119)" fill="#12ca70"/>
  <path id="Path-233" data-name="Path" d="M5,1.5C5,2.328,3.879,3,2.5,3S0,2.328,0,1.5,1.117,0,2.5,0,5,.669,5,1.5Z" transform="translate(111 128)" fill="#12ca70"/>
  <path id="Path-234" data-name="Path" d="M8.861.541A4.516,4.516,0,0,1,12,4.5C12,6.99,9.315,9,5.992,9a7.538,7.538,0,0,1-2.854-.541A4.508,4.508,0,0,1,0,4.5C0,2.018,2.685,0,6.008,0A7.546,7.546,0,0,1,8.861.541Z" transform="translate(91 120)" fill="#12ca70"/>
  <path id="Path-235" data-name="Path" d="M2.5,0C3.881,0,5,.672,5,1.5S3.881,3,2.5,3,0,2.328,0,1.5,1.115,0,2.5,0Z" transform="translate(83 118)" fill="#12ca70"/>
  <path id="Shape-48" data-name="Shape" d="M0,10.819,10.225,0,47,15.174,36.8,26Z" transform="translate(76 111)" fill="#12ca70"/>
  <path id="Shape-49" data-name="Shape" d="M0,12.991,12.894,0,54,16.008,41.13,29Z" transform="translate(73 110)" fill="#12ca70"/>
  <path id="Shape-50" data-name="Shape" d="M0,8.383,8.717,0,24,5.707l-.444,1.1a7.519,7.519,0,0,0-2.7-.481c-3.126,0-5.676,1.793-5.676,4,0,1.526,1.2,2.845,2.966,3.518L17.685,15Z" transform="translate(77 113)" fill="#12ca70"/>
  <path id="Shape-51" data-name="Shape" d="M40.944,28.968,0,13.062,12.974,0l.08.028L54,15.935,41.019,29Z" transform="translate(73 110)" fill="#231f20"/>
  <path id="Shape-52" data-name="Shape" d="M0,10.9,10.543,0l.076.032L48,15.1,37.485,26Z" transform="translate(75 111)" fill="#231f20"/>
  <path id="Shape-53" data-name="Shape" d="M34.319,21.969,0,8.618,8.6,0,43,13.382,34.394,22Z" transform="translate(78 113)" fill="#231f20"/>
  <path id="Shape-54" data-name="Shape" d="M3.157,8.467A4.5,4.5,0,0,1,0,4.5C0,2.017,2.691,0,6,0A7.469,7.469,0,0,1,8.843.536,4.514,4.514,0,0,1,12,4.5C12,6.98,9.31,9,6,9H5.936A7.517,7.517,0,0,1,3.157,8.467Z" transform="translate(91 120)" fill="#231f20"/>
  <path id="Shape-55" data-name="Shape" d="M0,1.508C0,.687,1.107,0,2.5,0S5,.678,5,1.508,3.882,3,2.5,3,0,2.328,0,1.508Z" transform="translate(111 128)" fill="#231f20"/>
  <path id="Shape-56" data-name="Shape" d="M0,1.509C0,.692,1.1,0,2.5,0S5,.677,5,1.509,3.877,3,2.5,3,0,2.326,0,1.509Z" transform="translate(83 118)" fill="#231f20"/>
  <path id="Shape-57" data-name="Shape" d="M0,9.338l.453-1.16a7.261,7.261,0,0,0,2.65.483c3.074,0,5.577-1.8,5.577-4.02,0-1.526-1.178-2.849-2.914-3.536L6.2,0,26,7.57,17.429,16Z" transform="translate(95 114)" fill="#12ca70"/>
  <path id="Path-236" data-name="Path" d="M5,1.5C5,2.328,3.879,3,2.5,3S0,2.328,0,1.5,1.117,0,2.5,0,5,.672,5,1.5Z" transform="translate(111 123)" fill="#12ca70"/>
  <path id="Path-237" data-name="Path" d="M8.861.541A4.516,4.516,0,0,1,12,4.5C12,6.99,9.315,9,5.992,9a7.538,7.538,0,0,1-2.854-.541A4.508,4.508,0,0,1,0,4.5C0,2.018,2.685,0,6.008,0A7.546,7.546,0,0,1,8.861.541Z" transform="translate(91 114)" fill="#12ca70"/>
  <path id="Path-238" data-name="Path" d="M2.5,0C3.881,0,5,.672,5,1.5S3.881,3,2.5,3,0,2.328,0,1.5,1.115,0,2.5,0Z" transform="translate(83 112)" fill="#12ca70"/>
  <path id="Shape-58" data-name="Shape" d="M0,10.822,10.225,0,47,15.171,36.8,26Z" transform="translate(76 107)" fill="#12ca70"/>
  <path id="Shape-59" data-name="Shape" d="M0,13.007,12.9,0,54,16,41.125,29Z" transform="translate(73 105)" fill="#12ca70"/>
  <path id="Shape-60" data-name="Shape" d="M0,8.386,8.726,0,24,5.707l-.444,1.1a7.51,7.51,0,0,0-2.7-.481c-3.123,0-5.673,1.793-5.673,4,0,1.526,1.2,2.845,2.964,3.518L17.689,15Z" transform="translate(77 109)" fill="#12ca70"/>
  <path id="Shape-61" data-name="Shape" d="M40.944,28.968,0,13.064,12.974,0l.08.028L54,15.933,41.019,29Z" transform="translate(73 106)" fill="#231f20"/>
  <path id="Shape-62" data-name="Shape" d="M0,10.9,10.543,0l.076.032L48,15.1,37.485,26Z" transform="translate(75 107)" fill="#231f20"/>
  <path id="Shape-63" data-name="Shape" d="M34.319,21.973,0,8.617,8.6,0,43,13.383,34.394,22Z" transform="translate(78 109)" fill="#231f20"/>
  <path id="Shape-64" data-name="Shape" d="M3.157,8.464A4.494,4.494,0,0,1,0,4.5C0,2.017,2.691,0,6,0A7.542,7.542,0,0,1,8.843.533,4.528,4.528,0,0,1,12,4.5C12,6.98,9.31,9,6,9H5.936A7.465,7.465,0,0,1,3.157,8.464Z" transform="translate(91 114)" fill="#231f20"/>
  <path id="Shape-65" data-name="Shape" d="M0,1.508C0,.687,1.107,0,2.5,0S5,.678,5,1.508,3.882,3,2.5,3,0,2.328,0,1.508Z" transform="translate(111 123)" fill="#231f20"/>
  <path id="Shape-66" data-name="Shape" d="M0,1.5C0,.675,1.1,0,2.5,0S5,.681,5,1.5,3.877,3,2.5,3,0,2.325,0,1.5Z" transform="translate(83 112)" fill="#231f20"/>
  <path id="Shape-67" data-name="Shape" d="M0,9.339l.453-1.16a7.224,7.224,0,0,0,2.65.483c3.074,0,5.577-1.795,5.577-4.019A4.066,4.066,0,0,0,5.765,1.108L6.2,0,26,7.558,17.429,16Z" transform="translate(95 110)" fill="#12ca70"/>
  <path id="Path-239" data-name="Path" d="M5,1.5C5,2.328,3.879,3,2.5,3S0,2.328,0,1.5,1.117,0,2.5,0,5,.672,5,1.5Z" transform="translate(111 119)" fill="#12ca70"/>
  <path id="Path-240" data-name="Path" d="M8.861.541A4.516,4.516,0,0,1,12,4.5C12,6.99,9.315,9,5.992,9a7.538,7.538,0,0,1-2.854-.541A4.508,4.508,0,0,1,0,4.5C0,2.018,2.685,0,6.008,0A7.546,7.546,0,0,1,8.861.541Z" transform="translate(91 110)" fill="#12ca70"/>
  <path id="Path-241" data-name="Path" d="M2.5,0C3.881,0,5,.672,5,1.5S3.881,3,2.5,3,0,2.328,0,1.5,1.115,0,2.5,0Z" transform="translate(83 108)" fill="#12ca70"/>
  <path id="Shape-68" data-name="Shape" d="M0,10.822,10.222,0,47,15.171,36.8,26Z" transform="translate(76 102)" fill="#12ca70"/>
  <path id="Shape-69" data-name="Shape" d="M0,12.993,12.876,0,54,16.007,41.114,29Z" transform="translate(73 100)" fill="#12ca70"/>
  <path id="Shape-70" data-name="Shape" d="M0,8.388,8.726,0,24,5.709l-.444,1.1a7.51,7.51,0,0,0-2.7-.481c-3.123,0-5.673,1.793-5.673,4,0,1.525,1.2,2.84,2.964,3.517L17.689,15Z" transform="translate(77 104)" fill="#12ca70"/>
  <path id="Shape-71" data-name="Shape" d="M40.944,28.968,0,13.064,12.974,0l.08.032L54,15.936,41.019,29Z" transform="translate(73 100)" fill="#231f20"/>
  <path id="Shape-72" data-name="Shape" d="M0,10.9,10.543,0l.076.032L48,15.086,37.485,26Z" transform="translate(75 102)" fill="#231f20"/>
  <path id="Shape-73" data-name="Shape" d="M34.319,21.973,0,8.617,8.6,0,43,13.383,34.394,22Z" transform="translate(78 103)" fill="#231f20"/>
  <path id="Shape-74" data-name="Shape" d="M3.157,8.464A4.494,4.494,0,0,1,0,4.5C0,2.013,2.691,0,6,0A7.542,7.542,0,0,1,8.843.533,4.522,4.522,0,0,1,12,4.5C12,6.98,9.31,9,6,9H5.936A7.465,7.465,0,0,1,3.157,8.464Z" transform="translate(91 110)" fill="#231f20"/>
  <path id="Shape-75" data-name="Shape" d="M0,1.508C0,.687,1.107,0,2.5,0S5,.678,5,1.508,3.882,3,2.5,3,0,2.328,0,1.508Z" transform="translate(111 119)" fill="#231f20"/>
  <path id="Shape-76" data-name="Shape" d="M0,1.5C0,.675,1.1,0,2.5,0S5,.681,5,1.5,3.877,3,2.5,3,0,2.325,0,1.5Z" transform="translate(83 108)" fill="#231f20"/>
  <path id="Shape-77" data-name="Shape" d="M0,9.339.453,8.177a7.167,7.167,0,0,0,2.65.486c3.074,0,5.577-1.795,5.577-4.019A4.066,4.066,0,0,0,5.765,1.108L6.2,0,26,7.579,17.429,16Z" transform="translate(95 106)" fill="#12ca70"/>
  <path id="Path-242" data-name="Path" d="M5,1.5C5,2.328,3.879,3,2.5,3S0,2.328,0,1.5,1.117,0,2.5,0,5,.672,5,1.5Z" transform="translate(111 114)" fill="#12ca70"/>
  <path id="Path-243" data-name="Path" d="M8.861.541A4.516,4.516,0,0,1,12,4.5C12,6.99,9.315,9,5.992,9a7.465,7.465,0,0,1-2.854-.545A4.5,4.5,0,0,1,0,4.5C0,2.018,2.685,0,6.008,0A7.546,7.546,0,0,1,8.861.541Z" transform="translate(91 106)" fill="#12ca70"/>
  <path id="Path-244" data-name="Path" d="M2.5,0C3.881,0,5,.672,5,1.5S3.881,3,2.5,3,0,2.328,0,1.5,1.115,0,2.5,0Z" transform="translate(83 104)" fill="#12ca70"/>
  <path id="Shape-78" data-name="Shape" d="M0,10.823,10.222,0,47,15.174,36.8,26Z" transform="translate(76 97)" fill="#12ca70"/>
  <path id="Shape-79" data-name="Shape" d="M0,12.993,12.875,0,54,16,41.108,29Z" transform="translate(73 96)" fill="#12ca70"/>
  <path id="Shape-80" data-name="Shape" d="M0,8.388,8.717,0,24,5.709l-.444,1.1a7.519,7.519,0,0,0-2.7-.481c-3.126,0-5.676,1.793-5.676,4,0,1.525,1.2,2.84,2.966,3.514L17.7,15Z" transform="translate(77 99)" fill="#12ca70"/>
  <path id="Shape-81" data-name="Shape" d="M40.944,28.968,0,13.064,12.974,0l.08.032L54,15.936,41.019,29Z" transform="translate(73 95)" fill="#231f20"/>
  <path id="Shape-82" data-name="Shape" d="M0,10.9,10.543,0l.076.032L48,15.093,37.485,26Z" transform="translate(75 97)" fill="#231f20"/>
  <path id="Shape-83" data-name="Shape" d="M34.319,21.969,0,8.617,8.6,0,43,13.383,34.394,22Z" transform="translate(78 99)" fill="#231f20"/>
  <path id="Shape-84" data-name="Shape" d="M3.157,8.464A4.5,4.5,0,0,1,0,4.5C0,2.013,2.691,0,6,0A7.524,7.524,0,0,1,8.843.536,4.519,4.519,0,0,1,12,4.505C12,6.983,9.31,9,6,9H5.936A7.465,7.465,0,0,1,3.157,8.464Z" transform="translate(91 106)" fill="#231f20"/>
  <path id="Shape-85" data-name="Shape" d="M0,1.508C0,.687,1.107,0,2.5,0S5,.678,5,1.508,3.882,3,2.5,3,0,2.328,0,1.508Z" transform="translate(111 114)" fill="#231f20"/>
  <path id="Shape-86" data-name="Shape" d="M0,1.5C0,.675,1.1,0,2.5,0S5,.681,5,1.5,3.877,3,2.5,3,0,2.325,0,1.5Z" transform="translate(83 104)" fill="#231f20"/>
  <path id="Shape-87" data-name="Shape" d="M0,9.342.453,8.178a7.183,7.183,0,0,0,2.65.483c3.074,0,5.577-1.793,5.577-4.017A4.066,4.066,0,0,0,5.765,1.109L6.2,0,26,7.57,17.429,16Z" transform="translate(95 100)" fill="#12ca70"/>
  <path id="Path-245" data-name="Path" d="M5,1.5C5,2.329,3.879,3,2.5,3S0,2.329,0,1.5,1.117,0,2.5,0,5,.675,5,1.5Z" transform="translate(111 109)" fill="#12ca70"/>
  <path id="Path-246" data-name="Path" d="M8.861.542A4.518,4.518,0,0,1,12,4.5C12,6.993,9.315,9,5.992,9a7.462,7.462,0,0,1-2.854-.541A4.5,4.5,0,0,1,0,4.5C0,2.015,2.685,0,6.008,0A7.47,7.47,0,0,1,8.861.542Z" transform="translate(91 100)" fill="#12ca70"/>
  <path id="Path-247" data-name="Path" d="M2.5,0C3.881,0,5,.672,5,1.5S3.881,3,2.5,3,0,2.328,0,1.5,1.115,0,2.5,0Z" transform="translate(83 98)" fill="#12ca70"/>
  <path id="Shape-88" data-name="Shape" d="M0,10.823,10.222,0,47,15.155,36.8,26Z" transform="translate(76 93)" fill="#12ca70"/>
  <path id="Shape-89" data-name="Shape" d="M0,12.993,12.876,0,54,16.007,41.114,29Z" transform="translate(73 91)" fill="#12ca70"/>
  <path id="Shape-90" data-name="Shape" d="M0,8.386,8.717,0,24,5.711l-.444,1.1a7.461,7.461,0,0,0-2.7-.481c-3.126,0-5.676,1.789-5.676,4,0,1.526,1.2,2.84,2.966,3.514L17.685,15Z" transform="translate(77 95)" fill="#12ca70"/>
  <path id="Shape-91" data-name="Shape" d="M40.944,28.972,0,13.065,12.974,0l.08.032L54,15.938,41.019,29Z" transform="translate(73 91)" fill="#231f20"/>
  <path id="Shape-92" data-name="Shape" d="M0,10.894,10.543,0l.076.032L48,15.089,37.485,26Z" transform="translate(75 93)" fill="#231f20"/>
  <path id="Shape-93" data-name="Shape" d="M34.319,21.969,0,8.617,8.6,0,43,13.383,34.394,22Z" transform="translate(78 95)" fill="#231f20"/>
  <path id="Shape-94" data-name="Shape" d="M3.157,8.464A4.5,4.5,0,0,1,0,4.5C0,2.013,2.691,0,6,0A7.469,7.469,0,0,1,8.843.536,4.524,4.524,0,0,1,12,4.505C12,6.98,9.31,9,6,9H5.936A7.465,7.465,0,0,1,3.157,8.464Z" transform="translate(91 100)" fill="#231f20"/>
  <path id="Shape-95" data-name="Shape" d="M0,1.508C0,.689,1.107,0,2.5,0S5,.678,5,1.508,3.882,3,2.5,3,0,2.326,0,1.508Z" transform="translate(111 109)" fill="#231f20"/>
  <path id="Shape-96" data-name="Shape" d="M0,1.5C0,.675,1.1,0,2.5,0S5,.681,5,1.5,3.877,3,2.5,3,0,2.325,0,1.5Z" transform="translate(83 98)" fill="#231f20"/>
  <path id="Shape-97" data-name="Shape" d="M0,9.338l.453-1.16a7.183,7.183,0,0,0,2.65.483c3.074,0,5.577-1.793,5.577-4.017A4.066,4.066,0,0,0,5.765,1.109L6.2,0,26,7.57,17.429,16Z" transform="translate(95 95)" fill="#12ca70"/>
  <path id="Path-248" data-name="Path" d="M5,1.5C5,2.329,3.879,3,2.5,3S0,2.329,0,1.5,1.117,0,2.5,0,5,.671,5,1.5Z" transform="translate(111 105)" fill="#12ca70"/>
  <path id="Path-249" data-name="Path" d="M8.861.542A4.518,4.518,0,0,1,12,4.5C12,6.993,9.315,9,5.992,9a7.462,7.462,0,0,1-2.854-.541A4.5,4.5,0,0,1,0,4.5C0,2.015,2.685,0,6.008,0A7.47,7.47,0,0,1,8.861.542Z" transform="translate(91 96)" fill="#12ca70"/>
  <path id="Path-250" data-name="Path" d="M2.5,0C3.881,0,5,.671,5,1.5S3.881,3,2.5,3,0,2.329,0,1.5,1.115,0,2.5,0Z" transform="translate(83 94)" fill="#12ca70"/>
  <path id="Shape-98" data-name="Shape" d="M0,10.819,10.222,0,47,15.17,36.8,26Z" transform="translate(76 87)" fill="#12ca70"/>
  <path id="Shape-99" data-name="Shape" d="M0,13,12.894,0,54,16.007,41.13,29Z" transform="translate(73 86)" fill="#12ca70"/>
  <path id="Shape-100" data-name="Shape" d="M0,8.39,8.717,0,24,5.71l-.444,1.1a7.462,7.462,0,0,0-2.7-.482c-3.126,0-5.676,1.79-5.676,4,0,1.526,1.2,2.841,2.966,3.514L17.685,15Z" transform="translate(77 90)" fill="#12ca70"/>
  <path id="Shape-101" data-name="Shape" d="M40.944,28.972,0,13.065,12.974,0l.08.032L54,15.938,41.019,29Z" transform="translate(73 86)" fill="#231f20"/>
  <path id="Shape-102" data-name="Shape" d="M0,10.9,10.543,0l.076.032L48,15.093,37.485,26Z" transform="translate(75 87)" fill="#231f20"/>
  <path id="Shape-103" data-name="Shape" d="M34.319,21.969,0,8.617,8.6,0,43,13.383,34.394,22Z" transform="translate(78 89)" fill="#231f20"/>
  <path id="Shape-104" data-name="Shape" d="M3.157,8.464A4.5,4.5,0,0,1,0,4.5C0,2.013,2.691,0,6,0A7.469,7.469,0,0,1,8.843.536,4.519,4.519,0,0,1,12,4.505C12,6.98,9.31,9,6,9H5.936A7.465,7.465,0,0,1,3.157,8.464Z" transform="translate(91 96)" fill="#231f20"/>
  <path id="Shape-105" data-name="Shape" d="M0,1.508C0,.689,1.107,0,2.5,0S5,.675,5,1.508,3.882,3,2.5,3,0,2.326,0,1.508Z" transform="translate(111 105)" fill="#231f20"/>
  <path id="Shape-106" data-name="Shape" d="M0,1.508C0,.689,1.1,0,2.5,0S5,.678,5,1.508,3.877,3,2.5,3,0,2.326,0,1.508Z" transform="translate(83 94)" fill="#231f20"/>
  <path id="Shape-107" data-name="Shape" d="M0,9.338l.453-1.16a7.183,7.183,0,0,0,2.65.483c3.074,0,5.577-1.793,5.577-4.017A4.066,4.066,0,0,0,5.765,1.109L6.2,0,26,7.566,17.429,16Z" transform="translate(95 91)" fill="#12ca70"/>
  <path id="Path-251" data-name="Path" d="M5,1.5C5,2.328,3.879,3,2.5,3S0,2.328,0,1.5,1.117,0,2.5,0,5,.659,5,1.5Z" transform="translate(111 99)" fill="#12ca70"/>
  <path id="Path-252" data-name="Path" d="M8.861.542A4.518,4.518,0,0,1,12,4.5C12,6.993,9.315,9,5.992,9a7.462,7.462,0,0,1-2.854-.541A4.509,4.509,0,0,1,0,4.5C0,2.015,2.685,0,6.008,0A7.47,7.47,0,0,1,8.861.542Z" transform="translate(91 90)" fill="#12ca70"/>
  <path id="Path-253" data-name="Path" d="M2.5,0C3.881,0,5,.671,5,1.5S3.881,3,2.5,3,0,2.325,0,1.5,1.115,0,2.5,0Z" transform="translate(83 90)" fill="#12ca70"/>
  <path id="Shape-108" data-name="Shape" d="M0,10.84,10.222,0,47,15.17,36.8,26Z" transform="translate(76 83)" fill="#12ca70"/>
  <path id="Shape-109" data-name="Shape" d="M0,13,12.894,0,54,16.007,41.13,29Z" transform="translate(73 81)" fill="#12ca70"/>
  <path id="Shape-110" data-name="Shape" d="M0,8.39,8.717,0,24,5.71l-.444,1.1a7.462,7.462,0,0,0-2.7-.482c-3.126,0-5.676,1.79-5.676,4,0,1.522,1.2,2.841,2.966,3.514L17.685,15Z" transform="translate(77 85)" fill="#12ca70"/>
  <path id="Shape-111" data-name="Shape" d="M40.944,28.972,0,13.065,12.974,0l.08.032L54,15.938,41.019,29Z" transform="translate(73 82)" fill="#231f20"/>
  <path id="Shape-112" data-name="Shape" d="M0,10.89,10.543,0l.076.032L48,15.085,37.485,26Z" transform="translate(75 83)" fill="#231f20"/>
  <path id="Shape-113" data-name="Shape" d="M34.319,21.969,0,8.617,8.6,0,43,13.383,34.394,22Z" transform="translate(78 85)" fill="#231f20"/>
  <path id="Shape-114" data-name="Shape" d="M3.157,8.464A4.5,4.5,0,0,1,0,4.5C0,2.016,2.691,0,6,0A7.487,7.487,0,0,1,8.843.536,4.516,4.516,0,0,1,12,4.5C12,6.98,9.31,9,6,9H5.936A7.465,7.465,0,0,1,3.157,8.464Z" transform="translate(91 90)" fill="#231f20"/>
  <path id="Shape-115" data-name="Shape" d="M0,1.508C0,.689,1.107,0,2.5,0S5,.675,5,1.508,3.882,3,2.5,3,0,2.326,0,1.508Z" transform="translate(111 99)" fill="#231f20"/>
  <path id="Shape-116" data-name="Shape" d="M0,1.508C0,.689,1.1,0,2.5,0S5,.675,5,1.508,3.877,3,2.5,3,0,2.326,0,1.508Z" transform="translate(83 90)" fill="#231f20"/>
  <path id="Shape-117" data-name="Shape" d="M0,9.338l.453-1.16a7.183,7.183,0,0,0,2.65.483c3.074,0,5.577-1.793,5.577-4.02A4.066,4.066,0,0,0,5.765,1.109L6.2,0,26,7.566,17.429,16Z" transform="translate(95 85)" fill="#12ca70"/>
  <path id="Path-254" data-name="Path" d="M5,1.5C5,2.328,3.879,3,2.5,3S0,2.328,0,1.5,1.117,0,2.5,0,5,.672,5,1.5Z" transform="translate(111 95)" fill="#12ca70"/>
  <path id="Path-255" data-name="Path" d="M8.861.542A4.517,4.517,0,0,1,12,4.5C12,6.993,9.315,9,5.992,9a7.462,7.462,0,0,1-2.854-.541A4.509,4.509,0,0,1,0,4.5C0,2.015,2.685,0,6.008,0A7.47,7.47,0,0,1,8.861.542Z" transform="translate(91 87)" fill="#12ca70"/>
  <path id="Path-256" data-name="Path" d="M2.5,0C3.881,0,5,.672,5,1.5S3.881,3,2.5,3,0,2.328,0,1.5,1.115,0,2.5,0Z" transform="translate(83 85)" fill="#12ca70"/>
  <path id="Shape-118" data-name="Shape" d="M0,10.822,10.225,0,47,15.171,36.8,26Z" transform="translate(76 79)" fill="#12ca70"/>
  <path id="Shape-119" data-name="Shape" d="M0,13,12.894,0,54,16.007,41.13,29Z" transform="translate(73 78)" fill="#12ca70"/>
  <path id="Shape-120" data-name="Shape" d="M0,8.39,8.717,0,24,5.71l-.444,1.1a7.462,7.462,0,0,0-2.7-.482c-3.126,0-5.676,1.79-5.676,4,0,1.526,1.2,2.845,2.966,3.518L17.685,15Z" transform="translate(77 81)" fill="#12ca70"/>
  <path id="Shape-121" data-name="Shape" d="M40.944,28.968,0,13.065,12.974,0l.08.032L54,15.938,41.019,29Z" transform="translate(73 78)" fill="#231f20"/>
  <path id="Shape-122" data-name="Shape" d="M0,10.89,10.543,0l.076.029L48,15.085,37.485,26Z" transform="translate(75 79)" fill="#231f20"/>
  <path id="Shape-123" data-name="Shape" d="M34.319,21.969,0,8.617,8.6,0,43,13.383,34.394,22Z" transform="translate(78 81)" fill="#231f20"/>
  <path id="Shape-124" data-name="Shape" d="M3.157,8.464A4.5,4.5,0,0,1,0,4.5C0,2.016,2.691,0,6,0A7.452,7.452,0,0,1,8.843.536,4.521,4.521,0,0,1,12,4.5C12,6.98,9.31,9,6,9H5.936A7.465,7.465,0,0,1,3.157,8.464Z" transform="translate(91 87)" fill="#231f20"/>
  <path id="Shape-125" data-name="Shape" d="M0,1.508C0,.689,1.107,0,2.5,0S5,.675,5,1.508,3.882,3,2.5,3,0,2.326,0,1.508Z" transform="translate(111 95)" fill="#231f20"/>
  <path id="Shape-126" data-name="Shape" d="M0,1.508C0,.689,1.1,0,2.5,0S5,.675,5,1.508,3.877,3,2.5,3,0,2.326,0,1.508Z" transform="translate(83 85)" fill="#231f20"/>
  <path id="Shape-127" data-name="Shape" d="M0,9.338l.453-1.16a7.183,7.183,0,0,0,2.65.483c3.074,0,5.576-1.793,5.576-4.02A4.066,4.066,0,0,0,5.765,1.109L6.2,0,26,7.566,17.427,16Z" transform="translate(95 83)" fill="#12ca70"/>
  <path id="Path-257" data-name="Path" d="M5,1.5C5,2.328,3.879,3,2.5,3S0,2.328,0,1.5,1.117,0,2.5,0,5,.672,5,1.5Z" transform="translate(111 91)" fill="#12ca70"/>
  <path id="Path-258" data-name="Path" d="M8.861.542A4.517,4.517,0,0,1,12,4.5C12,6.993,9.315,9,5.992,9a7.462,7.462,0,0,1-2.854-.541A4.509,4.509,0,0,1,0,4.5C0,2.015,2.685,0,6.008,0A7.47,7.47,0,0,1,8.861.542Z" transform="translate(91 82)" fill="#12ca70"/>
  <path id="Path-259" data-name="Path" d="M2.5,0C3.881,0,5,.672,5,1.5S3.881,3,2.5,3,0,2.328,0,1.5,1.115,0,2.5,0Z" transform="translate(83 81)" fill="#12ca70"/>
  <path id="Shape-128" data-name="Shape" d="M0,10.828,10.225,0,47,15.176,36.8,26Z" transform="translate(76 74)" fill="#12ca70"/>
  <path id="Shape-129" data-name="Shape" d="M0,13,12.9,0,54,16.007,41.125,29Z" transform="translate(73 73)" fill="#12ca70"/>
  <path id="Shape-130" data-name="Shape" d="M0,8.39,8.717,0,24,5.71l-.429,1.117a7.468,7.468,0,0,0-2.7-.495c-3.126,0-5.676,1.79-5.676,4,0,1.526,1.2,2.845,2.965,3.518L17.7,15Z" transform="translate(77 77)" fill="#12ca70"/>
  <path id="Shape-131" data-name="Shape" d="M40.944,28.968,0,13.065,12.974,0l.08.032L54,15.953,41.019,29Z" transform="translate(73 72)" fill="#231f20"/>
  <path id="Shape-132" data-name="Shape" d="M0,10.89,10.543,0l.076.029L48,15.085,37.485,26Z" transform="translate(75 74)" fill="#231f20"/>
  <path id="Shape-133" data-name="Shape" d="M34.319,21.969,0,8.617,8.6,0,43,13.383,34.394,22Z" transform="translate(78 76)" fill="#231f20"/>
  <path id="Shape-134" data-name="Shape" d="M3.157,8.464A4.5,4.5,0,0,1,0,4.5C0,2.016,2.691,0,6,0A7.452,7.452,0,0,1,8.843.536,4.516,4.516,0,0,1,12,4.5C12,6.98,9.31,9,6,9H5.936A7.465,7.465,0,0,1,3.157,8.464Z" transform="translate(91 82)" fill="#231f20"/>
  <path id="Shape-135" data-name="Shape" d="M0,1.508C0,.689,1.107,0,2.5,0S5,.675,5,1.508,3.882,3,2.5,3,0,2.326,0,1.508Z" transform="translate(111 91)" fill="#231f20"/>
  <path id="Shape-136" data-name="Shape" d="M0,1.508C0,.689,1.1,0,2.5,0S5,.675,5,1.508,3.877,3,2.5,3,0,2.326,0,1.508Z" transform="translate(83 81)" fill="#231f20"/>
  <path id="Shape-137" data-name="Shape" d="M0,9.338l.45-1.16A7.194,7.194,0,0,0,3.1,8.662c3.074,0,5.576-1.793,5.576-4.017A4.066,4.066,0,0,0,5.765,1.109L6.2,0,26,7.57,17.427,16Z" transform="translate(80 135)" fill="#12ca70"/>
  <path id="Path-260" data-name="Path" d="M5,1.5C5,2.328,3.879,3,2.5,3S0,2.328,0,1.5,1.117,0,2.5,0,5,.672,5,1.5Z" transform="translate(96 144)" fill="#12ca70"/>
  <path id="Path-261" data-name="Path" d="M8.862.542A4.517,4.517,0,0,1,12,4.5C12,6.993,9.316,9,5.994,9a7.476,7.476,0,0,1-2.856-.541A4.509,4.509,0,0,1,0,4.5C0,2.015,2.688,0,6.006,0A7.465,7.465,0,0,1,8.862.542Z" transform="translate(77 135)" fill="#12ca70"/>
  <path id="Path-262" data-name="Path" d="M2.5,0C3.881,0,5,.671,5,1.5S3.881,3,2.5,3,0,2.325,0,1.5,1.115,0,2.5,0Z" transform="translate(69 133)" fill="#12ca70"/>
  <path id="Shape-138" data-name="Shape" d="M0,10.819,10.225,0,47,15.17,36.8,26Z" transform="translate(61 127)" fill="#12ca70"/>
  <path id="Shape-139" data-name="Shape" d="M0,13,12.884,0,54,16.007,41.109,29Z" transform="translate(58 125)" fill="#12ca70"/>
  <path id="Shape-140" data-name="Shape" d="M0,8.39,8.717,0,24,5.71l-.444,1.1a7.462,7.462,0,0,0-2.7-.482c-3.126,0-5.665,1.79-5.665,4,0,1.522,1.2,2.841,2.966,3.514L17.7,15Z" transform="translate(63 129)" fill="#12ca70"/>
  <path id="Shape-141" data-name="Shape" d="M40.937,28.972,0,13.071,12.974,0l.076.032L54,15.943,41.017,29Z" transform="translate(58 125)" fill="#231f20"/>
  <path id="Shape-142" data-name="Shape" d="M0,10.9,10.543,0l.076.032L48,15.1,37.482,26Z" transform="translate(61 127)" fill="#231f20"/>
  <path id="Shape-143" data-name="Shape" d="M34.322,21.969,0,8.617,8.6,0,43,13.383,34.4,22Z" transform="translate(63 129)" fill="#231f20"/>
  <path id="Shape-144" data-name="Shape" d="M3.157,8.464A4.5,4.5,0,0,1,0,4.5C0,2.013,2.691,0,6,0A7.487,7.487,0,0,1,8.843.536,4.524,4.524,0,0,1,12,4.505C12,6.98,9.31,9,6,9H5.93A7.449,7.449,0,0,1,3.157,8.464Z" transform="translate(77 135)" fill="#231f20"/>
  <path id="Shape-145" data-name="Shape" d="M0,1.5C0,.678,1.107,0,2.5,0S5,.678,5,1.5,3.878,3,2.5,3,0,2.322,0,1.5Z" transform="translate(96 144)" fill="#231f20"/>
  <path id="Shape-146" data-name="Shape" d="M0,1.508C0,.689,1.105,0,2.5,0S5,.675,5,1.508,3.876,3,2.5,3,0,2.326,0,1.508Z" transform="translate(69 133)" fill="#231f20"/>
  <path id="Shape-147" data-name="Shape" d="M0,9.338l.449-1.16a7.193,7.193,0,0,0,2.659.483c3.073,0,5.575-1.793,5.575-4.02A4.066,4.066,0,0,0,5.77,1.109L6.206,0,26,7.566,17.421,16Z" transform="translate(80 130)" fill="#12ca70"/>
  <path id="Path-263" data-name="Path" d="M5,1.5C5,2.328,3.879,3,2.5,3S0,2.328,0,1.5,1.117,0,2.5,0,5,.672,5,1.5Z" transform="translate(96 139)" fill="#12ca70"/>
  <path id="Path-264" data-name="Path" d="M8.862.542A4.517,4.517,0,0,1,12,4.5C12,6.993,9.316,9,5.994,9a7.476,7.476,0,0,1-2.856-.541A4.509,4.509,0,0,1,0,4.5C0,2.015,2.688,0,6.006,0A7.465,7.465,0,0,1,8.862.542Z" transform="translate(77 130)" fill="#12ca70"/>
  <path id="Path-265" data-name="Path" d="M2.5,0C3.881,0,5,.672,5,1.5S3.881,3,2.5,3,0,2.328,0,1.5,1.115,0,2.5,0Z" transform="translate(69 128)" fill="#12ca70"/>
  <path id="Shape-148" data-name="Shape" d="M0,10.822,10.225,0,47,15.171,36.8,26Z" transform="translate(61 122)" fill="#12ca70"/>
  <path id="Shape-149" data-name="Shape" d="M0,13,12.884,0,54,16.007,41.109,29Z" transform="translate(58 121)" fill="#12ca70"/>
  <path id="Shape-150" data-name="Shape" d="M0,8.39,8.717,0,24,5.71l-.444,1.1a7.462,7.462,0,0,0-2.7-.482c-3.126.018-5.665,1.79-5.665,4,0,1.526,1.2,2.845,2.966,3.518L17.7,15Z" transform="translate(63 124)" fill="#12ca70"/>
  <path id="Shape-151" data-name="Shape" d="M40.937,28.969,0,13.057,12.974,0l.076.032L54,15.928,41.017,29Z" transform="translate(58 121)" fill="#231f20"/>
  <path id="Shape-152" data-name="Shape" d="M0,10.89,10.543,0l.076.029L48,15.085,37.482,26Z" transform="translate(61 122)" fill="#231f20"/>
  <path id="Shape-153" data-name="Shape" d="M34.322,21.969,0,8.617,8.6,0,43,13.383,34.4,22Z" transform="translate(63 124)" fill="#231f20"/>
  <path id="Shape-154" data-name="Shape" d="M3.157,8.464A4.5,4.5,0,0,1,0,4.5C0,2.016,2.691,0,6,0A7.452,7.452,0,0,1,8.843.536,4.521,4.521,0,0,1,12,4.5C12,6.98,9.31,9,6,9H5.93A7.431,7.431,0,0,1,3.157,8.464Z" transform="translate(77 130)" fill="#231f20"/>
  <path id="Shape-155" data-name="Shape" d="M0,1.5C0,.678,1.107,0,2.5,0S5,.678,5,1.5,3.878,3,2.5,3,0,2.322,0,1.5Z" transform="translate(96 139)" fill="#231f20"/>
  <path id="Shape-156" data-name="Shape" d="M0,1.508C0,.689,1.105,0,2.5,0S5,.675,5,1.508,3.876,3,2.5,3,0,2.326,0,1.508Z" transform="translate(69 128)" fill="#231f20"/>
  <path id="Shape-157" data-name="Shape" d="M0,9.338l.45-1.16A7.2,7.2,0,0,0,3.1,8.662c3.074,0,5.577-1.793,5.577-4.02A4.066,4.066,0,0,0,5.765,1.109L6.2,0,26,7.57,17.429,16Z" transform="translate(80 125)" fill="#12ca70"/>
  <path id="Path-266" data-name="Path" d="M5,1.5C5,2.328,3.879,3,2.5,3S0,2.328,0,1.5,1.117,0,2.5,0,5,.672,5,1.5Z" transform="translate(96 134)" fill="#12ca70"/>
  <path id="Path-267" data-name="Path" d="M8.862.542A4.517,4.517,0,0,1,12,4.5C12,6.993,9.316,9,5.994,9a7.476,7.476,0,0,1-2.856-.541A4.509,4.509,0,0,1,0,4.5C0,2.015,2.688,0,6.006,0A7.465,7.465,0,0,1,8.862.542Z" transform="translate(77 125)" fill="#12ca70"/>
  <path id="Path-268" data-name="Path" d="M2.5,0C3.881,0,5,.672,5,1.5S3.881,3,2.5,3,0,2.328,0,1.5,1.115,0,2.5,0Z" transform="translate(69 123)" fill="#12ca70"/>
  <path id="Shape-158" data-name="Shape" d="M0,10.822,10.225,0,47,15.171,36.8,26Z" transform="translate(61 118)" fill="#12ca70"/>
  <path id="Shape-159" data-name="Shape" d="M0,13,12.874,0,54,16,41.109,29Z" transform="translate(58 115)" fill="#12ca70"/>
  <path id="Shape-160" data-name="Shape" d="M0,8.39,8.724,0,24,5.71l-.444,1.1a7.453,7.453,0,0,0-2.7-.482c-3.125,0-5.674,1.79-5.674,4,0,1.526,1.2,2.845,2.964,3.518L17.691,15Z" transform="translate(63 120)" fill="#12ca70"/>
  <path id="Shape-161" data-name="Shape" d="M40.937,28.968,0,13.065,12.974,0l.076.032L54,15.938,41.017,29Z" transform="translate(58 115)" fill="#231f20"/>
  <path id="Shape-162" data-name="Shape" d="M0,10.89,10.543,0l.076.029L48,15.085,37.482,26Z" transform="translate(61 118)" fill="#231f20"/>
  <path id="Shape-163" data-name="Shape" d="M34.322,21.969,0,8.617,8.6,0,43,13.383,34.4,22Z" transform="translate(63 120)" fill="#231f20"/>
  <path id="Shape-164" data-name="Shape" d="M3.157,8.464A4.5,4.5,0,0,1,0,4.5C0,2.016,2.691,0,6,0A7.452,7.452,0,0,1,8.843.536,4.521,4.521,0,0,1,12,4.5C12,6.995,9.31,9,6,9H5.93A7.431,7.431,0,0,1,3.157,8.464Z" transform="translate(77 125)" fill="#231f20"/>
  <path id="Shape-165" data-name="Shape" d="M0,1.5C0,.678,1.107,0,2.5,0S5,.678,5,1.5,3.878,3,2.5,3,0,2.322,0,1.5Z" transform="translate(96 134)" fill="#231f20"/>
  <path id="Shape-166" data-name="Shape" d="M0,1.508C0,.689,1.105,0,2.5,0S5,.675,5,1.508,3.876,3,2.5,3,0,2.326,0,1.508Z" transform="translate(69 123)" fill="#231f20"/>
  <path id="Shape-167" data-name="Shape" d="M0,9.339l.45-1.16A7.234,7.234,0,0,0,3.1,8.663c3.074,0,5.577-1.792,5.577-4.019C8.68,3.118,7.5,1.8,5.765,1.112L6.2,0,26,7.568,17.429,16Z" transform="translate(80 120)" fill="#12ca70"/>
  <path id="Path-269" data-name="Path" d="M5,1.5C5,2.328,3.879,3,2.5,3S0,2.328,0,1.5,1.117,0,2.5,0,5,.672,5,1.5Z" transform="translate(96 128)" fill="#12ca70"/>
  <path id="Path-270" data-name="Path" d="M8.862.545A4.511,4.511,0,0,1,12,4.5C12,6.993,9.316,9,5.994,9a7.556,7.556,0,0,1-2.856-.541A4.508,4.508,0,0,1,0,4.5C0,2.018,2.688,0,6.006,0A7.468,7.468,0,0,1,8.862.545Z" transform="translate(77 121)" fill="#12ca70"/>
  <path id="Path-271" data-name="Path" d="M2.5,0C3.881,0,5,.672,5,1.5S3.881,3,2.5,3,0,2.328,0,1.5,1.115,0,2.5,0Z" transform="translate(69 119)" fill="#12ca70"/>
  <path id="Shape-168" data-name="Shape" d="M0,10.822,10.225,0,47,15.171,36.8,26Z" transform="translate(61 112)" fill="#12ca70"/>
  <path id="Shape-169" data-name="Shape" d="M0,13,12.874,0,54,16,41.109,29Z" transform="translate(58 111)" fill="#12ca70"/>
  <path id="Shape-170" data-name="Shape" d="M0,8.392,8.717,0,24,5.7l-.444,1.107a7.462,7.462,0,0,0-2.7-.485c-3.126,0-5.676,1.795-5.676,4,0,1.526,1.2,2.845,2.966,3.519L17.689,15Z" transform="translate(63 114)" fill="#12ca70"/>
  <path id="Shape-171" data-name="Shape" d="M40.937,28.968,0,13.07,12.974,0l.076.032L54,15.93,41.017,29Z" transform="translate(58 111)" fill="#231f20"/>
  <path id="Shape-172" data-name="Shape" d="M0,10.882,10.543,0l.076.029L48,15.093,37.482,26Z" transform="translate(61 112)" fill="#231f20"/>
  <path id="Shape-173" data-name="Shape" d="M34.322,21.969,0,8.622,8.6,0,43,13.392,34.4,22Z" transform="translate(63 114)" fill="#231f20"/>
  <path id="Shape-174" data-name="Shape" d="M3.157,8.464A4.5,4.5,0,0,1,0,4.5C0,2.016,2.691,0,6,0A7.487,7.487,0,0,1,8.843.536,4.521,4.521,0,0,1,12,4.5C12,6.98,9.31,9,6,9H5.93A7.431,7.431,0,0,1,3.157,8.464Z" transform="translate(77 121)" fill="#231f20"/>
  <path id="Shape-175" data-name="Shape" d="M0,1.5C0,.678,1.107,0,2.5,0S5,.678,5,1.5,3.878,3,2.5,3,0,2.322,0,1.5Z" transform="translate(96 128)" fill="#231f20"/>
  <path id="Shape-176" data-name="Shape" d="M0,1.508C0,.689,1.105,0,2.5,0S5,.675,5,1.508,3.876,3,2.5,3,0,2.326,0,1.508Z" transform="translate(69 119)" fill="#231f20"/>
  <path id="Shape-177" data-name="Shape" d="M0,9.339l.45-1.16A7.234,7.234,0,0,0,3.1,8.663c3.074,0,5.577-1.792,5.577-4.019C8.68,3.118,7.5,1.8,5.765,1.108L6.2,0,26,7.568,17.429,16Z" transform="translate(80 116)" fill="#12ca70"/>
  <path id="Path-272" data-name="Path" d="M5,1.5C5,2.328,3.879,3,2.5,3S0,2.328,0,1.5,1.117,0,2.5,0,5,.672,5,1.5Z" transform="translate(96 124)" fill="#12ca70"/>
  <path id="Path-273" data-name="Path" d="M8.862.541A4.516,4.516,0,0,1,12,4.5C12,6.993,9.316,9,5.994,9a7.556,7.556,0,0,1-2.856-.541A4.508,4.508,0,0,1,0,4.5C0,2.018,2.688,0,6.006,0A7.541,7.541,0,0,1,8.862.541Z" transform="translate(77 115)" fill="#12ca70"/>
  <path id="Path-274" data-name="Path" d="M2.5,0C3.881,0,5,.672,5,1.5S3.881,3,2.5,3,0,2.328,0,1.5,1.115,0,2.5,0Z" transform="translate(69 114)" fill="#12ca70"/>
  <path id="Shape-178" data-name="Shape" d="M0,10.822,10.225,0,47,15.171,36.8,26Z" transform="translate(61 108)" fill="#12ca70"/>
  <path id="Shape-179" data-name="Shape" d="M0,12.993,12.876,0,54,16.007,41.117,29Z" transform="translate(58 107)" fill="#12ca70"/>
  <path id="Shape-180" data-name="Shape" d="M0,8.39,8.717,0,24,5.707l-.444,1.1a7.519,7.519,0,0,0-2.7-.481c-3.126,0-5.676,1.793-5.676,4,0,1.526,1.2,2.845,2.966,3.518L17.7,15Z" transform="translate(63 109)" fill="#12ca70"/>
  <path id="Shape-181" data-name="Shape" d="M40.937,28.968,0,13.062,12.974,0l.076.032L54,15.935,41.017,29Z" transform="translate(58 106)" fill="#231f20"/>
  <path id="Shape-182" data-name="Shape" d="M0,10.89,10.543,0l.076.029L48,15.085,37.482,26Z" transform="translate(61 108)" fill="#231f20"/>
  <path id="Shape-183" data-name="Shape" d="M34.322,21.969,0,8.617,8.6,0,43,13.383,34.4,22Z" transform="translate(63 109)" fill="#231f20"/>
  <path id="Shape-184" data-name="Shape" d="M3.157,8.467A4.5,4.5,0,0,1,0,4.5C0,2.017,2.691,0,6,0A7.469,7.469,0,0,1,8.843.536,4.52,4.52,0,0,1,12,4.5C12,6.983,9.31,9,6,9H5.936A7.517,7.517,0,0,1,3.157,8.467Z" transform="translate(77 115)" fill="#231f20"/>
  <path id="Shape-185" data-name="Shape" d="M0,1.509C0,.692,1.107,0,2.5,0S5,.677,5,1.509,3.878,3,2.5,3,0,2.326,0,1.509Z" transform="translate(96 124)" fill="#231f20"/>
  <path id="Shape-186" data-name="Shape" d="M0,1.508C0,.689,1.105,0,2.5,0S5,.675,5,1.508,3.876,3,2.5,3,0,2.326,0,1.508Z" transform="translate(69 114)" fill="#231f20"/>
  <path id="Shape-187" data-name="Shape" d="M0,9.339l.45-1.16A7.234,7.234,0,0,0,3.1,8.663c3.074,0,5.577-1.795,5.577-4.019C8.68,3.118,7.5,1.8,5.765,1.108L6.2,0,26,7.568,17.429,16Z" transform="translate(80 111)" fill="#12ca70"/>
  <path id="Path-275" data-name="Path" d="M5,1.5C5,2.328,3.879,3,2.5,3S0,2.328,0,1.5,1.117,0,2.5,0,5,.672,5,1.5Z" transform="translate(96 120)" fill="#12ca70"/>
  <path id="Path-276" data-name="Path" d="M8.862.541A4.516,4.516,0,0,1,12,4.5C12,6.99,9.316,9,5.994,9a7.556,7.556,0,0,1-2.856-.541A4.508,4.508,0,0,1,0,4.5C0,2.018,2.688,0,6.006,0A7.541,7.541,0,0,1,8.862.541Z" transform="translate(77 111)" fill="#12ca70"/>
  <path id="Path-277" data-name="Path" d="M2.5,0C3.881,0,5,.672,5,1.5S3.881,3,2.5,3,0,2.328,0,1.5,1.115,0,2.5,0Z" transform="translate(69 109)" fill="#12ca70"/>
  <path id="Shape-188" data-name="Shape" d="M0,10.82,10.222,0,47,15.173,36.8,26Z" transform="translate(61 103)" fill="#12ca70"/>
  <path id="Shape-189" data-name="Shape" d="M0,13,12.874,0,54,16,41.109,29Z" transform="translate(58 101)" fill="#12ca70"/>
  <path id="Shape-190" data-name="Shape" d="M0,8.386,8.717,0,24,5.707l-.444,1.1a7.519,7.519,0,0,0-2.7-.481c-3.126,0-5.676,1.793-5.676,4,0,1.526,1.2,2.845,2.966,3.518L17.7,15Z" transform="translate(63 106)" fill="#12ca70"/>
  <path id="Shape-191" data-name="Shape" d="M40.937,28.968,0,13.062,12.974,0l.076.028L54,15.935,41.017,29Z" transform="translate(58 101)" fill="#231f20"/>
  <path id="Shape-192" data-name="Shape" d="M0,10.892,10.543,0l.076.032L48,15.087,37.482,26Z" transform="translate(61 103)" fill="#231f20"/>
  <path id="Shape-193" data-name="Shape" d="M34.322,21.969,0,8.617,8.6,0,43,13.383,34.4,22Z" transform="translate(63 105)" fill="#231f20"/>
  <path id="Shape-194" data-name="Shape" d="M3.157,8.467A4.5,4.5,0,0,1,0,4.5C0,2.017,2.691,0,6,0A7.469,7.469,0,0,1,8.843.536,4.52,4.52,0,0,1,12,4.5C12,6.995,9.31,9,6,9H5.936A7.517,7.517,0,0,1,3.157,8.467Z" transform="translate(77 111)" fill="#231f20"/>
  <path id="Shape-195" data-name="Shape" d="M0,1.509C0,.692,1.107,0,2.5,0S5,.677,5,1.509,3.878,3,2.5,3,0,2.326,0,1.509Z" transform="translate(96 120)" fill="#231f20"/>
  <path id="Shape-196" data-name="Shape" d="M0,1.509C0,.692,1.105,0,2.5,0S5,.677,5,1.509,3.876,3,2.5,3,0,2.326,0,1.509Z" transform="translate(69 109)" fill="#231f20"/>
  <path id="Shape-197" data-name="Shape" d="M0,9.339l.449-1.16a7.234,7.234,0,0,0,2.659.483c3.073,0,5.575-1.795,5.575-4.019,0-1.526-1.178-2.849-2.913-3.536L6.206,0,26,7.568,17.421,16Z" transform="translate(80 106)" fill="#12ca70"/>
  <path id="Path-278" data-name="Path" d="M5,1.5C5,2.328,3.879,3,2.5,3S0,2.328,0,1.5,1.117,0,2.5,0,5,.672,5,1.5Z" transform="translate(96 116)" fill="#12ca70"/>
  <path id="Path-279" data-name="Path" d="M8.862.541A4.516,4.516,0,0,1,12,4.5C12,6.99,9.316,9,5.994,9a7.556,7.556,0,0,1-2.856-.541A4.508,4.508,0,0,1,0,4.5C0,2.018,2.688,0,6.006,0A7.541,7.541,0,0,1,8.862.541Z" transform="translate(77 107)" fill="#12ca70"/>
  <path id="Path-280" data-name="Path" d="M2.5,0C3.881,0,5,.672,5,1.5S3.881,3,2.5,3,0,2.328,0,1.5,1.115,0,2.5,0Z" transform="translate(69 105)" fill="#12ca70"/>
  <path id="Shape-198" data-name="Shape" d="M0,10.822,10.222,0,47,15.171,36.8,26Z" transform="translate(61 98)" fill="#12ca70"/>
  <path id="Shape-199" data-name="Shape" d="M0,13,12.874,0,54,16,41.109,29Z" transform="translate(58 97)" fill="#12ca70"/>
  <path id="Shape-200" data-name="Shape" d="M0,8.386,8.724,0,24,5.707l-.444,1.1a7.513,7.513,0,0,0-2.7-.481c-3.125,0-5.674,1.793-5.674,4,0,1.526,1.2,2.845,2.964,3.518L17.691,15Z" transform="translate(63 100)" fill="#12ca70"/>
  <path id="Shape-201" data-name="Shape" d="M40.937,28.968,0,13.062,12.974,0l.076.028L54,15.935,41.017,29Z" transform="translate(58 96)" fill="#231f20"/>
  <path id="Shape-202" data-name="Shape" d="M0,10.892,10.543,0l.076.032L48,15.087,37.482,26Z" transform="translate(61 98)" fill="#231f20"/>
  <path id="Shape-203" data-name="Shape" d="M34.322,21.973,0,8.618,8.6,0,43,13.386,34.4,22Z" transform="translate(63 100)" fill="#231f20"/>
  <path id="Shape-204" data-name="Shape" d="M3.157,8.467A4.5,4.5,0,0,1,0,4.5C0,2.017,2.691,0,6,0A7.542,7.542,0,0,1,8.843.533,4.528,4.528,0,0,1,12,4.5C12,6.98,9.31,9,6,9H5.936A7.517,7.517,0,0,1,3.157,8.467Z" transform="translate(77 107)" fill="#231f20"/>
  <path id="Shape-205" data-name="Shape" d="M0,1.5C0,.675,1.107,0,2.5,0S5,.681,5,1.5,3.878,3,2.5,3,0,2.325,0,1.5Z" transform="translate(96 116)" fill="#231f20"/>
  <path id="Shape-206" data-name="Shape" d="M0,1.509C0,.692,1.105,0,2.5,0S5,.677,5,1.509,3.876,3,2.5,3,0,2.326,0,1.509Z" transform="translate(69 105)" fill="#231f20"/>
  <path id="Shape-207" data-name="Shape" d="M0,9.339l.45-1.16A7.234,7.234,0,0,0,3.1,8.663c3.074,0,5.577-1.795,5.577-4.019C8.68,3.118,7.5,1.8,5.765,1.108L6.2,0,26,7.568,17.429,16Z" transform="translate(80 101)" fill="#12ca70"/>
  <path id="Path-281" data-name="Path" d="M5,1.5C5,2.328,3.879,3,2.5,3S0,2.328,0,1.5,1.117,0,2.5,0,5,.688,5,1.5Z" transform="translate(96 110)" fill="#12ca70"/>
  <path id="Path-282" data-name="Path" d="M8.862.541A4.516,4.516,0,0,1,12,4.5C12,6.99,9.316,9,5.994,9a7.556,7.556,0,0,1-2.856-.541A4.508,4.508,0,0,1,0,4.5C0,2.018,2.688,0,6.006,0A7.541,7.541,0,0,1,8.862.541Z" transform="translate(77 101)" fill="#12ca70"/>
  <path id="Path-283" data-name="Path" d="M2.5,0C3.881,0,5,.672,5,1.5S3.881,3,2.5,3,0,2.328,0,1.5,1.115,0,2.5,0Z" transform="translate(69 99)" fill="#12ca70"/>
  <path id="Shape-208" data-name="Shape" d="M0,10.822,10.225,0,47,15.171,36.8,26Z" transform="translate(61 94)" fill="#12ca70"/>
  <path id="Shape-209" data-name="Shape" d="M0,13,12.874,0,54,16,41.109,29Z" transform="translate(58 92)" fill="#12ca70"/>
  <path id="Shape-210" data-name="Shape" d="M0,8.386,8.717,0,24,5.707l-.444,1.11a7.52,7.52,0,0,0-2.7-.482c-3.126,0-5.676,1.794-5.676,4,0,1.525,1.2,2.841,2.966,3.518L17.7,15Z" transform="translate(63 96)" fill="#12ca70"/>
  <path id="Shape-211" data-name="Shape" d="M40.937,28.968,0,13.062,12.974,0l.076.028L54,15.942,41.017,29Z" transform="translate(58 92)" fill="#231f20"/>
  <path id="Shape-212" data-name="Shape" d="M0,10.892,10.543,0l.076.032L48,15.087,37.482,26Z" transform="translate(61 94)" fill="#231f20"/>
  <path id="Shape-213" data-name="Shape" d="M34.322,21.973,0,8.617,8.6,0,43,13.383,34.4,22Z" transform="translate(63 96)" fill="#231f20"/>
  <path id="Shape-214" data-name="Shape" d="M3.157,8.464A4.494,4.494,0,0,1,0,4.5C0,2.017,2.691,0,6,0A7.542,7.542,0,0,1,8.843.533,4.528,4.528,0,0,1,12,4.5C11.993,6.98,9.3,9,5.99,9H5.929A7.443,7.443,0,0,1,3.157,8.464Z" transform="translate(77 101)" fill="#231f20"/>
  <path id="Shape-215" data-name="Shape" d="M0,1.5C0,.675,1.107,0,2.5,0S5,.681,5,1.5,3.878,3,2.5,3,0,2.325,0,1.5Z" transform="translate(96 110)" fill="#231f20"/>
  <path id="Shape-216" data-name="Shape" d="M0,1.508C0,.687,1.105,0,2.5,0S5,.678,5,1.508,3.876,3,2.5,3,0,2.328,0,1.508Z" transform="translate(69 99)" fill="#231f20"/>
  <path id="Shape-217" data-name="Shape" d="M0,9.339l.45-1.16A7.234,7.234,0,0,0,3.1,8.663c3.074,0,5.577-1.795,5.577-4.019A4.066,4.066,0,0,0,5.765,1.108L6.2,0,26,7.568,17.429,16Z" transform="translate(80 96)" fill="#12ca70"/>
  <path id="Path-284" data-name="Path" d="M5,1.5C5,2.328,3.879,3,2.5,3S0,2.328,0,1.5,1.117,0,2.5,0,5,.662,5,1.5Z" transform="translate(96 105)" fill="#12ca70"/>
  <path id="Path-285" data-name="Path" d="M8.862.541A4.516,4.516,0,0,1,12,4.5C12,6.99,9.316,9,5.994,9a7.556,7.556,0,0,1-2.856-.541A4.508,4.508,0,0,1,0,4.5C0,2.018,2.688,0,6.006,0A7.541,7.541,0,0,1,8.862.541Z" transform="translate(77 97)" fill="#12ca70"/>
  <path id="Path-286" data-name="Path" d="M2.5,0C3.881,0,5,.672,5,1.5S3.881,3,2.5,3,0,2.328,0,1.5,1.115,0,2.5,0Z" transform="translate(69 95)" fill="#12ca70"/>
  <path id="Shape-218" data-name="Shape" d="M0,10.822,10.222,0,47,15.168,36.8,26Z" transform="translate(61 88)" fill="#12ca70"/>
  <path id="Shape-219" data-name="Shape" d="M0,13,12.874,0,54,16,41.109,29Z" transform="translate(58 87)" fill="#12ca70"/>
  <path id="Shape-220" data-name="Shape" d="M0,8.388,8.717,0,24,5.709l-.444,1.1a7.519,7.519,0,0,0-2.7-.481c-3.126,0-5.676,1.793-5.676,4,0,1.525,1.2,2.84,2.966,3.517L17.689,15Z" transform="translate(63 91)" fill="#12ca70"/>
  <path id="Shape-221" data-name="Shape" d="M40.937,28.968,0,13.068,12.974,0l.076.032L54,15.942,41.017,29Z" transform="translate(58 87)" fill="#231f20"/>
  <path id="Shape-222" data-name="Shape" d="M0,10.9,10.543,0l.076.032L48,15.093,37.482,26Z" transform="translate(61 88)" fill="#231f20"/>
  <path id="Shape-223" data-name="Shape" d="M34.322,21.973,0,8.614,8.6,0,43,13.386,34.4,22Z" transform="translate(63 90)" fill="#231f20"/>
  <path id="Shape-224" data-name="Shape" d="M3.157,8.464A4.5,4.5,0,0,1,0,4.5C0,2.013,2.691,0,6,0A7.542,7.542,0,0,1,8.843.533,4.528,4.528,0,0,1,12,4.5C12,6.98,9.31,9,6,9H5.93A7.449,7.449,0,0,1,3.157,8.464Z" transform="translate(77 97)" fill="#231f20"/>
  <path id="Shape-225" data-name="Shape" d="M0,1.508C0,.687,1.107,0,2.5,0S5,.678,5,1.508,3.878,3,2.5,3,0,2.328,0,1.508Z" transform="translate(96 105)" fill="#231f20"/>
  <path id="Shape-226" data-name="Shape" d="M0,1.508C0,.687,1.105,0,2.5,0S5,.678,5,1.508,3.876,3,2.5,3,0,2.328,0,1.508Z" transform="translate(69 95)" fill="#231f20"/>
  <g id="Group-6" data-name="Group" transform="translate(49 73)" opacity="0.44">
    <path id="Path-287" data-name="Path" d="M27.626,0V56.791L0,84.616V27.825L27.626,0Z" transform="translate(54.178 0.232)" fill="#52aaff"/>
    <path id="Path-288" data-name="Path" d="M54.1,21.022V77.813L0,56.795V0L54.1,21.022Z" transform="translate(0.075 7.035)" fill="#52aaff"/>
  </g>
  <path id="Shape-227" data-name="Shape" d="M54.823,78.934,0,57.668V0L.177.067,55,21.338V79Z" transform="translate(49 81)" fill="#231f20"/>
  <path id="Path-289" data-name="Path" d="M.183,85,0,84.817,27.741,57.04V.629L.183,28.223,0,28.04,28,0V57.147l-.038.038L.183,85Z" transform="translate(104 73)" fill="#231f20"/>
  <g id="Group-7" data-name="Group" transform="translate(49 52)" opacity="0.44">
    <path id="Path-290" data-name="Path" d="M81.729,20.844l-27.6,27.663L0,27.591,27.626,0l54.1,20.844Z" transform="translate(0.075 0.288)" fill="#52aaff"/>
  </g>
  <path id="Shape-228" data-name="Shape" d="M0,27.9l.14-.14L27.763,0l.079.031L82,21.015,54.271,49Z" transform="translate(49 53)" fill="#231f20"/>
  <rect id="Rectangle-55" data-name="Rectangle" width="205" height="247" transform="translate(1)" fill="#f49493" style="mix-blend-mode: color;isolation: isolate"/>
</svg>
