<svg xmlns="http://www.w3.org/2000/svg" width="159.683" height="96.861" viewBox="0 0 159.683 96.861">
  <g id="Layer_2" data-name="Layer 2" transform="translate(0.353 0.25)">
    <g id="OBJECTS" transform="translate(0.001)">
      <path id="Path_93125" data-name="Path 93125" d="M207.351,0H149.025l11.548,11.548L118.72,53.4l31.332,31.326L191.9,42.879l15.446,15.446Z" transform="translate(-48.272)" fill="#f5ebd0" stroke="#e0c371" stroke-width="0.5"/>
      <path id="Path_93126" data-name="Path 93126" d="M149.02,84.608l-1.679-1.673,46.873-46.873,8.325,8.325V10.374H168.526l4.427,4.427L126.079,61.673,124.4,59.994,169.594,14.8l-6.8-6.8h42.12V50.12l-10.7-10.705Z" transform="translate(-50.581 -3.253)" fill="#cbaa4d"/>
      <path id="Path_93127" data-name="Path 93127" d="M127.983,19.45l31.326,31.326-9.257,41.859L118.72,61.309Z" transform="translate(-48.272 -7.908)" fill="#e0c371" stroke="#e0c371" stroke-width="1"/>
      <rect id="Rectangle_2144" data-name="Rectangle 2144" width="44.309" height="59.198" transform="translate(79.706 11.542) rotate(45)" fill="#f5ebd0" stroke="#e0c371" stroke-width="0.5"/>
      <rect id="Rectangle_2145" data-name="Rectangle 2145" width="59.198" height="2.374" transform="translate(41.226 56.773) rotate(-45)" fill="#cbaa4d"/>
      <rect id="Rectangle_2146" data-name="Rectangle 2146" width="59.198" height="2.374" transform="translate(64.165 79.71) rotate(-45)" fill="#cbaa4d"/>
      <path id="Path_93128" data-name="Path 93128" d="M79.325,19.45l31.326,31.326L95.116,92.634,63.79,61.309Z" transform="translate(-25.937 -7.908)" fill="#e0c371"/>
      <rect id="Rectangle_2147" data-name="Rectangle 2147" width="44.309" height="75.499" transform="translate(53.386 11.54) rotate(45)" fill="#f5ebd0" stroke="#e0c371" stroke-width="0.5"/>
      <path id="Path_93129" data-name="Path 93129" d="M35.93,99.756,11.31,75.142,61.322,25.13,63,26.809,14.669,75.142,35.93,96.4,84.263,48.071l1.673,1.679Z" transform="translate(-4.599 -10.218)" fill="#cbaa4d"/>
      <path id="Path_93130" data-name="Path 93130" d="M14.14,105.177,20.335,99a8.753,8.753,0,0,1-.089,12.461Z" transform="translate(-5.75 -40.253)" fill="#cbaa4d"/>
      <path id="Path_93131" data-name="Path 93131" d="M48.533,142.1l-6.243-6.124a8.753,8.753,0,0,1,12.461,0Z" transform="translate(-17.196 -54.227)" fill="#cbaa4d"/>
      <circle id="Ellipse_291" data-name="Ellipse 291" cx="11.298" cy="11.298" r="11.298" transform="translate(36.82 36.839)" fill="#cbaa4d"/>
    </g>
  </g>
</svg>
